<?xml version="1.0" encoding="UTF-8" standalone="no"?>
<!-- Created with Inkscape (http://www.inkscape.org/) -->

<svg
   xmlns:dc="http://purl.org/dc/elements/1.1/"
   xmlns:cc="http://creativecommons.org/ns#"
   xmlns:rdf="http://www.w3.org/1999/02/22-rdf-syntax-ns#"
   xmlns:svg="http://www.w3.org/2000/svg"
   xmlns="http://www.w3.org/2000/svg"
   xmlns:sodipodi="http://sodipodi.sourceforge.net/DTD/sodipodi-0.dtd"
   xmlns:inkscape="http://www.inkscape.org/namespaces/inkscape"
   width="664.69366"
   height="442.61588"
   id="svg2"
   version="1.1"
   inkscape:version="0.91 r13725"
   sodipodi:docname="logo.svg">
  <defs
     id="defs4" />
  <sodipodi:namedview
     id="base"
     pagecolor="#ffffff"
     bordercolor="#666666"
     borderopacity="1.0"
     inkscape:pageopacity="0.0"
     inkscape:pageshadow="2"
     inkscape:zoom="0.35355338"
     inkscape:cx="293.72807"
     inkscape:cy="297.4727"
     inkscape:document-units="px"
     inkscape:current-layer="layer1"
     showgrid="false"
     inkscape:window-width="1271"
     inkscape:window-height="826"
     inkscape:window-x="89"
     inkscape:window-y="0"
     inkscape:window-maximized="0"
     showguides="true"
     inkscape:guide-bbox="true"
     fit-margin-top="0"
     fit-margin-left="0"
     fit-margin-right="0"
     fit-margin-bottom="0">
    <sodipodi:guide
       position="-100.27744,529.2364"
       orientation="0,1"
       id="guide3390" />
  </sodipodi:namedview>
  <metadata
     id="metadata7">
    <rdf:RDF>
      <cc:Work
         rdf:about="">
        <dc:format>image/svg+xml</dc:format>
        <dc:type
           rdf:resource="http://purl.org/dc/dcmitype/StillImage" />
        <dc:title></dc:title>
      </cc:Work>
    </rdf:RDF>
  </metadata>
  <g
     inkscape:label="Layer 1"
     inkscape:groupmode="layer"
     id="layer1"
     transform="translate(-8.3535528,-82.565224)">
    <rect
       style="fill:#333333;fill-opacity:1;stroke:none"
       id="rect3282"
       width="402"
       height="111"
       x="159"
       y="275.36218"
       sodipodi:insensitive="true" />
    <rect
       style="fill:#333333;fill-opacity:1;stroke:none"
       id="rect3230"
       width="118.44038"
       height="107.48023"
       x="266.22571"
       y="82.565224"
       sodipodi:insensitive="true" />
    <ellipse
       style="fill:none;stroke:#ffffff;stroke-width:2.5;stroke-miterlimit:4;stroke-dasharray:none;stroke-opacity:1"
       id="path3066-0-7-9"
       inkscape:export-filename="/Users/msh801/github/bat/images/tidal.png"
       inkscape:export-xdpi="90"
       inkscape:export-ydpi="90"
       cx="234.71423"
       cy="327.9274"
       rx="33.572266"
       ry="33.572273" />
    <path
       inkscape:connector-curvature="0"
       style="fill:#ffffff;fill-opacity:1;stroke:#558cb9;stroke-width:0;stroke-linecap:round;stroke-linejoin:round;stroke-miterlimit:4;stroke-dasharray:none;stroke-opacity:1"
       d="m 230.13836,313.33307 c -1.21569,0 -2.38385,0.12929 -3.3125,0.28125 l 0,12.71875 c 0.72604,0.10131 1.66435,0.15625 2.8125,0.15625 2.27941,0 4.11622,-0.58749 5.28125,-1.71875 1.13126,-1.0975 1.875,-2.8093 1.875,-5.15625 0,-2.87037 -1.15189,-6.28125 -6.65625,-6.28125 z m -18.34375,0.125 0,1.65625 3.5,0 0,9.6875 c -0.26656,2.8e-4 -0.53492,-0.002 -0.65625,0 -3.93384,0.0552 -6.73029,0.24872 -10.34375,1.09375 -0.0518,0.7267 -0.0625,1.47882 -0.0625,2.21875 0,16.84028 13.62854,30.46875 30.46875,30.46875 16.19465,0 29.44579,-12.6177 30.4375,-28.5625 -4.58415,0.90885 -11.11835,1.29288 -18.25,0.875 0.51535,0.5718 0.65625,1.2523 0.65625,1.8125 0,1.13609 -0.69247,2.12686 -1.9375,2.59375 l 0,0.0625 c 1.24503,0.31126 2.375,1.30352 2.375,2.96875 0,1.26059 -0.59549,2.00161 -1.03125,2.40625 -0.79371,0.76258 -2.10158,1.09375 -4.0625,1.09375 -1.05828,0 -1.86142,-0.0627 -2.375,-0.125 l 0,-11.625 c -5.30919,-1.01002 -11.1936,-2.76001 -16.375,-3.96875 l 0,-12.65625 -1.9375,0 0,12.21875 c -1.77833,-0.37468 -3.47359,-0.64571 -4.96875,-0.78125 l 0,-9.78125 3.5,0 0,-1.65625 -8.9375,0 z m 30.03125,0 -3.9375,12.90625 2,0 1.125,-3.8125 3.9375,0 1.15625,3.8125 2.0625,0 -3.9375,-12.90625 -2.40625,0 z m 8.125,0 0,12.90625 6.9375,0 0,-1.65625 -4.96875,0 0,-11.25 -1.96875,0 z m -19.625,1.4375 c 2.78595,0 4.40625,1.60947 4.40625,4.75 0,3.56264 -1.75211,5.26688 -4.65625,5.25 -0.45588,0 -0.94356,-0.0119 -1.28125,-0.0625 l 0,-9.8125 c 0.33769,-0.0675 0.85587,-0.125 1.53125,-0.125 z m 12.625,0.25 0.0312,0 c 0.18573,0.79357 0.38862,1.68702 0.625,2.53125 l 1.03125,3.375 -3.34375,0 1.03125,-3.375 c 0.2195,-0.79357 0.43927,-1.73768 0.625,-2.53125 z m -20.6875,14.6875 1.78125,0 0,10.375 4.59375,0 0,1.53125 -6.375,0 0,-11.90625 z m 10.78125,0 2.1875,0 3.65625,11.90625 -1.90625,0 -1.0625,-3.5 -3.65625,0 -1.03125,3.5 -1.84375,0 3.65625,-11.90625 z m 10.4375,1.28125 c -0.59139,0 -0.93837,0.0471 -1.15625,0.0937 l 0,3.59375 1.09375,0 c 1.43179,0 2.34375,-0.80128 2.34375,-1.90625 0,-1.43179 -1.16072,-1.78125 -2.28125,-1.78125 z m -9.40625,0.28125 c -0.17119,0.73146 -0.36018,1.61229 -0.5625,2.34375 l -0.96875,3.125 3.0625,0 -0.9375,-3.125 c -0.21788,-0.77814 -0.39131,-1.61229 -0.5625,-2.34375 l -0.0312,0 z m 8.25,4.75 0,4.25 c 0.26457,0.0467 0.59561,0.0625 1.0625,0.0625 1.44735,0 2.71875,-0.61565 2.71875,-2.1875 0,-1.57185 -1.3649,-2.125 -2.75,-2.125 l -1.03125,0 z"
       id="path3066-7-1-8-4"
       inkscape:export-filename="/Users/msh801/github/bat/images/tidal.png"
       inkscape:export-xdpi="90"
       inkscape:export-ydpi="90" />
    <text
       xml:space="preserve"
       style="font-style:normal;font-variant:normal;font-weight:normal;font-stretch:normal;font-size:40.73760223px;line-height:125%;font-family:Gulim;-inkscape-font-specification:Gulim;letter-spacing:0px;word-spacing:0px;fill:#000000;fill-opacity:1;stroke:none"
       x="281.40622"
       y="316.57318"
       id="text3916-6"
       sodipodi:linespacing="125%"
       inkscape:export-filename="/Users/msh801/Sites/tidal/images/logo.png"
       inkscape:export-xdpi="91.420067"
       inkscape:export-ydpi="91.420067"><tspan
         sodipodi:role="line"
         id="tspan3918-2"
         x="281.40622"
         y="316.57318"
         style="font-style:normal;font-variant:normal;font-weight:300;font-stretch:normal;font-size:16.29504013px;font-family:'Hiragino Sans GB';-inkscape-font-specification:'Hiragino Sans GB Light';fill:#ffffff">Tangible Interaction Design</tspan><tspan
         sodipodi:role="line"
         x="281.40622"
         y="336.94199"
         id="tspan3922-4"
         style="font-style:normal;font-variant:normal;font-weight:300;font-stretch:normal;font-size:16.29504013px;font-family:'Hiragino Sans GB';-inkscape-font-specification:'Hiragino Sans GB Light';fill:#ffffff">and Learning Laboratory</tspan><tspan
         sodipodi:role="line"
         x="281.40622"
         y="354.32336"
         style="font-style:normal;font-variant:normal;font-weight:300;font-stretch:normal;font-size:12.22128105px;font-family:'Hiragino Sans GB';-inkscape-font-specification:'Hiragino Sans GB Light';fill:#cccccc"
         id="tspan3937-7">tidal.sesp.northwestern.edu</tspan></text>
    <g
       id="g3394"
       transform="translate(91.21677,98.7972)"
       inkscape:export-xdpi="18"
       inkscape:export-ydpi="18">
      <g
         transform="translate(-78.732634,-37.016925)"
         id="g3376">
        <ellipse
           style="fill:none;stroke:#558cb9;stroke-width:2.5;stroke-miterlimit:4;stroke-dasharray:none;stroke-opacity:1"
           id="path3257"
           inkscape:export-filename="/Users/msh801/Sites/tidal/images/logo-black.png"
           inkscape:export-xdpi="90"
           inkscape:export-ydpi="90"
           cx="-48.713459"
           cy="67.233757"
           rx="33.572266"
           ry="33.572273"
           transform="matrix(0.5,-0.8660254,0.8660254,0.5,0,0)" />
        <path
           inkscape:connector-curvature="0"
           style="fill:#558cb9;fill-opacity:1;stroke:#558cb9;stroke-width:0;stroke-linecap:round;stroke-linejoin:round;stroke-miterlimit:4;stroke-dasharray:none;stroke-opacity:1"
           d="m 29.322534,61.178971 c -1.21569,0 -2.38385,0.12929 -3.3125,0.28125 l 0,12.71875 c 0.72604,0.10131 1.66435,0.15625 2.8125,0.15625 2.27941,0 4.11622,-0.58749 5.28125,-1.71875 1.13126,-1.0975 1.875,-2.8093 1.875,-5.15625 0,-2.87037 -1.15189,-6.28125 -6.65625,-6.28125 z m -18.343745,0.125 0,1.65625 3.5,0 0,9.6875 c -0.26656,2.8e-4 -0.53492,-0.0016 -0.65625,0 -3.9338398,0.05517 -6.7302898,0.24872 -10.3437498,1.09375 -0.05182,0.7267 -0.0625,1.47882 -0.0625,2.21875 0,16.84028 13.6285398,30.468749 30.4687448,30.468749 16.19465,0 29.44579,-12.617699 30.4375,-28.562499 -4.58415,0.90885 -11.11835,1.29288 -18.25,0.875 0.51535,0.5718 0.65625,1.2523 0.65625,1.8125 0,1.13609 -0.69247,2.12686 -1.9375,2.59375 l 0,0.0625 c 1.24503,0.31126 2.375,1.30352 2.375,2.96875 0,1.26059 -0.59549,2.00161 -1.03125,2.40625 -0.79371,0.76258 -2.10158,1.09375 -4.0625,1.09375 -1.05828,0 -1.86142,-0.06275 -2.375,-0.125 l 0,-11.625 c -5.30919,-1.01002 -11.1936,-2.76001 -16.375,-3.96875 l 0,-12.65625 -1.9375,0 0,12.21875 c -1.77833,-0.37468 -3.47359,-0.64571 -4.968745,-0.78125 l 0,-9.78125 3.499995,0 0,-1.65625 -8.937495,0 z m 30.031245,0 -3.9375,12.90625 2,0 1.125,-3.8125 3.9375,0 1.15625,3.8125 2.0625,0 -3.9375,-12.90625 -2.40625,0 z m 8.125,0 0,12.90625 6.9375,0 0,-1.65625 -4.96875,0 0,-11.25 -1.96875,0 z m -19.625,1.4375 c 2.78595,0 4.40625,1.60947 4.40625,4.75 0,3.56264 -1.75211,5.26688 -4.65625,5.25 -0.45588,0 -0.94356,-0.01185 -1.28125,-0.0625 l 0,-9.8125 c 0.33769,-0.06754 0.85587,-0.125 1.53125,-0.125 z m 12.625,0.25 0.0312,0 c 0.18573,0.79357 0.38862,1.68702 0.625,2.53125 l 1.03125,3.375 -3.34375,0 1.03125,-3.375 c 0.2195,-0.79357 0.43927,-1.73768 0.625,-2.53125 z m -20.6875,14.6875 1.78125,0 0,10.375 4.59375,0 0,1.53125 -6.375,0 0,-11.90625 z m 10.78125,0 2.1875,0 3.65625,11.90625 -1.90625,0 -1.0625,-3.5 -3.65625,0 -1.03125,3.5 -1.84375,0 3.65625,-11.90625 z m 10.4375,1.28125 c -0.59139,0 -0.93837,0.04706 -1.15625,0.09375 l 0,3.59375 1.09375,0 c 1.43179,0 2.34375,-0.80128 2.34375,-1.90625 0,-1.43179 -1.16072,-1.78125 -2.28125,-1.78125 z m -9.40625,0.28125 c -0.17119,0.73146 -0.36018,1.61229 -0.5625,2.34375 l -0.96875,3.125 3.0625,0 -0.9375,-3.125 c -0.21788,-0.77814 -0.39131,-1.61229 -0.5625,-2.34375 l -0.0312,0 z m 8.25,4.75 0,4.25 c 0.26457,0.04669 0.59561,0.0625 1.0625,0.0625 1.44735,0 2.71875,-0.61565 2.71875,-2.1875 0,-1.57185 -1.3649,-2.125 -2.75,-2.125 l -1.03125,0 z"
           id="path3259" />
      </g>
      <rect
         y="0.78704643"
         x="-82.86322"
         height="76"
         width="76"
         id="rect3374"
         style="opacity:0.58189655;fill:none;fill-opacity:1;stroke:none;stroke-width:5;stroke-linecap:round;stroke-linejoin:round;stroke-miterlimit:4;stroke-dasharray:none;stroke-dashoffset:0;stroke-opacity:1" />
    </g>
    <g
       id="g3404"
       inkscape:export-xdpi="71.050003"
       inkscape:export-ydpi="71.050003"
       transform="translate(97.76211,-15.2028)">
      <g
         transform="translate(-0.10765076,-0.391922)"
         id="g3400">
        <ellipse
           inkscape:export-ydpi="90"
           inkscape:export-xdpi="90"
           inkscape:export-filename="/Users/msh801/Sites/tidal/images/logo-black.png"
           transform="matrix(0,1,-1,0,0,0)"
           id="path3253"
           style="fill:none;stroke:#666666;stroke-width:2.5;stroke-miterlimit:4;stroke-dasharray:none;stroke-opacity:1"
           cx="153.17897"
           cy="-39.244431"
           rx="33.572266"
           ry="33.572273" />
        <path
           id="path3255"
           d="m 34.668534,138.58464 c -1.21569,0 -2.38385,0.12929 -3.3125,0.28125 l 0,12.71875 c 0.72604,0.10131 1.66435,0.15625 2.8125,0.15625 2.27941,0 4.11622,-0.58749 5.28125,-1.71875 1.13126,-1.0975 1.875,-2.8093 1.875,-5.15625 0,-2.87037 -1.15189,-6.28125 -6.65625,-6.28125 z m -18.34375,0.125 0,1.65625 3.5,0 0,9.6875 c -0.26656,2.8e-4 -0.53492,-0.002 -0.65625,0 -3.93384,0.0552 -6.73029,0.24872 -10.3437495,1.09375 -0.05182,0.7267 -0.0625,1.47882 -0.0625,2.21875 0,16.84028 13.6285395,30.46875 30.4687495,30.46875 16.19465,0 29.44579,-12.6177 30.4375,-28.5625 -4.58415,0.90885 -11.11835,1.29288 -18.25,0.875 0.51535,0.5718 0.65625,1.2523 0.65625,1.8125 0,1.13609 -0.69247,2.12686 -1.9375,2.59375 l 0,0.0625 c 1.24503,0.31126 2.375,1.30352 2.375,2.96875 0,1.26059 -0.59549,2.00161 -1.03125,2.40625 -0.79371,0.76258 -2.10158,1.09375 -4.0625,1.09375 -1.05828,0 -1.86142,-0.0627 -2.375,-0.125 l 0,-11.625 c -5.30919,-1.01002 -11.1936,-2.76001 -16.375,-3.96875 l 0,-12.65625 -1.9375,0 0,12.21875 c -1.77833,-0.37468 -3.47359,-0.64571 -4.96875,-0.78125 l 0,-9.78125 3.5,0 0,-1.65625 -8.9375,0 z m 30.03125,0 -3.9375,12.90625 2,0 1.125,-3.8125 3.9375,0 1.15625,3.8125 2.0625,0 -3.9375,-12.90625 -2.40625,0 z m 8.125,0 0,12.90625 6.9375,0 0,-1.65625 -4.96875,0 0,-11.25 -1.96875,0 z m -19.625,1.4375 c 2.78595,0 4.40625,1.60947 4.40625,4.75 0,3.56264 -1.75211,5.26688 -4.65625,5.25 -0.45588,0 -0.94356,-0.0119 -1.28125,-0.0625 l 0,-9.8125 c 0.33769,-0.0675 0.85587,-0.125 1.53125,-0.125 z m 12.625,0.25 0.03125,0 c 0.18573,0.79357 0.38862,1.68702 0.625,2.53125 l 1.03125,3.375 -3.34375,0 1.03125,-3.375 c 0.2195,-0.79357 0.43927,-1.73768 0.625,-2.53125 z m -20.6875,14.6875 1.78125,0 0,10.375 4.59375,0 0,1.53125 -6.375,0 0,-11.90625 z m 10.78125,0 2.1875,0 3.65625,11.90625 -1.90625,0 -1.0625,-3.5 -3.65625,0 -1.03125,3.5 -1.84375,0 3.65625,-11.90625 z m 10.4375,1.28125 c -0.59139,0 -0.93837,0.0471 -1.15625,0.0937 l 0,3.59375 1.09375,0 c 1.43179,0 2.34375,-0.80128 2.34375,-1.90625 0,-1.43179 -1.16072,-1.78125 -2.28125,-1.78125 z m -9.40625,0.28125 c -0.17119,0.73146 -0.36018,1.61229 -0.5625,2.34375 l -0.96875,3.125 3.0625,0 -0.9375,-3.125 c -0.21788,-0.77814 -0.39131,-1.61229 -0.5625,-2.34375 l -0.03125,0 z m 8.25,4.75 0,4.25 c 0.26457,0.0467 0.59561,0.0625 1.0625,0.0625 1.44735,0 2.71875,-0.61565 2.71875,-2.1875 0,-1.57185 -1.3649,-2.125 -2.75,-2.125 l -1.03125,0 z"
           style="fill:#666666;fill-opacity:1;stroke:#558cb9;stroke-width:0;stroke-linecap:round;stroke-linejoin:round;stroke-miterlimit:4;stroke-dasharray:none;stroke-opacity:1"
           inkscape:connector-curvature="0" />
      </g>
      <rect
         style="opacity:0.58189655;fill:none;fill-opacity:1;stroke:none;stroke-width:5;stroke-linecap:round;stroke-linejoin:round;stroke-miterlimit:4;stroke-dasharray:none;stroke-dashoffset:0;stroke-opacity:1"
         id="rect3392"
         width="76"
         height="76"
         x="1.1367798"
         y="114.78705" />
    </g>
    <g
       id="g3430"
       transform="translate(84.06483,97.93429)">
      <g
         id="g3426">
        <ellipse
           ry="33.572273"
           rx="33.572266"
           cy="-143.37943"
           cx="39.64996"
           style="fill:none;stroke:#000000;stroke-width:2.5;stroke-miterlimit:4;stroke-dasharray:none;stroke-opacity:1"
           id="ellipse3414"
           transform="matrix(0,1,-1,0,0,0)"
           inkscape:export-filename="/Users/msh801/Sites/tidal/images/logo-black.png"
           inkscape:export-xdpi="90"
           inkscape:export-ydpi="90" />
        <path
           inkscape:connector-curvature="0"
           style="fill:#000000;fill-opacity:1;stroke:#558cb9;stroke-width:0;stroke-linecap:round;stroke-linejoin:round;stroke-miterlimit:4;stroke-dasharray:none;stroke-opacity:1"
           d="m 138.80352,25.05563 c -1.21569,0 -2.38385,0.12929 -3.3125,0.28125 l 0,12.71875 c 0.72604,0.10131 1.66435,0.15625 2.8125,0.15625 2.27941,0 4.11622,-0.58749 5.28125,-1.71875 1.13126,-1.0975 1.875,-2.8093 1.875,-5.15625 0,-2.87037 -1.15189,-6.28125 -6.65625,-6.28125 z m -18.34375,0.125 0,1.65625 3.5,0 0,9.6875 c -0.26656,2.8e-4 -0.53492,-0.002 -0.65625,0 -3.93384,0.0552 -6.73029,0.24872 -10.34375,1.09375 -0.0518,0.7267 -0.0625,1.47882 -0.0625,2.21875 0,16.84028 13.62854,30.46875 30.46875,30.46875 16.19465,0 29.44579,-12.6177 30.4375,-28.5625 -4.58415,0.90885 -11.11835,1.29288 -18.25,0.875 0.51535,0.5718 0.65625,1.2523 0.65625,1.8125 0,1.13609 -0.69247,2.12686 -1.9375,2.59375 l 0,0.0625 c 1.24503,0.31126 2.375,1.30352 2.375,2.96875 0,1.26059 -0.59549,2.00161 -1.03125,2.40625 -0.79371,0.76258 -2.10158,1.09375 -4.0625,1.09375 -1.05828,0 -1.86142,-0.0627 -2.375,-0.125 l 0,-11.625 c -5.30919,-1.01002 -11.1936,-2.76001 -16.375,-3.96875 l 0,-12.65625 -1.9375,0 0,12.21875 c -1.77833,-0.37468 -3.47359,-0.64571 -4.96875,-0.78125 l 0,-9.78125 3.5,0 0,-1.65625 -8.9375,0 z m 30.03125,0 -3.9375,12.90625 2,0 1.125,-3.8125 3.9375,0 1.15625,3.8125 2.0625,0 -3.9375,-12.90625 -2.40625,0 z m 8.125,0 0,12.90625 6.9375,0 0,-1.65625 -4.96875,0 0,-11.25 -1.96875,0 z m -19.625,1.4375 c 2.78595,0 4.40625,1.60947 4.40625,4.75 0,3.56264 -1.75211,5.26688 -4.65625,5.25 -0.45588,0 -0.94356,-0.0119 -1.28125,-0.0625 l 0,-9.8125 c 0.33769,-0.0675 0.85587,-0.125 1.53125,-0.125 z m 12.625,0.25 0.0312,0 c 0.18573,0.79357 0.38862,1.68702 0.625,2.53125 l 1.03125,3.375 -3.34375,0 1.03125,-3.375 c 0.2195,-0.79357 0.43927,-1.73768 0.625,-2.53125 z m -20.6875,14.6875 1.78125,0 0,10.375 4.59375,0 0,1.53125 -6.375,0 0,-11.90625 z m 10.78125,0 2.1875,0 3.65625,11.90625 -1.90625,0 -1.0625,-3.5 -3.65625,0 -1.03125,3.5 -1.84375,0 3.65625,-11.90625 z m 10.4375,1.28125 c -0.59139,0 -0.93837,0.0471 -1.15625,0.0937 l 0,3.59375 1.09375,0 c 1.43179,0 2.34375,-0.80128 2.34375,-1.90625 0,-1.43179 -1.16072,-1.78125 -2.28125,-1.78125 z m -9.40625,0.28125 c -0.17119,0.73146 -0.36018,1.61229 -0.5625,2.34375 l -0.96875,3.125 3.0625,0 -0.9375,-3.125 c -0.21788,-0.77814 -0.39131,-1.61229 -0.5625,-2.34375 l -0.0312,0 z m 8.25,4.75 0,4.25 c 0.26457,0.0467 0.59561,0.0625 1.0625,0.0625 1.44735,0 2.71875,-0.61565 2.71875,-2.1875 0,-1.57185 -1.3649,-2.125 -2.75,-2.125 l -1.03125,0 z"
           id="path3416" />
      </g>
      <rect
         y="1.6499584"
         x="105.37942"
         height="76"
         width="76"
         id="rect3418"
         style="opacity:0.58189655;fill:none;fill-opacity:1;stroke:none;stroke-width:5;stroke-linecap:round;stroke-linejoin:round;stroke-miterlimit:4;stroke-dasharray:none;stroke-dashoffset:0;stroke-opacity:1" />
    </g>
    <g
       id="g3456"
       transform="translate(-4.949747,4.24264)"
       inkscape:export-xdpi="355.26001"
       inkscape:export-ydpi="355.26001">
      <g
         id="g3452">
        <ellipse
           inkscape:export-ydpi="90"
           inkscape:export-xdpi="90"
           inkscape:export-filename="/Users/msh801/Sites/tidal/images/logo-black.png"
           transform="matrix(0,1,-1,0,0,0)"
           id="ellipse3440"
           style="fill:none;stroke:#ffffff;stroke-width:2.5;stroke-miterlimit:4;stroke-dasharray:none;stroke-opacity:1"
           cx="133.34161"
           cy="-322.93933"
           rx="33.572266"
           ry="33.572273" />
        <path
           id="path3442"
           d="m 318.36344,118.74728 c -1.21569,0 -2.38385,0.12929 -3.3125,0.28125 l 0,12.71875 c 0.72604,0.10131 1.66435,0.15625 2.8125,0.15625 2.27941,0 4.11622,-0.58749 5.28125,-1.71875 1.13126,-1.0975 1.875,-2.8093 1.875,-5.15625 0,-2.87037 -1.15189,-6.28125 -6.65625,-6.28125 z m -18.34375,0.125 0,1.65625 3.5,0 0,9.6875 c -0.26656,2.8e-4 -0.53492,-0.002 -0.65625,0 -3.93384,0.0552 -6.73029,0.24872 -10.34375,1.09375 -0.0518,0.7267 -0.0625,1.47882 -0.0625,2.21875 0,16.84028 13.62854,30.46875 30.46875,30.46875 16.19465,0 29.44579,-12.6177 30.4375,-28.5625 -4.58415,0.90885 -11.11835,1.29288 -18.25,0.875 0.51535,0.5718 0.65625,1.2523 0.65625,1.8125 0,1.13609 -0.69247,2.12686 -1.9375,2.59375 l 0,0.0625 c 1.24503,0.31126 2.375,1.30352 2.375,2.96875 0,1.26059 -0.59549,2.00161 -1.03125,2.40625 -0.79371,0.76258 -2.10158,1.09375 -4.0625,1.09375 -1.05828,0 -1.86142,-0.0627 -2.375,-0.125 l 0,-11.625 c -5.30919,-1.01002 -11.1936,-2.76001 -16.375,-3.96875 l 0,-12.65625 -1.9375,0 0,12.21875 c -1.77833,-0.37468 -3.47359,-0.64571 -4.96875,-0.78125 l 0,-9.78125 3.5,0 0,-1.65625 -8.9375,0 z m 30.03125,0 -3.9375,12.90625 2,0 1.125,-3.8125 3.9375,0 1.15625,3.8125 2.0625,0 -3.9375,-12.90625 -2.40625,0 z m 8.125,0 0,12.90625 6.9375,0 0,-1.65625 -4.96875,0 0,-11.25 -1.96875,0 z m -19.625,1.4375 c 2.78595,0 4.40625,1.60947 4.40625,4.75 0,3.56264 -1.75211,5.26688 -4.65625,5.25 -0.45588,0 -0.94356,-0.0119 -1.28125,-0.0625 l 0,-9.8125 c 0.33769,-0.0675 0.85587,-0.125 1.53125,-0.125 z m 12.625,0.25 0.0312,0 c 0.18573,0.79357 0.38862,1.68702 0.625,2.53125 l 1.03125,3.375 -3.34375,0 1.03125,-3.375 c 0.2195,-0.79357 0.43927,-1.73768 0.625,-2.53125 z m -20.6875,14.6875 1.78125,0 0,10.375 4.59375,0 0,1.53125 -6.375,0 0,-11.90625 z m 10.78125,0 2.1875,0 3.65625,11.90625 -1.90625,0 -1.0625,-3.5 -3.65625,0 -1.03125,3.5 -1.84375,0 3.65625,-11.90625 z m 10.4375,1.28125 c -0.59139,0 -0.93837,0.0471 -1.15625,0.0937 l 0,3.59375 1.09375,0 c 1.43179,0 2.34375,-0.80128 2.34375,-1.90625 0,-1.43179 -1.16072,-1.78125 -2.28125,-1.78125 z m -9.40625,0.28125 c -0.17119,0.73146 -0.36018,1.61229 -0.5625,2.34375 l -0.96875,3.125 3.0625,0 -0.9375,-3.125 c -0.21788,-0.77814 -0.39131,-1.61229 -0.5625,-2.34375 l -0.0312,0 z m 8.25,4.75 0,4.25 c 0.26457,0.0467 0.59561,0.0625 1.0625,0.0625 1.44735,0 2.71875,-0.61565 2.71875,-2.1875 0,-1.57185 -1.3649,-2.125 -2.75,-2.125 l -1.03125,0 z"
           style="fill:#ffffff;fill-opacity:1;stroke:#558cb9;stroke-width:0;stroke-linecap:round;stroke-linejoin:round;stroke-miterlimit:4;stroke-dasharray:none;stroke-opacity:1"
           inkscape:connector-curvature="0" />
      </g>
      <rect
         style="opacity:0.58189655;fill:none;fill-opacity:1;stroke:none;stroke-width:5;stroke-linecap:round;stroke-linejoin:round;stroke-miterlimit:4;stroke-dasharray:none;stroke-dashoffset:0;stroke-opacity:1"
         id="rect3444"
         width="76"
         height="76"
         x="284.93933"
         y="95.341606" />
    </g>
  </g>
</svg>
