<?xml version="1.0" encoding="UTF-8" standalone="no"?>
<!-- Created with Inkscape (http://www.inkscape.org/) -->

<svg
   xmlns:dc="http://purl.org/dc/elements/1.1/"
   xmlns:cc="http://creativecommons.org/ns#"
   xmlns:rdf="http://www.w3.org/1999/02/22-rdf-syntax-ns#"
   xmlns:svg="http://www.w3.org/2000/svg"
   xmlns="http://www.w3.org/2000/svg"
   xmlns:sodipodi="http://sodipodi.sourceforge.net/DTD/sodipodi-0.dtd"
   xmlns:inkscape="http://www.inkscape.org/namespaces/inkscape"
   width="100"
   height="100"
   id="svg2"
   version="1.1"
   inkscape:version="0.91 r13725"
   sodipodi:docname="logo.svg"
   inkscape:export-filename="/Users/msh801/Desktop/tidal.png"
   inkscape:export-xdpi="947.35999"
   inkscape:export-ydpi="947.35999">
  <defs
     id="defs4" />
  <sodipodi:namedview
     id="base"
     pagecolor="#ffffff"
     bordercolor="#666666"
     borderopacity="1.0"
     inkscape:pageopacity="0.0"
     inkscape:pageshadow="2"
     inkscape:zoom="2.828427"
     inkscape:cx="3.4123016"
     inkscape:cy="46.637579"
     inkscape:document-units="px"
     inkscape:current-layer="layer1"
     showgrid="false"
     inkscape:window-width="1271"
     inkscape:window-height="756"
     inkscape:window-x="89"
     inkscape:window-y="0"
     inkscape:window-maximized="0"
     showguides="true"
     inkscape:guide-bbox="true"
     fit-margin-top="0"
     fit-margin-left="0"
     fit-margin-right="0"
     fit-margin-bottom="0" />
  <metadata
     id="metadata7">
    <rdf:RDF>
      <cc:Work
         rdf:about="">
        <dc:format>image/svg+xml</dc:format>
        <dc:type
           rdf:resource="http://purl.org/dc/dcmitype/StillImage" />
        <dc:title />
      </cc:Work>
    </rdf:RDF>
  </metadata>
  <g
     inkscape:label="Layer 1"
     inkscape:groupmode="layer"
     id="layer1"
     transform="translate(-266.08059,-89.493161)">
    <path
       id="path3442"
       style="fill:#5a99ac;fill-opacity:1;stroke:#87cdde;stroke-width:0;stroke-linecap:round;stroke-linejoin:round;stroke-miterlimit:4;stroke-dasharray:none;stroke-opacity:1"
       d="m 310.56189,121.88922 c -1.46631,0 -2.87524,0.15595 -3.99531,0.33927 l 0,15.34057 c 0.87571,0.12222 2.00741,0.18848 3.39224,0.18848 2.74927,1e-5 4.96479,-0.7086 6.36994,-2.07307 1.36444,-1.32375 2.26155,-3.38839 2.26155,-6.21913 0,-3.46207 -1.38932,-7.57612 -8.02842,-7.57612 z m -22.12511,0.15083 0,1.99761 4.22149,0 0,11.68453 c -0.32149,3.2e-4 -0.64521,-0.003 -0.79148,0 -4.74484,0.0664 -8.11772,0.29997 -12.476,1.3192 -0.0624,0.87649 -0.0753,1.78365 -0.0753,2.67609 -1e-5,20.31175 16.43792,36.74965 36.74957,36.74965 19.53302,0 35.51577,-15.21871 36.71191,-34.45042 -5.52915,1.0962 -13.41029,1.55934 -22.01209,1.05533 0.6216,0.6897 0.79157,1.51049 0.79157,2.1862 0,1.37027 -0.83525,2.56529 -2.33685,3.1284 l 0,0.0753 c 1.5016,0.3754 2.86452,1.5722 2.86452,3.58069 0,1.52044 -0.71823,2.41422 -1.24382,2.90228 -0.95735,0.9198 -2.53481,1.31923 -4.89997,1.31923 -1.27644,0 -2.2451,-0.0756 -2.86459,-0.15077 l 0,-14.02138 c -6.40359,-1.21827 -13.50102,-3.32895 -19.75055,-4.78687 l 0,-15.26521 -2.33689,0 0,14.73747 c -2.1449,-0.45189 -4.18965,-0.77875 -5.99298,-0.94224 l 0,-11.79757 4.22148,0 0,-1.99766 -10.77981,0 z m 36.22192,0 -4.74918,15.56673 2.41224,0 1.35695,-4.59843 4.74912,0 1.39462,4.59843 2.48766,0 -4.74918,-15.56673 -2.90223,0 z m 9.79987,0 0,15.56673 8.36763,1e-5 0,-1.99769 -5.99307,0 0,-13.56905 -2.37456,0 z m -23.6705,1.73376 c 3.36024,0 5.31455,1.94129 5.31455,5.7292 0,4.29704 -2.1133,6.35259 -5.61608,6.33229 -0.54986,0 -1.13807,-0.015 -1.5454,-0.0753 l 0,-11.83528 c 0.40733,-0.0817 1.03231,-0.15077 1.84693,-0.15077 z m 15.22753,0.30161 0.0375,0 c 0.22403,0.95714 0.46873,2.03475 0.75389,3.05306 l 1.24378,4.07069 -4.03304,0 1.24386,-4.07069 c 0.26478,-0.95725 0.52984,-2.09592 0.75382,-3.05306 z m -24.95204,17.71521 2.14845,0 0,12.51366 5.5407,0 0,1.84688 -7.68915,0 0,-14.36054 z m 13.00373,0 2.63843,0 4.40991,14.36054 -2.29922,0 -1.28151,-4.22148 -4.40995,0 -1.24386,4.22148 -2.2238,0 4.41,-14.36054 z m 12.58904,1.54528 c -0.71328,0 -1.13179,0.0568 -1.39455,0.11302 l -10e-6,4.33459 1.31921,0 c 1.72691,0 2.82686,-0.96647 2.82686,-2.29922 0,-1.72692 -1.40002,-2.14845 -2.75151,-2.14845 z m -11.34525,0.33931 c -0.20645,0.88218 -0.43443,1.94465 -0.6785,2.82683 l -1.16847,3.76919 3.69389,0 -1.13077,-3.76919 c -0.26277,-0.93851 -0.47195,-1.94465 -0.67848,-2.82683 l -0.0375,0 z m 9.95069,5.72911 0,5.12602 c 0.31909,0.0566 0.71834,0.0753 1.28152,0.0753 1.74568,0 3.27916,-0.74257 3.27916,-2.63842 0,-1.89586 -1.64622,-2.56312 -3.31689,-2.56312 l -1.24379,0 z m 32.81898,-9.91313 c 0,-23.17846 -18.82173,-42.00015 -42.00015,-42.00016 -23.17843,-1e-5 -42.00017,18.8217 -42.00017,42.00015 0,23.17842 18.82172,42.00197 42.00015,42.00197 23.17843,1e-5 42.00017,-18.82354 42.00017,-42.00196 z m -3.01496,0 c 0,21.5488 -17.43639,38.98526 -38.9852,38.98526 -21.54882,0 -38.9852,-17.43646 -38.9852,-38.98527 0,-21.54881 17.43639,-38.98518 38.98521,-38.98518 21.54881,1e-5 38.98519,17.43637 38.98519,38.98519 z"
       inkscape:connector-curvature="0" />
  </g>
</svg>
