<?xml version="1.0" encoding="UTF-8" standalone="no"?>
<svg
   xmlns:sketch="http://www.bohemiancoding.com/sketch/ns"
   xmlns:dc="http://purl.org/dc/elements/1.1/"
   xmlns:cc="http://creativecommons.org/ns#"
   xmlns:rdf="http://www.w3.org/1999/02/22-rdf-syntax-ns#"
   xmlns:svg="http://www.w3.org/2000/svg"
   xmlns="http://www.w3.org/2000/svg"
   xmlns:sodipodi="http://sodipodi.sourceforge.net/DTD/sodipodi-0.dtd"
   xmlns:inkscape="http://www.inkscape.org/namespaces/inkscape"
   width="90px"
   height="62px"
   viewBox="0 0 90 62"
   version="1.1"
   id="svg2"
   inkscape:version="0.48.2 r9819"
   sodipodi:docname="ankylosaurus.svg">
  <metadata
     id="metadata51">
    <rdf:RDF>
      <cc:Work
         rdf:about="">
        <dc:format>image/svg+xml</dc:format>
        <dc:type
           rdf:resource="http://purl.org/dc/dcmitype/StillImage" />
      </cc:Work>
    </rdf:RDF>
  </metadata>
  <sodipodi:namedview
     pagecolor="#ffffff"
     bordercolor="#666666"
     borderopacity="1"
     objecttolerance="10"
     gridtolerance="10"
     guidetolerance="10"
     inkscape:pageopacity="0"
     inkscape:pageshadow="2"
     inkscape:window-width="966"
     inkscape:window-height="728"
     id="namedview49"
     showgrid="false"
     inkscape:zoom="3.8064516"
     inkscape:cx="45"
     inkscape:cy="31"
     inkscape:window-x="236"
     inkscape:window-y="85"
     inkscape:window-maximized="0"
     inkscape:current-layer="svg2" />
  <!-- Generator: Sketch 3.0.4 (8053) - http://www.bohemiancoding.com/sketch -->
  <title
     id="title4">Imported Layers</title>
  <desc
     id="desc6">Created with Sketch.</desc>
  <defs
     id="defs8" />
  <g
     id="Page-1"
     stroke="none"
     stroke-width="1"
     fill="none"
     fill-rule="evenodd"
     sketch:type="MSPage">
    <g
       id="Imported-Layers"
       sketch:type="MSLayerGroup"
       transform="translate(1.000000, 0.000000)"
       fill="#000000">
      <path
         d="M42.7768657,6.61108696 C42.8406716,7.59163043 42.0904478,7.75471739 41.6485075,8.22847826 C41.705597,9.06345652 41.6478358,10.0534348 42.4544776,10.4928261 C40.6719403,10.7873261 41.3872388,8.01282609 41.3261194,7.09630435 C42.0951493,7.22097826 42.0414179,6.5201087 42.7768657,6.61108696"
         id="Fill-1"
         sketch:type="MSShapeGroup" />
      <path
         d="M68.4067164,7.58152174 C68.2287313,8.26486957 67.8116418,8.70965217 66.9559701,8.71369565 C66.9277612,8.04584783 67.5006716,8.23319565 67.6007463,8.06673913 C66.699403,7.54445652 65.7577612,8.37 65.1828358,8.71369565 C64.7912687,7.48178261 67.0177612,7.55793478 68.4067164,7.58152174"
         id="Fill-2"
         sketch:type="MSShapeGroup" />
      <path
         d="M47.1291045,10.9780435 C47.2097015,10.4692391 46.7778358,10.345913 47.1291045,10.0076087 C46.7167164,9.99076087 46.3607463,9.91595652 46.1619403,9.68413043 C46.8214925,8.52297826 48.4072388,10.5898696 47.1291045,10.9780435"
         id="Fill-3"
         sketch:type="MSShapeGroup" />
      <path
         d="M71.1470149,11.9484783 C69.5411194,12.1573913 68.769403,10.129587 66.9559701,10.0076087 C66.5603731,10.2037174 66.5247761,10.7610435 65.9894776,10.8163043 C65.3708955,10.7354348 64.9739552,10.4328478 64.6999254,10.0076087 C66.9835075,8.63282609 69.489403,10.4611522 71.1470149,11.9484783 L71.1470149,11.9484783 Z M65.8276119,10.4928261 C66.105,10.501587 66.2413433,10.3681522 66.311194,10.1693478 C66.033806,10.160587 65.8981343,10.2940217 65.8276119,10.4928261 L65.8276119,10.4928261 Z"
         id="Fill-4"
         sketch:type="MSShapeGroup" />
      <path
         d="M39.5529851,11.3015217 C40.3562687,11.4747174 41.2515672,11.6384783 41.9708955,11.4632609 C42.1643284,11.6755435 42.0340299,11.7173261 41.9708955,11.9484783 C42.345,11.896587 42.5901493,11.9747609 42.7768657,12.1102174 C43.0159701,12.0394565 42.7137313,11.9033261 42.7768657,11.625 C42.975,11.695087 43.1079851,11.8318913 43.0992537,12.1102174 C45.0832836,11.6782391 46.2707463,11.9646522 48.4186567,11.4632609 C47.8719403,12.4242609 45.6830597,11.7375435 45.0335821,12.5954348 C44.1362687,12.4161739 43.3061194,12.4936739 41.9708955,12.7571739 C41.0064179,12.1405435 40.1917164,12.500413 39.069403,12.2719565 C38.9391045,11.656 39.5422388,11.7752826 39.5529851,11.3015217"
         id="Fill-5"
         sketch:type="MSShapeGroup" />
      <path
         d="M35.8455224,12.1102174 C34.0173134,12.6506957 31.6585075,11.8716522 29.3977612,11.9484783 C27.523209,12.0125 26.2652239,12.4485217 24.7231343,13.0806522 C22.6914179,13.9136087 20.5441791,14.6421087 18.9201493,15.8302174 C19.6414925,14.8826957 20.8208955,14.0955652 22.3052239,13.4041304 C22.6061194,13.2639565 22.9896269,13.3502174 23.2723881,13.2423913 C24.0407463,12.9492391 24.8729104,12.307 25.5291045,12.1102174 C28.8510448,11.1148478 33.0085075,11.8662609 35.8455224,12.1102174"
         id="Fill-6"
         sketch:type="MSShapeGroup" />
      <path
         d="M59.0574627,11.625 C59.7485821,11.7948261 60.2281343,12.174913 61.1529851,12.1102174 C61.2906716,12.6264348 60.8991045,12.6102609 60.830597,12.918913 C61.3605224,13.0341522 62.0442537,12.9957391 62.1201493,13.5658696 C60.9877612,13.7815217 59.9762687,13.0260652 60.0252985,12.5954348 C59.8479851,12.1263913 58.8391791,12.4909783 59.0574627,11.625"
         id="Fill-7"
         sketch:type="MSShapeGroup" />
      <path
         d="M34.3947761,14.051087 C34.8320149,14.1690217 34.7258955,14.6886087 34.8783582,15.0215217 C35.2867164,15.9124348 36.0705224,16.8343478 36.0067164,17.6093478 C35.3545522,17.0776304 34.9777612,16.2696087 34.7171642,15.345 C34.1442537,15.3631957 34.1314925,15.9434348 33.4276119,15.8302174 C33.8487313,15.1502391 34.5062687,14.8779783 34.3947761,14.051087"
         id="Fill-8"
         sketch:type="MSShapeGroup" />
      <path
         d="M48.5798507,14.2128261 C47.5508955,15.0363478 45.9523881,14.5841522 44.711194,14.8597826 C44.2470896,14.9628913 43.9979104,15.2769348 43.5828358,15.345 C41.9191791,15.615913 40.1964179,15.3537609 38.7470149,15.6684783 C38.6449254,14.919087 39.628209,15.2587391 40.1977612,15.1832609 C40.6376866,15.0370217 39.7074627,14.8213696 40.1977612,14.5363043 C43.1073134,14.5443913 46.0954478,14.6313261 48.5798507,14.2128261"
         id="Fill-9"
         sketch:type="MSShapeGroup" />
      <path
         d="M29.5589552,15.5067391 C29.8941045,15.5977174 29.9008209,15.7587826 29.7201493,15.9919565 C28.5588806,16.2305217 27.4244776,16.3848478 26.0126866,16.8006522 C25.7030597,16.8916304 25.2920149,17.2582391 25.0455224,17.2858696 C24.6673881,17.3283261 24.5202985,17.0035 23.7559701,17.1241304 C22.7041791,17.289913 21.5254478,17.8223043 20.3708955,18.0945652 C19.1955224,18.3715435 17.8636567,18.422087 16.8246269,18.7415217 C14.6350746,19.4154348 12.9761194,21.0537174 11.0216418,21.6528261 C11.0720149,21.2552174 11.5179851,21.2646522 11.8276119,21.0058696 C12.0895522,20.7868478 12.2541045,20.3481304 12.4723881,20.1971739 C12.7914179,19.9761304 13.3354478,19.955913 13.7619403,19.7119565 C14.6901493,19.1822609 15.9797015,18.328413 17.630597,18.0945652 C18.0141045,18.0406522 18.5037313,18.1653261 18.9201493,18.0945652 C20.1620149,17.8836304 21.3635821,17.2312826 22.6276119,16.9623913 C25.0038806,16.4562826 27.4473134,16.3221739 29.5589552,15.5067391"
         id="Fill-10"
         sketch:type="MSShapeGroup" />
      <path
         d="M64.2156716,15.6684783 C66.2413433,16.0081304 67.7391045,16.8774783 68.4067164,18.5797826 C67.7491791,18.7152391 67.5792537,17.894413 67.2783582,17.6093478 C67.1977612,17.5331957 66.8673134,17.6915652 66.7947761,17.6093478 C66.5113433,17.2858696 66.6006716,17.584413 66.6335821,17.6093478 C65.9619403,17.1106522 65.6442537,16.4057391 64.8604478,15.9919565 C64.6159701,15.8625652 64.1908209,16.3363261 64.2156716,15.6684783"
         id="Fill-11"
         sketch:type="MSShapeGroup" />
      <path
         d="M73.7261194,23.2702174 C74.3514179,23.622 74.1593284,21.7687391 75.0156716,21.8145652 C74.5898507,22.8436304 73.674403,24.0586957 74.2097015,25.5345652 C73.2908955,25.0257609 73.7113433,26.1828696 73.2425373,26.8284783 C70.5183582,25.5062609 71.2900746,21.2720652 73.2425373,19.7119565 C73.3600746,18.8931522 72.7999254,18.7543261 72.7596269,18.0945652 C73.5011194,17.0971739 74.3527612,15.7075652 75.9828358,15.9919565 C76.9990299,16.1691957 77.6807463,17.1275 77.2723881,18.5797826 C77.0500746,19.3696087 76.1621642,19.3082826 75.3380597,20.0354348 C74.1868657,21.0516957 74.0820896,22.3058478 73.7261194,23.2702174 L73.7261194,23.2702174 Z M73.4037313,18.2563043 C73.4124627,18.839913 73.8053731,19.0387174 73.8873134,19.5502174 C72.781791,20.917587 70.9965672,22.9352826 72.2753731,25.3728261 C72.8845522,22.3179783 74.5334328,20.3063478 76.1447015,18.2563043 C76.4294776,18.2192391 76.9513433,18.4193913 76.7894776,17.9328261 C76.8136567,15.4845 73.520597,16.7271957 73.4037313,18.2563043 L73.4037313,18.2563043 Z M75.9828358,19.2267391 C76.3871642,19.2543696 76.3737313,18.8648478 76.6276119,18.7415217 C76.1111194,18.6006739 76.123209,18.9901957 75.9828358,19.2267391 L75.9828358,19.2267391 Z M72.9201493,25.8580435 C72.9416418,25.3148696 73.1820896,24.6962174 72.9201493,24.078913 C72.918806,24.5371739 72.1168657,25.6390217 72.9201493,25.8580435 L72.9201493,25.8580435 Z"
         id="Fill-12"
         sketch:type="MSShapeGroup" />
      <path
         d="M56.4783582,17.2858696 C57.1083582,17.0311304 57.2608209,17.2413913 57.9297761,17.2858696 C57.6053731,17.9220435 58.0694776,18.4766739 58.2514925,19.065 C57.3293284,19.181587 57.5120149,18.189587 57.1231343,17.771087 C56.7134328,17.8647609 56.3366418,18.4187174 55.9954478,18.0945652 C55.783209,17.5439783 56.8779851,17.492087 56.4783582,17.2858696"
         id="Fill-13"
         sketch:type="MSShapeGroup" />
      <path
         d="M69.0514925,19.3884783 C69.8104478,19.5158478 69.2059701,20.3946304 69.2126866,20.8441304 C69.2160448,21.1015652 69.5370896,21.2855435 69.5350746,21.3293478 C69.5135821,21.925087 69.0877612,22.4069348 69.2126866,23.1084783 C68.3952985,22.9453913 68.7324627,21.9513696 68.7297761,21.491087 C68.7237313,20.7032826 69.101194,19.9902826 69.0514925,19.3884783"
         id="Fill-14"
         sketch:type="MSShapeGroup" />
      <path
         d="M43.2604478,23.5936957 C43.7628358,24.2797391 44.9496269,23.3733261 45.6783582,23.9171739 C45.6508209,24.7966304 44.8005224,24.1604565 44.388806,24.2406522 C43.1845522,24.4745 41.9863433,25.2501739 41.3261194,26.0197826 C41.570597,26.2603696 42.0340299,26.280587 42.4544776,26.3432609 C42.6062687,27.210587 43.1576866,28.1891087 44.2276119,27.6371739 C44.5157463,28.4802391 45.1551493,28.9701739 45.8395522,29.4163043 C44.7239552,29.9392609 44.2356716,28.4404783 43.0992537,28.4458696 C42.7392537,27.7288261 41.8600746,27.5327174 41.6485075,26.6667391 C41.1058209,26.6067609 41.3590299,27.3467174 40.8425373,27.3136957 C40.7726866,27.1148913 40.6363433,26.9814565 40.3589552,26.9902174 C40.2682836,25.9827174 41.0836567,25.8843261 41.4873134,25.3728261 C38.1109701,27.0872609 33.875597,28.5934565 29.0753731,27.9606522 C29.0256716,27.2126087 31.1332836,28.5065217 31.0097015,27.3136957 C33.7372388,27.8427174 36.646791,27.1533043 38.7470149,26.1815217 C39.0109701,26.0595435 39.3548507,26.1377174 39.5529851,26.0197826 C39.680597,25.9443043 39.7511194,25.5965652 39.8753731,25.5345652 C41.0749254,24.931413 42.6197015,24.6800435 43.2604478,23.5936957"
         id="Fill-15"
         sketch:type="MSShapeGroup" />
      <path
         d="M56.3171642,26.8284783 C55.7556716,27.1108478 54.4634328,25.3768696 55.35,24.7258696 C55.2700746,24.2662609 54.5077612,24.4926957 54.7052239,23.7554348 C56.0747015,23.3248043 55.6764179,25.9955217 56.3171642,26.8284783"
         id="Fill-16"
         sketch:type="MSShapeGroup" />
      <path
         d="M6.99179104,24.4023913 C7.17985075,24.3761087 7.27858209,24.4381087 7.3141791,24.5641304 C6.98977612,25.9638478 6.40679104,27.1041087 6.02462687,28.4458696 C7.91059701,28.1520435 9.32843284,28.6999348 8.60373134,30.5484783 C8.56141791,31.0761522 9.10544776,31.0155 9.24850746,31.3571739 C8.85828358,32.1254348 8.02679104,31.1172609 7.95895522,30.5484783 C7.93007463,30.3624783 8.58761194,29.6622826 8.28134328,29.2545652 C7.52843284,28.636587 5.95880597,29.5672609 5.37985075,28.6076087 C5.40470149,27.6075217 6.22141791,27.4026522 6.02462687,26.1815217 C6.70432836,25.947 6.81783582,25.1443696 6.99179104,24.4023913"
         id="Fill-17"
         sketch:type="MSShapeGroup" />
      <path
         d="M4.25149254,26.3432609 C3.99089552,26.567 4.05134328,27.1121957 3.44552239,26.9902174 C3.50126866,26.5609348 3.86865672,26.4443478 4.25149254,26.3432609"
         id="Fill-18"
         sketch:type="MSShapeGroup" />
      <path
         d="M39.230597,29.7397826 C38.3574627,30.4271739 36.5581343,30.1852391 35.8455224,31.0336957 C34.2678358,30.5862174 32.0991045,32.3235652 30.6873134,31.518913 C31.5423134,28.992413 37.6159701,26.7563696 39.230597,29.7397826 L39.230597,29.7397826 Z M32.7828358,31.0336957 C33.7097015,31.0963696 35.2470896,30.0235 36.3291045,30.225 C36.4231343,29.4021522 38.0572388,30.1252609 38.2634328,29.4163043 C37.5991791,29.3280217 37.3204478,28.852913 36.8126866,28.6076087 C35.2323134,29.6535217 33.543806,28.7268913 32.2992537,30.225 C33.2200746,29.9399348 32.4698507,31.0808696 32.7828358,31.0336957 L32.7828358,31.0336957 Z"
         id="Fill-19"
         sketch:type="MSShapeGroup" />
      <path
         d="M63.5708955,30.0632609 C63.9329104,30.1313261 63.575597,30.9211522 63.8932836,31.0336957 C64.4635075,30.9791087 64.7241045,31.0242609 64.8604478,30.8719565 C65.7235075,31.6233696 65.7288806,33.2353696 66.311194,34.2684783 C65.4105224,34.3325 65.3648507,32.2218043 64.6999254,31.518913 C64.1451493,31.5896739 63.7958955,31.4548913 63.4097015,31.3571739 C63.2545522,30.9433913 63.0859701,30.2337609 63.5708955,30.0632609"
         id="Fill-20"
         sketch:type="MSShapeGroup" />
      <path
         d="M72.1148507,30.7102174 C72.7273881,30.4723261 72.1457463,31.4333261 72.7596269,31.1954348 C72.4043284,32.1065652 71.8757463,33.2441304 71.1470149,33.2980435 C71.116791,33.9146739 71.2403731,34.6856304 70.6634328,34.7536957 C70.839403,33.1497826 71.3518657,32.0432174 72.1148507,30.7102174"
         id="Fill-21"
         sketch:type="MSShapeGroup" />
      <path
         d="M26.8186567,31.3571739 C26.7521642,31.721087 25.9347761,31.332913 26.0126866,31.8423913 C25.9166418,31.1300652 24.264403,31.9798696 24.4007463,31.0336957 C24.9541791,30.8160217 26.0731343,31.248 26.8186567,31.3571739"
         id="Fill-22"
         sketch:type="MSShapeGroup" />
      <path
         d="M11.6664179,31.6806522 C11.1855224,31.7244565 10.4312687,32.0371522 9.73208955,31.6806522 C10.2364925,31.2742826 11.4608955,30.8335435 11.6664179,31.6806522"
         id="Fill-23"
         sketch:type="MSShapeGroup" />
      <path
         d="M72.9201493,32.9745652 C73.5145522,33.3162391 73.0108209,34.1202174 73.0813433,34.7536957 C73.1941791,35.7598478 73.7120149,36.6938913 74.0491791,37.3415217 C74.349403,37.1332826 73.6784328,36.5375435 73.8873134,35.8858696 C74.6516418,35.8346522 74.2204478,36.4748696 74.3708955,36.8556304 C74.7100746,37.718913 75.6033582,38.3901304 75.3380597,39.1206522 C73.7697761,37.8152826 72.3855224,35.905413 72.9201493,32.9745652"
         id="Fill-24"
         sketch:type="MSShapeGroup" />
      <path
         d="M60.3470149,37.9884783 C61.001194,38.2526522 60.9326866,39.2298261 61.3141791,39.9293478 C61.6567164,40.5574348 62.5177612,41.0547826 62.4425373,41.8702174 C61.4202985,40.9011304 60.705,39.6240652 60.3470149,37.9884783"
         id="Fill-25"
         sketch:type="MSShapeGroup" />
      <path
         d="M64.0551493,37.9884783 C64.8725373,37.8065217 64.1773881,38.3510435 64.2156716,38.6354348 C64.2949254,39.2251087 64.8154478,39.951587 64.8604478,40.7380435 C64.1001493,40.3586304 63.7408209,39.1853478 64.0551493,37.9884783"
         id="Fill-26"
         sketch:type="MSShapeGroup" />
      <path
         d="M58.2514925,38.958913 C58.301194,38.7392174 58.6551493,38.8241304 58.8962687,38.7971739 C58.8270896,39.6746087 59.8076866,39.4993913 59.8634328,40.2521522 C58.9735075,40.1746522 58.8069403,39.3720217 58.2514925,38.958913"
         id="Fill-27"
         sketch:type="MSShapeGroup" />
      <path
         d="M71.469403,39.6051957 C72.3714179,40.1564565 73.0437313,40.9368478 73.4037313,42.0319565 C72.6662687,42.3318478 71.8132836,42.2071739 71.469403,41.8702174 C71.6084328,41.5359565 72.5917164,41.6997174 72.7596269,41.8702174 C72.8301493,40.6888478 71.1409701,40.5176739 71.469403,39.6051957"
         id="Fill-28"
         sketch:type="MSShapeGroup" />
      <path
         d="M33.2664179,47.531087 C32.7814925,48.2346522 32.0413433,47.7218043 31.3320896,47.8545652 C30.1627612,48.073587 29.16,48.7980435 27.6246269,48.9860652 C27.118209,49.0487391 25.9965672,49.3580652 25.8514925,48.6632609 C27.1208955,48.5763261 28.7744776,48.5338696 29.8813433,48.0163043 C30.5032836,46.2964783 31.5248507,47.7811087 33.2664179,47.531087"
         id="Fill-29"
         sketch:type="MSShapeGroup" />
      <path
         d="M55.511194,48.3391087 C55.2821642,49.4038913 54.2538806,49.6653696 54.2216418,50.9276087 C54.0785821,50.8561739 53.9335075,50.785413 53.8992537,50.6041304 C53.0308209,51.4573043 52.003209,52.1521087 50.9977612,52.8684783 C52.010597,51.2746739 53.5466418,50.1216087 54.8664179,48.825 C55.0914179,48.6039565 54.9624627,48.104587 55.511194,48.3391087"
         id="Fill-30"
         sketch:type="MSShapeGroup" />
      <path
         d="M51.9649254,53.1919565 C51.193209,54.3443478 49.5886567,54.8261957 48.5798507,55.2945652 C49.3885075,55.7467609 49.653806,55.3835217 50.5141791,55.6180435 C48.0922388,56.1255 44.7192537,56.1450435 42.6156716,57.3971739 C43.7299254,56.1430217 45.7448507,55.792587 47.9350746,55.6180435 C48.5764925,55.4421522 48.1614179,55.2096522 48.5798507,54.8093478 C49.7747015,54.3908478 50.9527612,53.9555 51.6425373,53.0295435 C51.8299254,53.0032609 51.9293284,53.0659348 51.9649254,53.1919565"
         id="Fill-31"
         sketch:type="MSShapeGroup" />
      <path
         d="M47.1291045,54.6476087 C46.4326119,55.5493043 45.0040299,55.4192391 43.9052239,55.7797826 C42.8708955,56.1187609 42.0434328,56.7481957 41.1649254,57.0730217 C41.3328358,55.7838261 43.6620896,55.6166957 45.3559701,55.1328261 C45.8120149,55.002087 46.333209,54.6658043 47.1291045,54.6476087"
         id="Fill-32"
         sketch:type="MSShapeGroup" />
      <path
         d="M88.7171642,1.11195652 C89.0294776,3.65665217 87.1757463,5.76667391 87.4276119,8.55195652 C86.5551493,9.43680435 85.8714179,10.454413 85.0097015,11.4632609 C84.2258955,12.3804565 83.0108955,13.3246087 82.591791,14.3745652 C81.8771642,16.1651522 82.6085821,18.0426739 81.6246269,19.8736957 C80.9281343,21.1709783 79.4202985,22.0477391 78.4007463,23.1084783 C78.0642537,23.458913 77.6075373,24.1051957 77.2723881,24.5641304 C76.3710448,25.7987391 75.9902239,27.008413 76.3052239,28.931087 C76.4059701,29.5477174 76.5060448,30.1946739 76.6276119,30.7102174 C76.9560448,32.0944348 77.9178358,33.2495217 77.5947761,35.238913 C77.5262687,35.6587609 77.2777612,36.1743043 77.2723881,36.5328261 C77.2683582,36.8226087 77.9037313,38.2061522 77.7559701,38.4736957 C77.7008955,38.5734348 77.3973134,38.4029348 77.4335821,38.6354348 C77.698209,40.3087609 78.6304478,41.9564783 79.5291045,43.6486739 C79.3900746,44.9675217 78.7963433,46.4561957 78.2395522,47.8545652 C77.7331343,49.127587 77.2119403,50.6351304 76.3052239,51.251087 C75.5858955,51.7396739 74.6986567,51.5213261 74.0491791,52.2215217 C72.916791,52.3293478 71.7622388,51.4795435 70.3410448,51.7363043 C69.1784328,51.9465652 68.7445522,53.2795652 67.9231343,53.6765 C65.7154478,54.746 63.0705224,53.8274565 61.1529851,54.3241304 C59.8056716,54.6732174 58.0036567,55.9334348 56.9619403,56.9119565 C55.8228358,57.9821304 55.1317164,59.2113478 53.4156716,60.1467391 C52.3457463,60.7296739 50.0010448,61.5686957 47.6126866,61.278913 C46.5508209,61.1495217 45.1202239,60.5032391 43.4216418,60.3084783 C36.9779104,61.4871522 32.7808209,60.8711957 26.0126866,60.7936957 C24.9387313,60.2538913 23.6209701,59.9587174 22.3052239,59.6615217 C21.6725373,58.9842391 20.8215672,58.5131739 20.0485075,58.0441304 C19.2814925,57.5784565 18.5480597,57.1855652 17.791791,56.5884783 C17.4264179,56.3000435 17.090597,56.0971957 16.6634328,55.7797826 C15.1025373,54.6199783 14.0319403,53.219587 11.6664179,52.545 C9.75156716,51.9991304 7.81992537,51.7565217 6.1858209,50.9276087 C5.88761194,50.3096304 5.19313433,50.0899348 4.73507463,49.6330217 C4.32470149,48.6443913 3.89955224,47.6685652 3.60671642,46.5606522 C2.21104478,45.4446522 1.71201493,43.5961087 1.83358209,41.5460652 C2.77925373,41.3391739 3.59059701,42.2118913 4.41268657,42.3554348 C6.70231343,42.7557391 8.94828358,42.2098696 10.5380597,43.0023913 C11.1707463,43.3171087 11.4555224,43.9377826 12.15,44.2956304 C14.7908955,44.307087 17.1886567,44.4411957 19.2425373,44.1345652 C20.6066418,43.9303696 21.995597,43.4956957 22.788806,42.5171739 C22.921791,42.353413 22.8143284,42.2327826 22.95,42.0319565 C23.1165672,41.7859783 23.3838806,41.664 23.4335821,41.5460652 C23.6558955,41.0224348 23.463806,40.2198043 23.7559701,39.6051957 C24.1488806,38.7816739 25.0441791,38.3443043 25.5291045,37.502587 C26.3693284,37.6845435 26.199403,38.8787174 26.8186567,39.2823913 C27.1685821,38.8025652 27.7723881,39.1772609 28.108209,38.4736957 C29.6879104,36.323913 33.6727612,38.7439348 35.2007463,37.502587 C35.3552239,37.2020217 34.7178358,36.9627826 35.2007463,36.8556304 C34.9508955,36.3501957 34.2463433,36.2531522 33.75,36.0476087 C33.2086567,35.8231957 32.6337313,35.4390652 32.1380597,35.4006522 C31.2158955,35.3285435 29.8779851,35.9660652 28.7529851,36.0476087 C27.7038806,36.1237609 25.9005224,36.0671522 24.4007463,35.8858696 C23.553806,35.7834348 22.8008955,35.3298913 21.9828358,35.238913 C21.5066418,35.1856739 20.8746269,35.4653478 20.3708955,35.4006522 C19.8832836,35.3379783 19.665,35.0798696 19.2425373,35.0771739 C18.0120896,35.0697609 16.6876119,35.3858261 15.3738806,35.5617174 C14.1407463,35.7288478 12.7504478,36.0860217 11.5052239,36.0476087 C9.75425373,35.9936957 8.47141791,35.0145 6.66940299,34.7536957 C5.40470149,33.3270217 2.44880597,33.5979348 0.705223881,32.651087 C0.760298507,31.751413 0.617238806,31.6152826 1.18880597,31.3571739 C0.737462687,31.0013478 0.0295522388,30.9029565 -0.100746269,30.225 C-0.166567164,28.0556739 1.44537313,26.7065 2.9619403,25.211087 C4.08895522,24.0991304 4.99701493,22.8638478 6.02462687,21.9763043 C7.20134328,20.9600435 8.50298507,20.0125217 9.73208955,19.065 C11.0612687,18.0406522 12.5979851,17.546 13.7619403,16.4771739 C14.2166418,16.6665435 14.4463433,16.5095217 14.8902985,16.3154348 C15.4262687,15.8787391 15.8789552,15.5680652 16.3410448,15.0215217 C16.704403,14.5922391 16.9320896,13.7741087 17.308209,13.4041304 C17.7891045,12.9310435 18.9960448,12.5603913 19.7261194,12.1102174 C19.9296269,11.9848696 19.665,11.9390435 19.8873134,11.7867391 C20.7678358,11.182913 21.9129851,10.4793478 22.95,9.84586957 C25.839403,8.08156522 28.4574627,7.03026087 31.9768657,6.2876087 C36.4607463,5.3421087 42.3799254,4.43434783 47.7738806,5.47891304 C48.8102239,5.67973913 50.2435075,6.0968913 50.9977612,6.44934783 C51.641194,6.75058696 52.4149254,7.79178261 53.2544776,8.06673913 C53.4667164,8.13615217 54.1276119,8.16378261 54.5440299,8.22847826 C54.9497015,8.29115217 55.4070896,8.30058696 55.8335821,8.39021739 C56.9424627,8.62204348 58.1527612,9.04391304 59.2186567,8.71369565 C61.7782836,7.92117391 64.0645522,6.10026087 65.8276119,4.50847826 C67.3582836,4.2106087 68.9124627,4.09065217 70.3410448,3.69978261 C71.5869403,3.35878261 72.568209,2.51773913 73.7261194,2.24413043 C74.4051493,2.08373913 75.0841791,2.2218913 75.8216418,2.0823913 C76.2797015,1.99545652 76.8008955,1.65917391 77.2723881,1.59717391 C77.6760448,1.54393478 78.1495522,1.66456522 78.5619403,1.59717391 C79.5667164,1.43273913 80.7326866,1.21102174 81.7858209,0.950217391 C82.7677612,0.706934783 83.4971642,0.193413043 84.5261194,0.141521739 C85.9244776,0.0707608696 87.4242537,0.423891304 88.7171642,1.11195652 L88.7171642,1.11195652 Z M63.8932836,45.2667391 C64.1283582,45.4291522 64.7758209,45.3051522 65.0216418,45.4284783 C65.1774627,45.5066522 65.448806,45.7688043 65.6664179,45.9136957 C66.6584328,46.5734565 67.4563433,47.3882174 68.085,48.3391087 C68.4987313,48.9678696 68.6908209,49.0911957 68.8902985,49.3102174 C68.8426119,49.2576522 68.6612687,49.5056522 68.7297761,49.6330217 C68.9836567,50.1128478 69.8124627,49.9342609 70.0193284,50.4423913 C71.4076119,50.0488261 72.4002985,51.111587 73.5649254,51.0893478 C74.4447761,51.0725 74.934403,50.2247174 75.9828358,50.118913 C76.1332836,49.204413 76.798209,49.1255652 76.3052239,48.3391087 C77.1669403,47.8896087 77.175,47.0714783 77.5947761,46.0754348 C77.8741791,45.4129783 78.2241045,44.9965 78.2395522,44.6197826 C78.2670896,43.9411522 77.5423881,42.7948261 77.111194,41.5460652 C76.8445522,40.7744348 76.8250746,40.0196522 76.6276119,39.4441304 C76.4355224,38.8847826 76.0170896,38.5471522 75.9828358,37.9884783 C75.9291045,37.1238478 76.2729851,36.3899565 76.6276119,35.5617174 C76.0419403,34.6849565 76.4536567,33.5905217 76.3052239,32.8128261 C76.1970896,32.248087 75.5395522,31.1819565 75.4992537,31.0336957 C75.1164179,29.6413913 75.1137313,27.6499783 75.1768657,25.8580435 C76.5456716,23.4575652 78.3033582,21.4472826 80.4962687,19.8736957 C81.2800746,17.5123043 81.6246269,15.2621087 81.7858209,13.0806522 C81.9409701,10.9942174 82.6508955,10.3068261 83.8813433,9.36065217 C85.4234328,8.17456522 86.570597,7.13673913 86.9440299,4.83195652 C87.0165672,4.38313043 86.6458209,3.76582609 87.2664179,3.37630435 C87.2852239,3.57376087 87.3141045,3.75908696 87.588806,3.69978261 C87.6324627,3.15054348 87.4638806,2.38834783 87.75,2.0823913 C86.7895522,1.46845652 85.4684328,0.940782609 84.204403,1.11195652 C83.4279851,1.21708696 82.584403,1.88897826 81.6246269,2.0823913 C79.1106716,2.58917391 77.0930597,2.89243478 74.8544776,3.21456522 C74.2083582,4.11423913 72.7448507,3.93497826 71.630597,4.185 C70.7581343,4.3811087 69.804403,4.80432609 68.8902985,4.99369565 C68.0964179,5.15813043 67.2669403,5.07321739 66.6335821,5.31717391 C65.7758955,5.6473913 65.446791,6.55784783 64.5380597,6.61108696 C63.9221642,7.71832609 62.6977612,8.21432609 61.4753731,8.71369565 C61.5613433,9.16656522 61.711791,9.55473913 61.7977612,10.0076087 C62.1987313,9.99008696 62.296791,9.70434783 62.6037313,10.0076087 C62.595,10.2145 62.3975373,10.2313478 62.4425373,10.4928261 C63.3250746,10.9558043 64.6609701,10.9625435 65.1828358,11.7867391 C65.2036567,12.3871957 65.5334328,12.9182391 65.3440299,13.4041304 C64.395,13.3556087 64.9531343,12.686413 64.8604478,11.9484783 C63.9597761,11.2779348 62.6198507,11.6209565 61.9596269,10.4928261 C61.5579851,10.5103478 61.4599254,10.796087 61.1529851,10.4928261 C61.5653731,10.0601739 61.0562687,9.64032609 61.1529851,9.03717391 C59.2515672,10.3951087 56.4347015,9.69423913 55.188806,9.36065217 C54.4735075,9.16926087 53.6373134,9.2278913 52.9320896,9.03717391 C51.3839552,8.618 50.3791791,7.27286957 48.7410448,6.77282609 C48.2299254,6.61647826 47.5495522,6.54976087 46.9679104,6.44934783 C43.8676119,5.91358696 41.3375373,6.18517391 37.6186567,6.12586957 C37.2472388,6.07667391 37.44,6.5928913 37.1350746,6.61108696 C36.9463433,6.06993478 36.4197761,6.38195652 36.0067164,6.44934783 C35.0435821,6.60636957 33.0508209,7.25602174 32.7828358,8.55195652 C33.3779104,8.54791304 33.8930597,8.62406522 33.911194,9.19891304 C33.5726866,9.99143478 33.058209,10.6073913 32.4604478,11.1397826 C32.7841791,10.8095652 32.3892537,10.8230435 32.2992537,10.4928261 C32.5148507,9.94763043 33.5767164,9.59247826 33.2664179,9.03717391 C32.696194,8.89497826 32.4362687,9.45230435 32.2992537,8.87543478 C32.2952239,7.95419565 32.8379104,7.58286957 33.2664179,7.09630435 C31.8257463,7.55186957 29.6261194,7.39619565 28.591791,7.905 C25.6714925,9.34178261 22.1802985,10.9254783 20.5320896,12.918913 C19.8671642,12.9290217 19.5575373,13.547 19.0813433,13.8893478 C18.9006716,14.019413 18.6514925,13.9129348 18.4365672,14.051087 C17.0852239,14.9224565 16.271194,16.6766522 14.8902985,17.4476087 C14.2576119,17.801413 13.4536567,17.8121957 12.7947761,18.0945652 C11.2090299,18.7745435 10.0531343,19.8305652 9.08731343,20.8441304 C9.08932836,20.6810435 9.37007463,20.6406087 9.40970149,20.8441304 C9.31902985,21.2336522 8.80992537,22.1791522 8.60373134,22.9467391 C9.24179104,22.9534783 9.38014925,23.4609348 9.89328358,23.5936957 C10.3976866,23.3989348 10.693209,22.994587 11.5052239,23.1084783 C12.015,23.0282826 11.565,23.9111087 12.15,23.7554348 C12.8337313,23.5249565 13.1265672,22.9022609 13.9231343,22.785 C14.6639552,23.6590652 15.309403,24.6288261 15.0514925,26.505 C16.5673881,25.7616739 18.3835075,25.319587 20.2097015,24.8876087 C20.7953731,25.3627174 19.8537313,25.9611522 20.6932836,26.1815217 C20.6664179,26.3695435 20.4387313,26.3567391 20.2097015,26.3432609 C20.4595522,27.5522609 19.9423881,28.6999348 18.9201493,29.0928261 C17.613806,28.8630217 16.7675373,29.9480217 16.8246269,30.5484783 C17.7951493,30.2802609 19.2687313,29.6609348 20.2097015,29.9015217 C19.5360448,30.5336522 18.1779851,30.0241739 17.791791,31.1954348 C18.7361194,31.131413 19.9752985,31.0161739 21.1768657,30.8719565 C21.6214925,30.8180435 22.2353731,30.3308043 22.4664179,30.8719565 C20.5495522,30.9535 17.836791,32.3397391 16.5022388,31.0336957 C16.0905224,31.3746957 15.2496269,31.286413 14.8902985,31.6806522 C15.3866418,32.2096739 17.514403,31.9549348 17.308209,32.651087 C14.5914179,32.1274565 10.8792537,31.4178261 12.7947761,28.4458696 C13.0808955,28.1392391 13.6994776,28.1668696 13.7619403,27.6371739 C12.7148507,27.7726304 12.51,28.7531739 11.988806,29.4163043 C11.6926119,27.9801957 13.5235075,27.4417391 14.5679104,26.8284783 C14.7667164,25.9672174 14.8473134,23.892913 13.4395522,23.4319565 C12.7679104,23.7278043 12.455597,24.3855435 11.5052239,24.4023913 C11.3702239,24.2143696 11.2929851,23.9683913 11.3440299,23.5936957 C10.5172388,23.5182174 10.3540299,24.1092391 9.73208955,24.2406522 C9.59776119,23.405 8.26723881,23.769587 8.28134328,22.785 C8.17723881,22.141413 8.70783582,22.1346739 8.60373134,21.491087 C6.79768657,21.5658913 6.56932836,23.2237174 5.21865672,23.7554348 C4.07485075,26.3749348 1.44335821,27.9336957 0.86641791,30.225 C1.39902985,30.6084565 2.09820896,30.0915652 2.47835821,30.3867391 C2.36149254,31.186 1.74089552,31.4798261 1.51119403,32.1658696 C2.22850746,32.2548261 2.99552239,32.2932391 3.44552239,32.651087 C4.31597015,32.4307174 5.84395522,32.643 6.1858209,33.4597826 C9.40634328,34.6606957 12.4220149,35.3002391 15.8574627,34.7536957 C16.74,34.6135217 17.8273881,34.2705 18.4365672,34.1067391 C18.566194,34.0716957 18.6763433,34.309587 18.7589552,34.2684783 C18.8838806,34.2058043 18.6958209,33.9571304 18.9201493,33.945 C19.925597,33.8890652 20.8793284,34.5137826 21.9828358,33.945 C22.3361194,34.2913913 22.9365672,34.3897826 23.2723881,34.7536957 C25.1952985,34.7503261 26.8381343,35.1122174 28.430597,35.0771739 C31.7149254,35.0050652 34.2530597,33.023087 37.2962687,32.651087 C39.1043284,31.2520435 42.8594776,30.4372826 45.1947761,31.8423913 C45.7656716,31.7884783 45.5910448,31.3976087 46.1619403,31.6806522 C46.025597,32.4509348 47.9652985,32.4293696 48.9022388,32.651087 C49.2071642,32.6328913 49.014403,32.116 49.3858209,32.1658696 C50.2549254,32.8579783 51.1891791,32.2352826 51.9649254,32.3276087 C53.0247761,32.4536304 54.071194,33.4031739 54.5440299,34.1067391 C54.8932836,34.6256522 54.963806,35.5839565 55.511194,35.4006522 C55.0121642,36.5018261 56.5791045,38.0194783 56.6402239,39.6051957 C57.0680597,39.6968478 57.4602985,38.9400435 57.7679104,39.4441304 C57.7014179,40.0007826 56.3635075,39.857913 56.8007463,40.4145652 C57.0210448,41.3135652 57.4918657,39.7332391 57.9297761,40.4145652 C57.8706716,40.7865652 57.2238806,40.5688913 57.2843284,41.0615217 C58.346194,41.5595435 59.0782836,42.3877826 60.508209,42.5171739 C59.461791,43.7612174 57.708806,41.1383478 57.2843284,42.0319565 C57.5254478,42.3156739 57.9573134,41.889087 58.0902985,42.5171739 C57.8545522,42.8918696 57.5791791,42.2011087 57.6067164,42.8406522 C58.1373134,43.3858478 58.8378358,43.0367609 59.2186567,43.4876087 C59.0279104,43.5657826 58.8539552,43.6601304 58.7350746,43.811087 C59.705597,43.794913 60.1764179,44.1473696 61.1529851,44.4580435 C61.8064925,43.8393913 62.5970149,44.1992609 63.4097015,44.1345652 C63.2820896,44.4917391 62.6520896,44.3448261 62.6037313,44.7815217 C63.3176866,44.5995652 63.8052985,45.205413 63.8932836,45.2667391 L63.8932836,45.2667391 Z M82.591791,12.2719565 C83.0458209,11.602087 83.7752239,11.0076957 84.3649254,10.331087 C84.9405224,9.67065217 85.7753731,8.78243478 85.8156716,8.22847826 C84.9344776,9.66323913 82.4561194,10.3560217 82.591791,12.2719565 L82.591791,12.2719565 Z M14.5679104,29.2545652 C16.8313433,30.1596304 16.6345522,27.2436087 18.9201493,27.6371739 C18.9564179,27.334587 19.3358955,26.5649783 18.9201493,26.3432609 C17.3558955,27.1991304 14.6881343,26.9491087 14.5679104,29.2545652 L14.5679104,29.2545652 Z M13.2783582,30.225 C13.3233582,29.8563696 13.239403,29.6171304 12.9559701,29.5780435 C12.7524627,29.767413 12.8270149,30.2499348 13.2783582,30.225 L13.2783582,30.225 Z M14.4067164,31.0336957 C13.7404478,31.2608043 13.4838806,30.2492609 13.1171642,30.7102174 C13.5886567,30.7661522 14.1454478,31.752087 14.4067164,31.0336957 L14.4067164,31.0336957 Z M51.6425373,37.665 C51.6868657,38.1670652 52.0307463,38.8841087 52.9320896,38.958913 C52.8085075,38.1650435 52.5559701,38.3429565 52.9320896,37.665 C52.408209,37.8516739 51.9407463,37.1710217 51.6425373,37.665 L51.6425373,37.665 Z M51.8037313,33.4597826 C51.4135075,33.2582826 51.020597,33.0594783 50.5141791,32.9745652 C50.4658209,33.2926522 50.731791,33.2953478 50.8365672,33.4597826 C49.7673134,33.674087 48.8901493,35.4613043 47.9350746,34.7536957 C48.5039552,34.1923261 49.4805224,34.0400217 50.030597,33.4597826 C48.4085821,33.3600435 47.7107463,34.9888913 46.4843284,34.7536957 C46.9343284,33.9652174 48.123806,33.9187174 48.7410448,33.2980435 C47.0317164,33.0406087 46.3117164,34.6323913 45.1947761,34.4302174 C45.5299254,33.580413 46.8100746,33.6788043 47.2902985,32.9745652 C46.7858955,33.2138043 46.6314179,32.9806304 46.3231343,32.651087 C46.0329851,33.2279565 44.3545522,34.4295435 44.0664179,33.4597826 C44.9986567,33.3708261 45.5091045,32.8586522 46.1619403,32.4893478 C44.4096269,31.8080217 43.5526119,34.1444783 42.2932836,33.945 C42.8843284,33.1363043 43.9589552,32.8121522 44.711194,32.1658696 C42.5666418,32.045913 40.5402985,34.5198478 39.230597,34.7536957 C39.121791,34.2024348 39.7638806,33.9578043 40.0365672,33.7832609 C41.1279851,33.0837391 42.7694776,32.8135 43.4216418,31.6806522 C43.0435075,31.6294348 42.8164925,31.4252391 42.2932836,31.518913 C42.2711194,31.8201522 42.1871642,32.0593913 41.9708955,32.1658696 C40.4133582,32.758913 39.3058209,33.8048261 37.9410448,34.5919565 C37.9417164,34.4295435 37.8107463,34.3992174 37.7798507,34.2684783 C39.0613433,33.2353696 40.743806,32.6059348 41.9708955,31.518913 C40.8875373,31.6173043 40.1077612,32.0216522 39.230597,32.3276087 C39.9116418,32.4778913 38.3050746,33.1740435 37.6186567,33.6215217 C36.9040299,34.0878696 36.1907463,34.8588261 35.6843284,34.5919565 C36.4909701,33.5676087 38.0102239,33.2596304 38.908209,32.3276087 C37.7147015,32.5965 36.378806,33.1908913 35.2007463,33.6215217 C34.5989552,33.8412174 33.408806,33.7724783 33.4276119,34.7536957 C34.0488806,35.3649348 34.4471642,34.5555652 35.2007463,34.4302174 C35.7259701,34.658 35.261194,35.8791304 36.0067164,35.8858696 C36.8261194,34.6883261 38.8417164,35.247 39.8753731,35.8858696 C40.2158955,35.7423261 40.3522388,35.393913 40.8425373,35.4006522 C42.0360448,35.8703696 44.6910448,35.1391739 45.5171642,36.371087 C45.9416418,36.2039565 46.5064925,36.1776739 47.1291045,36.2086739 C47.9652985,38.0504783 50.0413433,36.7464565 52.2873134,37.0180435 C52.893806,37.9878043 54.4251493,38.2075 55.511194,37.502587 C54.9221642,36.9991739 54.6884328,35.890587 53.5768657,36.371087 C53.5291791,35.9458478 54.2021642,36.2437174 54.0604478,35.7241304 C53.8253731,35.5832826 53.4364925,35.595413 53.5768657,35.0771739 C53.0180597,35.2227391 52.2550746,36.0078478 51.8037313,35.7241304 C51.804403,35.5617174 51.6734328,35.5320652 51.6425373,35.4006522 C52.2342537,35.238913 52.9925373,35.2456522 53.0932836,34.5919565 C52.181194,33.9470217 51.4652239,35.6122609 50.8365672,35.238913 C50.9561194,34.3338478 52.2194776,34.5778043 52.4485075,33.7832609 C51.226791,33.3984565 50.373806,35.4006522 49.2246269,35.0771739 C49.9170896,34.3702391 50.8916418,33.9456739 51.8037313,33.4597826 L51.8037313,33.4597826 Z M53.7380597,34.5919565 C53.7736567,34.4659348 53.8730597,34.4039348 54.0604478,34.4302174 C53.7716418,33.6929565 52.6808955,32.9078478 51.9649254,33.1363043 C52.7003731,33.4766304 52.974403,34.2799348 53.7380597,34.5919565 L53.7380597,34.5919565 Z M54.7052239,35.7241304 C54.7092537,35.1809565 54.4835821,34.8682609 54.2216418,34.5919565 C53.7293284,34.9316087 53.9610448,35.7477174 54.7052239,35.7241304 L54.7052239,35.7241304 Z M36.3291045,35.8858696 C36.6494776,36.3926522 36.7448507,36.7673478 36.8126866,37.1797826 C37.6280597,36.9196522 38.6489552,36.8650652 39.5529851,36.6945652 C39.1157463,35.6156304 37.4883582,35.363587 36.3291045,35.8858696 L36.3291045,35.8858696 Z M45.0335821,36.6945652 C46.0665672,37.8732391 48.1990299,38.6900217 49.708209,37.665 C49.9708209,38.231087 50.85,37.4594565 51.1589552,38.1502174 C51.0414179,37.7088043 51.4793284,37.8247174 51.4813433,37.502587 C49.0399254,37.5605435 47.5549254,37.9608478 46.3231343,36.6945652 C44.9187313,36.9088696 43.1066418,35.300913 41.3261194,36.371087 C41.0950746,35.6432609 40.5940299,36.0509783 40.0365672,36.2086739 C40.0513433,36.8138478 40.2172388,36.6703043 40.0365672,37.1797826 C40.4281343,37.417 41.6350746,36.2841522 41.9708955,37.3415217 C43.164403,36.89 43.9609701,37.2673913 45.0335821,36.6945652 L45.0335821,36.6945652 Z M38.4246269,37.9884783 C37.1619403,38.0733913 37.7220896,38.6354348 38.4246269,37.9884783 L38.4246269,37.9884783 Z M45.6783582,38.958913 C45.3808209,38.1711087 44.3639552,37.6185 43.9052239,38.6354348 C45.3653731,38.4642609 45.5346269,39.5883478 46.1619403,40.2521522 C46.565597,39.9023913 47.4864179,40.0722174 47.6126866,39.4441304 C46.9511194,39.423913 46.6905224,38.9804783 45.6783582,38.958913 L45.6783582,38.958913 Z M35.0395522,38.7971739 C35.3881343,39.1280652 36.0423134,38.8524348 36.1679104,38.4736957 C35.6366418,38.1987391 35.3626119,38.4642609 35.0395522,38.7971739 L35.0395522,38.7971739 Z M41.0037313,38.6354348 C41.4926866,39.2062391 42.5075373,39.3012609 42.7768657,38.3119565 C41.7922388,38.385413 41.5685821,38.2472609 41.0037313,38.6354348 L41.0037313,38.6354348 Z M53.8992537,38.958913 C54.2518657,39.2938478 54.7676866,38.8787174 55.0276119,38.6354348 C54.7562687,38.3820435 54.2874627,38.843 53.8992537,38.958913 L53.8992537,38.958913 Z M28.7529851,40.4145652 C29.6079851,40.525087 31.4946269,39.5458913 32.4604478,39.7676087 C31.5651493,38.7129348 28.6515672,38.2695 28.7529851,40.4145652 L28.7529851,40.4145652 Z M33.2664179,39.6051957 C33.6479104,39.2877826 34.7084328,39.6510217 35.0395522,39.2823913 C34.4310448,38.8376087 33.6270896,39.0121522 33.2664179,39.6051957 L33.2664179,39.6051957 Z M37.6186567,39.4441304 C36.9839552,39.1523261 36.3458955,38.6394783 35.8455224,39.4441304 C36.4997015,39.2466739 37.8067164,39.842413 37.6186567,39.4441304 L37.6186567,39.4441304 Z M49.0634328,38.958913 C48.905597,39.5553261 48.3575373,39.7601957 48.0962687,40.2521522 C49.068806,39.7736739 50.338209,39.5910435 51.3201493,39.1206522 C50.435597,39.3241739 50.0413433,39.0148478 49.0634328,38.958913 L49.0634328,38.958913 Z M47.4514925,41.7084783 C47.2714925,42.3898043 46.8416418,42.8211087 46.1619403,43.0023913 C46.0417164,42.5043696 46.6045522,42.6917174 46.4843284,42.1936957 C45.5991045,42.4120435 45.3935821,42.1626957 44.55,42.0319565 C44.0408955,44.0402174 40.8163433,42.3594783 39.7141791,43.811087 C39.3279851,43.8751087 39.8035075,43.0745 39.230597,43.3258696 C37.5199254,43.8589348 35.128209,43.7996304 33.2664179,44.2956304 C32.8990299,43.7126957 31.9882836,43.7888478 31.4932836,44.1345652 C31.6047761,43.6998913 31.1601493,43.8218696 31.0097015,43.6486739 C30.931791,43.8407391 30.8377612,44.0166304 30.6873134,44.1345652 C30.1197761,43.5111957 28.6085821,43.0610217 27.7858209,43.6486739 C27.9705224,43.1405435 27.5326119,43.2557826 27.4634328,43.0023913 C24.8272388,42.9990217 23.201194,44.0092174 21.8216418,45.2667391 C17.6003731,45.437913 13.3683582,45.5659565 9.57089552,44.942587 C8.23634328,43.4249348 5.34291045,43.4707609 2.9619403,43.0023913 C3.40925373,44.6029348 4.3119403,45.7452174 5.05746269,47.0458696 C5.05544776,47.2595 4.77470149,47.1934565 4.73507463,47.3693478 C5.39529851,48.7562609 6.2341791,49.9625652 7.79776119,50.4423913 C7.44313433,49.197 8.27261194,47.9576739 8.76492537,47.0458696 C9.26865672,47.2419783 9.4661194,47.7447174 10.0544776,47.8545652 C10.1538806,46.8214565 10.0034328,45.5383261 10.8604478,45.2667391 C10.1565672,46.2014565 10.863806,47.9583478 10.0544776,48.5015217 C9.46007463,48.4738913 9.25589552,47.4798696 8.76492537,47.8545652 C8.70514925,48.7650217 8.01738806,49.0446957 8.12014925,50.118913 C8.40962687,50.0980217 8.49761194,50.2793043 8.44253731,50.6041304 C10.6152985,51.5159348 13.0600746,51.8326739 15.5350746,53.0295435 C17.8535821,55.5877174 20.9370896,58.0656957 25.2067164,59.4997826 C27.3492537,60.2188478 30.4858209,59.7066739 32.9440299,59.8232609 C36.189403,59.976913 39.3709701,59.5705435 42.4544776,59.4997826 C43.5311194,59.4748478 44.6997761,59.295587 45.8395522,59.4997826 C46.593806,59.6345652 47.2439552,60.0753043 47.9350746,60.1467391 C52.4505224,60.6164565 55.0430597,57.9673043 56.6402239,55.6180435 C58.3038806,54.8989783 59.6673134,53.2553043 61.4753731,53.1919565 C61.8071642,53.1474783 61.6271642,52.5894783 61.9596269,52.545 C63.5185075,53.4473696 65.475,52.328 66.311194,51.8980435 C67.156791,51.4633696 68.2435075,51.5375 68.7297761,50.9276087 C68.2072388,50.6425435 67.895597,50.1465435 67.2783582,49.9571739 C66.403209,46.7048696 62.0973134,44.6885217 59.5410448,45.9136957 C59.3657463,45.5026087 60.2959701,45.2862826 59.5410448,45.2667391 C59.2065672,44.7734348 58.760597,45.9756957 58.4126866,45.4284783 C58.3636567,45.0551304 58.878806,45.2492174 58.8962687,44.942587 C58.0426119,44.5766522 57.8572388,45.1211739 57.2843284,45.4284783 C56.7624627,44.8239783 57.7793284,44.7269348 57.9297761,44.2956304 C56.9189552,44.586087 56.1385075,45.198 55.188806,44.7815217 C55.593806,44.1635435 56.5985821,44.1473696 56.9619403,43.4876087 C56.0095522,42.8008913 55.5978358,44.4816304 54.8664179,43.9728261 C55.1243284,43.2605 56.3541045,43.5246739 56.3171642,42.5171739 C55.160597,42.5454783 54.4929851,43.9182391 53.5768657,43.6486739 C54.2021642,42.7671957 55.6710448,42.7308043 56.1559701,41.7084783 C54.8153731,41.9443478 53.9046269,43.4155 52.9320896,43.4876087 C53.343806,42.0663261 56.1539552,42.1923478 55.8335821,40.5763043 C54.838209,41.1963043 53.666194,42.4969565 52.6097015,42.5171739 C52.9435075,42.005 53.5748507,41.7111739 54.0604478,41.385 C54.5910448,41.0291739 55.0974627,40.5223913 55.8335821,40.4145652 C55.7408955,40.1301739 56.0283582,39.4643478 55.6723881,39.4441304 C54.106791,40.4617391 52.1858955,41.9834348 50.9977612,42.8406522 C50.8533582,42.2172826 51.8964179,41.7300435 52.2873134,41.5460652 C52.5593284,41.4193696 52.8427612,40.911913 53.0932836,40.7380435 C53.9617164,40.1342174 55.0719403,39.656413 55.6723881,38.958913 C54.1484328,39.4218913 52.7406716,40.4051304 51.6425373,41.2232609 C51.1905224,41.5602174 50.8244776,42.3561087 50.191791,42.1936957 C50.8822388,40.9981739 53.0335075,40.4098478 53.4156716,39.4441304 C51.2691045,40.0398696 49.1480597,40.6612174 47.4514925,41.7084783 L47.4514925,41.7084783 Z M38.4246269,39.4441304 C38.6281343,40.2063261 40.6605224,40.3181957 41.0037313,39.9293478 C40.481194,39.0418043 39.5180597,39.0802174 38.4246269,39.4441304 L38.4246269,39.4441304 Z M24.5619403,41.2232609 C25.1314925,41.6761304 25.5667164,40.9146087 26.3350746,41.0615217 C26.0234328,40.5655217 25.8676119,39.9131739 25.5291045,39.4441304 C25.3282836,40.1591522 24.5827612,40.3276304 24.5619403,41.2232609 L24.5619403,41.2232609 Z M37.9410448,43.1641304 C38.3077612,42.8851304 38.8860448,42.8177391 39.5529851,42.8406522 C39.6926866,42.1721304 40.2635821,41.9362609 40.8425373,41.7084783 C40.8237313,42.346 40.1420149,42.2031304 40.5201493,42.8406522 C41.0292537,42.7584348 41.2280597,42.3641957 41.8097015,42.3554348 C42.9998507,42.895913 44.073806,42.2287391 44.388806,41.385 C44.8005224,41.625587 45.7717164,42.1458478 46.3231343,41.7084783 C45.369403,41.3593913 43.8420896,40.9476304 42.7768657,41.2232609 C41.7908955,40.6356087 40.0023134,40.4873478 38.5858209,40.2521522 C36.8570149,39.966413 35.2551493,39.7938913 33.588806,39.9293478 C30.9794776,40.1416304 28.0269403,41.0763478 25.6902985,41.385 C25.4384328,41.8863913 25.0381343,42.2401957 24.7231343,42.678913 C24.3591045,42.1883043 23.85,43.4195435 24.0783582,43.4876087 C24.7291791,43.0077826 25.5096269,42.6593696 26.6574627,42.678913 C27.3109701,42.4349565 28.3305224,41.1423913 28.7529851,41.7084783 C28.3446269,42.0528478 27.8160448,42.2772609 27.4634328,42.678913 C28.5051493,43.4451522 28.9605224,41.996913 30.0425373,41.8702174 C29.925,42.5063913 29.1606716,42.4949348 28.9141791,43.0023913 C30.4099254,43.5597174 31.0016418,41.8823478 32.2992537,41.7084783 C31.8949254,42.4349565 30.9586567,42.6276957 30.5261194,43.3258696 C31.7001493,43.1533478 32.3973134,41.6478261 33.4276119,41.8702174 C32.8815672,42.5077391 31.9486567,42.7577609 31.4932836,43.4876087 C32.8882836,43.3218261 33.6532836,41.6673696 34.7171642,41.7084783 C34.3524627,42.5825435 33.2106716,42.6768913 32.7828358,43.4876087 C34.1052985,44.0024783 35.0126866,41.8466304 36.0067164,42.0319565 C35.9039552,42.8487391 34.2530597,42.9633043 34.5559701,43.6486739 C35.7696269,43.4262826 36.9973881,41.3634348 37.7798507,42.0319565 C37.1263433,42.400587 36.5010448,42.7975217 36.0067164,43.3258696 C36.8932836,43.3238478 37.9551493,42.1748261 38.908209,41.7084783 C38.9095522,42.415413 37.6723881,42.7247391 37.9410448,43.1641304 L37.9410448,43.1641304 Z M41.9708955,40.4145652 C42.849403,40.7070435 44.1846269,40.5048696 44.711194,40.7380435 C44.6393284,40.3249348 44.4848507,39.9947174 44.2276119,39.7676087 C43.8152239,40.3242609 42.6351493,40.1106304 41.9708955,40.4145652 L41.9708955,40.4145652 Z M27.7858209,40.7380435 C27.7220149,40.3505435 28.5199254,40.8276739 28.269403,40.2521522 C27.9550746,40.176 27.4452985,40.6881739 27.7858209,40.7380435 L27.7858209,40.7380435 Z M10.8604478,44.7815217 C10.4050746,44.1035652 9.06447761,43.4599783 8.28134328,43.6486739 C9.20014925,43.9674348 9.80395522,44.6022609 10.8604478,44.7815217 L10.8604478,44.7815217 Z M67.1171642,52.7067391 C67.5235075,52.359 68.2213433,52.305087 68.4067164,51.7363043 C67.6658955,51.646 67.130597,52.6043043 67.1171642,52.7067391 L67.1171642,52.7067391 Z M65.8276119,52.8684783 C66.1224627,52.8758913 66.8592537,52.5268043 66.4723881,52.3832609 C66.4287313,52.7168478 65.7591045,52.4216739 65.8276119,52.8684783 L65.8276119,52.8684783 Z"
         id="Fill-33"
         sketch:type="MSShapeGroup" />
      <path
         d="M58.0902985,19.5502174 C58.4429104,19.5738043 58.436194,19.9579348 58.4126866,20.358913 C57.7383582,20.437087 57.2178358,20.669587 56.6402239,20.8441304 C56.7893284,21.2862174 57.1345522,21.5342174 57.2843284,21.9763043 C59.445,21.0429348 61.1805224,18.9982826 64.3768657,20.1971739 C64.3923134,20.8286304 65.0283582,20.8373913 65.3440299,21.1676087 C65.2735075,22.3846957 66.1177612,23.6166087 65.5052239,24.4023913 C66.1607463,24.8 66.2836567,24.2453696 66.9559701,24.2406522 C67.1829851,24.6598261 67.1796269,25.3108261 67.4395522,25.6963043 C68.364403,25.3323913 68.3610448,23.9131304 68.4067164,23.1084783 C69.7412687,24.1530435 67.6094776,25.9530652 67.9231343,26.9902174 C66.9311194,27.1344348 66.8357463,27.6405435 65.9894776,27.3136957 C65.9720149,26.5959783 66.8263433,26.7516522 66.9559701,26.1815217 C66.9163433,25.6821522 66.7927612,25.2670217 66.6335821,24.8876087 C66.1419403,25.6046522 65.1203731,24.6402826 64.5380597,25.6963043 C64.4185075,26.1943261 64.9806716,26.0069783 64.8604478,26.505 C64.4460448,27.024587 63.648806,26.9989783 63.4097015,27.1519565 C62.8985821,27.4794783 62.9039552,28.139913 62.1201493,28.1223913 C63.0933582,28.7161087 63.8328358,27.6883913 64.8604478,27.798913 C63.9779104,28.4553043 62.476791,29.1683043 61.3141791,28.6076087 C62.0046269,29.5322174 63.701194,29.4473043 64.8604478,29.9015217 C62.8233582,30.3274348 61.1368657,29.0025217 59.7022388,28.2841304 C59.6538806,29.1979565 61.8441045,29.2606304 62.1201493,30.3867391 C60.3013433,30.0518043 59.6021642,28.2989565 57.7679104,28.4458696 C58.3408209,29.8125652 60.0548507,30.0322609 60.991791,31.0336957 C58.5275373,30.542413 56.2493284,28.4317174 56.4783582,25.6963043 C56.5764179,24.529087 57.4025373,23.7507174 57.4455224,22.4615217 C56.9753731,22.4770217 57.2876866,23.1152174 56.8007463,23.4319565 C56.2976866,22.3678478 55.7677612,23.877413 55.188806,23.1084783 C55.5514925,22.6636957 56.3292537,22.6353913 56.8007463,22.2997826 C56.5287313,21.7646957 56.3473881,21.1372826 55.9954478,20.6823913 C56.2244776,19.8352826 57.8646269,20.4020435 58.0902985,19.5502174 L58.0902985,19.5502174 Z M59.5410448,26.9902174 C62.8831343,27.3177391 64.6898507,25.0351957 64.3768657,21.8145652 C63.5527612,21.3798913 63.0134328,20.8259348 62.1201493,20.8441304 C60.8547761,20.8690652 59.9332836,22.1562391 59.0574627,22.6232609 C58.5718657,23.8026087 57.9311194,26.1316522 59.5410448,26.9902174 L59.5410448,26.9902174 Z M58.0902985,27.798913 C57.4374627,27.5374348 57.4569403,26.6013696 56.9619403,26.1815217 C56.8504478,27.1068043 57.5979851,28.016587 58.0902985,27.798913 L58.0902985,27.798913 Z"
         id="Fill-34"
         sketch:type="MSShapeGroup" />
      <path
         d="M42.1320896,53.0295435 C42.371194,53.1009783 42.0682836,53.2371087 42.1320896,53.5154348 C39.6705224,54.227087 37.6508955,56.242087 34.5559701,55.7797826 C34.768209,55.366 35.4304478,55.5277391 35.8455224,55.4563043 C38.0800746,55.0708261 40.3965672,53.9662826 42.1320896,53.0295435"
         id="Fill-35"
         sketch:type="MSShapeGroup" />
      <path
         d="M76.95,53.838913 C76.708209,53.4992609 77.7734328,54.9960217 76.95,53.838913"
         id="Fill-36"
         sketch:type="MSShapeGroup" />
      <path
         d="M52.7708955,14.5363043 C54.1047761,15.2648043 56.1868657,14.6926522 57.7679104,15.5067391 C59.6149254,15.5936739 61.4169403,14.7802609 62.6037313,15.5067391 C62.1288806,16.1152826 61.6493284,15.6536522 60.991791,15.6684783 C58.7176119,15.7203696 56.6120149,16.6227391 54.2216418,16.9623913 C51.4618657,17.3546087 48.825,17.4556957 46.6455224,17.4476087 C46.828209,16.6530652 48.0485821,17.1436739 48.9022388,17.1241304 C50.3026119,17.0917826 51.811791,16.7379783 53.0932836,16.8006522 C52.8924627,16.0222826 51.9978358,16.6611522 51.6425373,16.638913 C50.9312687,16.5937609 50.3899254,16.2992609 49.869403,16.3154348 C50.1279851,15.3901522 51.200597,15.8726739 51.8037313,15.8302174 C53.0818657,15.739913 54.5447015,15.6307391 55.9954478,15.6684783 C55.3634328,15.0343261 53.1873134,15.5505435 52.7708955,15.1832609 L52.7708955,14.5363043 L52.7708955,14.5363043 Z M52.6097015,16.1536957 C53.4573134,16.111913 54.7448507,16.5843261 55.511194,15.9919565 C55.0208955,15.934 53.2981343,15.8868261 52.6097015,16.1536957 L52.6097015,16.1536957 Z"
         id="Fill-37"
         sketch:type="MSShapeGroup" />
    </g>
  </g>
  <path
     style="fill:#cccccc;fill-opacity:1;stroke:none"
     d="m 72.847458,50.55708 c -0.650212,-0.19733 -1.511492,-0.425769 -1.913954,-0.50764 -0.442046,-0.08993 -0.824381,-0.392502 -0.965726,-0.764263 -0.353271,-0.929178 -3.63625,-4.098736 -4.245408,-4.098736 -0.851951,0 -1.5438,-0.484026 -1.363487,-0.95391 0.140884,-0.367142 -0.03529,-0.399177 -1.389021,-0.252576 -1.154099,0.124982 -1.718243,0.06668 -2.20715,-0.228102 -0.361229,-0.217799 -0.863665,-0.470785 -1.116526,-0.562193 -0.25286,-0.09141 -0.459745,-0.332772 -0.459745,-0.536369 0,-0.311891 0.121472,-0.307359 0.771492,0.02878 0.757007,0.391461 1.592914,0.312298 1.592914,-0.150858 0,-0.12903 -0.183464,-0.234604 -0.407697,-0.234604 -0.224235,0 -0.872353,-0.265996 -1.440265,-0.591102 -0.750668,-0.429725 -0.993143,-0.716617 -0.888158,-1.050847 0.100761,-0.320784 9.7e-5,-0.46216 -0.33304,-0.467735 -0.450015,-0.0075 -0.451031,-0.02338 -0.01771,-0.275766 0.661018,-0.385007 0.570534,-0.851559 -0.131356,-0.677297 -0.517791,0.128553 -0.651078,-0.02267 -1.074701,-1.219401 -0.265978,-0.751388 -0.550445,-1.661708 -0.632148,-2.022937 -0.220809,-0.976276 -1.251144,-2.500481 -2.087945,-3.088758 -0.764607,-0.537527 -4.449837,-0.993629 -4.602023,-0.56957 -0.102723,0.286246 -2.5714,-0.261472 -2.5714,-0.57051 0,-0.135084 -0.325106,-0.227659 -0.722458,-0.205719 -0.397352,0.02194 -1.055258,-0.0944 -1.462018,-0.258538 -1.423042,-0.57423 -4.498688,-0.177485 -6.392034,0.824545 -0.412368,0.21824 -2.463956,0.955257 -4.559083,1.637811 l -3.809322,1.241012 -3.021187,-0.18073 c -1.86835,-0.111766 -3.240566,-0.322185 -3.596104,-0.551435 -0.67172,-0.433125 -4.61407,-0.349806 -6.124235,0.129433 C 15.25016,35.169508 8.8708325,34.386876 7.1219667,33.104015 6.7345991,32.819868 6.0252771,32.568955 5.5456955,32.54643 4.0830581,32.477733 2.9288382,31.996787 3.1203652,31.535832 c 0.4760561,-1.145744 0.4417324,-1.323968 -0.254979,-1.323968 -0.4035035,0 -0.6874201,-0.147152 -0.6874201,-0.356289 0,-0.620957 1.8366491,-2.796253 2.3609364,-2.796253 0.5648746,0 1.0373737,-0.574857 0.5939802,-0.722655 -0.6441737,-0.214725 2.9736889,-4.512866 3.8099139,-4.526305 0.1861069,-0.003 0.3283898,0.314795 0.3283898,0.733453 0,0.515912 0.2373287,0.914195 0.7868386,1.320465 0.731407,0.540753 0.830964,0.552823 1.41319,0.171334 0.561786,-0.368095 0.642313,-0.368807 0.781188,-0.0069 0.19405,0.505686 0.932962,0.506181 1.600775,0.0011 0.711712,-0.538313 0.866056,-0.492862 1.322279,0.389376 0.582578,1.126582 0.523487,2.303111 -0.126027,2.509259 -0.289763,0.09197 -0.888408,0.47145 -1.330323,0.843295 -0.7312,0.615266 -0.787662,0.773159 -0.627633,1.755152 0.287851,1.766356 1.254596,2.42173 4.677882,3.171232 1.269432,0.27793 0.670292,-0.464601 -0.636082,-0.788315 -1.11984,-0.277492 -1.1346,-0.293769 -0.398302,-0.439251 0.420548,-0.0831 1.073164,-0.04353 1.450258,0.08793 0.654574,0.228184 4.852942,-0.314145 5.212074,-0.673278 0.367026,-0.367024 -0.273799,-0.41355 -1.869271,-0.135709 -1.74357,0.30363 -2.898463,0.221099 -1.879728,-0.134327 0.288983,-0.100823 0.820975,-0.311996 1.182203,-0.469274 0.944371,-0.411178 0.122794,-0.548692 -1.32912,-0.222472 -0.633818,0.14241 -1.214525,0.196797 -1.290462,0.12086 -0.23369,-0.233693 0.846511,-0.883245 1.468826,-0.883245 0.739491,0 1.369086,-0.616953 1.560299,-1.528965 0.08119,-0.387247 0.237395,-0.881416 0.347122,-1.098154 0.109726,-0.216737 0.124274,-0.689618 0.03233,-1.050847 -0.137998,-0.542155 -0.301673,-0.641861 -0.937829,-0.571297 -0.667535,0.07405 -2.646961,0.66881 -4.120231,1.23802 -0.389004,0.150295 -0.459897,0.02171 -0.460728,-0.83565 -9.2e-4,-0.957785 -0.80784,-2.722923 -1.243038,-2.719173 -0.110493,9.46e-4 -0.547684,0.230336 -0.971537,0.509741 -0.69786,0.460032 -0.799513,0.468525 -1.076354,0.08992 -0.253689,-0.34694 -0.449452,-0.367981 -1.150352,-0.123646 -0.627441,0.218727 -0.968032,0.217381 -1.324495,-0.0052 -0.4549765,-0.284138 -0.4575351,-0.360839 -0.04935,-1.479223 0.549365,-1.505189 2.387059,-3.002643 4.404693,-3.589185 1.20873,-0.351388 1.771782,-0.731787 3.086852,-2.085482 0.884652,-0.910636 1.785789,-1.717273 2.002526,-1.792526 0.216737,-0.07525 1.458051,-0.935246 2.758475,-1.911092 3.07393,-2.3066973 7.599119,-4.5012028 9.653691,-4.6815891 1.409949,-0.1237901 1.492343,-0.1002496 1.247882,0.3565296 -0.430864,0.8050784 -0.311327,1.3117488 0.309474,1.3117488 l 0.57122,0 -0.578647,0.6159392 c -0.663329,0.7060835 -0.539208,1.7477215 0.140992,1.1832055 0.576908,-0.47879 1.190414,-1.7991487 1.030099,-2.2169241 -0.07816,-0.203696 -0.341483,-0.3703562 -0.585149,-0.3703562 -0.407445,0 -0.405522,-0.041446 0.02393,-0.5159824 0.605625,-0.6692089 2.600477,-1.4278332 3.28433,-1.2490016 0.293157,0.076662 0.599216,0.032264 0.680134,-0.098663 0.201532,-0.3260829 7.467396,-0.297522 9.573741,0.037633 1.166096,0.1855457 2.290813,0.6085515 3.54661,1.3338811 2.835672,1.6378419 8.049147,2.4904707 10.180085,1.6648842 0.365834,-0.1417349 0.459745,-0.038219 0.459745,0.5067685 -5e-6,0.416262 0.146205,0.684886 0.372773,0.684886 0.205028,0 0.707464,0.167354 1.116525,0.371896 0.409061,0.204543 1.068854,0.497559 1.466206,0.651148 0.523285,0.202265 0.722457,0.461871 0.722457,0.941663 0,0.436316 0.145713,0.662412 0.426907,0.662412 0.33888,0 0.392728,-0.170891 0.261151,-0.828775 -0.224179,-1.120902 -0.568695,-1.478778 -1.770071,-1.838719 -0.560824,-0.168028 -1.019682,-0.464122 -1.019682,-0.657988 0,-0.1938662 -0.164683,-0.352484 -0.36596,-0.352484 -0.295635,0 -0.684887,-0.5185898 -0.684887,-0.912453 0,-0.044739 0.45002,-0.2614064 1.000044,-0.4814825 C 64.151763,8.1063274 64.75997,7.7356617 64.95331,7.5027017 65.708912,6.5922564 67.740927,5.4649516 69.016706,5.2484448 69.750949,5.1238395 70.942797,4.8499752 71.665254,4.6398575 72.387712,4.4297397 73.489573,4.183739 74.113834,4.0931896 74.738095,4.0026399 75.506527,3.7684131 75.821461,3.5726857 76.136395,3.3769582 77.753602,3.0085731 79.415254,2.7540521 81.076907,2.499531 83.027542,2.0713575 83.75,1.8025554 c 1.572265,-0.584987 2.726587,-0.6191391 3.930104,-0.1162774 0.710283,0.296775 0.86269,0.4849615 0.747985,0.9235856 -0.07923,0.3029768 -0.248005,0.6151117 -0.375055,0.6936332 -0.12705,0.078521 -0.233596,0.5200054 -0.236769,0.9810755 -0.01025,1.4898276 -0.976269,3.1160075 -2.916937,4.910343 l -1.846891,1.7076267 -0.387781,2.495763 c -0.90411,5.818875 -0.898927,5.805767 -3.193392,8.075212 -1.133922,1.121557 -2.395635,2.610244 -2.803808,3.308193 -0.709251,1.212773 -0.735674,1.377258 -0.596361,3.712366 0.08018,1.343852 0.31836,2.782546 0.529296,3.197103 0.374559,0.736124 0.881462,3.646491 0.726117,4.16899 -0.467459,1.572289 -0.507146,2.288355 -0.170655,3.07892 0.70406,1.654137 1.793923,5.069494 1.793897,5.621619 -1.3e-5,0.30606 -0.359235,1.310933 -0.798271,2.233051 -0.439036,0.922119 -0.879139,2.001841 -0.978006,2.399379 -0.131876,0.530266 -0.495952,0.86267 -1.36679,1.247881 -1.354303,0.599073 -1.366154,0.599538 -2.959225,0.116061 l 0,0 z m 1.575288,-8.58886 c -0.0016,-0.541323 -0.983196,-1.981851 -1.561231,-2.291204 -0.730746,-0.391084 -0.740695,0.25437 -0.01405,0.911967 0.667887,0.604429 0.662139,0.822459 -0.02643,1.002524 -0.303873,0.07946 -0.473985,0.270312 -0.378562,0.424708 0.247164,0.399921 1.981499,0.357887 1.980285,-0.048 l -3e-6,0 z M 63.652542,41.807848 c 0,-0.124329 -0.294066,-0.659386 -0.653482,-1.189013 -0.359416,-0.52963 -0.725676,-1.2506 -0.813913,-1.602156 -0.198537,-0.791036 -0.897011,-1.456354 -0.897011,-0.854431 0,0.569131 0.554164,1.79548 1.313559,2.906857 0.630122,0.922189 1.050847,1.217958 1.050847,0.738743 z m 2.235274,-1.547255 c -0.101943,-0.25286 -0.248379,-0.903072 -0.325411,-1.444915 -0.07703,-0.541843 -0.242717,-0.98517 -0.368183,-0.98517 -0.434938,0 -0.3669,2.011992 0.08651,2.55832 0.406615,0.489942 0.821014,0.402406 0.607085,-0.128235 z m -4.870694,0 c -0.01377,-0.326643 -1.259711,-1.641949 -1.555367,-1.641949 -0.517519,0 -0.276202,0.749302 0.416895,1.294492 0.711528,0.559689 1.153092,0.694452 1.138472,0.347457 z m 15.507319,-1.444915 c -5.25e-4,-0.180614 -0.236979,-0.715464 -0.525424,-1.188553 -0.288441,-0.473089 -0.524441,-1.107536 -0.524441,-1.409878 0,-0.420373 -0.123624,-0.517384 -0.525423,-0.412313 -0.547269,0.143113 -0.580184,0.05047 -0.633759,-1.783748 -0.01266,-0.433474 -0.141241,-0.81387 -0.285733,-0.845322 -0.419772,-0.09138 -0.255697,2.601307 0.213832,3.509273 0.527557,1.020181 1.722688,2.458931 2.042571,2.458931 0.131648,0 0.238918,-0.147776 0.238377,-0.32839 z m -4.202407,-4.925847 c 0,-0.253599 0.185125,-0.61473 0.411391,-0.802512 0.226263,-0.187783 0.591561,-0.689836 0.811769,-1.115677 0.356689,-0.689757 0.357186,-0.817446 0.0045,-1.170084 -0.352638,-0.352636 -0.467548,-0.254313 -1.052981,0.900983 -0.361431,0.71325 -0.744475,1.763167 -0.851212,2.333155 -0.176979,0.945074 -0.155739,1.004587 0.241206,0.675782 0.239407,-0.198308 0.435282,-0.568049 0.435282,-0.821647 z m -4.991526,0.309511 c 0,-0.401316 -0.860636,-2.802773 -1.125171,-3.139596 -0.144413,-0.183877 -0.482318,-0.264575 -0.750901,-0.17933 -0.69921,0.221921 -0.630995,-0.524601 0.07679,-0.840426 0.487312,-0.217446 0.351656,-0.301417 -0.985169,-0.609835 -1.492474,-0.344329 -1.518698,-0.364529 -0.703065,-0.541589 0.835548,-0.181384 2.173954,-0.917844 2.173954,-1.196224 0,-0.07865 -0.265996,-0.06655 -0.591102,0.0269 -1.781055,0.511941 -1.692786,0.517708 -1.162867,-0.07596 0.263492,-0.29519 0.777453,-0.611599 1.142134,-0.703128 0.539508,-0.135407 0.634158,-0.281561 0.507959,-0.784373 -0.106451,-0.424138 -0.02535,-0.667746 0.258587,-0.776702 1.311886,-0.503418 2.096877,0.337291 1.143919,1.225108 -0.75299,0.701516 -0.306906,1.148954 0.822264,0.824762 0.720198,-0.206772 0.900689,-0.451206 1.365072,-1.848678 0.518562,-1.560514 0.495695,-2.461633 -0.06247,-2.461633 -0.149026,0 -0.270955,0.332066 -0.270955,0.737924 0,0.405858 -0.159832,0.956506 -0.355182,1.223663 -0.333983,0.456747 -0.366026,0.442534 -0.536857,-0.23811 -0.150053,-0.597859 -0.288163,-0.697124 -0.793474,-0.570299 -0.578165,0.14511 -0.621915,0.06416 -0.79577,-1.472528 -0.232478,-2.05485 -0.983398,-2.864583 -2.82019,-3.041076 -1.029495,-0.09892 -1.589738,0.04625 -3.329886,0.862852 -1.897826,0.890595 -2.665252,1.009575 -2.665252,0.413214 0,-0.117903 0.354661,-0.285301 0.788136,-0.371996 0.564344,-0.112869 0.788136,-0.308686 0.788136,-0.689619 0,-0.559518 -0.380888,-0.715682 -0.65678,-0.269279 -0.0893,0.144491 -0.369234,0.262712 -0.622073,0.262712 -0.252839,0 -0.666263,0.151037 -0.918719,0.335639 -0.422698,0.309084 -0.426694,0.397418 -0.05049,1.116525 0.402563,0.769481 0.397023,0.785694 -0.379333,1.11003 -1.028929,0.429852 -1.030781,0.948348 -0.0028,0.797479 0.975171,-0.143124 1.174167,0.332325 0.705371,1.685287 l -0.337115,0.972926 -0.312916,-1.16996 c -0.23844,-0.89146 -0.43824,-1.16996 -0.839359,-1.16996 -0.292798,0 -0.526432,0.174889 -0.526432,0.394068 0,0.216737 0.11822,0.394067 0.262711,0.394067 0.144492,0 0.262712,0.374908 0.262712,0.833128 0,0.863872 0.623219,1.793991 1.202046,1.793991 0.182864,0 0.409891,0.352457 0.504504,0.783236 0.212103,0.965692 2.109206,2.687605 3.396237,3.082606 1.289185,0.395662 1.179534,-0.02511 -0.220326,-0.84548 -1.28437,-0.752691 -1.997275,-1.444091 -1.489009,-1.444091 0.167883,0 0.919657,0.413771 1.670608,0.919492 1.483442,0.999006 2.185393,1.18013 1.922933,0.496173 -0.118895,-0.309834 -0.05024,-0.380262 0.256092,-0.262712 0.230193,0.08834 0.527084,0.160607 0.659758,0.160607 0.132673,0 0.241225,0.346808 0.241225,0.770686 0,0.637573 0.120207,0.785043 0.695961,0.853813 0.737463,0.08808 0.901409,0.288673 1.517316,1.856433 0.341412,0.869051 0.939265,1.35869 0.939265,0.769257 l 0,0 z m -54.9388,-2.385857 C 12.755807,31.582868 12.591659,31 12.162615,31 c -0.126558,0 -0.558901,0.125009 -0.960763,0.277797 -0.584952,0.222396 -0.653849,0.326375 -0.345493,0.521399 0.483415,0.305744 1.066627,0.311171 1.535349,0.01429 l 0,-2e-6 z m 15.245639,-0.557727 c -0.611491,-0.340441 -2.150035,-0.40801 -2.257439,-0.09914 -0.148442,0.426883 1.517219,0.863752 2.126083,0.557627 0.405769,-0.204012 0.430897,-0.291718 0.131356,-0.458485 z m -17.315313,0.13831 C 10.322034,31.177331 10.203814,31 10.059322,31 9.9148305,31 9.7966102,30.550763 9.7966102,30.001695 c 0,-1.254612 -0.3706056,-1.628814 -1.6131631,-1.628814 l -0.9826545,0 0.636538,-1.871498 c 0.6055185,-1.780299 0.6401135,-2.5218 0.1021437,-2.189316 -0.1345075,0.08313 -0.244559,0.341745 -0.244559,0.5747 0,0.232956 -0.1563244,0.610195 -0.3473876,0.83831 -0.5010336,0.598195 -1.0647825,2.537321 -0.878664,3.02234 0.110866,0.288912 0.5044015,0.4136 1.3053771,0.4136 1.3654197,0 1.5358711,0.126125 1.2360812,0.914634 -0.1573371,0.413826 -0.1071481,0.769462 0.1630253,1.155189 0.4503861,0.643016 1.1486867,0.742245 1.1486867,0.163228 z m 24.432203,0.0016 c 0.794704,-0.212371 1.641852,-0.324378 1.882551,-0.248906 0.240702,0.07547 0.508881,0.02194 0.59596,-0.118948 0.08708,-0.140893 0.806346,-0.444553 1.598378,-0.674805 1.525255,-0.443402 1.686353,-0.645559 1.034171,-1.297744 -0.981395,-0.981391 -3.289568,-1.086169 -5.313947,-0.241222 -1.057699,0.441472 -2.949655,2.115882 -2.949655,2.610492 0,0.48004 1.292471,0.468205 3.152542,-0.02887 l 0,0 z m 12.077046,-1.906237 c -0.01771,-0.452734 -1.570318,-1.868846 -2.136988,-1.949094 -0.337582,-0.04781 -0.727522,-0.34604 -0.866536,-0.66274 -0.139012,-0.316698 -0.483981,-0.678995 -0.766601,-0.805103 -0.464843,-0.207419 -0.416717,-0.289322 0.504588,-0.85872 0.560141,-0.346187 1.486591,-0.693212 2.058778,-0.771167 1.532356,-0.208768 1.521785,-0.750878 -0.01655,-0.84911 -0.94969,-0.06064 -1.461077,0.05603 -2.052883,0.468353 -0.433475,0.302013 -1.201907,0.704479 -1.707627,0.89437 -0.50572,0.18989 -1.037712,0.475518 -1.182204,0.634728 -0.82048,0.90406 -5.566423,1.826508 -10.180084,1.978661 -0.252866,0.0083 -0.459751,0.133381 -0.459751,0.277873 0,0.156389 0.993053,0.262711 2.453739,0.262711 2.577671,0 5.492898,-0.590297 7.668951,-1.552869 1.168868,-0.517046 1.17392,-0.517048 1.17392,-3.94e-4 0,0.569669 0.827842,1.040069 0.987492,0.561118 0.05473,-0.164191 0.458282,0.110091 0.896782,0.609514 0.438501,0.499425 0.932804,0.910674 1.098449,0.913887 0.165647,0.0032 0.596726,0.237024 0.957955,0.519581 0.65261,0.510478 1.583301,0.705327 1.568571,0.32839 l 0,1.1e-5 z m 27.851136,-3.562115 c 0.0022,-0.261387 0.122242,-0.402186 0.266734,-0.312885 0.156163,0.09651 0.262711,-0.213228 0.262711,-0.763718 0,-0.509346 0.202559,-1.350852 0.450128,-1.870014 0.377541,-0.79171 0.391483,-0.980176 0.08645,-1.168695 -0.516897,-0.319458 0.227618,-1.395623 1.537647,-2.222607 1.683925,-1.063015 1.596019,-3.152706 -0.153697,-3.653658 -0.98398,-0.281719 -2.183735,0.292141 -3.055224,1.461355 -0.451822,0.60618 -0.48573,0.818249 -0.223021,1.394834 0.268655,0.589631 0.224987,0.791326 -0.328684,1.518184 -0.815786,1.07096 -1.315309,3.049328 -1.082827,4.288561 0.225199,1.200421 1.642169,2.741654 2.000356,2.175782 0.12947,-0.204539 0.237211,-0.585751 0.239423,-0.847139 l 0,0 z m -4.309061,-3.39975 c 0.252327,-0.791562 0.161098,-2.877833 -0.138967,-3.177896 -0.22041,-0.22041 -0.330155,0.187872 -0.655537,2.438788 -0.180848,1.251062 0.445552,1.833787 0.794504,0.739108 z M 14.891872,20.382015 c 1.937864,-1.038791 3.222271,-1.532838 4.756433,-1.829562 1.155932,-0.22357 2.515466,-0.538535 3.021187,-0.699922 0.50572,-0.161386 1.628813,-0.393534 2.495762,-0.515882 2.369448,-0.33439 5.474795,-1.184762 5.590146,-1.530812 C 30.811468,15.637627 30.79436,15.5 30.717381,15.5 c -0.484084,0 -8.082583,1.602466 -8.685571,1.831722 -0.406116,0.154405 -1.581424,0.398322 -2.611796,0.542038 -1.98722,0.277176 -5.112845,1.615236 -6.663763,2.852714 -0.801609,0.639604 -1.081849,1.078611 -0.688531,1.078611 0.09318,0 1.364046,-0.640382 2.824152,-1.42307 z m 44.203796,-2.254896 c -0.238539,-0.893691 -0.385427,-1.050848 -0.982182,-1.050848 -0.771826,0 -1.437399,0.602161 -1.160603,1.050026 0.09684,0.156699 0.395373,0.215306 0.663395,0.130239 0.32736,-0.1039 0.581833,0.02194 0.77527,0.383381 0.158376,0.295927 0.444703,0.538049 0.63628,0.538049 0.277989,0 0.291687,-0.212202 0.06784,-1.050847 z m 10.336535,0.231804 c 0,-0.621656 -2.011847,-2.289054 -3.122905,-2.588231 -1.358192,-0.365723 -1.6788,-0.195887 -0.645152,0.341755 0.410778,0.213663 1.033474,0.695261 1.383766,1.070219 0.350295,0.374957 0.79733,0.681741 0.993416,0.681741 0.196085,0 0.424566,0.17733 0.507735,0.394068 0.175011,0.456064 0.88314,0.536608 0.88314,0.100448 z M 37.12187,17.404661 c 0.0063,-0.387484 -1.452045,-3.466947 -1.645175,-3.473869 -0.108369,-0.0039 -0.197034,0.122065 -0.197034,0.279889 0,0.157824 -0.244924,0.598323 -0.544276,0.978886 -0.569076,0.723463 -0.274079,1.143304 0.406473,0.578496 0.300222,-0.249162 0.472876,-0.105289 0.915998,0.763298 0.484293,0.949295 1.0551,1.417789 1.064014,0.8733 l 0,0 z m 15.79733,-0.07691 c 1.496346,-0.150669 3.725503,-0.517447 4.953681,-0.815062 1.228178,-0.297615 2.993972,-0.565577 3.923986,-0.595471 1.0307,-0.03313 1.731644,-0.176483 1.795196,-0.367141 0.121964,-0.365888 -0.188443,-0.401904 -2.829351,-0.328287 -1.742818,0.04858 -4.077638,-0.197295 -6.40645,-0.674656 -0.718254,-0.147229 -0.748618,-0.117458 -0.577125,0.565828 0.180189,0.717928 0.175691,0.720633 -0.981006,0.590256 -1.158449,-0.130574 -2.01847,0.124207 -2.01847,0.597972 0,0.137312 0.315254,0.249657 0.700566,0.249657 0.385309,0 0.62625,0.07431 0.535422,0.165143 -0.09083,0.09083 -1.076062,0.179494 -2.189406,0.197034 -1.36194,0.02146 -2.060032,0.139338 -2.133586,0.360281 -0.137776,0.413858 1.488812,0.430803 5.226543,0.05445 l 0,0 z M 26.840932,12.86813 c 2.455369,-0.821203 2.476977,-0.823404 6.305083,-0.642261 3.085388,0.145999 3.77946,0.116618 3.527154,-0.149306 -0.227698,-0.239986 -1.601016,-0.338614 -4.991526,-0.358479 -4.612979,-0.02703 -4.696701,-0.01745 -6.078228,0.695052 -0.770452,0.397351 -1.601836,0.722457 -1.847519,0.722457 -0.529836,0 -3.777919,2.102048 -3.908224,2.529269 -0.04969,0.16292 0.949105,-0.214289 2.219549,-0.838243 1.270444,-0.623954 3.418613,-1.505274 4.773711,-1.958489 l 0,0 z m 18.42178,2.37153 c 0.361229,-0.122465 1.330701,-0.282174 2.154387,-0.354908 0.823683,-0.07273 1.710336,-0.252662 1.970339,-0.39984 0.327481,-0.185375 -0.859147,-0.219965 -3.862014,-0.112576 -2.38411,0.08526 -4.393856,0.241969 -4.466102,0.348239 -0.07225,0.106271 -0.358,0.23645 -0.635009,0.289288 -0.277011,0.05284 -0.556158,0.253749 -0.620331,0.446468 -0.09437,0.283391 0.353629,0.317468 2.342636,0.178196 1.352622,-0.09471 2.754865,-0.272401 3.116094,-0.394867 z m 17.864407,-1.86595 c 0,-0.158019 -0.22826,-0.346998 -0.507244,-0.419954 -0.278987,-0.07296 -0.451413,-0.278147 -0.383171,-0.45598 0.07539,-0.196475 -0.278685,-0.444002 -0.902473,-0.630893 -1.305287,-0.391073 -1.359655,-0.387614 -1.359655,0.08651 0,0.216737 0.13422,0.394068 0.298265,0.394068 0.164045,0 0.572171,0.29555 0.906947,0.656779 0.611648,0.659979 1.947331,0.913402 1.947331,0.369473 z M 47.609283,12.234512 c 0.952008,-0.172097 1.74121,-0.459722 1.807558,-0.658762 0.08956,-0.268681 -0.06346,-0.307384 -0.638945,-0.161603 -1.273866,0.322698 -5.616879,0.417466 -5.616879,0.122565 0,-0.158175 -0.612379,-0.234328 -1.50804,-0.187534 -1.133173,0.0592 -1.527927,0.183399 -1.58804,0.499625 -0.176249,0.927133 3.507489,1.115466 7.544346,0.385709 l 0,0 z M 71.533898,11.277606 C 69.615235,9.6379405 67.054162,8.9647292 65.912082,9.799839 c -0.382718,0.279851 -0.403838,0.392103 -0.11589,0.615998 0.65879,0.512243 1.21958,0.582696 1.705815,0.214305 0.694184,-0.525942 0.867225,-0.488234 2.45562,0.535112 0.78496,0.505721 1.667624,0.914687 1.96148,0.908815 0.455017,-0.0091 0.397867,-0.127256 -0.385209,-0.796463 z m -22.855932,-0.86832 c 0,-0.7429845 -0.622049,-1.3343189 -1.178859,-1.1206509 -0.513252,0.196954 -0.515651,0.6944157 -0.0033,0.6944157 0.218925,0 0.394068,0.2335222 0.394068,0.5254242 0,0.291902 0.175142,0.525423 0.394067,0.525423 0.239785,0 0.394068,-0.244542 0.394068,-0.624612 z M 43.170259,10.000322 C 42.74433,9.2044619 42.849635,8.2695484 43.423729,7.75 44.425688,6.8432395 43.842773,6.1844454 42.618323,6.8397517 c -0.395891,0.2118737 -0.508154,0.5553627 -0.508154,1.5547845 0,1.6263498 0.190404,2.1139388 0.825486,2.1139388 0.419411,0 0.459774,-0.08742 0.234604,-0.508153 z M 67.71153,8.1440678 c 0.07942,0 0.144402,0.1773305 0.144402,0.3940678 0,0.2167373 0.09192,0.3940678 0.204256,0.3940678 0.436814,0 1.372015,-0.8390463 1.372015,-1.2309456 0,-0.3438455 -0.220528,-0.3837624 -1.316759,-0.238342 -1.77378,0.2353003 -2.098495,0.3867442 -2.098495,0.9787176 0,0.4736125 0.04682,0.4798495 0.775089,0.1032486 0.4263,-0.2204478 0.840072,-0.4008142 0.919492,-0.4008142 z"
     id="path3028"
     inkscape:connector-curvature="0" />
  <path
     style="fill:#cccccc;fill-opacity:1;stroke:none"
     d="M 48.283898,59.774137 C 47.210426,59.470626 45.16968,59.431063 37.118644,59.557683 L 27.266949,59.712621 25.21154,58.886155 C 22.67177,57.86493 20.185395,56.268609 17.913196,54.200417 16.3012,52.733152 15.956354,52.550876 13.053027,51.631465 9.2821518,50.437324 9.1020824,50.304178 9.5249848,49.022771 c 0.3528059,-1.069012 0.3481345,-1.066317 1.0713412,-0.61811 0.652955,0.404668 1.027216,-0.04491 1.038832,-1.247881 0.01887,-1.954621 -0.324217,-1.848689 5.679954,-1.753734 l 5.390449,0.08525 1.361202,-0.935095 c 1.565306,-1.075306 4.067873,-1.71055 4.513209,-1.145619 0.144787,0.183669 0.73613,0.352861 1.314096,0.375983 1.33542,0.05342 3.577831,0.321148 4.007468,0.478458 0.181225,0.06635 1.640403,-0.0616 3.242615,-0.28435 1.602214,-0.222747 3.094451,-0.33541 3.316086,-0.250361 0.221634,0.08505 0.535761,0.04837 0.698062,-0.0815 0.1623,-0.129876 1.029539,-0.286914 1.927196,-0.348974 1.031215,-0.07129 1.812607,-0.276191 2.122381,-0.556532 0.63587,-0.575456 2.205634,-0.614626 1.988823,-0.04963 -0.08317,0.216737 -0.0288,0.394068 0.120835,0.394068 0.312769,0 1.09772,-0.730059 1.09772,-1.020955 0,-0.248611 1.560989,-1.00284 3.390704,-1.638297 1.935199,-0.672092 2.119207,-0.62176 0.917781,0.251045 -0.563522,0.409384 -1.186837,0.941376 -1.385143,1.182203 -0.308952,0.375196 -0.302686,0.437868 0.04378,0.437868 0.222388,0 0.456364,0.147776 0.519946,0.32839 0.08223,0.233574 0.350959,0.157722 0.930746,-0.262712 0.93852,-0.680568 1.310425,-0.768177 0.83642,-0.197034 -0.266453,0.321058 -0.252635,0.394068 0.07459,0.394068 0.265518,0 0.357317,0.169489 0.270861,0.500097 -0.147042,0.562296 0.604411,0.936534 1.325161,0.659956 0.23964,-0.09196 0.431078,-0.03627 0.431078,0.125399 0,0.159951 0.191806,0.290819 0.426235,0.290819 0.36385,0 0.374322,0.06255 0.07156,0.427365 -0.319784,0.385317 -0.245405,0.416944 0.755969,0.321448 0.807276,-0.07699 1.110648,-0.0095 1.110648,0.247118 0,0.228313 0.177814,0.2966 0.503314,0.19329 0.276825,-0.08786 0.582325,-0.03191 0.67889,0.124339 0.09656,0.156246 0.402064,0.212198 0.678889,0.124338 0.277442,-0.08806 0.503314,-0.03616 0.503314,0.115644 0,0.174087 0.422801,0.217439 1.149372,0.117851 2.181434,-0.298999 4.876983,1.123577 5.945488,3.137729 0.341525,0.643783 0.92092,1.352523 1.287545,1.574976 l 0.666587,0.404462 -0.649495,0.259163 c -0.357225,0.142539 -1.299709,0.527694 -2.094412,0.8559 -0.896836,0.370384 -1.968083,0.592771 -2.824153,0.586281 -0.75858,-0.0058 -1.379237,0.09141 -1.379237,0.215922 0,0.124508 -0.210621,0.226378 -0.468048,0.226378 -0.91972,0 -4.467273,2.373326 -5.694166,3.80942 -2.122431,2.484333 -5.443075,3.663848 -8.155583,2.89692 z m -3.704923,-2.639974 c 0.526189,-0.219855 2.263615,-0.622719 3.860953,-0.895253 3.039219,-0.518546 3.832801,-0.798721 2.317841,-0.818317 l -0.8976,-0.01161 1.050848,-0.544121 c 1.289886,-0.667893 2.265165,-1.532563 2.075235,-1.839876 -0.07789,-0.126032 -0.449267,0.01285 -0.825281,0.308619 -0.376014,0.295772 -1.195292,0.764087 -1.820622,1.040699 -0.625328,0.276614 -1.136959,0.615665 -1.136959,0.753449 0,0.137783 -0.797987,0.389419 -1.773305,0.559192 -1.880311,0.327303 -3.258318,0.868107 -3.763729,1.477087 -0.388009,0.467525 -0.268444,0.463612 0.912619,-0.02987 z m 1.615045,-1.486688 c 0.785474,-0.157746 1.561948,-0.448045 1.725497,-0.645109 0.424035,-0.510931 -0.138284,-0.469215 -2.588195,0.192006 -2.2787,0.615011 -3.221153,1.110421 -3.221153,1.693229 0,0.311118 0.275149,0.253008 1.327857,-0.280439 0.730323,-0.370082 1.97052,-0.801941 2.755994,-0.959687 l 0,0 z M 40.533898,54.78739 c 2.460525,-1.103929 2.949085,-1.411177 2.751726,-1.730512 -0.07277,-0.117753 -1.105902,0.240751 -2.295837,0.796676 -1.189932,0.555925 -2.902393,1.162198 -3.805465,1.347273 -0.903072,0.185076 -1.641949,0.445708 -1.641949,0.579182 0,0.536779 2.84265,-0.02851 4.991525,-0.992619 z M 53.58235,51.844852 c 0.602283,-0.483313 1.252495,-0.883343 1.444915,-0.888957 0.386457,-0.01128 1.712083,-2.524456 1.462972,-2.773567 -0.193472,-0.193472 -4.659729,4.251021 -4.659729,4.637021 0,0.345214 0.349646,0.150716 1.751842,-0.974497 l 0,0 z M 30.593119,48.605084 c 0.915946,-0.287119 2.035096,-0.523559 2.487001,-0.525424 0.451906,-0.0019 0.955032,-0.164109 1.118059,-0.360544 0.242122,-0.291739 0.0201,-0.385674 -1.212161,-0.512854 -1.266067,-0.13067 -1.595639,-0.07391 -2.05018,0.353113 -0.297883,0.279847 -0.890584,0.564792 -1.317112,0.633212 -0.426528,0.06842 -1.218832,0.193815 -1.760675,0.278658 -0.541843,0.08484 -0.98517,0.267122 -0.98517,0.405066 0,0.422558 1.96369,0.279394 3.720238,-0.271227 z"
     id="path3030"
     inkscape:connector-curvature="0" />
  <path
     style="fill:#cccccc;fill-opacity:1;stroke:none"
     d="M 7.878817,49.886862 C 7.1899909,49.486094 5.8652599,47.569513 6.0122732,47.186402 6.0814553,47.006117 5.7199193,46.164221 5.2088599,45.315523 4.6978005,44.466825 4.279661,43.634756 4.279661,43.466482 c 0,-0.480962 3.8406318,0.281222 5.3441599,1.060563 0.6996691,0.362668 1.4395481,0.659396 1.6441751,0.659396 0.274075,0 0.30646,0.121068 0.12298,0.459745 -0.136988,0.252861 -0.321864,0.801952 -0.410836,1.220204 -0.121473,0.571036 -0.236671,0.685553 -0.462479,0.459746 -0.165392,-0.165392 -0.451362,-0.300712 -0.6354908,-0.300712 -0.4491404,0 -1.1675391,1.435223 -1.1945877,2.386557 -0.023804,0.837179 -0.1045598,0.884597 -0.8087655,0.474881 l 0,0 z"
     id="path3032"
     inkscape:connector-curvature="0" />
  <path
     style="fill:#cccccc;fill-opacity:1;stroke:none"
     d="m 26.220436,42.250631 c 0.283519,-0.33594 0.52572,-0.639474 0.538224,-0.67452 0.0125,-0.03505 1.491518,-0.372958 3.286698,-0.750916 3.949884,-0.83161 7.271994,-0.909475 10.619896,-0.248914 1.300424,0.256581 2.880235,0.541735 3.510691,0.633675 1.089046,0.158815 1.121842,0.18851 0.65678,0.594672 -0.269228,0.23513 -1.094153,0.482234 -1.833168,0.549119 -1.231958,0.1115 -1.332506,0.07894 -1.209445,-0.391645 0.119326,-0.456304 0.07001,-0.478889 -0.444481,-0.203544 -0.318285,0.170341 -0.643781,0.479308 -0.723324,0.686593 -0.07954,0.207286 -0.39206,0.376883 -0.694482,0.376883 -0.427668,0 -0.479802,-0.07006 -0.234605,-0.315254 0.418412,-0.418412 0.41387,-1.090262 -0.0056,-0.831005 -0.17648,0.10907 -0.641589,0.173872 -1.033577,0.144004 -0.391988,-0.02987 -0.784172,0.06133 -0.871518,0.202657 -0.08735,0.14133 -0.485957,0.191535 -0.8858,0.111567 -0.484805,-0.09696 -0.842197,-0.0066 -1.072828,0.271317 -0.190213,0.229193 -0.46791,0.416714 -0.617104,0.416714 -0.149193,0 -0.05663,-0.237166 0.205698,-0.527034 0.569275,-0.629041 0.380073,-0.938901 -0.338482,-0.554342 -0.282361,0.151115 -0.575895,0.212241 -0.652299,0.135837 -0.348854,-0.348854 -1.784289,-0.130307 -2.502331,0.380984 -0.953246,0.67877 -1.608782,0.77654 -1.100534,0.164138 0.550462,-0.663266 0.08061,-0.746361 -0.876273,-0.154974 -1.116955,0.690316 -1.589351,0.718355 -0.709192,0.04209 0.982567,-0.754945 0.398898,-0.987608 -0.860498,-0.343012 -0.608254,0.311322 -1.457367,0.640215 -1.886918,0.730874 l -0.781002,0.164834 0.515491,-0.610801 z"
     id="path3034"
     inkscape:connector-curvature="0" />
  <path
     style="fill:#cccccc;fill-opacity:1;stroke:none"
     d="m 54.287476,37.569554 c -0.310321,-0.125207 -0.646811,-0.361285 -0.747757,-0.524619 -0.127333,-0.20603 -0.822924,-0.241195 -2.271496,-0.114834 -1.939162,0.169155 -2.133041,0.139783 -2.720558,-0.412161 -0.432531,-0.406342 -0.819208,-0.545495 -1.222647,-0.439993 -0.324528,0.08487 -0.735115,0.03391 -0.912417,-0.11324 -0.468602,-0.388905 -4.600813,-0.760092 -5.156245,-0.463174 -0.292712,0.156475 -0.644367,0.146961 -0.967899,-0.02619 -0.6537,-0.34985 -2.825762,-0.353391 -3.041105,-0.005 -0.215491,0.348671 -0.654132,0.07115 -0.654132,-0.413858 0,-0.208209 0.206886,-0.381192 0.459746,-0.384405 0.25286,-0.0032 0.755297,-0.237024 1.116526,-0.519582 0.783805,-0.613101 1.249688,-0.687493 0.782866,-0.125007 -0.508297,0.612461 -0.09512,0.776639 0.678629,0.269658 0.672722,-0.440784 0.685464,-0.438419 0.515919,0.09577 -0.239458,0.754464 0.05345,0.692033 1.712725,-0.365051 1.540236,-0.98125 2.090998,-1.167024 1.558829,-0.5258 -0.518748,0.625054 -0.04229,0.818684 0.810364,0.329328 C 44.652971,33.588012 45,33.501566 45,33.639337 c 0,0.137772 0.291841,0.250494 0.648534,0.250494 0.494694,0 0.609085,0.102805 0.482228,0.433389 -0.136751,0.356369 -0.04577,0.403137 0.511927,0.263164 0.436072,-0.109448 0.716896,-0.05424 0.786516,0.154622 0.0855,0.256493 0.255914,0.257583 0.809878,0.0052 0.488906,-0.222761 0.701595,-0.23245 0.701595,-0.03196 0,0.164139 0.278143,0.234535 0.647615,0.163906 0.356188,-0.06809 0.690682,0.0054 0.74332,0.163318 0.06766,0.202979 0.301305,0.193441 0.797301,-0.03255 0.597299,-0.272149 0.701594,-0.258672 0.701594,0.09066 0,0.22568 0.147776,0.360545 0.32839,0.299699 0.180615,-0.06085 0.455969,0.06249 0.6119,0.274082 0.227191,0.308289 0.397489,0.32371 0.857294,0.07763 0.397158,-0.212552 0.714237,-0.225251 1.03005,-0.04125 0.25538,0.148789 0.311681,0.269346 0.127875,0.273818 -0.529177,0.01287 -0.376632,0.533412 0.156317,0.533412 0.266588,0 0.685086,0.221417 0.929994,0.492037 0.422055,0.466366 0.413899,0.500445 -0.156317,0.653192 -0.722529,0.193549 -0.718645,0.193801 -1.428535,-0.09262 l 0,0 z"
     id="path3036"
     inkscape:connector-curvature="0" />
</svg>
