<?xml version="1.0" encoding="utf-8"?>
<!-- Generator: Adobe Illustrator 15.1.0, SVG Export Plug-In . SVG Version: 6.00 Build 0)  -->
<!DOCTYPE svg PUBLIC "-//W3C//DTD SVG 1.1//EN" "http://www.w3.org/Graphics/SVG/1.1/DTD/svg11.dtd">
<svg version="1.1"
	 id="Layer_1" xmlns:inkscape="http://www.inkscape.org/namespaces/inkscape" sodipodi:docname="bat.svg" inkscape:version="0.48.2 r9819" xmlns:sodipodi="http://sodipodi.sourceforge.net/DTD/sodipodi-0.dtd" xmlns:svg="http://www.w3.org/2000/svg" xmlns:rdf="http://www.w3.org/1999/02/22-rdf-syntax-ns#" xmlns:cc="http://creativecommons.org/ns#" xmlns:dc="http://purl.org/dc/elements/1.1/"
	 xmlns="http://www.w3.org/2000/svg" xmlns:xlink="http://www.w3.org/1999/xlink" x="0px" y="0px" width="100px" height="100px"
	 viewBox="-305.5 396.5 100 100" enable-background="new -305.5 396.5 100 100" xml:space="preserve">
<sodipodi:namedview  units="px" borderopacity="1" objecttolerance="10" id="namedview9" inkscape:window-width="955" inkscape:zoom="2.36" bordercolor="#666666" pagecolor="#ffffff" gridtolerance="10" guidetolerance="10" inkscape:pageopacity="0" inkscape:pageshadow="2" inkscape:window-height="722" inkscape:cy="50" showgrid="false" inkscape:cx="42.584746" inkscape:window-x="396" inkscape:window-y="96" inkscape:window-maximized="0" inkscape:current-layer="Layer_1" inkscape:showpageshadow="false">
	</sodipodi:namedview>
<circle id="circle3" sodipodi:rx="33" sodipodi:cx="50" sodipodi:cy="50" sodipodi:ry="33" display="none" fill="#FFFFFF" cx="50" cy="50" r="33">
</circle>
<path id="path5" inkscape:connector-curvature="0" display="none" fill="#FFFFFF" d="M51.951,60.753
	c0.441,3.161,2.693,5.604,2.806,8.728c0.146,4.059-2.905,7.982-3.116,12.156C50.011,75.006,51.236,67.464,51.951,60.753z"/>
<path id="path7" inkscape:connector-curvature="0" d="M-255.386,436.932c1.136-0.289,3.025-0.019,3.64,0.883
	c-0.837-0.15-1.756-0.985-2.979-0.222c-0.688,0.432-1.535,2.194-2.095,3.31c-2.347,4.667-4.406,12.715-1.875,18.195
	c1.738,0.129,1.947-1.494,2.757-2.646c0.389-0.553,1.793-1.354,2.758-1.985c4.131-2.709,8.517-5.196,12.57-8.05
	c1.729-1.217,3.223-2.655,4.633-3.529c1.797-1.114,3.701-1.996,5.294-3.75c1.229-1.354,3.618-3.63,5.403-3.527
	c0.796,0.045,2.284,1.159,3.199,1.653c2.01,1.087,3.783,2.081,4.189,4.742c-0.727-0.403-1.146-2.38-2.205-2.095
	c-0.855,0.229-0.249,1.67-0.551,2.426c-0.367,0.915-2.175,2.31-3.199,3.197c-2.352,2.041-5.01,3.495-8.16,4.633
	c-1.64,0.592-3.314,0.828-5.073,1.324c-1.692,0.477-3.545,1.657-5.294,2.536c-2.898,1.457-4.678,2.479-6.947,4.189
	c-1.33,1-2.902,2.039-2.096,4.412c0.726,0.635,1.666,1.055,2.537,1.543c0.334,0.644,0.477,1.771,1.434,1.875
	c1.1,0.118,1.351-1.047,2.315-0.992c-0.219,2.122-1.351,3.834-3.528,3.64c-1.021,1.275-0.52,4.939-3.309,3.75
	c-0.384,0.332,0.555,0.692,0.111,1.104c-2.021,0.623-3.053-0.598-3.53-1.876c-0.224,0.106-0.238,0.424-0.22,0.772
	c-0.2-0.132-0.087-0.576-0.221-0.772c-0.342,0.169-0.344,0.271-0.441-0.22c-0.291-0.034-0.284,0.229-0.331,0.44
	c-0.418-0.493-0.754-0.651-1.323-0.44c-0.263-0.069,0.016-0.681-0.221-0.772c-0.194,0.026-0.251,0.19-0.221,0.442
	c-0.297-0.146-0.068-0.814-0.441-0.883c-0.169,0.346-0.213,0.813-0.221,1.323c-0.66-0.357-1.598,0.447-2.867,0.661
	c-3.002,0.507-5.994-1.538-9.264-1.433c-1.425,1.727-2.874,3.416-4.301,5.184c-1.402,1.734-2.416,3.771-3.75,5.624
	c0-2.779-1.032-4.948-1.985-7.169c-0.312-0.725-0.877-1.562-0.882-2.095c-0.017-1.599,2.039-3.375,2.316-4.964
	c-3.001,0.76-4.335,3.817-7.058,4.19c-0.096-0.16-0.087-0.428-0.441-0.332c-0.667-2.538,2.527-1.731,3.529-2.646
	c0.566-0.515,0.962-1.992,1.434-3.088c1.746-4.051,4.805-10.316,2.426-15.549c-0.446-0.981-2.363-1.876-2.537-2.867
	c-0.193-1.103,0.201-2.603,0.221-3.642c0.128-6.711-2.938-12.827-6.065-17.645c0.621-1.436,1.372-3.739,1.213-6.286
	c-0.165-2.648-1.014-5.956-1.985-7.168c-0.954-1.191-2.257-0.595-3.088,0c0.669-1.829,0.92-3.611,3.309-3.64
	c0.793-0.011,5.017,0.021,5.955,0.331c1,0.331,2.565,2.355,3.639,3.309c3.745,3.319,7.418,6.536,10.808,9.925
	C-263.363,427.301-259.146,432.078-255.386,436.932z"/>
</svg>
