<?xml version="1.0" encoding="utf-8"?>
<!-- Generator: Adobe Illustrator 15.1.0, SVG Export Plug-In . SVG Version: 6.00 Build 0)  -->
<!DOCTYPE svg PUBLIC "-//W3C//DTD SVG 1.1//EN" "http://www.w3.org/Graphics/SVG/1.1/DTD/svg11.dtd">
<svg version="1.1"
	 id="svg2" xmlns:inkscape="http://www.inkscape.org/namespaces/inkscape" sodipodi:docname="bird.svg" inkscape:version="0.48.2 r9819" xmlns:sodipodi="http://sodipodi.sourceforge.net/DTD/sodipodi-0.dtd" xmlns:svg="http://www.w3.org/2000/svg" xmlns:rdf="http://www.w3.org/1999/02/22-rdf-syntax-ns#" xmlns:cc="http://creativecommons.org/ns#" xmlns:dc="http://purl.org/dc/elements/1.1/"
	 xmlns="http://www.w3.org/2000/svg" xmlns:xlink="http://www.w3.org/1999/xlink" x="0px" y="0px" width="100px" height="100px"
	 viewBox="-305.5 396.5 100 100" enable-background="new -305.5 396.5 100 100" xml:space="preserve">
<sodipodi:namedview  units="px" borderopacity="1" objecttolerance="10" id="namedview13" inkscape:window-width="1059" inkscape:zoom="3.337544" bordercolor="#666666" pagecolor="#ffffff" gridtolerance="10" guidetolerance="10" inkscape:pageopacity="0" inkscape:pageshadow="2" inkscape:window-height="696" inkscape:cy="42.994658" showgrid="false" inkscape:cx="85.053624" inkscape:window-x="137" inkscape:window-y="21" inkscape:window-maximized="0" inkscape:current-layer="svg2" inkscape:showpageshadow="false">
	</sodipodi:namedview>
<g id="Layer_4" display="none">
</g>
<g id="Layer_3" transform="matrix(0.82969243,0.47902315,-0.47902315,0.82969243,21.972462,-16.13731)">
	<g id="g6">
		
			<path id="path8" inkscape:connector-curvature="0" sodipodi:nodetypes="ccsccscscscscscscscscscsccccccccccccccccscccccscscscsccc" d="
			M-21.495,549.097c-4.039-0.651-17.266-2.606-25.476-4.04c-1.87-0.327-3.761-0.467-5.574-0.468c-6.147,0-11.414,1.616-12.018,3.073
			c-0.781,1.889,4.04,2.802,4.04,2.802c0.481,2.462,2.944,2.684,3.806,2.684c0.188,0,0.299-0.011,0.299-0.011
			c0.453,2.42,3.171,2.694,4.376,2.695c0.352-0.001,0.575-0.024,0.575-0.024c1.009,2.69,3.396,3.042,4.583,3.042
			c0.424,0,0.694-0.045,0.694-0.045c1.271,2.089,3.302,2.405,4.416,2.404c0.485,0,0.796-0.059,0.796-0.059
			c0.329,1.685,2.161,1.996,3.469,1.997c0.766-0.001,1.353-0.108,1.353-0.108c0.406,1.747,2.076,2.076,3.278,2.076
			c0.728,0,1.283-0.122,1.283-0.122c0.578,1.06,1.645,1.329,2.58,1.328c0.962,0,1.785-0.284,1.785-0.284
			c0.299,1.007,1.365,1.222,2.22,1.222c0.639-0.001,1.162-0.12,1.162-0.12c0.354,0.707,1.348,0.847,2.083,0.847
			c0.483,0,0.854-0.061,0.854-0.061c0.042,0.211,0.573,0.421,1.416,0.422c0.465,0,1.021-0.065,1.646-0.225
			c1.76-0.456,2.601-2.373,2.601-2.373s0.017-0.041,0.044-0.102c-0.027,0.062-0.054,0.125-0.078,0.19
			c-2.62,6.633,0.234,20.804,0.104,21.962c-0.13,1.172-2.15,13.615-1.759,14.203c0.067,0.098,0.129,0.141,0.188,0.141
			c0.52,0.932,0.701,2.049,1.597,2.423c1.637,0.323,1.371-0.295,3.025,2.066c3.234-0.87,3.087-1.198,5.094,0.712
			c0.457,0.001,0.979-0.26,0.979-2.021c0.268-1.84,1.153-1.016,2.2-0.976c0.005,0.001,0.01,0,0.014,0
			c0.184-5.582,1.021-1.464,1.922-3.556c0.035-0.001,0.067-0.01,0.1-0.027c1.416-0.833-5.082-18.895-5.082-18.895
			c0.64-1.279,2.472-4.695,2.972-4.695c0.009,0.001,0.017,0.001,0.025,0.003c0.456,0.13-0.26,1.042-0.26,1.042
			c2.671-0.521,3.062-3.845,3.062-3.845c9.84-8.86,2.262-21.594,5.604-24.302c3.779-3.063,3.062-6.647,6.581-9.057
			c1.888-1.292,6.097-1.592,9.597-1.592c3.025,0,5.52,0.225,5.52,0.225c-2.447-1.036-5.177-1.361-7.673-1.361
			c-3.879,0.001-7.195,0.784-8.028,0.904c-0.179,0.024-0.377,0.036-0.582,0.037c-1.374,0-3.198-0.493-3.198-0.493
			c-1.717-0.582-3.201-0.832-4.488-0.832c-7.074,0-8.222,7.533-9.324,8.911c-1.303,1.628-3.259,4.17-3.91,5.799
			C-11.004,552.615-19.338,549.445-21.495,549.097z"/>
		<path id="path10" inkscape:connector-curvature="0" sodipodi:nodetypes="ccccccccccc" d="M-38.892,543.982
			c0.195,0.977,3.127,2.424,4.366,2.053c0.229,0.292,0.453,0.533,0.676,0.756c2.369,0.369,3.463,1.6,5.498,1.913
			c2.472,0.378,5.182,0.93,6.389,1.125c1.943,0.312,8.899,3.792,10.525,4.405c0.363-0.78,2.022-3.647,2.906-4.872
			c-10.288-5.469-12.769-4.799-16.483-5.998c-8.404-3.844-19.611-6.358-21.892-6.32c0,0-1.417,0.489-0.244,1.662
			C-46.27,539.584-42.083,543.722-38.892,543.982z"/>
	</g>
</g>
<g id="Layer_5">
</g>
</svg>
