<?xml version="1.0" encoding="utf-8"?>
<!-- Generator: Adobe Illustrator 15.1.0, SVG Export Plug-In . SVG Version: 6.00 Build 0)  -->
<!DOCTYPE svg PUBLIC "-//W3C//DTD SVG 1.1//EN" "http://www.w3.org/Graphics/SVG/1.1/DTD/svg11.dtd">
<svg version="1.1"
	 id="svg2" xmlns:inkscape="http://www.inkscape.org/namespaces/inkscape" sodipodi:docname="brachiosaurus.svg" inkscape:version="0.48.2 r9819" xmlns:sodipodi="http://sodipodi.sourceforge.net/DTD/sodipodi-0.dtd" xmlns:svg="http://www.w3.org/2000/svg" xmlns:sketch="http://www.bohemiancoding.com/sketch/ns" xmlns:rdf="http://www.w3.org/1999/02/22-rdf-syntax-ns#" xmlns:cc="http://creativecommons.org/ns#" xmlns:dc="http://purl.org/dc/elements/1.1/"
	 xmlns="http://www.w3.org/2000/svg" xmlns:xlink="http://www.w3.org/1999/xlink" x="0px" y="0px" width="100px" height="100px"
	 viewBox="-305.5 396.5 100 100" enable-background="new -305.5 396.5 100 100" xml:space="preserve">
<sodipodi:namedview  borderopacity="1" objecttolerance="10" id="namedview85" inkscape:window-width="1216" inkscape:zoom="5.1868132" bordercolor="#666666" pagecolor="#ffffff" gridtolerance="10" guidetolerance="10" inkscape:pageopacity="0" inkscape:pageshadow="2" inkscape:window-height="802" inkscape:cy="45.5" showgrid="false" inkscape:cx="41.722458" inkscape:window-x="61" inkscape:window-y="0" inkscape:window-maximized="0" inkscape:current-layer="svg2">
	</sodipodi:namedview>
<title  id="title4">brachiosaurus</title>
<desc  id="desc6">Created with Sketch.</desc>
<g id="Page-1" transform="translate(4.6271186,5.529661)" sketch:type="MSPage">
	<g id="brachiosaurus" transform="translate(1,1)" sketch:type="MSLayerGroup">
		<path id="Fill-1" sketch:type="MSShapeGroup" inkscape:connector-curvature="0" d="M-300.675,454.501
			c-0.052-0.582,0.175-0.882,0.315-1.271C-300.13,453.369-300.238,454.506-300.675,454.501"/>
		<path id="Fill-2" sketch:type="MSShapeGroup" inkscape:connector-curvature="0" d="M-300.044,458.948
			c0.229,0.669,0.38,1.417,0.472,2.224C-300.175,460.595-300.321,459.822-300.044,458.948"/>
		<path id="Fill-3" sketch:type="MSShapeGroup" inkscape:connector-curvature="0" d="M-298.626,449.894
			c0.849,0.716-0.7,1.43-0.473,2.542c-0.126,0.084-0.256,0.165-0.474,0.158C-299.832,451.711-298.859,450.8-298.626,449.894"/>
		<path id="Fill-4" sketch:type="MSShapeGroup" inkscape:connector-curvature="0" d="M-299.098,460.854
			c0.151-0.483-0.023-1.294,0.631-1.271c0.238,0.446-0.053,0.65,0.157,1.271H-299.098"/>
		<path id="Fill-5" sketch:type="MSShapeGroup" inkscape:connector-curvature="0" d="M-298.626,457.359
			c0.529,0.146,0.079,0.296,0.158,0.795C-298.835,457.916-298.709,457.765-298.626,457.359"/>
		<path id="Fill-6" sketch:type="MSShapeGroup" inkscape:connector-curvature="0" d="M-297.364,448.466
			c-0.025-0.186,0.034-0.284,0.158-0.318c0.764-1.153,2.456-2.004,3.784-2.859c1.08-0.695,1.972-1.604,3.153-2.064
			C-292.421,445.187-295.226,446.49-297.364,448.466"/>
		<path id="Fill-7" sketch:type="MSShapeGroup" inkscape:connector-curvature="0" d="M-294.841,452.913
			c0.658-0.82,1.19-1.766,2.365-2.065C-292.232,451.97-293.512,452.855-294.841,452.913"/>
		<path id="Fill-8" sketch:type="MSShapeGroup" inkscape:connector-curvature="0" d="M-294.841,444.337
			c0.013-0.411,0.675-0.167,0.473-0.795c0.588,0.353,1.279-0.347,1.419-0.953c0.496,0.079,0.616-0.345,0.945,0
			C-292.818,443.47-293.71,444.615-294.841,444.337"/>
		<path id="Fill-9" sketch:type="MSShapeGroup" inkscape:connector-curvature="0" d="M-293.58,460.695
			c0.413,0.254,0.349,1.146,0.315,1.588C-293.703,462.089-293.558,461.307-293.58,460.695"/>
		<path id="Fill-10" sketch:type="MSShapeGroup" inkscape:connector-curvature="0" d="M-292.949,460.218
			c0.268,0.365,0.106,1.163,0.473,1.43c-0.154,0.004-0.123,0.193-0.158,0.316C-293.289,461.868-293.154,460.73-292.949,460.218"/>
		<path id="Fill-11" sketch:type="MSShapeGroup" inkscape:connector-curvature="0" d="M-288.85,452.277
			c-0.783,0.113-1.787,1.375-2.996,1.588c1.03-1.344,2.811-1.933,3.626-3.493c0.341,0.13,1.146-0.088,1.734,0.158
			c-0.591,1.416-1.934,2.075-3.153,2.858c-0.269,0.059-0.297-0.123-0.315-0.316C-289.564,452.83-289.016,452.746-288.85,452.277
			L-288.85,452.277z M-287.589,451.007c-0.116,0.412-0.75,0.303-0.789,0.793C-287.965,451.782-287.175,451.333-287.589,451.007
			L-287.589,451.007z"/>
		<path id="Fill-12" sketch:type="MSShapeGroup" inkscape:connector-curvature="0" d="M-291.058,461.806
			c0.293-0.446,0.347-1.134,0.946-1.271c-0.181,0.658,0.331,0.619,0.315,1.112C-290.416,461.172-290.47,462.314-291.058,461.806"/>
		<path id="Fill-13" sketch:type="MSShapeGroup" inkscape:connector-curvature="0" d="M-287.432,460.218
			c0.491,0.354,0.313,1.379,0.631,1.905C-287.701,461.982-287.476,460.949-287.432,460.218"/>
		<path id="Fill-14" sketch:type="MSShapeGroup" inkscape:connector-curvature="0" d="M-286.013,481.342
			c0.167-1.038,1.419-1.44,2.208-2.065c0.25-0.198,0.365-0.609,0.63-0.795c0.241-0.166,0.631-0.275,0.947-0.475
			c1.639-1.046,3.804-2.359,5.833-3.177c-0.605,0.796-1.634,1.102-2.523,1.587C-281.392,477.772-284.066,479.707-286.013,481.342"/>
		<path id="Fill-15" sketch:type="MSShapeGroup" inkscape:connector-curvature="0" d="M-286.013,451.482
			c1.213-1.291,2.332-1.832,4.258-2.223c0.272,1.01-1.294,2.732-2.05,2.223c-0.734,0.479-0.965,1.463-2.05,1.59
			c0.019-1.093,1.339-0.875,1.578-1.748C-284.886,450.781-285.448,451.75-286.013,451.482L-286.013,451.482z M-283.805,450.689
			c-0.002,0.21-0.277,0.145-0.315,0.318C-283.797,451.188-283.369,450.757-283.805,450.689L-283.805,450.689z M-282.702,450.53
			c-0.324-0.14-0.708,0.412-0.314,0.478C-282.979,450.78-282.757,450.738-282.702,450.53L-282.702,450.53z M-282.386,449.578
			c0.216,0.361-0.407,0.597,0,0.635C-282.34,450.115-281.994,449.601-282.386,449.578L-282.386,449.578z"/>
		<path id="Fill-16" sketch:type="MSShapeGroup" inkscape:connector-curvature="0" d="M-285.855,461.806
			c-0.114-0.485,0.161-0.578,0.158-0.952C-285.456,460.856-285.351,462.031-285.855,461.806"/>
		<path id="Fill-17" sketch:type="MSShapeGroup" inkscape:connector-curvature="0" d="M-285.697,469.589v-0.318
			c0.254-0.045,0.271,0.15,0.473,0.159v0.317C-285.479,469.793-285.496,469.597-285.697,469.589"/>
		<path id="Fill-18" sketch:type="MSShapeGroup" inkscape:connector-curvature="0" d="M-270.561,474.353
			c-2.24,1.293-4.945,2.113-6.78,3.812c0.104,0.475,0.337-0.152,0.63,0c-1.433,1.574-3.959,2.893-5.518,3.812
			c0.236-0.969,1.354-1.283,2.049-1.748c0.739-0.493,1.401-1.096,2.208-1.43c0.295-0.303-0.093-0.287,0-0.793
			C-275.653,476.634-273.537,475.062-270.561,474.353"/>
		<path id="Fill-19" sketch:type="MSShapeGroup" inkscape:connector-curvature="0" d="M-280.81,483.089v-0.477
			c1.738-2.465,3.977-3.497,6.622-4.923c-1.509,1.497-3.603,2.406-5.203,3.812c1.265,0.001,2.316-1.586,3.784-1.906
			c-0.697,0.757-1.636,1.336-2.522,1.906C-279.012,482.066-279.93,482.553-280.81,483.089"/>
		<path id="Fill-20" sketch:type="MSShapeGroup" inkscape:connector-curvature="0" d="M-280.494,441.16
			c0.481-1.262,2.239-1.238,3.153-2.064c0.271-0.469,0.47-1.01,1.261-0.953c0.073,0.497-0.137,0.709-0.631,0.635v0.794
			c0.46-0.118,0.306-0.856,0.947-0.794c-0.372,0.844-0.984,1.444-1.261,2.383c-0.267-0.225-0.911,0.257-0.789-0.635
			c0.406-0.279,0.758,0.164,0.945-0.478c0.135-0.507-0.248-0.491-0.315-0.794C-277.963,440.215-279.306,440.61-280.494,441.16"/>
		<path id="Fill-21" sketch:type="MSShapeGroup" inkscape:connector-curvature="0" d="M-274.03,459.106
			c0.364-0.048,0.176,0.459,0.473,0.478C-273.747,460.061-274.246,459.558-274.03,459.106"/>
		<path id="Fill-22" sketch:type="MSShapeGroup" inkscape:connector-curvature="0" d="M-273.242,459.265
			c-0.031-0.455-0.02-0.866,0.473-0.795c0.011,1.225,0.679,0.461,1.419,0.478c0.166,0.697-0.533,0.521-0.473,1.111
			C-272.491,459.838-272.635,459.149-273.242,459.265"/>
		<path id="Fill-23" sketch:type="MSShapeGroup" inkscape:connector-curvature="0" d="M-272.926,457.677
			c0.409-0.33,0.586,0.354,1.104,0v0.635C-272.404,458.317-272.909,458.242-272.926,457.677"/>
		<path id="Fill-24" sketch:type="MSShapeGroup" inkscape:connector-curvature="0" d="M-269.773,459.106
			c0.067-0.778,0.73-0.958,1.261-1.271c0.162,0.367,0.542,0.512,0.473,1.112C-268.89,458.375-268.979,458.639-269.773,459.106"/>
		<path id="Fill-25" sketch:type="MSShapeGroup" inkscape:connector-curvature="0" d="M-266.935,442.43
			c-0.201-0.235-1.197,0.708-1.576,0.317c0.875-0.812,2.283-1.088,3.311-1.746c-0.015,0.225-0.026,0.449,0.157,0.475
			c0.685-0.474,1.21-1.109,2.207-1.27c-0.639,0.785-1.623,1.223-2.522,1.746c1.956,0.584,3.441-1.496,4.73-1.587
			c-1.482,1.418-3.789,2.007-5.677,3.017c2.257,0.156,4.133-1.447,6.148-2.064c-0.335,0.578-1.125,0.821-1.733,1.112
			c-1.384,0.661-2.854,1.279-4.572,1.588c-0.998,0.179-1.959,0.28-2.68,0.954c-0.572-0.485,0.782-0.366,0.473-1.112
			C-267.449,443.898-267.301,442.837-266.935,442.43"/>
		<path id="Fill-26" sketch:type="MSShapeGroup" inkscape:connector-curvature="0" d="M-268.039,476.259
			c0.717,0.23,0.934,0.965,1.734,1.112C-266.933,477.682-267.954,477.025-268.039,476.259"/>
		<path id="Fill-27" sketch:type="MSShapeGroup" inkscape:connector-curvature="0" d="M-266.777,456.883
			c-0.292,0.499-0.603,0.98-1.103,1.271C-268.127,457.665-267.605,456.797-266.777,456.883"/>
		<path id="Fill-28" sketch:type="MSShapeGroup" inkscape:connector-curvature="0" d="M-266.147,440.366
			c0.342-0.662,1.034-0.97,1.892-1.112c0.185,0.361-0.083,0.476,0.473,0.636c-0.318,0.581-0.524,0.554-1.104,0.636
			c-0.083-0.129-0.164-0.259-0.157-0.478C-265.394,440.172-265.658,440.381-266.147,440.366"/>
		<path id="Fill-29" sketch:type="MSShapeGroup" inkscape:connector-curvature="0" d="M-264.413,455.929
			c0.036,0.619-0.065,1.1-0.788,0.954C-265.429,456.388-265.226,455.804-264.413,455.929"/>
		<path id="Fill-30" sketch:type="MSShapeGroup" inkscape:connector-curvature="0" d="M-256.371,417.972
			c0.51,0.592-0.461,1.258-0.789,1.746c-1.107,1.651-2.625,3.621-4.415,4.605c1.023-1.67,3.039-2.34,3.784-4.287
			c-2.412,2.175-4.635,4.541-7.252,6.512c-0.118-0.49,0.433-0.307,0.316-0.795C-261.546,423.558-259.055,420.669-256.371,417.972"/>
		<path id="Fill-31" sketch:type="MSShapeGroup" inkscape:connector-curvature="0" d="M-262.836,454.024
			c-0.084-0.944,0.981-1.196,1.577-1.747c1.349-1.245,2.452-3.104,4.099-3.971C-258.879,450.386-260.902,452.16-262.836,454.024"/>
		<path id="Fill-32" sketch:type="MSShapeGroup" inkscape:connector-curvature="0" d="M-259.997,423.848
			c1.999-1.851,3.169-4.538,5.202-6.354c-0.637,1.271-1.537,2.401-2.365,3.493C-257.955,422.039-258.77,423.251-259.997,423.848"/>
		<path id="Fill-33" sketch:type="MSShapeGroup" inkscape:connector-curvature="0" d="M-259.526,452.594
			c0.451-0.34,0.768-0.814,1.262-1.112c-0.126,0.551,0.235,0.611,0.158,1.112C-258.611,453.041-259.121,453.136-259.526,452.594"/>
		<path id="Fill-34" sketch:type="MSShapeGroup" inkscape:connector-curvature="0" d="M-259.526,440.525
			c0.758-0.442,2.178-1.035,2.996-0.478c0.07,0.749-0.51,0.126-0.787,0.159C-258.033,440.293-258.904,440.802-259.526,440.525"/>
		<path id="Fill-35" sketch:type="MSShapeGroup" inkscape:connector-curvature="0" d="M-256.529,444.812
			c0.13,0.703-1.193,1.201-1.734,1.747C-258.616,445.631-257.106,445.322-256.529,444.812"/>
		<path id="Fill-36" sketch:type="MSShapeGroup" inkscape:connector-curvature="0" d="M-257.317,447.988v-0.476
			c0.776,0.095,0.956-0.413,1.732-0.317c-0.132,0.766-0.518,1.278-1.103,1.588c-0.136-0.506,0.248-0.491,0.315-0.795
			C-256.517,447.556-256.864,448.211-257.317,447.988"/>
		<path id="Fill-37" sketch:type="MSShapeGroup" inkscape:connector-curvature="0" d="M-256.529,441.795
			c0.084-0.128,0.165-0.258,0.158-0.477c0.325,0.096,0.597,0.246,0.473,0.794C-256.132,442.029-256.296,441.877-256.529,441.795"/>
		<path id="Fill-38" sketch:type="MSShapeGroup" inkscape:connector-curvature="0" d="M-249.119,414.636
			c1.445,0.419,0.697,2.181,0.158,3.336c-0.48,1.026-1.717,1.84-2.208,3.016c-0.244,0.587-0.202,1.164-0.473,1.748
			c-0.354-0.502,0.082-1.797,0.473-2.541c0.683-1.301,2.298-2.12,2.522-4.129C-248.519,415.302-249.338,415.492-249.119,414.636"/>
		<path id="Fill-39" sketch:type="MSShapeGroup" inkscape:connector-curvature="0" d="M-251.484,435.283
			c0.827-0.111,0.616-0.51,1.419-0.793c-0.002,0.42,0.059,0.906-0.158,1.11c-0.49-0.239-0.968-0.19-0.946,0.477
			C-251.514,436.054-251.506,435.677-251.484,435.283"/>
		<path id="Fill-40" sketch:type="MSShapeGroup" inkscape:connector-curvature="0" d="M-251.012,412.572
			c0.894,1.006,0.678,3.129,0.947,4.765c-0.291,0.184-0.109,0.843-0.788,0.636C-250.5,415.774-250.938,414.193-251.012,412.572"/>
		<path id="Fill-41" sketch:type="MSShapeGroup" inkscape:connector-curvature="0" d="M-249.75,434.964
			c0.41,0.164,0.385,1.068-0.157,1.112C-250.305,435.679-249.727,435.453-249.75,434.964"/>
		<path id="Fill-42" sketch:type="MSShapeGroup" inkscape:connector-curvature="0" d="M-248.488,444.177
			c-0.371,0.004-0.464-0.273-0.945-0.159c0.662-1.079,1.486-1.995,2.522-2.7c0.133,0.928-0.79,0.793-0.946,1.43
			c0.203,0.305,0.326-0.375,0.788,0C-247.178,443.591-248.469,443.244-248.488,444.177"/>
		<path id="Fill-43" sketch:type="MSShapeGroup" inkscape:connector-curvature="0" d="M-248.647,412.572
			c0.195-0.824-0.302-4.093,0-5.084c0.172-0.557,1.051-0.776,1.262-1.27c0.017-0.038-0.313-0.668-0.315-0.636
			c0.048-0.751,1.575-2.755,2.208-3.177c-0.328,0.993-1.098,1.541-1.419,2.541c0.437,0.158,0.147,0.524,0.314,0.795
			c0.555,0.894,1.897,0.912,2.681,0.159c0.23,0.878-2.23,1.517-2.681,0.476c-0.626,0.005-0.647,0.619-0.788,1.111
			c-0.512-0.469-0.691,0.361-0.945,0.637C-248.106,409.418-248.219,411.499-248.647,412.572"/>
		<path id="Fill-44" sketch:type="MSShapeGroup" inkscape:connector-curvature="0" d="M-247.227,412.73
			c0.385,0.475-0.388,1.104-0.631,1.588c-0.137,0.271,0.254,0.772-0.314,0.635C-248.417,414.234-247.66,413.284-247.227,412.73"/>
		<path id="Fill-45" sketch:type="MSShapeGroup" inkscape:connector-curvature="0" d="M-247.385,445.607
			c0.771,0.213,1.143,1.551,0.945,2.224C-247.164,447.504-247.162,446.441-247.385,445.607"/>
		<path id="Fill-46" sketch:type="MSShapeGroup" inkscape:connector-curvature="0" d="M-244.547,431.154v-0.477
			c1.463-0.592,2.061-2.054,3.784-2.383C-242.016,429.255-243.19,430.297-244.547,431.154"/>
		<path id="Fill-47" sketch:type="MSShapeGroup" inkscape:connector-curvature="0" d="M-241.867,407.331
			c0.276,0.41,1.354,0.013,1.104,0.952c-0.663-0.146-0.663-0.041-1.262-0.316c-0.384,0.406-0.718,0.863-0.945,1.429
			c0.179,0.371,0.526-0.407,0.631-0.636c0.67,0.52-0.487,1.125-0.789,1.747c-0.329,0.677-0.199,1.397-0.63,1.905
			c0.104,0.334,0.416,0.707,0.158,0.954c-1.222-0.488,0.068-1.55-0.316-2.542C-243.192,409.702-243.024,408.017-241.867,407.331"/>
		<path id="Fill-48" sketch:type="MSShapeGroup" inkscape:connector-curvature="0" d="M-243.128,446.401
			c-0.185-0.026-0.133-0.29-0.157-0.478c1.751-1.359,3.684-2.536,5.518-3.812c-0.033,0.875-1.463,1.275-2.365,1.906
			C-241.207,444.771-242.26,445.641-243.128,446.401"/>
		<path id="Fill-49" sketch:type="MSShapeGroup" inkscape:connector-curvature="0" d="M-241.236,447.037
			c2.154-1.645,4.079-3.516,6.938-4.448c-1.716,1.156-3.687,2.189-5.36,3.494C-240.115,446.438-240.527,447.314-241.236,447.037"/>
		<path id="Fill-50" sketch:type="MSShapeGroup" inkscape:connector-curvature="0" d="M-237.768,446.242
			c-0.184-0.025-0.133-0.289-0.157-0.477c1.4-1.024,2.786-2.064,4.415-2.859C-234.637,444.313-236.605,444.872-237.768,446.242"/>
		<path id="Fill-51" sketch:type="MSShapeGroup" inkscape:connector-curvature="0" d="M-235.244,445.447
			c0.092-1.283,1.225-1.52,2.207-1.905c0.356,0.54-0.484,0.484-0.473,0.477C-234.231,444.494-234.502,445.001-235.244,445.447"/>
		<path id="Fill-52" sketch:type="MSShapeGroup" inkscape:connector-curvature="0" d="M-233.984,445.447
			c0.22-0.891,1.044-1.172,1.892-1.429C-232.484,444.734-233.207,445.117-233.984,445.447"/>
		<path id="Fill-53" sketch:type="MSShapeGroup" inkscape:connector-curvature="0" d="M-231.776,433.377
			c0.16-0.738,1.194-0.596,1.419-1.271C-230.061,432.675-231.255,433.103-231.776,433.377"/>
		<path id="Fill-54" sketch:type="MSShapeGroup" inkscape:connector-curvature="0" d="M-226.731,416.066
			c0.477,0.219,0.563-0.076,1.262,0c0.295,0.551-0.181,0.603-0.315,1.111C-226.578,417.289-226.824,416.847-226.731,416.066"/>
		<path id="Fill-55" sketch:type="MSShapeGroup" inkscape:connector-curvature="0" d="M-224.524,416.701
			c-0.045-0.256,0.148-0.273,0.158-0.477c1.08,0.182,2.361,0.162,2.996,0.794C-221.812,417.469-223.521,416.715-224.524,416.701"/>
		<path id="Fill-56" sketch:type="MSShapeGroup" inkscape:connector-curvature="0" d="M-222.001,417.495
			c0.72,0.347,0.343,0.812,0.315,1.747C-222.18,418.939-222.544,418.139-222.001,417.495"/>
		<path id="Fill-57" sketch:type="MSShapeGroup" inkscape:connector-curvature="0" d="M-221.212,418.607
			c1.105,0.281,1.947,1.609,1.892,2.541C-220.026,420.375-220.711,419.584-221.212,418.607"/>
		<path id="Fill-58" sketch:type="MSShapeGroup" inkscape:connector-curvature="0" d="M-297.206,447.512
			c-0.467-0.793,0.648-1.354,0.945-1.905C-296.284,445.906-296.966,446.904-297.206,447.512"/>
		<path id="Fill-59" sketch:type="MSShapeGroup" inkscape:connector-curvature="0" d="M-294.369,449.259
			c-0.468-0.43,0.365-0.895,0.631-1.111C-293.579,448.267-294.235,448.91-294.369,449.259"/>
		<path id="Fill-60" sketch:type="MSShapeGroup" inkscape:connector-curvature="0" d="M-270.877,434.012
			c2.093-1.175,3.269-4.648,5.677-6.034c-2.161,3.117-4.628,5.926-6.938,8.893c-0.586-0.234,0.333-0.906,0.631-1.271
			c0.408-0.497,0.865-0.903,1.104-1.271c-1.399,0.867-2.072,2.467-3.468,3.336c0.317-1.162,1.341-1.613,2.049-2.383
			c-1.01,0.415-2.142,2.077-3.469,2.699c1.092-1.336,2.464-2.388,3.784-3.492c0.716-0.922,1.672-2.445,2.522-2.701
			C-269.425,432.722-270.263,433.255-270.877,434.012"/>
		<path id="Fill-61" sketch:type="MSShapeGroup" inkscape:connector-curvature="0" d="M-245.809,437.825
			c-0.406,0.437-0.992,0.608-1.576,0.952c-1.292,0.764-3.216,1.852-4.888,2.064c0.394-0.437,1.036-0.607,1.577-0.794
			C-249.035,439.475-247.379,438.691-245.809,437.825"/>
		<path id="Fill-62" sketch:type="MSShapeGroup" inkscape:connector-curvature="0" d="M-216.483,421.464
			c-0.571,2.734-0.889,5.342-2.049,7.148c0.202,0.443,0.326-0.501,0.787-0.318c-0.061,0.723-0.858,0.848-1.262,1.43
			c-0.524,0.76-0.538,1.926-1.575,2.224c-0.921-0.026-0.569-1.333-1.104-1.747c-0.541,0.619-0.376,1.95-1.418,2.064
			c-0.316,1.879,0.029,3.4-0.475,4.766c-0.01,0.029-0.271,0.05-0.314,0.158c-0.354,0.891-1.426,1.464-1.892,2.382
			c-0.267,0.524-0.246,1.569-0.474,2.382c-0.158,0.57-0.742,1.023-0.314,1.907c-1.871,2.821-3.09,5.837-2.681,9.528
			c0.091,0.83,0.448,2.065-0.158,3.336c0.356,0.858,0.858,1.571,0.631,3.018c-0.507,0.495-1.061,0.944-1.733,1.271
			c0.719,0.386,1.68,0.53,1.576,1.746c0.595,0.301,1.209,0.582,1.576,1.111c-0.002,0.793-0.564,1.02-0.473,1.906
			c-1.104,0.848-1.637,2.27-2.522,3.335c-1.503,0.557-3.429,1.536-5.519,1.906c-2.492,0.442-4.145,0.761-5.992,1.906
			c-0.52,0.321-0.835,0.844-1.418,1.112c-0.306,0.139-0.668-0.08-0.945,0c-0.754,0.213-1.02,0.807-1.578,1.111
			c-1.385,0.003-3.404,0.734-5.044,1.429c-6.349,0.45-10.333,1.003-14.979,3.019c-0.366,0.051-0.605-0.025-0.788-0.159
			c-1.436,0.583-3.02,0.839-4.416,1.588c-0.546,0.294-1.348,0.634-1.892,1.271c-0.318-0.592-1.17,0.332-1.418,0.794
			c-1.695,0.358-2.465,1.646-3.627,2.542c-1.085-0.332-1.326-0.181-2.207,0c-1.271-0.498-2.325-0.838-3.784-0.953
			c-1.213-0.098-2.06,0.015-2.995-0.635c-0.143-0.1-0.217-0.438-0.474-0.636c-0.219-0.17-0.549-0.222-0.63-0.318
			c-0.332-0.39-0.304-0.97-0.631-1.429c-0.874-1.23-2.192-1.867-3.152-3.018c-0.842-1.008-0.949-2.473-1.734-3.653
			c-0.76-1.141-2.803-1.575-2.523-3.335c0.019-0.115,0.315-0.151,0.315-0.158c0.017-0.52-0.243-0.961-0.158-1.271
			c0.03-0.108,0.272-0.133,0.315-0.318c0.092-0.395,0.234-0.748,0.474-1.111c0.617-0.092,0.915,0.137,1.261,0.317
			c0.368-0.521,1.347-1.123,2.207-0.636c0.355-0.781,1.67-1.168,1.419-2.064c-0.203-0.396-0.885,0.047-0.946,0.318
			c-0.693-0.328-1.584-0.714-1.892-1.43c-0.527,0.369-1.016,0.777-1.262,1.43c-0.922-0.863-2.581-0.342-3.311-1.588
			c-0.442,0.084-0.82,0.232-1.262,0.317c-1.353-0.479-2.704-1.581-3.783-1.747c-0.418-0.338-0.593-1.163-0.946-1.112v-1.11
			c-0.208-0.586-0.524-1.062-0.946-1.431c-0.076-0.823-0.317-1.48-0.789-1.905c-0.354-2.336-0.008-6.521,0.789-8.576
			c0.013-0.035,0.431-0.235,0.472-0.318c0.453-0.901,0.641-1.652,1.104-2.383c1.202-1.893,3.45-3.778,4.572-5.875
			c0.282-0.021,0.333,0.193,0.63,0.158c1.593-1.307,3.815-1.98,5.361-3.335h1.577c0.622-0.274,1.134-0.657,1.419-1.271
			c-0.854-0.066-0.932,0.648-1.734,0.635c1.459-1.832,5.091-1.422,6.621-2.383c3.492-0.431,6.265-1.513,9.145-2.064
			c0.359-0.64,1.229-1.76,1.419-2.7c0.026-0.125,0.096-1.259,0-0.952c0.157-1.18,0.625-3.18,0.947-5.082
			c0.179-1.062,0.498-2.217,0.631-3.178c0.091-0.663-0.098-1.495,0-2.223c0.164-1.228,0.153-2.4,0-4.447
			c-0.077-1.014-0.315-1.852-0.158-2.701c0.083-0.451,0.324-0.94,0.472-1.428c0.371-1.213,0.637-2.186,1.261-3.336
			c0.163-0.298,0.583-0.451,0.789-0.794c0.558-0.931,0.894-2.174,1.419-2.859c0.143-0.187,0.5-0.347,0.789-0.636
			c0.467-0.467,0.854-0.933,1.419-1.43c1.261-1.109,3.064-2.047,4.729-3.017c0.933-0.543,1.738-0.975,2.996-1.271
			c2.002-0.472,3.256-0.219,5.676-0.159c1.051,0.026,2.137-0.104,3.153,0c1.027,0.106,1.538-0.046,2.365,0.795
			c0.295-0.036,1.045-0.411,1.262,0c0.442-0.024,0.454,0.388,0.472,0.794c0.578,0.265,1.076,0.609,1.42,1.111
			c1.223-0.114,1.774,0.73,2.521,1.111c1.043,0.531,2.268,0.368,3.47,1.112c1.224,1.361,2.341,2.829,3.469,4.288
			c0.279,0.036,0.789-0.16,0.631,0.318c1.01-0.098,1.344-0.167,2.364,0.158c1.475,3.174,3.93,5.359,6.623,7.306
			C-219.913,413.343-219.082,418.654-216.483,421.464L-216.483,421.464z M-266.777,461.964v-0.635
			c-0.388-0.021-0.76-0.023-0.946,0.16c-0.12,0.809,0.375,0.998,0.789,1.27C-266.762,462.22-267.353,461.553-266.777,461.964
			L-266.777,461.964z M-304.932,454.978c0.395-1.986,1.783-3.918,2.049-5.4c0.431,0.115,0.318-0.316,0.631-0.318
			c0.673-2.128,2.105-3.491,3.311-5.082c2.271-2.16,4.676-4.186,7.411-5.877c-1.901,0.316-2.979,1.828-5.046,2.383
			c-0.357,0.646-0.984,1.02-1.418,1.588c-0.333-0.35-0.467,0.203-0.947,0.159c-0.251,0.593-0.844,0.844-0.946,1.588
			c-3.388,2.469-5.821,8.063-5.203,13.024C-304.886,456.409-305.085,455.744-304.932,454.978L-304.932,454.978z M-290.427,463.394
			c-0.113,0.325-0.494,0.63-0.157,0.954c0.755,0.061-0.271-0.765,0.473-0.794c0.383,0.566,0.311,1.592,0.789,2.064
			c0.403-0.493,0.654-1.142,0.788-1.906c-0.248-0.016-0.547,0.021-0.473-0.318c1.326-0.145,1.212,0.78,2.207,0.636
			c0.321-0.047,0.42-0.317,0.631-0.476c0.186,0.182,0.557,0.179,0.945,0.158c0.155-0.215,0.532-0.206,0.63-0.477
			c0.631,0.195,1.596-0.047,2.366,0.635c2.259-0.894,5.476-0.347,6.779-1.588c0.209,0.002,0.145,0.278,0.316,0.317
			c0.682-1.354,2.751-0.337,3.941-1.11c0.298,0.651,0.862,1.035,1.419,1.429c0.443-0.611,0.633-1.479,0.788-2.383
			c0.474,0.573,1.464,0.381,2.05,0.478c0.673-0.323,1.045-1.453,1.892-1.113c0.236-0.238,0.282-0.669,0.63-0.794
			c1.699-0.3,2.334-1.672,2.996-3.018c3.334-1.988,5.289-5.366,10.091-5.876c-0.295-0.754,0.332-1.759-0.473-2.064
			c-0.158,0.373-0.474,1.064-0.945,0.635c-0.031,0.499-0.295,0.764-0.789,0.795c0.364-1.328,1.143-2.236,2.05-3.019
			c-1.421,0.159-1.778,2.231-2.839,2.224c0.404-2.139,2.156-2.18,3.153-3.494c0.688,0.2,0.702,0.047,1.262-0.158
			c0.923,0.918,2.021,3.324,0.315,3.971c0.76,0.168,1.492,0.943,1.892,1.111c0.532,0.223,1.185,0.184,1.734,0.317
			c0.554,0.134,0.544,0.344,0.946,0.636c0.533,0.386,1.062,0.562,1.576,0.793c1.018,1.147,1.985,2.342,3.469,3.02
			c0.41,0.963,1.678,1.062,2.207,1.905c0.807-0.072,0.863,0.612,1.577,0.636c0.214,0.737,1.049,0.85,1.893,0.951
			c-0.024,0.395-0.03,0.771,0.314,0.795c1.098-0.362,1.896,0.947,3.47,0.635c1.151-0.957,0.3-1.949-0.158-3.176
			c0.695-1.276,0.318-4.309,0.315-6.035c-0.002-0.844,0.583-1.84,0-2.383c1.388-1.139,1.364-3.473,2.049-5.24
			c0.179-0.461,0.489-0.76,0.631-1.113c0.276-0.682,0.266-1.387,0.788-1.746c-0.121-0.599,0.193-0.76,0.158-1.271
			c0.984-0.384,1.067-1.678,2.049-2.064c0.588-2.175,0.385-4.168,0.631-6.67c0.855-0.46,1.633-1.117,3.311-1.111
			c0.07,0.405,0.223,0.729,0.474,0.952c1.211-2.596,2.368-5.142,2.522-8.418c-2.383-2.588-2.821-7.578-7.883-6.987
			c-2.64-2-5.264-4.016-6.779-7.148c-0.738-0.098-1.562-0.793-2.365-0.316c-0.369-0.703-2.044-1.136-2.207-2.541
			c-2.279-1.692-5.111-3.92-7.727-4.289c-0.826-0.861-1.896-1.477-2.995-2.064c0.464,2.733-0.348,5.441-1.577,6.988v0.795
			c-0.56,0.441-1.247,0.754-1.104,1.906c-0.27,0.447-0.619-0.061-0.631,0.475c-0.557,2.404-2.094,3.82-3.152,5.719
			c-0.559-0.086-0.387,0.562-0.946,0.477c-1.764,3.675-4.44,6.432-7.252,9.053c-1.333,1.039-3.208,1.646-4.572,2.224
			c-0.651-0.362-1.385-0.315-2.207-0.159c-0.235,0.61-0.608,1.082-1.104,1.43c-0.25,2.025-1.47,4.708-2.207,6.512
			c-0.267,0.65-0.433,1.331-0.947,1.746c0.342-2.256,2.185-4.402,2.522-6.987c0.034-0.261-0.162-0.673-0.158-0.953
			c0.019-1.2,0.695-2.344,0.789-3.652c0.05-0.692-0.112-1.345-0.157-2.065c-0.059-0.937,0.188-1.951-0.316-2.859
			c-1.073,4.08-0.955,8.354-1.577,12.071c-0.208,1.247-2.568,4.051-3.626,4.924c-2.542,2.097-5.568,3.427-8.355,4.923v-0.476
			c-2.122,0.146-4.298,0.526-5.992,0.159c-0.146-2.28,3.459-1.707,4.887-3.178c-0.98,0.205-1.255,0.022-1.734,0.159
			c0.24-0.067-0.458,0.72-0.631,0.159c0.513-0.744,1.955-0.854,2.839-0.318c1.103-0.395,2.771-1.654,4.099-0.793
			c-0.662-0.022-0.881,0.287-1.418,0c0.287,1.029-1.047,0.428-1.104,1.111c0.693,0.191,1.863-1.034,1.735-0.159
			c2.737-0.843,5.702-1.614,6.779-3.812c-0.394,0.832-1.601,0.115-2.207,0.795c-1.54-0.227-3.32,0.678-4.73,1.11
			c1.9,0.008,4.335-0.29,5.36-0.636c-1.823,1.675-5.466,0.412-8.199,1.59c-1.562-0.404-2.168,0.042-3.941,0.477
			c-0.071,0.457-0.558,0.496-0.473,1.111c-1.113,0.361-1.852,1.099-2.681,1.747c-0.38-0.065-0.342,0.289-0.788,0.158
			c-3.168,2.791-6.91,5.005-8.514,9.37c-0.478,0.281-0.789,0.813-0.946,1.112c-0.098,0.184,0.034,0.419,0,0.478
			c-0.048,0.08-0.403,0.059-0.473,0.158c-0.067,0.096-0.127,0.419-0.158,0.477c-0.503,0.941-0.569,2.396-1.418,3.336
			c0.387,0.594-0.178,1.761,0,3.017c0.173,1.219,0.966,2.056,1.262,2.859c0.636,0.269,0.769,0.062,1.261,0.476
			c-0.258,0.323-0.72,0.439-0.789,0.953c0.566,0.598,1.262,0.34,1.735,1.271c0.086-0.795-0.004-0.777,0.158-1.431
			c-0.149-0.396-0.812,0.428-0.788-0.317c0.841-0.591,1.058-0.639,1.734,0.158c-0.282,0.48,0.08,1.443,0.157,2.065
			c0.717,0.087,0.866-0.398,1.104-0.794c0.185-0.619-1.044-0.629-0.631-0.953c0.506-0.031,0.928,0.354,1.577,0.477
			c0.972,0.185,2.113,0.029,3.153,0.159c0.679,0.085,1.259,0.263,1.892,0.317c0.472,0.041,1.079-0.352,1.261,0.318
			c-0.699-0.027-1.043,0.312-1.735,0c-0.015,0.857,0.291,1.248,1.104,1.588C-291.097,464.627-291.238,463.53-290.427,463.394
			L-290.427,463.394z M-296.261,464.666v-1.43c-0.388,0.021-0.759,0.023-0.945-0.159
			C-297.255,463.972-296.803,464.365-296.261,464.666L-296.261,464.666z M-295.472,463.713v-0.318h-0.315v0.318H-295.472
			L-295.472,463.713z M-294.369,465.142c-0.062-0.752,0.647-0.725,0.474-1.588c-0.498,0.077-0.557-0.287-1.104-0.16
			C-294.922,464.111-295.003,464.987-294.369,465.142L-294.369,465.142z M-294.369,472.289c0.403-0.018,0.552-0.291,0.789-0.477
			c-0.582-0.207-0.168-1.419-0.946-1.43C-294.632,471.178-294.38,471.613-294.369,472.289L-294.369,472.289z M-257.633,460.218
			c-0.001,0.937-0.641,0.285-0.945,0.795c-0.102,0.903-0.555,1.453-0.789,2.223c-1.826,0.488-2.888,1.75-3.626,3.335
			c-0.202-0.008-0.218-0.203-0.473-0.159c-3.101,2.869-8.711,3.844-12.771,5.242c0.206,0.002,0.201,0.439,0,0.477
			c-0.599,0.232-0.031-0.711-0.631-0.477c-2.593,0.248-5.42,1.357-8.198,1.271c-2.187-0.069-4.255-0.468-5.833,0.477
			c-0.438-0.459-0.978-0.815-1.577-1.112c-0.47,0.563-1.161-0.031-1.734,0.477c1.328,1.573,2.641,3.163,3.311,5.4
			c1.944,1.588,3.479,3.589,5.203,5.4c2.071,0.326,3.48,0.07,4.572,0.477c0.29,0.107,0.587,0.434,0.945,0.476
			c0.695,0.083,1.228-0.258,2.05-0.317c3.16-2.307,7.142-4.98,12.141-5.719c0.465-0.589,1.562-0.543,2.207-0.951
			c-0.696-0.147-1.061-0.626-1.892-0.636c-0.137-0.601-1.426-0.425-1.576-1.112c1.54-0.396,2.996,2.227,4.572,1.271
			c-0.654-0.293-1.615-0.278-2.049-0.794c0.521-0.658,1.765,0.139,2.364,0c0.05,0.367-0.025,0.609-0.157,0.794
			c4.178-0.78,9.184-1.082,12.613-2.064c2.028-0.581,4.227-1.28,5.991-1.906c2.467-2.001,6.03-3.406,10.09-3.652
			c0.736-0.424,1.566-0.753,2.523-0.954c0.917-1.404,2.203-2.438,2.68-4.287c-1.583-0.341-1.718-3.001-3.783-1.906
			c-0.945-1.113-4.219,0.121-4.258-1.905c-3.238,0.347-4.537-0.468-7.094-1.112c-0.301,0.334-0.43,0.838-1.104,0.794
			c-0.226-0.702,0.533-0.415,0.473-0.953c-2.189-0.192-3.863-1.815-5.834-1.271c-1.539-1.321-3.178-0.127-4.888,0
			c0.005,1.063-0.462,1.652-1.261,1.906c-0.305-0.223-0.635-0.42-1.104-0.477C-257.69,459.536-258.559,460.663-257.633,460.218
			L-257.633,460.218z M-292.949,471.654c-0.34-0.135,0.059-1.013-0.315-1.112c-0.002,0.263-0.438,0.089-0.473,0.318
			C-293.486,471.04-293.155,471.953-292.949,471.654L-292.949,471.654z M-292.634,471.654c0.208,0.162,0.581,0.154,0.789,0.316
			c-0.471-0.65-0.493-1.214-0.789-1.746C-292.771,470.856-292.771,471.022-292.634,471.654L-292.634,471.654z M-291.53,471.177
			c-0.126-0.551,0.235-0.611,0.157-1.111h-0.631C-291.867,470.457-292.044,471.165-291.53,471.177L-291.53,471.177z
			 M-291.215,472.447c0.439,0.189,0.959,0.183,1.261-0.158c-0.266-0.579-0.912-0.775-0.789-1.747
			C-291.414,470.884-291.272,471.719-291.215,472.447L-291.215,472.447z M-286.486,468.476h-0.788
			c-0.245,0.566,0.535,0.098,0.472,0.478c-0.208,0.001-0.144,0.278-0.315,0.317c-0.714,0.138-0.369-0.793-0.946-0.795
			c-0.699,0.302-0.715,1.291-1.576,1.43c-0.702-0.223-0.092-1.154-0.631-1.27c-0.36,1.161-0.244,2.414,0.631,3.334
			c0.196-1.295,0.403-2.268,1.576-2.858c-0.131,1.247,0.105,2.962,0.789,2.858C-287.849,470.594-286.614,469.672-286.486,468.476
			L-286.486,468.476z M-289.638,469.112C-289.108,469.595-289.161,468.525-289.638,469.112L-289.638,469.112z M-287.273,467.047
			c-0.88-0.79-1.553-0.587-2.365,0c0.41,0.063,0.475,0.475,0.945,0.478C-288.92,466.513-286.822,467.433-287.273,467.047
			L-287.273,467.047z M-287.747,440.047c-0.242-0.179-0.387-0.456-0.63-0.636c-0.265,0.316-0.904,0.254-1.103,0.636
			C-289.108,440.158-288.071,440.415-287.747,440.047L-287.747,440.047z M-288.062,472.13c-0.33-0.568-0.45-1.348-0.631-2.064
			c-0.209,0.587-0.753,1.67-0.314,2.381C-288.941,472.091-288.172,472.443-288.062,472.13L-288.062,472.13z M-287.432,465.777
			c0.726-0.123,0.403-0.93,0.315-1.429c0.113,0.431-0.743-0.114-0.631,0.317C-287.512,464.906-287.493,465.363-287.432,465.777
			L-287.432,465.777z M-285.382,438.3c-0.882,0.174-2.122,0.824-2.05,1.43C-286.959,439.041-285.839,439.005-285.382,438.3
			L-285.382,438.3z M-283.963,438.142c-1.284,0.453-2.296,1.181-3.31,1.905C-286.067,439.517-284.878,438.966-283.963,438.142
			L-283.963,438.142z M-286.486,471.018c-0.192-0.577,0.315-1.255,0-1.429c-0.507,0.936-0.577,1.863-0.473,2.699
			c0.805-0.17,3.17,0.646,4.099-0.158c-0.204-0.687,0.178-2.146,0.474-2.859c-0.131-0.397-0.433-0.623-0.474-1.111
			c-0.758-0.023-0.609,0.868-1.104,1.111c-0.002-0.483-0.602-1.182-1.103-0.635c0.344-0.029,0.501,0.13,0.472,0.476
			c-0.217-0.007-0.345,0.075-0.472,0.159c-0.443-0.295-0.466-1.014-1.104-1.111c0.146,1.22-0.349,3.188,1.104,3.494
			c-0.087-0.686,0.162-2.08,0.789-2.542c0.029,1.429,1.349,2.142,0.788,3.177c-0.445-0.61-0.708-1.404-1.104-2.064
			c-0.328,0.41,0.056,1.539-0.314,1.906C-285.642,471.967-286.256,471.687-286.486,471.018L-286.486,471.018z M-284.751,467.365
			c0.889-0.684,1.313-0.675,2.523-0.317c0.283-0.558,1.282-1.076,0.945-1.747c-0.712,0.131-0.533,1.156-1.261,1.271
			c-0.873,0.086-1.03-0.55-1.577-0.794c-0.438,0.846-2.146,0.021-1.892,0.635C-285.644,466.156-285.112,467.088-284.751,467.365
			L-284.751,467.365z M-281.755,437.825c-1.89,0.337-2.94,1.378-4.1,2.064C-284.34,439.351-283.043,438.592-281.755,437.825
			L-281.755,437.825z M-285.066,464.984c0.087-0.45,1.111-0.776,0.631-1.271c-0.275,0.411-1.174,0.195-1.262,0.794
			C-285.394,464.571-285.572,465.123-285.066,464.984L-285.066,464.984z M-283.805,464.03
			C-284.284,464.565-283.222,464.511-283.805,464.03L-283.805,464.03z M-282.228,435.6c-0.573,0.007-1.246-0.089-1.419,0.318
			C-283.058,435.929-282.557,435.851-282.228,435.6L-282.228,435.6z M-282.86,464.984c0.495,0.073,0.445-0.4,0.631-0.636
			c-0.33-0.093-0.451-0.395-0.947-0.318C-283.378,464.66-282.656,464.355-282.86,464.984L-282.86,464.984z M-278.603,437.031
			c-1.018,0.176-1.714,0.525-2.364,0.951c-0.893,0.588-1.71,0.913-1.735,1.589C-281.344,438.716-279.971,437.875-278.603,437.031
			L-278.603,437.031z M-282.386,472.13c0.512,0.092,0.733-0.108,1.103-0.16c-0.292-0.833-0.261-1.54-0.788-2.381
			C-282.216,470.398-282.773,471.267-282.386,472.13L-282.386,472.13z M-280.652,471.812c0.062-1.23,1.011-2.338,0.947-3.176
			c-0.378-0.002-1.725,0.23-1.892,0.953C-281.013,470.26-281.11,471.377-280.652,471.812L-280.652,471.812z M-280.179,466.889
			c-0.964-0.016-0.763,1.616-1.418,1.429C-280.831,469.01-279.538,467.87-280.179,466.889L-280.179,466.889z M-279.391,465.142
			c0.049-0.579-0.025-1.033-0.158-1.43C-280.946,463.658-280.42,465.117-279.391,465.142L-279.391,465.142z M-278.76,471.336
			c-0.558-0.693,0.187-1.752-0.631-2.224c-0.121,1.043-0.792,1.532-0.789,2.7C-279.759,471.599-278.968,471.761-278.76,471.336
			L-278.76,471.336L-278.76,471.336z M-277.814,467.683c-0.239-0.236-0.692-0.256-1.104-0.318c0.171,0.407-0.479,0.758,0,0.953
			C-278.839,467.584-277.752,468.218-277.814,467.683L-277.814,467.683L-277.814,467.683z M-278.918,468.954
			c0.797,0.31,0.07,2.153,0.788,2.542c0.377-0.786,0.009-2.322,0.631-2.859c1.574-0.104,0.33,2.632,2.049,2.382
			c-0.299-0.815-0.183-2.201,0.158-2.858c-1.424-0.173-2.382,0.188-3.626,0.316V468.954L-278.918,468.954z M-277.656,465.619
			c-0.337,0.476-1.048-0.348-1.262,0.316C-278.48,466.196-277.048,466.438-277.656,465.619L-277.656,465.619z M-277.656,463.871
			c-0.05,0.215-0.225,0.304-0.158,0.636h0.945c-0.113-0.485,0.162-0.579,0.158-0.952c-0.749,0.125-0.863-0.098-1.261,0.316H-277.656
			L-277.656,463.871z M-276.711,471.336c-0.085-0.813-0.026-1.773-0.788-1.905c-0.011,0.92-0.091,1.155-0.157,1.747
			C-277.47,471.36-277.099,471.357-276.711,471.336L-276.711,471.336z M-275.292,467.683c-0.04-0.596-0.379-0.888-0.472-1.43
			c-0.721,0.068-0.723,0.861-1.104,1.271c-0.198-0.035-0.322-0.248-0.315,0.158C-276.494,467.757-276.242,467.447-275.292,467.683
			L-275.292,467.683z M-274.819,465.3c0.66-0.334,1.47-0.656,2.366-0.316c-0.203-0.592-0.84-0.744-1.261-1.113
			c-0.189,1.454-1.525,0.434-2.05,1.113C-275.303,464.941-275.279,465.341-274.819,465.3L-274.819,465.3z M-274.661,462.6
			c-0.142,0.28-0.581,0.263-0.631,0.636c0.123,0.035,0.184,0.133,0.159,0.318C-274.58,463.728-274.513,462.607-274.661,462.6
			L-274.661,462.6z M-274.03,470.382c-0.526-0.346-0.152-1.638-1.103-1.906c-0.09,0.838,0.135,2.006,0,2.384
			C-274.664,470.803-274.174,470.767-274.03,470.382L-274.03,470.382z M-274.503,466.889c-0.526-0.16-0.518,0.22-0.474,0.636
			C-274.56,467.572-274.459,467.304-274.503,466.889L-274.503,466.889z M-273.084,470.382c0.117-0.473-0.146-1.97,0.157-2.699
			c-0.638,0.294-1.305-0.293-1.734,0.317C-273.689,468.345-274.441,470.425-273.084,470.382L-273.084,470.382z M-272.769,430.995
			c0.066-0.298-0.1-1.638-0.158-0.476c-0.277,1.098-1.531,2.055-1.418,3.017C-274.171,433.01-272.947,431.802-272.769,430.995
			L-272.769,430.995z M-272.611,466.73c-0.732,0.155-0.215-0.949-0.947-0.795c0.053,0.637-0.512,0.649-0.473,1.271
			C-273.361,467.245-272.781,467.195-272.611,466.73L-272.611,466.73z M-272.296,463.554c0.108-0.591,0.076-0.416,0.158-1.113
			c-0.168-0.183-0.726-0.058-0.945,0.159C-272.832,462.929-272.742,463.421-272.296,463.554L-272.296,463.554z M-272.611,470.066
			c0.445,0.131,0.408-0.225,0.788-0.16c-0.202-0.914-0.189-1.943-0.63-2.223C-272.785,468.31-272.85,469.289-272.611,470.066
			L-272.611,470.066z M-271.981,465.142v-0.317c-0.388-0.247-0.464,0.539-0.158,0.476
			C-272.129,465.204-272.114,465.113-271.981,465.142L-271.981,465.142z M-270.719,469.589c-0.253-1.093-0.069-2.297,0.473-3.019
			c-0.871-0.03-1.265,0.421-1.892,0.636C-271.218,467.491-272.24,469.594-270.719,469.589L-270.719,469.589z M-271.192,411.142
			c-0.515,0.123-0.413,1.693-0.316,1.905C-271.189,412.629-271.483,411.589-271.192,411.142L-271.192,411.142z M-271.192,410.506
			C-271.747,411.148-270.685,410.881-271.192,410.506L-271.192,410.506z M-270.877,464.03c0-0.159,0.127-0.188,0.158-0.317
			c-0.248,0.015-0.546-0.021-0.472,0.317H-270.877L-270.877,464.03z M-271.192,418.13c0.086,0.231-0.185,0.821,0.157,0.794
			C-271.121,418.693-270.85,418.103-271.192,418.13L-271.192,418.13z M-269.458,465.777c-0.427-0.099-0.392-0.663-0.945-0.635
			c0.02,0.285-0.157,0.371-0.474,0.317c0.206,0.394-0.462,0.659,0,0.794C-270.505,465.701-269.811,466.404-269.458,465.777
			L-269.458,465.777z M-250.538,397.8c-0.934-0.082-1.987-0.316-2.837-0.316c-0.738-0.002-1.441,0.188-2.05,0.158
			c-6.105-0.309-10.63,4.586-13.402,9.053c-1.692,2.728-2.604,5.295-2.05,9.053c0.025,0.188-0.027,0.451,0.158,0.477
			c-0.112-2.654,0.819-4.258,0.947-6.671c0.552-0.8,0.854-2.089,1.261-2.7c1.315-1.974,3.585-4.305,5.36-5.559
			c1.016-0.717,2.2-1.499,3.154-1.905c3.267-1.393,7.741-0.122,11.825-0.478C-248.176,397.473-249.69,397.876-250.538,397.8
			L-250.538,397.8z M-268.039,404.47c0.676-0.485,1.584-1.576,1.577-2.223c-1.081,0.936-1.74,2.327-2.523,3.653
			c-0.77,1.304-1.86,2.608-1.892,4.13C-270.247,407.859-268.791,406.519-268.039,404.47
			C-268.039,404.47-268.039,404.47-268.039,404.47z M-270.089,469.43c0.412-0.433,1.479-0.205,1.734-0.794
			c-0.509-0.941,0.112-2.107,0.315-2.859c-0.748-0.065-0.828,0.542-1.577,0.477c-0.393,1.092,0.813,1.53,0.474,2.541
			c-0.776-0.119-0.652-1.144-1.104-1.588C-270.212,468.127-270.609,468.818-270.089,469.43L-270.089,469.43z M-270.246,417.177
			C-269.972,416.127-270.648,418.463-270.246,417.177L-270.246,417.177z M-267.408,424.484c1.341-1.35,2.634-2.748,4.415-3.654
			c0.536-1.261,1.533-2.055,2.366-3.018c0.577-1.271,1.487-2.206,2.522-3.018c1.068-1.835,2.042-3.766,3.311-5.399
			c0.076-1.299,0.797-2.337,1.262-3.494c0.578-1.443,1.031-3.65,1.734-4.606c0.441-0.455,1.443-0.346,1.576-1.111
			c-0.934-0.156-1.652,0.141-2.521,0.158c-1.967,0.041-3.182-0.581-5.203-0.316c-1.515,0.197-2.314,0.979-3.312,1.587
			c-0.776,0.474-1.52,0.813-2.049,1.271c-0.479,0.414-1.422,0.975-1.735,1.271c-0.132,0.125-0.04,0.492-0.157,0.635
			c-0.131,0.158-0.513,0.185-0.631,0.317c-0.779,0.882-1.92,2.278-2.365,3.177c-0.385,0.777-0.324,1.559-0.473,2.383
			c-0.275,1.52-0.502,2.721-0.473,4.287c0.037,2.074,0.097,4.072,0.314,5.719c0.153,1.156,0.097,2.105-0.314,3.336
			c-0.097,0.008-0.188,0.022-0.159,0.158C-268.686,424.571-268.407,424.128-267.408,424.484L-267.408,424.484z M-268.196,463.394
			c-0.201-0.008-0.218-0.203-0.473-0.158c0.024,0.187-0.027,0.451,0.158,0.477C-268.509,463.504-268.236,463.567-268.196,463.394
			L-268.196,463.394z M-264.569,466.571c-0.69-0.151-0.338-1.354-1.104-1.429c0.074,0.832-0.553,1.201-0.157,1.905
			c-1.288,0.959-0.744-0.788-1.735-1.112c-0.263,0.794-0.641,1.473-0.473,2.701C-266.669,468.164-265.621,467.365-264.569,466.571
			L-264.569,466.571z M-266.935,464.984c-0.406-0.324-0.892-0.396-0.945,0.316C-267.413,464.993-267.104,465.513-266.935,464.984
			L-266.935,464.984z M-266.305,466.094c-0.13-0.448,0.223-0.411,0.158-0.794c-0.379-0.064-0.342,0.291-0.788,0.159
			C-266.916,465.863-266.705,466.076-266.305,466.094L-266.305,466.094z M-249.75,401.136c-0.341,0.502-0.768,0.921-1.419,1.111
			c-0.818,2.986-2.267,5.34-2.995,8.418c-0.526,0.04-0.793,0.868-0.631,1.111c-0.768,0.55-1.345,1.293-1.576,2.383
			c-0.477,0.303-0.772,0.836-1.104,1.27c-1.096,1.436-2.35,2.537-3.153,4.13c-1.764,1.771-3.548,3.521-5.36,5.241
			c2.408-0.379,3.502-2.082,5.203-3.177c1.608-2.14,3.371-4.121,4.572-6.671c1.833-1.011,2.522-3.176,3.784-4.764
			c0.043-1.546,0.943-2.227,1.418-3.336c-0.066-0.303-0.338-0.398-0.314-0.793c1.146-0.225,2.397-1.182,2.207-2.225
			c-0.369,0.531-0.861,1.773-1.576,1.43c0.77-1.36,2.868-2.836,2.523-4.289c-0.295,0.289-0.361,0.803-0.475,1.271
			c-0.897,0.365-0.892,1.643-1.734,2.064c0.133-1.701,1.408-2.156,1.578-3.336c-0.297-0.199-0.292,1.024-0.947,0.636
			C-249.812,401.339-249.516,401.205-249.75,401.136L-249.75,401.136z M-264.097,462.6c-0.764,0.396-1.078,1.243-1.577,1.906
			C-264.757,464.266-264.507,463.353-264.097,462.6L-264.097,462.6z M-263.466,461.33c0.045,0.484,0.6,0.455,0.789,0.794
			c1.464-1.276,1.352-4.144,3.152-5.081c-0.129-0.449,0.223-0.412,0.158-0.795c0.533-0.311,1.082-0.604,1.262-1.27
			c-2.387,1.248-3.44,3.84-5.519,5.399c-0.21-0.253-0.833,0.422-1.103,0.636c-0.332,0.182-0.615-0.098-0.947,0.316
			c0.087,0.23-0.184,0.821,0.158,0.794C-265.156,461.535-264.47,461.271-263.466,461.33L-263.466,461.33z M-261.733,462.919
			c-1.08,0.446-1.885,1.171-2.522,2.065c-0.186-0.421-0.137-0.494-0.631-0.318c0.004,0.844,0.408,1.284,0.789,1.746
			C-264.11,465.103-261.881,464.045-261.733,462.919L-261.733,462.919z M-263.624,463.394c-0.2-0.4-0.899,0.305-0.473,0.477
			C-264.145,463.505-263.641,463.695-263.624,463.394L-263.624,463.394z M-260.786,463.236c0.088-1.128,1.459-0.965,1.26-2.382
			c0.509-0.229,0.7-0.778,0.947-1.271c-0.593-0.12-0.344,0.606-0.789,0.635c-0.386-0.375,0.236-0.295,0.158-0.795
			c-0.48,0.309-0.628,0.478-1.104,0.477c0.017,0.888-0.788,2.201-0.314,2.541c-0.298,0.135-0.855,0.819-0.631,0.953
			C-261.233,463.21-261.01,463.222-260.786,463.236L-260.786,463.236z M-255.899,455.771c-0.402,1.025-2.205,2.013-2.996,3.177
			c0.992-0.161,1.414-1.177,2.051-1.747c1.57-1.408,3.312-2.571,4.887-3.971c-0.704-0.283,0.148-1.045,0.631-1.112
			c-0.297,0.714-0.619,1.247-0.946,1.589c-0.618,0.646-1.36,1.32-2.05,1.906c-0.533,0.453-1.525,0.683-1.419,1.43
			c0.741-0.707,1.644-1.532,2.522-2.225c0.858-0.674,1.844-1.549,2.838-1.588c-2.315,1.372-4.137,3.244-6.306,4.765
			c0.043-0.662-0.675,0.136-0.63,0.476c1.12,0.018,1.546-0.664,2.049-1.27c0.158,0,0.188,0.128,0.314,0.158
			c0.424-0.632,1.035-1.074,1.893-1.271c0.777-0.964,1.727-1.755,2.996-2.224c-0.734,0.773-1.828,1.413-2.523,2.064
			c-0.213,0.201-0.802,0.45-0.473,0.795c1.031-0.553,2.009-1.999,3.153-1.906c-0.597,0.828-1.833,1.014-2.365,1.906
			c0.771,0.02,1.662-0.086,2.208,0.159c0.689-2.375,2.797-3.324,4.414-4.766c-0.454-0.071-0.494-0.562-1.104-0.476
			c-0.567,0.223-0.67,0.913-1.262,1.111c-0.143-0.779,0.661-0.605,0.631-1.271c-0.468-0.454-0.918,0.003-1.576-0.316
			c-0.363,0.695-1.288,1.663-1.892,1.588c0.06-0.944,1.24-0.762,1.419-1.588c-1.04,0.022-1.936,0.289-2.996,0.477
			c0.008-0.002-0.387-0.207-0.631-0.16c-0.543,0.106-1.703,0.755-2.05,1.112c-0.521,0.538-0.632,1.529-1.104,2.224
			c-0.636,0.938-1.638,1.553-2.364,2.383c-0.258,0.293-0.268,0.842-0.474,1.111c-0.29,0.38-1.154,0.43-0.788,1.111
			c0.896-1.002,1.861-1.935,2.996-2.699c0.252-1.441,1.956-2.263,2.68-2.7c-0.072,0.606-1.527,0.822-0.789,1.271
			C-255.262,455.628-255.74,455.677-255.899,455.771L-255.899,455.771z M-255.899,458.312
			C-256.453,458.955-255.392,458.687-255.899,458.312L-255.899,458.312z M-251.326,447.353c-0.133,0.185-0.209,0.426-0.157,0.795
			C-250.904,448.3-250.858,447.368-251.326,447.353L-251.326,447.353z M-250.065,446.242c-0.305-0.276-0.799-0.359-1.104-0.635
			c0.007,0.219-0.073,0.348-0.157,0.476C-250.749,445.564-250.594,446.809-250.065,446.242L-250.065,446.242z M-249.75,447.831
			c0.027,0.237-0.057,0.585,0.158,0.636c0.28-0.318,0.818-1.145,0-1.271c-0.318,0.475-0.799,0.783-1.104,1.271
			C-250.016,448.621-250.236,447.869-249.75,447.831L-249.75,447.831z M-248.33,457.043c0.47-0.727,0.866-2.264,0.945-3.178
			c-0.912,0.882-1.908,1.679-2.365,3.019C-249.115,456.774-248.85,457.035-248.33,457.043L-248.33,457.043L-248.33,457.043z
			 M-249.119,400.341c0.023,0.211-0.529,0.592-0.158,0.635C-249.3,400.765-248.636,400.498-249.119,400.341L-249.119,400.341z
			 M-247.069,457.043c0.897-1.32,1.974-2.459,3.47-3.178c-0.355-0.754-0.881-1.336-1.735-1.588
			c-0.267,0.874-1.577,1.279-1.734,2.701c0.794-0.887,1.378-1.74,2.681-1.748c-1.037,1.338-2.607,2.138-3.312,3.812H-247.069
			L-247.069,457.043z M-246.123,457.995c-0.098-0.046-0.607-0.395-0.631,0C-246.461,457.843-246.227,458.47-246.123,457.995
			L-246.123,457.995z M-245.02,455.295c-0.613,0.599-1.228,1.199-1.734,1.906c0.298-0.036,0.348,0.179,0.631,0.158
			C-246.082,456.445-244.869,455.875-245.02,455.295L-245.02,455.295z M-245.966,458.312c0.002,0.012,0.147-0.01,0.157,0
			C-244.952,459.066-246.1,457.55-245.966,458.312L-245.966,458.312z M-241.551,455.453c-0.951-1.336-1.109-0.691-2.049,0.16
			c-0.927,0.837-2.168,1.229-1.893,2.064C-244.321,456.793-243.033,456.025-241.551,455.453L-241.551,455.453z M-242.97,454.183
			c-0.558-0.049-1.77,1.366-1.735,1.905C-244.307,455.273-243.213,455.156-242.97,454.183L-242.97,454.183z M-240.289,456.565
			c-0.502-1.755-2.48-0.446-3.154,0.318c0.867-0.136,1.831-1.011,2.681-0.636c-0.919,0.533-2.987,0.918-3.942,1.906
			C-243.017,458.461-242.209,456.55-240.289,456.565L-240.289,456.565z M-239.186,457.359c-0.576-1.342-2.908,0.08-3.784,0.795
			C-241.9,457.697-240.395,457.677-239.186,457.359L-239.186,457.359z M-237.452,458.948c-0.944-0.6-3.082-0.547-3.626,0
			C-239.996,459.086-238.277,459.98-237.452,458.948L-237.452,458.948z M-238.398,402.882c-0.237-0.043-0.664-0.682-0.788-0.317
			C-238.949,402.61-238.522,403.249-238.398,402.882L-238.398,402.882z M-235.402,460.695c0.392,0.022,0.766,0.029,0.789-0.317
			c-0.48,0.007-0.613-0.335-0.947-0.478C-235.69,460.349-235.338,460.312-235.402,460.695L-235.402,460.695z M-231.461,461.013
			c-0.358-0.115-0.805-0.143-1.104-0.318v0.477C-232.237,461.076-231.528,461.367-231.461,461.013L-231.461,461.013z
			 M-227.834,443.224c-0.086,0.5-0.774,1.893-0.474,1.748C-228.114,444.524-227.443,443.733-227.834,443.224L-227.834,443.224z"/>
		<path id="Fill-63" sketch:type="MSShapeGroup" inkscape:connector-curvature="0" d="M-261.733,431.312
			c1.662-1.82,3.541-3.422,5.203-5.241c2.062-0.518,3.571-1.591,4.73-3.018c0.667,0.319,0.555,1.229,0.946,1.905
			c0.298,0.516,0.812,1.747,0.788,2.859c-0.016,0.67-0.482,1.445-0.474,2.224c0.026,2.292-1.426,4.497-2.522,6.194
			c0.096,0.592,0.334,1.04,0.631,1.43c0.575-0.404,0.938-0.034,1.418-0.477c0.502,0.362-0.459,0.583-0.787,0.636
			c2.054,0.14,4.754,0.333,6.148-1.112c-1.77-2-2.367-4.223-2.521-6.988c-0.186-3.292,0.525-6.071,0.787-9.529
			c1.17-1.682,2.623-3.076,4.257-4.288c0.044-0.909,0.632-1.271,0.946-1.905c0.195-0.516-0.511-0.122-0.315-0.636
			c0.718-1.124,1.771-2.043,3.312-1.907c0.287-0.398,0.715-0.654,1.104-0.952c-0.064-0.383,0.287-0.345,0.157-0.794
			c0.919-0.346,1.047-1.486,1.734-2.064c0.259,0.246-0.054,0.619-0.157,0.953h1.104c1.054,1.215,2.24,2.295,3.152,3.652
			c0.344-0.406-0.637-0.834-0.314-1.747c0.51,0.228,0.805,0.671,0.945,1.271c0.268,0.059,0.298-0.124,0.316-0.318
			c0.381,0.357,0.202,1.279,0.788,1.43c0.263-0.211,0.245-0.706,0.472-0.952c0.423,0.06,0.74,0.844,0,0.794
			c0.329,2.51,1.711,4.311,1.104,6.512c0.622,0.207,0.382-0.582,0.788-0.159c-0.02,0.404-0.229,0.616-0.631,0.636
			c0.111,2.246-0.768,2.514-1.262,4.13c-0.126,0.084-0.255,0.165-0.472,0.159c-0.468,1.857-2.175,2.468-2.838,4.129
			c-0.44-0.493-0.757,0.613-1.104,0.953c-0.339,0.33-0.944,0.565-1.419,0.952c-1.139,0.926-2.65,2.126-4.1,2.858
			c-0.12,0.598,0.837,0.11,0.631,0.795c-2.582-0.796-4.057,2.025-6.307,2.064c0.05,0.373,0.487,0.355,0.631,0.636
			c-1.73,2.069-4.877,2.71-7.727,3.652c0.414-0.679-0.211-0.43-0.314-0.952c1.076-0.045,1.596-0.197,2.521-0.636
			c-1.146-0.257-2.713,0.493-2.838-1.589c-0.654,0.348-1.383,0.619-2.049,0.954c0.134,0.465,0.508-0.096,0.788,0
			c0.099,0.713,0.109,1.163,0.63,1.11c-0.294,0.71-0.787,1.219-1.575,1.431c0.379-0.677,0.264-1.14,0.63-1.589
			c-0.608,0.168-0.477-0.89-1.261-0.477c-0.046-0.256,0.148-0.273,0.157-0.476c-1.855,0.257-3.807-0.516-5.991,0
			c0.16,0.208,0.154,0.585,0.314,0.793c1.221-0.075,3.329-0.342,4.888-0.158c-0.363,0.534-1.312,0.479-1.735,0.952
			c-0.883-0.99-2.921,0.166-3.783-0.794c-0.151,0.271-0.496,0.349-0.789,0.478c0.348,0.951,1.01-0.255,1.735,0.316
			c-0.654,0.59-1.292,0.317-2.208,0.478c-0.296-1.306,0.813-1.194,1.104-1.907c-0.307-0.201-1.73,0.517-2.364,0
			c-0.545,0.246-0.743,0.842-1.104,1.271c-0.648-0.436,1.122-1.307,0.788-2.223c-0.929,0.547-0.832,2.126-1.734,2.699
			c0.295-1.238,0.856-2.208,1.577-3.018c-0.854,0.676-1.626,1.434-1.735,2.858c-0.938-0.673-1.077,1.763-2.05,2.065
			c0.359-0.857,0.662-1.77,1.419-2.225c1.634-3.277,3.729-6.09,5.833-8.893c0.141-0.124,0.356-0.172,0.631-0.16
			C-261.296,430.693-261.538,430.978-261.733,431.312L-261.733,431.312L-261.733,431.312z M-260.471,434.806
			c-0.65,0.236-1.279,0.805-1.892,1.271c-0.349,0.267-1.13,0.478-0.945,0.954c0.019-0.352,0.668-0.068,0.945-0.16
			C-262.273,435.638-260.855,435.744-260.471,434.806L-260.471,434.806z M-262.363,435.125c-0.088,0.294-1.167,0.395-0.631,0.794
			C-262.857,435.673-262.003,435.345-262.363,435.125L-262.363,435.125z M-262.205,432.106c-0.271-0.009-0.404,0.122-0.473,0.318
			C-262.406,432.432-262.274,432.302-262.205,432.106L-262.205,432.106z M-258.895,433.695c1.867-0.385,3.309-2.346,5.045-3.176
			c0.262-0.268,0.926-0.127,1.42-0.16c0.322-0.979,1.271-1.701,1.261-2.699c-0.01-0.924-1.252-1.578-0.788-2.541
			c-1.297,0.334-1.79,1.479-3.311,1.588c-2.566,2.02-4.74,4.437-6.938,6.829c0.025,0.187-0.027,0.451,0.158,0.477
			C-261.791,433.345-259.827,433.887-258.895,433.695L-258.895,433.695z M-259.209,434.806c-1.146,0.224-2.262,1.32-2.523,1.906
			C-261.045,435.922-259.881,435.613-259.209,434.806L-259.209,434.806z M-254.637,432.424c-1.789,1.163-3.176,2.73-4.73,4.13
			c1.332-0.482,2.148-1.703,3.153-2.542c1.081-0.901,2.3-1.56,3.312-2.542C-253.953,431.312-254.081,432.084-254.637,432.424
			L-254.637,432.424z M-259.683,436.395c0.565-1.126,2.558-1.658,2.681-2.7c-0.621,0.434-1.014,1.097-2.05,1.111
			c-0.14,1.024-1.364,0.955-1.734,1.748C-260.274,436.646-260.053,436.445-259.683,436.395L-259.683,436.395z M-257.633,436.554
			c0.939-0.838,1.766-1.611,2.68-2.383c0.409-0.345,0.883-0.644,1.262-0.953c0.761-0.621,1.97-1.188,1.893-2.224
			c-2.157,1.903-4.764,3.354-6.465,5.718C-257.989,436.724-257.774,436.676-257.633,436.554L-257.633,436.554z M-255.741,436.713
			c1.04-1.549,3.335-2.675,3.627-4.447c-1.655,1.511-3.43,2.898-5.046,4.447H-255.741L-255.741,436.713z M-253.85,435.125
			c-0.049,0.643-1.32,0.885-0.945,1.43C-254.457,436.201-253.475,435.668-253.85,435.125L-253.85,435.125z M-251.326,439.095
			c-0.143,0.332-0.891,0.057-0.946,0.476C-251.887,439.578-250.955,439.328-251.326,439.095L-251.326,439.095z M-248.961,438.46
			c-0.562,0.016-1.083,0.073-1.262,0.476C-249.694,438.885-249.229,438.772-248.961,438.46L-248.961,438.46z M-244.231,426.071
			c1.522-0.697,4.555-3.886,5.045-6.353c0.08-0.404-0.04-0.859,0-1.271c0.107-1.111,0.408-2.363,0.473-3.335
			c0.016-0.241-0.314-0.568-0.314-0.952c-0.004-0.805,0.578-0.714,0.314-1.112c-0.25-0.376-0.762-0.568-1.42-0.476
			c-0.256,0.413-0.475,0.885-0.945,1.43c-0.404,0.339,0.133,0.887-0.158,1.11c-1.481,2.16-3.973,3.304-5.203,5.718
			c0.17,1.967-0.544,4.804-0.787,6.354C-246.522,426.499-245.4,426.606-244.231,426.071L-244.231,426.071z M-244.389,428.771
			c2.536-2.051,5.045-4.162,6.307-6.988c-0.586-0.061-0.412,0.644-1.104,0.477c-1.773,3.094-5.112,5.247-7.884,6.83v1.27
			C-245.812,430.129-245.274,429.487-244.389,428.771L-244.389,428.771z M-246.44,432.265c0.436-0.188,1.063-1.365,0.474-1.588
			c-0.325,0.254-0.813,0.344-0.945,0.793C-246.543,431.523-246.759,432.164-246.44,432.265L-246.44,432.265z M-245.335,432.584
			c-0.653,0.042-0.614-0.209-1.104,0c0.092,0.279-0.189,0.932,0.159,0.952C-246.143,433.041-245.537,433.014-245.335,432.584
			L-245.335,432.584z M-245.492,427.501c-0.002,0.263-0.438,0.089-0.474,0.317C-245.645,427.955-245.098,427.568-245.492,427.501
			L-245.492,427.501z M-244.074,433.06c-0.725,0.328-1.49,0.614-1.734,1.43C-244.963,434.35-243.807,433.802-244.074,433.06
			L-244.074,433.06z M-239.658,427.978c-0.473-0.426-0.768-1.028-1.104-1.59c-1.683,1.111-3.062,2.529-4.572,3.812
			c0.269,0.666-0.062,0.994,0.315,1.429c-0.178,0.034-0.246,0.177-0.315,0.318C-243.289,430.779-241.545,429.307-239.658,427.978
			L-239.658,427.978z M-244.074,432.265c-0.408,0.021-1.027,0.645-0.787,0.795C-244.832,432.56-244.013,432.856-244.074,432.265
			L-244.074,432.265z M-243.6,432.106c0.817-0.465,1.491-1.27,2.363-1.905c0.824-0.601,2.113-0.961,2.209-1.906
			c-1.029,0.236-1.9,0.872-2.682,1.43c-0.797,0.57-1.617,1.272-2.207,2.064C-243.738,431.822-243.67,431.964-243.6,432.106
			L-243.6,432.106z M-235.402,422.1c0.109-0.074,0.062-0.401,0.158-0.477c0.262-0.202,0.692-0.262,0.946-0.476
			c0.808-0.684,1.589-1.492,2.364-2.065c0.5-0.368,1.727-0.63,1.262-1.588c-1.826,1.337-3.437,2.892-5.045,4.447
			c-0.002-0.21-0.277-0.146-0.316-0.318c0.868-1.729,2.84-3.146,4.258-4.287c0.469-0.378,1.442-0.672,0.945-1.43
			c-2.271,1.575-4.176,3.522-5.991,5.558c-0.334,0.335,0.185,0.621,0.315,0.953c-0.233,0.083-0.396,0.236-0.63,0.318
			c-0.271,2.191-0.558,3.385-1.104,5.242c0.475-0.01,0.932-0.851,1.262-0.478c-2.135,1.821-4.756,3.151-6.465,5.399
			c1.436-0.777,2.342-2.088,3.941-2.699c0.389-0.713,1.359-1.087,2.05-1.588c0.699-0.508,1.278-1.372,2.05-1.271
			c-1.639,1.05-2.945,2.434-4.73,3.336c-0.668,1.232-2.852,1.783-2.995,3.018c3.197-2.232,6.596-4.262,9.46-6.83v-0.794
			c0.396-0.558,1.784-0.952,1.576-1.587c-0.266,0.387-0.848,1.053-1.261,0.793c0.546-1.092,2.069-1.197,2.365-2.541
			c-1.735,0.74-2.542,2.416-4.099,3.335c1.121-1.569,2.432-2.949,4.256-3.812c0.085-0.705,0.268-0.84,0.316-1.271
			c-1.979,1.077-3.445,2.674-5.203,3.971c-0.232-0.694,0.713-0.932,1.104-1.27c0.479-0.417,0.929-0.896,1.419-1.271
			c0.981-0.75,2.14-1.347,2.838-2.223c-2.207,1.113-4.193,3.293-6.149,4.129c1.778-1.809,4.047-3.123,6.149-4.605
			c0.14-0.58-0.278-0.846,0-1.111c-2.4,1.076-4.19,3.613-6.308,4.446C-236.659,422.412-235.851,422.407-235.402,422.1
			L-235.402,422.1z M-239.027,427.183c0.35-0.918,0.455-2.082,0.945-2.859C-238.965,424.69-240.041,426.362-239.027,427.183
			L-239.027,427.183z M-234.298,415.589c0.659-0.53,1.377-1.32,2.206-1.271c-0.838,0.534-1.686,1.368-2.521,2.064
			c-0.863,0.719-2.082,1.223-2.208,2.225c1.427-1.635,3.096-3.023,5.203-3.971c-0.306-0.593-0.763-1.033-1.262-1.43
			c-1.093,0.326-2.406,1.658-3.311,2.541c-1.017,0.992-1.134,1.111-1.419,2.699c-0.197,1.096-1.041,2.096-0.946,3.177
			c2.237-2.458,4.552-4.838,7.411-6.671c-0.912-0.146-1.92,0.701-2.682,1.271c-1.332,1-2.385,2.365-3.469,3.335
			c-0.289-0.594,0.381-0.688-0.314-1.112C-236.502,417.457-235.406,416.479-234.298,415.589L-234.298,415.589z M-237.452,420.83
			c0.009,0.292-0.808,0.538-0.315,0.794C-237.799,421.308-237.099,420.945-237.452,420.83L-237.452,420.83z M-233.51,412.254
			c-1.764-0.017-2.884,1.957-4.258,2.858c0.217,0.503,0.035,0.53,0,1.112C-236.38,414.868-234.846,413.662-233.51,412.254
			L-233.51,412.254z M-236.979,414.002c0.115-0.435-0.314-0.32-0.316-0.636c0.98-0.709,2.049-1.325,2.84-2.224
			c-1.24-0.188-1.582,1.369-2.523,0.953c0.092-0.548,1.59-0.51,1.104-1.113c-0.595,0.514-1.516,0.697-1.893,1.43
			C-236.749,412.441-238.029,413.911-236.979,414.002L-236.979,414.002z M-234.929,410.824c-0.253-0.646-0.56-1.236-1.577-1.111
			c-0.339,0.614-1.186,1.555-1.104,2.064C-237.067,411.136-235.834,410.117-234.929,410.824L-234.929,410.824z M-236.821,413.683
			C-236.04,413.472-236.574,412.932-236.821,413.683L-236.821,413.683z M-230.83,415.429c-1.148,0.053-1.969,1.137-2.838,1.907
			c-0.92,0.815-1.875,1.601-2.68,2.382c0.024,0.188-0.027,0.451,0.157,0.477C-234.639,418.369-232.66,416.975-230.83,415.429
			L-230.83,415.429z M-234.298,411.618c-0.489,0.517-1.829,1.013-1.735,1.589C-235.711,412.523-234.168,412.231-234.298,411.618
			L-234.298,411.618z M-233.194,412.73c-0.358-0.028-0.919,0.536-0.632,0.636C-233.811,412.958-233.21,413.138-233.194,412.73
			L-233.194,412.73z M-230.514,417.018c-1.199,0.275-1.728,1.226-2.681,1.747c-0.007,0.17,0.074,0.403,0.157,0.158
			C-232.373,418.111-231.117,417.894-230.514,417.018L-230.514,417.018z M-229.411,419.718c0.85-0.465,0.2-1.167,0.315-2.064
			C-230.071,417.906-228.928,419.12-229.411,419.718L-229.411,419.718z M-229.411,417.337
			C-228.925,416.384-229.994,416.558-229.411,417.337L-229.411,417.337z M-229.253,420.037c-0.192,0.24-0.31,1.367,0,1.587
			C-229.417,420.939-228.61,420.237-229.253,420.037L-229.253,420.037z"/>
		<path id="Fill-64" sketch:type="MSShapeGroup" inkscape:connector-curvature="0" d="M-222.473,420.988
			c-1.188-0.11-2.229-0.482-2.996,0.16c0.722,0.044,2.432-0.043,3.311,0.316c0.158,0.479-0.352,0.283-0.631,0.318
			c0.202,0.75,1.836,0.057,1.893,0.953c-1.529-0.117-3.295-0.789-4.572-0.636c1.044,0.333,2.424,1.112,3.626,1.748
			c-0.048,0.215-0.396,0.132-0.63,0.159c0.249,1.02,1.057,0.687,0.945,1.587c0.037,0.409,0.271-0.218,0.631,0
			c-0.922,1.507-3.273,1.574-4.73,2.542c-0.062,0.751,0.334,1.043-0.157,1.429c0.433,1.298,0.106,2.448-0.315,4.447
			c-0.164,0.776-0.715,1.001-1.104,1.747c-0.213,0.406-0.246,1.158-0.631,1.588c-0.207,0.232-0.695,0.533-0.946,1.112
			c-0.108,0.249,0.006,0.944-0.157,1.271c-0.333,0.662-1.002,2.949-1.104,3.812c-0.072,0.61-1.055,2.858-1.42,3.971
			c-0.268,3.434-0.963,6.603-1.262,9.212c-2.338,0.395-3.477-3.152-5.675-2.382c-0.181-0.5,0.248-0.387,0.315-0.636
			c-0.992-0.801-1.855-1.731-3.469-1.906c-1.895-1.745-2.888-4.397-4.258-6.67c-0.137-0.24-0.235,0.043-0.631-0.158
			c-0.206-0.494,0.044-0.455,0-1.112c-0.203-0.04-1.4,0.276-1.103,1.271c-0.599-0.064-0.599-0.731-1.261-0.318
			c0.158-0.357,0.732-1.293,1.261-1.43c0.07-0.018,0.378,0.279,0.315,0.318c1.124-0.695,1.563-2.076,2.521-3.018
			c1.302-1.278,2.834-1.893,4.258-2.858c2.052-1.374,3.764-3.091,5.203-5.083c0.568,0.096,0.464-0.484,0.946-0.477
			c1.706-2.463,2.913-5.43,5.36-7.146c0.154-0.797,0.732-1.168,0.63-2.225c0.929-0.324,2.079-2.245,3.312-2.541
			C-224.293,420.185-222.828,420.091-222.473,420.988L-222.473,420.988z M-230.357,427.818c-0.554,0.736-0.733,1.821-1.262,2.541
			c-0.159,0.218-0.667,0.33-0.788,0.477c-0.398,0.48-0.509,0.979-0.631,1.43c0.594-0.252,1.089-1.439,1.734-1.111
			c-0.4,0.529-1.068,0.686-1.577,1.111c-2.642,2.217-4.733,5.115-7.567,7.146c-0.007-0.218,0.074-0.348,0.158-0.477
			c-2.012,1.467-5.139,2.484-4.416,6.195c1.577,1.746,1.928,4.729,4.1,5.877c1.217-0.008,1.586,0.836,2.523,1.11
			c0.789-0.343,1.928-1.046,2.996-0.952c0.918,0.08,1.207,0.562,1.892,0.952c0.179-2.444-3.547-0.83-4.415-1.429
			c1.615-0.424,3.137-0.713,4.572,0.158v-1.27c-0.968-0.107-1.996-0.195-3.153,0c-1.165,0.195-2.356,1.084-2.995,0.635
			c1.25-0.646,3.034-0.756,4.414-1.271c-1.765-0.216-2.47,0.697-3.626,0c-0.577,0.083-1.616,0.933-1.892,0.317
			c0.959-0.251,2.656-0.849,3.783-1.429c-1.727-0.044-3.334,0.874-4.572,0.793c0.984-0.442,2.482-0.908,3.153-1.271
			c-0.005,0.003,0.88,0.133,0.473-0.316c-0.898,0.207-2.063,0.988-2.837,0.794c2.478-1.114,5.094-2.168,7.883-0.794
			c0.549-2.156,1.297-3.59,1.734-5.561c-1.111,0.227-1.781,1.672-2.681,1.59c0.708-1.367,3.313-1.729,2.996-3.177
			c-0.671,0.491-1.647,1.515-2.208,1.587c0.6-1.036,1.693-1.576,2.68-2.223c-0.135-0.984,0.492-1.199,0.632-1.906
			c-1.692,0.996-3.149,2.228-4.573,3.494c0.156,0.438,0.146,1.33-0.314,1.589c-0.091-0.279,0.189-0.933-0.157-0.954
			c-2.999,1.587-5.296,3.879-8.199,5.561c1.216-1.636,3.368-2.325,4.729-3.812c0.695-0.682,2.521-0.877,2.365-1.906
			c-0.801-0.595-0.805,1.082-1.419,0.635c0.108-0.579,0.598-0.773,0.788-1.27c-0.638,0.045-1.096,0.271-1.734,0.318
			c-0.535,0.01-0.24-0.816-0.788-0.795c0.03,0.613-0.731,0.428-0.63,1.111c-1.957,0.836-3.473,2.961-4.889,3.812
			c3.286-3.785,7.336-6.8,11.51-9.689c-1.359,1.189-2.84,2.438-4.1,3.494c-0.435,0.365-1.367,0.475-1.261,1.271
			c1.249,0.67,2.134-1.046,2.996-1.747c1.056-0.86,2.231-1.495,2.995-2.383c1.19-0.443,2.083-2.028,3.153-2.064
			c-2.466,2.069-5.069,3.999-7.41,6.194c0.904,0.227,1.64-0.617,2.207-1.111c1.413-1.232,2.708-2.584,4.415-3.336
			c-1.195,1.391-3.639,2.369-4.258,3.812c1.166-1.05,2.439-1.989,3.941-2.7c-1.678,1.434-3.604,2.617-5.201,4.131
			c2.369-0.948,3.56-3.086,5.99-3.971c0.541-2.262,1.889-3.711,2.365-6.036c-1.279,0.525-2.193,2.22-3.312,2.382
			c0.749-1.416,2.593-1.729,3.312-3.176c-1.249,0.595-1.983,1.707-3.154,2.383c0.586-1.477,2.489-1.623,2.996-3.178
			c-1.072-0.105-2.005,2.094-2.996,2.064c0.557-1.367,2.365-1.58,2.682-3.017c-1.106,0.316-1.785,1.905-2.682,1.905
			c0.604-1.141,2.479-1.843,2.682-2.858c-0.943,0.796-1.777,1.704-2.839,2.383c-0.15-0.296,0.473-0.531,0-0.636
			c-0.195,0.268-0.458,0.811-0.788,0.477c0.993-1.276,2.398-2.138,3.469-3.336c1.117-0.896,2.381-1.325,2.996-2.381
			c-2.366,1.004-3.674,3.074-5.834,4.287c0.467-1.252,2.57-1.863,2.68-2.859C-228.227,426.403-229.577,426.783-230.357,427.818
			L-230.357,427.818L-230.357,427.818z M-234.141,452.118c-0.87-1.059-3.462-0.003-3.784,0.477
			C-236.496,452.488-236.016,451.988-234.141,452.118L-234.141,452.118z M-233.194,453.23v-0.794
			c-1.39,0.104-3.072-0.043-4.101,0.636C-236.104,453.576-234.055,452.601-233.194,453.23L-233.194,453.23z M-235.402,453.707
			c-0.105-0.31-1.025-0.109-0.473,0.158C-235.924,453.369-235.42,454.269-235.402,453.707L-235.402,453.707z M-233.353,448.466
			c-0.041-0.75-1.94-0.602-2.208-0.16C-234.739,448.152-234.231,448.332-233.353,448.466L-233.353,448.466z M-233.826,454.183
			c-0.104-0.608-1.085-0.783-1.418-0.159C-234.604,454.259-234.483,454.031-233.826,454.183L-233.826,454.183z M-233.51,455.136
			c0.031-0.875-0.959-0.732-1.262-0.318C-234.145,454.715-234.138,455.238-233.51,455.136L-233.51,455.136z M-233.668,448.783
			c0.07,0.441-0.859-0.125-0.787,0.318C-234.125,449.152-233.09,449.125-233.668,448.783L-233.668,448.783z M-232.723,448.783
			v-0.477h-0.314v0.477H-232.723L-232.723,448.783z M-223.736,424.484c-2.237,1.026-3.897,2.638-5.518,4.287
			c0.122-0.036,0.312-0.004,0.315-0.158C-227.4,427.039-225.299,426.031-223.736,424.484L-223.736,424.484z M-225.627,423.371
			c-1.1,0.219-2.107,1.369-2.207,2.064C-227.236,424.609-225.954,424.47-225.627,423.371L-225.627,423.371z M-226.414,423.371
			c-0.444-0.162-1.098,0.248-0.631,0.478C-227.113,423.41-226.458,423.699-226.414,423.371L-226.414,423.371z M-223.893,425.119
			c-0.951,0.736-1.998,1.375-2.838,2.223C-225.769,426.722-224.078,425.993-223.893,425.119L-223.893,425.119z M-225.943,424.484
			c-0.298,0.03-1.044,0.408-0.63,0.635C-226.557,424.71-225.957,424.891-225.943,424.484L-225.943,424.484z M-226.731,422.259
			C-225.777,422.387-226.625,421.532-226.731,422.259L-226.731,422.259z M-225.469,424.166
			C-224.227,423.441-226.297,424.649-225.469,424.166L-225.469,424.166z M-221.843,425.594c-0.493,0.087-0.78,0.38-0.946,0.794
			C-222.361,426.237-221.701,426.319-221.843,425.594L-221.843,425.594z M-222.317,425.435c0-0.158,0.127-0.188,0.158-0.316
			c-0.161,0.019-0.318-0.686-0.473-0.16c0.269,0.066-0.033,0.205,0,0.477H-222.317L-222.317,425.435z"/>
		<path id="Fill-65" sketch:type="MSShapeGroup" inkscape:connector-curvature="0" d="M-227.361,437.825
			c-0.485,0.252-0.643,0.835-0.946,1.271c0.258-1.596,1.823-3.246,2.681-4.766c0.412,0.375-0.432,0.827-0.473,1.271
			c0.568-0.274,0.543-1.146,1.261-1.271c-0.376,1.051-1.235,1.614-1.576,2.701c0.659-0.344,0.767-1.24,1.576-1.431
			c-1.274,1.733-2.766,3.25-3.784,5.241C-228.861,439.804-227.691,438.818-227.361,437.825L-227.361,437.825z M-226.889,437.031
			c-0.385-0.154-0.521,0.713-0.314,0.635C-227.121,437.43-226.971,437.265-226.889,437.031L-226.889,437.031z"/>
		<path id="Fill-66" sketch:type="MSShapeGroup" inkscape:connector-curvature="0" d="M-290.111,444.654
			c-0.214-0.05-0.13-0.397-0.158-0.636c1.174-0.056,1.541-1.068,2.522-0.477C-288.262,444.291-289.201,444.734-290.111,444.654"/>
		<path id="Fill-67" sketch:type="MSShapeGroup" inkscape:connector-curvature="0" d="M-284.277,482.136
			c0.558-1.25,1.808-1.8,2.995-2.7c2.061-1.563,4.327-3.255,6.622-3.812c-2.978,1.97-6.936,3.641-8.671,6.354
			C-283.814,481.863-283.796,482.252-284.277,482.136"/>
		<path id="Fill-68" sketch:type="MSShapeGroup" inkscape:connector-curvature="0" d="M-279.864,450.213
			c-0.804-0.277-1.504,0.917-2.207,1.27c-0.114-0.484,0.162-0.578,0.158-0.952c0.746,0.325,1.17-0.897,2.049-0.952
			c0.403-1.977,3.109-1.633,3.942-3.177c0.611,0.765,1.236,0.13,1.734,0.158c-1.612,2.612-4.237,4.203-6.622,6.035
			c0.259-0.788,0.896-0.952,0.788-1.747c-0.204-0.039-1.184,0.496-1.103,1.271c-0.097-0.22-0.607-0.023-0.63-0.317
			C-281.285,451.11-280.576,450.658-279.864,450.213L-279.864,450.213z M-277.972,449.894c-0.561,0.283-1.142,0.545-1.419,1.113
			C-278.83,450.724-278.249,450.463-277.972,449.894L-277.972,449.894z M-277.972,448.306
			C-278.939,448.495-278.367,449.072-277.972,448.306L-277.972,448.306z M-277.656,448.942c0.045,0.28-0.743,0.491-0.316,0.636
			C-278.052,449.261-277.101,449.214-277.656,448.942L-277.656,448.942z"/>
		<path id="Fill-69" sketch:type="MSShapeGroup" inkscape:connector-curvature="0" d="M-277.656,458.789
			c0.434,0.877-0.481,2.065,0.473,2.065c0.076,0.552-0.395,0.554-0.63,0.794C-278.037,460.972-278.739,459.361-277.656,458.789"/>
		<path id="Fill-70" sketch:type="MSShapeGroup" inkscape:connector-curvature="0" d="M-255.268,471.336
			c1.678-0.004,4.279-1.777,6.465-1.43c0.789,0.127,1.038,1.004,1.892,0.636c0.066,0.332-0.108,0.421-0.158,0.636
			c1.091-0.49,1.552-1.613,2.681-2.065c-0.473,1.113-1.629,1.536-2.208,2.542c1.028-0.023,1.198-0.91,2.208-0.953
			c-0.508,0.812-1.223,1.415-2.522,1.43c-0.442,0.155,0.229,0.423-0.158,0.635c-0.876-0.53-1.203-1.596-1.733-2.064
			c-1.447,0.08-2.383,0.153-3.627,0.635c-0.678,0.263-1.225,1.011-1.576,1.111c-0.389,0.113-0.252-0.507-0.158-0.477
			c-0.596-0.203-1.836,1.021-2.365,0.477c-0.316,0.428-1.352,0.962-1.893,0.636c-0.146,0.134-0.528,0.819-0.156,0.954
			c-0.602,0.367-0.635-1.677-0.631-2.066c0.01-1.073,0.383-1.933,0.631-2.858c0.523-1.96,0.953-3.959,2.207-5.241
			c1.021-1.045,2.131-1.771,2.521-3.335c-0.253-0.452,0.069-1.452,0.789-1.43c-0.392,1.013-0.549,2.603-1.262,3.653
			c-0.453,0.67-1.459,1.207-2.049,1.747c-0.651,0.597-1.021,2.358-1.576,3.494c0.793-0.313,1.707-1.878,2.837-2.382
			c-1.062,1.629-2.89,2.488-3.312,4.764c1.274-0.781,2.055-2.06,2.997-3.176c0.644,0.814,0.646-0.746,1.419-0.159
			c-1.373,1.001-2.471,2.276-3.469,3.653c0.443,0.062,0.672-0.723,0.631,0.159c1.33-0.778,2.39-1.828,3.311-3.019
			c0.27-0.006,0.408,0.119,0.473,0.318c-0.637,0.787-1.627,1.219-2.207,2.064c0.047,0.331,0.426-0.236,0.473,0.317
			c1.232-0.505,1.885-1.596,3.153-2.065C-252.652,469.63-253.967,470.476-255.268,471.336L-255.268,471.336L-255.268,471.336z
			 M-258.578,472.13c-0.203,0.209-0.203,0.585,0,0.794c1.178-0.349,2.22-0.835,2.837-1.747c-0.886-0.788-1.49,1.877-2.837,1.111
			C-258.49,472.289-258.401,472.16-258.578,472.13L-258.578,472.13z M-258.106,470.701c-0.199,0.245-1.002,0.573-0.316,0.795
			C-258.454,471.178-257.752,470.816-258.106,470.701L-258.106,470.701z"/>
		<path id="Fill-71" sketch:type="MSShapeGroup" inkscape:connector-curvature="0" d="M-241.236,466.889
			c0.391,0.411-0.152,0.778,0,1.429c-0.3,0.068-0.395,0.342-0.788,0.318C-242.239,467.882-241.975,467.106-241.236,466.889"/>
		<path id="Fill-72" sketch:type="MSShapeGroup" inkscape:connector-curvature="0" d="M-237.452,437.982
			c2.146-0.855,4.216-3.164,6.622-4.287c-3.604,3.093-7.924,5.465-11.352,8.735c-0.357-0.474,0.48-1.099,0.945-1.271
			c0.061-0.538-0.697-0.25-0.473-0.953c0.688-0.217,0.336,0.615,0.946,0.477c0.967-0.615,1.37-1.797,2.522-2.224
			c1.346-1.577,3.361-2.9,5.046-4.13c0.397-0.289,0.777-1.037,1.419-0.794C-233.694,434.992-235.579,436.481-237.452,437.982"/>
		<path id="Fill-73" sketch:type="MSShapeGroup" inkscape:connector-curvature="0" d="M-243.6,471.654
			c0.795-1.129,2.617-1.626,3.941-2.542c1.991-1.377,3.355-3.352,5.518-4.446c-0.689,1.158-2.145,1.547-2.838,2.699
			c0.821,0.055,1.387-1.438,2.523-1.588c-0.221,0.943-1.338,0.983-1.735,1.748c1.231-0.296,1.622-1.438,3.153-1.431
			c-0.084,0.806,0.134,0.431,0.473,0.636c-0.25,0.807-1.021,1.089-1.733,1.43C-238.391,467.16-240.381,470.746-243.6,471.654"/>
	</g>
</g>
<path id="path3832" inkscape:connector-curvature="0" fill="#CCCCCC" d="M-284.005,471.115c-0.237-0.824-0.369-0.99-0.946-1.186
	c-0.884-0.299-3.669-0.652-5.139-0.652c-0.644,0-1.54-0.131-1.99-0.289c-0.451-0.159-0.896-0.289-0.988-0.289
	c-0.281,0-0.189,0.424,0.145,0.668c0.255,0.188,0.272,0.308,0.09,0.648c-0.124,0.23-0.342,0.418-0.485,0.418
	c-0.301,0-0.575-1.186-0.401-1.732c0.182-0.573-0.663-1.051-1.325-0.75c-0.582,0.266-0.677,0.748-0.146,0.748
	c0.275,0,0.338,0.107,0.27,0.464l-0.089,0.464l-0.704-0.402c-0.387-0.222-0.741-0.431-0.785-0.465
	c-0.045-0.035,0.12-0.276,0.365-0.538l0.447-0.476l-0.522-0.198c-0.288-0.109-0.591-0.198-0.674-0.198
	c-0.083,0-0.429-0.603-0.769-1.338c-0.554-1.202-0.612-1.499-0.577-2.939c0.021-0.883,0.113-1.699,0.203-1.816
	c0.09-0.118,0.425-0.938,0.745-1.822c0.319-0.885,0.682-1.672,0.805-1.748c0.124-0.076,0.246-0.285,0.272-0.467
	c0.026-0.18,0.261-0.556,0.522-0.834c0.26-0.279,0.714-1.006,1.009-1.617c0.294-0.609,1.003-1.676,1.574-2.368
	c1.159-1.405,5.558-5.258,6.429-5.631c0.309-0.132,1.132-0.631,1.83-1.108c0.698-0.478,1.331-0.868,1.407-0.868
	c0.076,0,0.234-0.255,0.352-0.565c0.258-0.684,1.258-1.032,3.148-1.098c0.689-0.023,1.557-0.1,1.928-0.17
	c0.618-0.115,0.595-0.088-0.281,0.334c-0.806,0.389-1.067,0.431-1.666,0.271c-0.774-0.206-2.096,0.149-2.248,0.604
	c-0.095,0.285,0.646,0.326,0.82,0.045c0.065-0.105,0.348-0.192,0.628-0.192c0.786,0,0.311,0.282-1.445,0.858
	c-1.78,0.584-2.293,0.933-2.469,1.678c-0.108,0.457-0.054,0.525,0.508,0.649c0.346,0.075,1.666,0.075,2.934,0
	c1.681-0.101,2.343-0.076,2.444,0.088c0.146,0.237,4.689-2.079,6.735-3.434c2.325-1.54,4.985-4.583,5.404-6.186
	c0.1-0.38,0.321-2.166,0.492-3.969c0.374-3.941,0.838-7.27,1.043-7.479c0.083-0.085,0.208,0.869,0.278,2.12
	c0.11,1.972,0.074,2.468-0.275,3.721c-0.225,0.81-0.368,1.786-0.325,2.218c0.103,1.023-0.084,1.665-1.333,4.58
	c-0.58,1.354-1.026,2.652-0.993,2.887c0.061,0.424,0.062,0.424,0.368-0.051c0.468-0.727,2.23-5.328,2.586-6.752
	c0.231-0.926,0.501-1.458,1.01-1.998c0.678-0.719,0.719-0.733,1.721-0.615c1.03,0.121,1.048,0.115,3.722-0.996
	c0.157-0.065-0.038,0.205-0.434,0.6c-0.395,0.396-0.719,0.857-0.719,1.025c0,0.365,0.059,0.325,1.928-1.287
	c1.539-1.328,1.846-1.527,1.677-1.088c-0.169,0.441,0.01,0.402,0.75-0.161c0.742-0.565,0.883-0.598,0.715-0.161
	c-0.134,0.35-0.01,0.303,0.961-0.37c0.73-0.506,4.381-5.394,4.381-5.864c0-0.076-0.295,0.146-0.656,0.496
	c-0.643,0.623-0.658,0.627-0.79,0.212s-0.148-0.411-0.79,0.211c-0.799,0.774-0.854,0.579-0.105-0.376
	c0.303-0.387,0.881-1.281,1.285-1.988c0.404-0.708,0.938-1.395,1.186-1.527c0.609-0.326,3.029-4.077,3.439-5.332
	c0.188-0.575,0.447-1.013,0.599-1.013c0.158,0,0.267-0.202,0.267-0.497s0.235-0.732,0.578-1.075c0.318-0.317,0.58-0.767,0.58-0.997
	c0.001-0.23,0.176-0.68,0.389-0.998c0.672-1.004,1.152-2.904,1.152-4.556v-1.526l0.627,0.318c0.344,0.174,0.974,0.594,1.397,0.931
	c0.425,0.337,1.161,0.727,1.639,0.865c1.296,0.377,2.766,1.177,4.941,2.688c1.283,0.891,1.992,1.514,2.067,1.814
	c0.176,0.699,1.879,2.047,2.562,2.027c1.146-0.032,1.871,0.37,2.372,1.314c0.62,1.17,2.761,3.443,4.704,4.999
	c1.457,1.166,1.621,1.246,2.539,1.246c1.518,0,2.803,0.733,3.832,2.188c0.463,0.652,0.992,1.489,1.177,1.86
	c0.186,0.371,0.687,1.191,1.113,1.823l0.776,1.148l-0.221,1.418c-0.252,1.622-0.922,3.725-1.746,5.484
	c-0.492,1.051-0.586,1.154-0.701,0.778c-0.184-0.596-0.989-0.57-2.43,0.075c-1.307,0.588-1.254,0.453-1.41,3.539
	c-0.117,2.314-0.338,3.639-0.641,3.836c-0.461,0.301-1.971,2.371-1.971,2.701c0,0.205-0.128,0.618-0.285,0.918
	c-0.623,1.189-1.434,3.325-1.84,4.844c-0.234,0.878-0.611,1.876-0.838,2.217c-0.377,0.57-0.416,0.928-0.48,4.47
	c-0.037,2.118-0.143,4.047-0.234,4.287c-0.117,0.307-0.053,0.7,0.214,1.323c0.479,1.119,0.478,1.477-0.015,1.922
	c-0.352,0.319-0.479,0.331-1.205,0.112c-0.445-0.135-1.201-0.356-1.678-0.492c-0.482-0.138-0.895-0.38-0.927-0.545
	s-0.351-0.352-0.718-0.421c-0.361-0.067-0.77-0.271-0.904-0.453c-0.137-0.182-0.594-0.503-1.019-0.715
	c-1.062-0.531-2.476-1.471-2.657-1.768c-0.082-0.135-0.627-0.561-1.21-0.947c-0.583-0.388-1.372-1.085-1.754-1.551
	c-0.382-0.467-1.052-1.006-1.489-1.2c-0.437-0.193-0.909-0.491-1.05-0.662s-0.748-0.41-1.35-0.532
	c-0.921-0.188-1.606-0.497-2.578-1.162c-0.088-0.06-0.026-0.377,0.138-0.704c0.362-0.728,0.161-1.866-0.503-2.835
	c-0.402-0.588-0.505-0.634-1.204-0.54c-0.42,0.057-0.912,0.25-1.092,0.429c-0.18,0.18-0.729,0.605-1.223,0.944
	c-0.874,0.602-1.477,1.432-1.477,2.036c0,0.354,0.09,0.367,0.61,0.088c0.364-0.194,0.383-0.168,0.261,0.387
	c-0.104,0.473-0.066,0.595,0.18,0.595c0.172,0,0.361-0.13,0.422-0.289c0.062-0.159,0.227-0.29,0.369-0.29
	c0.142,0,0.379-0.172,0.527-0.384c0.359-0.513,0.523-0.3,0.523,0.681c0,0.797-0.014,0.813-0.77,0.934
	c-1.212,0.194-2.778,0.847-3.898,1.623c-2.029,1.408-5.491,4.287-5.697,4.737c-0.381,0.836-1.467,1.901-2.305,2.261
	c-0.455,0.194-0.826,0.443-0.826,0.553c0,0.11-0.127,0.2-0.282,0.2c-0.156,0-0.579,0.261-0.941,0.578
	c-0.526,0.462-0.836,0.579-1.538,0.579c-0.483,0-0.933-0.088-0.999-0.193c-0.235-0.381-0.395-0.176-0.628,0.81
	c-0.131,0.552-0.314,1.078-0.408,1.171c-0.097,0.098-0.456-0.125-0.844-0.523c-0.602-0.621-0.729-0.674-1.193-0.498
	c-0.285,0.109-1.023,0.197-1.64,0.197c-0.757,0-1.198,0.094-1.359,0.287c-0.131,0.158-0.317,0.238-0.414,0.179
	c-0.097-0.06-0.543,0.063-0.991,0.275c-0.448,0.211-1.595,0.479-2.549,0.596c-0.954,0.117-2.149,0.307-2.655,0.423
	c-0.603,0.137-1.001,0.145-1.157,0.021c-0.13-0.104-0.645-0.247-1.144-0.319c-0.685-0.1-1.025-0.055-1.389,0.185
	c-0.266,0.174-0.574,0.26-0.685,0.191c-0.111-0.069-0.494-0.021-0.85,0.108c-0.547,0.198-0.718,0.186-1.102-0.084
	c-0.488-0.342-1.333-0.432-1.333-0.142c0,0.097,0.098,0.21,0.218,0.249c0.147,0.049,0.095,0.35-0.163,0.932l-0.38,0.859
	L-284.005,471.115L-284.005,471.115z M-287.453,468.721c0-0.094,0.18-0.217,0.4-0.274c0.334-0.087,0.366-0.169,0.192-0.491
	c-0.114-0.213-0.207-0.566-0.207-0.786c0-0.468-0.294-0.53-0.46-0.097c-0.063,0.166-0.203,0.247-0.31,0.182
	c-0.216-0.134-0.278,1.297-0.065,1.51C-287.719,468.946-287.453,468.922-287.453,468.721z M-281.219,468.072
	c-0.065-0.345-0.215-0.801-0.333-1.012c-0.19-0.343-0.221-0.303-0.275,0.357c-0.074,0.906,0.053,1.281,0.436,1.281
	C-281.167,468.699-281.128,468.555-281.219,468.072L-281.219,468.072z M-284.655,468.311c0.066-0.108,0.215-0.139,0.331-0.066
	c0.141,0.086,0.169-0.024,0.086-0.334c-0.068-0.256-0.125-0.573-0.127-0.705c-0.005-0.441-0.389-0.25-0.776,0.385
	c-0.21,0.345-0.382,0.691-0.383,0.771C-285.525,468.578-284.795,468.535-284.655,468.311L-284.655,468.311z M-279.837,467.959
	c0-0.596-0.373-0.529-0.449,0.08c-0.044,0.355,0.014,0.483,0.193,0.424C-279.953,468.416-279.837,468.189-279.837,467.959z
	 M-271.451,467.643c0-0.148-0.087-0.324-0.193-0.39s-0.193-0.548-0.193-1.071c0-0.987-0.161-1.167-0.586-0.654
	c-0.283,0.341-0.281,1.544,0.003,2.293c0.165,0.435,0.25,0.479,0.581,0.301C-271.625,468.008-271.451,467.792-271.451,467.643
	L-271.451,467.643L-271.451,467.643z M-293.877,467.301c-0.058-0.238-0.163-0.759-0.235-1.156c-0.072-0.398-0.208-0.723-0.302-0.723
	c-0.258,0-0.206,1.492,0.068,1.93C-294.025,467.867-293.749,467.838-293.877,467.301L-293.877,467.301z M-292.659,466.771
	c0-0.424-0.065-0.77-0.145-0.769c-0.334,0.008-0.573,0.325-0.688,0.914c-0.111,0.57-0.08,0.626,0.355,0.626
	C-292.708,467.542-292.659,467.463-292.659,466.771z M-265.936,466.24c0.444-0.584,0.325-0.85-0.352-0.783
	c-0.467,0.045-0.638-0.023-0.689-0.277c-0.051-0.251,0.058-0.337,0.428-0.337c0.353,0,0.496-0.103,0.496-0.354
	c0-0.272-0.158-0.36-0.686-0.38c-0.548-0.021-0.676,0.041-0.636,0.306c0.028,0.184-0.058,0.529-0.19,0.77
	c-0.261,0.475-0.158,0.816,0.247,0.816c0.14,0,0.362,0.13,0.494,0.289C-266.509,466.668-266.249,466.654-265.936,466.24
	L-265.936,466.24L-265.936,466.24z M-267.897,466.215c0.126-0.205-0.427-0.707-0.594-0.54c-0.16,0.16,0.072,0.71,0.3,0.71
	C-268.087,466.385-267.956,466.309-267.897,466.215z M-263.534,465.414c0.259-0.139,0.491-0.137,0.759,0.008
	c0.314,0.168,0.385,0.146,0.385-0.119c0-0.179,0.304-0.619,0.675-0.98c0.705-0.684,0.846-1.021,0.429-1.021
	c-0.448,0-1.104,0.594-1.104,0.998c0,0.328-0.05,0.357-0.282,0.164c-0.227-0.188-0.397-0.152-0.868,0.182
	c-0.322,0.23-0.585,0.541-0.585,0.693C-264.125,465.666-264.028,465.68-263.534,465.414L-263.534,465.414z M-292.743,463.924
	c-0.063-0.064-0.214-0.017-0.335,0.104c-0.165,0.165-0.152,0.302,0.051,0.549c0.251,0.305,0.276,0.297,0.335-0.104
	C-292.656,464.234-292.679,463.986-292.743,463.924L-292.743,463.924z M-258.76,462.852c0.054-0.475,0.004-0.537-0.386-0.482
	c-0.329,0.047-0.464,0.209-0.51,0.609c-0.054,0.475-0.004,0.537,0.386,0.482C-258.941,463.414-258.806,463.252-258.76,462.852z
	 M-226.469,459.686c0.285-1.988,0.575-4.089,0.645-4.668c0.07-0.578,0.334-1.576,0.588-2.217c0.427-1.078,1.143-3.476,2.016-6.748
	c0.197-0.737,0.449-1.432,0.562-1.542c0.222-0.218,0.135,0.38-0.238,1.647c-0.111,0.379-0.168,0.857-0.125,1.061
	c0.064,0.306,0.137,0.26,0.418-0.27c0.186-0.352,1.027-1.546,1.869-2.654c0.842-1.107,1.531-2.066,1.531-2.129
	s-0.13-0.064-0.289-0.004c-0.362,0.14-0.359-0.056,0.006-0.54c0.401-0.53,0.352-0.778-0.16-0.808
	c-0.342-0.02-0.613,0.234-1.178,1.108c-0.404,0.624-0.769,1.134-0.811,1.134c-0.191,0-0.023-0.382,0.58-1.318
	c0.774-1.201,1.107-2.721,1.158-5.281l0.036-1.787l1.888-0.771c1.965-0.803,3.117-1.622,2.564-1.822
	c-0.348-0.125-1.096-1.041-1.096-1.341c0-0.116,0.108-0.213,0.241-0.217c0.376-0.009-0.413-0.558-1.687-1.171
	c-1.332-0.642-1.214-0.672,1.014-0.254c0.893,0.168,1.68,0.247,1.75,0.178c0.215-0.217-0.588-0.674-1.211-0.689
	c-0.324-0.009-0.48-0.059-0.348-0.113c0.362-0.146,0.289-0.643-0.098-0.646c-0.24-0.002-0.268-0.047-0.096-0.155
	c0.191-0.122,0.189-0.224-0.012-0.499c-0.337-0.461-1.781-0.615-2.596-0.277c-0.978,0.404-3.311,2.504-3.316,2.984
	c-0.008,0.716-0.556,1.761-1.14,2.177c-0.679,0.483-2.089,2.369-3.563,4.769c-0.598,0.971-1.332,1.924-1.633,2.121
	c-0.301,0.195-1.021,0.92-1.603,1.609c-1.394,1.654-3.263,3.203-5.578,4.627c-2.109,1.297-2.751,1.865-4.081,3.615
	c-0.504,0.662-1.013,1.205-1.132,1.205c-0.149,0-0.143-0.09,0.023-0.29c0.181-0.217,0.186-0.354,0.021-0.553
	c-0.166-0.2-0.148-0.321,0.073-0.505c0.161-0.134,0.292-0.411,0.292-0.617c0-0.362-0.021-0.36-0.592,0.046
	c-0.326,0.231-0.94,0.862-1.366,1.4c-0.755,0.955-0.764,0.983-0.353,1.136c0.268,0.099,0.383,0.262,0.312,0.443
	c-0.074,0.193,0.01,0.289,0.258,0.289c0.202,0,0.422,0.086,0.486,0.192c0.2,0.323,0.676,0.214,0.676-0.154
	c0-0.358,0.344-0.81,0.617-0.81c0.084,0,0.153,0.225,0.153,0.5c0,0.336,0.126,0.532,0.38,0.6c0.239,0.062,0.753,0.791,1.379,1.957
	c1.834,3.412,2.793,4.609,4.025,5.019c0.371,0.124,1.084,0.503,1.583,0.843c0.761,0.517,0.89,0.691,0.794,1.072
	c-0.098,0.389-0.047,0.449,0.346,0.416c0.896-0.075,1.109,0.016,2.415,1.035c1.483,1.157,1.658,1.246,2.49,1.268l0.591,0.016
	L-226.469,459.686L-226.469,459.686L-226.469,459.686z M-294.586,460.253c0-0.825-0.315-0.632-0.503,0.31
	c-0.105,0.525-0.075,0.605,0.189,0.504C-294.691,460.986-294.586,460.715-294.586,460.253z M-254.195,457.796
	c2.656-2.624,3.34-3.505,2.078-2.68c-0.67,0.438-5.259,5.071-5.259,5.31C-257.376,460.855-256.861,460.43-254.195,457.796z
	 M-285.088,460.022c0.396-0.212,0.72-0.299,0.72-0.192c0,0.33,0.341,0.217,1.394-0.461c1.068-0.688,1.696-1.292,2.045-1.972
	c0.196-0.381,0.151-0.417-0.652-0.526c-0.838-0.115-0.892-0.09-1.969,0.926c-0.609,0.574-1.498,1.396-1.975,1.823
	C-286.467,460.465-286.264,460.652-285.088,460.022z M-278.881,458.854c0.468-0.432,0.9-0.779,0.959-0.771
	c0.427,0.052,0.667-0.036,1.036-0.381l0.422-0.393v0.404c0,0.238,0.085,0.353,0.206,0.277c0.124-0.076,0.181,0.016,0.145,0.23
	c-0.042,0.246,0.073,0.375,0.373,0.418c0.274,0.039,0.434-0.039,0.434-0.211c0-0.15,0.173-0.43,0.385-0.622
	c0.499-0.451,0.491-0.215-0.022,0.614c-0.224,0.362-0.368,0.698-0.32,0.746c0.048,0.049,0.991-0.594,2.095-1.426
	c1.949-1.47,4.61-4.062,4.61-4.491c0-0.127-0.212-0.171-0.528-0.11c-0.291,0.055-0.689,0.015-0.886-0.091
	c-0.272-0.146-0.458-0.101-0.773,0.189c-0.229,0.21-0.955,0.651-1.615,0.98c-0.659,0.329-1.39,0.858-1.625,1.175
	c-0.413,0.559-1.725,1.545-2.055,1.545c-0.09,0-0.124-0.271-0.075-0.604l0.089-0.605l-0.749,0.141
	c-1.089,0.203-2.606,0.971-3.25,1.642c-0.545,0.569-0.548,0.584-0.125,0.584c0.239,0,0.597-0.087,0.795-0.193
	c0.718-0.384,0.555,0.157-0.197,0.655c-0.771,0.51-1.022,1.08-0.475,1.08C-279.865,459.637-279.35,459.284-278.881,458.854
	L-278.881,458.854z M-252.686,459.396c0.248-0.182,0.3-0.397,0.207-0.864l-0.125-0.622l-0.57,0.406
	c-0.689,0.491-0.883,0.916-0.52,1.146C-253.324,459.695-253.073,459.679-252.686,459.396z M-287.628,459.005
	c0.649-0.438,1.146-1.354,0.878-1.62c-0.23-0.23-1.334,0.479-2.015,1.295l-0.638,0.765h0.561
	C-288.534,459.444-287.987,459.246-287.628,459.005L-287.628,459.005z M-293.155,458.168c0.535-1.169,0.601-1.528,0.311-1.707
	c-0.243-0.15-1.164,1.672-1.164,2.303C-294.008,459.553-293.686,459.328-293.155,458.168L-293.155,458.168z M-288.299,455.293
	c0.176-0.268,0.265-0.542,0.198-0.609c-0.166-0.166-0.895,0.518-0.895,0.838C-288.995,455.938-288.646,455.822-288.299,455.293
	L-288.299,455.293z M-250.492,454.962c0.52-0.567,0.749-1.302,0.406-1.3c-0.969,0.009-1.699,0.268-1.699,0.602
	c0,0.227,0.137,0.361,0.367,0.361c0.272,0,0.342,0.1,0.267,0.385C-251.285,455.521-250.983,455.499-250.492,454.962
	L-250.492,454.962z M-290.882,454.466c0.348-0.3,1.674-1.266,2.947-2.147c2.718-1.883,3.349-2.364,3.363-2.566
	c0.017-0.242-0.92,0.307-3.572,2.088c-2.409,1.619-3.744,2.694-3.744,3.016C-291.887,455.152-291.511,455.006-290.882,454.466z
	 M-240.707,453.594c-0.154-0.738-0.599-1.476-0.891-1.476c-0.291,0-0.074,1.257,0.319,1.858
	C-240.876,454.591-240.546,454.37-240.707,453.594z M-290.962,453.132c0.218-0.503,0.363-0.946,0.324-0.985
	c-0.164-0.164-1.044,1.065-1.05,1.466C-291.698,454.317-291.386,454.111-290.962,453.132L-290.962,453.132z M-251.631,452.487
	c0.445-0.327,0.809-0.718,0.809-0.868c0-0.373-0.127-0.348-1.091,0.218c-0.535,0.313-0.837,0.626-0.837,0.868
	C-252.75,453.217-252.576,453.183-251.631,452.487z M-263.027,451.33c0.115-0.116,1.103-0.422,2.193-0.68
	c2.915-0.688,6.791-2.427,6.338-2.842c-0.047-0.043-1.04,0.344-2.206,0.857c-2.399,1.06-3.671,1.275-1.446,0.245
	c1.469-0.68,3.277-1.798,3.277-2.028c0.001-0.243-0.875,0.09-1.942,0.738c-0.591,0.36-1.416,0.705-1.832,0.766l-0.756,0.112
	l0.867-0.567c0.478-0.312,0.987-0.713,1.132-0.89c0.434-0.528-0.151-0.407-1.179,0.244c-0.508,0.322-0.923,0.478-0.962,0.361
	c-0.085-0.257-3.426,1.313-3.426,1.609c0,0.137,0.25,0.172,0.701,0.099l0.701-0.113l-0.445,0.475
	c-0.245,0.26-0.544,0.474-0.665,0.474c-0.203,0-1.063,1.008-1.063,1.245C-263.739,451.62-263.245,451.547-263.027,451.33z
	 M-282.801,450.85c1.113-0.569,0.679-1.34-0.487-0.864c-0.329,0.134-0.793,0.288-1.032,0.343c-0.416,0.096-0.587,0.609-0.299,0.896
	C-284.45,451.395-283.473,451.191-282.801,450.85L-282.801,450.85z M-287.492,450.389c0.435-0.314,0.881-0.742,0.993-0.951
	c0.418-0.783-0.574-0.688-1.209,0.115c-0.193,0.245-0.497,0.447-0.675,0.451c-0.178,0.003-0.479,0.22-0.67,0.481l-0.346,0.476h0.559
	C-288.527,450.961-287.935,450.71-287.492,450.389L-287.492,450.389z M-250.243,448.283c0-0.201-0.123-0.412-0.273-0.471
	c-0.353-0.135-0.589,0.466-0.263,0.672C-250.391,448.732-250.243,448.677-250.243,448.283L-250.243,448.283z M-262.284,446.977
	c0.436-0.744,0.576-0.852,0.977-0.75c0.328,0.082,0.504,0.025,0.585-0.188c0.064-0.168,0.233-0.261,0.375-0.206
	c0.148,0.057,0.401-0.144,0.595-0.472c0.185-0.312,0.383-0.572,0.439-0.576c0.057-0.004,0.6-0.033,1.207-0.065l1.103-0.059
	l-0.477,0.442c-0.267,0.246-0.477,0.658-0.477,0.933c0,0.429,0.079,0.489,0.626,0.472c0.892-0.027,1.548-0.24,1.646-0.533
	c0.061-0.183-0.104-0.236-0.602-0.193c-0.377,0.033-0.749-0.003-0.825-0.079c-0.172-0.172,0.038-0.188,1.854-0.147
	c0.795,0.019,1.71,0.125,2.033,0.238c0.486,0.17,0.726,0.133,1.404-0.213c1.324-0.676,0.868-0.85-1.824-0.694
	c-2.042,0.118-2.385,0.097-2.385-0.148c0-0.437,0.598-0.509,3.201-0.386c1.873,0.089,2.391,0.172,2.391,0.385
	c0,0.148,0.074,0.225,0.166,0.168s0.319,0.064,0.504,0.27c0.283,0.312,0.303,0.472,0.122,0.99c-0.118,0.34-0.173,0.662-0.119,0.715
	c0.185,0.186,1.044-0.338,1.368-0.832c0.291-0.444,0.295-0.523,0.032-0.732c-0.161-0.128-0.334-0.464-0.382-0.746
	c-0.07-0.4,0.012-0.559,0.371-0.723c0.65-0.297,0.829-0.264,0.829,0.151c0,0.532,0.507,0.864,1.517,0.991l0.893,0.113l-1.107,0.244
	c-0.61,0.135-1.109,0.271-1.109,0.306c0,0.033,0.111,0.273,0.246,0.534l0.245,0.473l1.731-0.543c2.27-0.713,2.523-0.602,0.43,0.189
	c-1.71,0.646-2.705,1.332-1.577,1.089c1.718-0.371,5.96-2.521,5.965-3.022c0.002-0.164,0.288-0.538,0.635-0.83
	c0.583-0.491,0.608-0.559,0.328-0.868c-0.282-0.312-0.263-0.345,0.265-0.45c0.312-0.062,1.119-0.451,1.792-0.863
	c1.523-0.932,2.498-1.262,3.244-1.098c0.438,0.096,0.578,0.058,0.578-0.157c0-0.156-0.15-0.342-0.334-0.412
	c-0.265-0.102-0.136-0.251,0.626-0.726c0.529-0.328,1.677-1.144,2.552-1.811c0.875-0.668,1.707-1.283,1.849-1.368
	c0.143-0.085,0.412-0.392,0.6-0.683s0.414-0.483,0.503-0.428c0.089,0.055,0.255-0.072,0.366-0.282c0.113-0.21,0.648-0.886,1.191-1.5
	s1.106-1.399,1.254-1.744c0.146-0.345,0.352-0.626,0.455-0.626c0.281,0,1.307-2.379,1.456-3.375c0.071-0.477,0.197-0.867,0.28-0.867
	c0.212,0,0.408-0.576,0.271-0.798c-0.073-0.118-0.195-0.117-0.338,0.001c-0.166,0.137-0.228-0.102-0.236-0.906
	c-0.008-0.602-0.246-1.873-0.531-2.827c-0.284-0.954-0.495-2.073-0.469-2.485c0.053-0.814-0.317-1.174-0.527-0.514
	c-0.178,0.562-0.414,0.491-0.654-0.197c-0.113-0.326-0.291-0.539-0.396-0.475c-0.104,0.064-0.324-0.146-0.491-0.469
	c-0.356-0.689-0.87-0.777-0.873-0.15c-0.001,0.354-0.237,0.174-1.269-0.964c-0.994-1.096-1.383-1.397-1.803-1.397
	c-0.468,0-0.524-0.062-0.443-0.482c0.139-0.73-0.27-0.584-0.825,0.296c-0.271,0.428-0.661,0.948-0.87,1.157
	c-0.209,0.208-0.379,0.486-0.379,0.619c0,0.389-1.284,1.302-1.831,1.302c-0.276,0-0.747,0.127-1.048,0.282
	c-0.979,0.507-1.998,2.031-1.355,2.031c0.109,0-0.021,0.324-0.289,0.72c-0.27,0.396-0.489,0.862-0.489,1.038
	s-0.239,0.475-0.53,0.666c-0.846,0.553-2.527,2.209-3.209,3.16c-0.67,0.935-0.671,0.941-1.297,7.176
	c-0.363,3.617,0.295,7.178,1.719,9.287c0.459,0.679,0.535,0.917,0.348,1.073c-0.544,0.452-1.703,0.782-3.179,0.905
	c-1.515,0.125-1.563,0.117-1.563-0.287c0-0.35-0.078-0.397-0.488-0.295c-0.913,0.229-1.134,0.175-1.389-0.345
	c-0.23-0.472-0.201-0.605,0.329-1.467c1.042-1.694,1.747-3.485,1.934-4.915c0.1-0.764,0.267-1.68,0.371-2.033
	c0.234-0.793,0.015-2.012-0.649-3.598c-0.266-0.637-0.486-1.256-0.488-1.377c-0.013-0.592-0.671-0.412-1.613,0.44
	c-0.887,0.8-2.986,1.996-3.504,1.997c-0.107,0-1.19,0.998-2.406,2.217c-1.408,1.411-2.357,2.217-2.613,2.217
	c-0.292,0-0.827,0.596-1.951,2.17c-2.168,3.034-3.016,4.326-3.603,5.487c-0.28,0.553-0.751,1.29-1.047,1.639
	c-0.537,0.632-1.005,1.526-1.005,1.919C-263.354,448.457-262.828,447.904-262.284,446.977z M-273.32,447.092
	c0.657-0.326,1.335-0.721,1.508-0.876c0.269-0.243,0.329-0.245,0.418-0.01c0.12,0.312-0.204,0.706-0.578,0.706
	c-0.138,0-0.251,0.174-0.251,0.387c0,0.277,0.129,0.385,0.462,0.385c0.369,0,0.582-0.229,1.05-1.128
	c0.632-1.214,0.635-1.956,0.009-1.956c-0.199,0-0.601,0.27-0.893,0.6s-1.006,0.811-1.585,1.068
	c-1.071,0.476-1.742,0.959-1.742,1.254C-274.921,447.802-274.552,447.703-273.32,447.092L-273.32,447.092L-273.32,447.092z
	 M-251.882,447.003c1.224-0.075,1.345-0.544,0.163-0.631c-0.987-0.071-2.428,0.464-1.992,0.74c0.158,0.101,0.416,0.13,0.576,0.066
	C-252.977,447.115-252.412,447.036-251.882,447.003z M-258.353,446.832c0.175-0.213,0.17-0.369-0.025-0.688
	c-0.328-0.536-1.211-0.391-1.891,0.312l-0.482,0.498l0.626-0.084c0.345-0.046,0.626-0.012,0.626,0.076
	C-259.498,447.214-258.596,447.123-258.353,446.832z M-268.478,443.852c0.344-0.291,0.361-0.289,0.247,0.024
	c-0.162,0.443-0.029,0.426,0.7-0.094c0.333-0.237,0.737-0.413,0.897-0.392c0.395,0.053,7.328-8.689,7.085-8.933
	c-0.169-0.169-1.498,1.099-2.647,2.526c-0.598,0.742-1.211,1.373-1.363,1.404c-0.152,0.029-0.58,0.388-0.951,0.795
	c-0.371,0.406-0.981,1.076-1.356,1.487s-1.394,1.382-2.265,2.157c-1.559,1.389-2.016,2.008-1.15,1.561
	C-269.043,444.266-268.682,444.023-268.478,443.852L-268.478,443.852z M-245.354,442.382c0.145-0.375,0.404-0.366,0.798,0.028
	c0.278,0.277,0.351,0.281,0.599,0.033c0.283-0.283,0.188-0.929-0.137-0.929c-0.096,0-0.173-0.13-0.173-0.29
	c0-0.379-0.074-0.367-0.973,0.145c-0.7,0.4-0.948,0.859-0.634,1.174C-245.665,442.751-245.473,442.691-245.354,442.382
	L-245.354,442.382z M-245.717,428.652c0.181-0.967,0.533-1.606,1.633-2.971c1.479-1.837,1.934-3.897,0.973-4.412
	c-0.336-0.18-0.384-0.145-0.384,0.272c0,0.263,0.087,0.53,0.192,0.597c0.494,0.305-0.12,1.773-1.37,3.277
	c-0.948,1.141-1.521,2.381-1.521,3.293C-246.194,429.588-245.886,429.551-245.717,428.652z M-213.936,426.442
	c-0.4-0.685-1.271-1.396-1.578-1.29c-0.113,0.039,0.245,0.678,0.797,1.42c0.855,1.151,1.013,1.285,1.068,0.91
	C-213.613,427.24-213.742,426.772-213.936,426.442L-213.936,426.442z M-216.089,424.115c-0.104-0.104-0.282-0.131-0.397-0.06
	c-0.328,0.202-0.247,1.199,0.127,1.575c0.322,0.324,0.34,0.301,0.398-0.494C-215.928,424.678-215.985,424.219-216.089,424.115
	L-216.089,424.115z M-244.496,424.234c0.316-0.565-0.19-4.326-0.67-4.971c-0.277-0.373-0.291-0.303-0.184,0.947
	c0.064,0.742,0.117,2.021,0.117,2.844c0.002,1.176,0.062,1.494,0.281,1.494C-244.797,424.549-244.592,424.406-244.496,424.234
	L-244.496,424.234z M-219.83,423.326c0.27-0.594,0.09-0.807-0.674-0.805c-0.545,0.002-0.627,0.067-0.627,0.5
	c0,0.607,0.133,0.756,0.676,0.756C-220.203,423.777-219.954,423.598-219.83,423.326z M-215.732,423.574
	c0-0.588-3.117-1.125-3.231-0.557c-0.045,0.225,0.198,0.352,0.959,0.5C-216.597,423.793-215.732,423.814-215.732,423.574z
	 M-242.146,421.357c0-0.165,0.195-0.639,0.434-1.052c0.325-0.565,0.379-0.808,0.213-0.974s-0.346-0.008-0.723,0.635
	c-0.502,0.857-0.613,1.32-0.373,1.561C-242.371,421.752-242.146,421.667-242.146,421.357z M-237.814,418.951
	c0.062-0.959,0.456-1.946,1.093-2.732c0.345-0.426,0.378-0.574,0.182-0.811c-0.395-0.475-0.056-0.733,0.776-0.593
	c0.664,0.112,0.752,0.083,0.752-0.257c0-0.472-1.025-0.891-1.524-0.624c-0.403,0.216-1.753,2.931-1.755,3.528
	c0,0.238-0.093,0.766-0.205,1.17c-0.153,0.551-0.146,0.808,0.029,1.019C-238.09,420.105-237.873,419.874-237.814,418.951
	L-237.814,418.951L-237.814,418.951z M-242.572,416.557c0.096-2.08,0.264-2.662,0.719-2.488c0.191,0.074,0.286-0.012,0.286-0.258
	c0-0.643,0.362-0.825,0.961-0.482c0.638,0.367,1.858,0.151,2.194-0.387c0.25-0.4,0.012-0.699-0.305-0.382
	c-0.357,0.356-1.588,0.279-1.953-0.124c-0.504-0.557-0.431-1.209,0.258-2.301c0.785-1.244,0.591-1.58-0.307-0.528
	c-0.9,1.057-1.488,2.301-1.326,2.809c0.098,0.31-0.014,0.534-0.459,0.921c-0.662,0.576-0.699,0.806-0.634,3.982
	C-243.086,419.858-242.701,419.34-242.572,416.557z"/>
<path id="path3834" inkscape:connector-curvature="0" fill="#CCCCCC" d="M-275.424,490.588c-0.329-0.15-1.466-0.334-2.526-0.407
	l-1.927-0.133l-2.728-2.851c-1.5-1.568-2.728-2.912-2.728-2.987c0-0.534-1.667-3.263-2.667-4.367l-0.471-0.52l0.556-0.118
	c0.306-0.065,0.694-0.145,0.862-0.178c0.168-0.031,0.63,0.184,1.026,0.479c0.684,0.51,0.753,0.523,1.375,0.264
	c0.477-0.199,1.527-0.274,3.855-0.274c2.784,0,3.578-0.075,6.097-0.578c3.141-0.628,3.632-0.679,3.632-0.386
	c0,0.295,0.539,0.229,0.716-0.088c0.086-0.154,1.727-0.76,3.645-1.346c4.602-1.406,6.793-2.343,8.234-3.52
	c0.3-0.244,0.69-0.445,0.868-0.445c0.178,0,0.568-0.389,0.868-0.863c0.656-1.037,1.484-1.764,2.456-2.152
	c0.641-0.256,0.762-0.418,1.078-1.438c0.273-0.885,0.457-1.176,0.8-1.264c0.305-0.078,0.435-0.242,0.412-0.524
	c-0.018-0.226-0.022-0.519-0.011-0.651c0.025-0.286,0.719-0.324,0.889-0.048c0.351,0.565,1.639-0.396,1.639-1.224
	c0-0.425,0.132-0.5,1.374-0.779c1.682-0.381,2.235-0.387,2.907-0.036c0.287,0.149,0.895,0.274,1.35,0.276
	c0.455,0.003,1.588,0.271,2.516,0.595s1.877,0.589,2.11,0.589c0.331,0,0.374,0.053,0.193,0.232
	c-0.128,0.127-0.231,0.385-0.231,0.572c0,0.395,0.528,0.288,0.91-0.186c0.208-0.257,0.467-0.229,2.217,0.243
	c1.426,0.384,2.403,0.528,3.482,0.516c1.406-0.017,1.512,0.011,1.674,0.436c0.195,0.512,1.066,0.882,2.108,0.896
	c0.382,0.004,1.029,0.127,1.438,0.273c0.408,0.146,1.016,0.225,1.35,0.177c0.529-0.077,0.749,0.052,1.74,1.021
	c1.066,1.043,1.123,1.143,0.93,1.652c-0.111,0.299-0.666,1.188-1.23,1.974c-0.975,1.358-1.097,1.456-2.402,1.933
	c-0.756,0.277-1.971,0.587-2.699,0.688c-2.85,0.399-5.584,1.392-7.605,2.759c-1.067,0.723-4.897,2.08-7.984,2.83
	c-1.28,0.312-10.343,1.723-11.062,1.723c-0.12,0-0.217-0.129-0.217-0.285c0-0.316-0.476-0.473-1.639-0.539
	c-0.631-0.035-0.767,0.018-0.745,0.294c0.035,0.437-0.064,0.421-0.991-0.149c-0.845-0.521-1.639-0.626-1.639-0.217
	c0,0.143,0.369,0.417,0.819,0.609c0.451,0.193,1.162,0.498,1.58,0.678l0.76,0.326l-0.76,0.244c-0.418,0.135-0.848,0.312-0.954,0.393
	c-0.106,0.08-0.968,0.338-1.915,0.574c-2.989,0.743-5.552,1.982-9.074,4.39c-1.325,0.905-1.692,1.063-2.603,1.124
	C-274.416,490.836-275.056,490.757-275.424,490.588L-275.424,490.588z M-272.966,488.434c0.992-0.614,2.107-1.408,2.479-1.766
	l0.675-0.648l-0.53,0.115c-0.292,0.064-0.53,0.09-0.53,0.059c0-0.03,0.521-0.436,1.157-0.898s1.157-0.918,1.157-1.011
	c0-0.181-1.56,0.565-2.741,1.311c-1,0.632-1.108,0.569-0.36-0.202c0.351-0.362,0.589-0.738,0.529-0.834
	c-0.139-0.226,1.928-1.461,4.385-2.623c1.051-0.496,1.859-0.953,1.796-1.016c-0.149-0.149-1.918,0.434-3.079,1.016
	c-0.503,0.252-0.916,0.375-0.916,0.272c0-0.302-1.958,0.462-3.349,1.307c-2.254,1.369-5.823,4.078-6.188,4.697l-0.353,0.597
	l0.559-0.116c0.331-0.069,1.157-0.691,2.023-1.524c0.806-0.773,1.999-1.732,2.651-2.131c1.157-0.705,1.186-0.712,1.186-0.279
	c0,0.34-0.346,0.668-1.494,1.416c-0.822,0.535-1.687,1.075-1.923,1.2c-0.453,0.24-0.927,0.951-0.751,1.127
	c0.057,0.058,0.897-0.384,1.867-0.98s1.803-1.085,1.853-1.085s-0.48,0.562-1.176,1.248c-0.775,0.764-1.266,1.407-1.266,1.659
	C-275.307,489.861-275.221,489.828-272.966,488.434L-272.966,488.434z M-278.732,486.75c1.961-1.512,4.49-3.161,6.028-3.933
	c1.281-0.642,2.18-1.301,2.01-1.472c-0.146-0.147-2.76,1.133-4.806,2.354c-2.279,1.36-5.013,3.578-5.013,4.066
	C-280.512,488.103-280.415,488.047-278.732,486.75L-278.732,486.75L-278.732,486.75z M-260.789,484
	c0.169-0.169-1.383-1.268-1.662-1.175c-0.132,0.044,0.027,0.329,0.385,0.687C-261.48,484.098-261.051,484.262-260.789,484
	L-260.789,484z M-252.908,480.238c0.045-0.293,0.221-0.43,0.609-0.471c0.301-0.031,0.752-0.191,1.005-0.357
	c0.253-0.165,0.638-0.301,0.857-0.301s0.699-0.125,1.067-0.279c0.584-0.244,0.668-0.244,0.668,0c0,0.425,0.336,0.338,1.12-0.29
	c0.749-0.6,2.542-1.165,3.692-1.165c0.592,0,0.774,0.123,1.359,0.913c0.649,0.877,1.539,1.404,1.294,0.767
	c-0.082-0.213,0.087-0.317,0.667-0.41c0.912-0.146,2.253-1.299,1.652-1.422c-0.184-0.037-0.588,0.111-0.896,0.331
	c-0.944,0.672-0.895,0.45,0.145-0.649c0.547-0.577,0.992-1.098,0.992-1.156c0-0.279-0.459-0.036-1.438,0.762
	c-0.588,0.479-1.068,0.781-1.068,0.674s-0.177-0.194-0.393-0.194s-0.608-0.142-0.873-0.315c-0.729-0.478-2.247-0.371-4.295,0.302
	c-2.252,0.74-2.416,0.739-1.361-0.011c1.597-1.134,2.773-2.463,1.668-1.883c-0.238,0.125-0.857,0.562-1.375,0.971
	c-0.518,0.409-1.125,0.74-1.35,0.736c-0.328-0.006-0.184-0.209,0.73-1.031c0.682-0.613,1.082-1.112,1-1.246
	c-0.236-0.383-0.578-0.246-1.139,0.459c-0.702,0.879-2.43,2.244-2.66,2.102c-0.252-0.155,0.484-1.148,1.802-2.43
	c0.666-0.648,1.039-1.146,0.917-1.222c-0.115-0.07-0.312-0.042-0.44,0.062c-0.128,0.105-0.411,0.222-0.631,0.258
	c-0.219,0.036-0.87,0.624-1.446,1.304c-0.576,0.681-1.162,1.275-1.303,1.322c-0.48,0.16,0.481-1.391,1.688-2.721
	c0.645-0.711,1.17-1.334,1.17-1.385c0-0.303-0.541,0.033-1.482,0.92c-1.175,1.105-1.207,1.021-0.352-0.921
	c0.301-0.687,0.719-1.191,1.438-1.735c0.607-0.461,1.19-1.116,1.459-1.645c0.482-0.943,1.105-3.092,0.945-3.252
	c-0.25-0.25-0.764,0.392-0.885,1.104c-0.186,1.087-0.411,1.454-1.805,2.938c-1.488,1.583-1.805,2.191-2.719,5.217
	c-0.71,2.354-0.948,4.518-0.598,5.426C-253.291,480.779-252.982,480.738-252.908,480.238L-252.908,480.238L-252.908,480.238z
	 M-235.885,477.319c0.527-0.311,1.332-0.821,1.789-1.136c1.638-1.126,2.8-1.533,4.262-1.49c1.02,0.03,1.488-0.048,1.965-0.326
	c0.754-0.442,1.17-1.047,0.81-1.179c-0.132-0.048-0.241-0.22-0.241-0.383c0-0.296-0.654-0.289-1.35,0.013
	c-0.381,0.166-0.4-0.842-0.024-1.295c0.146-0.175,0.199-0.318,0.119-0.318c-0.341,0-1.612,0.941-3.439,2.546
	c-1.076,0.945-2.521,2.03-3.21,2.413c-1.383,0.765-2.877,1.811-2.887,2.02C-238.101,478.395-236.939,477.939-235.885,477.319z
	 M-235.841,475.101c0.319-0.202,0.562-1.774,0.274-1.774c-0.42,0-0.988,0.775-0.988,1.35
	C-236.555,475.249-236.307,475.396-235.841,475.101z"/>
<path id="path3060" inkscape:connector-curvature="0" fill="#CCCCCC" d="M-261.832,411.498c0.159-0.463,2.222-2.805,3.256-3.696
	c1.745-1.505,3.129-2.331,5.113-3.052c1.289-0.467,5.276-0.68,7.904-0.422c2.264,0.224,2.986,0.477,2.698,0.943
	c-0.108,0.174-0.859,0.195-3.06,0.082c-4.197-0.215-6.334-0.155-7.6,0.211c-1.83,0.529-3.965,1.938-6.271,4.139
	C-260.957,410.816-261.875,411.624-261.832,411.498z"/>
<path id="path3062" inkscape:connector-curvature="0" fill="#CCCCCC" d="M-257.549,428.782c1.358-1.297,2.755-2.802,3.105-3.345
	c0.351-0.542,1.336-1.817,2.19-2.834c0.855-1.016,1.679-2.145,1.83-2.506c0.152-0.362,0.504-0.875,0.783-1.141
	c0.28-0.265,0.51-0.631,0.512-0.812c0.002-0.182,0.17-0.485,0.371-0.675c0.203-0.189,0.514-0.847,0.69-1.46
	c0.178-0.612,0.65-1.919,1.051-2.903c0.399-0.983,0.921-2.369,1.157-3.078c0.236-0.71,0.523-1.29,0.639-1.29
	s0.356-0.132,0.535-0.294s0.463-0.24,0.633-0.176c0.269,0.104,0.246,0.219-0.176,0.888c-0.268,0.423-0.51,1.044-0.541,1.38
	c-0.029,0.336-0.119,0.76-0.197,0.939c-0.079,0.182-0.089,0.417-0.022,0.525c0.067,0.107-0.099,0.252-0.368,0.318
	c-0.51,0.129-0.604,0.375-0.313,0.833c0.114,0.182-0.009,0.561-0.378,1.16c-0.301,0.49-0.627,1.243-0.723,1.673
	c-0.216,0.957-2.211,3.96-3.293,4.955c-0.438,0.402-0.975,1.082-1.193,1.511c-0.424,0.831-1.822,2.842-3.162,4.55
	c-1.18,1.503-3.951,3.671-5.116,4.002C-259.853,431.094-259.169,430.33-257.549,428.782z"/>
<path id="path3064" inkscape:connector-curvature="0" fill="#CCCCCC" d="M0,0"/>
<path id="path3066" inkscape:connector-curvature="0" fill="#CCCCCC" d="M-299.333,460.408c0.426-3.448,1.887-6.58,4.079-8.742
	c0.661-0.652,1.204-1.275,1.205-1.385c0.005-0.366,1.134-1.44,1.514-1.44c0.207,0,0.659-0.322,1.004-0.716
	c0.547-0.623,3.024-2.099,3.21-1.912c0.037,0.037-0.39,0.416-0.95,0.842c-3.227,2.456-5.838,5.296-6.911,7.516
	c-0.319,0.66-0.695,1.268-0.836,1.35c-0.205,0.12-1.141,2.177-2.306,5.066C-299.388,461.146-299.392,460.886-299.333,460.408z"/>
</svg>
