<?xml version="1.0" encoding="utf-8"?>
<!-- Generator: Adobe Illustrator 15.1.0, SVG Export Plug-In . SVG Version: 6.00 Build 0)  -->
<!DOCTYPE svg PUBLIC "-//W3C//DTD SVG 1.1//EN" "http://www.w3.org/Graphics/SVG/1.1/DTD/svg11.dtd">
<svg version="1.1" id="Layer_1" xmlns="http://www.w3.org/2000/svg" xmlns:xlink="http://www.w3.org/1999/xlink" x="0px" y="0px"
	 width="100px" height="100px" viewBox="-305.5 396.5 100 100" enable-background="new -305.5 396.5 100 100" xml:space="preserve">
<circle display="none" fill="#FF4400" cx="50" cy="50" r="48"/>
<circle display="none" fill="#FFFFFF" cx="50" cy="50" r="33"/>
<path id="taxa344" fill="#010101" d="M-253.884,439.996c0,0-0.015-5.026,2.077-7.992c2.101-2.859,4.67-7.686,7.408-10.6
	c2.092-2.967,7.604-8.372,8.602-9.211c1.217-0.748,3.46-2.017,5.861-2.655c0,0,5.015,4.692,7.029,15.425
	c2.277,10.068,0.872,12.332,0.872,12.332s-3.86,1.089-9.448,2.01c0,0-0.078,0.328,0.809,0.676c1.011,0.555,5.055,2.765,7.174,4.933
	c1.891,3.255,1.271,4.701,1.271,4.701s-1.756,3.147-1.662,4.211c0.084,0.954,0.64,2.401,1.613,2.53c0,0-0.379,0.567-1.094,0.953
	c-0.264,0.664-0.895,2.004-0.732,2.631c0.029,0.317,0.912,1.844,2.578,2.554c1.139,0.756,0.094,1.061-0.543,1.116
	c-0.955,0.084-2.545,0.225-2.808,0.89c-0.379,0.567-0.757,1.137-0.612,1.552c0.24,0.301,1.146,0.861,1.465,0.834
	c0.528-0.046,1.369-0.228,1.688-0.257c0.433,0.069,1.206,0.323,1.146,0.863c-0.06,0.541-1.472,1.521-2.852,1.643
	c-0.855-0.032-2.357-1.29-2.812-1.569c-0.453-0.281-1.291-1.277-2.119-0.989c-0.944,0.188-1.719,1.112-2.157,2.222
	c-0.118,1.081-1.507,1.098-1.661,0.575c-0.164-0.629-0.498-0.812-1.011-0.556c-0.397,0.357-1.948-0.254-2.546-0.948
	c-0.383-0.716-2.193-1.843-2.637-2.015c-0.347-0.291-9.371-5.594-13.065-12.326c0,0,0.583,5.402,0.036,7.699
	c0,0-0.932,1.578-0.894,2.004c-0.079,0.326-1.264,0.22-3.239-1.533c-1.183-1.284-1.897-4.538-1.934-4.965
	c-0.075-0.849-2.083,6.709-5.526,10.117c-2.383,3.311-2.784,4.844-2.851,5.277c-0.06,0.54-0.237,2.16-2.863,2.714l-0.284,1.63
	c0,0-2.974-2.199-4.248-2.088c-1.274,0.112-2.28,0.844-2.523,1.721c-0.475,0.685-2.845,2.924-4.396,2.312
	c-1.598-1.143,0.218-2.373,0.643-2.41c0.646,0.049,2.334-0.206,2.116-1.471c-0.122-1.379-2.563-1.163-3.181-0.895
	c-0.522,0.15,0.531-3.684,0.225-4.728c-0.625-1.015-1.423-1.586-2.591-1.483c0,0,1.184-2.351-0.365-4.14
	c-1.521-1.472-3.95-5.962-2.178-7.724c1.417-3.336,4.115-5.498,4.898-6.314c0,0-6.572,0.688-9.163-0.798
	c0,0-1.233-4.276-1.916-4.751c-0.422-1.139-0.139-6.406-1.208-10.055c-1.595-2.32,0.769-13.119,2.129-13.453
	c0.84-0.182,5.938-1.807,15.385,4.633c8.983,6.054,14.97,10.874,16.425,15.238c0,0,1.171-1.279,2.55-1.401
	C-256.251,438.602-254.788,439.436-253.884,439.996z"/>
</svg>
