<?xml version="1.0" encoding="utf-8"?>
<!-- Generator: Adobe Illustrator 15.1.0, SVG Export Plug-In . SVG Version: 6.00 Build 0)  -->
<!DOCTYPE svg PUBLIC "-//W3C//DTD SVG 1.1//EN" "http://www.w3.org/Graphics/SVG/1.1/DTD/svg11.dtd">
<svg version="1.1" id="a" xmlns="http://www.w3.org/2000/svg" xmlns:xlink="http://www.w3.org/1999/xlink" x="0px" y="0px"
	 width="100.002px" height="100px" viewBox="-305.501 396.5 100.002 100" enable-background="new -305.501 396.5 100.002 100"
	 xml:space="preserve">
<path id="b" d="M-209.836,404.023c-2.074-0.426-5.69,0.318-8.829,1.17c-3.138,0.851-8.191,4.574-11.062,6.701
	c-2.873,2.129-9.309,8.617-11.276,10.852s-8.563,11.01-10.267,13.723c-0.402,0.643-0.654,1.247-0.808,1.799
	c-0.133-0.281-0.265-0.561-0.394-0.836c-0.002-0.006-0.006-0.011-0.008-0.016c0.354-0.372,0.571-0.873,0.571-1.427
	c0-1.146-0.929-2.074-2.073-2.074c-0.033,0-0.062,0.004-0.094,0.005c0.062-0.305,0.112-0.566,0.072-0.777l0.087,0.063
	c0,0,0.179-0.251,0.49-0.69c0.155-0.223,0.349-0.484,0.575-0.779c0.117-0.146,0.242-0.301,0.373-0.465
	c0.136-0.16,0.278-0.328,0.428-0.504c0.152-0.174,0.311-0.354,0.474-0.541c0.169-0.184,0.343-0.371,0.522-0.566
	c0.363-0.385,0.746-0.783,1.164-1.186c0.414-0.402,0.839-0.828,1.25-1.274c0.416-0.445,0.834-0.899,1.24-1.366
	c0.408-0.465,0.801-0.943,1.181-1.43c0.089-0.123,0.178-0.245,0.267-0.366l0.133-0.183c0.049-0.067,0.084-0.131,0.127-0.196
	c0.086-0.13,0.159-0.261,0.23-0.392c0.074-0.131,0.143-0.262,0.207-0.393c0.268-0.52,0.494-1.034,0.714-1.518
	c0.224-0.483,0.453-0.933,0.668-1.348c0.215-0.414,0.401-0.798,0.556-1.143c0.151-0.346,0.268-0.654,0.354-0.91
	c0.095-0.254,0.089-0.482,0.052-0.65c-0.02-0.084-0.043-0.151-0.062-0.197c-0.024-0.049-0.036-0.073-0.036-0.073l-0.201-0.071
	c0,0-0.024,0.012-0.074,0.034c-0.045,0.024-0.106,0.06-0.174,0.112c-0.135,0.104-0.285,0.273-0.375,0.527
	c-0.099,0.25-0.21,0.555-0.323,0.912c-0.111,0.357-0.228,0.764-0.351,1.211c-0.126,0.445-0.267,0.926-0.456,1.418
	c-0.191,0.491-0.41,1.002-0.653,1.52c-0.06,0.13-0.122,0.259-0.19,0.386c-0.064,0.129-0.131,0.257-0.207,0.378
	c-0.036,0.061-0.071,0.128-0.109,0.182l-0.127,0.187c-0.085,0.124-0.17,0.249-0.256,0.374c-0.354,0.48-0.727,0.967-1.119,1.439
	s-0.787,0.944-1.197,1.389c-0.404,0.451-0.816,0.876-1.226,1.283c-0.41,0.406-0.796,0.817-1.154,1.207
	c-0.356,0.394-0.688,0.77-0.993,1.117c-0.15,0.178-0.293,0.346-0.431,0.508c-0.133,0.164-0.259,0.319-0.378,0.467
	c-0.23,0.3-0.426,0.564-0.582,0.783c-0.225,0.308-0.38,0.52-0.453,0.619c-0.127-0.291-0.514-0.453-1.459-0.457
	c-0.945,0.002-1.332,0.166-1.459,0.457c-0.073-0.1-0.229-0.312-0.453-0.619c-0.157-0.217-0.352-0.483-0.582-0.783
	c-0.119-0.147-0.245-0.303-0.378-0.467c-0.137-0.162-0.28-0.33-0.43-0.508c-0.306-0.348-0.638-0.725-0.994-1.117
	c-0.358-0.39-0.744-0.801-1.154-1.207c-0.409-0.407-0.821-0.832-1.226-1.283c-0.41-0.445-0.806-0.916-1.197-1.389
	c-0.392-0.474-0.766-0.959-1.119-1.439c-0.086-0.125-0.171-0.25-0.256-0.374l-0.127-0.187c-0.038-0.054-0.073-0.121-0.11-0.182
	c-0.075-0.121-0.142-0.249-0.207-0.378c-0.066-0.127-0.13-0.256-0.189-0.386c-0.243-0.516-0.461-1.028-0.653-1.52
	c-0.189-0.492-0.33-0.973-0.456-1.418c-0.123-0.445-0.238-0.853-0.351-1.211c-0.114-0.357-0.226-0.662-0.323-0.912
	c-0.09-0.254-0.241-0.423-0.375-0.527c-0.068-0.053-0.129-0.09-0.174-0.112c-0.05-0.022-0.074-0.034-0.074-0.034l-0.201,0.071
	c0,0-0.012,0.024-0.036,0.073c-0.02,0.047-0.043,0.113-0.062,0.197c-0.037,0.168-0.044,0.396,0.052,0.65
	c0.088,0.256,0.204,0.564,0.354,0.91c0.153,0.345,0.341,0.729,0.557,1.143c0.215,0.414,0.442,0.864,0.668,1.348
	c0.22,0.484,0.447,0.998,0.714,1.518c0.064,0.131,0.133,0.262,0.207,0.393c0.071,0.131,0.145,0.263,0.229,0.392
	c0.043,0.065,0.078,0.129,0.128,0.196l0.133,0.183c0.089,0.121,0.178,0.243,0.267,0.366c0.379,0.486,0.772,0.965,1.18,1.43
	c0.406,0.466,0.825,0.921,1.24,1.366c0.412,0.446,0.837,0.873,1.251,1.274c0.418,0.401,0.8,0.801,1.164,1.186
	c0.179,0.193,0.354,0.383,0.522,0.566c0.164,0.187,0.321,0.366,0.474,0.541c0.149,0.176,0.291,0.344,0.427,0.504
	c0.132,0.164,0.256,0.318,0.374,0.465c0.227,0.295,0.42,0.558,0.575,0.779c0.312,0.439,0.49,0.69,0.49,0.69l0.087-0.063
	c-0.04,0.211,0.01,0.472,0.072,0.777c-0.031-0.001-0.062-0.005-0.094-0.005c-1.146,0-2.073,0.929-2.073,2.074
	c0,0.553,0.218,1.055,0.57,1.427c-0.002,0.005-0.006,0.01-0.008,0.016c-0.128,0.275-0.261,0.555-0.393,0.836
	c-0.153-0.552-0.405-1.158-0.809-1.799c-1.702-2.713-8.298-11.488-10.266-13.723s-8.404-8.723-11.276-10.852
	c-2.872-2.127-7.925-5.851-11.062-6.701c-3.139-0.852-6.755-1.596-8.829-1.17c-2.079,0.425-4.845,0.638-4.259,4.254l4.68,20.213
	l2.021,8.775c0,0,1.862,5.106,6.276,5.799c4.414,0.691,10.212-0.213,12.553-0.213c0.011,0,0.022,0,0.033,0
	c-2.39,0.662-4.847,1.336-8.419,3.262c0,0-2.447,1.914-3.298,3.652c-0.727,1.483-1.631,3.332-2.092,3.864s-1.078,1.489-0.816,2.376
	c0.284,0.957,0.993,1.454,1.206,2.518c0.188,0.939-0.532,2.625-0.78,2.943c-0.248,0.319-0.922,1.95-0.105,2.766
	c0.675,0.676,2.447,1.668,2.447,2.73c0,1.064-0.532,2.553-0.106,3.404c0.426,0.851,1.915,1.596,2.305,2.34
	c0.391,0.745,0.604,1.631-0.779,3.723c-1.384,2.092-2.589,4.397-3.688,6.312c-1.099,1.915-3.19,5-1.844,5.992
	c1.347,0.994,2.729-0.176,3.369-1.844c0.638-1.666,0.461-2.942,2.092-5.035c1.631-2.092,2.695-3.19,6.17-2.197
	c0,0,2.447,0.816,3.085,1.596c0.638,0.78,1.135,1.561,1.206,2.34c0,0,0.39,1.17,0.851,0.391c0.461-0.78,0.639-1.95,1.1-1.702
	s0.284,0.957,0.142,1.915c-0.142,0.957-0.39,1.844,0.709,1.135c1.1-0.709,1.667-1.312,1.809-2.482s0.354-2.553,1.808-2.623
	c1.454-0.071,3.227,0.034,3.901-1.49c0.674-1.524,1.454-3.545,1.56-7.092c0,0,0.248-4.254,0.816-6.879
	c0.566-2.623,1.915-6.063,3.014-7.836c1.099-1.773,3.44-4.787,4.078-5.71c0.115-0.165,0.241-0.315,0.371-0.463
	c0.51,1.772,1.172,3.226,1.993,4.17c0.2,1.302,0.431,2.489,0.585,3.552c0.421,2.91,0.596,4.617,1.672,5.806
	c1.076-1.188,1.251-2.896,1.672-5.806c0.154-1.062,0.384-2.25,0.585-3.552c0.821-0.944,1.483-2.396,1.993-4.17
	c0.13,0.146,0.256,0.296,0.371,0.464c0.638,0.922,2.979,3.936,4.078,5.709c1.099,1.772,2.446,5.213,3.014,7.836
	c0.567,2.625,0.815,6.879,0.815,6.879c0.107,3.547,0.887,5.567,1.561,7.092c0.674,1.525,2.447,1.419,3.901,1.49
	c1.454,0.07,1.667,1.453,1.808,2.623c0.143,1.17,0.709,1.773,1.809,2.482c1.099,0.709,0.851-0.177,0.709-1.135
	c-0.143-0.957-0.319-1.667,0.142-1.915s0.638,0.922,1.099,1.702c0.461,0.779,0.852-0.391,0.852-0.391
	c0.07-0.779,0.566-1.56,1.205-2.34c0.639-0.779,3.086-1.596,3.086-1.596c3.475-0.993,4.539,0.105,6.17,2.197
	c1.631,2.093,1.453,3.369,2.092,5.035c0.639,1.668,2.021,2.838,3.369,1.844c1.347-0.992-0.745-4.077-1.844-5.992
	c-1.1-1.915-2.305-4.221-3.688-6.312c-1.383-2.092-1.17-2.979-0.78-3.723c0.391-0.744,1.879-1.489,2.305-2.34
	c0.427-0.852-0.105-2.34-0.105-3.404s1.771-2.056,2.447-2.73c0.816-0.815,0.143-2.446-0.105-2.766
	c-0.248-0.318-0.969-2.004-0.781-2.943c0.214-1.063,0.923-1.56,1.207-2.518c0.263-0.887-0.355-1.844-0.816-2.376
	s-1.365-2.381-2.092-3.864c-0.852-1.738-3.299-3.652-3.299-3.652c-3.572-1.926-6.028-2.6-8.418-3.262c0.011,0,0.022,0,0.033,0
	c2.34,0,8.137,0.903,12.553,0.213c4.414-0.691,6.275-5.799,6.275-5.799l2.021-8.775l4.681-20.213
	C-204.995,404.661-207.761,404.448-209.836,404.023z"/>
</svg>
