<?xml version="1.0" encoding="utf-8"?>
<!-- Generator: Adobe Illustrator 15.1.0, SVG Export Plug-In . SVG Version: 6.00 Build 0)  -->
<!DOCTYPE svg PUBLIC "-//W3C//DTD SVG 1.1//EN" "http://www.w3.org/Graphics/SVG/1.1/DTD/svg11.dtd">
<svg version="1.1"
	 id="svg2" xmlns:inkscape="http://www.inkscape.org/namespaces/inkscape" sodipodi:docname="compsognathus.svg" inkscape:version="0.48.2 r9819" xmlns:sodipodi="http://sodipodi.sourceforge.net/DTD/sodipodi-0.dtd" xmlns:svg="http://www.w3.org/2000/svg" xmlns:sketch="http://www.bohemiancoding.com/sketch/ns" xmlns:rdf="http://www.w3.org/1999/02/22-rdf-syntax-ns#" xmlns:cc="http://creativecommons.org/ns#" xmlns:dc="http://purl.org/dc/elements/1.1/"
	 xmlns="http://www.w3.org/2000/svg" xmlns:xlink="http://www.w3.org/1999/xlink" x="0px" y="0px" width="100px" height="100px"
	 viewBox="-305.5 396.5 100 100" enable-background="new -305.5 396.5 100 100" xml:space="preserve">
<sodipodi:namedview  borderopacity="1" objecttolerance="10" id="namedview42" inkscape:window-width="1025" inkscape:zoom="3.8888889" bordercolor="#666666" pagecolor="#ffffff" gridtolerance="10" guidetolerance="10" inkscape:pageopacity="0" inkscape:pageshadow="2" inkscape:window-height="782" inkscape:cy="34.285714" showgrid="false" inkscape:cx="65.571429" inkscape:window-x="102" inkscape:window-y="77" inkscape:window-maximized="0" inkscape:current-layer="svg2">
	</sodipodi:namedview>
<title  id="title4">compsognathus</title>
<desc  id="desc6">Created with Sketch.</desc>
<g id="Page-1" transform="matrix(1.0449074,0,0,1.0449074,2.0832925,22.378211)" sketch:type="MSPage">
	<g id="compsognathus" transform="translate(1,1)" sketch:type="MSLayerGroup">
		<path id="Fill-1" sketch:type="MSShapeGroup" inkscape:connector-curvature="0" d="M-232.119,382.229
			c0.376-0.089,0.241,0.333,0.669,0.192c-0.039,0.231,0.176,0.207,0.097,0.479c0.753,0.062,1.146-0.49,1.624-0.191
			c-0.092,0.358-0.704,0.357-1.051,0.479c-0.136,0.047-0.397,0.284-0.862,0.191c-0.05-0.009-0.247-0.504-0.668-0.287
			C-232.544,382.698-232.246,382.52-232.119,382.229"/>
		<path id="Fill-2" sketch:type="MSShapeGroup" inkscape:connector-curvature="0" d="M-235.084,382.421
			c0.317,0.002,0.476,0.162,0.478,0.479c-0.97-0.108-1.09,0.633-1.912,0.671c0.29-0.615,0.754-0.828,1.435-0.958
			C-235.072,382.61-235.093,382.438-235.084,382.421"/>
		<path id="Fill-3" sketch:type="MSShapeGroup" inkscape:connector-curvature="0" d="M-223.221,383.953h0.479v0.383
			c1.352,0.511,2.851,0.157,4.305,0c0.073-0.15,0.303-0.143,0.287-0.383c0.089,0.251,0.487,0.251,0.575,0
			c0.269,0.24,0.501,0.52,1.147,0.383c0.139,0.362-0.263,0.184-0.192,0.479c-0.563,0.075-1.175,0.007-1.722,0.095
			c-0.206,0.032-0.132,0.148-0.286,0.192c-0.222,0.064-0.768-0.189-0.766,0.192c-0.293,0.071-0.117-0.331-0.479-0.192
			c-0.294-0.072-0.116,0.33-0.478,0.192c-0.038,0.23,0.436-0.053,0.287,0.287c0.359-0.191,0.084-0.07,0.383,0
			c0.529,0.124,1.422-0.093,2.105,0c0.212,0.053,0.136-0.183,0.286-0.192c1.086,0.065,1.619-0.422,2.488-0.574
			c0.129-0.064,0.178-0.206,0.191-0.383c0.447,0.032,0.671-0.16,0.957-0.288c-0.036,0.163,0.075,0.181,0.193,0.192
			c-0.091,0.197-0.378,0.197-0.384,0.479c-0.377-0.03-0.647,0.112-0.861,0.287c-0.372,0.305-1.282,0.423-1.914,0.575
			c-0.071,0.294,0.331,0.116,0.192,0.479c-0.332-0.047-0.591-0.019-0.478,0.383c0.365,0.047,0.307-0.333,0.766-0.192
			c-0.429,0.784-1.831,0.593-2.872,0.765c0.107-0.522-0.16-0.668-0.287-0.957c-0.402-0.116-0.419,0.154-0.669,0.192
			c-1.052-0.455-2.596,0.049-3.445-0.479c-0.387-0.132-0.302,0.208-0.573,0.193c-0.082-0.557-0.967-0.309-1.244-0.671
			c0.062-0.097,0.22-0.099,0.192-0.287c0.348,0.129,0.864,0.121,1.244,0.287c0.056,0.024-0.021,0.165,0.095,0.192
			c0.846,0.192,1.808,0.018,2.869,0.096c-0.006-0.695-1.142-0.262-1.722-0.383v-0.383c-0.991-0.063-2.153,0.048-2.391-0.766
			c0.544,0.062,0.949,0.263,1.529,0.288C-223.202,384.417-223.206,384.19-223.221,383.953L-223.221,383.953z M-217.29,386.539h0.193
			v-0.192h-0.193V386.539L-217.29,386.539z"/>
		<path id="Fill-4" sketch:type="MSShapeGroup" inkscape:connector-curvature="0" d="M-220.831,388.55
			c-0.156,0.577-0.103,1.365-0.764,1.436C-221.517,389.328-221.518,388.594-220.831,388.55"/>
		<path id="Fill-5" sketch:type="MSShapeGroup" inkscape:connector-curvature="0" d="M-210.976,389.124
			c0.054,0.522-0.228,1.378,0.479,1.245c0.075,0.469-0.145,1.23,0.479,1.15c-0.073,0.361,0.117,0.457,0.096,0.766h-0.575
			c-0.376-0.85-1.408-1.914-0.765-3.161H-210.976"/>
		<path id="Fill-6" sketch:type="MSShapeGroup" inkscape:connector-curvature="0" d="M-237.763,390.847h0.288v0.383
			C-237.795,391.328-237.79,391.098-237.763,390.847"/>
		<path id="Fill-7" sketch:type="MSShapeGroup" inkscape:connector-curvature="0" d="M-211.645,391.326
			c0.31-0.118,0.073,0.31,0.382,0.193c0.036,0.163-0.075,0.18-0.191,0.191c0.427,0.639-0.003,1.938-0.479,2.298
			C-212.703,393.293-211.576,392.266-211.645,391.326"/>
		<path id="Fill-8" sketch:type="MSShapeGroup" inkscape:connector-curvature="0" d="M-207.244,391.326
			c0.448,0.34,0.212,1.138,0.287,2.011c0.133,0.314,0.303,0.593,0.382,0.958c-0.573,0.19-0.42-0.367-0.478-0.671
			c-0.021-0.104-0.167-0.07-0.192-0.192C-207.365,392.829-207.154,391.949-207.244,391.326"/>
		<path id="Fill-9" sketch:type="MSShapeGroup" inkscape:connector-curvature="0" d="M-251.635,391.709
			c-0.07,0.293,0.165,0.282,0.096,0.576c-0.756-0.119-0.771,0.504-1.435,0.478C-253.183,392.085-252.201,391.917-251.635,391.709"/>
		<path id="Fill-10" sketch:type="MSShapeGroup" inkscape:connector-curvature="0" d="M-253.07,393.432
			c0.375,0.322-0.389,0.308-0.191,0.766c-0.758,0.166-0.935,0.916-1.531,1.245c-0.204,0.045-0.182-0.136-0.191-0.288
			c-0.416,0.191-1.021,0.193-1.053,0.766c-0.484,0.086-0.81,0.067-0.957-0.383c0.32-0.063,0.511-0.254,0.575-0.574
			c0.81-0.031,1.146-1.006,2.008-0.67C-254.07,393.902-253.616,393.619-253.07,393.432"/>
		<path id="Fill-11" sketch:type="MSShapeGroup" inkscape:connector-curvature="0" d="M-257.662,394.199h0.861
			c-0.002,0.573-0.626,0.523-1.148,0.575C-257.732,394.703-257.78,394.369-257.662,394.199"/>
		<path id="Fill-12" sketch:type="MSShapeGroup" inkscape:connector-curvature="0" d="M-207.531,395.539
			c0.268,0.146,0.447,0.384,0.574,0.671c-0.613,0.631-1.391,1.097-2.297,1.436v-0.669
			C-208.522,396.655-207.608,396.517-207.531,395.539L-207.531,395.539z M-207.531,396.402h0.191v-0.192h-0.191V396.402
			L-207.531,396.402z"/>
		<path id="Fill-13" sketch:type="MSShapeGroup" inkscape:connector-curvature="0" d="M-284.068,405.881
			c-0.327-0.069-0.839,0.498-0.764,1.15h-0.479v-0.67c0.315-0.132,0.528-0.366,0.574-0.766c0.704-0.158,0.884-0.838,1.531-1.053
			c0.129-0.064,0.178-0.205,0.192-0.383c0.44-0.067,0.844-0.326,1.148-0.574c0.144-0.119,0.161-0.362,0.287-0.479
			c0.169-0.156,0.479-0.141,0.67-0.287c0.159-0.121,0.302-0.277,0.382-0.479c0.31,0.054,0.481-0.03,0.574-0.193
			c0.429,0.047,0.718-0.049,1.052-0.095c0.241-0.334,0.864-0.285,1.052-0.67h0.67c0.162-0.221,0.488-0.278,0.861-0.287
			c0.311-0.264,0.597-0.551,1.244-0.479c0.431-0.366,1.311-0.283,1.722-0.67c1.003,0.047,1.273-0.641,2.296-0.575
			c1.055-0.412,1.859-1.075,3.157-1.245c0.686-0.463,1.291-1.007,2.201-1.245c0.035-0.22,0.419-0.091,0.383-0.383
			c0.553,0.076,0.818-0.139,1.34-0.095c0.147-0.108,0.235-0.276,0.383-0.383c0.221,0.162,0.517,0.248,0.957,0.192
			c0.055,0.264,0.302,0.336,0.286,0.67h0.957c0.157,0.195,0.347,0.355,0.67,0.383c0.122,0.208,0.129,0.526,0.287,0.67
			c0.163,0.148,0.523,0.093,0.765,0.192c0.095,0.038,0.141,0.265,0.192,0.287c0.367,0.164,0.426-0.022,0.764,0.288
			c0.226,0.207,0.189,0.264,0.288,0.575c0.061,0.19,0.35,0.397,0.478,0.765c0.013,0.556-0.083,1.002-0.478,1.15
			c0.126,1.307-0.615,1.746-0.574,2.968h-0.383c0.067,0.419-0.163,0.539-0.095,0.958c-0.334,0.081-0.457,0.373-0.479,0.765
			c-0.576,0.447-1.412,0.63-1.914,1.15c-0.24,0.079-0.823-0.187-0.765,0.192c-0.272,0.016-0.186-0.324-0.574-0.192
			c-1.212,0.32-2.809,0.252-3.826,0.766c0.117-0.479-0.471,0.414-0.479-0.192c-0.134,0.441-1.206-0.058-1.339,0.383
			c-0.213,0.052-0.136-0.184-0.288-0.192c-0.168,0.273-1.47,0.344-1.626,0c-0.212-0.053-0.136,0.182-0.286,0.192
			c-0.214-0.042-0.342-0.169-0.383-0.383c-0.044,0.23-0.321,0.113-0.479,0.192c-0.096,0.047-0.072,0.164-0.192,0.192
			c-0.407,0.091-1.204,0.08-1.626,0c-0.219-0.042-0.221-0.334-0.574-0.192c-0.341,0.136,0.075,0.126-0.287,0
			c-0.259-0.091-0.69,0.042-0.957,0c-0.193-0.03-0.114-0.167-0.192-0.192c-0.734-0.227-1.668,0.293-2.201-0.287
			c-0.595-0.044-1.403,0.128-1.626-0.288c-0.094,0.003-0.074,0.118-0.097,0.192c-0.211,0.053-0.136-0.182-0.286-0.192
			c-0.31-0.119-0.073,0.31-0.383,0.192c-1.422-0.604-3.06,0.42-4.401,0c-0.098-0.322,0.298-0.149,0.479-0.192
			C-284.332,406.658-284.469,406.02-284.068,405.881L-284.068,405.881L-284.068,405.881z M-264.551,397.167
			c0.279,0.142,0.279-0.428,0-0.287V397.167L-264.551,397.167z M-259.958,401.094c-0.042-0.215-0.17-0.342-0.383-0.383
			c-0.26-0.069,0.068,0.451-0.192,0.383c-0.555-0.013-0.408,0.677-1.052,0.574c0.147,0.465-0.278,0.361-0.287,0.671
			c0.252,0.099,0.587,0.114,0.957,0.095c0.116-0.586,0.927-0.477,1.052-1.053c0.295,0.071,0.116-0.33,0.478-0.192
			c0.044-0.498,0.539-0.546,0.383-1.245c-1.042-0.266-1.845-0.77-2.201-1.723c-0.635-0.004-1.236-0.039-1.435-0.479
			c-0.62,0.046-1.151,0.003-1.436-0.287c-1.302,0.196-2.034,0.965-3.253,1.245c-0.014,0.112,0.017,0.272-0.095,0.287
			c-0.882-0.116-0.899,0.632-1.817,0.479c-0.017,0.143,0.034,0.353-0.096,0.382c-0.959-0.066-1.146,0.642-2.105,0.575
			c-0.072,0.343-0.794,0.036-0.766,0.479c0.751-0.301,1.91-0.194,2.871-0.287c0.381-0.424,0.759-0.17,1.148-0.192
			c2.711-0.148,5.854,0.116,8.707-0.095C-259.068,400.834-259.76,400.896-259.958,401.094L-259.958,401.094z M-268.76,400.902
			c-0.341,0.68-1.216,0.826-1.627,1.437c-0.314,0.068-0.564,0.2-0.574,0.574c0.311,0.056,0.445-0.065,0.67-0.095
			c-0.03-0.222,0.016-0.368,0.096-0.479c1.068-0.272,1.536-1.144,2.583-1.437c-0.027,0.683-0.797,0.684-1.148,0.958
			c-0.031,0.024-0.067,0.255-0.095,0.287c-0.249,0.28-0.572,0.474-0.862,0.479c0.057,0.171-0.279,0.397,0,0.479
			c0.039-0.408,0.802-0.092,1.148-0.192v-0.479c0.713-0.531,1.558-0.931,2.2-1.533C-267.253,400.702-267.875,400.702-268.76,400.902
			L-268.76,400.902z M-264.551,400.902c-0.322-0.501-0.656,0.179-1.243,0c0.078,0.439-0.391,0.348-0.575,0.479
			c-0.18,0.13-0.294,0.395-0.478,0.478c-0.253,0.115-0.246,0.356-0.67,0.287c0.008,0.423-0.516,0.314-0.574,0.671
			c0.05,0.105,0.625-0.071,0.957,0c0.115-0.363,0.287-0.671,0.765-0.671c0.065-0.221,0.245-0.329,0.383-0.479
			c0.63,0.086,0.828-0.765,1.339-0.478c-0.277,0.616-0.986,0.8-1.435,1.245c0.859,0.125,1.036-0.432,1.913-0.288
			c0.191-0.607,0.697-0.899,1.34-1.052c0.022-0.181-0.107-0.211-0.096-0.383C-263.244,401.098-264.09,400.375-264.551,400.902
			L-264.551,400.902z M-263.307,401.668c0.03,0.417,0.523,0.37,0.861,0.479c0.131-0.315,0.365-0.527,0.766-0.574
			c-0.054-0.379,0.829-0.712,0.478-0.766C-262.103,400.894-262.608,401.378-263.307,401.668L-263.307,401.668z M-271.534,401.19
			c-0.109,1.073-1.246,1.116-1.627,1.915c0.722,0.178,1.063-0.379,1.435,0c0.13-0.221,0.214-0.489,0.383-0.67
			c0.691-0.107,0.683-0.912,1.531-0.862c-0.31-0.54,0.648-0.299,0.382-0.479C-270.229,401.028-270.734,401.256-271.534,401.19
			L-271.534,401.19z M-273.161,401.381c-0.167,0.212-0.584,0.455-0.669,0.478c-0.19,0.051-0.171,0.091-0.287,0.192
			c-0.371,0.322-0.771,0.772-1.244,0.862c0.096,0.575-0.715,0.242-0.574,0.862c0.507-0.322,1.143-0.515,2.008-0.479
			c0.063-0.322,0.349-0.417,0.671-0.479c0.185-0.806,1.19-0.789,1.339-1.628C-272.488,401.163-272.778,401.769-273.161,401.381
			L-273.161,401.381z M-278.327,404.636c0.298-0.372,0.89-0.45,1.435-0.574c0.134-0.568,0.53-0.874,1.148-0.958
			c-0.05-0.816,1.064-0.468,1.052-1.245c-0.642,0.274-1.024,0.431-1.913,0.575C-276.309,403.682-278.444,403.752-278.327,404.636
			L-278.327,404.636z M-261.01,403.105c-0.135-0.025-0.109-0.21-0.191-0.287c-0.921,0.378-1.618-0.614-2.392-0.383
			c-0.197,0.091-0.198,0.378-0.479,0.383c-0.15-0.009-0.075-0.245-0.287-0.192c-0.263,0.438-1.302,0.102-1.626,0.479h-0.766
			c-0.966,0.558-4.008-0.001-4.783,0.479c0.076-0.365-0.453-0.122-0.67-0.193c-0.159,0.351-0.889,0.132-1.339,0.193
			c-0.15,0.008-0.074,0.244-0.286,0.191c-2.071,0.035-3.29,0.921-4.975,1.341c-0.079,0.528-0.672,0.541-1.053,0.765
			c1.101,0.534,2.398,0.389,3.636,0.862c-0.021-0.163,0.108-0.236,0.095,0c0.31,0.12,0.073-0.309,0.383-0.191
			c0.142,0.071,0.088,0.161,0.287,0.191c1.294,0.2,2.482,0.022,3.636,0c1.583-0.029,2.923,0.286,4.401,0
			c0.123-0.023,0.086-0.162,0.191-0.191c0.28-0.078,0.631,0.065,0.861-0.192c0.151,0.008,0.075,0.244,0.287,0.192
			c0.157-0.353,0.848-0.173,1.244-0.288c-0.036-0.292,0.348-0.163,0.383-0.383c1.298,0.087,2.056-0.366,3.252-0.382
			c0.281-0.612,0.927-0.86,0.957-1.724h0.287c-0.17-0.84,0.327-1.013,0.287-1.723c-0.312-0.025-0.277,0.298-0.479,0.383
			c0.322-0.099,0.149,0.297,0.192,0.479C-260.339,402.947-260.907,402.793-261.01,403.105L-261.01,403.105z M-279.379,404.158v0.383
			c-0.609,0.062-0.769,0.571-0.957,1.053c0.536-0.038,0.669-0.479,0.766-0.958c0.638,0.034,0.506-0.706,1.243-0.574
			c0.188-0.769,1.204-0.71,1.435-1.436C-277.926,402.932-278.359,403.839-279.379,404.158L-279.379,404.158z M-281.005,405.02
			c-0.216,0.178-0.488,0.073-0.479,0.288c-0.719-0.018-1.069,0.333-1.338,0.766c0.368-0.207,0.925-0.224,1.53-0.193v-0.574
			c0.518-0.025,0.673-0.411,0.957-0.671C-280.727,404.408-280.758,404.815-281.005,405.02L-281.005,405.02z"/>
		<path id="Fill-14" sketch:type="MSShapeGroup" inkscape:connector-curvature="0" d="M-212.889,400.615
			c-0.218-0.132-0.036-0.666-0.095-0.958c0.104,0.024,0.064,0.191,0.192,0.192c0.142-0.56,0.734-0.669,0.86-1.244
			c0.661-0.202,1.135-0.59,1.436-1.15h0.478c-0.048,0.365-0.593,0.235-0.478,0.766c-0.374,0.168-0.888,0.194-0.957,0.67
			C-212.337,399.061-212.402,400.049-212.889,400.615"/>
		<path id="Fill-15" sketch:type="MSShapeGroup" inkscape:connector-curvature="0" d="M-273.256,397.646
			c-0.2,0.184-0.616,0.15-0.671,0.479c-1.718,0.291-3.022,0.997-4.495,1.532c-0.056-0.31,0.065-0.445,0.095-0.67
			c0.407,0.057,0.633-0.068,0.957-0.095c0.055-0.255-0.283-0.599,0-0.766c0.421-0.135,0.258,0.315,0.286,0.575
			c0.954-0.163,1.584-0.649,2.583-0.766C-274.512,397.411-273.675,397.738-273.256,397.646"/>
		<path id="Fill-16" sketch:type="MSShapeGroup" inkscape:connector-curvature="0" d="M-224.178,403.775
			c0.617,0.374-0.23,0.823-0.095,1.341c-0.265,0.117-0.68,0.085-0.669,0.479c-0.082,0.018-0.091-0.037-0.096-0.095h-0.192
			C-224.93,404.875-224.482,404.397-224.178,403.775"/>
		<path id="Fill-17" sketch:type="MSShapeGroup" inkscape:connector-curvature="0" d="M-258.427,404.829
			c0.572,0.328-0.184,0.869,0,1.436c-0.372,0.042-0.264,0.565-0.478,0.766c-0.075-0.245-0.476-0.163-0.479-0.479
			c0.348-0.386,0.59-0.879,0.669-1.533C-258.523,405.052-258.416,405.001-258.427,404.829"/>
		<path id="Fill-18" sketch:type="MSShapeGroup" inkscape:connector-curvature="0" d="M-259.479,408.754
			c-0.305,0.43-0.779,0.689-1.436,0.766v-0.478C-260.347,409.035-260.022,408.786-259.479,408.754"/>
		<path id="Fill-19" sketch:type="MSShapeGroup" inkscape:connector-curvature="0" d="M-244.651,409.329h0.192v0.192h-0.192V409.329
			"/>
		<path id="Fill-20" sketch:type="MSShapeGroup" inkscape:connector-curvature="0" d="M-213.176,412.202
			c0.422,0.337,0.518-0.164,0.957,0.096c-0.114,0.427-0.68,0.403-1.243,0.383C-213.565,412.322-213.105,412.529-213.176,412.202"/>
		<path id="Fill-21" sketch:type="MSShapeGroup" inkscape:connector-curvature="0" d="M-212.985,414.5
			c0.175,0.6-0.126,0.849-0.67,0.958c0.082,0.401-0.116,0.521-0.286,0.67c-0.365-0.116-0.327-0.632-0.671-0.766
			c0.161-0.518,0.611-0.419,1.054-0.479C-213.354,414.768-213.44,414.364-212.985,414.5"/>
		<path id="Fill-22" sketch:type="MSShapeGroup" inkscape:connector-curvature="0" d="M-239.006,417.947
			c0.366,0.153,0.113,0.153,0.479,0c-0.053,0.213,0.183,0.136,0.192,0.288c-0.302,0.623-0.913,0.937-1.627,1.15v-0.288
			c-0.459-0.045-0.62,0.209-0.957,0.288c-0.211-0.013-0.039-0.407-0.095-0.576c0.23-0.249,0.967,0.01,0.957-0.479
			C-239.799,418.446-239.027,418.378-239.006,417.947"/>
		<path id="Fill-23" sketch:type="MSShapeGroup" inkscape:connector-curvature="0" d="M-246.947,419.384
			c-0.004,0.316-0.404,0.234-0.479,0.479c-0.212,0.052-0.136-0.183-0.287-0.193c-0.7,0.641-2.26,0.42-3.157,0.862
			c-0.214-0.041-0.342-0.168-0.383-0.382c0.85-0.3,2.177-0.12,2.679-0.765C-248.079,419.909-247.488,419.091-246.947,419.384"/>
		<path id="Fill-24" sketch:type="MSShapeGroup" inkscape:connector-curvature="0" d="M-240.921,419.863
			c-0.164,0.279-0.66,0.264-0.956,0.287c-0.358,0.029-0.772-0.107-1.148,0v-0.479c0.433-0.088,0.785-0.011,1.148,0
			C-241.582,419.681-241.102,419.458-240.921,419.863"/>
		<path id="Fill-25" sketch:type="MSShapeGroup" inkscape:connector-curvature="0" d="M-273.448,422.926
			c-0.282,0.548-1.166,0.493-1.914,0.575v-0.479C-274.692,423.294-273.967,422.751-273.448,422.926"/>
		<path id="Fill-26" sketch:type="MSShapeGroup" inkscape:connector-curvature="0" d="M-222.839,387.305
			c0.393,0.867-0.335,1.987,0,2.488c-0.447,0.368-0.64,1.678,0.384,1.533c0.364,0.497-0.032,1.754,0.381,2.203
			c0.133,1.857-0.7,2.746-0.765,4.405c-0.438,0.073-0.422,0.598-0.478,1.053h-0.383c-0.115,0.403,0.153,0.421,0.191,0.67
			c-0.566,0.709-0.656,1.897-1.434,2.394c0.068,0.293-0.166,0.282-0.096,0.575c-0.793,0.706-1.506,1.493-2.106,2.393
			c-0.806,0.023-0.918,0.74-1.912,0.575c-0.099,0.094-0.194,0.19-0.287,0.287c-0.936-0.145-2.154-0.116-3.063,0.383
			c-0.211,0.053-0.136-0.183-0.286-0.191c-0.535,0.423-1.888,0.025-2.392,0.479c-0.26,0.043-0.16-0.219-0.382-0.288
			c-0.68-0.209-1.981,0.305-2.393-0.191c-0.211-0.053-0.136,0.182-0.286,0.191c-0.738-0.396-1.724-0.103-2.583-0.191
			c-0.198-0.021-0.119-0.174-0.193-0.193c-0.575-0.147-1.21,0.045-1.722-0.095c0.149-0.34-0.325-0.058-0.288-0.287
			c-0.869-0.179-1.675,0.328-2.008,0.095c-0.663,0.326-1.681,0.297-2.296,0.67c-0.281-0.006-0.282-0.292-0.478-0.383
			c-0.129,0.02-0.179,0.398-0.191,0c-0.253-0.028-0.247,0.2-0.287,0.383c-0.313-0.392-0.493,0.241-0.766-0.191
			c-0.607,0.287-2.365,0.33-2.965,0c-0.129,0.019-0.178,0.397-0.192,0c-0.39,0.375-1.453,0.079-1.818,0.479
			c-0.264,0.086-0.898-0.196-0.861,0.191c-0.447-0.396-0.937,0.316-1.626,0c0.259-0.435-0.259-0.327-0.383-0.479
			c-0.122-0.149,0.025-0.626-0.383-0.479c-0.137-1.123-0.211-2.538,0.191-3.256c-0.393-0.75,0.637-0.864,0.575-1.819h0.382
			c0.203-1.042,0.596-1.893,1.244-2.49c-0.062-0.097-0.22-0.099-0.191-0.288c0.352-0.19,0.209-0.876,0.669-0.957
			c-0.069-0.293,0.165-0.282,0.096-0.575c0.185-0.134,0.522-0.116,0.478-0.479h0.382c0.329-0.82,1.514-0.783,1.818-1.627
			c0.301,0.083,0.61-0.111,0.861-0.288c0.089-0.063,0.139-0.376,0.287-0.478c0.126-0.087,0.288,0.012,0.383-0.096
			c0.309-0.35,0.529-0.791,0.479-1.436h0.382c0.464-0.621,1.055-1.116,1.34-1.916c0.707-0.441,1.253-1.043,1.723-1.723
			c0.393,0.076,0.491-0.147,0.86-0.095c1.049-0.802,2.312-1.389,3.826-1.723c0.271-0.495,1.195-0.336,1.436-0.862
			c1.351-0.245,2.423-0.767,3.54-1.245c0.301-0.11,0.232,0.15,0.382,0.191c0.324-0.366,0.893-0.366,1.435-0.479
			c0.014-0.002-0.012-0.189,0-0.192c0.495-0.113,1.295-0.072,1.818,0c0.223,0.031,0.08,0.141,0.192,0.192
			c0.581,0.269,1.788-0.043,1.913,0.671c1.898,0.224,3.055,2.151,5.358,1.34c0.635,0.29,1.422,0.429,2.105,0.67v0.383
			C-223.191,387.339-222.982,387.288-222.839,387.305L-222.839,387.305z M-223.317,389.124c0.071-0.573-0.022-0.832,0-1.532
			c-0.804,0.089-0.892,0.894-1.626,1.053c-0.124,0.738-0.728,0.994-1.245,1.34c-0.052,0.436,0.052,0.714,0.383,0.766
			c0.518-0.28,0.574-1.022,1.243-1.15c0.079-0.428,0.355-0.507,0.383-0.765c-0.047,0.393,0.467,0.136,0.479,0
			C-223.73,389.089-223.5,389.084-223.317,389.124L-223.317,389.124z M-236.615,386.156c0.017,0.239-0.214,0.232-0.287,0.383
			c-0.923,0.129-1.245,0.86-2.296,0.862v0.383c0.396,0.08,0.724-0.256,1.053-0.383c0.158-0.062,0.548,0.002,0.669-0.095
			c0.079-0.064-0.034-0.16,0.095-0.193c0.463-0.118,0.841,0.103,0.957-0.287c0.151,0.008,0.075,0.244,0.287,0.192v-0.67
			c1.003-0.561,1.842-1.285,3.252-1.436v0.383h0.478c0.017-0.144-0.034-0.353,0.097-0.383c-0.119,0.309,0.309,0.073,0.191,0.383
			c-0.07,0.28-0.544,0.158-0.479,0.574c0.525-0.146,0.735-0.606,1.436-0.574c0.215-0.45-0.437-0.436-0.67-0.479
			c-0.014-0.004,0.014-0.188,0-0.193c-0.231-0.069-0.764,0.088-0.957,0c-0.015-0.008,0.014-0.189,0-0.191
			c-1.213-0.174-2.62,0.344-3.444,0.67c-0.15-0.009-0.075-0.244-0.286-0.192c-0.667,0.322-1.258,0.72-2.201,0.766
			c-0.298,0.434-0.937,0.529-1.53,0.67c-0.144,0.24-0.243,0.523-0.671,0.479c0.015,0.237-0.049,0.397-0.191,0.479
			c-0.91,0.652-1.929,1.196-2.488,2.202c-0.112,0.015-0.271-0.017-0.286,0.095c0.547,0.037,0.893-0.127,1.052-0.479
			c0.931,0.038,1.042-0.744,1.817-0.862c0.014-0.179,0.064-0.321,0.193-0.383c0.643-0.153,0.869-0.725,1.53-0.862
			c0.013-0.178,0.063-0.321,0.192-0.383c0.385,0.131,0.338-0.172,0.478-0.287c0.151,0.008,0.076,0.244,0.288,0.192
			c0.012-0.178,0.063-0.321,0.192-0.383c0.45-0.099,1.217-1.122,1.626-0.575c-0.271,0.336-0.884,0.329-1.052,0.766
			c0.836-0.248,1.48-0.689,2.295-0.958v0.288C-235.775,385.784-235.891,386.273-236.615,386.156L-236.615,386.156z
			 M-234.509,385.677c-0.086,0.712-1.244,0.351-1.245,1.149c0.465-0.012,0.646-0.311,1.148-0.287
			c0.161-0.765,1.271-0.579,1.532-1.245C-233.584,385.391-233.862,385.718-234.509,385.677L-234.509,385.677z M-230.876,385.294
			c-0.436,0.424-1.185,0.536-1.531,1.053c0.748,0.11,0.935-0.244,1.34,0c-0.018-0.593,0.687-0.462,0.861-0.862
			C-230.35,385.343-230.625,385.331-230.876,385.294L-230.876,385.294z M-233.649,386.347c0.394,0.012,0.407-0.358,0.861-0.287
			v-0.383h-0.287C-232.956,386.211-233.696,385.885-233.649,386.347L-233.649,386.347z M-230.684,386.539
			c0.945-0.012,1.743,0.295,2.01-0.479c-0.327-0.058-0.558-0.209-0.766-0.383c0.017,0.403-0.213,0.065-0.288,0
			C-229.743,386.267-230.704,385.912-230.684,386.539L-230.684,386.539z M-228.866,387.017c0.302,0.113,0.493,0.336,0.861,0.383
			c0.004-0.445,0.589-0.307,0.575-0.766c-0.398,0.049-0.484-0.218-0.766-0.287C-228.285,386.705-228.726,386.71-228.866,387.017
			L-228.866,387.017z M-227.335,387.592c-0.323-0.123-0.507,0.375-0.287,0.479c0.008-0.311,0.433-0.205,0.67-0.287
			c-0.052-0.755,0.811-0.591,0.957-1.15C-226.741,386.655-227.036,387.126-227.335,387.592L-227.335,387.592z M-227.145,388.55
			c0.076,0.021,0.189,0.002,0.193,0.095c0.76-0.421,1.181-1.179,2.009-1.533c0.004,0.477-0.275,0.477-0.479,0.671
			c-0.438,0.419-0.732,1.122-1.243,1.053c-0.141,0.46,0.238,0.399,0.192,0.765c0.553-0.059,0.813-0.632,1.148-0.957
			c0.067-0.065,0.217-0.032,0.287-0.095c0.358-0.335,0.631-0.899,0.957-1.15c0.098-0.077,0.371,0.064,0.287-0.192
			c-0.61-0.22-1.181-0.478-1.914-0.575C-225.893,387.567-226.898,387.678-227.145,388.55L-227.145,388.55z M-242.45,387.401
			c-0.154,0.11-0.223,0.338-0.382,0.479c-0.153,0.135-0.329,0.282-0.479,0.383c-0.265,0.178-0.593,0.194-0.862,0.383
			c-0.103,0.072-0.108,0.321-0.287,0.383c-0.335,0.116-0.341,0.312-0.574,0.479c-0.089,0.063-0.289,0.019-0.382,0.095
			c-0.164,0.135-0.218,0.355-0.383,0.479c-0.208,0.157-0.545,0.131-0.574,0.479c0.598-0.263,1.208-0.514,2.009-0.574
			c0.389-1.334,1.665-1.779,2.487-2.68h0.382c-0.138-0.363,0.264-0.185,0.192-0.479
			C-241.588,387.088-242.182,387.206-242.45,387.401L-242.45,387.401z M-230.589,387.592c-1.095-0.242-2.331-0.458-3.251,0
			c-0.248-0.259-0.668,0.141-1.34,0c-0.989,0.541-2.436,0.627-3.539,1.053c-0.013,0.179-0.063,0.32-0.192,0.383
			c-2.085,0.434-3.472,1.567-5.74,1.819c-0.016,0.144,0.036,0.353-0.095,0.383c-1.168-0.021-1.542,0.755-2.583,0.862
			c-0.013,0.179-0.063,0.321-0.191,0.383c-1.563,0.286-1.685,2.016-2.87,2.68c-0.615-0.105-0.614,0.408-1.148,0.383
			c-0.016,0.144,0.034,0.354-0.096,0.383c-1.024,0.411-1.901,0.97-2.105,2.203c-0.551,0.15-0.358,1.048-0.765,1.341
			c-0.118,0.31,0.31,0.073,0.191,0.382c-0.279,0.264-0.387,0.698-0.382,1.246c0.537-0.028,0.798,0.221,0.957,0.574
			c0.458,0.135,0.9-0.243,1.148,0c-0.333-0.046-0.107,0.467-0.383,0.479c0.691,0.399,1.5,0.888,2.392,1.15
			c0.433,0.127,1.037-0.047,1.243,0.479c0.839,0.12,1.8-0.067,2.583,0.096c0.159,0.033,0.074,0.177,0.288,0.192
			c0.43,0.03,0.983,0.123,1.338-0.192c0.003,0.164,0.04,0.164,0.192,0.192c0.556,0.096,1.322-0.054,1.914,0.095
			c0.018,0.005-0.018,0.177,0,0.192c0.069,0.058,0.48-0.039,0.574,0c0.023,0.01-0.02,0.169,0,0.192
			c0.122,0.14,0.629-0.045,0.478,0.288c0.31,0.118,0.075-0.31,0.383-0.193c1.333,0.864,3.424,0.011,4.975,0.671
			c-0.001-0.168,0.044-0.16,0.192-0.192c0.723-0.158,2.193,0.137,2.583-0.287h0.669c1.142-0.538,2.651,0.08,3.827-0.479
			c-0.078,0.364,0.451,0.121,0.67,0.192c0.264-0.308,0.583-0.564,1.051-0.67c0.246-0.648,0.812-0.975,0.957-1.724
			c0.891-0.417,1.01-1.606,1.722-2.202c-0.069-0.836,0.578-0.953,0.477-1.82c0.468-0.074,0.172-0.915,0.671-0.958
			c-0.127-0.657,0.332-1.135,0.479-1.628c0.125-0.421-0.039-0.88,0.286-1.244c-0.277-0.485,0.039-0.393,0-1.053
			c-0.555,0.141-0.637-0.193-0.956-0.288c-0.165,0.091-0.156,0.354-0.479,0.288c0.008-0.581-0.516-0.632-0.573-1.15
			c-0.799-0.178-0.934-0.44-1.913-0.383c-0.254-0.448-0.977-0.427-0.764-1.34c-0.009-0.151-0.245-0.075-0.193-0.288
			c0.019-0.37,0.004-0.705-0.096-0.957c-0.484,0.007-0.793-0.164-1.338-0.095C-229.612,388.402-230.419,388.317-230.589,387.592
			L-230.589,387.592z M-246.085,389.029c-0.129,0.575-0.847,0.557-0.862,1.245c-0.514-0.036-0.348,0.609-0.861,0.574
			c0.015,0.335-0.232,0.406-0.287,0.671c0.492-0.112,0.563-0.947,1.148-0.671c-0.006-0.74,0.701-0.766,0.956-1.245
			c0.466,0.116,0.26-0.443,0.765-0.288c0.121-0.569,1.016-0.723,1.531-1.052c0.107-0.068,0.138-0.301,0.287-0.383
			c0.264-0.145,0.659-0.355,0.383-0.383C-244.171,387.881-244.893,388.691-246.085,389.029L-246.085,389.029z M-228.674,387.784
			c-0.251-0.037-0.267-0.307-0.67-0.192C-229.409,387.888-228.796,387.991-228.674,387.784L-228.674,387.784z M-223.7,389.124
			c-0.11,0.593-0.883,0.522-0.957,1.15h-0.286c-0.118,0.169-0.071,0.504-0.288,0.574c0.307,0.012,0.428,0.211,0.669,0.288
			c0.022,0.074,0.004,0.189,0.095,0.191c-0.034-0.705,0.649-0.692,0.957-1.052c-0.056-0.44,0.031-0.736,0.193-0.959
			C-223.627,389.433-223.391,389.006-223.7,389.124L-223.7,389.124z M-240.249,388.262c0.316-0.002,0.476-0.162,0.478-0.479
			C-239.978,387.896-240.137,388.055-240.249,388.262L-240.249,388.262z M-224.274,391.326c0.06,0.484,0.557,0.527,0.764,0.862
			c0.022,0.17-0.095,0.48,0.193,0.383c0.27-0.307-0.021-0.868,0-1.245c-0.17-0.021-0.48,0.097-0.383-0.191
			c-0.006-0.059-0.015-0.114-0.095-0.095C-223.782,391.308-224.03,391.316-224.274,391.326L-224.274,391.326z M-256.227,405.594
			c-0.42-0.852,0.012-1.709-0.191-2.49c0.418,0.035-0.001-0.767,0.382-0.765c-0.073-0.022-0.188-0.004-0.191-0.096
			c0.182-0.109,0.444-0.634,0.191-0.862c-0.777,0.787-0.752,2.375-0.957,3.735C-256.667,405.205-256.482,405.434-256.227,405.594
			L-256.227,405.594z M-255.079,402.913c0.501-0.231,0.926-0.542,1.243-0.957c-0.314-0.197-0.73-0.291-0.957-0.575
			C-254.631,402.148-255.171,402.216-255.079,402.913L-255.079,402.913z M-250.104,403.775h-0.671
			c0.092-0.346-0.376-0.134-0.574-0.191c-0.391-0.407-1.09-0.505-1.626-0.766c-0.024-0.327-0.204-0.497-0.574-0.479
			c-0.273,0.109-0.164,0.602-0.669,0.479c-0.165,0.058,0.007,0.454-0.192,0.479c-0.345-0.071-0.287,0.186-0.383,0.288
			c-0.182,0.193-0.428,0.174-0.478,0.287c0.071-0.161,0.351,0.436,0,0.67c0.879,0.324,1.076-0.741,1.913-0.766
			c0.016-0.463,0.517-0.439,0.766-0.67c0.041,0.838-0.789,0.807-0.957,1.436c0.596-0.138,0.717-0.751,1.436-0.766v0.383
			c-0.478-0.09-0.381,0.217-0.574,0.383c-0.312,0.271-0.75,0.333-0.862,0.766c0.55,0.054,0.583-0.365,0.957,0
			c-0.058-0.48,0.214-0.082,0.479-0.288c0.013-0.178,0.063-0.32,0.192-0.383c0.747-0.018,0.781-0.75,1.53-0.765
			c-0.004,0.132,0.045,0.21,0.096,0.287c-0.126,0.417-0.842,0.243-0.765,0.862c0.449-0.493,1.036-0.26,1.53-0.67
			c0.152,0.366,0.152,0.113,0,0.479c0.787-0.043,1.348-0.311,2.2-0.288C-247.747,403.777-249.692,404.543-250.104,403.775
			L-250.104,403.775z M-254.696,405.116c0.117,0.01,0.226,0.029,0.191,0.192c0.224-0.286,0.829-0.192,0.765-0.766
			C-254.306,404.485-254.225,405.077-254.696,405.116L-254.696,405.116z M-251.539,405.116c0.264,0.15,0.43-0.249,0.191-0.287
			C-251.319,405.017-251.477,405.018-251.539,405.116L-251.539,405.116z M-245.703,405.499c0.287-0.032,0.491-0.147,0.573-0.383
			h-0.573V405.499L-245.703,405.499z M-246.085,405.594c0.007-0.15,0.243-0.076,0.191-0.287h-0.288
			C-246.166,405.42-246.197,405.579-246.085,405.594L-246.085,405.594z"/>
		<path id="Fill-27" sketch:type="MSShapeGroup" inkscape:connector-curvature="0" d="M-268.855,418.425
			c0.213-0.014-0.125-0.241,0-0.479c0.512,0.13,0.442-0.322,0.861-0.286c0.414,0.032,0.32,0.572,0.861,0.479v0.957
			c0.751-0.142,0.743-1.044,1.722-0.957c0.171-0.286,0.699-0.362,1.052-0.193c-0.168,0.807,0.215,1.062,0.287,1.628
			c0.337,0.079,0.498,0.332,0.957,0.288c0.257,0.065,0.185-0.198,0.287-0.288c0.856,0.153,1.731-0.412,1.722-1.436
			c0.695-0.359,0.816-1.292,2.106-1.054c0.292,0.505,0.776,0.819,0.765,1.628c0.117,0.138,0.329,0.181,0.574,0.193
			c0.179,0.658-0.365,0.592-0.574,0.861c-0.016,0.208,0.338,0.044,0.478,0.096c0.076-0.434,0.4-0.621,0.479-1.054
			c0.814,0.11,2.329,0.272,2.87-0.191c0.346-0.101,1.11,0.217,1.149-0.193c0.294-0.071,0.117,0.331,0.478,0.193
			c0.488-0.309,1.413-0.181,2.105-0.288c0.555-0.434,1.222-0.755,2.2-0.766c0.105-0.501,0.984-0.227,1.148-0.669
			c0.213-0.053,0.137,0.182,0.287,0.191c0.128-0.063,0.178-0.204,0.191-0.383c0.875,0.281,1.343-0.191,2.009,0.193
			c0.008-0.5,0.978,0.048,1.148-0.48c0.295-0.071,0.116,0.331,0.479,0.193c0.368-0.46,1.333-0.326,1.817-0.671
			c2.143-0.05,3.579-0.902,5.166-1.244c0.142-0.081,0.138-0.308,0.192-0.479c0.302,0.047,0.338-0.173,0.67-0.096
			c0.6-0.684,2.249-1.204,3.444-0.67c0.563-0.33,1.678-0.108,2.199-0.479c0.303-0.109,0.234,0.15,0.384,0.192
			c0.198-0.184,0.618-0.148,0.765-0.383c0.704-0.017,1.41,0.015,2.008-0.095c0.091-0.017,0.091-0.155,0.191-0.193
			c0.522-0.194,1.42,0.101,1.722-0.287h0.766c0.86-0.575,2.49-0.38,3.156-1.149c0.61,0.034,0.979-0.171,1.626-0.096
			c0.034-0.285,0.448-0.122,0.861-0.287c0.049-0.02,0.095-0.192,0.096-0.192c0.059-0.012,0.287,0.199,0.383,0.192
			c0.321-0.028,0.86-0.467,1.052,0c0.13-0.03,0.079-0.24,0.094-0.383c0.496-0.142,1.331,0.054,1.627-0.288
			c0.193-0.033,0.3,0.02,0.287,0.193c0.314-0.25,1.05-0.302,1.626-0.193c0.189,0.036,0.149,0.176,0.288,0.193
			c0.274,0.032,0.385-0.28,0.479,0c0.138-0.213,0.632-0.071,0.669-0.383c1.376-0.108,2.679-0.152,3.922,0
			c-0.119,0.308,0.309,0.073,0.192,0.383c0.179-0.107,0.439-0.135,0.479-0.383c0.84,0.052,1.991-0.207,2.2,0.479
			c0.417,0.067,0.538-0.163,0.956-0.095c0.029,0.194,0.193,0.254,0.289,0.382c-0.135,0.569-0.869,0.537-0.766,1.341
			c-0.172-0.013-0.203,0.117-0.383,0.095v0.671c-0.255-0.001-0.207,0.302-0.479,0.287c-0.204,0.945-1.164,1.134-1.531,1.915
			c-0.895,0.156-1.136,0.968-1.817,1.34c-0.259,0.507-0.858,0.674-0.957,1.34c-0.172-0.011-0.202,0.118-0.382,0.097
			c0.046,0.301-0.173,0.337-0.096,0.669c-0.687,0.079-0.867,0.664-1.244,1.053c-0.595-0.118-0.52,0.437-1.147,0.287
			c-0.073,0.151-0.303,0.144-0.288,0.383c-0.621,0.017-1.312-0.035-1.435,0.479c-0.306-0.002-0.575,0.009-0.862,0.096
			c-0.122,0.037-0.018,0.14-0.095,0.192c-0.18,0.12-0.979-0.018-0.861,0.479c-0.63,0.008-1.011,0.265-1.148,0.766
			c-0.531,0.159-1.075,0.117-1.626,0.288c-0.217,0.066-0.448,0.323-0.671,0.382c-0.464,0.123-0.983-0.106-1.339,0.287v-0.191
			c-0.605,0.469-1.58-0.006-2.105,0.479c-0.507,0.002-1.091-0.069-1.339,0.192v-0.192c-0.751,0.482-1.935-0.036-2.582,0.479
			c-0.213,0.053-0.136-0.182-0.289-0.191c-0.08,0.269-0.517,0.184-0.86,0.191c-0.103,0.378-0.877,0.079-0.957,0.479
			c-0.307-0.729-1.054,0.382-1.434-0.192c-0.325,0.146-1.219,0.664-1.532,0.192c-0.011,0.136-0.525,0.394-0.478,0
			c-0.148,0.349-0.566,0.139-0.765,0c-0.289,0.102-0.932,0.408-1.149,0c-0.348,0.268-0.88-0.244-1.338,0.192
			c-0.054-0.329-0.544,0.116-0.765-0.383c-0.379,0.393-0.58-0.2-0.958,0.192c0.015-0.107-0.019-0.177-0.095-0.192
			c-1.505-0.31-3.096,0.125-4.688-0.096c-0.222-0.031-0.08-0.14-0.191-0.192c-0.151-0.069-0.443,0.037-0.574,0
			c-0.518-0.148-0.936-0.207-1.436-0.287c-0.206-0.033-0.134-0.143-0.288-0.192c-0.279-0.088-0.652,0.047-0.955,0
			c-0.205-0.031-0.135-0.159-0.288-0.192c-0.89-0.185-1.893,0.152-2.679-0.287c-0.309-0.118-0.073,0.31-0.382,0.191
			c-0.11-0.407-1.088-0.169-1.244,0c0.016-0.111-0.022-0.168-0.096-0.191c-1.183-0.353-2.802,0.236-4.496,0
			c-0.112,0.015-0.08,0.175-0.096,0.287c-0.259-0.027-0.45-0.123-0.574-0.287c-0.548,0.473-2.117-0.076-2.392,0.67
			c-0.634,0.005-1.236,0.038-1.436,0.479c-0.701,0.064-1.707-0.177-2.008,0.288c-0.163,0.035-0.181-0.075-0.192-0.192
			c-0.982,0.23-1.921,0.503-3.157,0.479c-0.387,0.418-0.989,0.199-1.53,0.288c-0.204,0.034-0.134,0.15-0.287,0.191
			c-0.187,0.051-0.49-0.071-0.669,0c-0.101,0.04-0.069,0.168-0.192,0.192c-0.655,0.122-1.535-0.073-1.914,0.287
			c-1.161-0.114-2.788,0.237-3.635-0.191c-0.31-0.118-0.073,0.31-0.383,0.191c0.015-0.112-0.022-0.168-0.095-0.191
			c-0.872-0.269-2.018,0.02-3.157-0.096c-0.158-0.016-0.185-0.035-0.192-0.192c-0.093,0.163-0.264,0.247-0.574,0.192
			c-0.212,0.053-0.136-0.182-0.287-0.192c-0.309-0.054-0.481,0.029-0.574,0.192c-1.606,0.352-3.543-0.216-4.592,0.096
			c-0.14,0.041-0.199,0.015-0.191,0.191c-0.301-0.2-0.37-0.2-0.671,0c-0.118-0.411-1.614-0.088-2.296-0.191
			c-0.212-0.053-0.136,0.183-0.287,0.191c-0.847-0.146-1.151,0.253-1.913,0.193c-0.147-0.389-0.535-0.652-0.478-1.054
			c0.035-0.246,0.452-0.218,0.287-0.574c0.599,0.152,0.535-0.358,1.052-0.288c0.315-0.546,0.31-1.413,1.052-1.532
			c-0.064-0.799,0.449-1.02,0.574-1.628c0.287-0.127,0.731-0.097,1.148-0.096c-0.001,0.64,0.688,0.589,0.861,1.054
			c0.426-0.181,0.658-0.555,0.862-0.958c1.086-0.383,1.778,0.279,2.391,0.67c0.103-0.248,0.478-0.223,0.382-0.67
			c0.466-0.044,0.61-0.41,0.766-0.765c1.222-0.236,1.205,0.773,2.296,0.669c0.674-0.568,0.933-1.554,2.008-1.723
			c0.115-0.301,0.582-0.248,0.575-0.669c0.557,0.143,0.564-0.265,0.957-0.288c0.5,0.329,0.113,1.546,0.478,2.011
			c0.339-0.172,0.412-0.609,0.957-0.576c0.135-0.63,0.735-0.795,1.148-1.148c0.544,0.093,0.536,0.74,0.765,1.148
			c0.343-0.007,0.105-0.596,0.574-0.479v-0.479C-269.195,418.382-268.84,418.218-268.855,418.425L-268.855,418.425z
			 M-266.559,423.98h1.148c0.323-0.474,1.097-0.497,1.914-0.479c0.076-0.371,0.88-0.012,0.957-0.383
			c0.151,0.009,0.075,0.244,0.287,0.192c0.359-0.437,1.628,0.034,1.913-0.479c0.151,0.008,0.075,0.244,0.287,0.191
			c0.943-0.395,2.119-0.56,3.061-0.957h1.34c0.184-0.347,1.13-0.221,1.339,0c0.015-0.112-0.016-0.271,0.096-0.288
			c1.354,0.009,1.231-0.297,2.105,0c0.041-0.312,1.298-0.312,1.339,0c0.301-0.2,0.37-0.2,0.671,0
			c0.003-0.161,0.036-0.168,0.191-0.191c0.819-0.121,2.84,0.23,3.157-0.192c0.151,0.008,0.076,0.244,0.288,0.192
			c0.15-0.009,0.074-0.245,0.286-0.192c0.944,0.429,2.766-0.022,3.252,0.862c0.264-0.341,0.477,0.257,0.766-0.192
			c-0.079,0.558,0.945,0.012,0.957,0.479c0.48-0.548,1.208,0.295,1.626-0.191c0.069,0.385,0.548,0.14,0.764,0.191
			c0.051,0.013,0.024,0.162,0.192,0.192c0.403,0.073,1.049-0.109,1.149,0.287c0.615,0.16,2.033-0.081,2.2,0.288
			c0.353-0.408,0.743,0.269,1.148-0.192c0.063,0.433,0.828,0.119,0.957,0c0.196,0.322,0.198,0.067,0.479,0
			c0.684,0.56,1.524-0.216,2.487,0c0.016-0.112-0.016-0.272,0.096-0.287c0.011,0.404,0.734,0.095,1.052,0.191
			c0.424-0.338,1.266-0.263,2.008-0.287c0.207-0.368,1.03-0.119,1.532-0.192c0.6-0.516,2.216-0.015,2.87-0.479
			c0.151,0.009,0.075,0.245,0.288,0.192c0.308-0.207,0.74-0.515,1.052-0.192c0.221-0.494,0.91-0.024,1.243-0.479
			c0.394,0.103,0.104,0.209,0.287,0c0.04-0.046,0.234,0.033,0.287,0c0.396-0.243,1.297-0.325,1.818-0.479
			c0.098-0.444,0.448-0.637,1.051-0.575c0.178-0.477,0.98-0.612,1.34-0.862c0.138-0.093,0.432-0.03,0.574-0.095
			c0.039-0.018,0.026-0.157,0.095-0.191c0.507-0.253,0.638-0.342,0.765-0.097c0.108-0.529,0.876-0.4,1.436-0.479
			c0.121-0.26,0.221-0.543,0.669-0.479c0.067-0.409,0.388-0.57,0.764-0.669c0.221-0.865,0.898-1.273,1.245-2.011
			c0.774-0.279,0.949-1.157,1.912-1.245c0.053-0.171,0.05-0.398,0.192-0.479c0.786,0.016,1.236-1.822,1.627-1.244
			c0.082-0.556,0.289-0.989,0.191-1.724c-0.47,0.023-0.92,0.027-1.148-0.192c0.004,0.172-0.047,0.154-0.191,0.192
			c-0.566,0.147-1.224,0.06-2.107,0.096c-0.15-0.074-0.142-0.305-0.381-0.288c-1.344,0.159-2.11,0.194-3.445,0.67
			c-0.333-0.877-1.604-0.113-2.008-0.382c-0.068,0.441-0.775,0.245-0.861,0.67v-0.288c-0.553-0.141-0.883,0.35-1.245,0.479
			c-0.224,0.078-0.622-0.004-0.861,0.095c-0.145,0.061-0.08,0.176-0.287,0.192c-0.172,0.013-0.217-0.205-0.286-0.192
			c-0.011,0.002-0.067,0.159-0.192,0.192c-0.422,0.108-0.579-0.026-0.765,0.192c-1.181-0.048-1.849,0.284-2.869,0.575h-0.959
			c-0.405,0.376-0.992,0.167-1.529,0.287c-0.123,0.027-0.09,0.151-0.191,0.192c-0.14,0.054-0.338-0.05-0.48,0
			c-0.152,0.053-0.082,0.156-0.286,0.192c-0.673,0.114-1.454-0.136-2.009,0.287h-0.862c-0.482,0.349-1.491,0.168-2.2,0.288
			c-0.564,0.537-1.122,0.079-1.913,0.287c-0.047,0.368-0.492,0.337-0.575,0.671c-0.142-0.017-0.351,0.034-0.381-0.096
			c-0.183-0.471,0.316-0.257,0.286-0.575c-0.398-0.299-0.868,0.148-1.052,0.383c-0.393,0.052-0.617,0.276-0.86,0.479
			c-0.303-0.047-0.338,0.172-0.67,0.096c-0.104,0.407-0.513,0.508-1.052,0.479c-0.798,0.712-1.975,0.407-3.061,0.765
			c-0.021,0.007-0.039,0.166-0.095,0.193c-0.105,0.047-0.282-0.052-0.383,0c-0.075,0.037,0.024,0.161-0.095,0.191
			c-0.49,0.121-1.073,0.08-1.627,0.095c0.036,0.292-0.348,0.163-0.382,0.383c-0.764-0.062-1.32,0.085-2.009,0.097
			c-0.63,0.546-1.908-0.064-2.583,0.669v-0.191c-0.222,0.307-0.614,0.166-0.957,0.286c-0.026,0.009-0.036,0.164-0.096,0.193
			c-0.307,0.142-0.316,0.082-0.479,0.191c-0.201,0.136-0.47,0.019-0.669,0.097c-0.041,0.015-0.019,0.159-0.095,0.191
			c-0.617,0.258-0.488-0.05-0.765,0.191c-0.296,0.258-1.007,0.007-1.435,0.097c-0.151,0.007-0.075,0.243-0.287,0.191
			c-1.185-0.101-1.904,0.264-2.966,0.288c-0.706,0.347-1.881,0.223-2.87,0.288c-0.044,0.1-0.807,0.391-0.861,0.381
			c-0.054-0.007,0.027-0.209-0.096-0.191c-0.039,0.006-0.021,0.174-0.192,0.191c-0.932,0.095-2.087-0.08-3.157,0.096
			c-0.16,0.027-0.615,0.386-0.957,0.192c-0.453,0.439-1.772,0.013-2.201,0.479c-0.151-0.007-0.074-0.243-0.286-0.192
			c-0.138,0.078-0.093,0.155-0.288,0.192c-1.852,0.354-2.816-0.166-4.783,0.096c-0.091,0.293-0.596,0.17-0.957,0.192
			c-0.507,0.354-1.463,0.26-2.296,0.287c-0.139,0.34-0.819,0.139-1.244,0.192c-0.15,0.009-0.074,0.245-0.286,0.192
			c-1.241-0.055-2.738,0.098-3.444,0.287c-0.218,0.059-0.48-0.036-0.67,0c-0.146,0.028-0.093,0.153-0.286,0.192
			c-0.604,0.12-1.312-0.109-1.818,0.287v-0.191c-0.657,0.426-2.024,0.145-2.583,0.67c-0.151-0.008-0.076-0.244-0.288-0.192
			c0.019,0.369-0.599,0.103-0.765,0.288c0.24,0.508,0.825,0.682,1.339,0.67c0.151-0.004,0.373-0.265,0.479-0.288
			c0.4-0.083,1.241-0.007,1.722,0.096c0.368,0.079-0.071,0.144,0.286,0c0.354-0.142,0.355,0.15,0.574,0.192
			c0.866,0.165,1.864-0.122,2.87,0c0.241-0.429,0.953-0.063,1.339-0.479c0.213,0.553,1.443,0.088,1.818,0.479
			c0.294,0.072,0.116-0.33,0.478-0.192c0.354,0.476,1.738-0.08,2.104,0.383c0.188,0.028,0.189-0.129,0.287-0.192
			c0.005,0.161,0.036,0.169,0.192,0.192c0.65,0.094,1.799,0.063,2.008-0.192c0.309-0.119,0.073,0.309,0.383,0.192
			c0.287-0.275,1.85-0.107,2.584-0.479c-0.208,0.016-0.044-0.339-0.096-0.479c0.338-0.071,0.757-0.274,0.957-0.383
			c0.309-0.168,0.712-0.183,0.861-0.287c0.198-0.138,0.524-0.264,0.574-0.288c0.098-0.045,0.294,0.06,0.383,0
			c0.079-0.052-0.031-0.159,0.096-0.191c0.376-0.097,1.04-0.228,1.435,0.095c-0.005,0.122-0.122,0.133-0.096,0.287
			c-0.726-0.023-1.134,0.269-1.53,0.575c-0.671,0.032-1.109,0.295-1.627,0.479c-0.407,0.228-0.608-0.486-0.67,0
			C-266.634,423.799-266.524,423.817-266.559,423.98L-266.559,423.98L-266.559,423.98z M-204.757,411.053
			c0.279,0.14,0.279-0.428,0-0.288V411.053L-204.757,411.053z M-260.245,419.575c-0.434-0.019-0.403,0.426-0.67,0.575
			c0.895-0.005,1.582-0.029,2.392-0.287c-0.224-0.222-0.444-0.449-0.861-0.479c0.069-0.293-0.165-0.282-0.095-0.576
			c-0.306,0.082-0.364-0.083-0.479-0.191C-259.955,419.036-260.386,419.02-260.245,419.575L-260.245,419.575z M-269.238,421.011
			h1.913c0.104-0.487-0.31-0.455-0.669-0.479c-0.003-0.619-0.422-0.422-0.096-0.957C-268.847,419.68-268.99,420.397-269.238,421.011
			L-269.238,421.011z M-266.081,420.628v0.192h0.191C-265.901,420.704-265.919,420.594-266.081,420.628L-266.081,420.628z
			 M-265.794,420.82c0.672-0.226,0.65,0.019,1.243-0.288c-0.427-0.082-0.475-0.544-0.574-0.957
			C-265.534,419.795-266.016,420.265-265.794,420.82L-265.794,420.82z M-275.361,421.107v0.67c0.414-0.351,1.4-0.13,2.105-0.191
			c-0.007-0.695-0.625-0.779-0.765-1.34c-0.058-0.198,0.154-0.665-0.191-0.576C-274.651,420.095-274.768,420.839-275.361,421.107
			L-275.361,421.107z M-266.559,420.532c0.222-0.223,0.449-0.444,0.478-0.862C-266.384,419.814-266.514,420.131-266.559,420.532
			L-266.559,420.532z M-271.726,421.107h1.244v-0.382c-0.434-0.013-0.35-0.544-0.765-0.574
			C-271.301,420.573-271.86,420.493-271.726,421.107L-271.726,421.107z M-275.648,420.82h0.191v-0.192h-0.191V420.82
			L-275.648,420.82z M-266.751,421.011c0.214-0.042,0.342-0.169,0.383-0.383C-266.582,420.67-266.709,420.797-266.751,421.011
			L-266.751,421.011z M-276.127,421.777c0.289-0.061,0.439-0.263,0.383-0.67C-276.033,421.169-276.182,421.371-276.127,421.777
			L-276.127,421.777z M-278.805,422.065h0.478c0.013-0.332-0.083-0.555-0.478-0.479V422.065L-278.805,422.065z M-277.466,421.873
			c0.112-0.015,0.271,0.016,0.287-0.096c-0.188,0.029-0.19-0.129-0.287-0.191V421.873L-277.466,421.873z M-285.311,423.022
			c0.654,0.08,1.045-0.103,1.435-0.287c-0.393-0.212-0.605-0.607-0.956-0.862C-284.8,422.449-285.305,422.485-285.311,423.022
			L-285.311,423.022z M-282.153,422.543c0.279-0.138,1.153-0.181,1.148-0.287c-0.599,0.121-0.673-0.283-1.053-0.383
			C-282.003,422.184-282.123,422.319-282.153,422.543L-282.153,422.543z M-246.182,422.256v-0.383h-0.286
			C-246.429,422.056-246.435,422.285-246.182,422.256L-246.182,422.256z M-244.747,422.256c-0.148-0.188-0.757-0.364-0.861-0.383
			c-0.154-0.029-0.322,0.021-0.478,0C-246.051,422.414-245.293,422.227-244.747,422.256L-244.747,422.256z M-287.798,424.554
			c-0.079,0.271,0.135,0.248,0.095,0.479c0.329,0.01,0.688,0.05,0.766-0.191c-0.011,0.185,0.094,0.206,0.287,0.191
			c0.202-0.015,0.296-0.351,0.573,0c-0.039-0.231,0.175-0.207,0.096-0.479c-0.407,0.056-0.67-0.032-0.574-0.479
			C-287.193,424.012-287.212,424.566-287.798,424.554L-287.798,424.554z"/>
		<path id="Fill-28" sketch:type="MSShapeGroup" inkscape:connector-curvature="0" d="M-213.176,387.401
			c-0.058,0.293-0.318,0.385-0.479,0.574c0.133,0.219,0.666,0.036,0.957,0.096c0.021,0.265,0.304,0.27,0.383,0.479
			c0.236-0.241,0.221,0.052,0.669-0.193c0.065,1.056-0.404,1.576-0.479,2.49c-0.299-0.247-0.213,0.237-0.382,0.383
			c-0.081,0.07-0.314,0.017-0.383,0.095c-0.149,0.172-0.122,0.51-0.287,0.766c-0.108,0.169-0.419,0.273-0.479,0.383
			c-0.064,0.119,0.075,0.367,0,0.478c-0.052,0.079-0.163-0.043-0.192,0.095c-0.062,0.307,0.046,0.68,0,1.054
			c0.126,0.225,0.268,0.436,0.192,0.862c-0.294-0.071-0.116,0.331-0.478,0.191c-0.052,0.349,0.01,0.739-0.096,1.054
			c-0.041,0.125-0.335,0.193-0.383,0.287c-0.054,0.109-0.028,0.668-0.095,0.766c-0.013,0.02-0.186-0.02-0.191,0
			c-0.054,0.205,0.068,0.471,0,0.67c-0.008,0.022-0.174-0.02-0.192,0c-0.126,0.142-0.008,0.532-0.095,0.766
			c-0.008,0.023-0.172-0.02-0.192,0c-0.075,0.076,0.044,0.378,0,0.479c-0.008,0.02-0.187-0.019-0.192,0
			c-0.158,0.611-0.003,1.333-0.096,2.299c-0.021,0.211-0.152,0.13-0.191,0.287c-0.172,0.7,0.127,1.602,0,2.489
			c0.155,0.134,0.377,0.198,0.479,0.383c-0.264,0.8-0.527,1.51-1.722,1.15c0.071-0.327-0.391-0.121-0.288-0.479
			c-2.092-0.116-4.375-0.422-6.409-0.288c0.013-0.624,0.541-0.735,0.479-1.436c1.068-0.239,0.543-2.075,1.722-2.203
			c-0.047-0.302,0.172-0.337,0.096-0.67c0.171,0.011,0.201-0.118,0.382-0.096c0.078-0.195,0.012-0.487,0.095-0.67
			c0.015-0.034,0.263-0.049,0.287-0.096c0.051-0.094-0.061-0.294,0-0.382c0.055-0.081,0.31-0.027,0.383-0.096
			c0.214-0.205-0.088-0.575,0.287-0.479c0.079-1.613,0.338-3.044,0.287-4.788c-0.076-0.211-0.192-0.383-0.479-0.383
			c0.244-0.252,0.244-0.705,0-0.958c0.225-0.954,0.747-1.614,0.861-2.681c0.484,0.039,0.421-0.472,0.575-0.766
			c1.59-0.323,2.392-1.435,4.496-1.244C-213.96,387.828-213.809,387.373-213.176,387.401L-213.176,387.401z M-216.333,388.645
			c-0.243,0.553-1.264,0.331-1.435,0.957c-0.407-0.119-0.256,0.319-0.479,0.383h-0.381c0.064,0.322-0.161,0.35-0.384,0.383
			c-0.062,1.054-0.567,1.665-0.765,2.585c0.665,0.092,0.67-0.477,1.053-0.669c0.183,0.038,0.075,0.37,0.381,0.286
			c0.271-0.049,0.095-0.542,0.383-0.574c0.907-0.368,1.122-1.43,2.105-1.723c0.395-0.85,1.436-1.051,2.008-1.723h-0.765
			c-0.217,0.293-0.478,0.541-0.956,0.574c-0.078,0.254-0.18,0.544-0.478,0.669c-0.366,0.155-0.383,0.331-0.67,0.48
			c-0.54,0.279-0.656,0.61-1.052,0.957c-0.212,0.185-0.554,0.279-0.765,0.479c0.046-0.561,0.346-0.865,0.861-0.957
			c0.276-0.65,0.872-0.979,1.532-1.245v-0.383c0.394-0.02,0.609-0.219,0.764-0.479
			C-215.614,388.352-215.957,388.759-216.333,388.645L-216.333,388.645z M-214.324,389.507c-0.69,0.108-0.839,0.756-1.531,0.862
			v0.383c-0.678,0.056-0.718,0.749-1.148,1.052c-0.383,0.064-0.578,0.316-0.67,0.671c0.407,0.12,0.257-0.319,0.478-0.383
			c0.423-0.024,0.74-0.153,1.245-0.095c0.062-0.322,0.365-0.4,0.478-0.671c0.423-0.118,0.65-0.434,0.861-0.766
			c0.664-0.612,1.454-1.098,2.106-1.722c-0.304-0.175-0.593-0.364-1.149-0.287C-213.701,389.045-214.169,389.12-214.324,389.507
			L-214.324,389.507z M-212.6,389.507c-0.52,0.056-0.619,0.531-0.957,0.766c-0.131,0.03-0.184,0.136-0.383,0.095
			c-0.43,0.815-1.36,1.129-1.723,2.011c0.276,0.348,0.955,0.82,0.575,1.244c0.268,0.146,0.438,0.392,0.861,0.383
			c-0.388-0.424,0.32-0.969,0-1.532c0.031,0.169-0.536,0.171-0.383-0.095c0.393-0.214,0.706-0.508,0.765-1.054
			c0.745,0.043,0.516-0.888,1.34-0.766c-0.081-0.492,0.541-1.204,0.096-1.436C-212.425,389.302-212.473,389.444-212.6,389.507
			L-212.6,389.507z M-212.124,389.315h0.191v-0.191h-0.191V389.315L-212.124,389.315z M-216.621,392.762
			c0.28,0.141,0.28-0.427,0-0.287V392.762L-216.621,392.762z M-216.141,392.762h0.191v-0.192h-0.191V392.762L-216.141,392.762z
			 M-218.343,396.88c-0.479,0.301-0.368,1.038-0.478,1.628c-0.027,0.141-0.139,0.018-0.193,0.096c-0.067,0.103,0.045,0.456,0,0.574
			c-0.024,0.068-0.27,0.155-0.287,0.192c-0.15,0.341-0.015,0.789-0.286,0.958c0.074,0.021,0.189,0.002,0.191,0.095
			c-0.391,0.312-0.384,1.021-0.861,1.245c0.044,0.46-0.079,0.751-0.479,0.766c0.122,0.632-0.377,0.643-0.382,1.15
			c1.418,0.337,2.766,0.235,4.209,0.287c0.142-2.008-0.174-4.416,0.286-6.225c0.391,0.073,0.019-0.619,0.48-0.479
			c0.107-1.041,0.901-1.394,0.956-2.49c-0.911-0.172-0.664-0.885-1.245-1.148c0.154,0.069-0.205,0.188-0.286,0.191
			c-0.093,0.004-0.134-0.216-0.192-0.191c-0.06,0.024,0.03,0.215-0.095,0.191c-0.142-0.028-0.099-0.15-0.288-0.191
			c-0.387-0.088-0.787,0.064-1.243,0C-218.524,394.702-218.212,395.569-218.343,396.88L-218.343,396.88z M-215.568,397.933
			c0.279,0.14,0.279-0.428,0-0.288V397.933L-215.568,397.933z M-215.855,398.987c-0.024-0.375,0.32-0.382,0.287-0.765
			C-215.972,398.108-215.972,398.894-215.855,398.987L-215.855,398.987z M-221.021,401.094c-0.254-0.001-0.207,0.302-0.478,0.287
			c0.184,0.687-0.926,1.022-0.384,1.436c0.299-0.724,1.152-1.4,1.052-2.203C-220.937,400.73-221.103,400.789-221.021,401.094
			L-221.021,401.094z M-222.552,404.541v-0.383h-0.287C-222.866,404.408-222.871,404.637-222.552,404.541L-222.552,404.541z
			 M-216.621,405.116c-0.122,0.302,0.793,0.302,0.671,0C-216.096,404.826-216.371,405.195-216.621,405.116L-216.621,405.116z"/>
		<path id="Fill-29" sketch:type="MSShapeGroup" inkscape:connector-curvature="0" d="M-247.903,409.521
			c-1.215-0.493-2.55,0.411-4.018,0.288c-0.035,0.22-0.419,0.092-0.383,0.383c-1.352,0.073-2.913,0.112-4.114,0.574
			c-0.095,0.258,0.047,0.75-0.383,0.67c0.087,0.726-0.428,0.849-0.383,1.533c-0.193-0.033-0.299,0.019-0.287,0.192
			c-0.3-0.202-0.37-0.202-0.67,0c-0.131-0.252-0.409-0.357-0.765-0.383c-0.135-0.121-0.006-0.506-0.383-0.383
			c-0.294,0.208,0.03,0.601,0.095,0.766c-0.289-0.036-0.198,0.312-0.286,0.479h-1.148c0.141-0.365-0.427-0.019-0.287-0.383
			c-0.888,0.123-1.121-0.409-1.531-0.766c-0.241,0.301-0.611,0.474-0.957,0.671c-0.189-0.227-0.718-0.112-0.861-0.383
			c-0.304,0.271-0.444,0.705-0.862,0.862c-0.3-0.202-0.369-0.202-0.669,0c0.058-0.409-0.348-0.355-0.575-0.479
			c-0.326-0.762-0.281-2.179-1.626-1.628c-0.468,0.617-0.46,1.709-1.149,2.107c-0.335-0.049-0.342-0.424-0.669-0.479
			c-0.093-0.865-0.786-1.129-0.957-1.916c-0.31,0.009-0.204,0.434-0.669,0.288c-0.064,0.734-0.401,1.194-1.244,1.15
			c-0.164-0.348-0.419-0.602-0.765-0.766c-0.33,0.052-0.418,0.348-0.574,0.574c-0.371,0.052-0.467-0.171-0.861-0.095
			c0.015-0.335-0.232-0.407-0.287-0.67c-0.851-0.01-1.636-0.087-1.914-0.67c-0.147,0.348-0.324,0.381-0.095,0.67
			c-0.518,0.279-0.723,0.871-1.435,0.958c-0.337-0.11-0.455-0.439-0.67-0.671c-0.297,0.15-0.296,0.598-0.575,0.766
			c-0.856-0.032-1.183-0.445-1.913-0.383c0.012-0.586-0.822-0.327-0.766-0.958c-0.276,0.138-0.684,0.146-0.765,0.479
			c-0.519,0.022-0.931,0.153-1.53,0.095c-0.491-0.403-0.53-1.257-1.627-1.053c-0.036-0.921-1.299-0.616-2.201-0.67v-0.575
			c-0.138,0.021-0.033,0.286-0.191,0.287c-0.423,0.014,0.009-0.234-0.095-0.479c-0.086,0.444-1.636,0.449-1.722,0
			c-0.097,0.062-0.099,0.221-0.286,0.192c-0.117-0.33-0.465-0.429-0.957-0.383c-0.123-0.42-0.407-0.678-0.765-0.862
			c-0.062-1.465,0.742-2.066,1.052-3.16h0.382c-0.054-0.311,0.066-0.445,0.096-0.671h0.478c-0.091-0.602,0.412-0.608,0.479-1.052
			c0.309-0.12,0.073,0.309,0.383,0.191c0.271-0.483,0.807-0.634,1.243-0.957c0.197-0.146,0.533-0.38,0.574-0.671
			c1.094-0.277,1.378-1.365,2.584-1.532c0.546-0.633,1.326-1.034,2.295-1.245c0.704-0.732,2.069-0.801,2.583-1.724h0.287
			c0.237-0.367,0.987-1.031,1.244-0.765c0.433-0.971,2.018-0.788,3.061-1.149c0.129,0.299,0.816,0.262,1.148,0.191
			c0.13-0.027,0.017-0.138,0.096-0.191c0.163-0.108,0.885-0.021,0.67-0.479c0.112,0.016,0.081,0.175,0.095,0.287
			c0.89-0.035,1.974,0.124,2.488-0.287c0.522-0.02,1.083-0.001,1.339-0.287c0.344-0.007,0.779,0.078,0.862-0.192
			c0.827,0.031,1.527-0.066,1.913-0.479c0.595,0.429,2.029-0.601,2.201-0.096c0.078-0.241,0.436-0.201,0.765-0.192
			c0.072-0.294-0.33-0.117-0.192-0.478c2.031,0.212,2.796-0.442,4.593-0.575c0.41-0.483,1.52-0.265,1.818-0.862
			c0.785-0.013,1.263-0.331,1.626-0.766c0.949,0.056,1.263-0.523,2.105-0.574c0.174-0.688,1.271-0.452,1.435-1.15
			c0.212-0.052,0.136,0.183,0.287,0.191c0.58-0.503,1.499-0.669,1.818-1.436h0.669c0.13-0.411,0.579-0.506,0.67-0.957
			c0.636-0.129,0.913-0.619,1.435-0.862c0.156-0.865,1.116-0.927,1.817-1.245c0.13-0.03,0.08-0.24,0.095-0.383
			c0.649,0.011,0.632-0.645,1.34-0.575c0.128-0.064,0.178-0.205,0.191-0.383c0.65,0.172,0.55-0.407,1.052-0.382
			c0.13-0.03,0.079-0.241,0.097-0.383c0.761,0.123,0.832-0.445,1.625-0.288c0.104-0.407,0.85-0.172,0.861-0.67
			c0.436,0.052,0.717-0.05,0.862-0.287c1.37-0.034,2.307-0.501,3.252-0.958c0.43,0.047,0.717-0.049,1.052-0.096
			c0-0.32,0.622-0.015,0.574-0.382c0.295-0.072,0.117,0.33,0.479,0.192c0.894-0.335,4.308-0.234,5.836-0.192
			c0.349,0.009,0.759-0.259,1.052,0.192c0.555-0.082,1.465,0.191,1.722-0.192c0.826-0.035,1.778,0.055,2.297-0.287
			c0.775,0.074,1.264-0.138,2.008-0.096c0.576-0.635,1.575-0.264,2.393-0.67c0.361-0.022,0.866,0.1,0.957-0.193
			c0.538,0.331,1.162,0.14,1.722,0.383c0.114,0.049,0.118,0.244,0.191,0.288c0.118,0.069,0.351-0.049,0.48,0
			c0.022,0.009-0.022,0.172,0,0.192c0.194,0.173,0.654,0.051,0.764,0.096c0.019,0.007-0.019,0.185,0,0.191
			c0.609,0.159,1.187-0.077,1.626,0.288c0.239,0.196,0.764,0.508,1.15,0.765c0.11-0.015,0.079-0.175,0.094-0.287
			c0.227,0.188,0.417,0.413,0.382,0.862c0.55,0.183,0.509,0.959,1.148,1.053v0.383c0.549,0.186,0.382,1.085,1.053,1.149
			c-0.124,0.379,0.315,0.196,0.192,0.576c0.236,0.178,0.513,0.315,0.477,0.765c0.082,0.142,0.308,0.138,0.48,0.192
			c0.239,0.654,0.677,1.109,1.434,1.245c-0.011,0.172,0.118,0.202,0.096,0.383c0.739,0.024,0.694,0.837,1.435,0.862
			c0.263,0.759,0.71,1.333,0.957,2.107c-0.434-0.147,0.05,0.624-0.383,0.479c-0.18,1.457,0.258,2.295,0.479,3.351
			c0.064,0.129,0.205,0.178,0.383,0.192c0.224,0.829,0.495,1.61,0.766,2.393c-0.419-0.066,0.021,0.725-0.48,0.575
			c-0.16,0.84-0.507,1.549,0,2.203c0.045,0.969-0.184,1.666-1.051,1.723c-0.59,0.815-1.805,1.002-2.583,1.628v-0.383
			c-0.423,0.022-0.773,0.121-0.956,0.383c-0.095-0.479-1.261,0.112-1.34-0.383c-0.606,0.25-1.651,0.2-2.2-0.479
			c-0.586,0.352-0.623,1.183-0.765,1.723c-0.004,0.013-0.19-0.013-0.192,0c-0.065,0.356-0.071,0.923,0,1.341
			c0.021,0.12,0.166,0.029,0.192,0.095c0.13,0.341,0.096,0.709,0.287,1.053c0.051,0.093,0.196,0.213,0.288,0.383
			c0.155,0.291,0.406,0.815,0.286,1.533c-0.697,0.346-1.396,0.779-2.393,0.669c-0.234-0.025-0.071-0.125-0.191-0.191
			c-0.231-0.126-0.73-0.041-0.957-0.096c-0.019-0.005,0.019-0.178,0-0.192c-0.164-0.118-0.837,0.222-0.669-0.191
			c-0.87-0.14-1.783,0.219-2.487-0.096c-0.02-0.009,0.021-0.186,0-0.192c-0.19-0.058-0.384,0.074-0.575,0
			c-0.017-0.007,0.019-0.187,0-0.192c-0.607-0.148-1.279-0.05-1.912-0.095c-0.299-0.022-0.627-0.395-0.957,0
			c0.032-0.254-1.449-0.28-1.914-0.192c-0.024,0.004-0.529,0.349-0.764,0.287c-0.116,0.403,0.153,0.42,0.191,0.67
			c-0.291-0.036-0.198,0.312-0.287,0.479c-0.883,0.138-0.696,1.346-2.01,1.054c-0.549,0.631-1.578-0.395-2.103,0.192
			c0.138-0.363-0.264-0.184-0.192-0.479c-0.098,0.062-0.1,0.221-0.287,0.193c-0.25-0.42-0.965-0.376-1.34-0.671
			c-0.144,0.176-0.345,0.293-0.669,0.288c0.217-0.538-0.587-0.052-0.479-0.479c-0.209-0.035-0.141,0.16-0.288,0.192
			c-0.172,0.037-0.701-0.058-0.956,0c-0.233,0.052-0.209,0.256-0.669,0c-0.025-0.013,0.025-0.181,0-0.192
			c-0.434-0.185-1.139-0.042-1.53-0.096c-0.217-0.029-0.25-0.342-0.288,0c-1.983-0.57-4.8-0.099-6.506-0.287
			c-0.194,0.029-0.255,0.192-0.383,0.287c-0.127-0.097-0.841-0.474-0.764,0.096C-244.95,409.248-246.942,409.086-247.903,409.521
			L-247.903,409.521L-247.903,409.521z M-248.286,388.645c-0.758,0.103-0.755,0.968-1.627,0.957
			c-0.016,0.144,0.034,0.353-0.096,0.383c-0.387-0.131-0.339,0.172-0.478,0.288c-0.984,0.132-1.14,1.093-2.296,1.052
			c-0.049,0.398-0.544,0.35-0.67,0.671c-0.985,0.259-1.538,0.95-2.487,1.245c-0.067-0.295-0.067-0.184,0-0.479
			c0.712,0.075,0.711-0.564,1.435-0.478c0.297-0.471,1.005-0.528,1.34-0.959c0.226,0.003,0.282-0.164,0.574-0.095
			c-0.021-0.346,0.833-0.308,0.479-0.671c-0.268,0.277-0.65,0.436-1.148,0.48c0.025,0.311-0.298,0.277-0.383,0.479
			c-1.53,0.383-2.6,1.227-3.827,1.914c-0.299-0.31-0.609,0.2-1.244,0.096c-0.132,0.347-0.706,0.251-1.147,0.287
			c-0.014,0.179-0.063,0.321-0.192,0.383c-2.222,0.182-3.859,1.2-6.123,1.053c-0.582,0.481-1.637,0.069-2.201,0.67
			c-0.743-0.073-1.215,0.125-1.914,0.096c0.016,0.24-0.214,0.233-0.287,0.383c-0.011-0.117-0.029-0.227-0.192-0.192
			c-0.186,0.388-0.896,0.252-1.435,0.287c-0.074,0.276-0.595,0.107-0.67,0.383c-0.078-0.24-0.436-0.201-0.765-0.192
			c-0.888,0.484-2.403,0.173-3.445,0.288c-0.357,0.631-1.394,0.583-1.817,1.149h-0.478c0.018,0.315-0.247,0.393-0.383,0.479
			c-0.414,0.259-0.882,0.635-1.243,0.862c-0.232,0.144-0.323,0.064-0.479,0.191c-0.504,0.413-1.166,0.529-1.626,0.958
			c-0.01-0.117-0.029-0.226-0.192-0.192c-0.233,0.341-0.916,0.232-1.052,0.671c-0.701-0.032-0.676,0.664-1.435,0.574
			c-0.751,0.876-1.877,1.378-2.679,2.203c0.31-0.119,0.074,0.309,0.383,0.192c0.338-0.492,0.795-0.865,1.531-0.958
			c-0.122-0.377,0.226-0.285,0.478-0.287c-0.078-0.411,0.302-0.3,0.479-0.383c0.078-0.037,0.099-0.237,0.192-0.288
			c0.099-0.052,0.276,0.042,0.382,0c0.13-0.05,0.179-0.234,0.287-0.287c0.3-0.145,0.319-0.08,0.479-0.192
			c0.189-0.133,0.527-0.264,0.574-0.287c0.168-0.08,0.413,0.05,0.478-0.192c0.545,0.066,0.794-0.163,1.34-0.095
			c0.37-0.301,0.518-0.822,1.243-0.766v0.766c-0.66,0.232-0.656,1.13-1.436,1.245c-0.114,0.65-0.678,0.852-1.243,1.052
			c-0.003,0.468-0.277,0.565-0.574,0.862c-0.446,0.449-0.684,0.777-1.148,0.671c0.293-0.379,0.727-0.613,0.956-1.053
			c-0.732,0.257-1.103,0.874-1.53,1.436h-0.383c-0.314,0.707-1.119,0.922-1.626,1.436c-0.093-0.163-0.265-0.246-0.574-0.191
			c-0.485,0.52-1.276-0.06-1.914,0c-0.153,0.165-0.289,0.348-0.669,0.287c-0.128-0.421,0.286-0.792,0-1.053
			c-0.38,0.481-0.624,1.099-0.861,1.723c0.419,0.219,0.72,0.555,0.67,1.245c0.414,0.095,0.53-0.107,0.765-0.191
			c0.038,0.248,0.297,0.276,0.478,0.382c0.568-0.347,1.373,0.046,1.913,0.287c0.179-0.372,0.63,0.268,0.957-0.191
			c0.237,0.514,0.917,0.058,1.243,0.383c0.031,0.253-0.536-0.09-0.383,0.287c1.096,0.134,2.999-0.186,4.019,0.479
			c1.025-0.564,2.385-0.386,3.826-0.383c-0.071-0.456,0.531-0.236,0.67-0.479c0.052,0.448,1.179,0.552,1.436,0.192
			c1.128,0.682,3.003-0.369,4.018,0.192c0.088-0.231,0.485-0.152,0.574-0.383c-0.149,0.404,0.531-0.021,0.383,0.383
			c1.365,0.091,3.066-0.059,4.209,0.479c0.222-0.381,0.436,0.217,0.765-0.193c-0.016,0.404,0.214,0.066,0.287,0
			c0.2,0.523,0.807-0.041,1.148,0c0.141,0.453,1.434,0.35,1.818,0c-0.039,0.614,1.173-0.024,1.243,0.479
			c0.358-0.217,1.378,0.011,1.914-0.479c0.361-0.138,0.184,0.264,0.478,0.193c-0.021-0.437,0.854,0.024,0.861-0.383
			c0.605,0.062,1.029-0.056,1.34-0.288c0.31-0.119,0.073,0.309,0.383,0.192c0.469-0.613,1.638-0.036,2.392-0.67
			c-0.096,0.288,0.213,0.169,0.382,0.191c0.449-0.219,1.419-0.51,1.722-0.287c-0.044-0.395,0.674-0.028,0.67-0.382
			c0.475-0.097,1.134,0.114,1.626-0.096c0.066-0.028-0.017-0.164,0.096-0.192c0.188-0.047,0.406,0.05,0.573,0
			c0.107-0.032,0.097-0.177,0.191-0.192c1.27-0.193,2.45,0.225,3.445-0.287c0.3-0.11,0.232,0.15,0.381,0.192
			c-0.046-0.334,0.467-0.107,0.479-0.383c0.608,0.668,1.198-0.25,1.819,0c0.351,0.141-0.028,0.099,0.382,0
			c0.293-0.071,1.148-0.053,0.956,0.192c0.512-0.592,1.492,0.428,2.009-0.192c-0.017,0.403,0.215,0.065,0.287,0
			c0.38,0.512,1.897-0.111,2.296,0.383c0.301,0.109,0.232-0.15,0.383-0.192c0.004,0.161,0.036,0.168,0.191,0.192
			c0.787,0.114,1.545,0.01,2.488,0.095c0.601,0.635,2.301,0.337,3.443,0.479c0.564,0.54,1.228,0.395,2.2,0.479
			c0.199,0.54,0.83,0.059,1.436,0.191c-0.107-0.585,0.188-0.768,0.765-0.669v-1.054c0.462-0.142,0.81-0.4,1.148-0.67
			c1.536-0.113,3-0.229,4.017,0.192c0.079-0.282,0.504,0.088,0.671-0.192c0.176,0.36,0.723,0.109,1.051,0.192
			c0.066,0.017,0.007,0.166,0.193,0.192c0.333,0.045,0.75-0.074,1.148,0c0.201,0.037,0.438,0.255,0.67,0.287
			c0.492,0.069,0.981-0.11,1.338,0c0.172,0.053,0.197,0.359,0.383,0.288c0.188,0.028,0.189-0.13,0.287-0.192v0.383
			c0.413-0.293,0.65,0.272,1.435,0c-0.107-0.586-0.107-0.276,0-0.863c-0.585-0.816-0.695-2.408-0.478-3.735
			c0.131,0.005,0.21-0.045,0.286-0.095v-0.67c0.707-0.506,0.754-1.672,1.627-2.011v0.766c1.37,0.161,2.404,0.658,3.922,0.67
			c0.183-0.551,1.127-0.34,1.722-0.479c0.136-0.438,0.532-0.617,1.053-0.671c0.622-0.678-0.153-1.443,0-2.49
			c0.339,0.15,0.058-0.325,0.286-0.287c-0.196-0.395,0.183-0.839-0.191-0.958c-0.656,1.226-1.19,2.576-1.914,3.735
			c-0.687,0.249-1.652,0.42-2.295,0c-0.32,0.345-0.991,0.411-1.148-0.095c0.402-0.084,0.201-0.54,0.286-0.958
			c0.006-0.025,0.276,0.026,0.287,0c0.191-0.393-0.012-1.096-0.956-0.862c0.019,0.435-0.426,0.405-0.574,0.67
			c0.028-0.187-0.129-0.19-0.193-0.287c0.492-0.436,0.927-0.924,2.01-0.765c0.223,0.54,0.521,0.798,0.192,1.436
			c0.04,0.15,0.301,0.082,0.191,0.383c0.642,0.071,1.114,0.365,1.626,0.192c0.2-0.067,0.247-0.491,0.574-0.287
			c0.101-1.463,1.252-1.875,1.34-3.351c0.18,0.022,0.211-0.108,0.381-0.096c-0.079-0.494,0.166-0.664,0.383-0.862
			c-0.054-0.743-0.406-1.19-0.764-1.628c-0.006-0.67,0.008-0.77-0.287-1.149c-0.119-0.31,0.309-0.073,0.192-0.383
			c-0.356-0.194-0.037-0.388,0-0.671c0.015-0.121-0.179-0.09-0.192-0.191c-0.003-0.015,0.292-0.011,0.192-0.193
			c-0.028-0.047-0.227,0.02-0.192-0.095c0.35-0.223,0.235-0.913,0.287-1.436c-0.322,0.067-0.314-0.197-0.479-0.288
			c-0.3-0.753-0.768-1.336-1.721-1.436c0.05-0.722-0.97-0.372-0.862-1.15c-0.724,0.054-0.604-0.737-1.149-0.862
			c-0.257-1.115-1.221-1.524-1.53-2.586c-0.179-0.013-0.32-0.063-0.383-0.192c-0.274-0.843-0.768-1.465-1.722-1.628
			c0.01-0.424-0.59-0.239-0.573-0.67c-0.903,0.137-1.265-0.266-2.01-0.287c-0.607-0.751-1.735-0.849-2.87-0.67
			c-0.122,0.019-0.092,0.151-0.191,0.192c-0.177,0.07-0.482-0.041-0.669,0c-0.121,0.026-0.088,0.172-0.192,0.191
			c-0.468,0.088-1.06-0.089-1.34,0.288h-0.764c-0.576,0.501-1.581-0.006-2.107,0.478h-1.338c-0.714,0.639-2.333-0.271-2.871,0.192
			c-0.074-0.262-0.595-0.262-0.669,0c-0.038-0.408-0.802-0.092-1.149-0.192c-0.126,0.001-0.087,0.168-0.191,0.192
			c-0.953-0.089-1.758,0.227-2.296-0.192h-1.338c-0.297,0.31-0.936,0.277-1.531,0.288c-1.477,0.671-3.021,0.683-4.4,1.436h-0.576
			c-0.026,0.293-0.427,0.21-0.479,0.479c-0.662-0.136-1.047,0.362-1.434,0.575c-0.099,0.054-0.283-0.051-0.383,0
			c-0.098,0.049-0.196,0.287-0.383,0.383c-0.422,0.217-0.565,0.501-1.052,0.574c-0.189,0.449-0.576,0.7-0.956,0.958
			c-0.115,0.332-0.15,0.742-0.575,0.765c-0.052,0.14,0.112,0.495-0.095,0.479c-0.142-0.016-0.353,0.034-0.383-0.096
			c0.002-0.158,0.265-0.053,0.288-0.191C-247.206,387.556-247.682,388.165-248.286,388.645L-248.286,388.645L-248.286,388.645z
			 M-286.937,404.062c-0.282,0.643-1.028,0.822-1.243,1.532c1.368-0.066,1.432-1.438,2.583-1.723
			c0.093-0.353,0.469-0.424,0.574-0.766C-285.824,403.261-286.045,403.997-286.937,404.062L-286.937,404.062z M-284.068,403.775
			h0.288v-0.191h-0.288V403.775L-284.068,403.775z M-289.042,404.541c0.427,0.077,0.305-0.396,0.574-0.479
			c-0.272,0.016-0.186-0.324-0.574-0.192V404.541L-289.042,404.541z M-289.329,404.829c0.207,0.015,0.043-0.34,0.095-0.479h-0.287
			C-289.478,404.53-289.65,404.926-289.329,404.829L-289.329,404.829z M-290.189,404.829v0.479c0.368,0.121,0.736-0.592,0.287-0.671
			C-289.89,404.808-289.998,404.861-290.189,404.829L-290.189,404.829z M-289.807,406.264c0.034-0.322,0.632-0.574,0.286-0.957
			C-289.622,405.531-290.39,405.978-289.807,406.264L-289.807,406.264z M-275.935,410.287c0.393,0.116,0.521,0.5,1.052,0.479
			c-0.055-0.31,0.029-0.482,0.191-0.574c-0.188,0.028-0.19-0.131-0.287-0.193c0.118,0.319-0.646,0.235-0.669,0.096
			c-0.006-0.059-0.015-0.113-0.096-0.096C-275.715,410.188-275.873,410.19-275.935,410.287L-275.935,410.287z M-272.3,411.053
			c0.102-0.346,0.143-0.751,0.288-1.054h-1.149C-273.113,410.59-272.908,411.023-272.3,411.053L-272.3,411.053z M-284.163,410.67
			c0.091-0.165,0.354-0.157,0.287-0.479c-0.397-0.026-0.372,0.125-0.669,0C-284.564,410.497-284.385,410.605-284.163,410.67
			L-284.163,410.67z M-279.379,410.67c0.361-0.075,0.457,0.116,0.765,0.095v-0.574C-279.023,410.346-279.416,410.005-279.379,410.67
			L-279.379,410.67z M-269.334,411.436c0.067-0.508,0.524-0.625,0.574-1.149c-0.476,0.029-0.878-0.015-1.244-0.095
			C-269.936,410.762-269.765,411.229-269.334,411.436L-269.334,411.436z M-258.715,410.287c-0.031,0.703,0.521,0.819,0.575,1.436
			c0.557-0.02,0.408-1.25,0.383-1.532C-258.137,410.433-258.289,410.504-258.715,410.287L-258.715,410.287z M-282.058,410.478h0.192
			v-0.192h-0.192V410.478L-282.058,410.478z M-281.579,410.478c0.23,0.407,0.628,0.648,0.957,0.957
			c-0.076-0.491,0.135-0.695,0.095-1.149C-281.044,410.184-281.237,410.407-281.579,410.478L-281.579,410.478z M-280.048,410.765
			c0.294,0.146,0.294-0.625,0-0.479V410.765L-280.048,410.765z M-265.411,411.723c-0.029-0.477,0.015-0.879,0.096-1.245h-0.765
			C-266.084,411.121-265.86,411.534-265.411,411.723L-265.411,411.723z M-263.689,411.532c-0.021-0.308,0.169-0.406,0.096-0.766
			c-0.271,0.078-0.249-0.135-0.479-0.095C-264.14,411.029-264.19,411.51-263.689,411.532L-263.689,411.532z M-265.029,411.244
			c0.222-0.064,0.402-0.172,0.383-0.478h-0.383V411.244L-265.029,411.244z M-261.585,411.723c0.579-0.197,0.25,0.515,0.67,0.479
			h0.287c-0.128-0.672,0.184-0.901,0.192-1.436c-0.401,0.23-0.843,0.23-1.243,0C-261.747,411.183-261.518,411.305-261.585,411.723
			L-261.585,411.723z"/>
		<path id="Fill-30" sketch:type="MSShapeGroup" inkscape:connector-curvature="0" d="M-234.319,421.395
			c-0.138-0.283-0.385,0.114-0.288,0.382c-0.559,0.069-0.653,0.026-1.243,0c0.071-0.293-0.33-0.116-0.192-0.479
			c-0.414,0.095-0.53-0.107-0.765-0.192c0.107-0.149,0.312-0.199,0.288-0.479c0.188,0.418,1.283-0.072,1.435,0.383
			c0.167-0.279,0.801-0.091,1.052-0.287c-0.228-0.411-1.279,0.004-1.339-0.575c-0.181,0.107-0.439,0.135-0.479,0.382
			c-1.579-0.235-2.538,0.645-3.731,0.479v-0.383c0.83-0.255,2.322,0.154,2.488-0.765c0.596-0.088,0.682,0.337,1.338,0.191
			c-0.194-0.849-1.293-0.537-1.722-0.957c0-0.148,0.112-0.221,0.191-0.288c0.187-0.155,0.256-0.045,0.575-0.192
			c0.053-0.024,0.079-0.186,0.095-0.192c0.254-0.079,0.485,0.03,0.67-0.095c0.193-0.131,0.174-0.069,0.574-0.191
			c0.099-0.032,0.705-0.43,1.148-0.288c0.497-0.345,1.161-0.308,1.722-0.479c0.333-0.101,0.551-0.469,0.957-0.288
			c0.149-0.236,0.563-0.202,0.669-0.479c0.753,0.138,1.318-0.632,2.393-0.479c0.103-0.024,0.065-0.191,0.191-0.193
			c1.591-0.004,2.995-0.193,4.019-0.764c-0.016,0.11,0.021,0.169,0.095,0.191c0.18-0.107,0.439-0.135,0.479-0.383
			c2.844-0.241,4.6-1.553,7.654-1.34c0.301-0.305,0.759-0.452,1.434-0.383c0.056,0.437-0.413,1.117,0.383,0.958
			c-0.144,0.27-0.351,0.478-0.765,0.479c-0.25,0.322-0.598,0.55-0.956,0.766c0.123,0.706-0.475,1.137,0,1.627
			c-0.432,0.069-0.479-0.031-0.765,0.095c-0.307,0.492-0.728,0.867-0.67,1.725c0.849-0.714,2.256-0.869,2.966-1.725
			c0.564,0.21,0.615-0.591,1.052-0.191c-0.095,0.32-0.526,0.304-0.574,0.671c-0.789,0.071-1.151,0.571-1.819,0.764
			c-0.129,0.064-0.178,0.206-0.191,0.383c-0.501,0.202-1.05,0.353-1.34,0.766c-0.364,0.019-0.821-0.055-0.861,0.288
			c-0.313-0.392-0.493,0.239-0.765-0.193c-0.234,0.438-0.979,0.361-1.149,0.862c-0.903-0.073-1.535,0.124-2.391,0.096
			c-0.46,0.44-1.079,0.356-1.627,0.479c-0.098,0.022-0.081,0.156-0.192,0.192c-0.704,0.23-1.66-0.181-2.106,0.288
			c-0.478-0.035-0.969,0.046-1.435,0c-0.194-0.02-0.12-0.174-0.192-0.192c-0.517-0.128-1.388,0.257-1.625-0.288
			c-0.615-0.126-1.724,0.083-2.01-0.287c-0.139,0.04-0.631,0.464-0.668,0c-0.091,0.164-0.354,0.157-0.288,0.479h-1.531
			c0.447,0.339,1.293,0.508,1.339,0.288c0.177,0.144,0.473,0.166,0.67,0.287c-0.252,0.321-0.914,0.244-1.34,0.192
			c-0.141-0.017-0.695-0.309-1.05-0.288C-234.489,421.608-234.606,421.298-234.319,421.395L-234.319,421.395z M-215.664,413.925
			h0.288v-0.192h-0.288V413.925L-215.664,413.925z M-216.43,414.022c-0.018-0.142-0.23-0.088-0.382-0.096
			C-217.015,414.278-216.325,414.357-216.43,414.022L-216.43,414.022z M-219.013,414.405h0.193v-0.192h-0.193V414.405
			L-219.013,414.405z M-220.256,414.5v0.383c0.186-0.293,0.93-0.027,0.956-0.479C-219.716,414.337-219.838,414.567-220.256,414.5
			L-220.256,414.5L-220.256,414.5z M-220.351,414.692h-0.479C-220.976,414.986-220.204,414.986-220.351,414.692L-220.351,414.692z
			 M-219.681,415.84c-0.179-0.275-1.081,0.309-1.626,0c-0.095,0.098-0.191,0.194-0.288,0.288c-0.939-0.078-1.378,0.344-2.295,0.286
			c-0.36,0.204-0.957,0.39-1.149,0.48c-0.131,0.061-0.347-0.06-0.479,0c-0.069,0.03,0.021,0.164-0.096,0.191
			c-0.621,0.145-1.383,0.076-2.008,0.288c-0.152,0.05-0.085,0.153-0.287,0.191c-0.975,0.18-2.016,0.299-3.062,0.383
			c-0.656,0.396-1.766,0.339-2.296,0.862c-0.592,0.013-1.154,0.058-1.339,0.479c0.282,0.103,0.575,0.193,0.862,0.288
			c0.294,0.072,0.116-0.33,0.478-0.191c0.197,0.189,0.091,0.189,0.287,0c0.359,0.377,1.372,0.148,1.914,0.286
			c0.018,0.006-0.019,0.184,0,0.193c0.101,0.044,0.402-0.075,0.478,0c0.02,0.018-0.021,0.184,0,0.191
			c0.47,0.156,0.777,0.036,1.245,0.097c0.036,0.281,0.418,0.219,0.573,0.381c1.636,0.047,2.763,0.039,4.209-0.191
			c0.603-0.355,1.647-0.268,2.107-0.766c0.822,0.153,1.51-0.656,2.391-0.766c-0.017-0.239,0.213-0.232,0.287-0.383
			c1.106-0.041,1.293-1.005,2.105-1.34v-0.479c0.506,0.155,0.186-0.516,0.575-0.479c-0.118-0.298-0.366-0.465-0.288-0.957
			C-218.079,415.465-219.233,415.3-219.681,415.84L-219.681,415.84z M-228.866,416.607h0.383v-0.193h-0.383V416.607
			L-228.866,416.607z"/>
	</g>
</g>
<path id="path3021" inkscape:connector-curvature="0" fill="#CCCCCC" d="M-270.207,452.088c-0.082-0.082-1.403-0.201-2.936-0.266
	s-3.814-0.221-5.07-0.35c-1.256-0.128-3.644-0.197-5.307-0.153c-1.908,0.05-3.023-0.021-3.023-0.191
	c0-0.149-0.138-0.187-0.307-0.082c-0.264,0.163-3.883,0.675-4.664,0.659c-1.13-0.021-3.546-0.388-3.778-0.572
	c-0.157-0.124-1.003-0.297-1.881-0.383c-0.878-0.086-1.838-0.195-2.133-0.244c-0.295-0.047-0.719-0.104-0.94-0.123
	c-0.5-0.045-1.098-1.271-0.887-1.82c0.086-0.224,0.229-0.299,0.32-0.167s1.015,0.172,2.055,0.089c1.62-0.127,2.042-0.273,2.95-1.021
	c1.347-1.111,2.315-1.229,1.327-0.162c-0.363,0.391-0.659,0.868-0.659,1.062c0,0.509,1.554,0.86,2.956,0.667
	c0.665-0.091,1.935-0.069,2.821,0.048c5.188,0.687,12.251,0.804,14.913,0.249c0.812-0.17,2.115-0.377,2.894-0.461
	c1.662-0.178,3.067-0.928,3.509-1.873c0.679-1.451,0.853-1.925,1.134-3.09c0.161-0.665,0.358-1.482,0.44-1.816
	c0.222-0.911-0.401-2.127-1.275-2.489c-0.426-0.177-1.087-0.61-1.468-0.964c-0.381-0.353-0.916-0.642-1.188-0.642
	c-0.272,0-0.568-0.192-0.659-0.429c-0.244-0.635-2.608-0.236-4.212,0.709c-1.608,0.949-4.088,1.984-6.697,2.797
	c-1.108,0.346-2.56,0.828-3.225,1.071s-1.813,0.629-2.552,0.856c-1.765,0.543-2.957,1.133-3.844,1.904
	c-1.268,1.102-1.428,1.209-1.581,1.056c-0.083-0.083,0.603-0.854,1.521-1.716c1.246-1.168,1.648-1.718,1.579-2.16
	c-0.091-0.574-0.12-0.58-0.9-0.159c-0.443,0.238-1.168,0.532-1.612,0.652s-1.108,0.3-1.478,0.401
	c-0.646,0.176-0.651,0.168-0.134-0.213c0.295-0.217,0.982-0.54,1.526-0.717s1.692-0.775,2.552-1.33
	c3.173-2.047,4.113-2.424,6.401-2.571c1.182-0.075,2.693-0.256,3.358-0.399c2.239-0.484,2.814-0.598,4.971-0.984
	c3.923-0.701,6.443-1.232,6.86-1.445c0.419-0.215,2.016-0.609,2.273-0.562c0.078,0.014,0.494-0.156,0.924-0.379
	c0.566-0.293,0.811-0.318,0.887-0.091c0.104,0.312,3.196-1.256,3.386-1.716c0.049-0.12,0.263-0.218,0.476-0.218
	c0.36,0,2.495-1.218,2.793-1.593c0.316-0.398,2.986-2.17,3.292-2.186c0.185-0.009,0.703-0.522,1.152-1.142
	c1.009-1.389,4.012-2.993,7.513-4.014c4.203-1.225,6.412-1.308,6.13-0.229c-0.169,0.646,0.673,0.953,1.954,0.713
	c1.103-0.207,1.249-0.795,0.158-0.635c-0.418,0.061-0.896-0.036-1.064-0.217c-0.417-0.445,0.951-0.643,4.241-0.61
	c1.728,0.017,3.465-0.173,5.374-0.585c1.551-0.334,3.305-0.608,3.896-0.607c0.98,0.002,3.169,0.633,4.164,1.202
	c0.222,0.127,0.669,0.346,0.994,0.487c0.324,0.141,0.805,0.594,1.068,1.006c0.263,0.414,0.541,0.812,0.619,0.886
	c0.078,0.074,0.496,0.679,0.932,1.344c0.877,1.344,2.938,3.493,3.35,3.493c0.145,0,0.561,0.393,0.921,0.873
	c0.558,0.742,0.653,1.157,0.636,2.764c-0.015,1.4,0.112,2.113,0.488,2.751l0.508,0.86l-0.996,1.963
	c-0.548,1.08-0.996,2.08-0.996,2.223s-0.238,0.408-0.529,0.59c-0.803,0.501-1.889-0.002-1.889-0.875
	c0-0.451-0.193-0.758-0.562-0.895c-0.505-0.188-0.519-0.244-0.134-0.562c0.515-0.428,0.554-0.825,0.08-0.825
	c-0.514,0-3.146,2.562-3.146,3.062c0,0.237,0.122,0.432,0.271,0.432c0.15,0-0.02,0.463-0.378,1.029
	c-0.357,0.566-0.767,1.451-0.908,1.967c-0.247,0.892-0.085,3.03,0.273,3.609c0.093,0.149,0.064,0.439-0.062,0.645
	c-0.187,0.303-0.425,0.314-1.259,0.066c-1.596-0.475-5.298-0.94-7.736-0.973c-2.273-0.03-3.637,0.379-3.637,1.091
	c0,0.196-0.244,0.603-0.545,0.903c-0.465,0.465-0.752,0.52-1.947,0.367c-0.771-0.098-1.523-0.271-1.672-0.386
	s-0.994-0.265-1.881-0.334c-0.887-0.07-2.882-0.274-4.434-0.454c-4.609-0.533-15.509,0.056-16.896,0.913
	c-0.101,0.062-0.763,0.182-1.472,0.265c-0.708,0.084-1.37,0.202-1.469,0.264c-0.1,0.061-0.785,0.18-1.524,0.264
	c-1.427,0.161-4.018,0.626-4.721,0.848C-269.867,452.178-270.125,452.17-270.207,452.088L-270.207,452.088L-270.207,452.088z
	 M-268.391,451.045c0.661-0.483,0.464-0.688-0.485-0.505c-0.406,0.078-0.739,0.31-0.739,0.514
	C-269.615,451.533-269.054,451.529-268.391,451.045L-268.391,451.045L-268.391,451.045z M-267.034,448.269
	c0.417-0.55,0.495-1.948,0.109-1.948c-0.336,0-1.125,1.856-0.926,2.178C-267.633,448.852-267.434,448.795-267.034,448.269z
	 M-261.491,448.187c0.996-0.174,1.974-0.252,2.173-0.176c0.413,0.158,5.021-0.226,7.033-0.586c0.739-0.133,1.469-0.141,1.621-0.018
	c0.354,0.286,5.988,0.779,6.9,0.604c0.377-0.071,0.758-0.015,0.845,0.127c0.101,0.162,0.988,0.123,2.383-0.104
	c1.223-0.198,2.586-0.364,3.029-0.368c1.731-0.016,2.934-0.578,4.234-1.982c1.2-1.295,2.886-4.072,2.886-4.754
	c0-0.169,0.175-0.688,0.389-1.153c0.901-1.968,1.269-3.915,1.076-5.71c-0.113-1.057-0.33-1.816-0.541-1.897
	c-0.264-0.102-0.312-0.592-0.197-1.966c0.13-1.559,0.078-1.91-0.354-2.363c-0.635-0.666-1.469-0.928-3.189-0.998
	c-0.889-0.037-1.988-0.363-3.229-0.96c-2.813-1.353-4.17-1.564-6.449-1.009c-3.197,0.779-6.075,1.885-9.337,3.584
	c-0.702,0.366-1.428,0.672-1.612,0.682c-0.185,0.008-0.819,0.559-1.411,1.221c-0.591,0.664-1.407,1.572-1.813,2.021
	s-0.739,0.964-0.739,1.146c0,0.351-1.368,1.776-1.706,1.776c-0.424,0-3.131,2.234-3.131,2.584c0,0.204-0.121,0.371-0.269,0.371
	c-0.148,0-0.269,0.129-0.269,0.285c0,0.322-1.348,3.27-1.59,3.477c-0.529,0.453-0.894,1.662-1.025,3.393
	c-0.143,1.897-0.119,2.011,0.576,2.654c0.465,0.432,0.937,0.63,1.315,0.553C-263.566,448.556-262.486,448.359-261.491,448.187
	C-261.49,448.187-261.49,448.187-261.491,448.187z M-222.166,446.99c0.356-0.543,0.377-0.75,0.105-1.076
	c-0.686-0.827,0.373-7.159,1.391-8.312c0.123-0.141,0.225-0.473,0.225-0.739c0-0.266,0.1-0.483,0.221-0.483
	c0.122,0,0.213-0.592,0.202-1.315c-0.017-1.099,0.124-1.495,0.854-2.402c0.48-0.599,0.874-1.239,0.874-1.425
	c0-0.26,0.072-0.266,0.316-0.021c0.234,0.234,0.24,0.475,0.021,0.927c-0.795,1.646-0.965,3.163-0.354,3.163
	c0.309,0,0.82-1.293,0.829-2.096c0.007-0.623,0.048-0.659,0.282-0.256c0.372,0.639,1.053,0.596,1.053-0.067
	c0-0.296-0.121-0.537-0.268-0.537c-0.148,0-0.27-0.235-0.27-0.521c0-0.287-0.121-0.597-0.269-0.688s-0.269-0.414-0.269-0.716
	c0-0.397-0.121-0.504-0.436-0.384c-0.33,0.126-0.402,0.042-0.301-0.351c0.109-0.415-0.043-0.551-0.773-0.688
	c-0.537-0.102-0.908-0.33-0.908-0.562c0-0.489-0.258-0.483-0.925,0.021c-0.287,0.217-0.771,0.394-1.075,0.393
	c-1.011-0.006-3.91,1.17-4.275,1.732c-0.811,1.248-1.503,4.449-0.963,4.449c0.611,0,0.051,5.076-0.636,5.764
	c-0.251,0.25-0.456,0.628-0.456,0.839s-0.121,0.384-0.269,0.384s-0.269,0.168-0.269,0.374s-0.169,0.439-0.376,0.519
	c-0.206,0.08-0.519,0.576-0.692,1.104s-0.428,0.959-0.564,0.959s-0.248,0.206-0.248,0.457c0,0.355-0.071,0.385-0.322,0.135
	c-0.475-0.475-0.58-0.416-1.138,0.619c-0.546,1.014-0.421,1.496,0.244,0.945c0.563-0.469,6.196-0.377,7.123,0.115
	C-223.405,447.818-222.653,447.734-222.166,446.99L-222.166,446.99L-222.166,446.99z M-282.392,439.049
	c0.159-0.157-0.052-0.252-0.56-0.252c-0.448,0-0.903,0.089-1.012,0.197c-0.338,0.338-2.311,0.834-2.311,0.58
	c0-0.131-0.121-0.24-0.269-0.24s-0.269,0.182-0.269,0.403c0,0.224-0.239,0.403-0.538,0.403c-0.35,0-0.537,0.18-0.537,0.514
	c0,0.477,0.188,0.445,2.62-0.422C-283.826,439.719-282.532,439.186-282.392,439.049z M-214.587,438.69
	c0.399-0.206,0.94-0.612,1.202-0.901c0.41-0.453,0.423-0.572,0.092-0.847c-0.309-0.256-0.521-0.183-1.07,0.364
	c-0.375,0.377-0.811,0.685-0.965,0.685s-0.281,0.241-0.281,0.537C-215.609,439.167-215.533,439.18-214.587,438.69z
	 M-264.107,436.916c0.091-0.147,0.431-0.27,0.755-0.27c0.591-0.002,2.335-1.416,2.335-1.894c0-0.366-0.601-0.313-1.216,0.108
	c-0.292,0.199-0.843,0.438-1.225,0.531c-0.889,0.216-2.178,1.223-1.979,1.545C-265.233,437.268-264.315,437.254-264.107,436.916z
	 M-265.473,435.947c0.654-0.251,0.504-0.643-0.247-0.643c-0.418,0-0.672,0.152-0.672,0.402
	C-266.391,436.141-266.145,436.205-265.473,435.947z M-212.834,434.162c-0.205-1.84-0.625-2.297-0.625-0.68
	c0,1.348,0.196,2.09,0.553,2.09C-212.781,435.572-212.748,434.937-212.834,434.162L-212.834,434.162z M-260.358,433.648
	c0.562-0.256,0.989-1.031,0.568-1.031c-0.528,0-1.496,0.604-1.496,0.934C-261.286,434.043-261.234,434.049-260.358,433.648
	L-260.358,433.648z M-227.693,430.316c0.338-0.888,0.334-0.924-0.111-0.924c-0.385,0-0.701,0.557-0.701,1.231
	C-228.506,431.255-227.973,431.053-227.693,430.316z M-222.974,427.492c0.19-0.158,0.294-0.43,0.229-0.604
	c-0.068-0.182,0.473-0.544,1.273-0.854c0.766-0.296,1.44-0.688,1.5-0.873c0.153-0.478-0.403-0.417-1.666,0.183
	c-0.601,0.285-1.818,0.603-2.705,0.705c-1.883,0.219-1.867-0.1,0.02-0.369c0.703-0.101,1.326-0.32,1.381-0.486
	c0.145-0.435-1.602-0.7-2.459-0.374c-0.874,0.333-3.703,0.364-4.059,0.046c-0.141-0.125-0.773-0.173-1.406-0.105
	c-0.946,0.102-1.096,0.189-0.841,0.498c0.243,0.293,0.216,0.373-0.126,0.373c-0.652,0-0.524,0.715,0.169,0.938
	c0.679,0.218,1.431,0.312,3.964,0.491c1.381,0.098,1.766,0.221,1.84,0.589c0.078,0.392,0.289,0.438,1.316,0.298
	C-223.871,427.855-223.164,427.65-222.974,427.492L-222.974,427.492L-222.974,427.492z M-242.832,423.965
	c0.824-0.298,1.256-1.021,0.609-1.021c-0.479,0-1.867,0.805-1.867,1.081C-244.09,424.365-243.914,424.355-242.832,423.965z"/>
<path id="path3023" inkscape:connector-curvature="0" fill="#CCCCCC" d="M-291.379,466.458c-0.517-0.14-1.454-0.187-2.083-0.104
	c-0.665,0.088-1.142,0.043-1.142-0.109c0-0.145,0.453-0.326,1.007-0.404c1.437-0.204,7.072-0.953,9.606-1.277
	c1.182-0.151,2.699-0.382,3.372-0.512c0.672-0.131,2.394-0.258,3.826-0.285c1.432-0.027,3.179-0.165,3.882-0.307
	c0.704-0.143,2.368-0.364,3.698-0.493c1.33-0.128,3.325-0.355,4.434-0.504c1.108-0.148,3.042-0.386,4.299-0.526
	s2.866-0.507,3.577-0.812c0.711-0.307,2.101-0.682,3.09-0.834c3.536-0.545,4.892-0.847,8.649-1.922
	c0.664-0.191,1.752-0.609,2.418-0.93c0.664-0.32,1.249-0.474,1.299-0.342c0.134,0.361,0.744,0.29,1.091-0.128
	c0.169-0.202,1.06-0.45,1.981-0.55c3.333-0.361,9.641-1.442,13.496-2.312c0.739-0.166,1.586-0.332,1.881-0.369
	c0.296-0.036,0.802-0.208,1.125-0.383c0.688-0.371,1.871-0.417,2.078-0.081c0.081,0.13,0.777,0.091,1.562-0.087
	c0.778-0.177,2.322-0.285,3.431-0.242c1.108,0.044,2.166,0.083,2.352,0.087c0.769,0.017,0.248,1.263-0.996,2.388
	c-1.548,1.398-3.118,2.948-4.365,4.309c-0.614,0.67-1.395,1.146-2.383,1.458c-0.809,0.255-1.863,0.702-2.344,0.994
	s-1.038,0.532-1.238,0.532s-0.502,0.166-0.67,0.369c-0.253,0.305-1.721,0.715-4.059,1.135c-1.022,0.183-6.764,0.93-8.33,1.083
	c-2.51,0.245-7.422,0.128-8.852-0.213c-0.673-0.161-1.768-0.345-2.433-0.409c-0.665-0.065-1.935-0.309-2.821-0.539
	c-1.525-0.398-6.839-0.521-9.941-0.229c-0.591,0.057-1.861,0.176-2.821,0.268c-0.961,0.09-2.23,0.299-2.821,0.462
	c-1.745,0.481-4.312,0.935-4.654,0.821c-0.174-0.059-0.316-0.277-0.316-0.486c0-0.219-0.264-0.381-0.62-0.381
	c-1.028,0-3.948,1.097-3.948,1.482c0,0.551-2.625,0.772-6.305,0.533c-3.478-0.227-3.683-0.229-6.324-0.027
	C-289.653,466.653-290.862,466.599-291.379,466.458L-291.379,466.458z M-282.636,465.648c0.097-0.158,0.128-0.336,0.069-0.395
	c-0.196-0.197-2.095,0.209-2.095,0.447C-284.662,466.037-282.847,465.99-282.636,465.648z M-239.388,464.322
	c0.091-0.147,0.038-0.268-0.118-0.268c-0.473,0-0.32-0.491,0.186-0.598c0.258-0.053,1.498,0.064,2.754,0.264
	c2.363,0.374,5.84,0.141,6.978-0.469c0.28-0.15,1.007-0.272,1.612-0.272s1.369-0.168,1.697-0.373
	c0.327-0.205,1.023-0.448,1.547-0.539c0.523-0.092,1.607-0.589,2.409-1.104c0.802-0.517,1.583-0.939,1.737-0.939
	s0.432-0.242,0.615-0.537c0.488-0.781-0.021-0.704-1.908,0.291c-0.863,0.454-1.621,0.773-1.686,0.709c-0.258-0.258,0.25-1,0.686-1
	c0.342,0,0.463-0.225,0.463-0.854c0-0.628,0.223-1.04,0.841-1.556c0.636-0.531,0.802-0.848,0.683-1.305
	c-0.148-0.566-0.256-0.594-1.803-0.436c-1.793,0.184-6.55,1.227-9.265,2.031c-0.938,0.279-2.122,0.507-2.63,0.507
	c-0.797,0-4.509,1.079-9.076,2.639c-1.341,0.458-1.951,1.116-1.051,1.132c0.956,0.018-0.703,1.066-1.687,1.066
	c-0.662,0-0.911,0.119-0.911,0.438c0,0.357,0.191,0.406,1.052,0.269c0.578-0.093,1.243-0.241,1.478-0.331
	c0.281-0.108,0.427-0.017,0.427,0.268c0,0.237,0.181,0.432,0.403,0.432c0.221,0,0.402,0.114,0.402,0.254
	c0,0.225,0.684,0.33,3.275,0.504C-239.879,464.57-239.479,464.471-239.388,464.322z M-256.083,462.308
	c1.183-0.349,1.798-1.132,0.676-0.862c-0.352,0.085-1.395,0.308-2.319,0.494c-1.033,0.211-1.679,0.477-1.679,0.693
	C-259.405,463.022-258.056,462.891-256.083,462.308z M-248.537,462.196c0.083-0.136,0.017-0.291-0.148-0.346
	c-0.508-0.169-2.121,0.099-2.121,0.353C-250.807,462.519-248.732,462.513-248.537,462.196L-248.537,462.196z M-246.284,461.082
	c1.134-1.056,0.084-1.299-1.903-0.44c-1.085,0.469-0.934,0.994,0.285,0.994C-247.24,461.636-246.668,461.44-246.284,461.082
	L-246.284,461.082z M-219.805,457.749c0.633-0.966,0.55-1.256-0.305-1.054c-1.039,0.244-1.236,0.5-0.889,1.15
	C-220.604,458.581-220.336,458.56-219.805,457.749z M-218.564,454.381c0-0.147-0.295-0.269-0.656-0.269
	c-0.36,0-0.73,0.121-0.821,0.269c-0.097,0.157,0.177,0.27,0.655,0.27C-218.934,454.65-218.564,454.529-218.564,454.381z"/>
</svg>
