<?xml version="1.0" encoding="utf-8"?>
<!-- Generator: Adobe Illustrator 15.1.0, SVG Export Plug-In . SVG Version: 6.00 Build 0)  -->
<!DOCTYPE svg PUBLIC "-//W3C//DTD SVG 1.1//EN" "http://www.w3.org/Graphics/SVG/1.1/DTD/svg11.dtd">
<svg version="1.1" id="Layer_1" xmlns="http://www.w3.org/2000/svg" xmlns:xlink="http://www.w3.org/1999/xlink" x="0px" y="0px"
	 width="100px" height="100px" viewBox="-305.5 396.5 100 100" enable-background="new -305.5 396.5 100 100" xml:space="preserve">
<g id="Captions">
</g>
<g id="Your_Icon">
	<path d="M-292.238,438.203c0,0,1.312,2.229,1.18-4.982c0,0,0.788-0.787,1.181-1.049c0.393-0.263,4.064-9.572,5.9-10.096
		l1.442-1.574h1.442l1.311-0.918c0,0,11.408-6.95,15.342,0c0,0-5.179-2.885-5.77-0.723l-0.722-0.064l-0.852,1.049l-1.18,0.262
		l-0.131,0.524l-0.328,0.459l-0.852,0.197l0.131,0.788l-0.166,0.22l-0.157,0.21l-0.268,0.355l-0.917,0.394l-0.262,0.59l0.918-0.132
		l0.853-0.917h0.524l0.197-1.376l0.721,0.917l0.065-1.114l0.852,0.655l0.722-1.376l1.312,0.852l1.901-0.328
		c0,0,3.015,0.328,3.933-2.031c0.918-2.361,0.131,3.212-1.705,3.671c0,0-4.787,3.476-5.966,6.622c0,0-3.54,5.312-10.686,9.506
		c0,0-1.64,0.59,1.77,0.918l0.328-0.852c0,0,0.852,0.787,1.376,1.311c0.525,0.523,1.049-0.262,1.246,0
		c0.197,0.264,0.065-0.786,0.065-0.786s1.312,2.099,2.361,1.64l0.262-0.459c0,0,0.394,0.853,1.18,0.523
		c0.788-0.328,0.328-1.704,0.328-1.704s0.394,0.524,1.246,0.263c0.852-0.263,0.524-1.442,0.524-1.442s0.722,0.524,1.377,0.065
		c0.656-0.459,0.328-2.033,0.394-1.836s0.983,0.983,1.376,0.524c0.394-0.458,0.722-2.099,0.722-2.099s1.115,1.377,1.507,0.789
		c0.394-0.592,0.59-2.099,0.787-1.967c0.197,0.131,1.228,1.508,1.893,0.786c0.665-0.721,0.336-1.836,0.336-1.836
		s0.197-2.164,1.311,0.722c1.115,2.885,0.983-0.131,0.983-0.131l0.329-0.132c0,0-1.968-5.048-3.475-4.851
		c0,0,1.45,0.189,3.857,4.343c0.047,0.081,0.095,0.164,0.142,0.247c0,0,0,2.098,1.049,0c0,0,1.246,1.049,1.441,0.656
		c0.198-0.395-0.13-1.312,1.51,0.065l1.049-0.788c0,0,0.131,0.461,0.918,0.461c0.785,0,0.983-0.658,0.983-0.658
		s0.591,0.461,0.785,0.723c0.197,0.263,1.902-4.458,4.131-5.9c0,0-3.409,4.982-3.016,5.375l0.721,0.918c0,0,0.854-1.312,1.246-1.508
		c0.393-0.197,0.787-0.984,0.196,1.835c0,0,0.787,0.853,1.377,0.328c0.589-0.524,0.786-1.114,0.853-0.918
		c0.063,0.197,0,1.836,0.722,2.229s1.377-0.853,1.377-0.853l0.784,1.836c0,0,0.921,0.197,1.312-0.59
		c0.393-0.786,0.721,0.918,0.59,1.442c-0.129,0.524,0.918,0.722,1.312,0.132c0.396-0.591,0.396,0.524,0.46,1.049s1.18,0.59,1.376,0
		c0.197-0.59,0.524,1.377,0.59,1.901c0.065,0.523,0.918,0.721,1.05,0.131c0.133-0.59-0.132,1.64,0,1.902
		c0.133,0.26,0.984-0.658,0.854-1.246c-0.131-0.59-0.395,1.44,0.722,0.654c1.113-0.787,1.245-1.507,1.245-1.507
		s0.064,0.328,0.589,0.655c0.526,0.328,2.296-0.984,2.296-0.984l1.114,0.329h1.048c0,0-3.474,0-7.734-6.622
		c-4.26-6.622-0.264-0.328-0.264-0.328s-2.488-0.984-7.016-4.917c0,0-7.014-4.393-5.111-6.819c0,0,1.506,1.968,3.801,2.033
		s2.295,0.786,2.295,0.786l0.655-0.786c0,0,1.705-0.197,1.771,0.59c0.065,0.787,1.967-0.982,2.295,0.787
		c0.327,1.77,0.983-1.377,1.64,0.328c0.655,1.705,1.245,0.065,1.245,0.327c0,0.263-0.458-12.653-11.082-8.851
		c0,0,4.067-9.702,15.476,3.082l0.982-0.328l0.59,0.656l1.049-0.263c0,0-0.517,1.037,1.037,2.084c0.104,0.07,0.217,0.14,0.342,0.21
		c1.842,1.045,7.547,7.967,7.928,10.827c0.027,0.19,0.029,0.363,0.004,0.515c-0.393,2.427,0.264,0.196,0.656,1.115
		c0.392,0.917,0,1.312,0,1.312l0.176,1.245v2.688l0.939,0.591l-1.641,3.146l0.329,0.722c0,0-1.705,1.376-2.295,1.9
		c-0.593,0.524-0.984,0.721-2.755,0.655l-0.133,0.655c0,0-2.752,1.64-3.276,1.573c-0.522-0.064,2.95-0.459,3.672-0.852
		c0.722-0.395,1.508-0.131,2.099-0.723c0.59-0.591,5.311-3.54,5.441-4.195c0.129-0.656,0.197-1.285-0.787-1.771
		s2.818,0.328,2.753,1.114c-0.065,0.787,0.46,0.394,0.46,0.394v0.853c0,0-2.361,2.098-6.162,4.72c0,0-5.703,1.706-6.296,2.36
		c-0.59,0.654-0.132,0.328-0.132,0.328l0.132,0.457c0,0-2.358,0.461-3.669,0c0,0-5.771,1.836-11.477,2.1c0,0-2.293,3.277,3.345,0
		c0,0,9.966-2.426,11.866-1.312c0,0,0.59-1.441,0.853-0.394c0,0,6.224,0.252,7.869,1.019c0.233,0.108,0.377,0.229,0.394,0.359
		c0.131,1.049-0.017-0.131-0.017-0.131s6.638-3.344,7.292-2.034c0,0,3.344,0.461,2.689,3.214c0,0-0.135-0.395-2.166-1.245
		c0,0-3.081,0.196-9.113,2.359c0,0-5.439-1.442-6.619-1.114l-0.525,0.785c0,0-6.358-0.655-7.408,0.657
		c-1.051,1.312-9.506,0.786-10.096,1.508c-0.592,0.721-1.902,2.425-0.065,1.376c0.454-0.26,1.573-0.854,1.573-0.854
		s0.852,0,0.852-0.195c0-0.18,10.189-2.178,13.051-2.055c0.262,0.011,0.463,0.037,0.586,0.088c1.508,0.591,1.313,0.394,1.313,0.394
		s5.899,1.901,6.095,3.541c0,0,5.172,1.604,5.837,3.342c0.033,0.089,0.058,0.177,0.063,0.265c0.197,1.834,0.525,4.195-1.244,6.425
		l-0.656,0.458c0,0-0.328-1.049,0-2.162c0.327-1.114,0.066-0.328,0.066-0.328s-0.264-1.115-0.197-2.165
		c0.064-1.049,0.654-0.917,0.721-1.31c0.066-0.395-1.572-0.133-1.572-0.133s-5.506-1.771-6.096-3.735c0,0-1.117,0.354-3.214-2.165
		c0,0-7.017,1.51-10.753,1.771c0,0,4.721,2.621,0.523,5.113c0,0,3.084,4.195,0.787,6.752l-1.049,0.525c0,0,2.164,3.344-4.263,5.572
		c0,0-3.409,1.311-7.276-2.164c0,0,1.771-3.408,5.965-4.723c0,0,0.33-6.227,2.56-7.406l-2.56-0.395c0,0,0,1.574-3.539-1.05
		c0,0-1.637,1.245-3.342,0.196c0,0-5.641,2.821-12.656,0.066c0,0-1.179,0.982-3.212,0.131c0,0-1.771,2.229-4.196,1.9
		c0,0-3.54,0.654-4.655-0.262l0.328,1.114c0,0,3.344,1.509,4.196,4.394c0,0,8.507,0.354,8.13,2.623
		c-0.066,0.394-5.967,8.324-11.998,1.9c0,0-3.934-1.968-3.606-6.097c0,0,1.705-1.508,2.164-0.983
		c0.459,0.523-2.426-0.459-2.754-1.246c0,0-0.393,1.967-0.524,0.654c-0.131-1.312-1.573-4.395,1.771-5.375
		c0,0-6.622,0.196-7.736-0.395l-1.376-0.131c0,0-5.836,5.572-10.555,5.572c0,0,0.328,3.147,0.917,5.246c0,0-3.343,0.062-2.229-6.949
		c0,0,3.75-3.513,5.238-3.392c0.073,0.007,0.142,0.021,0.204,0.047c1.311,0.522,1.441-5.312,14.882-3.869
		c0,0-9.245-0.459-9.899-0.721c-0.656-0.263-0.656-0.263-0.656-0.263s-1.246,0.197-1.574,0.263
		c-0.328,0.065-1.049,0.721-1.967,1.049c0,0-4.458,0.197-5.638-0.787c0,0-5.442-0.394-5.835-1.114c0,0-1.901,0-2.032,1.246
		s-1.314-1.375,1.767-3.341c0,0,6.031,0.329,7.277,1.64c0,0,7.08-2.032,8.392-1.181c1.311,0.853-0.329-0.524-0.329-0.524
		l0.459-0.195c0,0,13.332,0.243,15.602,2.031c0.08,0.063,0.147,0.13,0.198,0.195c1.508,1.969,0.656-0.852,0.656-0.852
		s-0.328-0.785-0.853-1.049c-0.524-0.264-5.114,0.328-9.375-1.9c0,0-4.13-0.395-4.524-0.329c-0.394,0.066,0.394-0.064,0.394-0.064
		l-1.115-0.919c0,0-1.835,1.443-11.998-7.146c0,0-1.771-2.098,2.623-2.753c4.393-0.654-0.589,0.721-0.328,1.51
		c0.263,0.785,5.506,6.947,10.752,6.621l0.655-0.787c0,0,5.376,2.621,9.769,2.95c4.393,0.326-2.032-1.64-2.032-1.64l0.917-0.723
		l-0.328-0.785c0,0-3.278,0.916-6.622-0.459c0,0-3.54-1.036-4.13-1.896c-0.589-0.858,0.328-0.399,0.328-0.399
		S-290.992,445.938-292.238,438.203z"/>
</g>
</svg>
