<?xml version="1.0" encoding="utf-8"?>
<!-- Generator: Adobe Illustrator 15.1.0, SVG Export Plug-In . SVG Version: 6.00 Build 0)  -->
<!DOCTYPE svg PUBLIC "-//W3C//DTD SVG 1.1//EN" "http://www.w3.org/Graphics/SVG/1.1/DTD/svg11.dtd">
<svg version="1.1" id="Layer_1" xmlns="http://www.w3.org/2000/svg" xmlns:xlink="http://www.w3.org/1999/xlink" x="0px" y="0px"
	 width="100px" height="100px" viewBox="-331.5 396.5 100 100" enable-background="new -331.5 396.5 100 100" xml:space="preserve">
<path d="M-262.396,441.573c1.234,0.216,2.485,0.335,3.734,0.349c4.981,0.055,9.568-1.528,13.261-4.579l2.171-1.794
	c1.451-1.198,1.8-3.17,0.781-4.403c-1.019-1.232-3.021-1.263-4.472-0.063l-0.525,0.433l-12.919-15.635l0.524-0.434
	c1.451-1.199,1.8-3.17,0.781-4.404c-1.02-1.233-3.022-1.262-4.473-0.063l-2.171,1.794c-3.692,3.051-6.112,7.256-6.997,12.159
	c-0.746,4.129-0.34,8.508,1.145,12.329c1.107,2.852,1.429,6.226,0.881,9.255c-0.325,1.801-1.089,4.201-2.86,6.306l-12.674-15.338
	c1.175-0.657,2.375-1.063,3.507-1.307l9.997,12.099c0.208-0.635,0.352-1.243,0.45-1.788c0.241-1.333,0.297-2.742,0.176-4.138
	l-5.217-6.314c1.319,0.19,2.634,0.536,3.883,1.019c-0.757-2.246-1.178-4.646-1.246-7.068c-1.233-0.217-2.484-0.335-3.734-0.35
	c-4.983-0.057-9.568,1.527-13.261,4.578c-3.692,3.052-6.113,7.256-6.998,12.16c-0.745,4.128-0.338,8.506,1.146,12.328
	c1.108,2.851,1.429,6.225,0.882,9.254c-0.326,1.801-1.088,4.197-2.855,6.302l-12.672-15.337c1.175-0.657,2.375-1.063,3.507-1.304
	l9.992,12.093c0.209-0.634,0.35-1.238,0.448-1.781c0.242-1.338,0.296-2.751,0.174-4.15l-5.206-6.301
	c1.315,0.19,2.626,0.537,3.872,1.017c-0.757-2.246-1.177-4.647-1.246-7.068c-1.234-0.217-2.485-0.335-3.734-0.349
	c-4.982-0.057-9.566,1.526-13.259,4.578l-2.172,1.795c-1.45,1.198-1.799,3.169-0.779,4.403c1.018,1.233,3.021,1.262,4.471,0.063
	l0.526-0.435l12.92,15.637l-0.526,0.435c-1.45,1.198-1.799,3.169-0.78,4.403c1.02,1.233,3.021,1.263,4.471,0.064l2.172-1.795
	c3.693-3.051,6.111-7.256,6.998-12.159c0.745-4.128,0.337-8.507-1.145-12.327c-1.108-2.853-1.428-6.227-0.882-9.255
	c0.325-1.802,1.09-4.202,2.86-6.307l12.674,15.338c-1.175,0.657-2.375,1.064-3.507,1.305l-9.996-12.098
	c-0.208,0.635-0.354,1.243-0.452,1.788c-0.241,1.333-0.296,2.743-0.176,4.138l5.216,6.312c-1.319-0.19-2.634-0.536-3.882-1.018
	c0.757,2.247,1.177,4.647,1.245,7.067c1.233,0.218,2.484,0.336,3.733,0.352c4.982,0.054,9.569-1.529,13.262-4.581
	c3.692-3.051,6.111-7.257,6.998-12.159c0.745-4.129,0.338-8.507-1.145-12.328c-1.108-2.852-1.429-6.225-0.882-9.254
	c0.325-1.801,1.088-4.197,2.855-6.302l12.672,15.337c-1.176,0.657-2.375,1.063-3.508,1.304l-9.993-12.093
	c-0.207,0.632-0.35,1.237-0.448,1.781c-0.241,1.337-0.296,2.751-0.174,4.149l5.206,6.301c-1.316-0.191-2.627-0.536-3.873-1.017
	C-262.882,436.75-262.463,439.15-262.396,441.573z"/>
</svg>
