<?xml version="1.0" encoding="utf-8"?>
<!-- Generator: Adobe Illustrator 15.1.0, SVG Export Plug-In . SVG Version: 6.00 Build 0)  -->
<!DOCTYPE svg PUBLIC "-//W3C//DTD SVG 1.1//EN" "http://www.w3.org/Graphics/SVG/1.1/DTD/svg11.dtd">
<svg version="1.1" id="Layer_1" xmlns="http://www.w3.org/2000/svg" xmlns:xlink="http://www.w3.org/1999/xlink" x="0px" y="0px"
	 width="100px" height="100px" viewBox="-305.5 396.5 100 100" enable-background="new -305.5 396.5 100 100" xml:space="preserve">
<g id="Captions">
</g>
<g id="Your_Icon">
	<path d="M-303.255,446.977c0,0-0.505-0.91,0.708-1.619s-1.416-0.506,2.933-4.449c0,0,2.226-4.186,4.255-5.035
		c0.134-0.057,0.266-0.098,0.396-0.122c2.124-0.405-0.91-5.865,18.506-10.011c0,0,0.505-3.54,1.112-3.844
		c0.607-0.304,0.607-0.304,0.708,0.81c0.102,1.112,0.405-2.326,0.708-2.326c0.303,0,0.101,0.81,1.012,1.313
		c0.91,0.506,1.416-3.943,1.416-3.943s-0.203,1.82,1.113,2.225c1.314,0.405,1.719-3.135,1.719-3.135s1.112,2.124,1.921,2.225
		c0.809,0.102,1.214-2.225,1.214-2.225s0.606,1.82,1.517,1.82l1.921-1.314c0,0,0.708,2.529,1.517,2.225l1.617-1.111
		c0,0-0.404,2.629,0.81,2.326c1.213-0.303,1.719-1.82,1.719-1.82s1.112,0.708,1.619,2.124c0.504,1.415,1.617-1.416,1.617-1.416
		l1.819,2.124l1.519-1.111c0,0-1.416,3.842,4.146-1.519c0,0-0.91,1.72,2.123,0.103c0,0,2.124,0,2.731-0.305
		c0.605-0.304,7.381,0.505,8.088,2.428c0,0,4.248,8.493-2.324,13.146c0,0-0.202,0.707-4.955,0.303c0,0,0.908,3.54,14.764,1.112
		c0,0,15.674-12.135,17.395-9.405c1.719,2.729,2.123,8.495-0.811,15.978c0,0,4.449,15.775,0.709,17.494
		c0,0-3.136,1.517-11.832-5.461c0,0-7.888-4.651-9.304-4.854c0,0-8.292-0.203-12.741,2.324c0,0,7.383-1.01,8.696,5.361
		c0,0,1.012,7.887-5.562,10.11c-6.574,2.228-12.035-4.449-12.339-5.358c-0.304-0.91-0.304,2.631-0.304,2.631
		s-0.809,2.324-3.135-3.238c0,0-0.1,4.652-1.92-1.414c0,0-10.618,0.91-11.326-0.203c0,0,5.864,2.125,4.955,6.369
		c0,0,0,3.744,0.101,5.26c0.102,1.516-0.505,1.619,0.203,3.641c0.708,2.023-12.034-6.168-12.843-13.854
		c0,0-12.944,0.303-16.584-5.562c0,0-11.124-2.932-12.034-7.582C-303.963,448.189-304.469,447.986-303.255,446.977z"/>
</g>
</svg>
