<?xml version="1.0" encoding="utf-8"?>
<!-- Generator: Adobe Illustrator 15.1.0, SVG Export Plug-In . SVG Version: 6.00 Build 0)  -->
<!DOCTYPE svg PUBLIC "-//W3C//DTD SVG 1.1//EN" "http://www.w3.org/Graphics/SVG/1.1/DTD/svg11.dtd">
<svg version="1.1"
	 id="Layer_1" xmlns:inkscape="http://www.inkscape.org/namespaces/inkscape" sodipodi:docname="frog.svg" inkscape:version="0.48.2 r9819" xmlns:sodipodi="http://sodipodi.sourceforge.net/DTD/sodipodi-0.dtd" xmlns:svg="http://www.w3.org/2000/svg" xmlns:rdf="http://www.w3.org/1999/02/22-rdf-syntax-ns#" xmlns:cc="http://creativecommons.org/ns#" xmlns:dc="http://purl.org/dc/elements/1.1/"
	 xmlns="http://www.w3.org/2000/svg" xmlns:xlink="http://www.w3.org/1999/xlink" x="0px" y="0px" width="100px" height="100px"
	 viewBox="-305.5 396.5 100 100" enable-background="new -305.5 396.5 100 100" xml:space="preserve">
<sodipodi:namedview  borderopacity="1" objecttolerance="10" id="namedview9" inkscape:window-width="640" inkscape:zoom="2.36" bordercolor="#666666" pagecolor="#ffffff" gridtolerance="10" guidetolerance="10" inkscape:pageopacity="0" inkscape:pageshadow="2" inkscape:window-height="480" inkscape:cy="50" showgrid="false" inkscape:cx="50" inkscape:window-x="0" inkscape:window-y="0" inkscape:window-maximized="0" inkscape:current-layer="Layer_1">
	</sodipodi:namedview>
<circle id="circle3" display="none" fill="#00BF4D" cx="50" cy="50" r="48"/>
<circle id="circle5" display="none" fill="#FFFFFF" cx="50" cy="50" r="33"/>
<path id="path7" inkscape:connector-curvature="0" d="M-261.529,469.094c-1.94-0.26-4.184,2.607-5.812,0.912
	c-0.021-1.659,1.598-1.42,2.963-1.938c2.495-0.947,5.109-2.373,7.977-2.507c-1.984-0.419-3.972-0.306-4.672-2.279
	c-0.265-0.745-0.251-1.871-0.228-2.736c0.043-1.609,0.818-2.386,2.051-3.304c-2.11-0.573-4.412-1.088-5.698-2.166
	c-1.144,0.702-2.36,1.892-3.761,2.85c-2.382,1.626-4.395,3.898-7.635,2.848c-1.592-1.016-4.621-3.117-6.723-3.76
	c-1.001-0.307-1.969,0.668-2.849,0.229c-0.523-0.236-0.812-0.709-0.798-1.481c1.298-1.198,4.543-1.025,5.926-0.114
	c-0.346-0.455-0.817-0.928-1.595-1.595c-1.179-1.013-3.137-1.459-2.735-2.735c0.293-0.932,1.144-0.984,2.279-0.797
	c0.441,1.344,1.453,2.118,2.507,2.849c-0.538-0.634,0.038-1.763,0.798-1.823c1.324-0.105,2.298,3.155,3.418,3.418
	c0.903-0.326,0.592-1.161,1.253-1.709c1.782-0.271,1.673,1.672,0.684,2.165c1.748-0.834,3.278-1.886,4.444-3.305
	c-1.17-0.949-2.075-1.807-2.735-3.075c-0.267-0.514-0.283-1.124-0.684-1.596c-1.239-1.463-3.472-1.873-5.242-2.734
	c-1.551-0.755-2.541-2.019-3.761-3.077c-1.162-0.761-2.106-0.771-3.305-1.481c-1.124-0.667-2.464-2.205-3.646-3.191
	c-0.582-0.484-1.267-0.614-1.596-1.253c-0.377-0.733-0.248-1.888,0-2.507c1.717-4.276,9.573-3.416,11.965-7.293
	c2.092-1.436,6.449-1.389,6.837,1.823c2.895,0.999,7.69,1.457,10.939,2.165c2.614,0.57,5.349,0.686,7.635,1.254
	c3.691,0.916,7.578,1.729,10.711,2.848c5.012,1.791,7.889,5.898,11.852,9.117c1.843-0.205,3.791,1.525,6.154,1.48
	c0.842-0.016,1.637-0.288,2.278,0.115c1.688,1.059,1.146,6.332-2.051,5.811c-0.569,0.488-0.765,1.721-0.911,2.279
	c3.047-0.852,4.025,3.148,2.962,4.787c-1.487,2.294-6.056,5.529-7.977,6.494c-2.171,0.354-4.163,1.221-6.38,1.709
	c-3.323,0.732-6.987,0.49-10.143,1.824c-2.801,1.304-5.728,2.364-9.003,3.418c-1.118,0.65-2.511,2.135-3.532,3.305
	c-0.559,0.64-1.029,1.391-1.938,1.482c-0.816,0.081-1.573-0.397-1.595-0.912c-0.033-0.77,1.658-1.422,2.165-1.938
	c0.859-0.871,1.25-1.77,1.938-2.508c-3.418,1.354-5.675,3.421-8.661,5.015c-0.179,0.429-0.539,0.677-0.684,1.14
	c-1.313,1.414-4.529-0.054-2.507-1.596c0.352-0.028,0.644-0.115,0.912-0.229c2.447-2.148,5.656-3.535,8.09-5.697
	C-261.605,469.094-261.567,469.094-261.529,469.094L-261.529,469.094z"/>
</svg>
