<?xml version="1.0" encoding="utf-8"?>
<!-- Generator: Adobe Illustrator 15.1.0, SVG Export Plug-In . SVG Version: 6.00 Build 0)  -->
<!DOCTYPE svg PUBLIC "-//W3C//DTD SVG 1.1//EN" "http://www.w3.org/Graphics/SVG/1.1/DTD/svg11.dtd">
<svg version="1.1"
	 id="Your_Icon" xmlns:inkscape="http://www.inkscape.org/namespaces/inkscape" sodipodi:docname="giraffe.svg" inkscape:version="0.48.2 r9819" xmlns:sodipodi="http://sodipodi.sourceforge.net/DTD/sodipodi-0.dtd" xmlns:svg="http://www.w3.org/2000/svg" xmlns:rdf="http://www.w3.org/1999/02/22-rdf-syntax-ns#" xmlns:cc="http://creativecommons.org/ns#" xmlns:dc="http://purl.org/dc/elements/1.1/"
	 xmlns="http://www.w3.org/2000/svg" xmlns:xlink="http://www.w3.org/1999/xlink" x="0px" y="0px" width="100px" height="100px"
	 viewBox="-305.5 396.5 100 100" enable-background="new -305.5 396.5 100 100" xml:space="preserve">
<sodipodi:namedview  borderopacity="1" objecttolerance="10" id="namedview153" inkscape:window-width="1309" inkscape:zoom="3.337544" bordercolor="#666666" pagecolor="#ffffff" gridtolerance="10" guidetolerance="10" inkscape:pageopacity="0" inkscape:pageshadow="2" inkscape:window-height="727" inkscape:cy="51.238983" showgrid="false" inkscape:cx="41.695633" inkscape:window-x="94" inkscape:window-y="0" inkscape:window-maximized="0" inkscape:current-layer="Your_Icon" showguides="true" inkscape:guide-bbox="true">
	<sodipodi:guide  orientation="1,0" position="20.973506,63.969194" id="guide3206"></sodipodi:guide>
</sodipodi:namedview>
<path id="path107" inkscape:connector-curvature="0" sodipodi:nodetypes="cccscccccccccccccccccccccccccccccccccccccccccccccccccscccccccccccccccccscccccccccccccccc" d="
	M-213.508,401.363c-0.689-0.394-2.436,0.146-3.086,0.582c-0.291,0.195-0.418,1.231-0.758,1.166c-0.435-1.369,0.174-3.67-0.176-4.194
	c-0.351-0.524-1.267-0.94-1.865-0.292c-0.201,0.219,0.424,1.477,0.408,1.98c-0.019,0.514-0.433,1.196-1.107,1.225
	c-0.748,0.029-1.045-0.711-1.133-1.156c-0.076-0.379,0.449-1.254,0.434-1.64c-0.02-0.574-0.76-1.148-1.65-0.525
	c-0.559,0.39-0.447,2.621-0.504,3.146c-0.059,0.523,0.023,1.447-0.35,1.631c-0.916-0.182-0.512-1.9-3.613-1.514
	c-0.42,0.948,0.098,2.644,0.475,3.267c0.322,0.535,1.39,0.294,1.738,0.812c0.076,0.108,0.164,0.442,0.062,0.523
	c-6.703,5.273-24.146,14.646-33.558,15.322c-1.59,1.43-2.578,2.764-3.779,3.805c-7.315,6.336-12.583,4.893-17.895,7.674
	c-2.257,1.866-4.988,7.236-6.525,9.729c-1.632,2.648-3.441,9.252-6.117,10.837c-0.201,0.118-0.71-0.069-0.933,0
	c-0.389,0.122-1.125,0.586-1.34,0.934c-0.426,0.688,0.008,3.253-0.208,4.312c-0.087,0.43-0.618,1.166-0.783,1.572
	c-0.526,1.303,0.13,3.588-1.689,5.359c0.679,0.454,2.235-1.208,2.505-2.098c0.275-0.904,0.264-3.293,0.641-3.729
	c1.075-1.241,2.47-4.103,2.447-5.593c1.321-2.366,4.756-6.164,5.984-8.561c-0.066,3.314,1.867,7.442,2.229,10.074
	c0.211,1.527,0.574,4.528,0.535,6.213c-0.002,0.09-0.014,0.174-0.01,0.254c0.042,0.873-2.588,3.123-2.401,4.396
	c1.737,11.787,0.705,14.511,0.141,20.853c0.188,1.312-0.294,2.481-0.235,2.862c0.054,0.347,2.442,2.208,3.944,0.847
	c0.093-0.738-0.598-1.841-0.892-3.24c0.141-0.752,0.02-1.9,0-2.396c-0.143-3.568,0.441-6.656,0.667-8.505
	c0.141,3.451,0.002,7.955,0.349,10.472c0.096,0.695,0.57,2.038,0.641,2.737c0.049,0.493-0.097,1.485-0.059,1.979
	c0.073,0.936,0.311,1.172,1.398,1.457c0.395,0.104,2.412,0.102,2.856-0.285c0.376-0.324-0.506-1.104-0.652-1.578
	c-0.273-0.889-1.114-1.439-1.272-3.613c-0.584-3.549-1.345-10.648-1.041-14.232c0.067-0.797,0.428-2.401,0.575-3.187
	c0.336-1.801,0.361-4.541,0.68-6.347c1.111-2.688,7.304-12.551,7.613-12.445c3.133,1.068,5.486,2.105,10.408,0.557
	c0.399,1.875,2.178,5.123,3.757,8.338c0.54,1.099-1.783,6.518-1.783,8.453c0,3.639,1.034,11.034-1.502,15.262
	c-0.258,0.43,0.223,1.065,0.223,1.496c0.155,1.068-0.634,3.035-0.646,4.326c-0.006,0.658,3.105,1.502,4.185,0.846
	c0.222-0.688-0.518-1.774-0.656-2.26c-0.128-0.449-0.136-1.455-0.055-2.248c0.457-0.851,0.348-1.701,0.449-2.756
	c-0.308-3.256,0.955-10.348,2.055-13.149c0.182-1.939,0.309-3.226,0.322-3.101c0.48,3.945,0.396,11.954-0.058,15.904
	c-0.104,0.905-0.797,2.643-0.815,3.555c-0.01,0.398,0.416,1.629,0.428,2.028c0.02,0.779-0.956,3.447-0.544,3.854
	c1.403,1.39,4.428,1.226,4.519,0.979c0.268-0.719-0.988-2.269-1.144-2.819c-0.218-0.773-0.419-1.496-0.345-2.295
	c0.062-0.69,0.742-1.99,0.699-2.682c-0.023-0.354-0.468-1.165-0.468-1.34c0-0.174,0.138-9.924,1.106-13.051
	c0.148-0.479,0.841-1.27,0.99-1.748c0.185-0.586,0.039-1.908-0.012-2.521c-0.18-2.163-1.682-4.479-2.402-6.526
	c0.061-1.896,3.916-8.955,3.463-12.043c1.324-1.433,2.945-4.232,3.263-5.885c0.151-0.792-0.19-2.427-0.408-3.205
	c-0.532-1.918-0.596-3.982,0.47-5.611c1.188-1.627,15.34-11.99,20.797-18.217c0.362-0.414,1.875-3.062,2.227-3.324
	c0.029,1.158,0.979,2.492,2.436,2.451c0.631-0.019,1.568-0.789,1.572-1.981c0.002-0.394-0.055-1.183,0-1.573
	c0.102-0.734,0.609-2.141,0.816-2.855c0.336-1.172,1.197-1.23,1.455-3.32C-214.828,404.68-213.377,404.469-213.508,401.363
	L-213.508,401.363z"/>
</svg>
