<?xml version="1.0" encoding="utf-8"?>
<!-- Generator: Adobe Illustrator 15.1.0, SVG Export Plug-In . SVG Version: 6.00 Build 0)  -->
<!DOCTYPE svg PUBLIC "-//W3C//DTD SVG 1.1//EN" "http://www.w3.org/Graphics/SVG/1.1/DTD/svg11.dtd">
<svg version="1.1" id="Layer_1" xmlns="http://www.w3.org/2000/svg" xmlns:xlink="http://www.w3.org/1999/xlink" x="0px" y="0px"
	 width="100px" height="100px" viewBox="-305.5 396.5 100 100" enable-background="new -305.5 396.5 100 100" xml:space="preserve">
<circle display="none" fill="#FFFFFF" cx="50" cy="50" r="33"/>
<path d="M-237.652,450.708c-0.561,0.333-2.631,0.093-3.429-0.312c0.132-0.601-0.214-1.125-0.312-0.625
	c-0.385-1.844,1.531-4.074,2.182-5.922c-2.098-4.761-4.585-9.129-6.546-14.025c-0.103,15.185,7.79,35.31-1.87,46.13
	c1.061,2.448-0.279,4.553,0,6.545c0.365,2.593,3.25,4.036,2.494,6.546c-5.154,3.838-5.564-4.701-8.729-5.923
	c0.859,3.151-1.155,4.782-0.935,7.169c-1.454,0.352-3.98,0.641-4.987-0.312c-1.289-1.738,0.062-3.91,0-5.922
	c-0.123-3.936-2.14-8.83-2.494-14.025c-0.63-9.236,0.013-20.229-2.494-27.117c1.208-2.061,2.438-5.922,0.312-8.104
	c-1.778,5.158-2.342,11.457-1.87,17.455c-3.356-0.033-2.974-3.067-2.805-6.547c0.211-4.333-1.353-9.018,0.312-12.467
	c0.131-1.066-0.934-0.938-1.247-1.559c1.981-8.512,4.263-16.725,12.156-19.325c-0.501-3.778-2.943-6.17-1.247-9.662
	c0.966-1.99,4.753-3.517,7.169-1.87c1.453,0.99,2.128,4.659,1.87,6.857c-0.171,1.463-1.354,2.427-1.247,3.429
	c0.294,2.729,3.911,2.89,5.923,4.364c3.408,2.496,5.695,12.023,7.168,18.701C-236.87,440.562-236.691,444.939-237.652,450.708z
	 M-253.859,478.137c0.211-4.174,3.262-8.1,3.116-12.156c-0.112-3.121-2.362-5.565-2.806-8.728
	C-254.264,463.964-255.489,471.506-253.859,478.137z"/>
<path display="none" fill="#FFFFFF" d="M51.951,60.753c0.441,3.161,2.693,5.604,2.806,8.728c0.146,4.058-2.905,7.982-3.116,12.156
	C50.011,75.006,51.236,67.464,51.951,60.753z"/>
</svg>
