<?xml version="1.0" encoding="utf-8"?>
<!-- Generator: Adobe Illustrator 15.1.0, SVG Export Plug-In . SVG Version: 6.00 Build 0)  -->
<!DOCTYPE svg PUBLIC "-//W3C//DTD SVG 1.1//EN" "http://www.w3.org/Graphics/SVG/1.1/DTD/svg11.dtd">
<svg version="1.1"
	 id="Your_Icon" xmlns:inkscape="http://www.inkscape.org/namespaces/inkscape" sodipodi:docname="ostrich.svg" inkscape:version="0.48.2 r9819" xmlns:sodipodi="http://sodipodi.sourceforge.net/DTD/sodipodi-0.dtd" xmlns:svg="http://www.w3.org/2000/svg" xmlns:rdf="http://www.w3.org/1999/02/22-rdf-syntax-ns#" xmlns:cc="http://creativecommons.org/ns#" xmlns:dc="http://purl.org/dc/elements/1.1/"
	 xmlns="http://www.w3.org/2000/svg" xmlns:xlink="http://www.w3.org/1999/xlink" x="0px" y="0px" width="100px" height="100px"
	 viewBox="-305.5 396.5 100 100" enable-background="new -305.5 396.5 100 100" xml:space="preserve">
<sodipodi:namedview  borderopacity="1" objecttolerance="10" id="namedview5" inkscape:window-width="1257" inkscape:zoom="2.36" bordercolor="#666666" pagecolor="#ffffff" gridtolerance="10" guidetolerance="10" inkscape:pageopacity="0" inkscape:pageshadow="2" inkscape:window-height="821" inkscape:cy="96.61017" showgrid="false" inkscape:cx="73.730954" inkscape:window-x="63" inkscape:window-y="0" inkscape:window-maximized="0" inkscape:current-layer="Your_Icon">
	</sodipodi:namedview>
<path id="path3" inkscape:connector-curvature="0" sodipodi:nodetypes="cccccccccccczcccccccccccccccccccccccccccccc" d="
	M-217.36,488.256c-4.118-0.994-21.272-12.348-21.272-12.348s-8.379-4.752-5.432-16.915c4.152-0.921,7.799-2.523,10.616-4.594
	l-0.001,0.011c13.731-10.041,5.073-27.789,5.061-27.822c-1.251-3.28-2.423-6.51-3.622-9.054c-0.397-0.843-0.771-1.638-1.081-2.341
	c-1.139-2.599-1.418-4.754-0.816-6.232c0.441-1.085,1.248-1.519,1.453-1.613c0.496-0.158,0.871-0.391,1.15-0.672v0.006
	c0.389-0.271,1.309-0.633,1.887-0.764c0.58-0.13,0.922-0.092,1.721-0.575c0,0,0.119-0.359-0.704-0.466
	c-0.559-0.072-2.216-0.359-2.421-0.383c-1.445-2.609-5.965-2.008-6.242,0.688c-0.054,0.647-0.979,7.032,1.109,11.273
	c0.357,0.729,0.709,1.559,1.115,2.422c1.324,2.808,2.898,6.149,3.729,9.616c0.377,2.217-0.26,4.177-1.666,4.756
	c-24.41-8.361-26.362,0.601-38.867,6.223c-8.336-7.634-12.368-4.072-15.132-3.149c-11.375,6.226-14.316,9.882,10.081,10.462
	c1.458,5.402,7.237,9.865,15,11.901c-0.869,0.831-2.867,2.237-7.076,3.228c0,0-3.754,0.184-2.868,5.677l-5.005,16.586
	c0,0-0.313,1.046-1.721,1.202c0,0-1.252-0.416-1.982,0.734c0,0-1.721,2.039-0.677,2.303c0.208,0.052-4.797,4.656-1.669,4.342
	c0,0,9.202-4.545,10.116-8.059c1.045-4.021,2.612-12.224,4.067-16.112c1.066-2.853,2.555-5.025,9.855-7.115
	c0,0,3.352-0.126,6.978-1.606c0.158-0.002,0.314-0.003,0.471-0.008c1.43,2.609,4.162,8.359,3.656,13.387c0,0-0.021,1.97,3.753,3.502
	c8.892,3.611,15.769,9.758,17.468,10.414c0.155,0.059,1.355,4.761,4.329,2.406c0.052-0.105,2.659,1.413,4.693-0.156
	C-217.308,489.408-214.205,489.019-217.36,488.256L-217.36,488.256z"/>
</svg>
