<?xml version="1.0" encoding="utf-8"?>
<!-- Generator: Adobe Illustrator 15.1.0, SVG Export Plug-In . SVG Version: 6.00 Build 0)  -->
<!DOCTYPE svg PUBLIC "-//W3C//DTD SVG 1.1//EN" "http://www.w3.org/Graphics/SVG/1.1/DTD/svg11.dtd">
<svg version="1.1" id="Layer_1" xmlns="http://www.w3.org/2000/svg" xmlns:xlink="http://www.w3.org/1999/xlink" x="0px" y="0px"
	 width="100px" height="100px" viewBox="-305.5 396.5 100 100" enable-background="new -305.5 396.5 100 100" xml:space="preserve">
<circle display="none" fill="#FF4400" cx="50" cy="50" r="48"/>
<circle display="none" fill="#FFFFFF" cx="50" cy="50" r="33"/>
<path d="M-213.9,456.146c-8.414,0.165-14.992,5.152-22,3.198c-0.492-0.138-2.496-0.729-3.199-1.198c-0.467-0.312-0.521-1.639-1.2-2
	c-1.07-0.571-2.611-0.31-3.601-0.802c-4.773-2.377-5.481-8.127-10.8-10.399c-1.022,2.796-2.333,6.096-3.6,9.201
	c-1.22,2.988-3.222,6.234-2.8,8.398c3.217,0.933,5.478-1.362,8.4-1.2c5.319,0.297,8.302,5.17,11.601,8
	c3.343,5.746,2.099,11.857,4,18.399c-4.853-3.632-12.523-2.863-17.2-6c-4.867-3.666-5.678-11.389-7.2-18.397
	c-3.195,3.338-5.721,7.347-8,11.601c12.782-2.396,14.426,9.173,14.8,18.399c-5.28-2.724-13.083-2.744-14.8-8.801
	c-0.831-2.93,0.854-5.382,0-9.199c-5.748,4.784-8.817,12.248-14.4,17.199c3.568-6.566,10.241-12.158,12.8-18.4
	c-2.368,1.979-2.682,4.069-5.2,5.201c-5,2.245-10.388-1.643-15.6-3.201c4.496-2.031,8.801-8.366,14.8-7.6
	c3.705,0.475,3.584,3.961,7.2,5.199c2.149-3.605,6.068-7.502,6.8-11.199c-5.304,1.005-7.874,4.514-13.2,4.398
	c-9.147-0.192-15.16-8.416-20.8-12.8c4.706,0.408,7.799-3.284,12-4c11.137-1.896,18.194,2.944,22,12
	c3.534-4.866,5.509-11.291,7.601-17.601c-11.546-0.487-21.784-3.918-26.4-11.2c-1.913-3.019-2.053-7.562-4.4-10.8
	c-0.867-1.194-3.462-1.603-2.8-3.601c6.077,1.259,10.852,0.082,17.2,0.399c9.674,3.926,15.242,11.957,16.4,24.399
	c2.301-2.479,4.769-5.62,5.199-9.2c0.858-7.12-4.384-15.148,0-21.601c2.922-4.299,15.768-11.252,22.399-10.399
	c2.945,8.945,1.404,17.917-2.399,24.399c-0.91-0.193-2.043-0.793-2.8,0c-1.016,0.72-0.971,2.496-1.601,3.601
	c-8.858,2.208-17.598,4.536-19.601,13.6c6.8-1.237,11.268-5.668,18.4-4.8c10.789,1.313,15.907,10.335,22,16.399
	C-213.9,455.88-213.9,456.014-213.9,456.146z"/>
</svg>
