<?xml version="1.0" encoding="utf-8"?>
<!-- Generator: Adobe Illustrator 15.1.0, SVG Export Plug-In . SVG Version: 6.00 Build 0)  -->
<!DOCTYPE svg PUBLIC "-//W3C//DTD SVG 1.1//EN" "http://www.w3.org/Graphics/SVG/1.1/DTD/svg11.dtd">
<svg version="1.1"
	 id="svg2" xmlns:inkscape="http://www.inkscape.org/namespaces/inkscape" sodipodi:docname="protoceratops.svg" inkscape:version="0.48.2 r9819" xmlns:sodipodi="http://sodipodi.sourceforge.net/DTD/sodipodi-0.dtd" xmlns:svg="http://www.w3.org/2000/svg" xmlns:sketch="http://www.bohemiancoding.com/sketch/ns" xmlns:rdf="http://www.w3.org/1999/02/22-rdf-syntax-ns#" xmlns:cc="http://creativecommons.org/ns#" xmlns:dc="http://purl.org/dc/elements/1.1/"
	 xmlns="http://www.w3.org/2000/svg" xmlns:xlink="http://www.w3.org/1999/xlink" x="0px" y="0px" width="100px" height="100px"
	 viewBox="-305.5 396.5 100 100" enable-background="new -305.5 396.5 100 100" xml:space="preserve">
<sodipodi:namedview  borderopacity="1" objecttolerance="10" id="namedview54" inkscape:window-width="1307" inkscape:zoom="3.7500495" bordercolor="#666666" pagecolor="#ffffff" gridtolerance="10" guidetolerance="10" inkscape:pageopacity="0" inkscape:pageshadow="2" inkscape:window-height="783" inkscape:cy="29.415254" showgrid="false" inkscape:cx="44.5" inkscape:window-x="50" inkscape:window-y="0" inkscape:window-maximized="0" inkscape:current-layer="svg2">
	</sodipodi:namedview>
<title  id="title4">protoceratops</title>
<desc  id="desc6">Created with Sketch.</desc>
<g id="Page-1" transform="translate(4.5577754,5.3203179)" sketch:type="MSPage">
	<g id="protoceratops" sketch:type="MSLayerGroup">
		<path id="Fill-1" sketch:type="MSShapeGroup" inkscape:connector-curvature="0" d="M-223.973,432.799
			c-0.124,0.133-0.42,0.092-0.46,0.307c-0.322-0.682-1.336,0.068-0.92,0.615c-0.319,0.064-0.404-0.105-0.611-0.153
			c0.215-0.757,0.736-1.208,1.379-1.537C-224.333,432.238-224.058,432.424-223.973,432.799"/>
		<path id="Fill-2" sketch:type="MSShapeGroup" inkscape:connector-curvature="0" d="M-226.271,427.729
			c0.258-0.816,0.945-1.203,1.226-1.998C-224.556,426.079-225.644,428.003-226.271,427.729"/>
		<path id="Fill-3" sketch:type="MSShapeGroup" inkscape:connector-curvature="0" d="M-225.353,409.288
			c-0.412-0.661-0.639-1.511-0.918-2.306C-225.6,407.385-225.357,408.217-225.353,409.288"/>
		<path id="Fill-4" sketch:type="MSShapeGroup" inkscape:connector-curvature="0" d="M-226.271,438.945
			c0.073,0.484-0.703,0.115-0.766,0.461c-0.333,0.026-0.07-0.545-0.154-0.768C-226.659,438.516-226.544,438.809-226.271,438.945"/>
		<path id="Fill-5" sketch:type="MSShapeGroup" inkscape:connector-curvature="0" d="M-229.028,434.182
			c-0.12-1.275,0.527-2.785,0.613-4.148c0.064-1.035-0.41-1.889,0-2.459c0.087,0.139,0.631,0.565,0.306,0.614
			c0.204,1.284,0.142,3.465-0.306,5.071C-228.507,433.59-228.734,434.12-229.028,434.182"/>
		<path id="Fill-6" sketch:type="MSShapeGroup" inkscape:connector-curvature="0" d="M-228.263,438.945
			c-0.154,0.408-0.708,0.416-0.919,0.769C-229.573,439.394-228.556,438.603-228.263,438.945"/>
		<path id="Fill-7" sketch:type="MSShapeGroup" inkscape:connector-curvature="0" d="M-232.859,438.484
			c-0.807-1.047,0.543-2.227,0.767-3.227c1.275-0.207,1.569-1.396,2.451-1.998c0.136,1.584-2.011,2.174-2.759,3.381
			C-232.421,437.387-232.64,437.936-232.859,438.484"/>
		<path id="Fill-8" sketch:type="MSShapeGroup" inkscape:connector-curvature="0" d="M-233.165,401.297
			c-0.209,0.688-1.635,0.166-1.531-0.461C-234.307,400.596-233.645,401.144-233.165,401.297"/>
		<path id="Fill-9" sketch:type="MSShapeGroup" inkscape:connector-curvature="0" d="M-234.544,401.758v0.461
			c-0.799,0.084-1.361-0.068-1.225-0.922C-235.449,401.85-234.954,401.527-234.544,401.758"/>
		<path id="Fill-10" sketch:type="MSShapeGroup" inkscape:connector-curvature="0" d="M-238.833,436.947
			c1.486-1.245,3.459,0.076,3.83,1.537c0.385,1.51-0.67,3.623-0.153,5.379c-0.262,0.032-0.396-0.263-0.46,0
			c-0.607-0.139-0.024-0.656,0-0.922c0.046-0.475-0.072-1.003,0-1.537c0.047-0.33,0.287-0.713,0.308-1.076
			c0.073-1.438-0.526-2.971-1.532-3.381c-0.623-0.254-1.177-0.25-1.532,0.462C-238.726,437.456-238.544,436.965-238.833,436.947"/>
		<path id="Fill-11" sketch:type="MSShapeGroup" inkscape:connector-curvature="0" d="M-238.527,437.409
			c0.082,0.123,0.16,0.249,0.153,0.46c-0.542,0.515-1.554-0.322-1.378,0.77c-0.466-0.049-0.623-0.868-0.308-1.229
			C-239.612,437.607-238.972,437.607-238.527,437.409"/>
		<path id="Fill-12" sketch:type="MSShapeGroup" inkscape:connector-curvature="0" d="M-239.292,407.136
			c0.18,2.127-1.314,3.906-2.145,5.532c-0.706-0.189,0.018-0.52,0.153-0.769C-240.545,410.545-239.742,409.025-239.292,407.136"/>
		<path id="Fill-13" sketch:type="MSShapeGroup" inkscape:connector-curvature="0" d="M-243.888,442.941
			c0.092-0.83,0.998-0.844,1.685-1.076c0.586-0.438,1.286-0.76,1.839-1.229c-0.092-0.771-0.662-1.736-0.307-2.46
			c0.702,0.474,0.334,2.021,0.767,2.767C-241.146,441.697-242.48,442.355-243.888,442.941"/>
		<path id="Fill-14" sketch:type="MSShapeGroup" inkscape:connector-curvature="0" d="M-240.059,408.674
			c-1.009,1.445-1.691,3.219-2.297,5.07c-0.57-0.457,0.291-1.322,0.46-1.998C-241.601,410.559-240.982,409.145-240.059,408.674"/>
		<path id="Fill-15" sketch:type="MSShapeGroup" inkscape:connector-curvature="0" d="M-240.364,407.136
			c-0.424,0.446-0.562,1.179-0.919,1.69c-0.521-0.667,0.09-1.673,0.459-2.15C-240.471,406.627-240.653,407.119-240.364,407.136"/>
		<path id="Fill-16" sketch:type="MSShapeGroup" inkscape:connector-curvature="0" d="M-246.646,462.149
			c-0.598,0.095-0.993-1.247-0.152-1.229C-246.907,461.49-246.536,461.58-246.646,462.149"/>
		<path id="Fill-17" sketch:type="MSShapeGroup" inkscape:connector-curvature="0" d="M-247.564,460.767
			c-0.4,0.47-1.068,0.671-1.992,0.614c-0.253-0.361-0.686-0.541-0.767-1.076c-0.472,0.039-0.47,0.555-0.766,0.77
			c-0.519-0.146-0.79-0.539-0.919-1.076c0.979,0.332,1.088-0.229,2.145-0.153c0.071,0.542,0.258,0.97,0.766,1.075
			C-248.324,460.991-248.095,460.082-247.564,460.767"/>
		<path id="Fill-18" sketch:type="MSShapeGroup" inkscape:connector-curvature="0" d="M-250.781,425.576
			c-0.773,0.408-1.946,1.035-3.063,1.69c-0.473,0.276-0.863,0.354-1.226,0.769c-1.003,1.145-0.868,3.426-2.146,4.303
			c-1.095,0.131-1.816,0.637-3.063,0.615c0.557-0.771,1.849-0.736,2.604-0.923c1.592-1.142,1.443-3.716,3.064-4.917
			c0.414-0.308,1.123-0.436,1.684-0.769C-252.095,425.852-251.8,425.027-250.781,425.576"/>
		<path id="Fill-19" sketch:type="MSShapeGroup" inkscape:connector-curvature="0" d="M-250.781,449.395
			c-0.36,0.254-0.54,0.688-1.072,0.77v1.229c-0.782,0.805-1.23,1.942-2.146,2.613c0.211-1.58,2.131-2.388,1.533-3.842
			c0.047-0.43,0.512-0.125,0.918-0.462c0.551-0.958-0.426-2.107-0.152-2.766C-250.982,447.441-250.95,448.756-250.781,449.395"/>
		<path id="Fill-20" sketch:type="MSShapeGroup" inkscape:connector-curvature="0" d="M-252.773,460.305
			c-0.365,1.342-2.115,0.387-3.064,0.154c-0.419,0.368-0.677,0.006-1.072,0.461c0.324-1.273-1.725-0.876-1.991-1.998
			c1.739,0.196,3.356,0.889,4.901,1.691C-253.511,460.59-253.325,460.264-252.773,460.305"/>
		<path id="Fill-21" sketch:type="MSShapeGroup" inkscape:connector-curvature="0" d="M-280.501,453.544
			c0.002-0.642,0.816-0.312,1.226-0.461c1.136-0.41,2.565-1.46,3.37-2.305c-0.713-4.073-1.783-11.425,2.452-12.909
			c1.468,1.576,4.152-1.283,5.821,0.615c0.071,0.48-0.133,0.687-0.613,0.615c-0.221,1.501-0.331,2.565-0.918,3.996
			c-0.195,0.473-0.621,0.859-0.92,1.383c-0.283,0.493-0.339,1.146-0.613,1.535c-0.179,0.256-0.798,0.63-1.225,1.076
			c-0.496,0.517-0.951,0.91-1.379,1.383c-0.165,0.183-0.562,0.492-1.072,0.615c-0.552,0.625-1.019,1.334-1.226,2.305
			C-277.117,452.123-278.565,453.743-280.501,453.544L-280.501,453.544z M-272.688,446.014c1.281-1.071,1.823-2.885,2.911-4.148
			c-0.285-0.615,0.92-2.18,0.306-2.611C-270.598,441.35-272.096,443.894-272.688,446.014L-272.688,446.014z M-271.31,439.254
			c-0.956,2.073-2.199,4.469-3.217,6.453c-0.317,0.617-1.173,1.467-0.613,2.15c1.51-2.891,2.662-6.14,4.902-8.297
			c-1.631,2.358-2.98,5-4.289,7.684c0.549,0.038,0.562-0.463,1.073-0.462c1.136-2.854,2.493-5.489,3.982-7.991
			C-270.189,438.84-270.675,439.121-271.31,439.254L-271.31,439.254z M-272.534,439.561c-0.429,1.124-1.214,2.197-1.838,3.381
			c-0.546,1.032-1.556,2.418-0.92,3.688c1.18-2.454,2.44-4.826,3.677-7.223C-271.976,439.403-272.067,439.672-272.534,439.561
			L-272.534,439.561z M-275.445,444.479c0.542-1.814,2.129-3.396,2.451-4.918C-273.839,441.069-275.464,442.613-275.445,444.479
			L-275.445,444.479z M-275.445,443.096c0.422-1.627,1.665-2.428,2.144-3.996C-274.475,439.978-275.944,441.463-275.445,443.096
			L-275.445,443.096z"/>
		<path id="Fill-22" sketch:type="MSShapeGroup" inkscape:connector-curvature="0" d="M-268.246,474.443
			c-1.286,1.117-3.382,1.422-4.902,2.305c0.386-1.09,2.234-1.203,3.371-1.691C-269.212,474.814-268.794,474.211-268.246,474.443"/>
		<path id="Fill-23" sketch:type="MSShapeGroup" inkscape:connector-curvature="0" d="M-275.293,467.066
			c-0.478-0.199-0.497-1.461-0.306-1.844C-275.28,465.842-274.969,466.522-275.293,467.066"/>
		<path id="Fill-24" sketch:type="MSShapeGroup" inkscape:connector-curvature="0" d="M-275.139,475.519
			c-0.038,0.167-0.305,0.104-0.306,0.308c-0.762-0.176-1.581-0.568-2.299-0.77c-0.3-0.083-0.969,0.273-0.918-0.307
			C-277.227,474.744-276.303,475.252-275.139,475.519"/>
		<path id="Fill-25" sketch:type="MSShapeGroup" inkscape:connector-curvature="0" d="M-285.249,440.637
			c-0.893,0.078-1.215,0.728-1.533,1.382c0.627-0.05,1.055-0.903,1.533-0.614c-0.355,0.617-1.156,0.787-1.685,1.229
			c-0.291,1.656-0.962,2.929-1.226,4.611c-1.099-0.657,0.042-2.262,0.459-3.381c0.665-1.785,0.518-3.23,1.991-3.688
			c0.667-0.156,0.704,0.318,1.073,0.462c0.04-1.087,0.232-2.021,0.458-2.921c-0.373,0.144-1.204-0.745-0.765-1.383
			c0.552,0.215,0.661,0.874,1.226,1.076c0.26,0.057,0.289-0.12,0.306-0.308c0.826,0.76,1.985,1.186,2.298,2.459
			c0.235-0.174,0.376-0.441,0.612-0.615c1.009-0.09,0.834,1.008,1.686,1.076c0.651,0.09,0.296-0.83,1.071-0.615
			c-0.032,0.634-0.535,0.795-0.766,1.23c-0.951-0.071-1.174-0.873-1.838-1.23c-0.332,0.23-0.356,0.77-0.918,0.769
			c-0.49-0.741-0.839-2.435-1.992-1.998c-0.289-0.017-0.106-0.508-0.459-0.461c-0.68,1.214-0.263,3.526-1.379,4.303
			C-285.246,441.316-284.993,441.166-285.249,440.637"/>
		<path id="Fill-26" sketch:type="MSShapeGroup" inkscape:connector-curvature="0" d="M-278.049,472.291
			c0.163,0.587-0.521,0.451-0.766,0.461c-0.512,0.021-0.337,0.342-0.613,0.308c-0.388-0.047-0.634-0.264-0.92-0.461
			c0.393-0.769,1.271,0.526,1.533-0.461C-278.335,472.312-278.411,472.094-278.049,472.291"/>
		<path id="Fill-27" sketch:type="MSShapeGroup" inkscape:connector-curvature="0" d="M-280.041,475.519v0.461
			c-1.165,0.177-2.669,0.679-3.677-0.461C-283.173,474.562-281.184,475.457-280.041,475.519L-280.041,475.519z M-283.105,475.672
			c0.351,0.084,1.898,0.344,1.685,0C-282.048,475.832-282.673,475.199-283.105,475.672L-283.105,475.672z"/>
		<path id="Fill-28" sketch:type="MSShapeGroup" inkscape:connector-curvature="0" d="M-282.186,449.088
			c-0.22-0.035-0.053-0.459-0.306-0.461c-0.474,0.856-0.911,1.75-1.839,2.151c0.312,1.021-0.618,1.873-1.072,2.612
			c-0.062,0.828,0.428,0.644,0.154,1.383c-0.86-0.09-0.647-0.906-0.767-1.997c-0.958,0.062-1.038,1.008-2.144,0.921
			c0.861-0.98,2.289-1.392,2.757-2.766c0.224,0.135,0.593,0.122,0.46,0.615c0.463-0.232-0.127-0.675,0-1.076
			c1.785-0.463,2.142-2.359,2.757-3.996C-281.253,446.989-282.393,447.947-282.186,449.088"/>
		<path id="Fill-29" sketch:type="MSShapeGroup" inkscape:connector-curvature="0" d="M-291.99,471.062
			c0.342,0.066,0.062,0.757,0.153,1.075c-0.457-0.206-0.676-0.653-0.766-1.229C-292.219,470.705-292.123,471.516-291.99,471.062"/>
		<path id="Fill-30" sketch:type="MSShapeGroup" inkscape:connector-curvature="0" d="M-294.594,472.445
			c-0.739-0.512-1.716-1.525-1.686-2.305C-295.736,470.826-294.688,471.819-294.594,472.445"/>
		<path id="Fill-31" sketch:type="MSShapeGroup" inkscape:connector-curvature="0" d="M-296.126,469.219
			c0.098-0.918-0.721-0.916-0.613-1.845C-296.085,467.427-295.224,469.059-296.126,469.219"/>
		<path id="Fill-32" sketch:type="MSShapeGroup" inkscape:connector-curvature="0" d="M-298.271,463.84v0.461
			c-0.217-0.014-0.434-0.025-0.459,0.154c-0.206-0.102-0.286-0.329-0.307-0.615H-298.271"/>
		<path id="Fill-33" sketch:type="MSShapeGroup" inkscape:connector-curvature="0" d="M-299.802,459.383
			c-0.391-0.246-0.756-1.63,0-1.689C-299.962,458.406-299.521,459.023-299.802,459.383"/>
		<path id="Fill-34" sketch:type="MSShapeGroup" inkscape:connector-curvature="0" d="M-299.956,455.234
			c-0.025,0.181-0.28,0.13-0.459,0.153c-0.234-0.552-0.263-0.97-0.153-1.536C-300.242,454.189-300.389,455.003-299.956,455.234"/>
		<path id="Fill-35" sketch:type="MSShapeGroup" inkscape:connector-curvature="0" d="M-301.488,458.308
			c-0.018,0.597,0.187,1.415-0.613,1.229C-301.975,458.767-302.26,458.484-301.488,458.308"/>
		<path id="Fill-36" sketch:type="MSShapeGroup" inkscape:connector-curvature="0" d="M-250.169,434.488
			c0.078,0.198,0.162,0.318,0.307,0.77c-1.219-0.212-1.537-1.326-2.451-1.845c-0.752,1.217,1.858,1.442,2.145,2.612
			c-1.056-0.375-1.774-1.088-2.604-1.689c-0.167,0.037-0.105,0.305-0.307,0.307c0.564,1.277,2.191,1.488,2.757,2.767
			c-0.812,0.099-0.825-0.606-1.226-0.923c-0.668-0.303-1.118-0.824-1.685-1.229c-0.167,0.038-0.104,0.306-0.307,0.307
			c0.836,1.416,2.612,1.889,3.37,3.381c-0.684-0.082-0.938-0.596-1.225-1.076c-0.838-0.338-1.359-0.992-1.992-1.536
			c-0.332-0.026-0.069,0.546-0.153,0.769c1.085,1.059,2.568,2.381,3.829,2.766c-0.287,0.271,0.184,0.449-0.152,0.77
			c-1.112-0.934-2.266-1.826-3.37-2.768c-0.433,1.257,1.601,1.364,1.532,2.768c0.359-1.001,0.949,0.585,1.838,0.46
			c-0.232,1.124,0.891,1.078,1.072,2.151c-0.693-0.021-0.768-0.662-1.072-1.076c-0.844-0.382-1.316-1.138-2.145-1.535
			c-0.023,0.797,1.5,1.86,2.451,2.919c0.508,0.259,1.537,0.642,1.072,1.383c-0.627-0.088-0.725-0.708-1.379-0.769
			c0.086,0.687,1.574,1.287,1.991,2.152c-0.712,0.302-1.001-1.006-1.685-1.229c-0.479,0.247,0.609,0.19,0.307,0.768
			c-1.196-0.315-1.177-1.466-2.604-1.229c-0.486-0.375-0.802-1.596-0.612-2.15c-0.919-1.025-1.064-2.828-2.145-3.689
			c-0.014-0.59,0.287-2.167-0.46-2.458c0.792-0.179,0.358-1.587,0.919-1.997c-0.219-0.262-0.891-0.472-0.459-0.923
			c0.428-0.023,0.499,0.435,0.305,0.614c0.49-0.981,1.699-1.756,1.533-2.919c0.26-0.057,0.289,0.12,0.307,0.308
			c0.801-0.579,1.787-0.973,2.604-1.537c0.305,0.303,2.182,0.578,3.064,0c1.035,0.68,2.975,0.019,4.442,0.307
			c0.583,0.115,0.909,0.688,1.531,0.462c1.146,1.224,1.989,1.989,1.991,3.841c-1.262-0.219-1.434-1.531-1.991-2.458
			c-0.979,0.024-1.102-0.743-1.991-0.922c-1.062-0.214-2.444,0.46-3.523,0.308c-0.51-0.072-1.199-0.414-2.145-0.154
			c0.158,0.737,0.814,0.076,0.92,0.922c-1.014,0.27-1.383-0.943-2.605-0.922c0.264,0.76,1.465,0.58,1.533,1.537
			c-0.895-0.179-1.328-0.82-1.992-1.229c-0.166,0.037-0.104,0.305-0.307,0.307c0.848,0.758,1.385,0.787,1.686,1.844
			c-0.176-0.617-0.234,0.475,0,0.615c-0.973-0.46-1.543-1.322-2.451-1.845c-0.367-0.061,0.085,0.7-0.461,0.462
			C-251.607,433.475-250.767,434.523-250.169,434.488L-250.169,434.488z M-251.394,432.338c0.652,0.216,0.865,0.873,1.531,1.075
			C-250.025,432.803-251.025,432.229-251.394,432.338L-251.394,432.338z M-249.862,444.938
			C-250.066,444.178-250.586,444.698-249.862,444.938L-249.862,444.938z M-251.548,442.019c-0.309,0.431,0.912,1.288,1.226,1.077
			C-250.827,442.832-251.161,442.399-251.548,442.019L-251.548,442.019z"/>
		<path id="Fill-37" sketch:type="MSShapeGroup" inkscape:connector-curvature="0" d="M-259.666,472.138
			c0.599-1.448,1.862-2.229,2.604-3.534c-1.195-0.121-1.791,1.686-2.758,2.305c-0.306,0.359-0.072,1.26-0.919,1.076
			c0.037-0.886,0.749-1.094,1.073-1.69c-0.958,0.269-1.033,1.423-2.146,1.536c0.157-0.867,0.795-1.251,1.379-1.689
			c-1.475,0.313-2.657,2.252-4.136,3.072c-0.315,0.146-0.316,0.605-0.766,0.615c-0.186-0.463,0.529-1.16,1.073-1.383
			c0.445-0.885,1.289-1.37,1.837-2.151c-0.934,0.396-1.485,1.173-2.45,1.536c1.621-2.061,4.26-3.102,6.893-4.148
			c0.611-0.152,0.461,0.459,1.072,0.307c0.684-0.031,0.453-0.979,0.919-1.229c0.712,0.003,0.759,0.674,1.226,0.922
			c0.435,0.025,0.299-0.52,0.92-0.308c0.01,0.66-0.587,1.946-1.073,2.612c0.624,0.075,0.741,0.827,1.379,0.461
			c-0.075,0.484,0.276,0.543,0.153,1.076c-0.275-0.02-0.322,0.188-0.613,0.153c-0.918,1.938-1.367,4.111-2.297,5.686
			c-0.586-0.493,0.613-1.558,0.613-2.458c-0.582-0.17-0.707,1.439-1.533,1.536c-0.289-0.896,0.776-1.371,1.226-1.997
			c0.714-0.995,1.114-2.279,1.839-3.229c-0.048-0.208-0.384-0.127-0.613-0.152c-0.877,1.375-1.811,2.691-2.451,4.303
			c-0.482,0.022-0.064-0.857-0.766-0.615c1.086-2.139,2.709-3.736,3.371-6.301c-1.141,0.854-1.645,2.348-2.759,3.228
			c0.043,0.558-0.444,1.046-0.766,0.769c0.56-1.438,1.792-2.197,2.452-3.535c-1.051,0.247-1.288,1.438-1.84,2.152
			c-0.354,0.457-0.967,0.615-1.072,1.229c-0.545-0.445,0.406-1.223,0.766-1.689c0.486-0.629,0.931-1.295,1.38-1.691
			c-0.513,0.223-2.865,2.621-2.604,3.228C-258.7,472.961-259.744,471.643-259.666,472.138L-259.666,472.138z M-255.99,468.449
			c0.214-0.482,0.757,0.212,0.92-0.153C-255.012,467.297-256.403,468.238-255.99,468.449L-255.99,468.449z M-259.208,469.219
			c0.068-0.555,1.521-0.516,1.073-1.076C-258.306,468.592-259.8,468.514-259.208,469.219L-259.208,469.219z M-260.432,469.371
			c0.098-0.01,0.515-0.5,0.153-0.461C-260.63,468.949-260.684,469.399-260.432,469.371L-260.432,469.371z M-261.505,469.986
			c0.37,0,0.979-0.537,0.613-0.768C-261.046,469.525-261.57,469.46-261.505,469.986L-261.505,469.986z"/>
		<path id="Fill-38" sketch:type="MSShapeGroup" inkscape:connector-curvature="0" d="M-259.208,436.795
			c0.833,1.689,0.171,4.281,0.92,6.453c-0.469-0.435-0.654-1.49-0.766-2.305c-0.113-0.836,0.034-1.701-0.154-2.459
			c-0.038-0.318-0.672-0.041-0.765-0.308c-0.412,1.153-0.345,3.332-0.459,4.304c-0.641,0.028-0.01-1.221-0.767-1.076
			c0.271-1.132,0.212-2.041,0.154-3.228c-0.185,0.3-0.49,0.728-0.613,1.229c-0.186,0.76,0.142,1.877-0.459,2.305
			c-0.68-0.471,0.343-2.136,0.306-2.92c-0.754,0.371-0.906,1.346-0.918,2.46c-0.804-0.191-0.349,0.879-1.073,0.768
			c-0.391-0.411,0.093-0.81,0-1.382c-1.171,0.976-1.167,3.13-1.225,5.224c-0.716-0.236-0.342-1.255-0.306-1.844
			c0.049-0.791,0.33-1.573,0.306-2.306c-1.084,0.859-0.969,2.922-1.379,4.457c-0.372-0.985-0.088-2.496,0.307-3.688
			c0.196-0.596,0.788-1.312,1.072-1.998c0.235-0.568,0.176-1.09,0.612-1.537c0.4-0.409,1.164-0.426,1.379-0.922
			c0.158,0.15,0.31,0.303,0.459,0.461c0.499-0.295-0.167-0.338-0.152-0.461C-262.597,436.847-260.233,437.34-259.208,436.795
			L-259.208,436.795z M-261.352,437.562c-0.5,0.062-0.99,0.134-1.072,0.614C-261.859,438.181-261.369,438.107-261.352,437.562
			L-261.352,437.562z M-260.432,438.639C-259.919,437.321-260.953,437.612-260.432,438.639L-260.432,438.639z M-263.343,440.943
			c0.218-0.351,0.779-1.805,0.459-1.689C-263.119,439.638-263.754,440.422-263.343,440.943L-263.343,440.943z M-263.191,439.406
			c-0.111-0.42,0.305-0.309,0.307-0.615C-263.395,438.506-263.528,439.344-263.191,439.406L-263.191,439.406z"/>
		<path id="Fill-39" sketch:type="MSShapeGroup" inkscape:connector-curvature="0" d="M-263.803,434.336
			c-1.054,0.65-1.619,1.646-2.604,1.997c-0.642-1.046-1.056-2.321-1.838-3.228c-0.229-2.52,0.576-3.379,1.686-4.303v-1.997
			c0.897-0.605,1.588,0.116,2.298-0.614c0.77-1.38,2.172-2.124,3.83-2.613c0.703,0.471,1.069,0.6,1.685,0.922
			c0.424,0.371-0.509,2.338-0.766,3.381c-0.364,1.475-0.189,3.219-0.613,4.149c-0.343,0.751-1.201,1.233-1.378,1.844
			c-0.833,0.087-1.317,0.523-1.992,0.769C-263.757,434.699-263.785,434.523-263.803,434.336L-263.803,434.336z M-262.117,428.342
			c-1.213,1.857-1.998,3.951-3.217,5.84c0.533-0.438,0.831-1.113,1.531-1.383c0.471-1.231,1.324-2.275,1.992-3.381
			c0.432-0.714,0.679-1.609,1.073-2.305c0.057-0.102,0.379-0.156,0.46-0.308c0.403-0.761,0.604-1.226,0.459-1.998
			c-0.906-0.002-0.791,0.108-1.532,0.153c-1.077,2.279-2.503,4.762-3.676,6.916c-0.344,0.631-1.214,1.564-0.613,2.305
			c0.824-2.094,2.27-3.562,3.063-5.686c0.492,0.031,0.25-0.672,0.766-0.615c0.208-0.562,0.679-1.67,1.073-1.537
			C-260.798,427.264-261.682,427.675-262.117,428.342L-262.117,428.342z M-263.343,432.645c0.642,0.414,0.771-0.33,1.072-0.768
			c0.458-0.666,0.923-1.5,1.072-2.306c0.632-0.288,0.692-1.149,0.92-1.843c-0.035-0.12-0.005-0.304-0.153-0.309
			C-261.42,429.145-262.473,430.803-263.343,432.645L-263.343,432.645z M-262.271,432.799c0.912-0.365,1.041-1.518,1.379-2.459
			C-261.558,430.953-261.842,431.948-262.271,432.799L-262.271,432.799z M-265.182,428.649c-0.309,0.54-0.556,1.079-0.766,1.536
			c-0.441,0.961-1.475,2.338-0.613,3.074c0.799-2.426,1.934-4.515,3.523-6.146c-1.23,2.043-2.527,4.021-3.37,6.454
			c0.572-0.506,0.865-1.323,1.226-1.997c0.38-0.712,0.688-1.465,1.073-2.152c0.778-1.393,1.817-2.643,2.144-3.996
			C-263.125,426.412-264.39,427.27-265.182,428.649L-265.182,428.649z M-263.65,433.721v0.307h0.613v-0.307H-263.65L-263.65,433.721
			z M-265.488,428.803c-0.039-0.602,0.555-0.57,0.46-1.229C-265.718,427.352-265.807,428.521-265.488,428.803L-265.488,428.803z
			 M-267.173,431.723c0.141-0.566,1.289-1.619,0.766-1.844C-266.552,430.506-267.67,430.963-267.173,431.723L-267.173,431.723z"/>
		<path id="Fill-40" sketch:type="MSShapeGroup" inkscape:connector-curvature="0" d="M-239.751,449.241
			c-0.992,0.062-0.906,0.601-1.227,1.075c-0.557-0.005-0.673-0.451-0.612-1.075c-0.457,0.003-0.197,0.725-0.46,0.923
			c-0.895-0.111-0.943,0.285-1.379,0.307c1.402,2.471-0.973,4.988-3.063,5.84c0.394,1.543,1.104,3.721,3.063,4.455
			c0.436,0.236,0.26,0.677,0.461,1.076c0.704,1.405,1.477,2.036,0.918,4.303c-0.026,0.106-0.201,0.31-0.306,0.769
			c-0.168,0.733-0.759,2.235-1.226,2.92c-0.215,0.313-1.14,0.739-1.226,1.382c-1.683,1.015-3.392,1.434-4.749,2.613
			c-0.576,0.5-1.131,1.117-1.686,1.844c-0.852,1.115-1.434,2.93-2.298,4.457c-0.835,1.477-3.372,2.003-4.749,3.227
			c-1.876,0.023-3.818,1.285-5.667,1.844c-0.525-0.424-1.125,0.173-1.686,0.154c-0.419-0.014-0.809-0.309-1.226-0.308
			c-0.824,0.003-1.657,0.343-2.451,0.308c-0.985-0.045-2.071-0.909-3.216-1.076c-1.554-0.225-3.175,0.413-4.29,0.154
			c-0.973-0.227-1.693-1.307-2.604-1.537c-0.777-0.227-0.949,0.663-1.379,0.308c-0.461,0.154-0.271-0.343-0.306-0.614
			c-0.739-0.341-2.153-0.285-3.218-0.77c-0.291-0.132-1.539-1.382-1.685-0.307c0.025-0.963-1.055-0.544-1.992-0.769
			c-0.197-0.048-0.561-0.354-0.918-0.461c-0.532-0.157-2.426-0.528-2.911-0.769c-0.099-0.049,0.034-0.258-0.153-0.307
			c-0.56-0.15-1.037-0.733-1.532-1.23c-0.081-0.08-0.23-0.405-0.307-0.461c-0.451-0.326-1.06-0.286-1.531-0.614
			c-0.225-0.157-0.468-0.646-0.766-0.922c-0.297-0.276-0.795-0.458-0.919-0.614c-0.064-0.083,0.077-0.393,0-0.461
			c-0.443-0.392-0.633-1.312-1.073-2.152c-1.364-2.615-2.094-6.57-2.91-10.295c-0.466,0.608-0.784,1.365-1.532,1.689
			c-1.087-0.148-1.355-1.587-1.838-2.611c-0.423-0.897-0.658-1.318-0.92-2.767c-0.194-1.075-0.295-4.208,0-6.3
			c0.081-0.568,0.736-1.66,1.073-2.305c0.303-0.584,0.666-1.178,1.072-1.537c-0.046-1.531,0.623-2.347,0.613-3.842
			c0.481-0.133,0.34-0.889,0.919-0.922c1.269-2.404,1.73-4.672,3.217-6.762c0.862-1.212,1.267-2.1,2.451-3.074
			c0.583-0.479,1.396-1.127,1.992-1.536c1.395-0.957,2.998-1.551,5.055-2.151c1.948-0.568,3.721-1.537,5.974-1.998
			c2.244-0.458,4.834,0.201,7.047-0.461c0.346-0.103,0.533-0.359,0.92-0.461c1.323-0.348,3.447-0.428,4.748-1.229
			c0.161-0.1,0.263-0.314,0.46-0.461c1.02-0.763,2.392-1.452,3.677-2.152c0.231-0.484,1.004-0.426,1.072-1.075
			c1.232-0.188,1.743-1.021,3.063-1.229c1.547-0.243,3.231,0.53,4.596,0.307c1.474-0.239,1.948-1.744,3.218-1.844
			c5.088-4.106,8.156-10.006,11.029-15.981c-0.201-0.566-0.137-1.397-0.307-1.997c1.628-1.714,2.025-4.449,4.596-4.918
			c0.703-0.128,2.812,0.338,3.677,0.461c0.177,0.025,0.067,0.283,0.153,0.308c0.477,0.128,1.104,0.015,1.379,0.154
			c0.781,0.393,1.291,1.337,1.838,1.844c0.992,0.029,1.217,0.828,2.299,0.769c1.947,1.529,4.318,2.634,5.82,4.609
			c1.025-0.055,1.16,0.783,2.145,0.769c0.443,0.897,1.609,1.041,1.992,2.151c0.5,1.451-0.343,3.425,0.92,4.148
			c-0.071,0.64-0.034,1.301,0.152,1.998c0.146,0.549,0.628,1.119,0.766,1.69c0.949,3.907,0.594,8.662,0.767,12.294
			c0.038,0.82,0.345,1.582,0.153,2.305c0.754,0.662-0.234,2.143-0.461,4.148c-0.183,1.638,0.334,3.969-0.152,5.687
			c-0.115,0.407-0.604,0.742-0.919,1.229c-0.331,0.513-0.475,1.077-0.767,1.383c-0.803,0.844-2.041,1.406-2.91,2.151
			c-0.748,0.642-1.239,1.427-1.838,1.998c-1.109-0.062-1.355,0.853-2.299,1.075c-1.562,0.37-3.394-0.208-4.902,0
			c-1.447,0.201-2.553,1.092-4.136,0.769c-0.665,0.407-1.153,0.994-1.839,1.384C-238.107,450.049-239.432,450.148-239.751,449.241
			L-239.751,449.241z M-261.352,454.158c-0.451,0.829-0.978,1.58-1.685,2.152c-0.158-0.625,0.074-1.254,0.154-1.845
			c-0.482,0.333-0.799,1.491-1.378,1.229c0.246-1.393,1.9-1.371,2.297-2.612c-0.917,0.31-1.267,1.188-2.144,1.537
			c-0.253-0.003-0.086-0.427-0.307-0.462c-0.108,0.367-0.849,0.98-1.072,0.308c0.604-0.111,0.899-0.532,1.226-0.922
			c-1.23,0.112-2.626,2.171-4.136,1.997c0.896-1.058,2.427-1.359,3.216-2.15c-1.037,0.066-1.83,0.718-2.604,1.229
			c-0.758,0.499-1.436,1.432-2.299,1.384c0.087-0.734,1.036-0.602,1.226-1.23c-0.747-0.639-1.422,0.009-2.297,0.307
			c-0.227,0.077-0.53-0.047-0.766,0c-0.315,0.063-0.569,0.432-0.767,0.461c0.003,0-0.369-0.305-0.46-0.307
			c-0.556-0.014-1.179,0.633-1.532,0c0.224-0.238,0.785-0.136,1.226-0.154c1.372-1.138,2.924-1.446,5.515-1.536
			c1.526-1.723,3.981-1.063,6.28-1.69c0.212,0.249,0.542,0.379,0.459,0.923c1.718,0.612,2.663,1.839,4.29,1.844
			c0.321,0.001,0.602-0.194,0.919-0.154c0.894,0.112,1.821,0.876,2.911,0.614c1.935,1.928,5.281,0.225,7.354-0.307
			c0.318-1.029,0.734-1.401,1.071-2.611c-0.526-0.189-0.224-1.211-0.459-1.691c-0.499-0.318-0.715-0.922-1.072-1.383
			c-1.114-0.369-2.208-0.757-2.911-1.537c0.139-0.271,0.343-0.476,0.613-0.614c1.264,0.424,2.343,0.882,3.677,1.536
			c0.073,0.49,0.189,0.938,0.612,1.076c0.705-0.119,1.197-0.738,1.991-0.922c0.364-0.085,0.71,0.188,1.073,0.153
			c0.537-0.05,1.11-0.62,1.684-0.46c0.377,0.104,0.241,0.461,0.767,0.46c0.487-0.026,1.128-0.36,1.532,0
			c1.017-0.518,1.033-2.037,1.686-2.92c0.381,0.049,1.287,0.329,0.918,1.076c-0.467,0.11-0.449-0.266-0.918-0.154
			c-0.049,0.361-0.242,0.577-0.154,1.076c1.639-0.11,2.994-0.675,4.443-0.922c0.775-0.133,1.421,0.133,2.145,0.153
			c3.463,0.101,5.113-1.743,7.66-3.534v-0.614c0.82-0.095,1.211-1.475,1.838-2.152c0.151-0.164,0.506-0.161,0.613-0.307
			c1.059-1.455,0.715-3.639,0.766-5.532c0.029-1.091,0.232-2.095,0-2.92c0.301,0.046,0.303-0.208,0.459-0.308
			c-0.018-4.174,0.086-8.414-0.459-12.754c-0.18-1.426-0.284-3.162-0.766-4.303c-0.149-0.352-0.493-0.566-0.613-0.922
			c-0.235-0.691-0.455-1.581-0.612-2.306c-0.228-1.046,0.019-2.146-0.308-3.073c-0.397-1.135-1.747-1.597-2.451-2.305h-0.918
			c-1.736-1.388-3.363-3.689-5.668-3.996v-0.46c-1.494,0.114-1.674-1.089-3.064-1.076c-0.672-1.729-2.631-1.875-4.596-2.306
			c-0.163-0.035-0.354-0.299-0.46-0.307c-2.511-0.191-3.178,2.122-4.288,3.842c-0.039,4.338-2.99,7.024-4.29,10.604
			c-1.292,1.213-1.99,3.023-3.37,4.148c0.039,0.45-0.347,0.472-0.307,0.922c-0.57,0.197-0.761,0.773-1.072,1.229
			c-0.856,0.474-2.107,1.366-2.298,1.997c0.438,0.156,1.147,0.115,2.145,0.308c1.413,0.272,3.119,1.517,4.442,1.998
			c0.533,0.194,1.004-0.192,1.227,0.461c1.194-0.534,2.264,0.483,3.676,0.614c2.572,0.24,5.068-1.015,7.354-1.382
			c0.888-0.646,1.68-1.388,2.758-1.845c0.654-2.109,2.416-3.107,4.135-4.149c0.212,0.198,0.152,0.668,0.154,1.076
			c-0.871,0.253-1.329,0.921-1.992,1.383c-0.23,1.152-0.906,1.856-1.838,2.306c-0.768,1.229-1.732,2.257-3.83,2.15
			c-0.6,1.17-2.673,0.928-4.136,1.229c-1.789,0.37-3.409-0.177-5.208-0.461c-0.92-0.145-1.088,0.06-1.686-0.153
			c-0.271-0.098-0.522-0.068-0.766-0.154c-1.235-0.43-2.164-1.572-3.064-1.075c0.176-0.483-0.24-0.374-0.307-0.614
			c-1.352,0.027-2.443-0.642-3.523-0.77c-1.502-0.176-2.4,0.693-3.83,1.384c-1.098-0.452-2.496-0.397-3.676-0.769
			c-4.051,1.179-6.523,4.305-10.417,5.686c-1.439,0.512-2.952,0.393-4.596,0.922c-0.894,0.97-2.271,0.096-3.37,0.154
			c-0.32,0.018-0.6,0.249-0.92,0.307c-0.758,0.139-1.508,0.026-2.298,0.154c-0.931,0.151-1.986,0.654-3.217,1.076
			c-1.369,0.469-2.861,0.684-3.983,1.076c-0.175,0.061-0.053,0.251-0.153,0.307c-0.146,0.08-0.246-0.254-0.46-0.154
			c-0.324,0.15-0.792,0.518-1.226,0.769c-0.434,0.253-0.986,0.517-1.379,0.769c-1.51,0.968-2.615,2.138-3.523,3.381
			c-0.166,0.227-0.626,0.419-0.767,0.614c-0.314,0.438-0.667,1.17-0.766,1.536c-0.048,0.183-0.262,0.062-0.306,0.154
			c-0.187,0.4-0.124,0.946-0.307,1.383c-0.515,1.23-1.417,2.329-1.685,3.842c-0.918,1.078-1.076,2.916-1.533,4.457
			c-0.686,0.695-0.964,1.984-1.072,3.227c-0.749,0.555-0.475,1.684-0.612,2.459c-0.085,0.479-0.293,0.789-0.307,1.229
			c-0.07,2.334,0.959,4.715,1.532,6.916c0.866-0.412,1.276-1.281,1.992-1.844c1.23-1.057,3.559-0.387,4.289-1.691
			c-0.22-0.679-0.749-0.453-1.226-0.614c-0.204-0.667-0.588-1.15-1.225-1.383c0.337-1.03-0.372-2.017-0.613-3.073
			c-0.288-1.262-0.145-2.617-0.613-3.688h-1.072c-0.192-0.754-0.861-2.414-0.153-3.074c0.295,0.729,0.145,1.903,0.459,2.612
			c0.494,0.034,0.648-0.271,1.226-0.153c0.604,3.244,0.536,7.953,3.371,8.451c0.128,0.179,0.202,0.412,0.153,0.769
			c0.94-0.805,1.419-1.511,2.91-1.69c0.756-0.09,1.681,0.066,2.758,0c-0.127,0.434,0.216,0.398,0.153,0.77
			c3.596,0.261,7.234,0.921,10.417-0.923c0.433-0.127,0.397,0.216,0.766,0.153c0.421-0.249,0.708-0.724,1.225-0.46
			c-0.04-0.503,0.183-0.74,0.613-0.769c0.775,1.713,3.029,2.833,4.75,1.229c0.868,0.027,2.781,0.414,3.983,0.154
			c0.453-0.099,0.707-0.596,0.918,0c0.133-0.225,0.229-0.487,0.613-0.461c0.539,0.255,0.744,0.388,1.226,0
			c0.229,0.668,1.454,0.35,1.686,0.614c0.146,0.286-0.459,0.515,0,0.614c0.444-0.553,1.489,0.805,2.144,0.462
			c0.49-0.741,0.695-2.579,0.613-3.382c-0.303,0.414-0.379,1.055-1.072,1.076C-262.747,455.375-260.757,455.048-261.352,454.158
			L-261.352,454.158z M-272.841,474.75c1.339-0.922,2.82-2.611,3.677-3.688c-0.049-0.716,0.305-1.025,0.306-1.691
			c1.299-0.605,2.342-2.486,1.838-3.533c-0.667,0.777-1.704-0.064-2.451-0.154c-0.071,0.441-0.177,0.847-0.613,0.922
			c-0.468,0.111-0.558-0.157-0.918-0.153c-0.505,0.378-1.109,1.08-1.991,0.614c-0.581,1.236-2.823,1.371-3.677,0.308
			c-0.257,1.47-2.586,0.495-2.604,2.459c1.034,0.55,2.114,0.097,2.757,0.461c-1.267,0.654-2.554,0.065-3.37,0
			c-0.708-0.058-0.77,0.3-1.532,0.153c-1.987,0.904-4.517,1.174-6.127,1.383c-0.457-0.061-0.91-0.921-1.379-0.461
			c0.926,0.822,0.197,2.619-1.226,2.459c-0.116,0.525-0.103,1.092-0.766,1.383c-0.466,0.23-1.008-0.464-0.919,0.154
			c0.26,0.417,0.951,1.006,0.613,1.536c-0.769-0.307-1.914-1.048-2.604-0.922c0.93,0.854,1.69,1.438,2.757,2.151
			c0.518,0.346,1.219,0.879,1.685,1.076c1.308,0.55,3.21,0.343,4.596,1.075c0.212,0.112,0.356,0.542,0.612,0.614
			c0.965-0.065,2.05,0.311,3.217,0.308c1.299-0.003,2.888-0.476,3.83,0.461c-0.951,0.03-2.219-0.433-3.063,0
			c2.908,1.021,5.877,2.155,8.426,1.384c0.637,0.792,2.688,1.752,3.677,0.768c2.179,0.778,4.901,0.083,6.587-0.768
			c0.208-0.105,0.335-0.053,0.613-0.154c0.508-0.186,0.892-0.501,1.226-0.615c0.63-0.213,1.403-0.187,1.991-0.461
			c1.001-0.465,1.652-1.456,2.757-1.536c0.157-1.252,0.897-1.654,1.379-2.458c0.665-1.109,0.833-2.1,1.378-2.768
			c1.684-2.058,3.391-3.674,5.976-4.148c2.005-1.86,2.856-4.016,2.757-7.837c-0.299-0.366-0.534-0.795-0.613-1.382
			c-1.849-0.852-3.623-2.922-3.062-5.227c-1.4,0.091-2.678,0.957-4.443,0.615c-0.738-0.143-1.443-0.635-1.838-0.768
			c-1.976-0.666-4.008-0.937-5.822-0.77c-0.32-0.088-0.436-0.381-0.918-0.307c-0.248,1.938-0.223,3.225-0.766,4.764
			c-0.502,0.213-0.75,0.682-1.226,0.922c0.026,0.924-0.905,0.901-0.766,1.537c-0.953,0.303-1.101,0.735-1.838,1.536
			c-0.992,1.077-2.076,2.04-1.686,3.688c-0.268,0.723-1.064,0.959-1.531,1.537c-0.658,0.811-0.686,1.9-1.226,2.766
			c-0.675,1.078-2.047,1.911-3.064,2.612c-1.097,0.756-2.264,1.509-3.523,2.151C-275.299,475.531-273.764,475.386-272.841,474.75
			L-272.841,474.75z M-244.501,453.391c0.441-0.027,0.611-1.117,0.307-1.383C-244.346,452.418-244.51,452.818-244.501,453.391
			L-244.501,453.391z M-262.883,458.769c0.305,0.154,0.242,0.681,0.766,0.614C-262.057,458.951-262.77,458.518-262.883,458.769
			L-262.883,458.769z M-263.343,459.845c-1.18,0.385-1.93,0.248-3.217-0.154c-0.794,0.679-2.197,0.786-3.37,0.154
			c-1.92,0.46-3.075-0.015-5.209,0.308c-0.196-0.418-0.479-0.75-0.612-1.23c-0.828,0.123-0.89-1.326-1.992-1.383
			c-1.494,0.812-2.606,1.767-3.983,1.844c-0.534,0.031-1.072-0.294-1.685-0.307c-1.128-0.023-2.444,0.461-3.983,0.153
			c-0.268,0.397-0.377,0.954-1.072,0.923c-0.168,0.445-0.189,1.039-0.767,1.075c-0.725-0.245-1.083-0.858-1.685-1.229
			c-0.424-0.622-0.376-1.555-0.766-1.844c-1.446,0.438-3.177,0.533-3.83,2.305c-0.53,0.11-1.075,0.117-1.685,0.461
			c0.477,0.811,1.524,1.402,1.072,2.305c0.734,0.368,0.764,1.371,1.225,1.998c0.41,0.557,1.323,1.035,1.992,1.69
			c0.437,0.429,0.704,1.114,1.072,1.383c0.892,0.653,2.2,0.565,2.911,1.537c2.192,0.363,3.924,0.468,5.821-0.614
			c1.292,0.191,1.414,0.002,2.757-0.154c0.53-1.218,1.324-2.063,2.604-2.151c0.111-1.045-0.489-2.329,0.766-2.92
			c0.807,0.403,1.243-0.05,1.838-0.153c1.434-0.25,2.89-0.323,4.596-0.615c1.01-0.172,2.047-0.686,2.604-0.768
			c0.623-0.093,1.158,0.069,1.685,0c0.445-0.117,0.397-0.729,1.072-0.615c0.433,0.028,0.191,0.73,0.766,0.615
			C-264.089,461.521-262.526,461.016-263.343,459.845L-263.343,459.845L-263.343,459.845z M-263.803,453.852
			c0.384,0.025,0.48-0.236,0.613-0.461C-263.484,453.455-263.849,453.445-263.803,453.852L-263.803,453.852z M-264.569,457.693
			c-0.469,0.111-0.451-0.266-0.92-0.154c-0.106,0.687-0.188,0.994,0,1.383c0.827-0.041,1.786,0.051,1.992-0.614
			C-263.905,458.458-265.013,458.399-264.569,457.693L-264.569,457.693z M-266.407,463.532c-0.126,0.435,0.216,0.398,0.153,0.769
			c0.466-0.096,0.784-0.342,0.766-0.922C-265.944,463.345-266.009,463.945-266.407,463.532L-266.407,463.532z M-266.56,457.386
			c0.146,0.519-0.469,1.05,0,1.383c0.023-0.382,0.519-0.045,0.613,0c-0.234-0.488-0.053-0.677,0-1.229
			C-266.214,457.551-266.424,457.505-266.56,457.386L-266.56,457.386z M-266.867,463.379c-0.357,0.051-0.66,0.157-0.766,0.461
			c0.225,0.134,0.486,0.229,0.46,0.615c-0.295,0.062-0.121,0.596-0.612,0.461c-0.379-0.463,0.231-1.117-0.307-1.229
			c-0.102,0.206-0.328,0.286-0.613,0.307c-0.079,0.664,0.565,1.01-0.154,1.384c1.113,0.43,1.666,0.295,2.298-0.615
			C-267.133,464.549-266.64,463.608-266.867,463.379L-266.867,463.379z M-268.092,457.693c-0.159,0.404-0.184,0.943-0.154,1.536
			c0.484,0.075,0.542-0.276,1.073-0.153c-0.179-0.699,0.401-1.432,0.153-1.69C-267.329,457.953-267.529,458.023-268.092,457.693
			L-268.092,457.693z M-269.93,457.848c0.02,0.377,0.023,0.74-0.154,0.921c0.602,0.013,0.956,0.271,1.379,0.461
			c-0.237-0.511,0.194-0.948,0.307-1.536C-268.991,457.663-269.527,457.688-269.93,457.848L-269.93,457.848z M-272.688,464.607
			c-0.068,0.689,0.605,1.434,0.307,1.845c-0.664-0.205-0.441-1.299-0.767-1.845c-0.36-0.002-0.451,0.266-0.919,0.154
			c-0.128,0.75,0.623,1.416,0.153,1.998c-0.28-1.516-1.371-2.291-2.91-1.383c0.149,2.444,2.584,2.641,3.982,1.229
			c0.945,0.527,1.061-0.664,1.992-0.614c-0.298-0.534-0.346-0.853,0.153-1.229c0.107,0.35-0.051,0.955,0.459,1.229
			c0.321-0.345,0.504-0.827,1.226-0.769v-0.769C-270.486,464.102-271.512,464.396-272.688,464.607L-272.688,464.607z
			 M-272.688,457.693c0.161,0.578-0.664,0.699,0,0.922c0.534-0.289,1.274,0.271,2.298,0c-0.012-0.268,0.035-0.479,0.152-0.615
			C-270.776,457.618-271.762,457.688-272.688,457.693L-272.688,457.693z M-273.301,458.154c-0.561-0.051-0.851,0.17-1.226,0.308
			c0.084,0.223-0.179,0.794,0.154,0.768c0.331-0.979,0.917,0.059,1.379-0.614C-273.21,458.574-273.169,458.277-273.301,458.154
			L-273.301,458.154z M-282.952,470.294c-0.225,0.448,0.685,0.448,0.46,0H-282.952L-282.952,470.294z M-287.395,471.215
			c0.024,0.139,0.847,0.08,0.307-0.152C-287.179,471.023-287.41,471.125-287.395,471.215L-287.395,471.215z M-289.846,458.615
			c0.365,0.096-0.023,0.945,0.307,1.075c0.923,0.101,0.13-1.114,0.918-0.614c0.08-0.228,0.228-0.388,0.307-0.614
			C-289.061,458.501-289.351,458.203-289.846,458.615L-289.846,458.615z M-290.918,470.755c-0.684-0.852-1.408-1.661-2.451-2.151
			c-0.389-0.889-1.085-1.239-1.686-1.998c-0.223-0.282-0.281-0.652-0.459-0.922c-0.844-1.275-2.818-3.113-2.451-4.917
			c-0.868,0.308-1.839,0.512-2.451,1.075c0.96,1.17,0.792,2.681,1.072,4.149c0.306,1.61,1.299,3.063,2.145,4.303
			c0.12,1.517,0.454,3.217,1.226,4.61c0.482,0.074,0.347-0.473,0.918-0.308c0.205,0.513,0.695,0.737,1.073,1.075
			c-0.043-0.35,0.037-0.577,0.306-0.615c0.371,0.5,0.893,0.848,1.686,0.923c-0.141-0.524-0.678-0.651-0.613-1.383
			c0.669-0.108,0.863,0.261,1.531,0.153c0.201-0.846,0.551-1.594,1.838-1.689C-289.167,471.662-289.543,470.708-290.918,470.755
			L-290.918,470.755z M-291.377,469.525c-0.004,0.571,1.637,0.944,1.378,0.769C-290.402,469.981-290.902,469.766-291.377,469.525
			L-291.377,469.525z M-294.288,476.133C-295.201,475.361-293.945,476.422-294.288,476.133L-294.288,476.133z M-299.037,469.371
			c0.128,0.896,0.356,1.693,0.918,2.152C-298.121,470.502-298.663,470.021-299.037,469.371L-299.037,469.371z M-304.398,456.311
			c-0.039-1.948,0.551-3.797,0.613-4.918c-0.974,1.837-0.826,6.297-0.46,7.837c0.196,0.829,0.146,1.833,0.918,1.998
			C-303.871,459.968-304.361,458.207-304.398,456.311L-304.398,456.311z"/>
		<path id="Fill-41" sketch:type="MSShapeGroup" inkscape:connector-curvature="0" d="M-241.437,418.661
			c0.402-1.067-0.489-0.952-0.459-1.998c-0.58-0.319-1.316,0.113-1.686-0.153c-0.262-0.721,0.832-1.28,1.378-1.69
			c0.372-0.264,0.411-0.633,0.767-1.075c0.415-0.518,1.259-1.145,1.686-1.845c0.459-0.753,0.633-1.843,1.071-2.611
			c0.04-0.071,0.403-0.073,0.46-0.154c0.291-0.416,0.946-2.027,0.92-2.767c-0.018-0.436-0.262-0.834-0.308-1.229
			c0.446-0.567,0.907,0.569,1.073-0.154c0.703,0.269,0.792,1.152,1.378,1.537c0.976,0.107,1.089-0.65,1.839-0.769
			c0.891,1.308,2.178,2.22,3.064,3.535c-0.088,0.753,0.238,1.091,0.612,1.382c0.344-0.104,0.665-0.564,1.071-0.152
			c0.327,1.089-0.082,2.017-0.305,3.227c-2.348,1.231-3.881,3.277-5.822,4.917c-1.441,0.142-2.712,0.455-3.83,0.922
			C-239.38,419.158-240.374,418.875-241.437,418.661L-241.437,418.661L-241.437,418.661z M-231.632,408.98
			c-0.565-0.202-1.395-0.139-1.992-0.307c0.067-0.529-0.061-0.862-0.153-1.23c-0.587-0.166-1.156,0.76-1.839,0.614
			c-0.152-0.665-0.555-1.082-1.071-1.382c-0.573,3.881-2.736,6.167-4.596,8.758c0.405,0.26,0.65,0.68,0.612,1.383
			c0.889,0.216,1.416,0.742,2.145,1.076c1.386,0.635,0.592,0.107,2.298-0.307c0.134-0.033,0.727,0.052,0.92,0
			c0.714-0.193,1.805-1.17,2.144-1.537c0.393-0.424,0.586-1.041,0.92-1.383c1.229-0.611,2.493-1.188,2.758-2.767
			C-230.988,412.275-231.124,410.099-231.632,408.98L-231.632,408.98z M-232.704,407.136v0.614c0.229-0.025,0.564,0.056,0.612-0.153
			C-232.403,407.551-232.501,407.289-232.704,407.136L-232.704,407.136z"/>
		<path id="Fill-42" sketch:type="MSShapeGroup" inkscape:connector-curvature="0" d="M-285.709,435.719
			c-0.348,0.707-1.12-0.27-1.686-0.307c-1.117,0.415-0.823,2.247-1.685,2.918c-0.636-0.181-1.326-0.309-1.379-1.075
			c-0.777,0.091-0.782,0.957-1.378,1.229c-0.091,0.49,0.288,0.476,0,0.77c-0.213,0.321-0.309,0.791-0.613,1.229
			c-0.312,0.449-0.316,0.941-0.459,1.998c-0.054,0.395-0.401,0.734-0.459,1.074c-0.287,1.685-0.348,2.125-1.379,3.228
			c-0.709,0.759-1.999,1.87-3.371,1.69c-0.339-4.468,1.316-7.863,4.137-9.988c0.666-0.211,0.854,0.047,1.685,0
			c0.668-0.508,0.786-1.566,1.837-1.689c0.633,0.031,0.179,1.152,1.072,0.921c0.988-0.495,0.679-2.29,1.686-2.767
			C-286.855,435.182-286.118,435.428-285.709,435.719L-285.709,435.719z M-295.36,440.943c-1.083,1.628-1.754,3.67-1.838,6.301
			c0.73-0.525,1.685-0.814,2.144-1.537c0.457-0.717,0.286-1.651,0.46-2.459c0.325-1.497,0.864-2.653,1.378-3.688
			C-294.003,439.948-294.321,440.807-295.36,440.943L-295.36,440.943z"/>
	</g>
</g>
<path id="path3071" inkscape:connector-curvature="0" fill="#CCCCCC" d="M-298.61,465.318c-0.328-1.168-0.651-2.532-0.718-3.033
	c-0.142-1.055,0.216-3.916,0.594-4.746c0.142-0.311,0.312-0.921,0.378-1.355s0.291-1.113,0.499-1.509
	c0.208-0.395,0.587-1.481,0.843-2.414s0.587-1.885,0.738-2.114c0.15-0.23,0.411-0.824,0.579-1.321
	c0.168-0.496,0.58-1.454,0.916-2.128c0.336-0.674,0.672-1.479,0.747-1.789c0.075-0.311,0.193-0.607,0.263-0.66
	c0.07-0.053,0.281-0.401,0.471-0.774c0.656-1.292,3.667-4.167,5.501-5.251c0.934-0.553,1.825-1.006,1.98-1.008
	c0.156-0.001,0.325-0.059,0.377-0.127c0.052-0.068,0.688-0.278,1.415-0.467c0.726-0.188,2.338-0.664,3.583-1.057
	c2.561-0.81,4.165-1.05,6.562-0.982c1.162,0.033,1.818-0.035,2.19-0.227c0.292-0.151,1.369-0.416,2.395-0.588
	c2.546-0.429,3.473-0.842,7.263-3.238c1.801-1.139,3.746-2.261,4.322-2.492l1.047-0.422l1.876,0.371l1.876,0.373l1.268-0.637
	c1.437-0.72,2.336-0.8,4.062-0.359c0.594,0.15,1.314,0.322,1.6,0.38c0.297,0.061,0.518,0.23,0.518,0.397
	c0,0.203,0.111,0.257,0.365,0.176c0.228-0.072,0.873,0.141,1.721,0.567c1.034,0.521,1.718,0.722,2.888,0.847
	c0.843,0.091,1.989,0.254,2.548,0.363c2.107,0.412,6.227-0.004,7.206-0.729c0.292-0.216,0.749-0.393,1.017-0.393
	c0.267,0,0.766-0.117,1.109-0.261c0.853-0.356,3.402-2.884,3.752-3.72c0.188-0.449,0.609-0.891,1.247-1.304
	c0.786-0.509,0.964-0.724,0.964-1.158c0-0.704-0.359-0.69-1.475,0.059c-1.311,0.88-2.302,1.866-2.66,2.646
	c-0.228,0.497-0.734,0.973-1.783,1.674c-1.255,0.84-1.809,1.069-3.855,1.598c-3.42,0.885-4.205,0.951-5.688,0.482
	c-0.675-0.213-1.581-0.389-2.017-0.391c-0.434-0.001-0.842-0.087-0.906-0.19s-0.316-0.188-0.561-0.188
	c-0.245,0-1.323-0.428-2.396-0.949c-1.238-0.602-2.41-1.024-3.205-1.156c-0.78-0.129-1.224-0.287-1.172-0.418
	c0.045-0.116,0.59-0.581,1.209-1.033c0.621-0.453,1.129-0.877,1.129-0.943s0.212-0.366,0.471-0.668
	c0.26-0.301,0.472-0.614,0.472-0.695s0.317-0.521,0.707-0.977c1.893-2.216,2.909-3.854,5.583-9.002
	c0.936-1.799,1.441-3.317,1.441-4.324c0-0.449,0.257-1.118,0.767-1.992c1.424-2.444,2.299-2.987,4.011-2.49
	c0.535,0.155,1.508,0.434,2.161,0.619c1.089,0.309,2.3,1.165,2.3,1.627c0,0.084,0.148,0.152,0.33,0.153s0.67,0.21,1.084,0.466
	c0.416,0.255,0.906,0.467,1.091,0.47s0.382,0.126,0.438,0.272c0.056,0.146,0.328,0.321,0.606,0.39
	c0.878,0.216,2.081,1.025,3.669,2.47c1.041,0.947,1.693,1.402,2.016,1.407c0.564,0.009,2.449,1.415,2.783,2.077
	c0.129,0.254,0.234,0.825,0.236,1.271c0.005,1.31,0.553,3.628,1.148,4.865c0.621,1.286,0.979,3.462,1.301,7.901
	c0.238,3.278,0.252,9.385,0.023,9.626c-0.095,0.099-0.207,1.706-0.251,3.573c-0.084,3.582-0.352,4.857-1.067,5.085
	c-0.178,0.056-0.568,0.491-0.869,0.966c-0.3,0.475-0.74,1.017-0.979,1.204c-0.239,0.188-0.435,0.466-0.435,0.618
	c0,0.384-3.259,2.684-4.525,3.193c-0.873,0.353-1.363,0.414-3.111,0.39c-1.471-0.021-2.567,0.081-3.771,0.348
	c-0.934,0.207-1.895,0.418-2.136,0.469c-0.369,0.078-0.428,0.024-0.377-0.339c0.049-0.349,0.161-0.42,0.58-0.371
	c0.408,0.048,0.519-0.017,0.519-0.307c0-0.389-0.253-0.654-0.808-0.853c-0.274-0.098-0.453,0.137-0.971,1.271l-0.634,1.392
	l-1.01,0.079c-0.71,0.056-1.107-0.003-1.34-0.198c-0.285-0.24-0.44-0.244-1.132-0.021c-0.439,0.142-1.08,0.232-1.422,0.203
	c-0.389-0.035-0.969,0.127-1.557,0.434l-0.936,0.49l-0.359-0.592c-0.355-0.584-1.014-0.96-2.993-1.709
	c-0.792-0.299-1.055-0.33-1.272-0.148c-0.619,0.514-0.033,1.146,1.646,1.777c0.984,0.37,1.834,1.405,2.093,2.553
	c0.224,0.99,0.202,1.154-0.296,2.281l-0.459,1.038l-1.771,0.546c-2.294,0.706-4.026,0.757-4.859,0.141
	c-0.314-0.232-0.82-0.424-1.123-0.424s-0.921-0.133-1.375-0.297c-0.51-0.184-1.123-0.258-1.609-0.193
	c-0.676,0.088-1.055-0.031-2.688-0.84c-1.046-0.518-1.902-1.057-1.902-1.197c0-0.576-0.458-0.679-2.09-0.466
	c-2.691,0.352-3.523,0.549-4.174,0.99c-0.425,0.289-1.171,0.501-2.319,0.661c-1.083,0.151-2.1,0.432-2.824,0.779
	c-0.622,0.299-1.337,0.569-1.588,0.601s-0.496,0.176-0.544,0.321c-0.07,0.213,0.083,0.241,0.778,0.146
	c0.494-0.068,0.915-0.041,0.979,0.064c0.069,0.111,0.326,0.073,0.659-0.1c0.3-0.154,0.709-0.281,0.909-0.281
	s0.681-0.133,1.068-0.295s0.841-0.242,1.007-0.179c0.244,0.093,0.185,0.208-0.305,0.591c-0.334,0.262-0.607,0.554-0.607,0.65
	c0,0.244,0.511,0.218,1.002-0.051c0.227-0.123,0.724-0.242,1.105-0.264c0.426-0.024,1.04-0.277,1.592-0.657
	c0.568-0.392,0.925-0.536,0.972-0.396c0.092,0.275,0.731,0.293,0.897,0.024c0.083-0.136,0.205-0.13,0.384,0.02
	c0.198,0.165,0.213,0.31,0.06,0.595c-0.354,0.662,0.113,0.838,0.659,0.25l0.476-0.514l-0.106,0.653
	c-0.111,0.684,0.222,1.158,0.43,0.614c0.09-0.232,0.173-0.251,0.379-0.08c0.206,0.172,0.353,0.142,0.666-0.137l0.401-0.355
	l-0.113,0.984c-0.142,1.234-0.438,1.818-0.855,1.686c-1.153-0.366-1.654-0.629-1.586-0.834c0.045-0.134-0.084-0.232-0.303-0.232
	c-0.209,0-0.62-0.098-0.911-0.217c-0.585-0.238-1.934-0.353-2.225-0.189c-0.373,0.211-0.991,0.269-3.115,0.294
	c-1.616,0.019-2.347,0.108-2.87,0.352c-0.901,0.419-1.174,0.41-2.161-0.067c-0.668-0.324-1.047-0.695-1.67-1.639
	c-0.101-0.152-0.653,0.227-0.653,0.449c0,0.145-0.16,0.263-0.354,0.263c-0.194,0-0.461,0.129-0.592,0.287
	c-0.137,0.166-0.386,0.24-0.589,0.176c-0.193-0.062-0.884,0.102-1.535,0.362c-1.623,0.649-3.528,0.844-6.504,0.662
	c-2.654-0.161-2.87-0.211-2.87-0.667c0-0.245-0.297-0.279-1.961-0.225c-1.9,0.062-1.985,0.084-2.746,0.695
	c-0.727,0.585-0.81,0.609-1.118,0.33c-0.183-0.165-0.422-0.302-0.532-0.302s-0.502-0.336-0.874-0.746
	c-0.756-0.838-1.092-1.832-1.531-4.533c-0.16-0.984-0.337-2.066-0.393-2.404c-0.092-0.55-0.167-0.612-0.737-0.612h-0.635
	l-0.158-1.179c-0.087-0.648-0.243-1.179-0.347-1.179c-0.275,0-0.336,1.459-0.097,2.347c0.181,0.67,0.273,0.765,0.751,0.765
	c0.508,0,0.558,0.067,0.734,0.99c0.104,0.544,0.244,1.399,0.311,1.901c0.066,0.501,0.249,1.265,0.405,1.697
	c0.156,0.432,0.283,1.092,0.281,1.466c-0.002,0.536,0.114,0.768,0.55,1.09c0.304,0.226,0.554,0.536,0.554,0.691
	c0,0.163,0.24,0.33,0.569,0.396c1.365,0.273,0.786,0.853-1.303,1.305c-1.648,0.357-2.001,0.546-2.964,1.588
	c-0.385,0.415-0.799,0.756-0.921,0.756S-298.283,466.484-298.61,465.318z M-296.875,464.563c0.157-0.586,0.146-1.085-0.022-1.081
	c-0.33,0.006-0.574,0.318-0.699,0.893c-0.114,0.528-0.082,0.613,0.237,0.613C-297.134,464.988-296.944,464.82-296.875,464.563z
	 M-295.101,463.857c-0.033-0.591-0.139-0.942-0.285-0.943c-0.336-0.001-0.48,0.779-0.254,1.374
	C-295.323,465.121-295.042,464.896-295.101,463.857L-295.101,463.857z M-295.35,460.664c0.06-0.097,0.033-0.223-0.059-0.279
	c-0.092-0.057-0.219-0.359-0.281-0.673c-0.132-0.661-0.502-0.77-0.498-0.146C-296.182,460.588-295.696,461.224-295.35,460.664
	L-295.35,460.664z M-280.619,459.44c-0.098-0.521-0.011-0.817,0.451-1.545c0.314-0.495,0.571-1.062,0.571-1.26
	c0-0.196,0.339-0.743,0.754-1.215c0.415-0.472,0.754-0.927,0.754-1.013s0.11-0.114,0.244-0.062c0.314,0.12,0.818-2.136,0.539-2.415
	c-0.216-0.216-0.594-0.03-0.597,0.294c-0.003,0.395-0.951,2.282-1.377,2.742c-0.227,0.244-0.611,0.521-0.855,0.615
	c-0.3,0.116-0.406,0.269-0.328,0.473c0.082,0.214,0.034,0.27-0.167,0.193c-0.175-0.068-0.373,0.059-0.521,0.33
	c-0.131,0.242-0.784,0.891-1.451,1.443c-1.345,1.112-1.261,1.419,0.181,0.665l0.938-0.491v0.646c0,0.901,0.167,1.243,0.607,1.243
	C-280.548,460.085-280.514,460-280.619,459.44L-280.619,459.44z M-247.995,457.799c0.552-0.717,0.83-1.267,0.83-1.637
	c0-0.395,0.146-0.654,0.493-0.883c0.435-0.284,0.483-0.42,0.404-1.117c-0.105-0.936-0.535-1.891-0.803-1.787
	c-0.104,0.041-0.166,0.201-0.139,0.356s0.102,0.724,0.166,1.263c0.113,0.941,0.098,0.984-0.379,1.104
	c-0.41,0.103-0.498,0.233-0.498,0.739c0,0.405-0.256,0.99-0.754,1.724c-0.782,1.152-1.044,2.056-0.453,1.565
	C-248.961,458.989-248.451,458.392-247.995,457.799z M-274.199,458.65c0.401-0.166,1.282-0.646,1.956-1.066
	c1.043-0.65,1.305-0.929,1.759-1.868c0.367-0.761,0.719-1.2,1.131-1.413c1.021-0.527,3.147-2.727,3.707-3.834
	c0.288-0.57,0.75-1.471,1.029-2.002c0.392-0.746,0.817-2.374,1.042-3.984c0.003-0.026,0.134-0.048,0.289-0.048
	c0.455,0,0.326-0.718-0.19-1.056c-0.48-0.314-0.911-0.311-3.641,0.036c-0.662,0.084-1.15,0.048-1.436-0.104
	c-0.768-0.41-1.94,0.445-2.709,1.979c-0.834,1.664-1.028,5.094-0.491,8.708l0.302,2.032l-0.726,0.631
	c-1.02,0.886-2.269,1.589-3.048,1.716c-0.365,0.06-0.699,0.214-0.742,0.343C-276.08,459.057-275.084,459.018-274.199,458.65
	L-274.199,458.65z M-292.018,453.595c1.483-0.625,3.181-2.772,3.181-4.021c0-0.244,0.118-0.674,0.261-0.953
	c0.143-0.28,0.323-0.891,0.4-1.357s0.341-1.249,0.588-1.738c0.247-0.489,0.449-1.062,0.449-1.274s0.227-0.64,0.503-0.95
	c0.501-0.562,0.505-0.563,0.854-0.189c0.192,0.207,0.573,0.432,0.846,0.5c0.582,0.146,0.908-0.201,1.197-1.274
	c0.103-0.382,0.334-0.877,0.515-1.1c0.316-0.392,0.353-0.395,1.059-0.1c0.512,0.214,0.792,0.246,0.93,0.107
	c0.263-0.263,0.157-0.347-0.983-0.78c-0.944-0.358-0.973-0.359-1.269-0.014c-0.167,0.195-0.484,0.81-0.706,1.365
	c-0.452,1.134-0.885,1.364-1.212,0.646c-0.315-0.691-0.753-0.594-1.65,0.369c-0.709,0.762-0.876,0.849-1.636,0.849
	c-0.769,0-0.936,0.09-1.832,0.985c-1.921,1.921-2.927,4.293-3.147,7.415l-0.125,1.782h0.57
	C-292.911,453.863-292.368,453.742-292.018,453.595L-292.018,453.595z M-282.921,450.355c0.595-2.121,0.67-2.271,1.364-2.746
	c0.505-0.347,0.804-0.445,0.958-0.318c0.346,0.288,0.74-0.504,0.998-2.008c0.346-2.016,0.308-1.947,1-1.808
	c0.455,0.091,0.766,0.358,1.235,1.06c0.666,0.994,1.092,1.248,1.279,0.762c0.158-0.41,0.514-0.371,0.94,0.104
	c0.586,0.65,1.057,0.743,1.538,0.301c0.233-0.214,0.424-0.545,0.424-0.733c0-0.414-0.532-0.462-0.686-0.062
	c-0.158,0.412-0.507,0.348-1.011-0.188c-0.472-0.503-1.104-0.612-1.464-0.253c-0.167,0.167-0.263,0.105-0.4-0.256
	c-0.221-0.581-1.957-1.891-2.321-1.75c-0.145,0.056-0.466-0.113-0.712-0.375c-0.246-0.264-0.518-0.478-0.604-0.478
	c-0.304,0-0.15,0.948,0.213,1.312c0.328,0.328,0.349,0.488,0.189,1.461c-0.098,0.602-0.179,1.157-0.18,1.236
	c0,0.078-0.161,0.043-0.356-0.08c-0.275-0.172-0.489-0.166-0.95,0.025c-0.697,0.288-0.837,0.518-1.36,2.219
	c-0.215,0.701-0.595,1.761-0.843,2.354c-0.494,1.18-0.575,2.022-0.228,2.369c0.123,0.123,0.251,0.195,0.286,0.16
	C-283.579,452.627-283.268,451.59-282.921,450.355L-282.921,450.355L-282.921,450.355z M-243.205,451.656
	c0-0.073-0.271-0.412-0.604-0.754c-0.459-0.475-0.525-0.622-0.282-0.622c0.61,0,0.343-0.721-0.481-1.294
	c-0.934-0.65-2.52-2.236-2.378-2.379c0.138-0.137,1.384,0.838,1.862,1.457c0.381,0.493,0.939,0.705,0.939,0.355
	c0-0.089-0.254-0.482-0.565-0.874s-0.565-0.813-0.565-0.938s-0.403-0.43-0.896-0.679c-0.84-0.426-2.63-2.18-2.43-2.381
	c0.051-0.051,0.768,0.468,1.594,1.151s1.597,1.243,1.712,1.243c0.114,0,0.209-0.195,0.209-0.434c0-0.324-0.204-0.533-0.811-0.828
	c-0.978-0.475-2.961-2.246-2.961-2.645c0-0.283,0.847,0.348,2.169,1.615c0.566,0.545,1.229,0.889,1.221,0.635
	c-0.008-0.264-0.672-0.952-2.035-2.111c-0.758-0.646-1.334-1.219-1.278-1.274c0.132-0.132,0.905,0.382,1.817,1.206
	c0.432,0.391,0.869,0.629,1.068,0.584c0.348-0.08,0.087-0.365-1.83-2c-0.949-0.81-0.58-0.926,0.5-0.158
	c0.502,0.357,1.122,0.715,1.376,0.792l0.462,0.142l-0.336-0.514c-0.332-0.505-0.33-0.512,0.056-0.389
	c0.448,0.142,0.561-0.317,0.157-0.641c-1.205-0.969-1.649-1.416-1.649-1.66c0-0.315-0.093-0.367,1.509,0.844
	c0.445,0.338,0.867,0.613,0.938,0.613c0.266,0-0.057-1.244-0.428-1.65c-0.364-0.398-0.229-0.618,0.159-0.256
	c0.099,0.092,0.378,0.227,0.622,0.301c0.387,0.117,0.427,0.084,0.318-0.26c-0.113-0.354-0.068-0.381,0.453-0.277
	c0.448,0.09,0.577,0.049,0.577-0.182c0-0.163-0.138-0.374-0.308-0.469c-0.546-0.306,0.045-0.424,1.046-0.21
	c0.689,0.147,1.226,0.148,1.911,0.001c1.424-0.305,1.869-0.259,3.023,0.312c0.864,0.428,1.145,0.693,1.564,1.484
	c0.427,0.803,1.086,1.394,1.557,1.394c0.146,0-0.129-1.533-0.355-1.979c-0.367-0.723-1.489-1.98-1.767-1.98
	c-0.153,0-0.519-0.123-0.812-0.274c-0.403-0.209-1.496-0.29-4.531-0.339l-4-0.062l-1.021,0.615
	c-0.562,0.338-1.148,0.566-1.305,0.506c-0.191-0.073-0.283,0.01-0.283,0.257c0,0.595-1.135,2.165-1.471,2.036
	c-0.41-0.157-0.638,0.306-0.32,0.655c0.205,0.228,0.222,0.472,0.074,1.131c-0.104,0.462-0.29,0.903-0.413,0.979
	c-0.171,0.106-0.169,0.193,0.011,0.372c0.132,0.133,0.234,0.707,0.234,1.317c0,0.595,0.087,1.136,0.193,1.202
	c0.332,0.205,1.82,3.351,1.963,4.145c0.182,1.023,0.588,1.604,1.121,1.604c0.243,0,0.769,0.26,1.168,0.576
	c0.404,0.322,0.871,0.54,1.053,0.492c0.179-0.047,0.471,0.076,0.648,0.271C-243.72,451.78-243.205,451.92-243.205,451.656
	L-243.205,451.656z M-260.93,447.852c0.308-0.68,0.357-0.425,0.161,0.819c-0.217,1.369-0.147,2.401,0.169,2.506
	c0.164,0.054,0.236-0.171,0.237-0.739c0.001-1.076,0.285-2.75,0.585-3.457l0.241-0.566l0.07,0.52
	c0.039,0.285,0.161,0.518,0.272,0.518c0.391,0,1.058-0.931,1.179-1.643c0.067-0.397,0.206-0.848,0.308-1
	c0.128-0.192,0.143-0.045,0.048,0.475c-0.223,1.219-0.188,1.697,0.124,1.697c0.206,0,0.323-0.327,0.432-1.209
	c0.231-1.871,0.538-2.099,0.468-0.347c-0.032,0.804,0.006,1.461,0.083,1.461s0.195,0.212,0.26,0.472
	c0.262,1.043,0.635,0.277,0.643-1.32c0.008-1.559,0.2-2.383,0.541-2.316c0.231,0.045,0.35,0.488,0.524,1.941
	c0.123,1.036,0.313,2.117,0.424,2.402c0.27,0.698,0.605,0.678,0.404-0.024c-0.086-0.298-0.215-1.466-0.286-2.593
	c-0.17-2.688-0.378-3.52-0.844-3.372c-0.315,0.1-2.399,0.47-2.661,0.473c-0.059,0.001-0.384,0.249-0.723,0.551
	s-0.855,0.648-1.149,0.771c-0.315,0.131-0.628,0.465-0.764,0.817c-0.126,0.328-0.562,1.279-0.966,2.113
	c-0.563,1.158-0.763,1.833-0.85,2.86c-0.179,2.133,0.12,2.325,0.523,0.337C-261.288,449.064-261.042,448.098-260.93,447.852
	L-260.93,447.852L-260.93,447.852z M-230.57,448.127c0-0.631,0.088-1.68,0.193-2.332c0.337-2.073-0.393-3.535-1.979-3.975
	c-0.89-0.245-2.055,0.143-1.87,0.624c0.09,0.236-0.039,0.294-0.662,0.294c-0.697,0-0.774,0.045-0.774,0.465
	c0,0.336-0.079,0.436-0.282,0.357c-0.217-0.084-0.283,0.039-0.283,0.525c0,0.349,0.078,0.905,0.172,1.236
	c0.166,0.578,0.138,0.625-0.741,1.189c-0.503,0.322-1.216,0.67-1.585,0.771c-0.594,0.164-1.221,0.815-1,1.037
	c0.045,0.045,0.965-0.365,2.043-0.912c2.128-1.079,2.053-0.967,1.793-2.643c-0.119-0.766-0.097-0.877,0.155-0.78
	c0.191,0.073,0.294,0.007,0.294-0.19c0-0.211,0.172-0.303,0.57-0.303c0.422,0,0.613-0.113,0.734-0.432
	c0.091-0.238,0.305-0.549,0.477-0.691c0.516-0.428,1.555,0.188,1.994,1.18c0.428,0.971,0.463,1.59,0.207,3.793
	c-0.209,1.807-0.192,1.933,0.252,1.933C-230.633,449.274-230.572,449.035-230.57,448.127L-230.57,448.127z M-223.596,444.233
	c0-0.231-0.312-0.224-0.766,0.02c-0.201,0.107-0.365,0.368-0.365,0.578c0,0.382,0.004,0.382,0.566-0.019
	C-223.85,444.59-223.596,444.33-223.596,444.233L-223.596,444.233z M-221.733,444.514c0.192-0.172-0.2-0.645-0.536-0.645
	c-0.285,0-0.383,0.123-0.383,0.484c0,0.414,0.061,0.465,0.424,0.354C-221.994,444.635-221.771,444.549-221.733,444.514z
	 M-227.877,442.772c0.271-0.977,0.429-1.194,1.441-1.99c0.776-0.609,1.189-1.085,1.301-1.496c0.09-0.331,0.135-0.637,0.1-0.679
	c-0.035-0.043-0.527,0.361-1.092,0.896c-0.566,0.534-1.123,0.972-1.238,0.972c-0.356,0-1.375,2.399-1.242,2.927
	C-228.422,444.141-228.207,443.955-227.877,442.772z M-260.358,440.73c0.399-0.361,0.981-0.689,1.292-0.729
	c0.311-0.04,0.821-0.204,1.132-0.365c0.312-0.161,0.677-0.297,0.812-0.301c0.226-0.006,1.083-1.068,1.589-1.971
	c0.117-0.209,0.303-1.156,0.414-2.107c0.111-0.951,0.427-2.456,0.705-3.344c0.277-0.889,0.459-1.731,0.404-1.873
	c-0.055-0.143-0.498-0.492-0.984-0.777l-0.885-0.52l-1.22,0.52c-0.84,0.356-1.522,0.832-2.194,1.527
	c-0.776,0.805-1.097,1.01-1.573,1.01c-1.053,0-1.195,0.141-1.195,1.174c0,0.79-0.097,1.056-0.589,1.616
	c-0.791,0.901-1.108,1.721-1.108,2.864c0,0.796,0.157,1.23,0.955,2.646C-261.729,442.008-261.763,441.999-260.358,440.73
	L-260.358,440.73z M-223.805,438.67c0.369-1.043,0.52-5.27,0.201-5.652c-0.393-0.475-0.566,0.053-0.438,1.337
	c0.073,0.738,0.007,1.657-0.191,2.612c-0.372,1.797-0.394,2.626-0.069,2.52C-224.173,439.443-223.949,439.076-223.805,438.67z
	 M-220.767,438.91c0-0.38,0.414-0.713,0.646-0.521c0.123,0.103,0.334,0.073,0.535-0.074c0.315-0.231,0.315-0.265-0.023-0.683
	c-0.344-0.424-0.372-0.428-0.849-0.115c-0.611,0.4-1.137,1.178-0.975,1.44C-221.259,439.238-220.767,439.203-220.767,438.91z
	 M-253.992,438.092c0.695-0.17,1.453-0.479,1.684-0.688c0.229-0.208,0.689-1.136,1.02-2.062c0.683-1.906,0.795-2.019,3.417-3.429
	c0.907-0.488,1.649-0.967,1.649-1.065c0-0.352-1.111-0.171-1.635,0.266c-0.293,0.245-0.915,0.615-1.382,0.824
	c-1.124,0.503-1.694,1.176-2.438,2.878c-0.938,2.146-1.144,2.367-2.434,2.621c-0.645,0.127-1.253,0.375-1.449,0.591
	c-0.312,0.344-0.312,0.372-0.017,0.372C-255.4,438.4-254.688,438.262-253.992,438.092L-253.992,438.092z M-220.805,432.603
	c0.465-0.66,0.667-1.306,0.45-1.439c-0.18-0.111-1.354,1.409-1.354,1.753C-221.709,433.307-221.168,433.119-220.805,432.603z
	 M-232.676,424.649c0.69-0.2,1.567-0.415,1.949-0.478c0.54-0.088,1.117-0.51,2.621-1.916c1.061-0.991,2.373-2.098,2.918-2.459
	c0.951-0.632,0.998-0.705,1.215-1.854c0.124-0.658,0.168-1.46,0.097-1.783c-0.118-0.539-0.185-0.583-0.81-0.534
	c-0.638,0.05-0.693,0.01-0.879-0.638c-0.199-0.694-2.842-3.909-3.224-3.922c-0.107-0.004-0.531,0.164-0.942,0.373l-0.746,0.381
	l-0.603-0.727c-0.509-0.612-0.726-0.73-1.388-0.756c-0.676-0.027-0.768,0.015-0.657,0.299c0.333,0.861,0.313,1.426-0.09,2.504
	c-0.234,0.626-0.571,1.217-0.749,1.312s-0.51,0.683-0.736,1.306c-0.463,1.271-1.42,2.564-3.172,4.291
	c-0.695,0.686-1.186,1.329-1.186,1.558c0,0.336,0.116,0.39,0.848,0.39c0.715,0,0.85,0.059,0.85,0.366
	c0,0.201,0.084,0.419,0.188,0.482s0.189,0.362,0.189,0.663c0,0.486,0.09,0.571,0.801,0.754c0.441,0.113,1.099,0.324,1.461,0.469
	c0.363,0.145,0.689,0.268,0.726,0.273C-233.959,425.009-233.365,424.85-232.676,424.649L-232.676,424.649z M-237.459,418.434
	c0.075-0.341,0.232-0.531,0.426-0.516c0.635,0.051,2.326-3.517,2.293-4.838l-0.02-0.795l-0.275,0.899
	c-0.15,0.495-0.342,0.858-0.423,0.808c-0.201-0.124-0.896,0.547-1.218,1.174c-0.606,1.187-1.445,3.521-1.354,3.764
	C-237.883,419.31-237.596,419.06-237.459,418.434L-237.459,418.434z M-220.768,414.029c0-0.715-0.783-2.129-0.896-1.616
	c-0.062,0.286,0.657,2.229,0.825,2.229C-220.799,414.643-220.768,414.367-220.768,414.029L-220.768,414.029z M-235.812,412.238
	c-0.104-0.311-0.505-0.301-0.77,0.018c-0.29,0.351-0.473,1.362-0.318,1.766c0.103,0.266,0.234,0.143,0.648-0.607
	C-235.966,412.896-235.768,412.367-235.812,412.238L-235.812,412.238z M-229.818,407.289c0-0.274-0.125-0.377-0.459-0.377
	c-0.254,0-0.514-0.086-0.577-0.189c-0.195-0.315-0.472-0.211-0.472,0.18c0,0.422,0.469,0.749,1.084,0.758
	C-229.941,407.664-229.818,407.556-229.818,407.289z M-228.597,406.527c-0.141-0.229-1.415-0.615-1.558-0.475
	c-0.205,0.205,0.251,0.749,0.731,0.871C-228.951,407.045-228.432,406.794-228.597,406.527z"/>
<path id="path3073" inkscape:connector-curvature="0" fill="#CCCCCC" d="M-266.021,489.002c-0.894-0.439-1.298-0.515-2.923-0.545
	c-1.519-0.027-2.271-0.152-3.865-0.641c-2.53-0.774-2.8-1.021-0.943-0.863c1.297,0.109,1.384,0.095,1.051-0.173
	c-0.493-0.397-1.464-0.556-2.585-0.423c-1.196,0.141-4.13-0.209-4.5-0.539c-0.442-0.393-1.28-0.662-3-0.965
	c-1.85-0.325-2.415-0.588-4.433-2.064c-1.525-1.115-1.686-1.539-0.32-0.842c0.418,0.213,0.807,0.388,0.863,0.388
	c0.218,0,0.086-0.881-0.192-1.278c-0.28-0.398-0.271-0.418,0.175-0.418c0.553,0,1.061-0.451,1.061-0.942
	c0-0.231,0.222-0.422,0.662-0.567c0.809-0.267,1.093-0.754,1.001-1.717c-0.039-0.404-0.044-0.734-0.011-0.734
	c0.032,0,0.263,0.135,0.513,0.299c0.414,0.271,0.625,0.27,2.384-0.01c1.061-0.169,2.445-0.487,3.075-0.709
	c0.939-0.329,1.534-0.396,3.313-0.373c2.323,0.031,3.068-0.07,2.618-0.355c-0.144-0.091-0.6-0.175-1.015-0.187
	c-0.415-0.013-0.935-0.077-1.155-0.145c-0.687-0.21-0.229-0.906,0.936-1.421c0.561-0.248,1.077-0.545,1.147-0.658
	c0.089-0.145,0.271-0.114,0.593,0.097c0.659,0.432,2.207,0.264,2.812-0.306c0.251-0.235,0.579-0.381,0.729-0.323
	c0.15,0.058,0.578-0.059,0.952-0.259c0.373-0.2,0.97-0.363,1.327-0.363c0.491,0,0.678-0.096,0.772-0.394
	c0.103-0.325,0.211-0.367,0.625-0.243c0.275,0.082,0.819,0.149,1.208,0.148c0.569-0.002,0.707,0.068,0.707,0.355
	c0,0.607-0.582,1.624-1.338,2.342c-0.542,0.514-0.753,0.888-0.845,1.5c-0.105,0.701-0.352,1.051-1.76,2.496
	c-1.2,1.23-1.959,1.836-2.842,2.264c-0.663,0.32-1.253,0.514-1.311,0.428c-0.154-0.227-2.289-0.789-2.994-0.789
	c-0.33,0-0.6,0.085-0.6,0.188c0,0.104,0.185,0.188,0.411,0.188s0.988,0.187,1.694,0.414c1.219,0.393,1.267,0.43,0.973,0.755
	c-0.17,0.188-0.261,0.392-0.2,0.452c0.272,0.271,5.541-3.23,6.369-4.234c0.312-0.377,0.714-1.152,0.893-1.722
	c0.241-0.767,0.584-1.292,1.32-2.023c0.815-0.81,0.974-1.07,0.879-1.446c-0.07-0.277,0.032-0.78,0.258-1.276
	c0.411-0.901,2.566-3.363,2.943-3.363c0.131,0,0.339-0.191,0.464-0.425c0.516-0.967,0.721-1.244,1.368-1.856
	c0.706-0.666,0.783-0.936,1.205-4.192c0.098-0.757,0.171-0.888,0.434-0.777c0.175,0.074,1.009,0.162,1.854,0.195
	c1.817,0.074,3.59,0.457,5.148,1.113c1.292,0.543,2.298,0.594,3.842,0.191c1.565-0.408,1.584-0.402,1.603,0.555
	c0.03,1.484,0.967,2.998,2.407,3.888c0.893,0.552,1.254,1.475,1.215,3.1c-0.041,1.673-0.281,2.755-0.873,3.932
	c-0.826,1.646-1.494,2.331-2.583,2.649c-2.159,0.629-4.843,3.016-5.853,5.204c-0.311,0.674-0.843,1.61-1.182,2.081
	c-0.338,0.47-0.674,1.085-0.744,1.366c-0.07,0.282-0.236,0.513-0.369,0.513s-0.746,0.337-1.363,0.749
	c-0.629,0.421-1.611,0.868-2.236,1.021c-0.613,0.15-1.81,0.566-2.659,0.926c-2.151,0.912-3.154,1.115-5.282,1.066
	c-1.017-0.023-2.061,0.014-2.32,0.083C-264.838,489.472-265.306,489.353-266.021,489.002L-266.021,489.002L-266.021,489.002z
	 M-250.789,480.779c0.407-1.062,0.892-2.336,1.076-2.828c0.186-0.492,0.447-0.896,0.582-0.896c0.361,0,0.484-0.297,0.348-0.84
	c-0.066-0.267-0.258-0.483-0.43-0.486c-0.17-0.003-0.453-0.116-0.631-0.25c-0.299-0.228-0.289-0.307,0.143-1.157
	c0.521-1.029,0.602-1.792,0.19-1.792c-0.149,0-0.325,0.087-0.392,0.193c-0.072,0.116-0.35,0-0.695-0.291
	c-0.65-0.548-0.905-0.53-1.213,0.081c-0.35,0.697-0.602,0.879-0.86,0.619c-0.365-0.364-0.798-0.272-2.743,0.584
	c-1.918,0.844-3.778,2.006-4.558,2.846c-0.604,0.649-0.353,0.862,0.379,0.322c0.936-0.693,0.806-0.354-0.303,0.792
	c-0.569,0.587-1.034,1.202-1.034,1.366c0,0.188,0.087,0.246,0.236,0.156c0.474-0.282,2.697-2.104,3.046-2.496
	c0.459-0.515,0.754-0.52,0.48-0.009c-0.277,0.518-0.103,0.661,0.479,0.396c0.388-0.177,0.472-0.165,0.472,0.064
	c0,0.512,0.582,0.285,0.857-0.334c0.336-0.759,2.091-2.725,2.271-2.545c0.072,0.072-0.244,0.578-0.703,1.125
	c-0.46,0.547-0.973,1.213-1.141,1.479c-0.289,0.457-0.284,0.498,0.078,0.724c0.327,0.205,0.465,0.182,0.924-0.158
	c0.523-0.388,0.538-0.389,0.494-0.029c-0.066,0.533,0.277,0.521,0.611-0.023c0.594-0.97,2.164-2.811,2.229-2.614
	c0.07,0.21-0.671,1.575-2.096,3.862l-0.812,1.303l0.41,0.441c0.272,0.295,0.379,0.598,0.318,0.912
	c-0.122,0.639,0.404,0.635,0.823-0.005c0.432-0.658,0.515-0.476,0.164,0.362c-0.281,0.673-0.247,1.059,0.095,1.059
	C-251.604,482.713-251.197,481.843-250.789,480.779L-250.789,480.779z M-266.389,481.245c1.084-0.444,2.183-0.972,2.442-1.174
	l0.471-0.368l-0.449-0.004c-0.247-0.002-0.713,0.156-1.037,0.352c-0.323,0.196-1.062,0.492-1.642,0.657
	c-1.058,0.302-2.057,0.923-2.057,1.279c0,0.104,0.067,0.163,0.15,0.128C-268.428,482.08-267.473,481.689-266.389,481.245
	L-266.389,481.245z M-275.873,481.462c0.233-0.062,0.424-0.259,0.424-0.437c0-0.258-0.3-0.368-1.504-0.553
	c-1.482-0.227-2.267-0.105-2.267,0.35C-279.22,481.426-277.187,481.814-275.873,481.462z M-273.516,478.062
	c0.374-0.229,0.104-0.63-0.424-0.63c-0.311,0-0.566,0.067-0.566,0.151c0,0.082-0.297,0.115-0.66,0.072
	c-0.5-0.058-0.66-0.006-0.66,0.211c0,0.158,0.106,0.334,0.236,0.391C-275.346,478.364-273.764,478.216-273.516,478.062z
	 M-242.074,466.873c0-0.551-0.077-0.754-0.289-0.754c-0.405,0-0.553,0.506-0.305,1.049
	C-242.354,467.859-242.074,467.721-242.074,466.873z M-243.339,466.467c0.452-0.242,0.304-0.644-0.216-0.584
	c-0.223,0.026-0.593,0.068-0.822,0.095c-0.291,0.032-0.492-0.104-0.659-0.447c-0.228-0.466-0.29-0.485-1.091-0.336
	c-0.467,0.087-0.977,0.11-1.132,0.05c-0.34-0.13-0.351-0.043-0.069,0.572c0.297,0.651,0.754,0.784,1.125,0.326
	c0.301-0.371,0.311-0.369,0.727,0.194c0.379,0.512,0.494,0.558,1.107,0.442C-243.992,466.709-243.528,466.568-243.339,466.467
	L-243.339,466.467z M-248.344,466.066c0.455-0.352,0.24-0.547-0.473-0.426c-0.553,0.093-0.977-0.002-1.933-0.434
	c-2.675-1.207-4.968-1.219-2.604-0.014c0.42,0.215,0.806,0.553,0.857,0.752c0.111,0.423,0.078,0.414,0.699,0.178
	c0.336-0.127,0.817-0.107,1.568,0.066C-249.15,466.438-248.793,466.415-248.344,466.066L-248.344,466.066z"/>
<path id="path3075" inkscape:connector-curvature="0" fill="#CCCCCC" d="M-288.505,480.753c-0.483-0.327-0.728-0.397-0.875-0.249
	c-0.148,0.147-0.334,0.083-0.668-0.23c-0.335-0.315-0.592-0.403-0.93-0.318c-0.434,0.108-0.495,0.032-0.863-1.076
	c-0.219-0.656-0.474-1.662-0.567-2.235c-0.111-0.683-0.495-1.61-1.112-2.686c-0.724-1.263-0.992-1.958-1.157-2.997
	c-0.22-1.39-0.598-2.984-0.847-3.57c-0.11-0.258-0.001-0.388,0.493-0.59c1.402-0.574,1.421-0.571,1.551,0.24
	c0.071,0.444,0.516,1.32,1.109,2.186c0.544,0.793,1.16,1.723,1.367,2.065c0.208,0.343,0.738,1.015,1.179,1.492
	s0.801,0.95,0.801,1.049s0.167,0.233,0.371,0.298c0.204,0.064,0.777,0.525,1.273,1.025c0.496,0.498,1.134,0.961,1.418,1.029
	c0.588,0.139,0.99,0.688,1.153,1.577c0.094,0.51,0.055,0.612-0.234,0.612c-0.495,0-1.278,0.668-1.413,1.205
	c-0.104,0.412-0.189,0.447-0.87,0.355c-0.656-0.088-0.755-0.053-0.755,0.263c0,0.2,0.101,0.465,0.223,0.587
	C-287.423,481.223-287.846,481.201-288.505,480.753L-288.505,480.753L-288.505,480.753z M-289.968,477.649
	c0-0.235-1.006-1.571-1.513-2.009c-0.4-0.346-0.426-0.348-0.311-0.031c0.07,0.19,0.126,0.424,0.126,0.518
	c0,0.096,0.307,0.513,0.682,0.928C-290.329,477.779-289.968,477.99-289.968,477.649z M-287.442,476.357
	c-0.184-0.135-0.413-0.244-0.508-0.244c-0.271,0,0.041,1.009,0.396,1.282c0.281,0.216,0.328,0.183,0.383-0.273
	C-287.13,476.787-287.226,476.516-287.442,476.357z M-291.138,474.014c0.071-0.592-0.943-1.791-1.054-1.245
	c-0.087,0.427,0.562,1.843,0.81,1.769C-291.278,474.506-291.168,474.271-291.138,474.014z M-293.551,469.396
	c0-0.152-0.196-0.261-0.471-0.261c-0.43,0-0.634,0.341-0.366,0.608C-294.199,469.934-293.551,469.664-293.551,469.396z"/>
</svg>
