<?xml version="1.0" encoding="utf-8"?>
<!-- Generator: Adobe Illustrator 15.1.0, SVG Export Plug-In . SVG Version: 6.00 Build 0)  -->
<!DOCTYPE svg PUBLIC "-//W3C//DTD SVG 1.1//EN" "http://www.w3.org/Graphics/SVG/1.1/DTD/svg11.dtd">
<svg version="1.1"
	 id="Your_Icon" xmlns:inkscape="http://www.inkscape.org/namespaces/inkscape" sodipodi:docname="pteranodon.svg" inkscape:version="0.48.2 r9819" xmlns:sodipodi="http://sodipodi.sourceforge.net/DTD/sodipodi-0.dtd" xmlns:svg="http://www.w3.org/2000/svg" xmlns:rdf="http://www.w3.org/1999/02/22-rdf-syntax-ns#" xmlns:cc="http://creativecommons.org/ns#" xmlns:dc="http://purl.org/dc/elements/1.1/"
	 xmlns="http://www.w3.org/2000/svg" xmlns:xlink="http://www.w3.org/1999/xlink" x="0px" y="0px" width="100px" height="100px"
	 viewBox="-305.5 396.5 100 100" enable-background="new -305.5 396.5 100 100" xml:space="preserve">
<sodipodi:namedview  borderopacity="1" objecttolerance="10" id="namedview5" inkscape:window-width="640" inkscape:zoom="2.36" bordercolor="#666666" pagecolor="#ffffff" gridtolerance="10" guidetolerance="10" inkscape:pageopacity="0" inkscape:pageshadow="2" inkscape:window-height="480" inkscape:cy="50" showgrid="false" inkscape:cx="50" inkscape:window-x="150" inkscape:window-y="1" inkscape:window-maximized="0" inkscape:current-layer="Your_Icon">
	</sodipodi:namedview>
<path id="path3" inkscape:connector-curvature="0" sodipodi:nodetypes="ccccccscccccccccccccccccccccscccccccc" d="
	M-224.989,434.965c0,0-5.28-1.84-7.646-3.114c-2.368-1.274-8.01-6.089-8.01-6.089s-8.555-6.893-7.463-23.177
	c0,0-7.103,12.132-5.281,22.327c0,0-1.637-1.843-1.818-2.834c0,0,4.369,10.34,4.369,14.729s-2.731,4.532-3.277,4.956
	c-0.547,0.426-23.063,2.232-26.521,1.81c0,0,0.425-1.034,6.855-2.398c3.031-0.644-6.163,0.196-5.421,0.124
	c0,0-12.048,2.447-15.872,4.431l-3.263,1.11l-1.273,0.951l7.122-1.075l2.392-0.124c0,0,3.577,1.403,10.314-1.004
	c0,0,26.032-0.141,29.125,1.274c3.096,1.416,5.462,7.645,5.644,11.47c0.182,3.822,0.729,11.754,2.911,13.028
	c0,0-0.183-1.419,0.729-2.407c0,0,13.293,18.225,22.032,23.465c0,0-14.933-22.898-2.916-44.424l6.371-0.142
	c0,0-1.15-0.083-1.877-0.62c0,0,2.896-0.457,4.104-0.403c0,0-2.48-0.911-3.618-1.153c0,0,0.104-0.855,1.861-0.885
	c0,0-2.103,0.375-3.588,0.375c-1.483,0-3.382,0.16-4.242-0.402c-0.863-0.564-5.002-6.062-1.14-7.994c0,0,4.486-0.807,6.074-0.216
	c0,0-0.619-0.804-1.277-0.885c0,0,2.79-0.511,3.689-0.43c0,0-2.619-1.046-3.621-0.938c0,0,1.07-0.669,1.482-1.233
	C-218.039,433.067-222.904,434.637-224.989,434.965z"/>
</svg>
