<?xml version="1.0" encoding="utf-8"?>
<!-- Generator: Adobe Illustrator 15.1.0, SVG Export Plug-In . SVG Version: 6.00 Build 0)  -->
<!DOCTYPE svg PUBLIC "-//W3C//DTD SVG 1.1//EN" "http://www.w3.org/Graphics/SVG/1.1/DTD/svg11.dtd">
<svg version="1.1" id="Layer_1" xmlns="http://www.w3.org/2000/svg" xmlns:xlink="http://www.w3.org/1999/xlink" x="0px" y="0px"
	 width="100px" height="100px" viewBox="-305.5 396.5 100 100" enable-background="new -305.5 396.5 100 100" xml:space="preserve">
<circle display="none" fill="#FF4400" cx="50" cy="50" r="48"/>
<circle display="none" fill="#FFFFFF" cx="50" cy="50" r="33"/>
<path id="taxa10000002" fill="#010101" d="M-246.372,474.146c-1.452-2.398-1.285-4.773,1.614-5.812
	c3.781-1.104-2.295-3.18-0.971-6.158c-0.6-2.378-4.533-2.221-6.008-4.628c-0.834,3.715-2.604,7.111-6.277,8.169
	c-1.875,0.13-3.84,2.144-4.06,3.06c-1.176-0.279,0.185-3.639,2.088-3.561c2.239-0.988,4.15-1.871,3.996-4.822
	c1.504-1.873,3.377-3.231,0.05-3.92c-3.239-2.096-5.112-5.434-5.267-9.028c-1.444,2.442,0.583,5.915-0.272,8.087
	c-0.174,2.83-3.119,8.529-6.236,3.916c-0.966-1.682-4.317-3.627-1.396-3.172c1.695,1.382,3.726,4.729,4.481,1.134
	c2.633-1.735,1.024-3.47,0.96-6.185c-0.19-1.516-3.721,3.847-6.084,1.933c-1.726-0.517-3.721-1.322-4.243-0.427
	c-0.366-2.309,3.717-1.516,5.218-0.137c-0.265-3.287,5.93-1.541,3.137-4.392c-0.593-2.267,0.476-6.065-1.734-5.922
	c0.068,0.411-3.446,0.213-2.279,2.606c-1.102,4.021-3.449,5.844-5.855,7.902c-2.865,2.204-6.613-1.312-8.662,0.674
	c-3.37,1.114-8.035,1.483-10.742-1.336c-2.948-1.854-5.558-4.23-6.987-7.477c-0.971-3.379,2.521,1.91,3.818,2.529
	c3.489,3.694,8.335-2.942,11.981,0.545c0.964,2.125,1.707,3.631,3.969,1.819c2.272,1.067,5.241-2.801,4.887,0.771
	c2.064-1.418,2.094-3.812,3.841-5.987c0.771-1.916,4.859-2.28,1.956-3.751c1.536-0.953,2.697-2.746,4.566-1.07
	c-0.073-2.917,4.008-2.816,0.754-5.031c-0.806-1.1,0.775-1.039-0.608-2.232c2.101-0.871,2.202-4.824,4.121-7.038
	c-0.685-0.133,2.691-3.306-0.182-2.765c-0.957,0.103-0.836-3.504-2.496-4.545c-0.025-1.899,1.254-4.176-1.626-2.766
	c-3.809,0.795-4.822-4.329-5.138-7.092c-0.787-3.341-5.325-3.646-8.059-4.487c2.214-2.44,8.158,1.824,8.332-0.12
	c-1.574-1.871-6.784-0.711-6.823-2.132c4.495-0.649,8.939,1.097,12.311,4.023c2.859,2.265,4.055,6.866,3.695,10.084
	c3.202,1.159,4.72,5.353,4.181,8.519c-0.314,2.115-1.57,5.258-3.538,7.221c-2.446,0.953,0.362,2.463-0.692,3.289
	c2.938,1.396,5.241-2.461,8.212-3.136c-0.207-1.876,0.696-3.739,1.562-5.005c-1.509-1.292-4.934-4.969-2.773-6.265
	c-0.776,3.491,5.695,4.915,3.991,8.491c-0.447,2.631-2.162,5.039-4.635,5.941c-2.58,0.036-2.742,2.793-0.664,1.398
	c2.068-1.982,5.407-2.449,8.411-2.092c1.601-0.224,1.317-4.785,3.603-4.815c-1.99-1.575-4.627-2.978-5.586-5.491
	c1.291-0.095,2.979,2.785,5.258,3.614c4.002,1.524,0.272,6.864-1.978,7.792c-2.021,2.627-6.726-0.197-8.239,2.23
	c2.605,0.181,5.144-0.971,7.292-0.262c3.237-0.176,6.598,4.715,8.188,0.164c1.326-1.925,5.148-0.99,2.521-3.787
	c-0.646-1.461-2.369-7.129-0.355-5.957c-0.738,2.772,3.103,5.442,2.756,8.809c-1.184,2.617-4.749,4.652-7.314,5.055
	c2.68,0.495,4.911,3.385,6.61,4.18c1.694-1.976,4.687-2.394,6.476-2.382c-0.287-3.167-0.473-7.905,3.955-7.427
	c2.949,0.021-2.246,1.018-2.305,1.865c-0.417,2.979,0.917,7.525-2.889,8.604c-3.883,1.94-8.237,1.328-11.409-1.63
	c-1.024-1.352-5.06-2.848-2.245-0.352c2.73,2.674,5.496,4.928,7.423,8.271c0.317,2.299,0.731,3.125,3.056,4.318
	c1.117,1.205,3.842,2.432,4.845,3.967c3.413,1.232,4.553,4.367,7.569,6.236c1.369,2.746,2.031,6.591,0.901,10.016
	c-0.877,2.154-0.993,3.423-1.601,6.086c-2.021,2.625-6.512,1.907-7.875-0.857c-1.5,0.238-1.826,2.168-0.807-0.361
	c2.129-1.379,6.747-1.107,7.605-2.272c-0.084-3.065-0.407-7.454,0.261-10.087c-2.678-1.287-3.114-4.693-6.261-4.756
	c-0.617-3.505-4.449-1.502-5.336-5.007c-2.827-1.343-5.488-2.048-8.799-1.95c-2.765-1.463-5.988-1.723-8.594-3.945
	c0.485,2.94,5.877,3.709,7.459,6.653c1.449,2.321,4.744,6.647,1.353,8.501c-2.097,1.362-4.576,2.344-2.485,5.093
	C-246.335,473.16-245.812,473.402-246.372,474.146z M-264.016,445.994c0.399,3.411,1.699-2.156-0.638-1.318l0.302,0.663
	L-264.016,445.994L-264.016,445.994z M-261.433,454.787l-0.068,0.102L-261.433,454.787L-261.433,454.787z M-258.192,450.593
	c0.757,0.857,2.098,3.028,1.448,0.292C-257.27,450.939-258.689,448.909-258.192,450.593z M-250.324,439.645
	c2.484,0.414,1.872-1.694-0.01-0.711C-251.523,438.402-251.256,439.475-250.324,439.645z"/>
</svg>
