<?xml version="1.0" encoding="utf-8"?>
<!-- Generator: Adobe Illustrator 15.1.0, SVG Export Plug-In . SVG Version: 6.00 Build 0)  -->
<!DOCTYPE svg PUBLIC "-//W3C//DTD SVG 1.1//EN" "http://www.w3.org/Graphics/SVG/1.1/DTD/svg11.dtd">
<svg version="1.1" id="Layer_1" xmlns="http://www.w3.org/2000/svg" xmlns:xlink="http://www.w3.org/1999/xlink" x="0px" y="0px"
	 width="100px" height="100px" viewBox="-305.5 396.5 100 100" enable-background="new -305.5 396.5 100 100" xml:space="preserve">
<path d="M-258.698,474.32c1.219-1.052,2.479-2.056,3.642-3.164c0.756-0.722,1.585-1.489,2.003-2.41
	c0.66-1.46,0.666-3.309,2.951-3.627c-5.042-1.424-9.199-4.03-13.102-7.081c-1.146-0.896-2.278-1.203-3.691-0.83
	c-1.223,0.321-2.492,0.466-3.889,0.713c0-0.751,0-1.396,0-2.075c-1.355,0.206-2.66,0.403-4.094,0.621
	c0.351-1.61,0.626-2.865,0.935-4.278c0.425-0.037,1.019-0.089,2.167-0.187c-4.051-2.143-6.954-5.456-11.597-5.193
	c-0.714,0.043-1.471-0.688-2.208-1.063c0.423-0.553,0.846-1.105,1.514-1.979c-0.419-0.362-0.923-0.972-1.567-1.323
	c-2.563-1.405-5.347-1.437-8.171-1.184c-2.848,0.255-5.698,0.505-8.553,0.648c-0.63,0.03-1.284-0.396-1.926-0.612
	c0.232-0.615,0.354-1.306,0.714-1.834c1.327-1.938,2.614-3.958,5.495-4.232c-1.809-6.193-3.538-12.116-5.386-18.445
	c0.964,0.277,1.622,0.273,1.974,0.6c2.122,1.971,4.429,3.818,6.186,6.085c2.131,2.75,3.707,5.924,5.654,8.826
	c2.125,3.168,5.098,5.244,8.762,6.374c2.476,0.765,2.772,0.673,3.623-2.074c1.003,0.641,2.136,1.061,2.827,1.858
	c1.803,2.087,4.181,2.645,6.706,3.169c4.191,0.871,8.341,1.941,12.215,2.862c0.394-1.445,0.517-2.918,1.174-4.091
	c1.226-2.188,1.135-4.316,0.528-6.602c-0.168-0.629,0.068-1.368,0.121-2.057c0.633,0.349,1.502,0.537,1.857,1.069
	c2.284,3.415,4.766,6.754,6.572,10.416c1.646,3.338,3.701,5.558,7.298,6.894c7.071,2.626,14.233,5.186,20.583,9.399
	c3.539,2.353,6.924,4.94,10.336,7.479c1.014,0.754,0.723,1.898-0.811,2.346c-2.91,0.847-5.893,1.451-8.854,2.108
	c-7.72,1.711-14.886-1.188-22.229-2.649c-1.033-0.205-2.281-0.181-3.233,0.213c-4.212,1.739-8.331,3.706-12.536,5.462
	c-1.115,0.466-2.42,0.474-3.638,0.689C-258.462,474.882-258.581,474.602-258.698,474.32z"/>
</svg>
