<?xml version="1.0" encoding="utf-8"?>
<!-- Generator: Adobe Illustrator 15.1.0, SVG Export Plug-In . SVG Version: 6.00 Build 0)  -->
<!DOCTYPE svg PUBLIC "-//W3C//DTD SVG 1.1//EN" "http://www.w3.org/Graphics/SVG/1.1/DTD/svg11.dtd">
<svg version="1.1" id="Layer_1" xmlns="http://www.w3.org/2000/svg" xmlns:xlink="http://www.w3.org/1999/xlink" x="0px" y="0px"
	 width="100px" height="100px" viewBox="-305.5 396.5 100 100" enable-background="new -305.5 396.5 100 100" xml:space="preserve">
<circle display="none" fill="#00BF4D" cx="50" cy="49" r="48"/>
<circle display="none" fill="#FFFFFF" cx="50" cy="49" r="33"/>
<path id="taxa165" fill="#010101" d="M-267.771,396.854c0,0-1.948,12.653-1.624,14.602c0,0-0.649,0.648,0,3.244
	c0.973,2.597,3.246,8.436,3.246,9.085s0,0.973,0.324,1.622c0.325,0.648,0,2.271,0.325,2.92c0.326,0.973,2.921,6.49,4.219,6.814
	c0,0,0.649,2.594,1.298,2.92c0,0-1.298,0-1.622-0.326c-0.324-0.325-5.516-4.543-6.489-5.191c-0.973-0.648-7.463-0.973-10.058-0.326
	c0,0-8.112,5.192-8.112,7.787c0,0,0.326,0.325,0.649,0c0.324-0.326,6.165-5.841,7.463-6.165c0.973,0,5.839,0,7.787-0.649
	c0,0,6.165,5.191,7.787,5.84h0.324v0.326c0,0,1.948,0.324,2.271,0.324c0.323,0,0.973,0.649,0.973,0.649s-3.569,2.595-3.569,3.244
	c0,0-2.921,4.218-5.192,5.841c0,0-0.326,0.648-0.326,1.299h-0.649v0.648l-0.649,0.326c0,0-1.946,3.244-2.595,3.893
	c-0.326,0.65-3.245,3.57-3.57,3.895c0,0.324-0.326,1.297-0.649,1.621c-0.325,0-8.436,4.543-9.083,4.543c0,0,0,1.299,0.649,0.973
	c0.973-0.325,8.11-3.893,8.436-4.543c0.649-0.321,1.298-0.647,1.624-0.973c0.324-0.324,2.595-2.92,3.894-4.865
	c1.298-1.623,2.271-3.895,3.246-4.219c0.649-0.326,5.516-6.166,6.165-7.139c0,0-0.649,4.543-1.298,5.842
	c-0.325,1.621-2.92,6.812-3.57,7.785c-0.649,0.975-2.271,5.193-2.92,7.139c-0.649,1.947-3.569,9.734-3.569,10.707
	c0,0-4.217,11.68-6.165,13.629c0,0,0.326,0.974,0.649,0.324c0.323-0.648,2.595-2.596,6.165-12.652c0,0,1.948-3.244,2.271-5.19
	c0.324-1.623,2.595-7.787,2.92-8.438c0.325-0.973,2.271-4.541,2.271-5.19c0.325-0.647,4.217-2.597,4.217-10.707
	c0-0.326,0.649-2.271,1.298-2.595c0,0,0,3.569,0.973,3.244c0.973,0,0.649,0,0.973-0.324l1.298-0.326l0.649,0.973h0.974l0.324-1.622
	l0.326-2.271c0,0,1.622,1.947,1.622,2.92s1.622,9.734,3.569,11.68c0,0,0.973,1.623,0.973,2.271c0,0.649,1.299,15.899,1.623,16.547
	c0,0.65,0.648,1.299,0.648,1.299l-0.325,0.648c0,0-0.974,13.951-1.298,14.602c0,0.973,0.322,0.973,0.647,0.326
	c0-0.65,0.974-1.299,1.623-14.926c0,0,0.324-0.648,0.647-1.299c0-0.324-2.271-12.652-1.299-17.521l-0.647-1.947
	c0,0-3.569-6.812-3.894-8.76c-0.325-2.271-1.299-5.841-2.271-7.138c0,0,2.596,2.92,8.109,8.437c5.191,5.517,7.139,8.437,7.464,9.086
	c0.649,0.648,1.299,1.298,1.299,1.298l5.19,9.086c0,0,0.649,0,0.649-0.648c-0.325-0.65-4.866-8.438-4.866-8.76
	c0-0.324,0-0.65-0.324-1.299c-0.649-0.648-2.922-3.894-3.569-4.543c-0.326-0.648-2.271-3.57-3.57-4.543
	c-1.299-1.298-4.543-3.894-5.19-4.543c-0.649-0.973-2.922-5.19-3.57-5.515c-0.325,0-2.596-0.326-2.596-0.326l0.324-0.973
	c0,0,2.596-0.649,4.219-0.324c1.623,0,5.191-0.649,6.166-1.298c0.973-0.649,7.463,0,8.436,0.324
	c0.973,0.649,7.139,4.543,7.787,6.166c0,0,1.298,0.324,0.648-0.974c-0.325-0.973-6.49-5.192-7.137-6.165
	c-0.975-0.973-0.65-0.973-1.949-0.973c-1.621-0.326-6.489-0.648-7.463-0.326c-0.974,0.648-5.841,1.948-7.463,1.299
	c0,0,0.649-0.973,0.973-3.244c0,0,6.166-7.138,6.813-9.734c0.326-2.92,0.974-6.165,0.974-7.137c0.326-0.649,3.244-7.139,3.244-8.111
	c-0.324-1.299-0.974-2.598-0.974-2.92c0,0-3.569-10.059-4.542-10.708c0,0-0.322,1.948,0.325,2.92
	c0.973,1.299,3.243,8.11,3.243,9.084c0,0-0.973,1.624-0.973,2.271c0,0.974-0.648,2.598-1.621,8.76c0,0-0.975,2.271-0.975,3.244
	c0,0-1.298,1.948-1.298,2.92c0,0-2.921,6.166-3.569,5.517c0,0-0.648-8.437-6.814-8.437c0,0-7.136-0.648-7.136,10.059
	c0,0-1.622-4.219-1.622-5.842c0-1.621-0.971-1.627-0.971-2.275c-0.326-0.648-3.57-10.708-3.57-12.004c0,0-0.973-8.76,0.325-12.004
	c0,0,0.649-3.245,0.649-3.57C-266.798,396.53-267.446,396.205-267.771,396.854z"/>
</svg>
