<?xml version="1.0" encoding="utf-8"?>
<!-- Generator: Adobe Illustrator 15.1.0, SVG Export Plug-In . SVG Version: 6.00 Build 0)  -->
<!DOCTYPE svg PUBLIC "-//W3C//DTD SVG 1.1//EN" "http://www.w3.org/Graphics/SVG/1.1/DTD/svg11.dtd">
<svg version="1.1"
	 id="svg2" xmlns:inkscape="http://www.inkscape.org/namespaces/inkscape" sodipodi:docname="spinosaurus.svg" inkscape:version="0.48.2 r9819" xmlns:sodipodi="http://sodipodi.sourceforge.net/DTD/sodipodi-0.dtd" xmlns:svg="http://www.w3.org/2000/svg" xmlns:sketch="http://www.bohemiancoding.com/sketch/ns" xmlns:rdf="http://www.w3.org/1999/02/22-rdf-syntax-ns#" xmlns:cc="http://creativecommons.org/ns#" xmlns:dc="http://purl.org/dc/elements/1.1/"
	 xmlns="http://www.w3.org/2000/svg" xmlns:xlink="http://www.w3.org/1999/xlink" x="0px" y="0px" width="100px" height="100px"
	 viewBox="-305.5 396.5 100 100" enable-background="new -305.5 396.5 100 100" xml:space="preserve">
<sodipodi:namedview  borderopacity="1" objecttolerance="10" id="namedview57" inkscape:window-width="862" inkscape:zoom="2.7196415" bordercolor="#666666" pagecolor="#ffffff" gridtolerance="10" guidetolerance="10" inkscape:pageopacity="0" inkscape:pageshadow="2" inkscape:window-height="737" inkscape:cy="21.5" showgrid="false" inkscape:cx="45.499999" inkscape:window-x="115" inkscape:window-y="68" inkscape:window-maximized="0" inkscape:current-layer="svg2">
	</sodipodi:namedview>
<title  id="title4">spinosaurus</title>
<desc  id="desc6">Created with Sketch.</desc>
<g id="Page-1" transform="translate(4.0446508,27.216662)" sketch:type="MSPage">
	<g id="spinosaurus" transform="translate(1,0)" sketch:type="MSLayerGroup">
		<path id="Fill-1" sketch:type="MSShapeGroup" inkscape:connector-curvature="0" d="M-240.808,403.893
			c0.075,0.5-0.117,0.725-0.104,1.158c0.179,0.406,0.372-0.176,0.827,0.105c-0.135,0.454,0.213,0.415,0.413,0.527
			c0.013,0.456,0.097,0.729,0,0.947c0.142,0.366,0.425,0.188,0.62,0.316c-0.021,0.175-0.768,0.423-0.724,0
			c-0.278,0.908-0.784,1.588-1.653,1.896c0.002,0.423-0.266,1.028,0,1.579c-1.191,1.805-2.323,3.67-4.237,4.738
			c0.02-0.444,0.532-0.475,0.827-0.736c0.754-0.673,1.789-2.148,2.48-3.16c0.352-0.515,0.752-1.59,0.619-2.842
			c1.313,0.021,1.608-1.148,1.758-2.527c-0.303-0.024-0.705,0.754-0.621,1.474c-0.87,0.341-1.697,0.727-2.066,1.579
			c-0.027,0.379,0.191,0.508,0.207,0.844c-0.324,1.032-0.69,1.541-1.861,2.315c-0.705,0.468-1.324,0.882-2.17,1.264
			c-1.311,0.595-3.916,0.664-5.787,0.422c-1.455-0.188-2.927-0.958-4.341-1.159c-0.769-0.609-1.595-0.879-2.273-1.369
			c-0.381-0.93-1.416-1.688-1.343-2.736c0.934,0.016,0.34,0.941,0.827,1.368c0.33-0.19,0.425-0.62,0.517-1.053
			c0.646-0.725,1.287-1.497,2.067-2.212c1.189-1.09,3.167-2.148,5.063-2.633c0.79-0.201,1.756-0.274,2.687-0.525
			c1.221-0.33,2.44-0.729,3.411-0.633c0.645,0.063,1.146,0.529,1.86,0.737c0.207,0.061,0.511-0.034,0.723,0
			C-242.459,403.678-241.734,404.166-240.808,403.893L-240.808,403.893z M-247.113,403.893c-1.069-0.51-1.64,0.24-2.688,0.527
			c-0.352,0.096-0.762,0.036-1.137,0.105c-1.695,0.311-3.19,1.24-4.341,1.685c-1.255,1.249-2.794,2.209-3.308,4.212
			c0.49,0.686,1.32,0.722,2.068,1.053c0.777,0.346,1.465,0.9,2.273,1.158c0.533,0.171,1.193,0.334,1.756,0.422
			c0.448,0.07,0.963-0.078,1.447,0c1.008,0.164,1.977,0.303,2.79,0c0.109-0.04,0.109-0.193,0.207-0.211
			c0.135-0.022,0.196,0.176,0.413,0.105c0.309-0.098,0.604-0.386,0.93-0.526c0.996-0.429,1.254-0.562,1.965-1.159
			c0.635-0.533,1.041-0.991,1.446-1.578c-0.433-1.582,0.476-2.462,1.964-2.844c0.518-0.985-0.545-1.3-0.311-2.212
			C-243.768,404.738-245.451,402.964-247.113,403.893L-247.113,403.893z"/>
		<path id="Fill-2" sketch:type="MSShapeGroup" inkscape:connector-curvature="0" d="M-229.854,404.315
			c0.375,0.109,0.622,0.35,0.931,0.526c-0.013,0.304,0.056,0.689-0.104,0.843c-0.227-0.016-0.223-0.266-0.207-0.527
			C-229.381,404.815-229.922,404.875-229.854,404.315"/>
		<path id="Fill-3" sketch:type="MSShapeGroup" inkscape:connector-curvature="0" d="M-229.647,405.156
			c0.352,0.063,0.224,0.615,0.31,0.948c0.03,0.404,0.574,0.681,0.311,1.054c-0.424-0.025-0.465-0.439-0.517-0.843
			c-0.105,0.067-0.107,0.242-0.311,0.21C-229.794,405.912-229.883,405.363-229.647,405.156"/>
		<path id="Fill-4" sketch:type="MSShapeGroup" inkscape:connector-curvature="0" d="M-300.029,409.369
			c0.039,0.319-0.336,0.219-0.516,0.316c0.201,0.235,0.055,0.756-0.31,0.736c0.119,0.125,0.117,0.373,0.103,0.633
			c0.306-0.074,0.45-0.314,0.93-0.211c-0.103,0.527-0.876,0.371-1.137,0.736c-0.206-0.247-0.547-0.355-0.724-0.631
			C-301.538,410.076-300.807,409.244-300.029,409.369"/>
		<path id="Fill-5" sketch:type="MSShapeGroup" inkscape:connector-curvature="0" d="M-289.176,413.687
			c-0.157,0.331-0.753,0.216-1.137,0.315C-290.197,413.481-289.534,413.431-289.176,413.687"/>
		<path id="Fill-6" sketch:type="MSShapeGroup" inkscape:connector-curvature="0" d="M-284.009,415.056
			c-0.428-0.247-0.896,0.245-1.447,0.21C-285.249,414.982-283.996,414.254-284.009,415.056"/>
		<path id="Fill-7" sketch:type="MSShapeGroup" inkscape:connector-curvature="0" d="M-264.889,414.95
			c-0.113,0.589-1.077,0.116-1.343,0.21v-0.314C-265.939,414.676-265.399,415.005-264.889,414.95"/>
		<path id="Fill-8" sketch:type="MSShapeGroup" inkscape:connector-curvature="0" d="M-292.278,414.95
			c0.769,0.316,1.547,0.015,1.758,0.737C-291.371,415.736-292.6,415.766-292.278,414.95"/>
		<path id="Fill-9" sketch:type="MSShapeGroup" inkscape:connector-curvature="0" d="M-261.169,415.266h0.723
			c0.085,0.299-0.146,0.273-0.103,0.527c-0.123-0.121-0.365-0.119-0.62-0.105V415.266"/>
		<path id="Fill-10" sketch:type="MSShapeGroup" inkscape:connector-curvature="0" d="M-288.143,415.371
			c0.395,0.477,0.847-0.162,1.55,0c0.092,0.551-0.782,0.116-0.724,0.632c-0.381-0.068-0.813-0.084-1.034-0.315
			C-288.283,415.58-288.113,415.578-288.143,415.371"/>
		<path id="Fill-11" sketch:type="MSShapeGroup" inkscape:connector-curvature="0" d="M-289.59,415.793
			c0.1,0.003,0.08,0.129,0.103,0.21c0.185,0.015,0.218-0.128,0.413-0.104c0.192,0.477-0.371,0.183-0.413,0.421
			C-289.75,416.309-289.731,415.927-289.59,415.793"/>
		<path id="Fill-12" sketch:type="MSShapeGroup" inkscape:connector-curvature="0" d="M-287.213,416.425
			c-0.133,0.286-0.308,0.529-0.724,0.526C-287.938,416.527-287.603,416.447-287.213,416.425"/>
		<path id="Fill-13" sketch:type="MSShapeGroup" inkscape:connector-curvature="0" d="M-230.371,417.057
			c-0.117,0.352-1.264,0.5-1.86,0.526c-0.232,0.01-0.128-0.196-0.207-0.211c-0.444-0.081-0.952,0.316-1.343,0.316
			c0.6,0.405,1.159,0.854,1.859,1.158c-0.149,0.269-0.041,0.8-0.619,0.632c-0.15-0.398,0.283-0.202,0.206-0.526
			c-0.276-0.376-0.47,0.216-0.827,0.104c-0.046-1.012-0.965-1.056-1.963-1.053c0.65-0.847,2.277-0.697,3.41-1.053
			c0.176-0.039,0.195,0.082,0.207,0.211C-231.017,417.239-230.797,417.043-230.371,417.057"/>
		<path id="Fill-14" sketch:type="MSShapeGroup" inkscape:connector-curvature="0" d="M-252.592,417.583
			c-0.471-0.06-0.644,0.187-1.137,0.105c-0.001-0.21-0.281-0.134-0.206-0.421C-253.544,417.205-252.801,417.041-252.592,417.583"/>
		<path id="Fill-15" sketch:type="MSShapeGroup" inkscape:connector-curvature="0" d="M-235.539,417.793
			c-0.15,0.338-0.705,0.265-0.93,0.527c-0.238,0.031-0.115-0.305-0.311-0.316C-236.444,417.436-236.199,417.748-235.539,417.793"/>
		<path id="Fill-16" sketch:type="MSShapeGroup" inkscape:connector-curvature="0" d="M-248.147,418.004
			c-0.054,0.085-0.107,0.171-0.104,0.316c-0.503-0.205-1.267,0.328-1.446-0.316C-249.338,417.962-248.508,417.705-248.147,418.004"
			/>
		<path id="Fill-17" sketch:type="MSShapeGroup" inkscape:connector-curvature="0" d="M-236.261,425.586
			c-0.699,0.421-1.953,0.806-2.688,0.843C-238.182,426.016-237.341,425.68-236.261,425.586"/>
		<path id="Fill-18" sketch:type="MSShapeGroup" inkscape:connector-curvature="0" d="M-228.511,426.639
			c-0.178,0.559-1.113,0.535-1.652,0.422C-229.847,426.576-229.009,426.371-228.511,426.639"/>
		<path id="Fill-19" sketch:type="MSShapeGroup" inkscape:connector-curvature="0" d="M-238.536,427.272
			c0.137,0.264-0.408,0.329-0.103,0.421c-0.11,0.239-0.65,0.04-0.931,0.105c0.017-0.122-0.022-0.188-0.104-0.211
			C-239.444,427.294-238.905,427.115-238.536,427.272"/>
		<path id="Fill-20" sketch:type="MSShapeGroup" inkscape:connector-curvature="0" d="M-252.384,428.324
			c0.334,0.08,0.541,0.291,0.62,0.632c-0.122,0.121-0.366,0.119-0.62,0.105V428.324"/>
		<path id="Fill-21" sketch:type="MSShapeGroup" inkscape:connector-curvature="0" d="M-249.491,430.957
			c-0.36,0.396-1.224-0.125-1.964,0c-0.311-0.176-0.404-0.57-0.619-0.843c-0.845-0.345-2.246-0.842-2.997-0.632
			c-0.215-0.059-0.22-0.164-0.104-0.316c1.493-0.03,3.214,0.144,3.823,1.475C-250.992,430.621-249.705,430.484-249.491,430.957"/>
		<path id="Fill-22" sketch:type="MSShapeGroup" inkscape:connector-curvature="0" d="M-266.957,431.168
			c0.197,0.045,0.26,0.227,0.517,0.21c-0.083,0.232-0.208,0.421-0.517,0.421V431.168"/>
		<path id="Fill-23" sketch:type="MSShapeGroup" inkscape:connector-curvature="0" d="M-270.263,431.904
			c-0.472-0.094-0.586,0.176-0.93,0.211C-271.284,431.537-270.321,431.469-270.263,431.904"/>
		<path id="Fill-24" sketch:type="MSShapeGroup" inkscape:connector-curvature="0" d="M-268.3,432.746
			c-0.15,0.479-0.602,0.651-0.827,1.055c-0.392-0.407,0.302-0.601,0.414-0.843c-0.413-0.346-0.789,0.245-1.343,0.104
			c-0.042-0.253,0.188-0.229,0.104-0.525c0.275,0.417,0.34-0.215,0.517,0.209C-269.164,432.418-268.513,432.369-268.3,432.746"/>
		<path id="Fill-25" sketch:type="MSShapeGroup" inkscape:connector-curvature="0" d="M-274.191,432.746
			c-0.365,0.229-1.315,0.293-1.86,0.633C-275.862,432.706-274.699,432.469-274.191,432.746"/>
		<path id="Fill-26" sketch:type="MSShapeGroup" inkscape:connector-curvature="0" d="M-286.076,432.642
			c0.136,0.037,0.162,0.186,0.31,0.211c-0.682,0.207-0.289,1.229-0.827,1.369C-286.719,433.725-286.364,433.042-286.076,432.642"/>
		<path id="Fill-27" sketch:type="MSShapeGroup" inkscape:connector-curvature="0" d="M-284.629,432.642
			c0.213,0.063,0.392,0.163,0.31,0.526c-0.18,0.098-0.555-0.003-0.517,0.316c-0.263-0.013-0.401-0.154-0.414-0.422
			C-285.029,432.937-284.686,432.935-284.629,432.642"/>
		<path id="Fill-28" sketch:type="MSShapeGroup" inkscape:connector-curvature="0" d="M-281.735,432.958
			c0.104,0.36-0.776,0.25-0.827,0.104C-282.667,432.702-281.786,432.813-281.735,432.958"/>
		<path id="Fill-29" sketch:type="MSShapeGroup" inkscape:connector-curvature="0" d="M-279.048,433.905
			c-0.033,0.372-0.619,0.557-0.93,0.316C-279.799,433.848-279.458,433.803-279.048,433.905"/>
		<path id="Fill-30" sketch:type="MSShapeGroup" inkscape:connector-curvature="0" d="M-285.869,434.326
			c0.347-0.072,0.378,0.177,0.414,0.422c-0.316-0.076-0.377,0.107-0.62,0.105C-286.226,434.455-285.792,434.651-285.869,434.326"/>
		<path id="Fill-31" sketch:type="MSShapeGroup" inkscape:connector-curvature="0" d="M-260.756,434.537
			c-0.249,0.396-0.904,0.24-1.343,0.316c-0.257,0.044-0.504,0.305-0.724,0.104C-262.467,434.344-261.274,434.744-260.756,434.537"/>
		<path id="Fill-32" sketch:type="MSShapeGroup" inkscape:connector-curvature="0" d="M-241.74,434.643
			c0.053,0.439-0.262,0.506-0.619,0.526c-0.338,0.253-0.457,0.728-0.931,0.843C-243.186,434.751-242.599,434.822-241.74,434.643"/>
		<path id="Fill-33" sketch:type="MSShapeGroup" inkscape:connector-curvature="0" d="M-265.613,435.065
			c-0.171,0.352-0.367,0.678-0.93,0.631C-266.492,435.221-266.123,435.07-265.613,435.065"/>
		<path id="Fill-34" sketch:type="MSShapeGroup" inkscape:connector-curvature="0" d="M-283.595,435.169
			c-0.215,0.407,0.154,0.172,0.103,0.632C-284.145,435.955-284.077,435.165-283.595,435.169"/>
		<path id="Fill-35" sketch:type="MSShapeGroup" inkscape:connector-curvature="0" d="M-236.261,435.695
			c0.018,0.453-0.887,0.363-1.137,0.211v-0.316C-236.867,435.379-236.728,435.658-236.261,435.695"/>
		<path id="Fill-36" sketch:type="MSShapeGroup" inkscape:connector-curvature="0" d="M-275.431,437.486
			c-0.052-0.439,0.262-0.506,0.62-0.527c0.333,0.404-0.165,0.783-0.31,0.737C-275.373,437.498-274.919,437.315-275.431,437.486"/>
		<path id="Fill-37" sketch:type="MSShapeGroup" inkscape:connector-curvature="0" d="M-272.227,429.904
			c0.799-0.1,0.722-1.09,1.344-1.369c0.114-0.445,0.256-0.862,0.62-1.054c0.568,0.019,0.566,0.617,0.62,1.159
			c0.622-0.279,0.62-1.193,1.137-1.58c0.722,0.438,0.421,1.529,0.517,2.422c0.438-0.255,0.648-0.743,1.137-0.947
			c0.43-0.672,0.602-1.881,1.55-2.106c0.055,0.911,0.131,1.431-0.103,2.422c1.366-0.053,1.486-2.272,2.48-3.054
			c0.255,0.65,0.249,1.525,0.31,2.105c1.08-0.191,1.457-1.664,1.964-2.316c0.042-0.055,0.455,0.002,0.207-0.211
			c0.11-0.238,0.649-0.039,0.93-0.105c0.201,0.666-0.361,1.075-0.518,1.686c0.094,0.187,0.251,0.308,0.311,0.526
			c1.32-0.433,1.396-2.377,2.273-2.948c0.373,0.287,0.507,0.818,0.518,1.475c0.953-0.342,0.734-1.9,1.24-2.423
			c0.697,0.458,0.68,1.185,1.033,2.106c0.601-0.229,1.4-0.334,2.273-0.526c0.683-0.149,1.321-0.472,1.964-0.632
			c0.523-0.131,0.808-0.127,1.239-0.316c0.404-0.176,0.994-0.291,1.448-0.525c0.557-0.29,2.281-0.4,2.79-1.159
			c0.371,0.096,0.879-0.09,1.344-0.21c0.515-0.135,1.232-0.164,1.344-0.633c0.115,0.273,0.787,0.086,1.239,0
			c1.188-0.227,2.63-0.436,4.444-0.315c-1.228-0.435-2.854-0.462-3.514-1.474c-1.398,0.125-2.141-0.416-2.895-0.948
			c-1.117,0.136-2.711,0.183-4.133,0.421c-0.783,0.132-1.681-0.038-2.068,0.105c-0.802,0.297-1.082,1.402-1.756,1.686
			c-0.21,0.087-0.363-0.268-0.518,0.104c-0.463-0.402-0.182-0.957,0-1.474c-1.211,0.274-1.617,1.37-2.893,1.579
			c-0.303-0.884,0.411-1.29,0.309-2.001c-0.798,0.383-1.455,1.221-2.272,1.264c-0.321-0.332-0.308-0.794-0.104-1.264
			c-0.807,0.231-0.989,1.099-1.55,1.579c-0.224-0.088-0.354-0.272-0.724-0.21c0.39-0.863,0.36-1.461,0.413-2.106
			c-0.969-0.018-1.194,1.526-2.17,1.475c-0.417-0.242-0.035-1.298-0.31-1.685c-0.905-0.008-0.953,1.381-1.653,1.685
			c-0.559-0.478-0.824-1.351-0.724-2.212c-1.073-0.459-1.62,1.152-2.791,1.264c-0.265-0.423-0.253-1.48-0.207-1.895
			c-0.104-0.175-0.438-0.115-0.62-0.211c-0.761,0.559-1.536,1.103-2.377,1.579c-0.058-0.151-0.161-0.257-0.31-0.315
			c0.055-0.646,0.406-0.99,0.62-1.475c-0.208-0.386-0.788-0.391-1.137-0.632c-0.81,0.368-0.996,1.372-1.86,1.685
			c-0.312-0.422-0.296-1.113-0.207-1.685c-1.636-0.499-2.346,1-2.998,2.106c-0.607-0.139-1.194-0.793-0.93-1.475
			c-0.762,0.206-1.136,0.809-1.343,1.58c-0.832,0.004-1.089-0.576-1.137-1.369c-0.469,0.435-0.729,1.082-1.034,1.685
			c-1.205,0.251-1.214-1.06-1.24-1.685c-0.27,0.252-0.317,0.729-0.723,0.842c-0.317,0.661-0.288,1.673-1.24,1.686
			c-0.096-0.635,0.061-1.277-0.31-2.106c-1.147,0.936-1.401,2.222-1.654,3.896c-1.28-0.029-1.491-1.149-1.861-2.106
			c-0.424,0.213-0.167,0.814-0.62,1.158c-0.771-0.471-1.111-1.222-1.24-2.105c-0.688,0.176-0.518,1.227-0.93,1.685
			c-0.802,0.101-1.187-1.097-1.24-2.106c-0.506,0.119-0.847,1.313-1.138,2.002c-0.932,0.141-0.861-1.344-1.24-1.896
			c0.051-0.473-0.052-0.789-0.103-1.158c-0.608,0.17-0.488,1.096-0.62,1.475c-0.147-0.01-0.293-0.018-0.31,0.105
			c-0.539-0.399-0.822-1.059-0.931-1.896c-0.577,0.15-0.386,1.081-0.826,1.369c-0.823-0.26-1.417-1.28-1.034-2.422
			c-0.832,0.496-0.998,1.711-1.24,2.527c-0.65-0.145-0.528-1.076-1.034-1.369c-0.462,0.336-0.091,1.522-0.517,1.896
			c-0.372,0.027-0.498-0.195-0.827-0.211c-0.3-0.362-0.253-1.076-0.62-1.369c-0.707,0.576-0.092,1.834-0.414,2.422
			c-0.867-0.17-0.881-1.208-1.446-1.685c-0.604,0.489,0.13,1.761-0.104,2.212h-0.31c-0.318,0.01-0.071-0.548-0.517-0.633
			c0.104-0.921-1.152-2.513-0.62-2.948c-0.028-0.104-0.237-0.397-0.207-0.526c0.036-0.154,0.18-0.243,0.207-0.105
			c-0.108-0.551-0.727-1.195-0.93-2.001c-0.035-0.138-0.072-0.49-0.103-0.737c-0.049-0.381-0.151-0.646,0.103-1.158
			c-0.4,0.119,0.181-0.422-0.31-0.527c0.58-2.063,1.435-3.236,3.514-3.685c1.539,0.743,2.723,0.194,4.34,0.21
			c3.064,0.03,6.557-0.333,9.302-0.526c1.227-0.086,2.392-0.127,3.514-0.315c0.356-0.061,0.686-0.26,1.033-0.316
			c1.265-0.202,2.77,0.039,3.928-0.211c0.265-0.057,0.381-0.272,0.62-0.315c0.588-0.104,1.201,0.009,1.757-0.105
			c1.18-0.243,2.735-0.854,4.031-1.158c1.286-0.302,2.372-0.392,3.514-0.843c1.103-0.436,2.657-1.025,3.927-1.475
			c0.338,0.072,0.581,0.074,0.93,0c0.278-0.058,0.493-0.273,0.724-0.314c0.327-0.059,0.688,0.033,1.033,0
			c0.55-0.055,1.088-0.346,1.653-0.422c0.986-0.135,1.965,0.049,2.997-0.211c0.631-0.158,1.973-0.46,2.998-0.422
			c0.105-0.102,0.209-0.207,0.311-0.314c1.223-0.355,2.619-0.779,3.823-1.264c0.349-0.141,0.604-0.393,0.931-0.527
			c0.881-0.363,2.602-0.362,2.583-2.211c1.163-0.478,3.95-0.219,3.823,1.053c0.406,0.255,1.356,0.512,1.654,0.527
			c0.357,0.512,1.059,0.675,1.447,1.158c0.986-0.263,1.654-0.061,2.17,0.421c1.363-0.558,2.682-0.38,4.031,0
			c0.361,0.102,0.996,0.194,1.55-0.211c0.8,0.671,1.703,0.284,2.687,0.315c0.334-0.094,0.146,0.344,0.311,0.422
			c1.365-0.044,2.123-1.534,3.617-1.79c0.577,0.816,0.934,2.418,1.86,2.527c0.371,1.257,1.813,1.448,2.79,0.842
			c0.373-0.23,0.494-0.85,0.93-1.157c0.584-0.413,1.363-0.36,2.068-0.527c0.381,0.312,0.639,0.752,1.343,0.736
			c0.409,0.503,0.319,0.977,0.311,1.686c-0.016,1.182,1.089,1.647,0.62,2.949c-0.317,0.309-0.76,0.49-0.931,0.947
			c0.206,0.558,0.317,1.193,0.827,1.791c0.313,0.365,0.84,0.491,0.93,0.842c0.199,0.771-0.305,1.068-0.723,1.686
			c-0.95-0.357-1.604,0.715-2.791,0.947c0.143,0.135,0.103,0.457,0.104,0.736c-0.441,0.838-1.523,1.264-1.859,2.317
			c-0.264,0.823,0.045,1.676-0.311,2.422c0.254,0.231,0.582,0.39,0.93,0.526c0.061,0.687,0.881,2.008-0.104,2.738
			c0.064,0.699,0.522,0.973,0.517,1.474c-0.311,0.456-0.894,0.634-1.24,1.054c1.237-0.119,2.409-0.718,3.721-1.054
			c0.519,0.253,0.576,0.872,0.517,1.476c-0.032,0.329-0.479,0.801-0.517,1.264c-0.024,0.299,0.161,0.537,0.104,0.736
			c-0.292,1.008-1.354,1.237-2.067,1.58c-0.086,0.121-0.136,0.281-0.104,0.526c-0.135,0.106-0.381,0.103-0.516,0.21
			c-0.127,0.398-0.318,0.729-0.621,0.948c-0.633,2.098-2.406,3.688-4.236,4.633c-0.75,0.388-1.688,0.366-2.171,1.159
			c-0.506,0.078-1.288,0.511-2.274,0.421c-1.219,0.682-2.586,0.87-3.927,1.158c-0.764,0.165-2.477,0.566-3.72,0.737
			c-0.234,0.032-0.469-0.029-0.725,0c-0.142,0.017-0.289,0.201-0.413,0.211c-0.78,0.057-1.42-0.053-2.687-0.105
			c-0.741-0.031-1.371-0.287-2.17-0.422c-0.49-0.082-1.055,0.04-1.551-0.104c-0.154-0.046-0.35-0.287-0.518-0.316
			c-0.57-0.098-1.277,0.039-1.963,0c-1.19-0.067-2.347-0.673-3.307-0.737c-1.408-0.095-4.516,0.168-6.719,0.422
			c-1.328,0.152-2.377-0.071-3.514,0.21c-0.344,0.086-0.787,0.224-1.136,0.316c-0.668,0.179-1.364,0.485-2.067,0.632
			c-1.573,0.327-3.134,0.066-4.754,0.421c-1.306,0.286-2.438,1.088-3.72,1.264c-0.54,0.075-1.083-0.065-1.551,0.105
			c-1.192,0.435-3.756,0.492-5.581,0.211c-0.869-0.134-1.612-0.579-2.583-0.421c-1.347-0.77-2.758-1.473-4.237-2.106
			c-0.222-0.371-0.594-0.589-0.724-1.054c-1.306-0.318-1.813-1.451-2.48-2.422c0.232-1.482-0.125-3.211,0.827-4.106
			c0.413,0.141,0.441,0.675,0.62,1.053c0.607-0.87,0.5-2.329,1.447-3.054c-0.023-0.585,0.55-0.562,0.413-1.264
			c0.222,0.125,0.578,0.113,0.724,0.316c-0.293,1.499,0.139,2.054,0,3.475c0.538-0.3,0.481-1.041,0.723-1.58
			c0.142-0.315,0.497-0.645,0.724-1.053c0.463-0.834,0.55-1.572,1.654-1.686c0.377,1.68-0.39,2.581-0.414,4.318
			c0.724-0.14,0.91-0.828,1.344-1.264c0.699,0.188,0.579,0.611,0.62,1.369c0.465-0.088,0.367-0.75,0.723-0.947
			c0.493-0.061,0.638-0.474,1.034-0.633c0.663,0.523,0.155,1.378,0.413,2.106c0.515-0.282,0.511-1.095,0.827-1.579
			c0.529-0.093,0.671-0.58,1.24-0.633c0.392,0.303-0.121,0.733,0,1.369c0.392-0.889,1.249-2.223,2.377-1.685
			c-0.168,0.907-0.273,1.118-0.104,2.212c0.717-0.499,0.815-1.627,1.55-2.106C-272.534,428.193-272.197,429.292-272.227,429.904
			L-272.227,429.904L-272.227,429.904z M-219.106,411.055c0.669-0.796,1.347-0.701,2.171-1.055c-0.023-0.198,0.115-0.231,0.104-0.42
			c-0.311-0.266-0.717-0.506-1.034-0.948c-0.257-0.358-0.519-1.237-0.724-1.474c-0.241-0.282-0.053-0.336,0-0.633
			c0.049-0.273,0-0.563,0.104-0.736c0.664,0.044,0.545-0.709,0.827-1.054c-0.601-0.671-0.696-1.751-0.724-2.843
			c-0.517,0.09-0.976-0.373-1.447-0.632c-1.623,0.17-1.6,2.021-3.617,1.79c0.281,0.447,1.074,1.028,1.551,0.632
			c0.214,0.729,1.061,0.814,1.653,1.158c-0.109,0.345-0.294,0.612-0.62,0.737c-0.221-0.401-0.946,0.215-0.93-0.527
			c0.399-0.056,0.504,0.188,0.93,0.105c-0.822-0.951-2.42-1.114-3.203-2.105c-0.316,0.076-0.377-0.107-0.621-0.105
			c-0.232-0.368-0.797-0.691-1.033-0.736c-0.224-0.22,0.014-0.342,0.104-0.527c-0.154-0.018-0.382,0.037-0.414-0.105
			c-0.332-0.713-0.925-1.163-1.137-2c-1.165,0.532-1.828,1.576-3.41,1.685c-0.45-0.734-1.068-0.146-1.86-0.106
			c-0.3-0.115-0.496-0.336-0.724-0.525c-0.469,0.118-1.008,0.166-1.447,0.316c-0.934-0.402-2.477-0.938-3.927-0.316
			c-0.212,0.028-0.024,0.467-0.31,0.421c-0.545-0.599-1.66-1.011-2.377-0.843c0.413,0.578,1.109,0.607,1.757,0.843
			c0.501,0.182,1.241,0.351,1.653,0.843c-1.334-0.205-2.553-1.125-4.031-1.264c-1.211-0.115-2.367,0.188-3.203-0.632
			c-0.638-0.139-2.197-0.194-2.687,0.421c-0.365-0.295-0.646,0.201-1.138,0.105c-0.318,0.342-0.744,0.728-1.24,1.053
			c-0.624,0.411-1.718,1.174-2.273,0.842c1.2-0.602,2.441-1.162,3.203-2.211h0.518c0.271-0.231-0.32-0.35,0-0.631
			c1.182-0.605,2.617,0.233,3.928,0c0.693,0.987,2.316,0.666,3.41,0.842c-0.914-1.035-2.447-1.438-3.721-2.105
			c0.133-0.139,0.133-0.389,0-0.527c-0.848-0.225-1.185-0.531-2.377-0.526c-0.252,1.039-0.625,1.742-1.55,2.211
			c-1.371,0.695-3.541,0.688-4.548,1.685c-0.328-0.244-0.545,0.197-0.723,0.211c-0.029,0.003-0.14-0.163-0.311-0.104
			c-0.096,0.032-0.236,0.284-0.311,0.315c-1.51,0.646-3.803,0.33-4.857,1.053c-0.303-0.237-0.774-0.144-1.136-0.105
			c-0.357,0.039-0.859,0.137-1.24,0.211c-1.68,0.326-3.886,0.688-5.167,1.158c-1.238,0.455-2.426,0.623-3.514,0.948
			c-0.09,0.154-0.154,0.333-0.413,0.315c-2.936,0.48-6.256,1.699-9.818,2.106c-0.951,0.108-1.917-0.015-2.894,0.105
			c-0.822,0.102-1.651,0.452-2.48,0.526c-1.321,0.119-2.693,0.008-3.721,0.422c-0.799-0.115-1.292-0.043-1.963,0
			c-1.164,0.074-2.505,0.021-3.721,0.105c-0.336,0.022-0.697,0.213-1.034,0.21c-0.215-0.002-0.423-0.188-0.62-0.21
			c-0.496-0.056-1.275-0.033-1.757,0.105c-0.548,0.156-1.183,0.634-1.55,0c-0.058,0.151-0.161,0.256-0.31,0.315
			c-0.491-0.683-1.599-0.06-2.17-0.105c-0.261,0.284-0.015,0.478-0.31,0.632h-0.621c-0.238,0.366-0.407,0.459-0.517,0.947
			c-0.139,0.621-0.3,1.363-0.207,2.211c0.14,1.284,0.881,2.737,1.757,3.266c1.006-0.068,2.554,0.178,2.687-0.527
			c0.05,0.125,0.11,0.238,0.207,0.316c0.492-0.285,1.512-0.621,2.48-0.736c0.016-0.125-0.018-0.299,0.104-0.316
			c1.533-0.51,3.736-0.335,5.064-1.053c0.126,0.152,0.413,0.141,0.414,0.42c-1.305,0.182-2.49,0.482-3.927,0.527
			c0.323,0.566,1.351,0.551,1.964,0.526c-0.031,0.207,0.139,0.208,0.207,0.315c1.559,0.272,2.687,0.983,4.031,1.475
			c0.032,0.143,0.146,0.201,0.103,0.422c0.506-0.024,0.686,0.283,1.137,0.315c0.251-0.2,0.511-0.392,1.034-0.315
			c0.023,0.199-0.117,0.232-0.104,0.421c1.402-0.446,3.817-0.638,5.271-1.369c0.12,0.089,0.277,0.139,0.517,0.105
			c1.296-0.47,2.686-0.532,4.237-0.632c1.294-0.083,2.669,0.112,3.824-0.105c0.161-0.03,0.34-0.189,0.516-0.211
			c0.143-0.016,0.181,0.227,0.311,0.211c0.019-0.002,0.188-0.176,0.31-0.211c0.45-0.127,0.565-0.018,0.93,0
			c0.285,0.014,0.139-0.152,0.31-0.105c0.234,0.066,0.167,0.303,0.414,0.316c0.669,0.039,0.857-0.061,1.24-0.211
			c0.332,0.328,1.333,0.863,1.757,0.422c0.155,0.52,0.724,0.441,1.136,0.21c0.111,0.099,0.033,0.389,0.311,0.316
			c0.906,0.06,1.558,0.378,2.377,0.526c0.366,0.057,0.254-0.373,0.62-0.316c-0.042,0.43,0.351,0.416,0.517,0.633
			c0.133-0.33,0.214-0.055,0.517-0.211c0.321,0.06,0.272,0.495,0.621,0.526c1.377,0.048,2.833,0.733,4.133,0.211
			c0.09,0.153,0.155,0.334,0.413,0.315c1.369,0.19,2.238,0.243,3.515,0.527c0.302,0.027,0.317-0.238,0.62-0.211
			c0.323,0.525,1.699,0.697,2.273,0.315c1.248,0.572,2.73-0.157,4.34-0.104c-0.03-0.246-0.22-0.454,0.104-0.527
			c0.694-0.002,1.52,0.416,2.171,0.105c-0.741-0.16-1.835-0.273-2.274-0.421c-0.16-0.374,0.352-0.064,0.311-0.316
			c-1.785-0.427-3.59-0.835-5.167-1.474c0.212-0.244,0.651-0.318,0.93-0.211c0.022-0.443-0.669-0.161-0.827-0.422
			c0.508-0.513,1.252,0.328,1.654,0.422c1.385,0.322,2.919,0.805,3.824,1.053c1.305,0.358,2.15,0.82,2.893,1.58
			c0.44-0.129,1.122,0.4,1.447,0.736c0.657-0.072,0.996,0.179,1.654,0.105c0.348,0.488,1.123,0.541,1.446,1.054
			c1.942,0.11,3.246,0.817,5.167,0.421c0.238-0.214,0.4-0.506,0.621-0.736c1.311-0.185,2.725-0.084,4.444,0
			c0.288,0.156-0.22,0.47,0.206,0.42c0.359,0.468,0.904,0.301,1.24,0.527c0.132,0.088,0.17,0.334,0.311,0.421
			c0.824,0.512,1.645,0.88,2.48,1.264c0.998,0.458,1.643,0.432,2.583-0.316c-0.177-0.608-0.132-0.79-0.413-1.264
			c-0.394-0.154-0.02,0.472-0.414,0.316c-0.156-0.304,0.004-0.329-0.104-0.737c0.356-0.379,0.707-0.361,1.035-0.315
			c-0.019-0.264,0.158-0.329,0.309-0.421c-0.147-1.543-1.303-1.244-1.55-2.317c-0.163-0.712,0.315-2.455,0.724-3.265
			c0.383-0.76,1.397-1.127,1.55-1.79c0.067-0.29-0.259-0.786,0-0.948c-0.362,0.092-0.641,0.412-0.931,0
			c0.236-0.455,0.266-1.377,1.034-1.158c-0.026-0.343,0.123-0.506,0.413-0.525c0.051,0.332-0.186,0.371-0.104,0.736
			c0.301,0.229,0.596-0.191,0.725,0.211c-0.064,0.475-0.661-0.205-0.621,0.421C-219.459,411.021-219.451,411.166-219.106,411.055
			L-219.106,411.055z M-248.147,399.891c0.504-0.012,1.109,0.078,1.344-0.209C-247.202,399.613-247.828,399.451-248.147,399.891
			L-248.147,399.891z M-220.552,411.264c0.053-0.204,0.553-0.989,0.104-0.736C-220.178,410.609-221,411.004-220.552,411.264
			L-220.552,411.264z M-295.894,416.635c0.139-0.631,0.403-1.133,0.93-1.369c-0.442-0.006-0.757-0.141-1.137-0.21
			C-296.043,415.594-296.259,416.41-295.894,416.635L-295.894,416.635z M-298.375,415.266c-0.134,0.307-0.134,0.748,0,1.054
			c0.399-0.079,0.904-1.075,0.62-1.159C-297.768,415.394-298.193,415.205-298.375,415.266L-298.375,415.266z M-294.137,416.951
			c0.475-0.218,0.512-0.881,0.827-1.264c-0.39,0.08-0.494-0.129-0.827-0.105C-294.301,415.851-294.301,416.682-294.137,416.951
			L-294.137,416.951z M-300.442,415.899c-0.066,0.594,0.277,0.77,0.413,1.158c0.125-0.471,0.245-0.945,0.414-1.369
			C-299.954,415.693-300.01,415.986-300.442,415.899L-300.442,415.899z M-303.645,417.583c0.494-0.198,0.391-1.006,0.62-1.474
			c-0.519,0.106-0.395-0.441-0.931-0.316C-303.861,416.59-303.726,417.016-303.645,417.583L-303.645,417.583z M-250.834,415.899
			c0.801,0.273,2.715,0.92,3.823,0.842C-248.361,416.592-249.533,415.752-250.834,415.899L-250.834,415.899z M-275.018,416.003
			c-0.011,0.38-0.514,0.804-0.207,1.159c0.438-0.326,0.655-0.877,1.033-1.264C-274.58,415.817-274.685,416.027-275.018,416.003
			L-275.018,416.003z M-271.297,416.319c0.272,0.032,0.267-0.22,0.31-0.421h-0.31V416.319L-271.297,416.319z M-277.601,417.162
			c0.428-0.267,0.658-0.733,0.93-1.159C-277.51,415.851-277.629,416.432-277.601,417.162L-277.601,417.162z M-301.888,417.583
			c-0.009-0.642,0.35-0.907,0.414-1.474c-0.313,0.144-0.37-0.051-0.827,0C-302.18,416.889-302.441,417.104-301.888,417.583
			L-301.888,417.583z M-279.772,416.214c-0.021,0.503-0.461,1.225,0,1.579c0.232-0.675,0.807-1.003,1.034-1.684
			C-279.261,416.115-279.52,416.157-279.772,416.214L-279.772,416.214z M-292.07,418.531c0.547-0.496,0.78-1.312,1.447-1.686
			c-0.592-0.204-1.034-0.561-1.757-0.632C-292.461,416.988-291.993,417.836-292.07,418.531L-292.07,418.531z M-282.045,416.635
			c0.142,0.433-0.25,0.86,0,1.054c0.247-0.521,0.723-0.808,1.033-1.264C-281.448,416.401-281.679,416.586-282.045,416.635
			L-282.045,416.635L-282.045,416.635z M-268.197,417.057c0.343-0.037,0.449-0.315,0.621-0.527h-0.414
			C-268.095,416.668-268.091,416.918-268.197,417.057L-268.197,417.057z M-285.972,417.478c0.118,0.437-0.218,0.411-0.207,0.737
			c0.516,0.527,0.291,1.81,1.137,2.001c0.095-1.483,0.701-2.444,1.447-3.265C-284.481,417.031-285.024,417.461-285.972,417.478
			L-285.972,417.478z M-265.303,417.899c0.417-0.102,0.582-0.46,0.827-0.736c-0.25,0.043-0.225-0.193-0.517-0.105
			C-265.045,417.389-265.297,417.519-265.303,417.899L-265.303,417.899z M-289.694,418.741c0.44-0.078,0.325-0.722,0.62-0.948
			c-0.231-0.114-0.518-0.174-0.723-0.315C-290.028,418.019-289.789,418.197-289.694,418.741L-289.694,418.741z M-287.73,417.899
			c0.144,0.381,0.073,0.979,0.517,1.054c-0.114-0.715,0.86-0.875,0.62-1.369C-286.94,417.72-287.211,417.936-287.73,417.899
			L-287.73,417.899z M-262.305,418.636c0.011-0.48,0.543-0.429,0.62-0.843c-0.317,0.077-0.305-0.182-0.62-0.104
			C-262.309,418.01-262.674,418.568-262.305,418.636L-262.305,418.636z M-259.928,418.847c0.317-0.097,0.413-0.422,0.62-0.632
			c-0.195,0.023-0.229-0.119-0.414-0.105C-259.74,418.408-259.912,418.549-259.928,418.847L-259.928,418.847z M-243.703,418.215
			c-0.063-0.031-0.398-0.262-0.414,0C-244.053,418.246-243.718,418.477-243.703,418.215L-243.703,418.215z M-257.551,418.952
			c0.327-0.088,0.525-0.308,0.724-0.526c-0.285-0.227-0.432,0.061-0.724-0.105V418.952L-257.551,418.952z M-255.691,419.479
			c0.471-0.117,0.777-0.4,0.93-0.843c-0.247,0.064-0.75-0.132-0.826,0.105C-255.369,418.837-255.783,419.164-255.691,419.479
			L-255.691,419.479z M-253.314,419.901c0.438-0.151,0.781-0.397,0.93-0.844c-0.254,0.014-0.498,0.017-0.62-0.104
			C-252.998,419.381-253.332,419.461-253.314,419.901L-253.314,419.901z M-250.73,420.005c0.131-0.323,0.352-0.554,0.517-0.843
			c-0.318,0.074-0.199,0.074-0.517,0C-250.595,419.521-250.961,419.897-250.73,420.005L-250.73,420.005z M-228.821,420.742
			c-1.274-0.201-3.271-0.543-4.03,0.526c-0.731,0.203-1.249,0.228-1.963,0.315c1.93,0.268,3.36,0.77,5.062,0.844
			c0.186,0.162,0.406,0.289,0.621,0.42c2,0.049,3.275,0.93,4.961,0.527C-225.806,422.584-227.521,421.875-228.821,420.742
			L-228.821,420.742z M-218.486,425.481c-0.08-0.676,0.27-1.547,0.518-2.211c-0.803,0.438-1.426,0.443-2.48,0.526
			c-0.657,0.052-1.354,0.341-2.067,0.421c-0.685,0.077-1.384-0.066-1.964,0c-0.217,0.025-0.508,0.228-0.724,0.211
			c-0.028-0.002-0.167-0.184-0.31-0.211c-0.582-0.107-0.783-0.242-1.137-0.316c-0.516-0.106-0.953-0.08-1.447-0.104
			c-1.235-0.479-2.545-0.474-3.928-0.632c-0.861-0.099-1.557-0.508-2.273-0.632c-1.986-0.343-3.492-0.31-5.167-0.104
			c-0.462,0.057-0.928,0.025-1.343,0.104c-0.514,0.098-1.039,0.433-1.551,0.526c-0.312,0.058-0.639-0.041-0.931,0
			c-0.792,0.111-1.419,0.471-2.171,0.737c-0.391,0.14-0.844,0.178-1.24,0.315c-0.769,0.27-1.511,0.641-2.066,0.844
			c-2.434,0.888-4.791,1.48-7.338,2.105c-0.008,0.328-0.434,0.238-0.619,0.316c-2.258,0.937-5.259,1.331-7.441,2.422
			c0.044-0.401-0.284-0.006-0.31,0c-1.424,0.333-2.564,0.486-4.031,0.736c-2.437,0.417-5.091,0.32-7.751,0.526
			c-0.998,0.078-1.958,0.352-2.688,0.421c-0.461,0.045-0.787-0.184-1.137-0.209c-0.599-0.044-1.24,0.102-1.86,0
			c-1.021-0.169-3.166-0.554-4.03-0.212c-0.565,0.224-0.941,0.819-1.447,1.159c-0.517,0.347-1.014,0.514-1.447,0.842
			c0.684,1.128,1.944,1.67,2.583,2.844c0.979,0.232,1.547,0.881,2.274,1.369c1.064-0.206,1.522,0.764,2.17,0.632
			c-0.104-0.001-0.13-0.185,0-0.211c-0.008,0.471,0.552,0.224,0.827,0.315c0.218,0.074,0.389,0.272,0.62,0.316
			c1.221,0.234,2.636,0.21,3.411,0.105c0.642-0.087,1.308,0.05,1.963,0c1.878-0.141,3.968-0.812,5.375-1.369
			c0.595-0.034,1.16-0.125,1.757-0.211c0.527-0.075,1.053-0.033,1.55-0.105c0.468-0.067,0.96-0.332,1.447-0.421
			c0.546-0.1,1.125,0.005,1.654-0.105c0.208-0.043,0.45-0.257,0.62-0.315c1.307-0.447,2.61-0.436,4.237-0.527
			c1.521-0.084,3.063-0.331,4.65-0.421c1.428-0.079,3.06-0.149,4.342,0.106c0.314,0.062,0.487,0.362,0.723,0.421
			c1.001,0.247,2.053,0.052,3.101,0c0.013,0.312,0.165,0.269,0.31,0.315c0.479,0.156,1.234,0.206,1.861,0.316
			c0.549,0.096,1.162,0.254,1.652,0.315c0.24,0.03,0.492-0.134,0.724-0.105c0.278,0.034,0.494,0.196,0.724,0.211
			c1.094,0.065,2.92-0.229,3.824-0.316c0.137-0.013,0.092-0.191,0.207-0.21c0.461-0.074,0.943,0.001,1.447-0.105
			c1.523-0.324,3.422-0.91,4.96-1.264c-0.075-0.322,0.106-0.384,0.103-0.632c0.314,0.269,1.041-0.374,1.344-0.105
			c-0.084,0.405-0.766,0.203-0.93,0.526c1.713-0.01,2.023-1.521,3.617-1.369c0.271-0.544,0.992-0.609,1.447-0.947
			c0.238-0.178,0.494-0.527,0.826-0.842c0.743-0.705,1.568-1.398,1.654-2.527c0.299-0.151,0.426-0.479,0.516-0.844
			c-0.672-0.023-1.232,0.16-1.549,0.211c-0.143-0.24,0.266-0.396,0-0.421c-0.479,0.146-1.014,0.79-1.447,0.632
			c0.277-1.006,1.562-0.57,2.273-1.264c-1.468,0.014-2.32,0.654-3.617,0.842c-0.113,0.242-0.619,0.627-0.827,0.422
			c0.333-0.564,1.116-0.693,1.757-0.947c0.666-0.266,1.356-0.588,1.965-0.633c0.213-0.028,0.097-0.393,0.309-0.421
			c0.805,0.398,0.962,0.151,1.758,0.421c0.3-0.304-0.28-0.248-0.311-0.526c0.449-0.296,1.192-0.415,1.447-0.104
			c-0.359,0.125-0.803,0.164-1.033,0.42C-219.779,426.674-218.861,426.094-218.486,425.481L-218.486,425.481L-218.486,425.481z
			 M-222,423.481c0.122-0.052,0.234-0.113,0.311-0.211C-221.828,423.254-222.259,423.436-222,423.481L-222,423.481z
			 M-256.518,426.955c0.485-0.068,0.812-0.297,1.344-0.316c-0.3-0.418-0.251-0.592-0.206-1.264
			c-0.133-0.005-0.145-0.135-0.311-0.105C-255.881,425.921-256.171,426.467-256.518,426.955L-256.518,426.955z M-258.275,427.587
			c0.443-0.183,1.089-1.353,0.518-1.579C-257.841,426.559-258.484,427.09-258.275,427.587L-258.275,427.587z M-283.595,426.955
			c0.064-0.285,0.431-0.262,0.413-0.632C-283.356,426.435-283.821,426.787-283.595,426.955L-283.595,426.955z M-285.042,430.535
			c0.437,0.117,0.983,0.122,1.55,0.105c-0.134-0.508-0.03-1.958-0.103-2.633c0.079-0.309,0.629-0.889,0.207-1.053
			C-284.255,427.891-284.849,429.203-285.042,430.535L-285.042,430.535z M-261.479,428.324c-0.357,0.092-0.716,0.184-0.93,0.422
			c0.856-0.111,1.402-0.537,2.273-0.633c0.077-0.358-0.381-0.174-0.413-0.421c-0.018-0.298,0.088-0.723-0.207-0.737
			C-260.923,427.487-261.237,427.869-261.479,428.324L-261.479,428.324z M-286.903,428.008c-0.134,0.547-0.502,1.318-0.62,2.106
			c-0.094,0.622-0.151,1.403,0.103,1.58c0.412-0.623,1.112-0.358,1.344-1.054c0.12-0.361-0.413-1.521-0.517-2.211
			c-0.051-0.34,0.219-0.586-0.104-0.737C-286.705,427.859-286.96,427.775-286.903,428.008L-286.903,428.008z M-264.166,429.377
			c0.278-0.103,0.529-0.232,0.827-0.315c-0.037-0.359,0.311-0.868,0.104-1.054C-263.487,428.525-263.971,428.804-264.166,429.377
			L-264.166,429.377z M-267.37,430.01c0.329-0.157,0.925-0.041,1.138-0.316c-0.305-0.276,0.667-1.17,0.103-1.369
			C-266.308,429.125-266.967,429.438-267.37,430.01L-267.37,430.01z M-276.258,429.483c0.434-0.225,0.834-0.484,0.93-1.053h-0.31
			C-275.705,428.923-276.093,429.089-276.258,429.483L-276.258,429.483z M-269.85,430.325c0.414,0.034,0.574-0.188,1.034-0.105
			c-0.09-0.513,0.473-1.366,0-1.579C-269.038,429.326-269.533,429.734-269.85,430.325L-269.85,430.325z M-271.401,430.535h0.724
			c-0.186-0.74,0.7-1.43,0.207-1.789C-270.813,429.309-271.04,429.989-271.401,430.535L-271.401,430.535z M-276.671,430.852
			c0.465-0.157,1.241,0.001,1.653-0.211c-0.591-0.064-0.102-1.23-0.413-1.579C-275.912,429.59-276.243,430.27-276.671,430.852
			L-276.671,430.852z M-280.288,429.483c-0.018,0.17-0.347,0.543-0.104,0.632c0.127-0.396,0.398-0.647,0.62-0.948
			C-280.157,429.055-279.935,429.562-280.288,429.483L-280.288,429.483z M-273.985,430.746c0.248-0.064,0.472-0.151,0.827-0.105
			c0.01-0.509,0.598-1.16,0-1.369C-273.37,429.827-273.816,430.146-273.985,430.746L-273.985,430.746L-273.985,430.746z
			 M-278.325,430.957h0.93c0.068-0.385-0.223-0.404-0.207-0.737c0.003,0.04,0.333-0.824-0.104-0.843
			C-277.916,430.024-278.137,430.537-278.325,430.957L-278.325,430.957z M-280.495,430.641c-0.024-0.186,0.104-0.527-0.207-0.421
			c0.05,0.332-0.187,0.372-0.103,0.737c0.781,0.104,0.868-0.295,1.343,0c0.078-0.359-0.42-0.134-0.31-0.526
			c-0.036-0.291,0.297-0.74,0-0.948C-280.077,429.803-280.027,430.486-280.495,430.641L-280.495,430.641z M-282.459,430.746
			c0.411-0.068,0.416,0.279,0.827,0.211c-0.157-0.366-0.333-0.916-0.103-1.369C-282.164,429.783-282.198,430.381-282.459,430.746
			L-282.459,430.746z M-289.073,432.746c0.497-0.359,0.642-0.453,1.137-0.736c-0.313-0.488-0.636-0.967-1.137-1.264
			C-289.145,431.639-288.938,432.334-289.073,432.746L-289.073,432.746z"/>
		<path id="Fill-38" sketch:type="MSShapeGroup" inkscape:connector-curvature="0" d="M-258.172,405.367
			c0.152,0.474-0.578,0.344-0.826,0.422c-0.727,0.227-1.677,0.494-2.481,0.526c-0.02-0.12-0.104-0.06-0.104,0
			c-0.088-0.385,0.556-0.228,0.827-0.316C-259.976,405.742-258.93,405.147-258.172,405.367"/>
		<path id="Fill-39" sketch:type="MSShapeGroup" inkscape:connector-curvature="0" d="M-249.904,427.693
			c0.002-0.595,0.676-0.505,1.137-0.632c0.117,0.544-1.043,0.336-0.826,0.632C-249.638,427.849-249.726,427.651-249.904,427.693"/>
		<path id="Fill-40" sketch:type="MSShapeGroup" inkscape:connector-curvature="0" d="M-258.068,403.577
			c0.023,0.403-0.568,0.526-0.827,0.315c-0.617,0.307-1.398,0.372-2.273,0.633c-1.59,0.473-3.309,1.401-4.754,1.579
			c0.397-0.438,1.266-0.395,1.757-0.737c-1.014-0.254-1.521,0.631-2.687,0.737c0.09-0.153,0.082-0.407,0.413-0.315
			c-1.219-0.156-2.53,0.697-3.514,0.315c0.319-0.486,0.923-0.316,1.653-0.421c0.604-0.087,1.25-0.338,1.86-0.422
			c0.658-0.09,1.334-0.039,1.964-0.211c0.527-0.143,1.371-0.434,1.963-0.631c0.124,0.139,0.04,0.165,0,0.315
			C-260.959,404.5-259.793,403.49-258.068,403.577"/>
		<path id="Fill-41" sketch:type="MSShapeGroup" inkscape:connector-curvature="0" d="M-269.747,407.895
			c-0.418,0.447-1.051,0.122-1.55,0.211c-0.527,0.093-1.404,0.661-2.17,0.526c-0.042,0.18,0.087,0.515,0.103,1.054
			c1.688-0.455,3.484-1.062,5.167-0.948c-0.327,0.409-0.851,0.159-1.24,0.21c-0.774,0.102-1.471,0.392-2.273,0.527
			c-0.282,0.097,0.144,0.329,0,0.632c-0.428,0.091-0.757,0.282-1.24,0.315c0.496,0.371,1.363-0.257,1.757,0
			c-0.704,0.902-3.019-0.039-3.721,0.633c0.05,0.334,0.932-0.178,0.827,0.315c-1.196,0.073-2.689-0.19-3.824-0.421
			c-1.556-0.318-3.307,0.392-4.754-0.316c0.169-0.494,1.06-0.254,1.137-0.842c0.421,0.3,0.817-0.182,1.344-0.316
			c1.079-0.279,2.815-0.051,3.824-0.632c0.389,0.081,0.494-0.129,0.827-0.105c0.122-0.157,0.259-0.298,0.414-0.421
			C-273.205,408.14-271.577,407.696-269.747,407.895L-269.747,407.895z M-278.945,410.107c0.92-0.112,0.918,0.316,1.86,0.315
			c0.273-0.111,0.87-0.643,1.034-0.211c-0.192,0.016-0.345,0.069-0.414,0.211c0.833,0.225,1.227-0.459,1.86-0.736
			C-276.168,409.688-278.108,409.785-278.945,410.107L-278.945,410.107z M-273.985,410.422c0.043-0.236,0.567,0.016,0.517-0.315
			C-273.69,410.1-274.298,410.23-273.985,410.422L-273.985,410.422z"/>
		<path id="Fill-42" sketch:type="MSShapeGroup" inkscape:connector-curvature="0" d="M-222.826,407.158
			c-0.061,0.517,0.134,0.775,0.516,0.842c0.013,0.962,0.252,1.29,0.207,2c-0.353,0.08-0.131-0.427-0.517-0.314
			c0.13,0.709,0.446,1.334,0.31,1.895c-0.084,0.345-0.65,0.586-0.826,1.053c-0.188,0.5-0.051,0.98-0.207,1.58
			c-0.688,0.317-0.66,1.363-1.137,1.896c-0.575-0.121-0.811,0.684-1.447,0.842c-1.033,0.257-3.144-0.305-4.547-0.211
			c-1.217,0.082-2.771-0.373-3.101-1.475c-0.45-0.08-0.957,0.131-1.136,0c0.006-0.379,0.43-0.332,0.826-0.315
			c0.761-2.188,1.773-3.51,3.721-4.528c0.556-0.661,1.129-1.307,1.86-1.79c-0.021-0.12-0.104-0.058-0.104,0
			c-0.242-0.288,0.484-0.485,0.827-0.526c0.192-0.016,0.063-0.356,0.207-0.422c0.958-0.356,1.962-0.669,2.79-1.158
			C-223.961,406.698-223.311,406.844-222.826,407.158L-222.826,407.158z M-226.031,408.106c-0.022,0.199,0.117,0.232,0.104,0.422
			c0.865-0.254,2.16-0.229,2.48-0.738C-223.968,407.746-225.285,407.626-226.031,408.106L-226.031,408.106z M-225.617,408.737
			c0.008,0.147-0.301,0.12-0.104,0.21c0.191-0.186,0.547-0.07,0.826-0.104c0.562-0.07,1.678-0.125,1.861-0.526
			C-223.787,408.207-224.949,408.711-225.617,408.737L-225.617,408.737z M-228.201,409.369c-0.911,1.388-2.506,2.08-3.721,3.158
			c-0.121,0.689-0.555,0.922-0.826,1.369c-0.933,1.541,1.038,2.029,2.48,2.106c1.432,0.077,3.002-0.052,3.617,0.316
			c0.815-0.327,1.689-0.595,1.756-1.685c-0.525-0.572-0.17-1.85,0.207-2.422c-0.931-0.631-1.278-1.857-1.963-2.738
			c0.086-0.123,0.137-0.283,0.104-0.527C-227.101,408.567-227.655,409.424-228.201,409.369L-228.201,409.369L-228.201,409.369z
			 M-225.306,409.158c0.861-0.018,1.564,0.006,2.066,0.105c-0.075-0.287,0.205-0.212,0.207-0.421
			C-223.858,408.879-224.722,408.876-225.306,409.158L-225.306,409.158L-225.306,409.158z M-225.617,409.475
			c-0.003,0.354,0.143,0.557,0.311,0.736c-0.006-0.581,0.227-0.375,0.206-0.842C-225.349,409.326-225.324,409.562-225.617,409.475
			L-225.617,409.475z M-224.377,409.686c0.383-0.066,1.063,0.171,1.137-0.211C-223.443,409.625-224.863,409.516-224.377,409.686
			L-224.377,409.686z M-224.894,410.107h1.551C-223.539,409.639-224.609,409.975-224.894,410.107L-224.894,410.107z
			 M-223.343,410.317C-224.164,410.373-222.838,410.282-223.343,410.317L-223.343,410.317z M-223.343,410.527
			c-0.106,0.523-1.34-0.102-1.446,0.422c0.302,0.314,1.464,0.227,1.757,0.21C-223.086,410.897-223.03,410.524-223.343,410.527
			L-223.343,410.527z M-223.55,411.897c-0.075-0.287,0.205-0.213,0.206-0.422c-0.28,0.065-0.82-0.133-0.93,0.105
			C-224.074,411.729-223.857,411.859-223.55,411.897L-223.55,411.897z M-224.066,412.633c0.253,0.062,0.502-0.693,0.104-0.631
			C-223.888,412.323-224.141,412.311-224.066,412.633L-224.066,412.633z M-224.273,413.477c0.324,0.015,0.355-0.271,0.413-0.527
			C-224.157,412.963-224.351,413.081-224.273,413.477L-224.273,413.477z"/>
		<path id="Fill-43" sketch:type="MSShapeGroup" inkscape:connector-curvature="0" d="M-238.845,414.846
			c-0.51-0.324-0.995-0.672-1.758-0.738c-0.133-0.636-0.378-1.158-0.826-1.475c0.396-1.176,0.75-2.394,1.653-3.053
			c-0.074-0.322,0.106-0.385,0.104-0.633c0.526-0.672,1.438-1.179,1.964-2c0.135-0.211,0.171-0.524,0.311-0.737
			c0.423-0.649,0.848-0.888,1.033-1.79c0.139-0.683-0.279-1.081-0.414-1.686c1.04-0.411,1.887,0.242,2.895,0.211
			c-0.219-0.475-0.899-0.314-1.24-0.422c0.896-0.871,1.562,0.703,2.377,0.633c0.149,0.354,0.218,0.827,0.413,1.158
			c0.376,0.636,1.053,0.914,1.447,1.58c0.063,0.106,0.024,0.391,0.103,0.525c0.043,0.074,0.283,0.139,0.311,0.211
			c0.387,1.04,0.077,1.688-0.207,2.949c-1.027,0.813-1.948,1.734-2.894,2.633c-1.781,0.63-3.245,1.699-5.063,2
			C-238.903,414.225-238.843,414.567-238.845,414.846L-238.845,414.846z M-239.052,409.264c-0.008,0.482-0.263,0.715-0.207,1.264
			c-0.463,0.616-1.224,0.93-1.344,1.896c0.127,0.224,0.39,0.306,0.414,0.632c2.328,0.346,3.942-0.846,5.58-1.053
			c0.559-0.766,1.627-1.011,2.068-1.896c0.37,0.026,0.379-0.316,0.723-0.315c0.272-0.57,0.664-0.898,0.724-1.369
			c0.06-0.465-0.097-0.842,0-1.369c-0.287-0.359-0.425-0.291-0.413-0.843c-0.498-0.37-0.853-0.887-1.344-1.264
			c-0.152-0.442-0.352-0.835-0.518-1.264c-0.972,0.066-1.461,0.024-2.272-0.21C-235.455,406.024-237.341,407.977-239.052,409.264
			L-239.052,409.264z M-238.742,413.897c-0.248,0.064-0.75-0.131-0.827,0.105C-239.366,414.197-238.929,414.035-238.742,413.897
			L-238.742,413.897z"/>
		<path id="Fill-44" sketch:type="MSShapeGroup" inkscape:connector-curvature="0" d="M-275.637,413.897
			c-1.728,0.064-3.6,0.576-5.478,0.633c0.761-0.531,1.825-0.314,2.583-0.422c0.188-0.027,0.509-0.214,1.034-0.315
			c1.29-0.249,2.517-0.556,4.133-0.422c0.584,0.049,1.092,0.278,1.654,0.316c0.646,0.044,1.259-0.325,1.55,0.21
			c-1.422,0.67-3.387,0.025-4.96,0.105c-0.436,0.022-0.863,0.308-1.344,0.316C-276.345,414.02-276.045,413.903-275.637,413.897"/>
		<path id="Fill-45" sketch:type="MSShapeGroup" inkscape:connector-curvature="0" d="M-237.605,431.483
			c-0.182-0.311-0.551,0.062-0.827,0c-0.688,0.844-2.075,0.975-2.79,1.791c-0.354-0.106-0.693,0.004-0.931,0.211
			c0.06,0.348,0.669-0.133,0.62,0.104c-0.16,0.505-1.396,0.371-2.066,0.316c-0.82-0.066-1.207-0.311-1.964-0.632
			c-0.36-0.152-0.862-0.264-1.138-0.421c-0.244-0.141-0.396-0.48-0.619-0.632c-0.377-0.254-0.869-0.193-0.931-0.632
			c0.282-0.429,0.741-0.409,1.138-0.632c0.217-0.123,0.404-0.432,0.619-0.526c0.058-0.025,0.718-0.173,0.931-0.211
			c2.162-0.39,4.771,0.854,7.234,0.315c0.142,0.135,0.142,0.498,0,0.633c0.409-0.104,0.898-0.209,1.034,0.21
			c1.945-0.665,4.285-1.144,7.44-1.158c0.628-0.003,1.249,0.097,1.86,0.105c0.723,0.009,1.404-0.224,2.066-0.211
			c0.361,0.007,0.775,0.234,1.033,0.211c0.897-0.083,1.137-0.906,2.068-0.948c-0.657,0.732-1.999,1.731-3.102,1.054
			c-1.982,0.444-4.027-0.026-6.098,0.104c-1.746,0.111-3.67,0.51-5.167,0.947c-0.58,0.171-0.909,0.551-1.653,0.527
			C-238.566,431.697-238.103,431.572-237.605,431.483L-237.605,431.483z M-246.907,431.483c0.812,1.075,2.306,1.508,3.721,1.686
			c0.337-0.183,0.732-0.507,0.724-0.736c0.789-0.119,2.178-0.512,2.79-1.158C-242.026,431.655-244.886,430.127-246.907,431.483
			L-246.907,431.483z"/>
	</g>
</g>
<path id="path3036" inkscape:connector-curvature="0" fill="#CCCCCC" d="M-220.387,448.807c-1.217-0.652-2.396-1.352-2.621-1.556
	c-0.269-0.242-1.01-0.37-2.145-0.37c-1.465,0-1.734-0.07-1.734-0.445c0-0.245-0.322-0.709-0.716-1.031l-0.715-0.585l1.35-0.009
	c1.405-0.01,2.082-0.402,1.06-0.615c-0.324-0.066,0.717-0.059,2.314,0.018c2.707,0.129,2.953,0.101,3.627-0.43
	c0.881-0.693,1.92-2.461,1.92-3.268c0-0.325,0.162-0.726,0.359-0.891c0.211-0.174,0.436-1.099,0.541-2.22
	c0.209-2.231-0.135-3.037-1.496-3.512c-0.686-0.239-1.059-0.19-2.258,0.293c-0.79,0.319-1.575,0.702-1.744,0.853
	c-0.169,0.148-0.945,0.856-1.725,1.571c-0.78,0.716-1.79,1.579-2.245,1.919c-0.454,0.34-1.175,1.236-1.602,1.992
	c-0.427,0.754-0.944,1.438-1.153,1.518c-0.611,0.234-0.434,0.682,0.271,0.682c0.357,0,0.65,0.113,0.65,0.252s0.322,0.422,0.715,0.63
	c0.517,0.272,0.607,0.411,0.325,0.499c-1.856,0.572-2.854,0.773-3.575,0.721c-0.622-0.045-0.845,0.047-0.845,0.349
	c0,0.436,0.907,0.575,1.153,0.177c0.228-0.369,1.84,0.106,2.457,0.724c0.697,0.698,0.393,1.46-0.667,1.662
	c-1.162,0.222-4.024-0.314-5.319-0.997c-0.662-0.35-1.434-0.636-1.713-0.636c-0.28,0-1.025-0.292-1.655-0.649
	c-1.825-1.036-2.78-1.432-5.424-2.249c-1.365-0.422-2.671-0.829-2.901-0.905c-0.274-0.09-0.468,0.048-0.561,0.399
	c-0.123,0.476,0.1,0.613,1.928,1.19c1.139,0.359,2.247,0.654,2.465,0.654c0.756,0,0.234,0.875-0.658,1.106
	c-1.271,0.329-7.135-0.017-9.357-0.553c-0.516-0.124-1.627-0.244-2.47-0.266c-1.361-0.035-2.421-0.334-3.851-1.085
	c-0.244-0.128-0.504-0.134-0.579-0.013c-0.133,0.216-2.493-0.194-2.749-0.477c-0.071-0.079-0.591-0.181-1.154-0.227
	c-0.564-0.046-1.216-0.185-1.45-0.31c-0.528-0.283-7.763-0.084-10.396,0.285c-2.775,0.389-2.775,0.389-5.07,0.986
	c-2.66,0.693-2.826,0.695-2.47,0.03c0.379-0.709-0.243-0.709-0.85,0c-0.529,0.618-0.805,0.648-1.309,0.144
	c-0.207-0.206-0.771-0.547-1.253-0.758c-0.733-0.32-0.781-0.387-0.292-0.404c0.725-0.026,0.768-0.455,0.065-0.654l-1.04-0.295
	c-0.368-0.104-0.52-0.023-0.52,0.277c0,0.32-0.145,0.382-0.585,0.249c-0.322-0.097-0.696-0.28-0.832-0.407s-0.604-0.244-1.04-0.26
	c-0.583-0.021-0.449-0.092,0.507-0.264c2.359-0.424,2.566-0.496,2.269-0.793c-0.195-0.195-0.645-0.195-1.532,0.002
	c-0.691,0.153-1.783,0.356-2.426,0.451s-1.402,0.295-1.685,0.443c-0.685,0.361-4.012,1.219-4.746,1.225
	c-0.391,0.002-0.803-0.33-1.257-1.018c-1.203-1.817-1.185-4.761,0.033-5.224c0.35-0.133,0.636-0.364,0.636-0.513
	c0-0.164,0.694-0.26,1.755-0.243c3.545,0.056,10.934-0.318,13.715-0.694c1.573-0.212,4.047-0.49,5.499-0.618
	c2.456-0.216,10.226-1.815,11.401-2.347c1.562-0.705,7.995-2.205,10.542-2.458c3.129-0.31,5.644-0.897,7.398-1.729
	c0.886-0.419,3.866-1.264,3.997-1.132c0.17,0.17-0.601,0.755-2.307,1.752c-1.219,0.713-1.341,0.85-0.824,0.923
	c0.355,0.05,1.041-0.219,1.66-0.65c1.873-1.307,2.363-1.487,3.974-1.467c2.351,0.031,5.296,0.509,6.827,1.106
	c1.703,0.665,2.211,0.675,1.365,0.025l-0.646-0.496l0.777-0.301c0.568-0.219,1.126-0.225,2.076-0.022
	c1.316,0.28,4.677,0.608,5.829,0.569c0.345-0.013,1.124-0.312,1.729-0.668l1.103-0.646l0.8,1.247
	c0.607,0.946,1.273,1.519,2.756,2.366c1.383,0.792,1.953,1.267,1.953,1.626c0,0.4,0.152,0.49,0.713,0.426
	c0.393-0.045,0.745-0.258,0.784-0.473c0.069-0.386-1.145-1.273-2.146-1.568c-0.489-0.145-0.482-0.173,0.13-0.494
	c0.357-0.188,0.961-0.631,1.342-0.984c0.637-0.595,0.76-0.619,1.596-0.316c0.793,0.287,0.921,0.459,1.035,1.391
	c0.071,0.584,0.209,1.253,0.304,1.484c0.101,0.244-0.003,0.6-0.249,0.844c-0.784,0.785-0.367,2.851,0.766,3.791
	c0.598,0.495,0.502,0.731-0.369,0.924c-0.428,0.094-0.842,0.273-0.919,0.398c-0.204,0.331-0.905,0.001-0.905-0.426
	c0-0.199-0.116-0.363-0.26-0.363c-0.143,0-0.26,0.117-0.26,0.261s-0.162,0.26-0.361,0.26c-0.373,0-0.679,0.538-0.679,1.191
	c0,0.202,0.176,0.368,0.39,0.368c0.625,0,0.453,0.623-0.396,1.437c-0.733,0.702-1.554,2.71-1.554,3.802
	c0,0.256,0.351,0.864,0.779,1.353c0.955,1.087,0.975,1.409,0.111,1.737c-0.625,0.237-0.836,1.104-0.251,1.027
	c0.138-0.019,0.327,0.18,0.421,0.441c0.117,0.326,0,0.572-0.381,0.789C-217.902,450.123-217.963,450.107-220.387,448.807
	L-220.387,448.807z M-243.008,445.32c0-0.143-0.416-0.26-0.925-0.26c-0.551,0-0.86,0.105-0.765,0.26
	c0.088,0.144,0.505,0.26,0.926,0.26C-243.352,445.58-243.008,445.464-243.008,445.32z M-247.49,444.736
	c-0.166-0.506-1.497-0.578-1.497-0.083c0,0.282,0.247,0.407,0.802,0.407C-247.66,445.061-247.421,444.948-247.49,444.736
	L-247.49,444.736z M-283.827,443.213c0-0.297-0.705-0.304-0.888-0.008c-0.076,0.123-0.072,0.29,0.01,0.371
	C-284.502,443.779-283.827,443.5-283.827,443.213L-283.827,443.213z M-281.898,443.083c0.726-0.278,0.439-0.607-0.499-0.572
	c-0.569,0.021-0.91,0.164-0.91,0.382C-283.307,443.257-282.601,443.352-281.898,443.083z M-255.228,442.705
	c0-0.135-0.234-0.244-0.52-0.244c-0.573,0-0.708,0.409-0.195,0.593C-255.549,443.195-255.228,443.038-255.228,442.705
	L-255.228,442.705z M-278.887,442.215c0-0.408-0.341-0.486-0.936-0.215c-0.861,0.393-0.782,0.654,0.156,0.516
	C-279.238,442.453-278.887,442.317-278.887,442.215L-278.887,442.215z M-259.647,442.201c0-0.144-0.351-0.261-0.78-0.261
	c-0.429,0-0.78,0.117-0.78,0.261c0,0.143,0.351,0.26,0.78,0.26C-259.999,442.461-259.647,442.344-259.647,442.201z M-238.09,440.25
	c1.572-2.081,1.842-2.549,1.842-3.195c0-0.705,1.512-2.643,2.068-2.649c0.293-0.003,0.307-0.074,0.064-0.316
	c-0.172-0.172-0.312-0.505-0.312-0.739c0-0.504-0.873-1.369-1.125-1.116c-0.096,0.096-0.175-0.124-0.175-0.489
	c0-0.613-0.114-0.678-1.495-0.851c-0.821-0.103-1.835-0.362-2.252-0.578c-0.52-0.269-1.174-0.349-2.08-0.253
	c-2.281,0.24-5.912,1.188-7.625,1.989c-1.728,0.808-4.604,3.308-4.907,4.263c-0.174,0.547-0.175,0.547-0.389-0.033
	c-0.118-0.319-0.336-0.58-0.483-0.58c-0.449,0-0.286,0.854,0.365,1.913c1.32,2.149,5.725,3.67,10.146,3.503
	c2.377-0.09,2.741-0.174,4.084-0.945c1.885-1.082,3.165-2.502,3.006-3.337c-0.064-0.337,0.038-0.818,0.229-1.069
	c0.313-0.413,0.346-0.389,0.354,0.269c0.004,0.397-0.164,1.134-0.373,1.636c-0.448,1.072-2.623,3.91-3.152,4.113
	c-0.201,0.078-0.367,0.269-0.367,0.424C-240.668,442.757-239.064,441.541-238.09,440.25L-238.09,440.25z M-233.572,441.859
	c0.072-0.188,0.6-0.48,1.173-0.652c2.116-0.635,4.015-1.691,5.494-3.062c1.296-1.199,1.546-1.58,1.696-2.587
	c0.15-1.004,0.075-1.346-0.502-2.275c-2.111-3.4-2.811-3.934-4.809-3.669l-1.289,0.171l0.15,1.098
	c0.125,0.912,0.027,1.293-0.578,2.243c-0.401,0.63-1.13,1.572-1.619,2.095c-0.971,1.037-1.315,1.574-2.137,3.326
	c-0.52,1.111-0.523,1.19-0.094,1.988c0.246,0.456,0.807,1.002,1.248,1.214C-233.785,442.254-233.726,442.26-233.572,441.859z
	 M-270.438,441.516c4.849-0.131,5.458-0.198,5.225-0.575c-0.292-0.474-4.341-0.586-6.625-0.184c-1.231,0.217-2.678,0.46-3.214,0.541
	s-0.975,0.271-0.975,0.423c0,0.156,0.197,0.199,0.455,0.1C-275.322,441.723-273.011,441.586-270.438,441.516L-270.438,441.516z
	 M-284.499,441.263c0.226-0.087,0.411-0.271,0.411-0.408c0-0.361-1.109-0.146-1.236,0.241
	C-285.44,441.449-285.143,441.51-284.499,441.263z M-295.333,438.656c0.657-0.176,0.796-0.615,0.195-0.615
	c-0.5,0-0.493-0.258,0.03-1.004c0.403-0.576,0.396-0.598-0.169-0.514c-0.324,0.048-0.825,0.403-1.112,0.79
	c-0.433,0.583-0.466,0.772-0.189,1.104C-296.204,438.868-296.156,438.877-295.333,438.656z M-269.102,438.431
	c-0.123-0.319,0.13-0.39,1.402-0.39c0.861,0,1.552-0.116,1.552-0.26s-0.117-0.261-0.26-0.261s-0.231-0.146-0.195-0.325
	c0.068-0.34,1.983-0.961,2.99-0.97c0.322-0.003,0.585-0.1,0.585-0.216c0-0.268-3.275,0.079-4.242,0.45
	c-0.923,0.354-0.958,0.352-0.958-0.056c0-0.33,1.871-0.964,2.849-0.964c0.275,0,0.584-0.135,0.687-0.3
	c0.258-0.418-4.464-0.053-5.409,0.418c-0.387,0.193-1.557,0.486-2.6,0.653c-2.571,0.409-3.855,0.756-4.617,1.243
	c-0.61,0.391-0.617,0.42-0.13,0.609c0.281,0.109,1.505,0.221,2.72,0.246c1.796,0.038,4.227,0.244,5.553,0.472
	C-269.052,438.804-269.019,438.645-269.102,438.431z M-223.869,434.011c-0.088-0.215-0.236-0.585-0.332-0.823
	c-0.118-0.292-0.076-0.371,0.13-0.244c0.2,0.124,0.304-0.029,0.304-0.449c0-0.51-0.414-0.953-0.889-0.953
	c-0.138,0-0.137,1.968,0.001,2.404c0.079,0.25,0.323,0.455,0.544,0.455C-223.859,434.4-223.77,434.257-223.869,434.011
	L-223.869,434.011L-223.869,434.011z M-261.579,433.318c0.923,0.033,2.11-0.226,3.957-0.861c1.451-0.499,3.11-0.982,3.687-1.075
	c0.576-0.093,1.049-0.27,1.049-0.395c0-0.36-1.459-0.263-2.542,0.17c-0.545,0.218-1.396,0.437-1.891,0.483
	c-0.494,0.048-1.425,0.211-2.068,0.363s-2.048,0.414-3.12,0.584c-1.073,0.168-2.122,0.359-2.333,0.424
	c-0.737,0.225,0.323,0.621,1.163,0.434C-263.249,433.351-262.304,433.293-261.579,433.318L-261.579,433.318z M-254.577,433.346
	c1.71-0.449,1.802-0.497,1.511-0.788c-0.182-0.181-0.774-0.116-1.863,0.204C-257.271,433.449-256.958,433.969-254.577,433.346
	L-254.577,433.346z"/>
<path id="path3038" inkscape:connector-curvature="0" fill="#CCCCCC" d="M-239.202,426.989c-0.409-0.214-1.229-0.397-1.819-0.407
	c-1.721-0.029-1.967-0.217-1.563-1.191c0.323-0.783,0.383-0.81,1.318-0.599c0.539,0.122,1.022,0.349,1.074,0.503
	c0.052,0.156,0.785,0.632,1.63,1.059c0.844,0.426,1.535,0.832,1.535,0.9C-237.027,427.533-238.504,427.354-239.202,426.989z"/>
<path id="path3040" inkscape:connector-curvature="0" fill="#CCCCCC" d="M-274.857,465.47c-0.143-0.05-1.137-0.356-2.21-0.683
	c-2.29-0.694-3.556-1.451-5.316-3.178c-1.193-1.17-1.25-1.281-0.78-1.535c0.278-0.151,0.953-0.623,1.499-1.05l0.993-0.775
	l3.656,0.29c2.011,0.16,3.75,0.232,3.866,0.16c0.116-0.07,2.119-0.247,4.452-0.391c2.333-0.143,5.294-0.441,6.581-0.663
	c2.682-0.462,5.011-1.145,18.33-5.376c2.932-0.932,5.856-1.838,6.5-2.014c1.69-0.463,6.836-0.623,8.285-0.258
	c2.654,0.668,8.576,1.595,10.045,1.572c0.857-0.014,2.145-0.129,2.859-0.257s1.67-0.295,2.121-0.371l0.82-0.14l-0.262,0.965
	c-0.346,1.266-0.637,1.589-1.275,1.422c-0.291-0.076-0.805,0.01-1.144,0.191c-0.339,0.181-0.813,0.253-1.056,0.16
	c-0.242-0.094-0.572-0.069-0.732,0.053c-0.161,0.122-1.025,0.49-1.923,0.818c-1.532,0.561-2.087,0.928-1.814,1.201
	c0.065,0.064,0.456-0.061,0.871-0.276c0.961-0.501,1.429-0.503,1.237-0.007c-0.154,0.402,0.436,0.555,0.787,0.203
	c0.152-0.151,1.979-0.346,1.979-0.209c0,0.021-0.225,0.5-0.499,1.062c-0.566,1.161-2.111,2.715-3.271,3.289
	c-2.266,1.122-2.787,1.326-3.537,1.385c-0.449,0.035-0.899,0.197-1,0.359c-0.1,0.161-1.281,0.588-2.627,0.948
	c-1.875,0.502-2.766,0.614-3.816,0.483c-0.878-0.109-1.369-0.074-1.369,0.098c0,0.147,0.146,0.327,0.325,0.399
	c0.179,0.071-0.845,0.138-2.274,0.147c-3.076,0.02-3.619-0.184-2.557-0.957c0.404-0.295,0.648-0.623,0.541-0.729
	c-0.308-0.309-1.534,0.374-1.681,0.935c-0.132,0.506-0.696,0.524-1.895,0.062c-0.214-0.082-1.033-0.172-1.819-0.2
	c-0.787-0.027-2.059-0.202-2.825-0.388c-1.142-0.277-2.225-0.278-5.979-0.004c-2.522,0.184-5.112,0.443-5.756,0.577
	s-2.574,0.479-4.29,0.765c-3.343,0.558-4.133,0.727-7.126,1.528C-269.664,465.545-273.95,465.783-274.857,465.47L-274.857,465.47z
	 M-269.573,464.475c0.049-0.252-0.082-0.434-0.31-0.434c-0.483,0-0.774,0.424-0.546,0.793
	C-270.194,465.215-269.674,464.996-269.573,464.475z M-278.479,462.283c-0.087-0.087-0.301-0.015-0.476,0.16
	c-0.251,0.252-0.237,0.37,0.069,0.562c0.276,0.173,0.413,0.126,0.476-0.161C-278.361,462.621-278.392,462.369-278.479,462.283z
	 M-260.593,462.611c0.1-0.262-0.011-0.391-0.334-0.391c-0.266,0-0.551,0.176-0.634,0.391c-0.1,0.26,0.011,0.389,0.334,0.389
	C-260.961,463-260.676,462.825-260.593,462.611z M-255.748,461.922c0.255-0.147-0.008-0.203-0.76-0.158
	c-0.632,0.037-1.197,0.213-1.256,0.39C-257.879,462.506-256.475,462.346-255.748,461.922L-255.748,461.922z M-280.434,461.83
	c-0.021-0.385-0.602-0.314-0.737,0.09c-0.073,0.219,0.046,0.316,0.317,0.261C-280.615,462.131-280.426,461.974-280.434,461.83z
	 M-274.004,461.221c0.075-0.224-0.051-0.317-0.347-0.26c-0.255,0.049-0.516,0.247-0.58,0.439c-0.075,0.224,0.05,0.317,0.347,0.26
	C-274.329,461.611-274.068,461.413-274.004,461.221z M-281.006,460.771c0.404-0.887,0.071-1.414-0.379-0.602
	c-0.189,0.342-0.348,0.768-0.353,0.945C-281.754,461.674-281.325,461.472-281.006,460.771z M-263.461,460.561
	c0.496-0.757,0.344-0.939-0.78-0.939c-0.597,0-0.867,0.121-0.867,0.39c0,0.214,0.176,0.39,0.39,0.39s0.39,0.176,0.39,0.391
	C-264.327,461.371-263.921,461.263-263.461,460.561z M-236.508,460.969c0-0.384,2.021-1.357,4.121-1.986
	c3.017-0.902,5.459-1.185,9.327-1.076c2.888,0.081,3.572,0.025,4.276-0.354c0.853-0.457,1.275-1.053,0.748-1.053
	c-0.16,0-0.55,0.164-0.866,0.363c-0.414,0.262-1.891,0.4-5.256,0.496c-3.079,0.088-5.192,0.273-6.177,0.545
	c-1.623,0.445-2.793,0.46-2.793,0.035c0-0.15-0.605-0.272-1.365-0.277c-0.751-0.005-2.433-0.108-3.736-0.23
	c-2.21-0.205-2.457-0.179-3.595,0.39c-1.549,0.774-1.662,0.976-0.896,1.593c1.272,1.028,3.18,1.736,4.718,1.752
	C-237.18,461.174-236.508,461.085-236.508,460.969L-236.508,460.969z M-279.312,459.871c-0.346-0.346-1.004,0.371-0.736,0.803
	c0.13,0.211,0.303,0.177,0.596-0.116C-279.165,460.27-279.122,460.062-279.312,459.871L-279.312,459.871z M-276.688,460.123
	c-0.193-0.312-0.899-0.315-0.899-0.004c0,0.281,0.564,0.52,0.849,0.358C-276.628,460.416-276.606,460.256-276.688,460.123
	L-276.688,460.123z M-269.801,460.367c0.547-0.191,0.733-0.363,0.528-0.49c-0.411-0.254-1.621,0.072-1.754,0.473
	C-271.156,460.737-270.876,460.741-269.801,460.367L-269.801,460.367z M-265.107,459.101c0-0.144-0.234-0.26-0.52-0.26
	s-0.52,0.116-0.52,0.26s0.234,0.261,0.52,0.261S-265.107,459.244-265.107,459.101z M-261.428,458.711c0-0.137-0.126-0.289-0.28-0.34
	c-0.153-0.052-0.279,0.102-0.279,0.34s0.126,0.391,0.279,0.34C-261.554,459-261.428,458.847-261.428,458.711z M-244.438,458.061
	c-0.088-0.143-0.486-0.26-0.885-0.26s-0.936-0.233-1.193-0.519c-0.508-0.561-1.91-1.038-3.057-1.04
	c-1.239-0.002-0.777,0.401,0.841,0.736c1.06,0.219,1.644,0.484,1.829,0.832c0.21,0.392,0.547,0.51,1.449,0.51
	C-244.734,458.32-244.34,458.219-244.438,458.061z M-246.777,455.98c0-0.19-0.146-0.395-0.325-0.455
	c-0.193-0.064-0.325,0.12-0.325,0.455c0,0.336,0.132,0.52,0.325,0.455C-246.924,456.376-246.777,456.172-246.777,455.98z
	 M-233.443,454.724c0.077-0.235-0.076-0.319-0.479-0.26c-0.327,0.048-0.646,0.243-0.708,0.434c-0.078,0.235,0.076,0.319,0.479,0.261
	C-233.825,455.109-233.507,454.914-233.443,454.724z M-243.787,454.551c0.27-0.324,0.236-0.391-0.197-0.391
	c-0.285,0-0.665,0.176-0.843,0.391c-0.27,0.324-0.237,0.39,0.196,0.39C-244.346,454.94-243.965,454.766-243.787,454.551z
	 M-223.413,454.031c0.111-0.291-0.04-0.391-0.591-0.391c-0.406,0-0.885,0.176-1.063,0.391c-0.277,0.334-0.192,0.39,0.591,0.39
	C-223.904,454.421-223.508,454.275-223.413,454.031z M-231.949,453.264c0.496-0.207,0.902-0.438,0.902-0.514
	c0-0.217-1.625,0.149-2.34,0.527c-0.647,0.341-0.648,0.343-0.057,0.354C-233.117,453.636-232.445,453.471-231.949,453.264z"/>
</svg>
