<?xml version="1.0" encoding="utf-8"?>
<!-- Generator: Adobe Illustrator 15.1.0, SVG Export Plug-In . SVG Version: 6.00 Build 0)  -->
<!DOCTYPE svg PUBLIC "-//W3C//DTD SVG 1.1//EN" "http://www.w3.org/Graphics/SVG/1.1/DTD/svg11.dtd">
<svg version="1.1"
	 id="svg2" xmlns:inkscape="http://www.inkscape.org/namespaces/inkscape" sodipodi:docname="styracosaurus.svg" inkscape:version="0.48.2 r9819" xmlns:sodipodi="http://sodipodi.sourceforge.net/DTD/sodipodi-0.dtd" xmlns:svg="http://www.w3.org/2000/svg" xmlns:sketch="http://www.bohemiancoding.com/sketch/ns" xmlns:rdf="http://www.w3.org/1999/02/22-rdf-syntax-ns#" xmlns:cc="http://creativecommons.org/ns#" xmlns:dc="http://purl.org/dc/elements/1.1/"
	 xmlns="http://www.w3.org/2000/svg" xmlns:xlink="http://www.w3.org/1999/xlink" x="0px" y="0px" width="100px" height="100px"
	 viewBox="-310.5 393 100 100" enable-background="new -310.5 393 100 100" xml:space="preserve">
<sodipodi:namedview  borderopacity="1" objecttolerance="10" id="namedview60" inkscape:window-width="937" inkscape:zoom="2.5376344" bordercolor="#666666" pagecolor="#ffffff" gridtolerance="10" guidetolerance="10" inkscape:pageopacity="0" inkscape:pageshadow="2" inkscape:window-height="669" inkscape:cy="46.5" showgrid="false" inkscape:cx="45" inkscape:window-x="131" inkscape:window-y="100" inkscape:window-maximized="0" inkscape:current-layer="svg2">
	</sodipodi:namedview>
<title  id="title4">styracosaurus</title>
<desc  id="desc6">Created with Sketch.</desc>
<g id="Page-1" sketch:type="MSPage">
	<g id="styracosaurus" sketch:type="MSLayerGroup">
		<path id="Fill-1" sketch:type="MSShapeGroup" d="M-223.889,405.211h0.387c-0.337,1.099-1.413,1.662-2.058,2.466
			c-0.494,0.617-0.668,1.454-1.415,1.817C-226.181,407.828-224.781,406.774-223.889,405.211"/>
		<path id="Fill-2" sketch:type="MSShapeGroup" d="M-235.331,409.363c-0.02,1.105-0.801,1.441-0.771,2.596
			c0.04,0.176,0.321,0.107,0.515,0.13c-0.014,0.331-0.432,0.258-0.771,0.261c-0.236-0.595-0.023-1.483,0.385-1.818
			c-0.031-0.141-0.255-0.088-0.256-0.259c-0.022-0.368,0.434-0.253,0.256-0.778C-235.61,409.602-235.641,409.311-235.331,409.363"/>
		<path id="Fill-3" sketch:type="MSShapeGroup" d="M-228.773,410.402c0.527,0.439-0.943,1.723,0.257,1.947
			c-0.87,0.852-0.735-1.008-0.771-1.559C-228.967,410.814-228.977,410.501-228.773,410.402"/>
		<path id="Fill-4" sketch:type="MSShapeGroup" d="M-231.217,416.241c-0.299-0.692,0.445-1.451,0.643-2.076
			C-230.336,414.798-231.059,415.576-231.217,416.241"/>
		<path id="Fill-5" sketch:type="MSShapeGroup" d="M-230.316,414.425c0.104,0.068,0.208,0.135,0.386,0.13
			c0.121,0.491-0.863,1.027-0.129,1.297c-0.067,0.105-0.135,0.211-0.128,0.39C-231.334,416.163-230.453,415.031-230.316,414.425"/>
		<path id="Fill-6" sketch:type="MSShapeGroup" d="M-223.502,416.371c-0.316,0.459-0.954,0.596-1.415,0.908
			c-0.329,0.619-0.8,1.096-1.542,1.298C-225.531,417.784-225.031,416.559-223.502,416.371"/>
		<path id="Fill-7" sketch:type="MSShapeGroup" d="M-228.131,421.562c-0.008,0.684-0.542,0.837-1.029,1.037
			c0.035-0.236,0.463-0.727,0.129-0.908C-228.785,421.427-228.473,421.432-228.131,421.562"/>
		<path id="Fill-8" sketch:type="MSShapeGroup" d="M-230.703,423.25h0.644c0.235,0.58-0.538,0.676,0,1.297
			c-0.897,0.33-0.263,1.185-0.128,1.816c-0.557,0-0.593-0.527-0.9-0.779C-230.925,424.666-230.771,424.375-230.703,423.25"/>
		<path id="Fill-9" sketch:type="MSShapeGroup" d="M-222.217,425.455c-1.754,0.219-2.971,0.981-4.5,1.428
			c0.865-1.074,2.801-1.066,3.986-1.817C-222.395,425.029-222.178,425.113-222.217,425.455"/>
		<path id="Fill-10" sketch:type="MSShapeGroup" d="M-224.788,426.623c0.229,0.095,0.019,0.236,0,0.389
			c-1.075,0.256-1.679,0.989-2.571,1.428c-0.318,0.154-0.155,0.795-0.771,0.648C-227.747,427.529-225.879,427.469-224.788,426.623"
			/>
		<path id="Fill-11" sketch:type="MSShapeGroup" d="M-234.56,430.516h0.257c-0.023,0.11,0.051,0.123,0.129,0.13
			c-0.303,0.307-0.039,1.484-0.643,1.817c0.115,0.506,0.473-0.431,0.514,0c0.31,0.438-0.666,0.479-0.9,0.778
			c-0.314,1.03-0.814,1.645-0.643,2.595c-0.289,0.314-0.539,0.666-0.771,1.039c-0.629,0.017-0.01-0.719,0-0.779
			c0.037-0.225-0.193-0.286-0.128-0.52c0.294-1.035,1.209-2.297,1.8-2.984c-0.068-0.104-0.134-0.211-0.129-0.389
			c-1.619,1.152-2.828,3.35-2.957,5.58c-0.334-0.242-0.207-0.682-0.129-1.168c0.264-1.61,1.486-3.658,2.701-4.412
			C-235.447,431.35-234.424,431.519-234.56,430.516"/>
		<path id="Fill-12" sketch:type="MSShapeGroup" d="M-228.773,433.5c0.141,0.922-0.662,0.89-0.771,1.559
			c-0.432-0.43,0.396-0.834,0-1.299C-229.305,433.656-229.074,433.543-228.773,433.5"/>
		<path id="Fill-13" sketch:type="MSShapeGroup" d="M-227.874,434.668c-0.675,0.616-1.237,1.348-2.057,1.817
			C-229.528,435.595-228.99,434.84-227.874,434.668"/>
		<path id="Fill-14" sketch:type="MSShapeGroup" d="M-297.945,435.447c0.149-0.021,0.229,0.028,0.257,0.129
			c-0.112,1.868-0.258,2.944-0.643,4.672c-0.091,0.41,0.057,1.184-0.514,1.428C-298.299,439.565-298.151,437.854-297.945,435.447"/>
		<path id="Fill-15" sketch:type="MSShapeGroup" d="M-230.188,436.485c0.301,0.033,0.074,0.57,0,0.648
			C-230.488,437.102-230.262,436.564-230.188,436.485"/>
		<path id="Fill-16" sketch:type="MSShapeGroup" d="M-234.688,440.897c0.493,0.53-0.408,1.695-0.258,2.725
			c-0.484,0.101-0.615-0.158-1.029-0.13c-0.944,0.172,0.195,2.445-0.771,2.596c-0.038-0.887-0.188-2.246,0.386-2.855
			c0.586-0.02,0.504-0.107,1.028,0C-235.01,442.587-235.076,441.721-234.688,440.897"/>
		<path id="Fill-17" sketch:type="MSShapeGroup" d="M-296.917,444.791c0.091,0.636,0.589,1.433,0.386,1.945
			C-297.093,446.325-297.041,445.272-296.917,444.791"/>
		<path id="Fill-18" sketch:type="MSShapeGroup" d="M-298.203,446.088h0.386c0.074,0.705-0.473,1.496,0.386,1.557
			c-0.112,0.414-0.516,0.44-0.9,0.26c-0.5,0.103,0.057,1.27-0.643,1.168C-299.068,448.22-298.249,447.225-298.203,446.088"/>
		<path id="Fill-19" sketch:type="MSShapeGroup" d="M-274.417,446.736c0.471,0.045,0.481,0.555,0.901,0.649
			c-0.252,0.603-0.841-0.128-1.285-0.13C-274.915,446.84-274.469,446.987-274.417,446.736"/>
		<path id="Fill-20" sketch:type="MSShapeGroup" d="M-296.917,449.072c0.159-0.395,0.443,0.141,0.772,0
			c-0.03,0.81,0.733,0.278,0.771,1.169c-0.909-0.454-0.551,0.179-1.414,0.259C-296.916,449.826-296.777,449.398-296.917,449.072"/>
		<path id="Fill-21" sketch:type="MSShapeGroup" d="M-238.932,449.852c-0.393,0.094-0.468-0.133-0.771-0.13
			c0.371,1.379-1.34,1.403-1.671,2.466c-0.612-0.111-0.325-0.639-0.257-0.779c0.107-0.223,0.814-0.309,1.029-0.52
			c0.625-0.613,0.316-1.039,0.771-1.686C-239.349,449.234-238.791,449.19-238.932,449.852"/>
		<path id="Fill-22" sketch:type="MSShapeGroup" d="M-294.603,449.592h0.386c0.548,0.831,1.038,1.72,1.414,2.725
			c-0.888-0.228-0.854-1.387-1.285-2.075C-294.104,449.867-294.636,450.016-294.603,449.592"/>
		<path id="Fill-23" sketch:type="MSShapeGroup" d="M-246.773,451.798h0.899c0.089,0.349-0.266,0.251-0.386,0.39
			c0.51,0.313,0.792,0.059,1.157,0.519c-0.61,0.396-1.337-0.205-1.8-0.39C-246.803,452.201-246.764,452.024-246.773,451.798"/>
		<path id="Fill-24" sketch:type="MSShapeGroup" d="M-276.731,452.188c0.518,0.125,0.406,0.496,0.514,0.778
			c0.348-0.081,0.32-0.542,0.771-0.519c-0.043,0.647-0.494,0.886-1.029,1.038c0.076-0.414-0.241-0.401,0-0.649
			c-0.631-0.118-0.489,0.544-1.028,0.52C-277.842,452.816-276.991,452.535-276.731,452.188"/>
		<path id="Fill-25" sketch:type="MSShapeGroup" d="M-273.902,452.316h0.386c-0.408,0.458-0.075,0.603,0,1.169
			c-0.621,0.843-0.992,1.94-2.572,1.815c-1.049,0.672-1.814,1.631-2.571,2.596c0.076-1.308,1.722-2.154,2.443-3.244
			c0.547,0.27,0.815,0.238,1.415,0C-274.846,453.912-273.929,453.381-273.902,452.316"/>
		<path id="Fill-26" sketch:type="MSShapeGroup" d="M-249.988,452.706c-0.641,1.126-2.227,0.006-2.828-0.13
			c0.348-0.682,1.144,0.273,1.671,0.26C-250.647,452.905-250.518,452.604-249.988,452.706"/>
		<path id="Fill-27" sketch:type="MSShapeGroup" d="M-294.86,453.225c0.352-0.094,0.259,0.258,0.515,0.261
			c-0.592,0.623-1.812,0.67-2.572,0.778C-296.954,452.828-295.112,454.203-294.86,453.225"/>
		<path id="Fill-28" sketch:type="MSShapeGroup" d="M-291.774,453.225c0.284,0.017,0.055,0.551,0.128,0.779
			c-0.537-0.139-0.65-0.117-1.029,0.129c-0.144-0.408-0.011-0.293,0-0.777C-292.407,453.278-291.829,453.516-291.774,453.225"/>
		<path id="Fill-29" sketch:type="MSShapeGroup" d="M-252.688,453.874c0.631,0.12,0.154,1.372,1.027,0.908
			c-0.103,0.545-0.551,0.741-1.027,0.909c0.277-0.401,0.161-0.957-0.258-1.299C-252.879,454.201-252.756,454.066-252.688,453.874"/>
		<path id="Fill-30" sketch:type="MSShapeGroup" d="M-240.859,454.393c0.586,0.316-0.587,0.682-0.9,0.908
			C-242.146,454.751-241.014,454.811-240.859,454.393"/>
		<path id="Fill-31" sketch:type="MSShapeGroup" d="M-245.745,455.561c0.22-0.026,0.333,0.223,0.386,0
			c0.252,0.434-0.409,1.055-0.771,1.298C-246.574,456.285-245.75,456.093-245.745,455.561"/>
		<path id="Fill-32" sketch:type="MSShapeGroup" d="M-264.388,460.622c-1.008-0.548-2.64-0.991-3.472-0.39
			c-0.161-0.355-0.809-0.221-0.771-0.778c0.691,0.131,1.754-0.581,2.186,0.13C-265.606,459.459-264.166,459.756-264.388,460.622"/>
		<path id="Fill-33" sketch:type="MSShapeGroup" d="M-278.016,460.103c-0.178,0.21-0.456,0.319-0.386,0.778
			c0.465,0.297,0.616,0.139,1.157,0.26c0.12,0.641-0.157,0.881-0.387,1.168c-0.544,0.031-0.91-0.119-1.285-0.26
			C-279.097,461.18-278.905,460.017-278.016,460.103L-278.016,460.103z M-278.146,461.92c0.221,0.007,0.33-0.1,0.386-0.26
			C-277.981,461.652-278.089,461.76-278.146,461.92L-278.146,461.92z"/>
		<path id="Fill-34" sketch:type="MSShapeGroup" d="M-272.617,462.18c-0.051,0.424-0.63,0.315-1.029,0.389v1.168
			c-0.873-0.146-0.315-1.179,0-1.557C-273.195,462.361-272.822,461.815-272.617,462.18"/>
		<path id="Fill-35" sketch:type="MSShapeGroup" d="M-262.203,465.293c0.813,0.479,1.362,1.221,1.671,2.207
			c-0.753-0.45-0.785-1.631-1.928-1.688C-262.393,465.621-262.27,465.485-262.203,465.293"/>
		<path id="Fill-36" sketch:type="MSShapeGroup" d="M-251.66,465.553h0.515c0.085,0.566,0.425,0.441,0.901,0.39
			c0.34,0.335-0.02,0.624,0.385,0.778C-250.369,466.758-251.651,466.455-251.66,465.553"/>
		<path id="Fill-37" sketch:type="MSShapeGroup" d="M-280.846,466.592c-0.113,0.707-0.446,1.193-0.514,1.945
			C-281.975,468.41-281.57,466.594-280.846,466.592"/>
		<path id="Fill-38" sketch:type="MSShapeGroup" d="M-279.688,468.02c0.094,1.352-1.483,2.018-2.572,2.075
			c0.718-0.702,1.878-0.96,2.186-2.075H-279.688"/>
		<path id="Fill-39" sketch:type="MSShapeGroup" d="M-278.788,468.148c0.567,0.041,0.044,0.912-0.385,0.778
			C-279.123,468.59-278.791,468.536-278.788,468.148"/>
		<path id="Fill-40" sketch:type="MSShapeGroup" d="M-259.117,468.668c0.514-0.085,0.369,0.493,0.387,0.908
			c0.583,0.607,1.016,0.615,2.186,0.519C-257.42,471.502-259.657,469.906-259.117,468.668"/>
		<path id="Fill-41" sketch:type="MSShapeGroup" d="M-259.888,476.583c0.427,0.478,0.37,1.443,0.643,2.077
			C-260.041,478.321-259.691,477.438-259.888,476.583"/>
		<path id="Fill-42" sketch:type="MSShapeGroup" d="M-268.502,480.606c0.131,0.958-1.744,0.7-1.929,0.13
			C-269.742,480.65-269.329,480.716-268.502,480.606"/>
		<path id="Fill-43" sketch:type="MSShapeGroup" d="M-232.374,410.013c0.77-0.694,1.651-1.274,2.058-2.336
			c0.566-0.266,1.105-0.722,1.671-1.168c1.321-1.042,2.815-1.919,4.243-2.984c-0.068,0.052,0.088,0.171,0.129,0.13
			c0.199-0.203,0.057-0.127,0.385-0.26c0.419-0.17,1.687-0.753,2.572-1.168c0.831-0.39,2.343-1.184,3.6-0.648
			c-0.312,1.459-1.722,1.809-2.057,3.244c-3.182,2.975-6.021,6.295-7.457,11.029c2.344-1.194,5.496-2.293,8.742-2.595
			c0.706-0.065,2.006-0.298,2.186,0.649c-1.123,0.404-2.498,1.612-3.729,2.335c-0.87,1.198-2.364,1.767-3.086,3.114
			c-1.197,0.538-1.891,1.648-2.699,2.596c-0.778,0.912-1.748,1.738-2.314,2.855c2.551-0.716,5.693-1.576,8.229-1.299
			c1.178,0.74,2.744,0.226,3.985,1.039c0.071,0.977-1.084,0.952-1.671,1.168c-1.844,0.677-3.896,1.653-5.143,2.984
			c-1.576,0.616-2.721,1.666-3.857,2.725c2.664-0.584,4.064-1.24,7.199-0.908c0.084,0.646-0.356,0.765-0.514,1.168
			c-0.414-0.027-0.544,0.229-1.029,0.131c-2.975,1.538-5.505,3.525-7.714,5.838c0.099,0.49-0.157,0.621-0.128,1.039
			c-0.439,0.248-0.771,0.605-1.414,0.648c0.413,0.378-0.024,0.767,0,1.168c0.024,0.428,0.319,0.689,0.385,1.168
			c0.094,0.678-0.254,1.482-0.128,2.466c-0.585,0.836-1.628,1.142-2.187,1.817c-0.057,0.068,0.065,0.33,0,0.389
			c-0.477,0.424-0.13,0.998-0.385,1.816c-0.254,0.812-0.814,1.121-1.286,1.816c-2.203-0.255-2.363,1.451-2.829,3.244
			c-0.199,0.771-0.29,1.402-0.385,1.947c-0.024,0.137-0.219,0.104-0.258,0.26c-0.195,0.772-0.312,1.133-1.157,1.427
			c0.052-0.018-0.068-0.19-0.128-0.129c-0.018,0.018,0.018,0.257,0,0.259c-0.641,0.09-1.17-0.444-1.93-0.259
			c-0.55,0.134-0.604,0.584-1.285,0.778c-0.256-0.131-0.293-0.482-0.514-0.649c-0.474,0.337-1.02,0.597-1.286,1.168
			c-0.244,0.522-0.089,1.175-0.257,1.687c-0.51,1.555-1.731,2.318-3.344,2.336c-0.682,0.221-0.408,1.404-1.156,1.558
			c0.699,1.101,0.664,2.553,0.514,4.022c0.523,0.604,0.803,1.315,0.771,2.077c-0.021,0.516-0.397,0.9-0.514,1.427
			c-0.049,0.219,0.159,0.463,0.128,0.779c-0.024,0.24-0.253,0.455-0.257,0.648c-0.02,0.905,0.227,1.893,0.386,2.855
			c1.624,1.223,3.118,3.653,1.414,5.839c-0.278,0.356-1.325,1.168-1.8,1.428c-0.133,0.072-0.373-0.058-0.514,0
			c-0.627,0.255-1.342,0.888-2.187,1.298c-0.573,0.277-1.825,1.186-2.186,1.297c-0.792,0.246-1.815,0.254-2.571,0.26
			c-1.256,0.01-2.086-0.652-3.215-0.389c-0.961,0.224-1.455,1.062-2.7,1.298c-0.322,0.061-0.579,0.358-0.771,0.389
			c-1.084,0.169-2.26-0.03-3.343,0.13c-0.251,0.037-0.165,0.234-0.257,0.26c-0.301,0.082-0.81-0.039-1.157,0
			c-0.372,0.041-0.723,0.069-1.029,0.129c-1.11,0.219-1.863,0.593-3.085,0.649c-1.343,0.062-3.587,1.091-4.629,1.038
			c-0.405-0.021-0.719-0.257-1.028-0.26c-1.252-0.009-1.84,0.479-2.828,0c-0.34-0.039-0.332,0.271-0.386,0.52
			c-0.775-0.559-1.854-0.81-2.186-1.816c-2.3-0.552-3.616-1.568-5.657-2.467c-0.801-0.494-1.817-1.228-2.7-1.945
			c-1.072-0.873-1.975-1.305-2.7-2.596c-0.245-0.437-0.569-1.105-0.256-1.557c3.118,1.225,5.809,1.666,9.128,1.427
			c0.583-0.042,1.28-0.134,1.8-0.26c0.659-0.16,1.304-0.432,2.186-0.778c0.532-0.209,1.07-0.613,1.414-0.648
			c0.964-0.099,1.944,0.344,2.443-0.649c1.339,0.081,3.112,0.508,4.114-0.39c0.782,0.055,1.372-0.086,1.8-0.389
			c0.798,0.482,2.073-0.052,2.957-0.26c0.924,0.61,1.639,0.206,2.443,0c0.751-0.191,1.728,0.028,2.314-0.648
			c0.298,0.088,0.344,0.432,0.643,0.519c0.825-2.327-1.905-1.882-2.957-2.984c-0.212-0.694-0.042-1.774-0.771-1.946
			c-0.125-0.473,0.626-0.061,0.386-0.648c-0.583-0.241-0.583,1.107-1.157,1.297c-1.887-0.041-3.847,0.654-6.043,0.52
			c-2.009,0.705-3.819-0.057-5.786,0.648c-0.464-0.224-0.692-0.686-0.771-1.298c-1.078-0.274-2.143,0.515-2.443-0.13
			c-0.955,0.584-2.815,0.766-4.5,0.649c-0.417,0.104-0.37,0.587-0.9,0.259c-0.229,0.244-0.459,0.488-0.643,0.779
			c-2.122,0.529-3.566,1.071-5.786,0.648c-0.949-0.549-1.935-2.105-3.472-1.557c-0.76,0.271-1.743,1.256-2.443,1.945
			c-0.349,0.346-0.84,0.648-1.029,0.909c-0.647,0.896-0.569,2.01-1.028,2.595c-1.049-0.186-1.179-1.434-1.542-2.205
			c-0.195-0.411-0.432-0.861-0.643-1.299c-0.401-0.832-0.69-1.926-1.415-2.984c-0.052-0.691-0.176-1.219-0.257-1.816
			c-0.031-0.232-0.251-0.523-0.257-0.648c-0.098-1.896,0.396-4.337,1.029-6.1c0.365-1.016,1.118-1.822,1.157-2.854
			c0.487-0.33,0.673-1.056,0.9-1.558c0.688-1.523,1.419-3.25,2.7-4.412c-0.714-1.705-0.813-3.148-1.286-5.19
			c-0.076-0.329-0.336-0.706-0.386-1.038c-0.098-0.647,0.049-1.301,0-1.947c-0.087-1.148-0.431-2.085-0.386-3.373
			c0.072-2.049,0.433-3.668,0.771-5.451c0.199-1.05,0.344-2.076,0.642-3.113c0.267-0.924,0.735-1.748,0.901-2.725
			c0.935-0.918,1.286-2.424,2.443-3.115c0.238-0.156,0.455-1.002,0.899-0.52c0.425,0.265,0.157,0.928,0.129,1.298
			c-0.194,2.503-0.77,5.352-0.257,7.656c0.177,0.797,0.706,1.467,0.9,2.466c0.226,1.158,0.258,2.331,0.514,3.504
			c0.528,2.422,1.131,4.84,2.829,6.229c-0.006,0.396,0.117,0.66,0.386,0.779c-0.151,0.424,0.17,0.996,0.257,1.557
			c1.376-0.088,2.798-0.899,4.243-0.908c0.317-0.002,0.595,0.172,0.9,0.129c2.514-0.346,4.45-2.266,6.429-3.113
			c1.012-0.874,3.137-2.316,1.928-4.153c0.395-0.769,1.052-1.274,1.801-1.687c0.226-0.545,0.152-0.77,0.514-1.298
			c0.231,0.358,0.964,0.354,1.286,0.26c0.626-0.608,1.567-1.349,2.958-1.298c1.461,0.055,2.673,1.314,3.471,1.947
			c0.547-0.077,0.979,0.101,1.543,0c0.35-0.064,0.041-0.125,0.514-0.391c0.374-0.209,2-1.017,2.443-1.557
			c0.543-0.664,0.593-1.729,1.157-2.466c0.451-0.588,1.438-1.057,1.671-1.946c1.909-0.191,2.819-1.4,3.729-2.984
			c0.473-0.823,1.101-1.779,1.285-2.465c0.234-0.874-0.002-1.4,0.386-2.467c0.121-0.334,0.548-0.586,0.386-1.038
			c0.955-0.378,1.52-1.148,2.571-1.427c1.235-0.73,2.032-1.665,2.958-2.855c0.364-0.47,0.797-0.921,1.027-1.298
			c0.158-0.257,0.098-0.621,0.258-0.908c0.282-0.505,0.881-1.147,1.285-1.817c0.27-0.443,0.501-0.988,0.771-1.427
			c0.255-0.411,0.504-0.981,0.771-1.298c0.734-0.867,1.764-1.178,2.443-2.076c1.044,0.059,1.288-0.689,2.186-0.777
			c0.203-0.488,0.535-0.846,0.514-1.559c3.662-6.055,8.099-11.959,15.172-14.145c0.401,0.114,0.291,0.745,0.515,1.038
			c-0.226-0.052-0.258,0.2-0.644,0.519c-1.057,0.877-2.057,2.254-3.084,3.635c-0.854,1.145-1.47,2.497-2.443,3.373
			C-230.818,406.912-231.941,408.113-232.374,410.013L-232.374,410.013z M-227.874,399.242c-1.342,0.203-1.913,1.183-3.085,1.557
			c-0.795,1.016-1.936,1.682-2.443,2.985c-2.404,1.942-4,4.7-5.4,7.655c0.406,0.675,0.025,1.504,0.771,1.947
			c1.331-0.335,2.393,0.316,2.314,1.557c-0.462-0.107-0.622,0.293-0.9,0c-0.093-0.396,0.223-0.381,0.129-0.778
			c-1.566,0.107-2.96-0.041-2.699-1.427c-1.125,0.292-1.661,0.553-2.443,1.037c-0.521,0.324-1.245,0.634-1.672,1.039
			c-0.402,0.382-0.767,1.221-1.285,1.947c-0.465,0.648-1.148,1.265-1.414,1.815c-0.104,0.214-0.021,0.581-0.129,0.778
			c-0.038,0.07-0.333,0.036-0.386,0.13c-0.118,0.212-0.022,0.556-0.129,0.778c-0.077,0.162-0.398,0.464-0.515,0.649
			c-0.377,0.605-0.579,0.724-0.899,1.169c-0.575,0.795-1.093,1.42-1.543,2.205c-0.573,0.226-0.991,0.625-1.414,0.908
			c-0.542,0.363-1.065,0.503-1.543,0.779c-1.065,0.614-1.606,1.668-1.8,3.113c-0.168,1.25-0.867,2.674-1.543,3.764
			c-0.139,0.225-0.146,0.625-0.258,0.779c-0.641,0.892-1.649,1.534-2.442,2.076c-0.729-0.088-0.868,0.422-1.414,0.52
			c-0.22,0.858-0.992,1.16-1.415,1.816c0.074,0.724-0.149,1.147-0.257,1.687c-1.218,0.631-2.246,1.454-3.086,2.466
			c0.44,0.119,0.921,0.195,1.286,0.389c0.078,0.527,0.312,0.897,0.514,1.298c0.772,0.007,1.666-0.082,2.186-0.649
			c0.606,0.082,1.561,1.136,1.671-0.129c-0.429-0.001-0.438,0.422-0.899,0.389c0.171-0.734-0.664-0.454-0.643-1.037
			c0.279,0.021,0.058-0.461,0.128-0.649c1-0.981,1.82-2.143,2.443-3.503c0.868-0.596,1.115-1.816,1.928-2.467
			c0.596,0.416,0.013,0.847-0.128,1.298c-0.487,1.562-1.521,3.483-2.314,4.931c0.328,0.016,0.661,0.025,0.644,0.391
			c-0.821,1.162-0.505,3.261,1.285,2.336c0.201,0.098,0.192,0.41,0.514,0.389c1.002-1.457,1.004-3.551,1.286-5.58
			c0.14-1.006,0.622-1.75,0.771-2.596c1.485-1.186,2.112-2.999,3.472-4.021c-0.311-0.119,0.291-0.384,0.129-0.779
			c1.553-1.4,1.762-3.409,2.57-5.061c0.664-0.456,1.094-1.146,1.415-1.947c1.719-0.141,1.155-3.078,1.671-4.023
			c0.376-0.34,0.74,0.116,1.286,0c0.146-0.328,0.646-0.299,0.771-0.648c-0.662-0.698,1.573-2.334,2.058-1.038
			c0.426,0.118,0.557-0.721,0.771-0.39c0.151,0.323,0.186,0.765,0.256,1.168c1.57,0.846,1.701,2.527,2.315,4.153
			c-0.4,1.154-1.204,1.899-1.415,3.244c0.167,0.469,0.532-0.07,0.643,0.39c-0.535,0.299,0.314,0.814,0.515,1.168
			c0.071,0.647-0.003,0.635,0.129,1.168c-1.231,1.829-1.224,4.906-2.829,6.357h-0.514c-0.483,2.469-2.205,4.654-3.729,6.488
			c-1.15,0.699-2.213,1.487-3.344,2.207c-0.164-0.008-0.178-0.167-0.385-0.13c0.041,0.327-0.238,0.328-0.387,0.39
			c-0.754,0.312-1.664,0.621-2.313,0.777c-0.176,0.043-0.292-0.145-0.386-0.129c-0.529,0.089-1.106,0.44-1.543,0.389
			c-0.012,0-0.097-0.25-0.129-0.26c-0.477-0.137-1.348-0.232-1.928-0.518c-0.489,0.111-0.619,0.586-1.286,0.518
			c-0.216-0.519-0.112-0.771-0.257-1.167c-0.922,0.375-2,0.229-2.058-0.909c-0.491-0.062-0.821,0.037-1.028,0.26
			c-0.328-0.273-0.358-0.85-0.9-0.908c-0.991,0.168-1.393,0.93-2.829,0.648c-0.125-0.502-0.133-1.148-0.385-1.427
			c-0.313-0.347-0.992-0.108-1.672-0.259c-0.211-0.047-0.1-0.236-0.386-0.26c-0.154-0.014-0.348,0.259-0.514,0.26
			c-0.593,0.001-1.255-0.552-1.8-0.26c-1.128-0.855-1.923-2.279-3.986-1.817c-0.377,0.351-0.519,0.557-1.028,0.909
			c-0.391,0.27-0.851,0.187-1.287,0.389c-0.572,0.266-1.59,1.032-1.799,1.297c-0.586,0.746,0.217,1.596-0.257,2.596
			c0.533,0.375,0.459,0.728,0.257,1.428c0.415,0.229,0.814,0.477,1.157,0.779c-0.202,0.647,0.261,1.184-0.386,1.297
			c-0.196-0.408-0.244-0.965-0.514-1.297c-1.229-0.081-1.661-0.062-2.701,0.129c-2.02,1.725-4.926,2.555-7.2,4.023
			c-0.137-0.121-0.04-0.479-0.386-0.39c-2.147,0.631-3.468,0.495-5.785,0.908c-0.116-0.229-0.311-0.378-0.386-0.649
			c0.226-0.117,0.235-0.454,0.386-0.648c-0.389-0.127-0.505-0.529-0.772-0.778c-0.523-1.42-1.599-2.561-2.186-4.153
			c-0.113-0.308-0.032-0.68-0.128-1.037c-0.133-0.49-0.5-0.99-0.643-1.558c-0.088-0.349-0.041-0.794-0.129-1.167
			c-0.076-0.324-0.333-0.612-0.385-0.909c0.004,0.024,0.146-0.339,0.128-0.519c-0.086-0.878-0.455-1.906-0.514-2.726
			c-0.236-3.275-0.101-5.622-0.258-8.175c-1.406,2.248-2.268,5.5-2.699,8.693c-0.107,0.789-0.001,1.549-0.128,2.076
			c-0.442,1.834-0.82,3.62-0.643,5.451c0.066,0.684,0.38,1.363,0.514,2.076c0.389,2.068,0.418,4.062,1.543,5.709
			c-0.672,1.39-2.397,2.283-2.7,4.412c-0.511,0.146-0.375,0.672-0.514,1.039c-0.159,0.418-0.437,0.85-0.643,1.297
			c-0.619,1.347-1.324,2.746-1.672,4.283c0.192,0.021,0.474-0.047,0.515,0.129c-0.24,1.278,0.485,2.596,1.028,3.504h0.772v0.649
			c0.79,0.376,1.875,0.681,2.957,0.389c0.211,0.526-0.68,0.598-0.257,0.909c0.08-0.309,0.791,0.02,0.9-0.26
			c0.268,0.23,0.85,0.604,0.514,1.037c-0.314-0.114-0.139-0.724-0.643-0.648c-0.655,0.19-0.752,0.162-1.286,0.39
			c-0.349-0.339-0.175-0.397,0-0.778c-0.974,0.105-2.13-0.461-2.7-1.168c-0.024,0.192-0.311,0.119-0.514,0.13
			c-0.599-1.125-0.803-2.651-1.415-3.764c-0.284,0.929-0.515,1.913-0.515,2.854c0.001,1.432,0.508,2.506,0.9,3.504
			c0.389,0.989,0.701,1.784,1.029,2.466c0.372,0.772,0.563,1.821,1.285,2.206c-0.004-0.566,0.355-0.766,0.386-1.297
			c1.639-1.495,2.981-3.865,5.658-3.895c1.075,0.62,1.408,1.676,2.57,1.947c0.85,0.198,1.771-0.348,2.83-0.52
			c1.095-0.177,2.208,0.062,3.085-0.389c0.263-0.168,0.136-0.729,0.514-0.779c2.298,0.2,3.785-0.418,5.658-0.648
			c0.378-0.912,1.356-0.697,2.186-1.038c0.815-0.335,1.506-1.1,2.314-1.428c0.185-0.073,0.451,0.057,0.643,0
			c1.133-0.331,1.517-1.517,2.443-1.946c0.674-0.312,1.627-0.168,2.314-0.389c0.63-0.204,1.034-0.684,1.542-0.909
			c0.457,0.1,1.199,0.009,1.929,0.13c0.58-0.15,0.758-0.705,1.543-0.648c-0.279,0.27,0.016,0.42,0.128,0.648
			c1.433,0.566,2.327,0.876,3.214,1.947c-0.092-0.211,0.606-0.211,0.514,0c0.051,2.551,3.057,3.105,4.885,4.281
			c0.932,0.032,1.841,0.041,2.187-0.519c0.089,0.407,0.343,0.17,0.643,0.13c0.819-0.428,1.449-1.047,2.058-1.688
			c0.951-0.12,1.029-1.124,2.186-1.038c0.261-0.653,0.9-0.92,1.156-1.558c0.532-1.316-0.119-2.834-1.285-3.633
			c0.131-0.268-0.447-0.928-0.514-1.428c-0.23-0.078-0.535,0.381-0.644,0c0.028-0.448-0.153-1.033-0.386-1.557
			c-0.498-0.016-1.184,0.157-1.028-0.52c-0.321-0.171-0.403,0.514-0.515,0.13c-0.071-0.317-0.162-0.685,0-1.168
			c-0.847,0.176-1.27-0.028-1.671-0.519c-0.821-1,0.171-2.037,0.128-2.984c0.809-0.263,1.393-0.591,1.672,0.519
			c-0.403,0.204-0.349,0.265-0.9,0.13c-0.318,0.371-0.24,1.141-0.385,1.687c0.373,0.552,1.188-0.032,1.671,0.261
			c0.39-1.598,2.274-1.684,2.7-3.244c-0.117-0.654-1.024-1.164-0.385-1.818c1.309-0.166,1.916,0.41,2.312,1.039
			c0.867,1.369,1.479,3.13,0.387,4.152c0.976-0.279,2.247-0.041,2.57,0.26c0.098,0.486-0.145,0.633-0.514,0.648
			c-0.256-0.131-0.203-0.574-0.643-0.52h-1.286c-0.968,0.964-2.497,0.652-2.571,2.596c0.951,0.405,0.273,1.959,1.414,2.336
			c-0.07-1.282,0.586-1.832,1.029-2.596c2.409,0.184,3.061-1.409,3.214-3.504c0.662-0.715,1.318-1.438,2.314-1.816
			c1.04,0.428,2.593-0.212,3.729-0.129c1.29-2.375,0.657-6.691,4.243-6.748c0.668-0.812,0.709-1.453,0.771-2.855
			c0.668-0.969,1.688-1.583,2.57-2.336c0.33-2.611-1.443-4.82-0.899-7.267c0.096-0.432,0.479-0.823,0.644-1.298
			c0.299-0.866,0.287-1.688,0.643-2.205c-0.507-0.895-0.287-2.736,0.771-2.855c-0.344-0.303-0.525-0.768-0.515-1.428
			c-0.293-0.102-0.847-0.606-0.515-0.908c1.2,0.734,1.036,2.848,2.7,3.114c0.451-0.497,1.115-0.778,1.543-1.298
			c2.913-1.428,5.292-3.396,8.356-4.672c-2.45-0.777-7.664-0.168-10.799,1.039c-0.329,0.49-0.896,0.738-1.543,0.908
			c0.131-0.43,0.355-0.766,0.899-0.779c-0.015-0.512-0.559-0.396-0.257-0.908c0.157-0.188,0.49-0.197,0.643-0.389
			c0.462-1.309,1.575-2.211,2.443-3.244c1.041-1.24,2.172-2.735,3.6-3.375c0.178-0.079,0.02-0.498,0.258-0.519
			c1.397-1.184,2.734-2.431,4.242-3.504c-3.758,0.169-7.155,1.757-10.028,3.244c-0.15,0.411-0.21,0.913-0.644,1.038
			c-0.517-0.089-0.733,0.125-1.156,0.13c-0.07,0.188,0.15,0.671-0.129,0.649c-0.332-0.347-0.135,0.299-0.643,0.129
			c0.207-0.551,0.175-0.842,0.257-1.297c1,0.145,1.067-0.654,1.8-0.779c0.258-1.211,1.096-1.835,1.287-3.114
			c1.082-1.026,1.208-3.019,2.441-3.893c1.486-3.085,4.037-5.097,5.914-7.786c-2.467,0.856-4.862,1.79-6.686,3.244
			c-1.154,0.921-2.472,1.777-3.343,2.725c-1.016,1.105-1.684,2.531-2.957,3.375c-0.255,0.953-0.937,1.477-1.028,2.595
			c0.221,0.513,0.906,0.556,1.028,1.169c-0.218,0.255-0.741,0.201-0.643,0.777c0.454,0.274,1.128,0.426,1.286,1.298
			c-0.805-0.163-0.539,0.755-0.771,1.169c0.48-0.14,0.365,0.321,0.771,0.258c0.037-0.48-0.073-1.111,0.514-1.037
			c-0.181,0.519,0.004,1.365-0.643,1.687c-0.189,0.002-0.408-0.547-0.386,0c0.24,0.896,0.689,1.679,1.286,2.206
			c0.237,0.211,0.924,0.074,0.771,0.648c-1.094-0.409-1.834-1.177-2.187-2.336c-0.396,0.092-0.247,0.092-0.643,0
			c-0.011-0.465-0.2-0.749-0.257-1.168c0.814-0.193,0.326-1.214,0.771-1.945c-0.285-0.276-0.804-0.314-0.9-0.779
			c-0.179-0.945,0.295-0.463,0.386-1.038c-0.103-0.488-0.999-0.317-1.157-0.39c0.318-0.701-0.691-1.314,0-1.816
			c0.488-0.191,0.025,0.58,0.514,0.39c0.364-0.454,0.503-1.137,0.9-1.558c-0.31-0.053-0.279,0.236-0.643,0.13
			c-0.429-0.535,0.345-2.952,0.643-3.634c0.346-0.791,1.214-2.059,1.543-2.595c0.281-0.46,0.477-1.243,0.643-1.428
			c0.151-0.168,0.406-0.1,0.515-0.26c0.214-0.314,0.199-0.739,0.386-1.038c0.111-0.178,0.373-0.193,0.514-0.389
			c0.133-0.183,0.137-0.49,0.258-0.649c0.068-0.091,0.315-0.046,0.386-0.13c0.293-0.348,0.521-0.921,0.772-1.297
			c0.678-1.023,1.248-1.747,1.67-2.467C-226.729,398.494-227.436,398.732-227.874,399.242L-227.874,399.242z M-231.217,410.013
			c0.265,0.113,0.578-0.337,0.258-0.39C-230.99,409.809-231.172,409.842-231.217,410.013L-231.217,410.013z M-231.217,410.143
			C-231.854,410.315-231.418,410.755-231.217,410.143L-231.217,410.143z M-232.631,411.83c-0.02-0.174,0.522-0.393,0.129-0.52
			C-232.484,411.482-232.936,411.793-232.631,411.83L-232.631,411.83z M-238.545,413.517c-0.018-0.242-0.085-0.435-0.258-0.52
			C-238.838,413.293-238.771,413.484-238.545,413.517L-238.545,413.517z M-244.203,422.082c-0.112,1.502-0.447,2.508-0.899,3.893
			c-0.713,0.561-1.513,0.832-2.058,1.557c-1.129,1.504-1.025,4.072-2.699,5.061v0.52c-1.271,1.226-2.001,2.998-3.344,4.152
			c-1.256,2.145-0.853,5.254-1.799,7.786c1.125,0.032,1.699,0.62,2.699,0.778c0.788-0.529,1.873-0.908,2.7-1.037
			c0.1-0.289,0.271-0.507,0.257-0.909c0.582-0.506,1.183-1.271,1.543-1.817c0.823-1.245,2.185-2.633,2.957-3.762
			c0.532-0.777,1.062-1.639,0.9-2.727c0.202-0.012,0.445,0.019,0.386-0.259c-0.623-0.114-0.081-0.319,0.128-0.909
			c0.338-0.947-0.746-3.42,0.771-3.633c-0.32-1.215-0.623-1.409-0.643-2.596c0.395-0.874,1.215-1.094,1.543-1.816
			c0.596-1.313,0.219-3.734,0.129-5.061c-0.033-0.486,0.133-0.875,0.129-1.297c-0.029-0.103-0.108-0.152-0.258-0.131
			C-242.246,420.941-242.17,422.576-244.203,422.082L-244.203,422.082z M-241.117,420.264h0.258v-0.258h-0.258V420.264
			L-241.117,420.264z M-240.988,421.172c0.377-0.008,0.478-0.295,0.643-0.519c-0.1-0.028-0.148-0.108-0.129-0.259h-0.385
			C-241.044,420.781-240.755,420.835-240.988,421.172L-240.988,421.172z M-240.602,421.821c0.176-0.298,0.641-0.304,0.771-0.649
			C-240.346,421.051-240.887,421.568-240.602,421.821L-240.602,421.821z M-240.73,422.471c0.504-0.227,1.105-0.354,1.285-0.908
			C-240.107,421.629-240.41,422.06-240.73,422.471L-240.73,422.471z M-240.73,423.768c0.695-0.378,1.453-0.695,1.799-1.428
			C-239.678,422.669-240.301,423.12-240.73,423.768L-240.73,423.768z M-240.602,424.547c0.635-0.526,1.445-0.877,1.928-1.558
			C-239.391,423.35-240.699,423.799-240.602,424.547L-240.602,424.547z M-240.217,424.936c0.456-0.491,1.213-0.679,1.543-1.297
			C-238.98,423.68-240.266,424.537-240.217,424.936L-240.217,424.936z M-238.674,424.027c-0.447,0.849-2.082,1.186-2.057,2.076
			c0.741-0.678,1.81-1.027,2.313-1.946C-238.445,424.057-238.524,424.006-238.674,424.027L-238.674,424.027z M-240.73,425.195h0.256
			v-0.26h-0.256V425.195L-240.73,425.195z M-239.188,425.455c0.389,0.162,0.666-0.432,0.385-0.52
			C-238.84,425.201-239.15,425.19-239.188,425.455L-239.188,425.455z M-246.389,425.844c0.322,0.023,0.312-0.291,0.515-0.389
			C-246.195,425.434-246.276,425.654-246.389,425.844L-246.389,425.844z M-239.574,425.975c-0.861,1.119-2.463,1.493-2.828,3.113
			c0.638-0.466,1.166-1.133,1.928-1.687c0.567-0.411,1.251-0.62,1.287-1.427H-239.574L-239.574,425.975z M-240.988,426.883
			c0.117-0.229,0.474-0.215,0.514-0.52C-240.766,426.34-241.224,426.802-240.988,426.883L-240.988,426.883z M-242.017,429.607
			c0.604-0.86,1.679-1.246,2.313-2.076C-240.507,427.587-241.906,428.852-242.017,429.607L-242.017,429.607z M-241.889,430.387
			c0.811-0.74,1.743-1.356,2.572-2.077c-0.297,0.04-0.144-0.374-0.387-0.39C-240.344,428.744-241.929,429.306-241.889,430.387
			L-241.889,430.387z M-241.76,430.516c0.189,0.492-0.555,1.14-0.257,0.908c0.985-0.822,2.101-1.513,3.085-2.336
			c-0.149-0.021-0.139-0.205-0.128-0.389C-240.232,429.029-240.624,430.148-241.76,430.516L-241.76,430.516z M-241.76,431.814
			c0.933-0.617,2.243-1.543,2.7-2.207C-239.996,430.307-241.079,430.855-241.76,431.814L-241.76,431.814z M-242.531,432.982
			c0.941-0.668,2.217-1.429,3.086-2.077c0.258-0.193,0.875-0.519,0.643-0.909C-240.137,430.9-241.402,431.872-242.531,432.982
			L-242.531,432.982z M-229.803,433.241c0.682-0.437,0.915-1.326,1.414-1.946c-0.156-0.016-0.304-0.039-0.257-0.26
			c-0.421,0.008-0.491,0.369-1.028,0.26c-0.029-0.246,0.145-0.287,0.129-0.52C-230.73,430.936-229.961,432.972-229.803,433.241
			L-229.803,433.241z M-241.117,432.463c-0.516,0.426-1.357,0.729-1.414,1.427c1.382-0.639,2.384-1.66,3.6-2.466
			c-0.379-0.112,0.299-0.194,0.129-0.519C-239.776,431.197-240.536,431.983-241.117,432.463L-241.117,432.463z M-226.203,432.332
			c-0.4,0.083-0.499-0.163-0.899,0c-1.389,0.57-1.931,0.78-2.957,1.428c0.14,1.43-1.612,2.337-1.157,4.412
			c0.737,0.053,1.121-0.253,1.672-0.389c-0.158-0.592,0.352-0.51,0.257-1.039c2.53-1.684,4.534-3.902,7.329-5.32
			C-223.612,431.263-224.887,432.061-226.203,432.332L-226.203,432.332z M-242.66,432.332c0.416,0.107,0.904-0.371,0.644-0.518
			C-242.182,432.037-242.629,431.975-242.66,432.332L-242.66,432.332z M-242.531,434.668c1.357-0.489,2.045-1.656,3.344-2.205
			c-0.123-0.242,0.385-0.434,0-0.52C-240.244,432.911-241.688,433.486-242.531,434.668L-242.531,434.668z M-228.773,432.463
			c0.325,0.098,0.603-0.496,0.385-0.52C-228.426,432.207-228.736,432.197-228.773,432.463L-228.773,432.463z M-300.516,442.584
			c0.309-2.675,0.944-6.205,1.799-9.343c0.135-0.007,0.102-0.166-0.128-0.13C-299.66,435.791-300.728,439.006-300.516,442.584
			L-300.516,442.584z M-242.788,435.707c1.292-0.254,1.693-1.406,3.085-1.558c-0.062-0.409,0.232-0.458,0.129-0.908
			c-0.028-0.101-0.107-0.151-0.257-0.13C-240.737,434.057-242.059,434.583-242.788,435.707L-242.788,435.707z M-243.303,436.875
			c1.051-0.67,2.537-1.592,3.086-2.336C-241.205,435.358-242.609,435.758-243.303,436.875L-243.303,436.875z M-244.459,439.34
			c0.93-0.662,1.985-1.195,2.57-2.206c-0.809,0.224-1.376,1.378-1.928,1.428c0.429-1.384,2.098-1.517,2.699-2.726
			c0.52,0.086,0.945-0.594,0.771-0.777C-241.836,436.365-243.793,437.201-244.459,439.34L-244.459,439.34z M-257.445,438.172
			c-0.346,0.588-0.459,1.413-0.771,2.076c-0.293,0.625-0.923,1.182-0.771,1.816c0.721-1.651,1.775-2.965,2.443-4.671
			c-0.029-0.101-0.107-0.15-0.258-0.13C-256.624,437.768-257.242,437.826-257.445,438.172L-257.445,438.172z M-244.588,439.471
			c-0.189,0.846-0.789,1.279-1.157,1.945c0.893-0.406,1.109-0.985,1.8-1.557c0.762-0.631,1.517-0.866,1.8-1.688
			C-243.143,438.328-243.759,439.977-244.588,439.471L-244.588,439.471z M-231.217,438.82c0.071,0.231,0.066,0.539,0.258,0.65
			c-0.062-0.409,0.183-0.508,0.256-0.779C-230.945,438.662-230.986,438.838-231.217,438.82L-231.217,438.82z M-295.76,441.287
			c-0.069-0.709,0.037-1.595-0.386-1.947C-296.106,440.326-296.104,440.576-295.76,441.287L-295.76,441.287z M-243.688,440.508
			c-0.016-0.133,0.554-0.263,0.128-0.389C-243.491,440.306-244.061,440.436-243.688,440.508L-243.688,440.508z M-259.888,441.806
			c0.538-0.237,1.123-1.112,1.028-1.558C-259.1,440.872-259.54,441.292-259.888,441.806L-259.888,441.806z M-246.517,442.584
			c-0.032,0.707-1.099,1.051-0.9,1.558c0.941-1.127,2.252-1.88,3.214-2.985C-245.112,441.492-245.463,442.394-246.517,442.584
			L-246.517,442.584z M-260.274,442.584h0.257v-0.26h-0.257V442.584L-260.274,442.584z M-248.316,444.271
			c0.619-0.543,1.139-1.186,1.543-1.947C-247.402,442.859-247.944,443.479-248.316,444.271L-248.316,444.271z M-252.045,459.064
			c0.985,0.043,0.854,1.215,1.543,1.558c0.059-1.757,1.7-1.917,2.57-2.854c0.229-1.188-0.169-2.935-1.285-3.504
			C-248.291,456.807-251.471,457.196-252.045,459.064L-252.045,459.064z M-265.16,468.537c-0.421,0.211-0.491-0.029-1.028,0
			c-0.42-1.091-1.297-1.316-1.929-1.945c-1.045-0.049-1.823,0.674-2.7,1.037c-0.481,0.2-1.063,0.195-1.543,0.391
			c-1.024,0.415-1.974,1.361-3.085,1.816c-1.459,0.596-2.42,0.885-3.472,1.687c0.531,0.008,0.59,0.096,1.029,0.39
			c-0.112-0.416,0.198-0.406,0.386-0.52c0.965,0.413,1.717-0.283,2.314-0.648c0.514,0.87,1.896,0.501,2.314-0.39
			c0.314,0.13,0.274,0.043,0.771,0.13c0.178-0.08,0.02-0.5,0.257-0.52c0.018,0.539,0.084,0.027,0.257,0
			c0.448,0.844,1.791,0.438,2.314,0c1.361,0.475,1.992-0.469,2.958-0.778c0.365,0.665,2.09,1.552,2.314,0.13
			C-264.628,469.3-264.636,468.658-265.16,468.537L-265.16,468.537z M-266.316,467.629c0.271,0.18,0.841-0.207,0.899-0.648
			C-265.962,466.949-265.896,467.535-266.316,467.629L-266.316,467.629z M-265.803,468.02c0.72,0.119,0.78-0.426,1.157-0.65
			C-265.344,467.271-265.487,467.73-265.803,468.02L-265.803,468.02z M-264.774,468.148c0.375,0.032,0.444-0.244,0.643-0.389
			c0.014,0.244,0.425,0.09,0.386,0.389c-0.151,0.194-0.535,0.152-0.515,0.52c0.305,0.181,0.863-0.281,1.158-0.52
			C-263.669,467.809-264.492,467.051-264.774,468.148L-264.774,468.148z M-251.273,474.896c-0.303,0.041-0.483,0.205-0.9,0.129
			c0.123,0.525,0.262,1.034,0.386,1.558c0.852,0.591,2.979-0.483,3.214,1.169c-0.839,0.072-1.961,0.08-2.957-0.52
			c-0.108,0.542,0.25,0.612,0.258,1.038c-0.702,0.103-1.082-0.119-1.158-0.649c-1.112-0.088-1.564-0.842-2.442-1.168
			c-0.129,0.605-0.236,1.232-0.515,1.688c-0.551-0.544,0.002-1.098,0-1.816c-0.455-0.027-0.254,0.608-0.771,0.519
			c-0.331-0.345-0.617,0.019-0.771-0.39c0.207-1.095-0.214-1.796,0.515-2.205c0.181,0.536-0.366,1.002,0,1.297
			c0.29-0.677,0.253,0.289,0.644,0.26c0.012-0.578-0.402-0.805-0.129-1.297c-0.773-0.62-1.18-0.807-1.543-1.817
			c-1.898-0.938-4.382-1.288-5.271-3.244c-1.781,0.79-1.584,3.532-0.128,4.542c0.837-0.481,1.716-0.184,2.829,0
			c-0.158,0.272-0.774,0.084-0.9,0.389c0.658,0.002,1.015-0.172,1.543,0.131c-0.085,0.451-0.827-0.039-1.414,0.129
			c0.439,0.811,2.081,0.409,2.186,1.558c-0.53-0.31-0.481-0.4-0.899,0c-0.186-0.419-0.63-0.575-1.029-0.778
			c0.024,1.291,0.562,2.372,0.515,3.633c-0.335-0.268-0.461-0.746-0.515-1.297c-0.914,0.736-2.106,2.617-3.343,1.816
			c0.172-0.303,0.744-0.201,1.029-0.39c0.061-0.624-0.786-0.331-0.643-1.038c0.383-0.486,0.581,0.711,0.9,0.26
			c-0.427-0.453,0.386-0.129,0.257-0.52c-0.529-0.465-1.719,0.17-2.443,0c-0.005,0.672,0.877-0.307,0.771,0.52
			c-0.084,0.174-0.275,0.241-0.514,0.26c-0.298-0.089-0.443-0.332-0.643-0.52c-0.683,0.133-0.978,0.656-1.414,1.038
			c-1.406-0.214-1.922,0.109-2.957-0.259c-0.064,0.541-0.838,0.365-1.157,0.648c-0.661-0.765-1.728,0.256-2.443-0.26
			c-0.203,0.012-0.101,0.331-0.386,0.26c-0.202-0.013-0.446,0.017-0.386-0.26c-0.653,0.834-1.469-0.038-2.057-0.389
			c-0.271,0.548-1.109,0.524-1.286,1.167c0.697,0.04,0.855-0.179,1.414,0c0.035-0.228-0.362-0.647,0-0.778
			c0.394,1.313,2.226,0.68,2.957,1.816c-1.841-0.07-4.048-0.487-6.686-0.389c-0.041-0.302,0.021-0.498,0.128-0.649
			c-0.995,0.216-1.687,0.81-2.314,1.038c-0.192,0.07-1.315,0.07-1.671,0.13c-0.631,0.106-1.15-0.149-1.801-0.13
			c-0.392,0.012-0.758,0.278-1.029,0.26c-0.302-0.021-0.585-0.24-0.899-0.26c-0.2-0.012-0.453,0.135-0.643,0.13
			c-1.304-0.036-2.515-0.851-3.857-0.519c2.792,2.294,5.782,4.758,9.771,5.449c0.414,0.425,1.004,1.255,1.8,1.558
			c1.217,0.464,4.138,0.29,5.786,0.13c1.29-0.125,1.899-0.322,2.571-0.648c2.235,0.238,3.92-1.193,6.043-0.908
			c-0.619-0.979-2.122,0.412-2.829-0.389c0.079-0.181,0.495-0.02,0.514-0.261c-0.383-0.046-0.783-0.075-0.9-0.39
			c0.192-0.194,0.23-0.546,0.514-0.648c0.517-0.125,1.025,0.427,1.286,0.13c-0.417-0.443-1.316-0.401-1.8-0.778
			c1.235-0.308,2.062,0.869,3.214,1.168c1.569,0.406,2.633,0.399,4.243,0.519c0.523-0.337,1.062-0.659,1.543-1.038
			c0.606,0.218,0.966-0.307,1.413-0.389c0.91-0.168,1.762,0.186,2.187,0.259c0.461,0.08,1.022,0.136,1.414,0.13
			c0.452-0.007,1.396-0.061,1.671-0.13c1.401-0.354,2.106-1.706,3.601-1.946c0.076-0.27,0.247-0.442,0.515-0.52
			c1.797-0.478,3.268-1.286,3.086-3.763c-0.414,0.114-0.177-0.428-0.515-0.39c-0.329,0.18-1.302,0.677-1.543,0.13
			c0.349-0.167,0.714-0.317,1.286-0.259c-0.065-0.584-0.728-0.564-0.644-1.299c-0.665-0.513-1.538-0.35-1.8-1.037
			c0.002-0.215,0.356-0.073,0.386-0.26c-0.362-0.552-1.171-1.862-0.771-2.336c0.556,0.953,0.683,2.34,1.543,2.984
			c-0.173-1.513-1.517-2.308-1.157-3.633c0.344,0.128,0.16,0.79,0.643,0.778c-0.108-1.478,1.08-3.11,0.387-4.413
			c-1.309,0.973-2.726,2.527-2.958,4.153c0.263-0.255,0.27-0.767,0.771-0.778c0.094,0.354-0.255,0.261-0.257,0.519
			c0.377,0.149,0.478-0.622,0.643-0.259C-250.508,473.044-251.441,473.699-251.273,474.896L-251.273,474.896z M-267.088,469.836
			c-0.194,0.492-0.481,0.774-0.514,1.687c0.417-0.075,0.598,0.089,0.9,0.13c0.345-0.654,0.478-1.268,0.515-1.946
			C-266.634,469.602-266.682,469.899-267.088,469.836L-267.088,469.836z M-269.017,470.484c-0.143,0.505-0.618,0.674-1.029,0.908
			c-0.204-0.74-1.553,0.051-1.542-0.648c-0.445,0.095-0.686,0.398-1.157,0.13c-0.342,0.391-0.619,0.847-1.415,0.778
			c-0.029,0.245,0.145,0.286,0.128,0.52c0.759-0.498,1.379,0.301,2.057-0.391c0.036,0.268,0.344,0.26,0.515,0.391
			c1.029-0.82,2.173-0.105,3.343-0.52c-0.119-0.501,0.543-0.906,0.386-1.298C-267.986,470.664-268.626,470.662-269.017,470.484
			L-269.017,470.484z M-251.66,471.133c0.191-0.246,1.04-0.5,0.771-0.778C-251.154,470.525-251.891,470.893-251.66,471.133
			L-251.66,471.133z M-277.632,472.041c0.159,0.42-0.415,0.1-0.256,0.52c0.622-0.039,1.227-0.557,2.186-0.13
			c-0.101-0.448,0.12-0.57,0.386-0.649c0.164,0.268,0.205,0.658,0.643,0.649c-0.186-0.491,0.353-0.249,0.256-0.649
			C-275.462,470.934-276.07,472.305-277.632,472.041L-277.632,472.041z M-251.788,471.781c-0.069-0.186,0.501-0.315,0.128-0.389
			C-251.645,471.525-252.214,471.655-251.788,471.781L-251.788,471.781z M-256.16,473.08c0.564,0.555,1.352,0.887,1.158,2.205
			c0.672,0.318,1.332,0.646,2.057,0.909c-0.85-1.592,0.979-2.831,0-4.282C-253.723,472.598-254.936,472.844-256.16,473.08
			L-256.16,473.08z M-251.531,472.561c-0.139-0.332,0.554-0.454,0.129-0.648C-251.4,472.105-251.88,472.442-251.531,472.561
			L-251.531,472.561z M-260.917,474.637c-0.457,0.01-0.701-1.068-1.028-0.389C-261.438,474.132-261.247,475.003-260.917,474.637
			L-260.917,474.637z M-250.374,477.362C-249.721,477.716-249.895,476.909-250.374,477.362L-250.374,477.362z M-269.146,478.271
			c0.074,0.794,0.788,0.17,1.029,0c0.445,0.724,1.422,0.444,1.8-0.13C-267.267,477.871-267.971,478.156-269.146,478.271
			L-269.146,478.271z M-262.074,478.4c0.327-0.016,0.499-0.189,0.514-0.52C-261.962,477.82-262.133,477.994-262.074,478.4
			L-262.074,478.4z M-270.688,478.4c-0.113,0.914,1.088,0.412,1.028-0.13C-270.144,478.171-270.274,478.429-270.688,478.4
			L-270.688,478.4z M-272.488,478.92c0.567,0.008,0.886-0.231,1.286-0.391C-271.781,478.51-272.212,478.635-272.488,478.92
			L-272.488,478.92z M-275.06,479.049c0.174,0.041,0.245,0.186,0.514,0.13C-274.448,478.736-275.037,478.673-275.06,479.049
			L-275.06,479.049z M-278.788,480.087c0.187,0.2,0.658,0.114,1.028,0.13c-0.005-0.179,0.06-0.284,0.128-0.389
			c-0.463,0.262-0.622-0.014-1.028-0.131C-278.654,479.877-278.72,479.982-278.788,480.087L-278.788,480.087z M-268.245,485.148
			c0.518,0.22,1.482,0.589,1.929,0.129C-267.105,485.457-268.006,484.687-268.245,485.148L-268.245,485.148z"/>
		<path id="Fill-44" sketch:type="MSShapeGroup" d="M-233.66,406.379c1.018-0.809,1.805-2.924,2.701-4.282
			c-0.773,0.215-0.949,1.032-1.286,1.688c-0.075-1.331,1.302-2.144,2.442-2.985c0.642-0.473,1.322-1.072,1.929-1.168
			c-0.734,0.902-1.874,1.396-2.829,2.076c-0.939,2.814-2.869,4.631-3.6,7.656C-234.667,408.387-233.385,407.265-233.66,406.379"/>
		<path id="Fill-45" sketch:type="MSShapeGroup" d="M-267.088,445.18c0.14,0.379,0.288,0.748,0.257,1.297
			c0.639,0.783,1.105,1.74,1.286,2.985c-0.419,1.088-0.726,1.662-1.157,2.854c-1.358,0.776-3.553,0.604-5.143,0
			c-0.658-1.418-0.768-2.838-0.257-4.281c1.12-1.162,1.573-2.998,3.472-3.375C-267.988,445.177-267.817,445.055-267.088,445.18
			L-267.088,445.18z M-267.474,446.867c-0.6-0.041-0.428-0.475-0.514-0.779c-0.335,0.036-0.644,0.044-0.514-0.389
			c-0.68,0.395-0.833,1.321-1.929,1.298c0.122,1.185-1.849,2.466-0.9,4.411c0.524-0.012,0.835,0.447,1.414,0.52
			c0.692,0.086,1.537-0.262,2.314-0.26c0.679-0.526,0.796-1.619,1.157-2.465c0.055-0.177-0.508-0.586-0.257-0.909
			C-267.118,448.459-267.692,447.707-267.474,446.867L-267.474,446.867z"/>
		<path id="Fill-46" sketch:type="MSShapeGroup" d="M-295.245,470.095c0.601,0.129,0.747,0.717,1.157,1.038
			c0.417,0.075,0.598-0.088,0.9-0.129c0.093,0.354-0.255,0.261-0.257,0.519c1.521-0.023,2.83-0.258,3.214-1.428h0.386
			c0.636-0.685,1.842-1.839,2.699-2.726c-1.048,0.198-2.025,1.59-3.214,2.077c-0.178,0.079-0.019,0.499-0.257,0.519
			c-0.384-0.045-0.512-0.348-0.643-0.648c0.651-0.468,1.256-0.982,1.8-1.557c-1.041,0.174-1.753,1.322-2.7,1.167
			c0.429-0.39,0.978-0.657,1.543-0.907c-1.056-0.076-2.472,0.088-3.343-0.52c0.029-0.635-0.347-0.861-0.386-1.428
			c-2.188-0.463-2.147-2.623-1.928-4.412c-0.547,0.357-0.52,1.291-0.772,1.946c-0.353-0.337,0.054-1.078,0.257-1.687
			c0.192-0.574,0.412-1.27,0.643-1.688c-0.439-0.051-0.786,1.107-1.028,1.688c-0.306-0.659,0.494-1.314,0.643-1.946
			c-0.577,0.024-0.947,1.377-1.414,1.946c-0.464-0.178,0.147-0.707,0.257-0.908c0.526-0.96,1.404-2.129,2.057-2.985
			c-1.028,0.822-2.668,2.011-3.214,3.374c-0.081,0.201,0.262,0.676-0.258,0.648c-0.062-0.494,0.037-0.828,0.258-1.037
			c-0.104-0.262-1.134,0.854-0.515,0.908c-0.394-0.011-0.517,0.35-1.028,0.519c0.479-1.144,1.712-2.435,2.7-3.503
			c0.732-0.793,1.99-1.381,2.828-2.206c0.669,0.222,1.438-0.29,1.929-0.649c2.084-0.053,2.928,0.344,4.628,0.649
			c0.67,0.696,1.395,1.118,2.057,1.946c1.979,2.471,1.965,6.44,0.129,9.344c-0.471,0.744-1.832,2.51-2.7,2.465
			c-0.186,0.158-0.173,0.519-0.515,0.52c-0.329,0.006-0.156-0.098-0.129-0.26c-1.375,0.533-2.498,1.527-3.985,1.168
			c-0.672-0.162-1.23-1.4-1.799-1.168C-295.343,470.642-295.338,470.29-295.245,470.095L-295.245,470.095z M-292.545,456.988
			c-0.856,0.572-1.332,1.17-2.186,1.947c-0.791,1.92-0.88,2.973-0.771,5.449c0.275,0.285,0.624,0.495,1.286,0.391
			c0.546,0.486,0.789,1.279,1.029,2.075c2.622,0.083,5.494,0.388,7.328-1.816c0.981-2.504-0.101-5.834-2.443-6.489
			C-288.609,457.334-291.314,457.352-292.545,456.988L-292.545,456.988z M-294.731,457.896c0.038-0.264,0.348-0.254,0.386-0.519
			C-294.629,457.323-295.055,457.767-294.731,457.896L-294.731,457.896z M-286.246,466.851
			C-285.608,466.678-286.045,466.238-286.246,466.851L-286.246,466.851z M-286.246,466.98
			C-287.149,467.287-286.736,467.705-286.246,466.98L-286.246,466.98z M-290.745,469.316c1.022-0.309,1.577-1.09,2.314-1.688
			C-289.458,467.934-290.026,468.701-290.745,469.316L-290.745,469.316z M-288.174,469.057c0.438-0.652,1.392-1.084,1.028-1.297
			c-0.742,0.808-1.478,1.622-2.314,2.335C-288.653,470.33-288.515,469.562-288.174,469.057L-288.174,469.057z M-287.788,469.446
			c0.261-0.433,1.061-1.001,0.9-1.427C-287.117,468.483-287.997,468.971-287.788,469.446L-287.788,469.446z"/>
		<path id="Fill-47" sketch:type="MSShapeGroup" d="M-251.531,480.087c0.684,0.319-0.15,1.087,0.129,1.428
			c-1.399,0.231-2.479,0.785-3.343,1.558c-0.209,0.351-0.241,0.881-0.644,1.037c-0.197-0.872,0.816-1.58,1.543-1.945
			c-0.314-0.394-0.836,0.098-1.285,0c-0.19-0.406-0.005-0.531,0.257-0.779c-0.98,0.092-1.431-0.038-2.571,0.13
			c0.041-0.997,1.969-0.09,2.186-0.908C-253.906,480.692-252.533,480.659-251.531,480.087"/>
		<path id="Fill-48" sketch:type="MSShapeGroup" d="M-279.817,482.423c0.042,0.302-0.021,0.499-0.128,0.649
			c0.569,0.117,1.405-0.035,1.671,0.389c0.06,0.277-0.184,0.247-0.386,0.26c0.488,0.48,0.359,0.776,0.9,1.168
			c-0.336,0.695-0.119,0.894,0.128,1.558c-0.417,0.074-0.597-0.089-0.899-0.13c-0.017-0.232,0.158-0.275,0.129-0.52
			c-0.611-0.378-1.454,0.01-2.057-0.648c0.164-0.465,0.419-0.342,0.9-0.26c-0.261-0.386-0.794-0.496-0.771-1.168
			c0.503-0.075,0.746,0.111,1.028,0.26c-0.564-1.143-3.537,0.026-4.243-1.298h0.771c-0.17-0.348-0.811-0.22-1.029-0.519
			c0.31-0.455,1.195-0.292,1.8-0.26C-281.188,481.946-280.215,482.105-279.817,482.423L-279.817,482.423z M-280.202,482.553
			c-0.657-0.075-1.628-0.516-2.314-0.13C-282.13,482.379-280.475,482.935-280.202,482.553L-280.202,482.553z M-278.917,484.499
			c-0.199-0.03-0.6-0.499-0.771-0.13C-279.488,484.398-279.088,484.868-278.917,484.499L-278.917,484.499z"/>
	</g>
</g>
<path id="path3039" inkscape:connector-curvature="0" fill="#CCCCCC" d="M-294.114,472.466c-0.677-0.56-1.476-0.892-1.868-0.774
	c-0.419,0.125-1.049-0.188-1.622-0.806c-0.583-0.629-1.365-1.013-2.073-1.017c-2.356-0.015-4.293-3.871-3.249-6.469
	c1.125-2.797,3.154-6.801,3.952-7.799c0.714-0.893,0.785-1.231,0.423-2.027c-0.239-0.525-0.735-2.588-1.103-4.584
	c-0.568-3.095-0.597-4.074-0.192-6.643c0.879-5.574,1.577-8.744,2.162-9.822c0.556-1.025,0.582-0.94,0.597,1.939
	c0.023,4.42,1.403,11.176,2.826,13.834c0.315,0.588,0.297,0.869-0.07,1.096c-0.379,0.234-0.31,0.612,0.297,1.625
	c0.436,0.727,0.977,1.281,1.204,1.234c0.227-0.048,0.512,0.174,0.634,0.492s0.05,0.578-0.16,0.578s-0.382,0.178-0.382,0.395
	s0.266,0.395,0.591,0.395s0.591-0.255,0.591-0.564c0-0.717,0.792-0.963,3.819-1.186c2.384-0.176,5.28-1.359,8.2-3.351
	c1.391-0.948,3.278-1.063,3.602-0.22c0.125,0.325,0.385,0.591,0.579,0.591c0.527,0,0.425-0.951-0.237-2.221
	c-0.324-0.621-0.59-1.692-0.591-2.383c-0.002-1.323,0.627-1.927,3.614-3.467l1.448-0.747l1.528,1.06
	c0.84,0.582,1.896,1.059,2.344,1.059c1.841,0,3.391,0.538,3.575,1.242c0.201,0.769,1.476,0.968,2.412,0.374
	c0.518-0.328,4.246,1.271,4.829,2.071c0.136,0.186,0.617,0.22,1.069,0.077c0.452-0.145,1.177-0.072,1.609,0.16
	c0.55,0.293,1.332,0.299,2.591,0.016c4.465-1,7.604-3.445,9.531-7.424c0.595-1.227,1.311-2.408,1.592-2.625s1.012-1.734,1.623-3.373
	c1.033-2.773,1.072-3.089,0.572-4.532c-0.471-1.357-0.458-1.731,0.105-2.983c0.62-1.375,0.609-1.506-0.281-3.334
	c-1.47-3.023-1.631-3.244-2.482-3.396c-1.376-0.246-2.217,0.111-2.593,1.102c-0.209,0.551-0.681,0.952-1.118,0.952
	c-0.796,0-1.234,0.722-1.234,2.035c0,0.434-0.587,1.527-1.306,2.431c-0.718,0.903-1.888,2.85-2.597,4.325
	c-0.711,1.476-2.15,3.715-3.201,4.977c-1.57,1.888-1.993,2.739-2.385,4.805c-0.931,4.899-0.916,4.865-2.074,5.001
	c-1.014,0.119-1.072,0.04-1.015-1.379c0.033-0.828,0.603-2.789,1.266-4.358s1.077-2.981,0.921-3.138
	c-0.325-0.326-1.934,1.489-2.863,3.232c-0.346,0.65-0.946,1.537-1.333,1.971c-0.387,0.433-0.767,1.141-0.845,1.571
	c-0.175,0.96-1.504,1.284-2.078,0.505c-0.231-0.313-0.668-0.651-0.971-0.752c-0.368-0.121-0.007-0.611,1.083-1.477
	c0.899-0.711,1.64-1.59,1.647-1.95c0.018-0.892,1.168-2.205,2.571-2.935c1.788-0.93,2.739-2.207,3.881-5.209
	c1.404-3.697,1.483-3.822,2.992-4.729c1.713-1.031,3.504-2.893,4.729-4.918c3.008-4.97,4.045-6.259,5.762-7.158
	c1.655-0.869,1.795-0.885,2.162-0.239c0.215,0.38,0.826,0.69,1.357,0.69s0.965,0.177,0.965,0.394s0.279,0.394,0.62,0.394
	c0.364,0,0.567-0.267,0.493-0.646c-0.129-0.649-0.713-1.082-2-1.479c-1.069-0.331-0.83-1.825,0.701-4.368
	c1.811-3.005,4.521-5.99,4.521-4.978c0,0.399-0.349,1.169-0.774,1.711c-0.427,0.542-0.887,1.763-1.021,2.714
	c-0.227,1.583-0.08,1.4,1.747-2.188c1.749-3.434,3.513-5.68,4.496-5.725c0.416-0.019-0.252,1.163-1.263,2.235
	c-0.451,0.479-0.82,1.04-0.82,1.248c0,0.207-0.141,0.437-0.312,0.509s-0.907,1.195-1.636,2.495c-0.911,1.629-1.356,2.976-1.43,4.324
	c-0.059,1.078-0.297,2.023-0.531,2.102c-0.684,0.229-0.516,2.047,0.188,2.047c0.346,0,0.498,0.189,0.348,0.432
	c-0.146,0.238-0.045,0.847,0.227,1.354c0.289,0.54,0.364,1.217,0.182,1.637c-0.172,0.395-0.271,0.955-0.224,1.248
	c0.169,1.018,3.188,3.518,3.188,2.639c0-0.099-0.487-0.67-1.084-1.268l-1.083-1.09l1.083-0.384c0.597-0.212,1.084-0.527,1.084-0.702
	c0-0.176,0.227-0.318,0.504-0.318s0.789-0.334,1.14-0.743c0.722-0.843,6.535-3.197,7.894-3.197c0.748,0,0.543,0.301-1.268,1.856
	c-2.91,2.502-6.203,5.979-6.918,7.306c-0.738,1.371-1.525,1.437-1.189,0.099c0.18-0.717,0.089-0.985-0.334-0.985
	c-0.887,0-1.271,2.667-0.496,3.441c0.557,0.557,0.748,0.551,2.041-0.062c0.784-0.372,2.082-0.762,2.883-0.866l1.459-0.189
	l-1.372,0.631c-0.938,0.432-1.215,0.728-0.876,0.938c0.352,0.217,0.207,0.438-0.5,0.76c-0.963,0.439-1.405,1.654-0.602,1.654
	c0.216,0,0.394-0.15,0.394-0.332c0-0.184,0.62-0.667,1.379-1.075c0.759-0.409,1.38-0.969,1.38-1.245c0-0.275,0.342-0.501,0.76-0.501
	s1.025-0.266,1.351-0.591s1.269-0.59,2.097-0.588c1.477,0.004,1.43,0.051-2.434,2.367c-2.168,1.3-4.263,2.584-4.656,2.854
	c-0.74,0.508-1.257,0.107-2.49-1.926c-0.245-0.405-0.58-0.608-0.746-0.451c-0.164,0.158-0.074,0.557,0.199,0.887
	c0.398,0.479,0.4,0.837,0.012,1.775c-0.268,0.646-0.381,1.451-0.252,1.788s-0.025,1.36-0.344,2.272
	c-0.703,2.021-0.735,3.668-0.127,6.613l0.463,2.241l-1.448,1.271c-0.796,0.699-1.448,1.62-1.448,2.045
	c0,1.101-0.717,2.298-1.377,2.298c-1.014,0-2.049,1.564-2.75,4.153l-0.689,2.546h-1.964c-2.118,0-4.253,1.122-4.253,2.236
	c0,0.391-0.222,0.521-0.623,0.367c-0.344-0.132-0.887-0.24-1.209-0.24c-0.4,0-0.509-0.241-0.343-0.766
	c0.362-1.141-1.139-3.775-2.435-4.275c-1.896-0.731-3.666-0.971-3.666-0.496c0,0.238,0.531,0.541,1.182,0.671
	s1.183,0.378,1.183,0.55s0.101,0.574,0.224,0.896c0.135,0.35-0.344,1.151-1.195,2.003c-1.324,1.324-2.575,1.852-2.575,1.085
	c0-0.507,1.415-2.03,1.886-2.03c0.643,0,0.795-0.924,0.243-1.475c-0.696-0.697-0.946-0.619-0.946,0.292
	c0,0.568-0.264,0.788-0.941,0.788c-0.768,0-0.99,0.26-1.206,1.409c-0.278,1.481,0.225,2.531,1.21,2.531
	c0.299,0,0.543,0.384,0.543,0.854c0,0.469,0.112,0.741,0.249,0.604c0.449-0.449,1.722,0.522,1.722,1.313
	c0,0.426,0.17,0.774,0.377,0.774c0.208,0,0.84,0.788,1.404,1.751c0.91,1.554,0.967,1.861,0.509,2.727
	c-0.636,1.199-4.919,4.107-6.522,4.428c-0.744,0.148-1.665-0.012-2.511-0.439c-1.577-0.797-3.503-2.521-3.503-3.137
	c0-0.238-0.973-0.993-2.163-1.676c-1.969-1.132-2.331-1.213-4.039-0.901c-3.534,0.643-5.424,1.298-6.43,2.228
	c-0.554,0.513-1.174,0.932-1.379,0.933c-0.205,0.001-1.591,0.615-3.081,1.365c-1.733,0.873-3.576,1.461-5.123,1.634
	c-1.329,0.149-2.77,0.492-3.204,0.762c-0.433,0.27-1.94,0.604-3.35,0.74C-292.71,473.422-293.034,473.359-294.114,472.466
	L-294.114,472.466L-294.114,472.466z M-290.287,471.422c3.772-1.48,5.521-4.012,5.551-8.033c0.028-3.799-2.116-6.779-5.171-7.188
	c-3.867-0.519-6.68,0.776-9.418,4.338c-1.538,2.001-1.567,2.188-0.305,1.946c0.552-0.105,0.999-0.471,1.016-0.832
	c0.02-0.408,0.104-0.463,0.23-0.15c0.109,0.271,0.444,0.492,0.745,0.492c0.342,0,0.454,0.239,0.3,0.64
	c-0.147,0.386,0.014,0.785,0.407,1.005c0.358,0.201,0.652,0.618,0.652,0.928c0,0.309,0.443,0.853,0.985,1.207
	c0.542,0.355,0.985,0.9,0.985,1.213c0,0.311,0.541,0.754,1.202,0.984c0.662,0.23,1.112,0.51,1.002,0.62
	c-0.11,0.11,0.175,0.504,0.634,0.876c0.481,0.389,0.711,0.873,0.545,1.144c-0.373,0.604-2.899,0.438-3.451-0.226
	c-0.54-0.65-1.114-0.655-1.114-0.01c0,0.537,1.855,1.837,2.646,1.854C-292.585,472.235-291.432,471.872-290.287,471.422z
	 M-256.48,470.27c0-0.217-0.333-0.395-0.74-0.395c-0.406,0-1.018-0.398-1.358-0.887c-0.6-0.859-0.619-0.861-0.64-0.078
	c-0.011,0.444,0.192,1.021,0.453,1.28C-258.194,470.763-256.48,470.821-256.48,470.27L-256.48,470.27L-256.48,470.27z
	 M-280.216,469.215c1.481-1.48,0.47-1.611-1.134-0.146c-1.002,0.915-1.148,1.2-0.617,1.2
	C-281.584,470.27-280.796,469.795-280.216,469.215L-280.216,469.215z M-278.548,468.473c0-0.338-0.177-0.504-0.394-0.371
	c-0.217,0.135-0.394,0.411-0.394,0.615c0,0.203,0.177,0.371,0.394,0.371S-278.548,468.811-278.548,468.473z M-280.719,467.169
	c0.21-0.693,0.146-0.888-0.251-0.758c-0.294,0.097-0.592,0.694-0.663,1.327C-281.779,469.052-281.175,468.675-280.719,467.169
	L-280.719,467.169z M-260.421,467.16c0-0.688-1.457-2.134-1.883-1.87c-0.288,0.178-0.143,0.585,0.429,1.203
	C-260.957,467.488-260.421,467.733-260.421,467.16z M-249.781,466.355c0-0.424-1.533-0.989-1.843-0.68
	c-0.114,0.113-0.09,0.396,0.054,0.627C-251.252,466.819-249.781,466.863-249.781,466.355L-249.781,466.355z M-273.425,463.406
	c0-0.307,0.222-0.638,0.493-0.734c0.271-0.097,0.367-0.311,0.214-0.476c-0.484-0.521-1.495,0.134-1.495,0.968
	c0,0.439,0.177,0.801,0.394,0.801S-273.425,463.713-273.425,463.406L-273.425,463.406z M-277.046,461.502
	c0.082-0.43-0.112-0.689-0.512-0.689c-0.354,0-0.534-0.178-0.399-0.395c0.134-0.217-0.033-0.395-0.371-0.395
	c-0.423,0-0.614,0.377-0.614,1.21c0,1.027,0.133,1.19,0.883,1.083C-277.574,462.248-277.118,461.881-277.046,461.502z
	 M-264.362,460.27c0-0.544-1.626-1.034-3.432-1.034c-1.584,0-0.808,0.98,0.813,1.027c0.8,0.022,1.568,0.156,1.708,0.296
	C-264.84,460.99-264.362,460.838-264.362,460.27z M-277.521,456.893c0.538-0.639,1.368-1.281,1.847-1.426
	c1.337-0.408,2.249-1.381,2.249-2.4c0-1.271-0.493-1.158-1.119,0.258c-0.304,0.687-0.823,1.183-1.238,1.183
	c-0.715,0-3.16,2.45-3.16,3.166C-278.942,458.322-278.536,458.099-277.521,456.893z M-245.282,456.224
	c0.136-0.356,0.167-0.729,0.068-0.827c-0.313-0.313-1.021,0.315-1.021,0.906C-246.234,457.076-245.589,457.022-245.282,456.224
	L-245.282,456.224z M-240.718,454.717c0-0.354-0.231-0.49-0.591-0.353c-0.325,0.125-0.592,0.386-0.592,0.579
	s0.267,0.352,0.592,0.352C-240.984,455.295-240.718,455.035-240.718,454.717z M-294.534,453.697
	c0.557-0.544,0.163-0.694-1.254-0.479c-0.787,0.12-1.281,0.422-1.281,0.784c0,0.444,0.265,0.524,1.083,0.321
	C-295.39,454.178-294.737,453.895-294.534,453.697L-294.534,453.697z M-275.396,452.75c0-0.62-2.047-0.576-2.255,0.049
	c-0.165,0.494,0.956,0.881,1.763,0.607C-275.617,453.315-275.396,453.02-275.396,452.75z M-266.915,452.629
	c1.278-0.921,1.752-4.167,0.792-5.436c-0.318-0.421-0.584-1.057-0.591-1.412c-0.014-0.727-1.665-1.28-2.77-0.93
	c-0.92,0.292-2.64,2.537-2.979,3.891c-0.384,1.53,0.128,3.711,0.922,3.919C-270.409,452.959-267.343,452.938-266.915,452.629
	L-266.915,452.629z M-245.447,452.34c-0.523-0.633-1.576-0.808-1.576-0.264c0,0.539,0.479,0.854,1.297,0.854
	C-245.086,452.931-245.039,452.83-245.447,452.34z M-238.748,449.41c0-0.765-1.146-0.436-1.626,0.467
	c-0.26,0.487-0.737,1.081-1.06,1.318c-0.35,0.258-0.461,0.639-0.275,0.938c0.229,0.369,0.668,0.128,1.637-0.899
	C-239.344,450.463-238.748,449.642-238.748,449.41z M-295.099,450.302c0-0.397-1.256-1.706-1.637-1.706
	c-0.183,0-0.333,0.443-0.333,0.985c0,0.788,0.197,0.985,0.985,0.985C-295.542,450.566-295.099,450.447-295.099,450.302z
	 M-297.603,446.921c0.031-0.596-0.107-1.083-0.306-1.083c-0.447,0-1.131,1.728-1.131,2.857c0,0.826,0.01,0.826,0.69,0.073
	C-297.97,448.349-297.634,447.518-297.603,446.921z M-273.425,447.401c0-0.472-1.112-0.978-1.436-0.653
	c-0.345,0.345,0.24,1.06,0.868,1.06C-273.681,447.808-273.425,447.625-273.425,447.401z M-296.637,445.16
	c-0.359-0.616-0.41-0.577-0.421,0.316c-0.006,0.56,0.121,1.151,0.284,1.315C-296.3,447.27-296.188,445.932-296.637,445.16z
	 M-235.988,444.829c0-0.557,0.229-0.962,0.545-0.962c0.545,0,1.016-1.142,1.025-2.486c0.003-0.393-0.172-0.604-0.389-0.469
	c-0.217,0.133-0.395,0.604-0.395,1.045c0,0.471-0.326,0.887-0.787,1.008c-0.621,0.162-0.789,0.537-0.789,1.76
	c0,0.936,0.157,1.457,0.395,1.31C-236.166,445.9-235.988,445.357-235.988,444.829L-235.988,444.829z M-297.89,438.967
	c0.514-2.822,0.537-3.77,0.088-3.77c-0.186,0-0.45,1.068-0.586,2.375c-0.136,1.306-0.362,2.857-0.501,3.447
	c-0.175,0.743-0.125,0.953,0.16,0.68C-298.501,441.482-298.124,440.254-297.89,438.967L-297.89,438.967z M-237.277,436.052
	l0.486-1.445l-0.187,1.312c-0.273,1.925,0.663,1.403,1.344-0.749c0.304-0.961,0.765-1.873,1.023-2.027
	c0.438-0.262,0.76-2.674,0.356-2.674c-0.428,0-2.775,2.952-3.399,4.275c-0.677,1.434-0.966,3.608-0.404,3.049
	C-237.896,437.63-237.544,436.847-237.277,436.052L-237.277,436.052z M-228.107,421.996c0-0.325-0.266-0.591-0.592-0.591
	c-0.324,0-0.591,0.266-0.591,0.591s0.267,0.592,0.591,0.592C-228.373,422.588-228.107,422.321-228.107,421.996z M-224.576,417.448
	c0.757-0.646,1.107-1.161,0.789-1.153c-0.643,0.014-1.484,0.623-2.3,1.662C-226.924,419.023-226.09,418.743-224.576,417.448z
	 M-235.75,411.645c0.05-0.375,0.221-1.105,0.379-1.621c0.216-0.699,0.154-0.895-0.241-0.764c-0.628,0.21-1.208,2.115-0.894,2.936
	C-236.246,412.873-235.879,412.605-235.75,411.645z"/>
<path id="path3041" inkscape:connector-curvature="0" fill="#CCCCCC" d="M-231.654,417.409c0-0.247-0.311-0.685-0.689-0.973
	c-0.49-0.372-0.534-0.526-0.152-0.536c0.445-0.01,0.439-0.166-0.035-0.898c-0.674-1.043-0.275-2.312,1.214-3.861
	c0.511-0.531,1.196-1.366,1.524-1.854c0.664-0.989,5.244-4.552,5.51-4.285c0.094,0.094-0.463,0.999-1.236,2.013
	c-1.987,2.604-1.748,3.124,0.361,0.785c1.071-1.188,1.706-2.234,1.611-2.658c-0.112-0.498,0.246-0.867,1.248-1.286
	c1.883-0.786,2.074-0.436,0.604,1.104c-1.667,1.746-4.647,6.191-6.106,9.105c-0.664,1.328-1.475,2.725-1.803,3.104
	C-230.271,417.94-231.654,418.103-231.654,417.409z M-229.941,415.41c0.252-0.967-0.531-1.728-1.007-0.979
	c-0.489,0.77-0.354,1.851,0.233,1.851C-230.415,416.282-230.067,415.89-229.941,415.41L-229.941,415.41z M-228.588,411.553
	c0.019-0.649-0.132-1.182-0.334-1.182c-0.203,0-0.368,0.532-0.368,1.182c0,0.65,0.15,1.183,0.335,1.183
	C-228.771,412.735-228.606,412.203-228.588,411.553z"/>
<path id="path3043" inkscape:connector-curvature="0" fill="#CCCCCC" d="M-228.01,434.577c-1.082-1.161-0.285-1.859,2.66-2.33
	c1.918-0.307,1.9-0.254-0.591,1.652C-227.245,434.898-227.602,435.015-228.01,434.577z"/>
<path id="path3045" inkscape:connector-curvature="0" fill="#CCCCCC" d="M-302.946,473.248c-0.941-2.261-1.228-3.49-1.136-4.873
	l0.122-1.85l0.536,1.619c0.416,1.258,0.838,1.738,1.888,2.15c0.744,0.292,1.534,0.75,1.756,1.018s0.646,0.394,0.942,0.279
	c0.296-0.113,0.859-0.02,1.252,0.209s0.514,0.42,0.27,0.428c-0.244,0.006-1.328,0.918-2.407,2.027l-1.963,2.016L-302.946,473.248z"
	/>
<path id="path3047" inkscape:connector-curvature="0" fill="#CCCCCC" d="M-278.962,487.728c-0.553-0.086-1.512-0.591-2.13-1.123
	c-0.619-0.531-1.408-0.97-1.753-0.976c-1.375-0.019-8.308-4.068-7.812-4.562c0.077-0.077,1.104,0.007,2.282,0.187
	c1.179,0.179,3.385,0.175,4.902-0.011s3.024-0.369,3.35-0.408s2.174,0.062,4.109,0.225c3.168,0.268,3.467,0.236,3.005-0.32
	c-0.282-0.34-0.875-0.617-1.318-0.617c-0.443,0-0.731-0.071-0.641-0.158c0.09-0.088,2.022-0.277,4.294-0.422
	c2.271-0.145,4.353-0.447,4.625-0.674c0.272-0.226,0.742-0.316,1.043-0.2c0.301,0.116,0.771,0.003,1.043-0.251
	c0.391-0.364,0.451-0.275,0.282,0.424c-0.312,1.297,0.408,1.498,1.767,0.493c0.966-0.714,1.256-0.778,1.533-0.342
	c0.27,0.427,0.342,0.431,0.347,0.022c0.003-0.283,0.184-0.406,0.4-0.271c0.562,0.348,0.491-1.519-0.079-2.089
	c-0.368-0.368-0.289-0.473,0.356-0.473c0.744,0,0.783-0.103,0.375-0.976c-0.496-1.062-2.279-2-3.159-1.662
	c-0.824,0.316-1.435-0.514-1.435-1.949c0-1.422,0.713-2.148,1.22-1.242c0.18,0.322,1.38,1.058,2.666,1.635
	c2.555,1.146,2.912,1.629,2.551,3.434c-0.199,1.001-0.1,1.236,0.603,1.42c0.463,0.121,0.842,0.466,0.842,0.766
	s0.177,0.545,0.394,0.545s0.395-0.266,0.395-0.591c0-0.779,0.195-0.751,2.076,0.296c1.158,0.645,1.64,0.752,1.762,0.395
	c0.093-0.271,0.701-0.493,1.351-0.493c1.71,0,1.202-0.956-0.589-1.107c-0.796-0.067-1.447-0.256-1.447-0.419
	c0-0.162,0.387-1.083,0.857-2.045l0.857-1.748l0.434,1.737c0.283,1.138,0.729,1.87,1.287,2.119c1.031,0.46,1.504,1.463,0.689,1.463
	c-0.318,0-0.578,0.196-0.578,0.437c0,0.27,0.378,0.342,0.985,0.189c0.812-0.203,0.985-0.104,0.985,0.566
	c0,0.828-1.62,2.748-2.318,2.748c-0.211,0-1.457,0.639-2.768,1.42c-2.291,1.365-2.488,1.41-5.053,1.168
	c-2.027-0.191-2.94-0.106-3.798,0.354c-1.55,0.832-4.161,0.759-6.217-0.174c-0.945-0.43-1.903-0.783-2.13-0.789
	c-0.476-0.01-0.518,1.535-0.062,2.246c0.204,0.317,0.002,0.545-0.593,0.668C-274.416,487.67-277.231,487.997-278.962,487.728
	L-278.962,487.728L-278.962,487.728z M-277.613,485.736c-0.466-1.924-0.906-2.856-1.348-2.856c-0.237,0-0.698-0.267-1.023-0.591
	c-0.644-0.645-3.503-0.814-3.865-0.229c-0.381,0.616,0.961,1.608,2.176,1.608c1.057,0,1.307,0.283,1.214,1.379
	c-0.029,0.346,1.974,1.574,2.804,1.721C-277.487,486.797-277.469,486.332-277.613,485.736L-277.613,485.736z M-254.174,483.07
	c0.511-0.539,1.258-0.979,1.662-0.979c0.791,0,1.729-1.358,1.355-1.964c-0.133-0.214-0.598-0.233-1.102-0.044
	c-0.48,0.179-1.893,0.451-3.139,0.604c-2.34,0.287-3.145,1.01-1.126,1.01c1.129,0,1.942,0.936,1.207,1.391
	c-0.446,0.275-0.505,0.977-0.081,0.967C-255.234,484.051-254.684,483.607-254.174,483.07z M-268.303,480.909
	c0-0.217-0.542-0.394-1.205-0.394c-0.704,0-1.104,0.164-0.962,0.394c0.134,0.217,0.676,0.394,1.205,0.394
	C-268.735,481.303-268.303,481.126-268.303,480.909z"/>
<path id="path3049" inkscape:connector-curvature="0" fill="#CCCCCC" d="M-277.103,471.157c-0.161-0.267,3.339-2.097,7.361-3.848
	c1.501-0.653,1.527-0.65,2.583,0.362c0.586,0.562,1.257,1.021,1.489,1.021c0.233,0,0.644,0.266,0.914,0.591
	c0.578,0.697,0.26,0.759-0.85,0.164c-0.572-0.306-1.094-0.307-1.846-0.001c-0.576,0.234-2.07,0.496-3.32,0.582
	c-1.25,0.084-2.513,0.354-2.807,0.598c-0.294,0.244-0.809,0.339-1.145,0.21c-0.335-0.129-0.968-0.042-1.405,0.191
	C-276.566,471.262-277.005,471.32-277.103,471.157z"/>
<path id="path3051" inkscape:connector-curvature="0" fill="#CCCCCC" d="M-249.311,462.201c-0.592-1.298-0.33-1.861,1.262-2.719
	c1.113-0.6,1.446-0.631,2.138-0.199c0.997,0.622,0.454,1.529-0.913,1.529c-0.598,0-1.076,0.388-1.463,1.187l-0.575,1.187
	L-249.311,462.201z"/>
<path id="path3053" inkscape:connector-curvature="0" fill="#CCCCCC" d="M-250.082,472.011c-0.405-0.438-0.281-0.774,0.678-1.828
	c0.995-1.093,1.172-1.171,1.148-0.505c-0.032,0.918-0.637,2.948-0.704,2.365c-0.026-0.226-0.169-0.202-0.335,0.055
	C-249.506,472.424-249.721,472.4-250.082,472.011z"/>
<path id="path3055" inkscape:connector-curvature="0" fill="#CCCCCC" d="M-254.043,475.439c-0.285-0.178-0.745-0.758-1.021-1.291
	c-0.474-0.913-0.428-0.99,0.814-1.379c1.209-0.379,1.312-0.346,1.277,0.416C-253.051,474.825-253.502,475.777-254.043,475.439z"/>
</svg>
