<?xml version="1.0" encoding="utf-8"?>
<!-- Generator: Adobe Illustrator 15.1.0, SVG Export Plug-In . SVG Version: 6.00 Build 0)  -->
<!DOCTYPE svg PUBLIC "-//W3C//DTD SVG 1.1//EN" "http://www.w3.org/Graphics/SVG/1.1/DTD/svg11.dtd">
<svg version="1.1"
	 id="Layer_1" xmlns:inkscape="http://www.inkscape.org/namespaces/inkscape" sodipodi:docname="trex.svg" inkscape:version="0.48.2 r9819" xmlns:sodipodi="http://sodipodi.sourceforge.net/DTD/sodipodi-0.dtd" xmlns:svg="http://www.w3.org/2000/svg" xmlns:rdf="http://www.w3.org/1999/02/22-rdf-syntax-ns#" xmlns:cc="http://creativecommons.org/ns#" xmlns:dc="http://purl.org/dc/elements/1.1/"
	 xmlns="http://www.w3.org/2000/svg" xmlns:xlink="http://www.w3.org/1999/xlink" x="0px" y="0px" width="100px" height="100px"
	 viewBox="-305.5 396.5 100 100" enable-background="new -305.5 396.5 100 100" xml:space="preserve">
<sodipodi:namedview  borderopacity="1" objecttolerance="10" id="namedview13" inkscape:window-width="706" inkscape:zoom="1.668772" bordercolor="#666666" pagecolor="#ffffff" gridtolerance="10" guidetolerance="10" inkscape:pageopacity="0" inkscape:pageshadow="2" inkscape:window-height="480" inkscape:cy="38.001607" showgrid="false" inkscape:cx="53.135325" inkscape:window-x="0" inkscape:window-y="0" inkscape:window-maximized="0" inkscape:current-layer="Layer_1">
	</sodipodi:namedview>
<path id="path9" inkscape:connector-curvature="0" d="M-215.746,431.285c-0.247-1.688-1.539-4.027-1.539-4.027
	c-0.311-0.541-0.867-0.997-1.338-1.481c-1.924-1.979-4.051-3.183-6.7-4.218c-1.882-0.737-3.849-0.417-5.814-0.806
	c-2.358-0.467-4.835-0.611-7.212-1.117c-1.016-0.216-2.035-0.614-3.064-0.843c-1.252-0.279-1.426,0.625-2.466,0.652
	c-0.927,0.025-1.889-0.904-2.978-0.9c-1.533,0.002-2.814,0.689-4.285,0.998c-2.471,0.52-4.835-0.711-7.252-1.331
	c-3.246-0.833-6.61-1.582-9.947-2.042c-1.131-0.155-2.308-0.109-3.372,0.25c-1.45,0.488-1.359,1.87-2.856,2.012
	c-1.608,0.154-3.308-0.373-4.943,0.023c-1.433,0.347-2.12,1.576-3.374,2.133c-1.644,0.732-3.407,0.736-5.009,1.73
	c-1.603,0.994-2.508,2.846-3.506,4.4c-0.711,1.106-1.251,1.899-1.623,3.111c-0.289,0.943-0.645,1.545-1.212,2.35
	c-0.484,0.685-1.181,1.498-1.25,2.336c-0.075,0.879,0.51,1.455,0.339,2.319c-0.245,1.242-2.308,2.484-1.352,3.721
	c0.739,0.954,2.112,0.56,3.008,0.46c0.175,1.981-0.151,4.143,0.433,6.045c0.527,1.719,1.816,3.067,2.173,4.757
	c1.684,0.702,4.759-1.31,6.376-1.8c1.958-0.592,4.108-0.852,6.112-1.281c1.296-0.278,2.5-0.584,3.814-0.396
	c0.636,0.091,2.163,0.91,2.78,0.709c0.521-0.171,0.296-0.499,0.562-0.893c0.586-0.867,0.959-1.37,2.122-1.458
	c1.251-0.097,2.37,0.479,3.685,0.335c1.347-0.148,2.551-0.592,3.888-0.789c2.549-0.375,5.287-0.357,7.757,0.311
	c1.5,0.405,2.91,0.772,4.34,0.957c0.129,0.232,0.244,0.469,0.333,0.717c0.3,0.836,0.169,2.277,0.89,2.846
	c0.675-0.788,1.181-2.113,1.498-3.467c0.082-0.005,0.164-0.012,0.246-0.02c0.504,1.445,0.89,2.93,1.599,4.242
	c0.946-0.354,1.287-2.979,1.265-4.747c0.134-0.03,0.27-0.06,0.402-0.091c0.904,1.377,1.367,3.017,2.158,4.611
	c0.709-0.494,1.346-2.535,1.605-3.367c0.23-0.734,0.286-1.496,0.19-2.237c0.61-0.165,1.22-0.335,1.827-0.506
	c0.51,0.774,1.113,1.534,1.416,2.472c0.254,0.782,0.299,1.918,0.743,2.547c1.314-0.904,1.834-3.929,1.651-6.127
	c0.059-0.02,0.119-0.037,0.18-0.055c1.166,1.434,1.638,3.147,2.225,4.929c1.365-1.44,0.96-3.849,0.685-5.866
	c0.39-0.129,0.776-0.262,1.164-0.395c0.47,0.965,0.786,1.996,0.942,3.066c0.104,0.709,0.421,2.504,0.757,4.125
	c1.341-0.839,1.341-4.354,1.341-5.268c0-0.971-0.262-1.904-0.502-2.828c0.219-0.081,0.436-0.163,0.652-0.243
	c0.656,1.278,1.979,3.769,2.595,3.659c1.062-0.188,0.535-3.018,0.087-4.726c0.775-0.337,1.549-0.7,2.297-1.086
	c0.307,0.864,0.855,1.816,1.109,2.548c0.308,0.887,0.348,1.667,1.047,0.877c0.678-0.77,0.697-3.476,0.491-4.982
	c0.908-0.592,1.86-1.191,2.816-1.402C-215.172,435.248-215.521,432.814-215.746,431.285L-215.746,431.285z M-267.239,436.979
	c-0.396,0.797-1.009,2.249-1.753,2.79c-1.029,0.749-2.678,0.494-3.843,0.138c-2.249-0.688-3.313-2.425-2.311-4.631
	c0.548-1.199,2.877-2.682,1.853-3.771c-0.964-1.024-3.203-0.459-3.726-2.126c-0.43-1.369,0.711-2.555,1.882-2.681
	c0.496-0.052,1.378,0.205,1.754-0.134c0.341-0.309,0.279-1.328,0.475-1.766l0.335-0.336c2.335,0.662,4.341,3.531,5.499,5.587
	C-265.667,432.55-266.036,434.562-267.239,436.979z M-252.579,437.728c-1.729,1.153-3.549,2.17-5.584,1.565
	c-0.89-0.267-1.741-0.653-2.432-1.312c-0.944-0.897-0.945-1.657-1.005-2.904c-0.226-4.687-0.922-9.639-4.046-13.182
	c0,0,0.224,0.011,0,0c-0.146-1.508,4.646,0.52,5.45,0.809c3.138,1.131,6.783,2.111,9.08,4.666
	C-248.129,430.695-248.853,435.242-252.579,437.728z M-240.847,434.829c-1.224-0.069-3.297-1.524-2.569-2.994
	c0.654-1.323,3.57-0.995,4.832-0.584c0.666,0.218,4.005,2.393,1.982,2.932l0.447-0.222c-0.519,0.232-1.481,0.254-2.123,0.424
	C-239.137,434.613-239.97,434.878-240.847,434.829z M-229.451,426.363c0,0,3.99-1.235,5.891-0.813
	c1.582,0.353,4.476,1.297,3.605,3.389c-0.997,2.401-2.547,0.592-4.021-0.254c-0.881-0.505-1.754-0.887-2.679-1.288
	C-227.27,427.13-229.264,426.803-229.451,426.363z"/>
<path id="path11" inkscape:connector-curvature="0" d="M-218.305,456.57c-0.461,1.354-0.348,3.106-0.973,4.428
	c-0.23-0.067-0.477-0.126-0.729-0.178c0.189-0.619,0.308-1.3,0.322-1.626c0.071-1.591-0.599-4.236-1.931-5.192
	c-0.791,1.916,0.113,4.367-0.898,6.352c0,0-0.664,0.159-1.025,0.163c-0.329-1.228-0.742-3.915-1.465-3.458
	c-0.069,1.129-0.375,2.445-0.519,3.623c-0.004,0-0.009,0-0.015,0.002c-0.357-1.312-0.998-3.6-1.797-3.422
	c-0.813,0.181-0.664,2.568-1.102,3.649c-1.7,0.063-3.395-0.007-5.262-0.304c-0.201-2.342-0.619-5.527-1.553-5.76
	c0,0-0.131,3.378-0.686,5.275c-0.545-0.145-1.086-0.299-1.618-0.459c-0.112-0.035-0.225-0.064-0.337-0.096
	c-0.102-1.439-0.705-3.057-1.069-4.232c-0.241,0.814-1.407,3.199-1.226,3.617c0,0-1.156-0.155-1.789-0.271
	c-0.281-1.027-0.639-2.05-0.92-3.047c-0.242-0.846-0.466-1.877-1.133-2.454c0.044,0.719,0.081,3.692-0.396,4.995
	c-0.416-0.107-0.818-0.232-1.213-0.368c-0.359-1.065-0.857-2.17-1.314-2.515c-0.137,0.598-0.268,1.219-0.426,1.83
	c-0.744-0.321-1.474-0.662-2.209-0.989c-0.607-1.1-1.207-2.202-1.833-3.3c-0.478,0.568-0.661,1.467-0.833,2.28
	c-3.232-1.003-6.532-2.081-9.877-2.642c-2.577-0.432-5.248-1.134-7.844-0.947c-2.814,0.199-4.762-0.289-7.488-0.927
	c-3.192-0.745-5.658,1.581-9.036,1.651l0,0c-0.212-0.137-0.438,0.022-0.509-0.379c-1.512,0.033-2.285-0.482-3.875,0.187
	c0.091,0.458,0.19,0.899,0.241,1.388c0.102,0.986-0.021,2.438-0.542,3.341c-0.625,1.081-2.298,1.461-2.289,2.937
	c0.009,1.399,1.346,1.488,2.344,1.92c1.763,0.76,3.424,1.635,4.911,2.903c1.499,1.279,3.426,2.1,4.742,3.483
	c1.488,1.565,1.949,2.176,4.119,2.803c1.614,0.467,2.974,1.251,4.462,1.924c2.101,0.949,4.733,1.354,7.016,1.506
	c2.946,0.198,5.514-0.982,8.147-2.106c2.461-1.053,4.938-1.653,7.608-1.937c5.64-0.592,11.316-0.445,16.966-0.773
	c2.682-0.156,5.373-0.205,8.055-0.285c1.473-0.045,3.195,0.082,4.305-1.008c0.884-0.869,1.428-1.962,2.039-3.025
	c0.441-0.77,1.438-1.859,1.256-2.832c-0.01-0.049-0.023-0.096-0.041-0.143C-216.85,460.447-217.33,457.985-218.305,456.57
	L-218.305,456.57z M-280.948,456.92c-1.037,0.643-2.706,0.327-3.64-0.382c-2.693-2.043,2.108-2.245,3.46-2.38l-0.246-0.198
	C-280.035,454.438-279.971,456.316-280.948,456.92z M-265.968,470.205c-1.263,0.43-3.062-1.386-3.918-2.066
	c-1.098-0.872-3.485-2.667-2.492-4.453l0.012,0.11c2.097,0.414,3.393,1.429,5.031,2.729
	C-266.642,467.076-263.97,469.53-265.968,470.205L-265.968,470.205z"/>
</svg>
