<?xml version="1.0" encoding="utf-8"?>
<!-- Generator: Adobe Illustrator 15.1.0, SVG Export Plug-In . SVG Version: 6.00 Build 0)  -->
<!DOCTYPE svg PUBLIC "-//W3C//DTD SVG 1.1//EN" "http://www.w3.org/Graphics/SVG/1.1/DTD/svg11.dtd">
<svg version="1.1"
	 id="svg2" xmlns:inkscape="http://www.inkscape.org/namespaces/inkscape" sodipodi:docname="triceratops.svg" inkscape:version="0.48.2 r9819" xmlns:sodipodi="http://sodipodi.sourceforge.net/DTD/sodipodi-0.dtd" xmlns:svg="http://www.w3.org/2000/svg" xmlns:sketch="http://www.bohemiancoding.com/sketch/ns" xmlns:rdf="http://www.w3.org/1999/02/22-rdf-syntax-ns#" xmlns:cc="http://creativecommons.org/ns#" xmlns:dc="http://purl.org/dc/elements/1.1/"
	 xmlns="http://www.w3.org/2000/svg" xmlns:xlink="http://www.w3.org/1999/xlink" x="0px" y="0px" width="100px" height="100px"
	 viewBox="-305.5 396.5 100 100" enable-background="new -305.5 396.5 100 100" xml:space="preserve">
<sodipodi:namedview  borderopacity="1" objecttolerance="10" id="namedview85" inkscape:window-width="946" inkscape:zoom="3.025641" bordercolor="#666666" pagecolor="#ffffff" gridtolerance="10" guidetolerance="10" inkscape:pageopacity="0" inkscape:pageshadow="2" inkscape:window-height="773" inkscape:cy="39" showgrid="false" inkscape:cx="45" inkscape:window-x="153" inkscape:window-y="21" inkscape:window-maximized="0" inkscape:current-layer="svg2">
	</sodipodi:namedview>
<title  id="title4">triceratops</title>
<desc  id="desc6">Created with Sketch.</desc>
<g id="Page-1" transform="translate(4.9576271,11.423729)" sketch:type="MSPage">
	<g id="triceratops" sketch:type="MSLayerGroup">
		<path id="Fill-1" sketch:type="MSShapeGroup" inkscape:connector-curvature="0" d="M-234.775,398.043
			c0.206,0.047,0.272,0.234,0.54,0.219c-0.191,0.348-0.209,0.549-0.107,0.979c-0.328,0.158-0.553,0.02-0.54-0.435
			c-0.46,0.044-0.458,0.555-0.972,0.544C-235.758,398.648-234.851,398.764-234.775,398.043"/>
		<path id="Fill-2" sketch:type="MSShapeGroup" inkscape:connector-curvature="0" d="M-233.155,401.418
			c-0.065,0.097-0.13,0.194,0,0.217c-0.248,0.04-0.103,0.477-0.432,0.436C-233.616,401.678-233.614,401.318-233.155,401.418"/>
		<path id="Fill-3" sketch:type="MSShapeGroup" inkscape:connector-curvature="0" d="M-228.943,401.635
			c0.033,0.505-0.188,0.753-0.647,0.762c-0.048-0.097-0.095-0.193-0.216-0.217C-229.737,401.799-229.254,401.428-228.943,401.635"/>
		<path id="Fill-4" sketch:type="MSShapeGroup" inkscape:connector-curvature="0" d="M-284.238,412.628
			c-0.271,0.386-0.928,0.001-1.513,0.218C-285.373,412.311-284.721,412.379-284.238,412.628"/>
		<path id="Fill-5" sketch:type="MSShapeGroup" inkscape:connector-curvature="0" d="M-274.842,414.479
			c-0.422-0.108-0.627,0.24-0.864,0C-275.592,414.183-274.864,413.979-274.842,414.479"/>
		<path id="Fill-6" sketch:type="MSShapeGroup" inkscape:connector-curvature="0" d="M-283.806,414.695
			c0.321,0.039,0.547,0.174,0.755,0.326c0.1-0.239,0.475-0.486,0.756-0.217c0.017,0.271-0.169,0.336-0.216,0.544
			C-283.133,415.323-283.842,415.385-283.806,414.695"/>
		<path id="Fill-7" sketch:type="MSShapeGroup" inkscape:connector-curvature="0" d="M-276.463,416.328
			c-0.386,0.407-2.18-0.085-2.16-0.436C-278.177,415.905-277.036,416.09-276.463,416.328"/>
		<path id="Fill-8" sketch:type="MSShapeGroup" inkscape:connector-curvature="0" d="M-278.191,417.525
			c0.373,0.389,1.237,0.48,1.728,0.436C-276.767,418.619-278.445,418.073-278.191,417.525"/>
		<path id="Fill-9" sketch:type="MSShapeGroup" inkscape:connector-curvature="0" d="M-269.01,418.832
			c0.275,0.014,0.419,0.158,0.432,0.435C-268.94,419.342-268.974,419.084-269.01,418.832"/>
		<path id="Fill-10" sketch:type="MSShapeGroup" inkscape:connector-curvature="0" d="M-270.523,418.941
			c0.204,0.013,0.075,0.359,0.324,0.326c-0.15,0.149-0.533,0.235-0.648,0.108C-270.814,419.154-270.63,419.086-270.523,418.941"/>
		<path id="Fill-11" sketch:type="MSShapeGroup" inkscape:connector-curvature="0" d="M-263.826,421.443
			c0.623,0.316,0.872,1.009,1.188,1.633C-263.293,422.793-263.499,422.057-263.826,421.443"/>
		<path id="Fill-12" sketch:type="MSShapeGroup" inkscape:connector-curvature="0" d="M-268.687,422.75
			c0.452,0.088,0.314,0.771,0.864,0.762C-268.287,423.867-268.785,423.324-268.687,422.75"/>
		<path id="Fill-13" sketch:type="MSShapeGroup" inkscape:connector-curvature="0" d="M-259.506,422.858
			c0.232,0.093,0.383,0.269,0.324,0.653c-0.498,0.066-0.621-0.244-1.08-0.218C-260.264,422.65-259.63,423.293-259.506,422.858"/>
		<path id="Fill-14" sketch:type="MSShapeGroup" inkscape:connector-curvature="0" d="M-266.742,426.233
			c-0.019-0.236,0.383-0.049,0.541-0.109C-266.3,426.313-266.581,426.404-266.742,426.233"/>
		<path id="Fill-15" sketch:type="MSShapeGroup" inkscape:connector-curvature="0" d="M-265.662,426.123
			c0.271,0.045,0.496,0.373,0.324,0.545C-265.662,426.676-265.886,426.348-265.662,426.123"/>
		<path id="Fill-16" sketch:type="MSShapeGroup" inkscape:connector-curvature="0" d="M-264.151,426.559
			c0.087,0.059,0.176,0.113,0.324,0.109c0.096,0.396-0.191,0.579,0,0.762c0.338-0.14,0.056-0.225,0.216-0.545
			c0.445,0.086,0.555-0.166,0.972-0.108c-0.364,0.468-0.903,0.759-1.188,1.306c-0.396,0.031-0.196-1.102-0.647-0.652
			C-264.874,427.055-264.136,426.906-264.151,426.559"/>
		<path id="Fill-17" sketch:type="MSShapeGroup" inkscape:connector-curvature="0" d="M-266.31,427.43
			c0.597-0.021,0.787,0.367,1.188,0.544C-265.275,428.309-266.236,427.868-266.31,427.43"/>
		<path id="Fill-18" sketch:type="MSShapeGroup" inkscape:connector-curvature="0" d="M-223.974,428.191
			c-0.976,0.506-2.583,0.373-3.132,1.307c1.201,0.236,1.525-0.199,2.484,0.217c-0.475,0.345-1.344,0.014-2.053,0.326
			c-0.463,0.205-1.133,0.387-1.62,0.545c0.495,0.34,1.25-0.045,1.404,0.762c-0.771-0.116-0.962-0.24-1.728-0.436
			c-0.82,0.227-1.251,0.844-2.16,0.98c0.996-1.064,2.998-1.115,3.455-2.722C-226.444,428.658-225.169,428.031-223.974,428.191
			L-223.974,428.191z M-227.214,430.041c0.001-0.18,0.3-0.061,0.324-0.217C-227.11,429.731-227.485,429.995-227.214,430.041
			L-227.214,430.041z"/>
		<path id="Fill-19" sketch:type="MSShapeGroup" inkscape:connector-curvature="0" d="M-228.403,429.607
			c-0.157,0.349-0.659,0.351-1.08,0.435C-229.305,429.711-228.739,429.775-228.403,429.607"/>
		<path id="Fill-20" sketch:type="MSShapeGroup" inkscape:connector-curvature="0" d="M-256.698,429.824
			c0.193-0.014,0.228,0.133,0.432,0.108c-0.424,0.734-0.406,1.913-0.972,2.503c-0.341,0.053-0.423-0.154-0.648-0.217
			c-0.358,0.4-0.692,0.826-1.296,0.979c0.367,0.21,0.543,0.612,1.188,0.544c-0.182,0.723,0.241,0.994,0,1.415
			c0.156,0.151,0.793,0.794,0.864,0.326c0.028,0.335,0.503,0.219,0.433,0.653c-1.326-0.021-1.689-0.765-1.621-1.959
			c-0.278-0.264-0.816-0.265-0.863-0.763c-0.255,0.144-0.746,0.046-0.972,0.218c-0.2,0.724-1.393,1.627-2.268,1.633
			c0.159-0.524,0.83-0.494,1.188-0.762c0.443-0.33,0.584-0.701,0.865-1.197c1.102-0.159,1.837-0.688,2.268-1.523
			c0.127,0.161,0.408,0.169,0.539,0.326C-256.778,431.848-256.88,430.693-256.698,429.824"/>
		<path id="Fill-21" sketch:type="MSShapeGroup" inkscape:connector-curvature="0" d="M-219.222,430.368
			c0.028,0.392-0.2,0.524-0.216,0.87c-0.129-0.16-0.408-0.168-0.541-0.326C-219.886,430.57-219.563,430.461-219.222,430.368"/>
		<path id="Fill-22" sketch:type="MSShapeGroup" inkscape:connector-curvature="0" d="M-303.57,436.681
			c0.333,0.101,0.001,0.817,0.215,1.089C-303.893,437.687-303.61,436.836-303.57,436.681"/>
		<path id="Fill-23" sketch:type="MSShapeGroup" inkscape:connector-curvature="0" d="M-221.167,437.986h0.324
			c-0.012,0.686-0.01,1.26-0.648,1.524C-221.375,438.943-221.204,438.335-221.167,437.986"/>
		<path id="Fill-24" sketch:type="MSShapeGroup" inkscape:connector-curvature="0" d="M-302.058,439.075
			c0.185,0.357,0.286,0.8,0.324,1.306C-302.214,440.23-302.126,439.496-302.058,439.075"/>
		<path id="Fill-25" sketch:type="MSShapeGroup" inkscape:connector-curvature="0" d="M-250.651,440.273
			c-0.772,0.054-0.92-0.524-1.512-0.653c-0.033-0.132,0.312-0.375,0.324-0.108C-251.442,439.764-250.885,439.857-250.651,440.273"/>
		<path id="Fill-26" sketch:type="MSShapeGroup" inkscape:connector-curvature="0" d="M-255.186,440.273h0.324
			c0.049,0.856,0.842,0.964,1.08,1.632C-254.688,441.803-254.881,440.982-255.186,440.273"/>
		<path id="Fill-27" sketch:type="MSShapeGroup" inkscape:connector-curvature="0" d="M-299.359,440.816
			c-0.345-0.015-0.826,0.107-0.756-0.326C-299.986,440.393-299.308,440.401-299.359,440.816"/>
		<path id="Fill-28" sketch:type="MSShapeGroup" inkscape:connector-curvature="0" d="M-298.278,441.796
			c0.109,0.327-0.24,0.193-0.432,0.218C-298.684,441.822-298.525,441.766-298.278,441.796"/>
		<path id="Fill-29" sketch:type="MSShapeGroup" inkscape:connector-curvature="0" d="M-295.794,441.796h0.324
			c-0.013,0.423-0.549,0.712-0.108,0.979c-0.017,0.271-0.366,0.032-0.432,0c-0.492,0.375-1.013,0.721-1.62,0.98
			c-0.107,0.798-0.435,1.375-1.296,1.414c-0.006-0.598-0.295-1.043-0.108-1.523c0.363,0.031,0.737,0.055,0.972,0.218
			c0.293-0.14,0.311-0.558,0.648-0.653c-0.43-0.293-1.277-0.164-1.62-0.544c0.179-0.467,1.597,0.333,2.051,0.435
			c0.295-0.102,0.461-0.334,0.756-0.435c-0.044-0.21-0.419-0.087-0.324-0.436C-296.268,442.061-295.731,442.479-295.794,441.796
			L-295.794,441.796z M-298.602,444.626C-298.238,444.957-298.275,444.223-298.602,444.626L-298.602,444.626z"/>
		<path id="Fill-30" sketch:type="MSShapeGroup" inkscape:connector-curvature="0" d="M-301.842,442.014
			c0.297,0.391,0.748,0.626,0.864,1.197C-301.374,442.92-301.795,442.655-301.842,442.014"/>
		<path id="Fill-31" sketch:type="MSShapeGroup" inkscape:connector-curvature="0" d="M-250.543,442.449
			c0.14,0.149,0.47,0.107,0.757,0.109c0.092,0.824-0.512,0.613-0.973,0.435C-250.851,442.647-250.589,442.656-250.543,442.449"/>
		<path id="Fill-32" sketch:type="MSShapeGroup" inkscape:connector-curvature="0" d="M-257.563,442.775
			c0.441,0.318,0.691,0.828,1.08,1.197C-256.932,444.454-257.697,443.214-257.563,442.775"/>
		<path id="Fill-33" sketch:type="MSShapeGroup" inkscape:connector-curvature="0" d="M-258.642,443.211
			c0.488,0.633,0.808,1.436,1.296,2.068C-258.274,445.089-258.26,443.951-258.642,443.211"/>
		<path id="Fill-34" sketch:type="MSShapeGroup" inkscape:connector-curvature="0" d="M-232.399,443.647
			c0.533,0.516,0.297,1.806,1.297,1.85c0.086-0.632-0.918-0.621-0.648-1.088c0.651,0.504,1.701,0.607,2.484,0.979
			c-0.34,0.377-0.905-0.034-1.404-0.108c-0.221,0.176,0.004,0.803-0.216,0.979c-0.422-0.01-0.337-0.531-0.756-0.543
			c-0.21,0.76,1.191,1.614,0.756,2.285c-0.489-0.103-0.493-0.936-0.864-1.633c-0.184-0.345-0.607-0.447-0.54-0.871h0.433
			c-0.348-0.447-0.531-1.061-0.756-1.632c-0.342-0.15-0.652,0.269-0.756,0C-233.413,443.423-232.698,443.744-232.399,443.647"/>
		<path id="Fill-35" sketch:type="MSShapeGroup" inkscape:connector-curvature="0" d="M-238.014,444.191h0.324
			c0.089,0.584,0.192,0.478,0.324,0.979C-238.02,445.08-237.941,444.68-238.014,444.191"/>
		<path id="Fill-36" sketch:type="MSShapeGroup" inkscape:connector-curvature="0" d="M-223.111,444.191
			c0.296-0.079,0.218,0.216,0.433,0.218c-0.2,0.161-0.162,0.562-0.54,0.544C-223.518,444.652-223.122,444.498-223.111,444.191"/>
		<path id="Fill-37" sketch:type="MSShapeGroup" inkscape:connector-curvature="0" d="M-242.659,444.518
			c0.486,0.037,0.313,0.326,0.433,0.543c0.2,0.271,0.686,0.253,0.647,0.763c-0.51-0.176-0.837-0.534-1.295-0.763
			C-242.891,444.79-242.705,444.725-242.659,444.518"/>
		<path id="Fill-38" sketch:type="MSShapeGroup" inkscape:connector-curvature="0" d="M-244.386,445.823
			c-0.244,0.062,0.131,0.169-0.108,0.326c-0.373,0.076-0.387-0.382-0.216-0.544c-0.165-0.152-0.466-0.402-0.216-0.653
			c0.268,0.492,0.948,0.568,1.08,1.197C-244.21,446.226-244.201,445.926-244.386,445.823"/>
		<path id="Fill-39" sketch:type="MSShapeGroup" inkscape:connector-curvature="0" d="M-256.483,445.279
			c0.555-0.015,0.866,0.215,0.973,0.652C-256.11,445.789-256.506,445.867-256.483,445.279"/>
		<path id="Fill-40" sketch:type="MSShapeGroup" inkscape:connector-curvature="0" d="M-224.514,445.823
			c0.391-0.104,0.15,0.429,0.216,0.653c-0.519,0.087-0.868,0.824-1.296,0.652C-225.405,446.522-224.696,446.44-224.514,445.823"/>
		<path id="Fill-41" sketch:type="MSShapeGroup" inkscape:connector-curvature="0" d="M-265.231,446.912
			c0.111,0.37-0.176,0.942-0.432,1.306c-0.271,0.384-0.806,0.939-1.296,0.979c0.018-0.128,0.197-0.092,0.325-0.109
			c-0.056-0.161-0.16-0.274-0.216-0.436c-0.314,0.084-0.28,0.517-0.756,0.436c0.055-0.734,0.645-0.904,1.296-0.762
			C-265.826,447.981-265.594,447.379-265.231,446.912"/>
		<path id="Fill-42" sketch:type="MSShapeGroup" inkscape:connector-curvature="0" d="M-295.255,448
			c-0.682,0.799-1.612,1.35-2.375,2.068c0.061-0.598,1.123-1.199,1.728-1.633C-295.698,448.289-295.547,447.984-295.255,448"/>
		<path id="Fill-43" sketch:type="MSShapeGroup" inkscape:connector-curvature="0" d="M-235.638,448.326
			c-0.012,0.279-0.062,0.52-0.216,0.653c-0.402-0.03-0.5-0.366-0.648-0.653C-236.328,448.149-236.05,448.424-235.638,448.326"/>
		<path id="Fill-44" sketch:type="MSShapeGroup" inkscape:connector-curvature="0" d="M-268.578,449.306
			c0.571,0.419-0.868,1.233-1.188,1.633c-0.298,0.019-0.371-0.167-0.216-0.327c-0.678,0.196-1.068,1.111-1.188,1.524
			c-0.392,0.015-0.131-0.586-0.108-0.653c0.167-0.5,0.962-1.049,1.188-1.414c0.291-0.076,0.209,0.225,0.324,0.326
			C-269.22,450.183-268.945,449.699-268.578,449.306"/>
		<path id="Fill-45" sketch:type="MSShapeGroup" inkscape:connector-curvature="0" d="M-228.726,451.7
			c0.31,0.257,0.573-0.069,0.864,0.108c0.086,0.606-0.967,0.233-0.541,0.871c-0.908,0.242-0.897-0.088-1.619,0v-0.436
			C-229.265,452.152-228.94,452.227-228.726,451.7"/>
		<path id="Fill-46" sketch:type="MSShapeGroup" inkscape:connector-curvature="0" d="M-301.087,455.945
			c0.377,0.088-0.093,0.697-0.107,1.088c-0.013,0.342,0.226,0.561,0.107,0.87C-301.628,457.553-301.324,456.6-301.087,455.945"/>
		<path id="Fill-47" sketch:type="MSShapeGroup" inkscape:connector-curvature="0" d="M-299.466,456.707
			c-0.367,0.344,0.397,0.604,0.107,0.871c-0.413,0.089-0.127-0.525-0.54-0.436C-299.771,456.981-299.805,456.656-299.466,456.707"/>
		<path id="Fill-48" sketch:type="MSShapeGroup" inkscape:connector-curvature="0" d="M-297.738,457.033
			c-0.083,0.41,0.132,0.521,0.108,0.87C-297.965,457.884-298.299,456.988-297.738,457.033"/>
		<path id="Fill-49" sketch:type="MSShapeGroup" inkscape:connector-curvature="0" d="M-300.438,458.231
			c0.116,0.286,0.502,0.866,0.324,1.088C-300.526,459.262-300.415,458.678-300.438,458.231"/>
		<path id="Fill-50" sketch:type="MSShapeGroup" inkscape:connector-curvature="0" d="M-298.711,459.318
			c0.478-0.009-0.016,0.959,0.648,0.762c-0.18,0.432-0.29,0.225-0.648,0.109V459.318"/>
		<path id="Fill-51" sketch:type="MSShapeGroup" inkscape:connector-curvature="0" d="M-275.058,466.394
			c-0.279,0.765-1.266,0.86-1.944,1.196c-0.713,0.354-1.403,0.729-1.836,1.307c-0.073,0.762,0.311,1.064,0.54,1.523
			c-0.068,0.258-0.146,0.507-0.433,0.545c0.119,0.497,0.437,0.793,0.648,1.197c0.168,0.302,0.677,0.261,0.648,0.762
			c-0.849,0.007-1.324-1.27-1.836-1.959c0.021-0.307,0.188-0.465,0.54-0.436c-1.233-1.782,0.292-2.576,1.729-3.266
			c0.496-0.237,1.071-0.337,1.404-0.544C-275.455,466.631-275.473,466.282-275.058,466.394"/>
		<path id="Fill-52" sketch:type="MSShapeGroup" inkscape:connector-curvature="0" d="M-280.35,467.808
			c-0.032,0.327-0.844,0.146-0.972,0.108C-282.11,467.691-280.915,467.614-280.35,467.808"/>
		<path id="Fill-53" sketch:type="MSShapeGroup" inkscape:connector-curvature="0" d="M-280.674,468.57h-0.864
			C-281.636,468.065-280.719,468.27-280.674,468.57"/>
		<path id="Fill-54" sketch:type="MSShapeGroup" inkscape:connector-curvature="0" d="M-284.346,468.787
			c-0.472,0.076-0.608-0.185-1.08-0.108C-285.34,468.3-284.345,468.408-284.346,468.787"/>
		<path id="Fill-55" sketch:type="MSShapeGroup" inkscape:connector-curvature="0" d="M-286.398,469.114
			c0.302,0.167,0.837,0.099,0.864,0.544C-285.906,469.562-286.331,469.519-286.398,469.114"/>
		<path id="Fill-56" sketch:type="MSShapeGroup" inkscape:connector-curvature="0" d="M-282.834,469.441
			c0.439,0.137,0.834,0.319,1.188,0.543C-281.882,470.403-282.732,469.852-282.834,469.441"/>
		<path id="Fill-57" sketch:type="MSShapeGroup" inkscape:connector-curvature="0" d="M-279.81,470.203h-1.08
			C-280.753,469.858-279.901,469.723-279.81,470.203"/>
		<path id="Fill-58" sketch:type="MSShapeGroup" inkscape:connector-curvature="0" d="M-282.51,471.617
			c-0.263,0.3-1.25-0.356-1.512-0.762c-0.447-0.058-0.86-0.148-0.972-0.544C-284.114,470.272-283.364,471.272-282.51,471.617"/>
		<path id="Fill-59" sketch:type="MSShapeGroup" inkscape:connector-curvature="0" d="M-281.43,472.379
			c0.516,0.024,1.133-0.054,1.08,0.545C-280.699,472.731-281.242,472.734-281.43,472.379"/>
		<path id="Fill-60" sketch:type="MSShapeGroup" inkscape:connector-curvature="0" d="M-267.822,428.082
			c-0.418-0.775-1.215-1.17-1.944-1.632c-0.813-1.575-2.167-2.604-3.024-4.136c-4.029-0.277-6.062-1.928-8.964-3.374
			c-1.06-1.253-3.152-1.468-3.888-3.048c-0.963-0.553-1.825-1.207-2.376-2.176c-0.57-0.209-1.324-0.629-1.728-1.197
			c-0.237-0.336-0.278-0.891-0.54-1.307c-0.41-0.651-1.181-1.158-1.512-1.741c-0.188-0.33-0.405-1.03-0.54-1.415
			c-0.121-0.346-0.719-1.448,0-1.85c0.905,0.537,1.342,1.549,2.592,1.74c0.395,0.963,1.778,1.121,3.024,1.416
			c1.289,1.306,3.567,1.449,5.508,1.85c1.376,0.612,2.793,1.162,4.32,1.633c0.053,0.016,1.743-0.074,1.944,0
			c0.791,0.289,1.856,0.533,2.484,1.088c1.44,0.179,2.287,1.061,3.564,1.742c1.384,0.737,2.787,1.244,4.211,1.959
			c1.567,0.785,2.958,1.845,4.104,3.047c0.79,0.111,1.617,0.823,2.268,1.088c0.27,0.11,0.643-0.065,0.648,0.219
			c0.153-0.01,0.307-0.019,0.324,0.108c0.58-0.181,1.16,0.095,1.729,0.108c0.189,0.005,0.235-0.197,0.432-0.217
			c0.183-0.019,0.577,0.095,0.863,0.108c0.463,0.022,3.018,0.552,3.35,0.218c0.196-0.199,0.867-0.184,1.188-0.653
			c1.935-0.306,3.4-1.517,4.644-2.829c0.473-0.5,0.811-0.902,1.296-1.416c0.801-0.846,1.603-1.881,2.268-3.047
			c0.103-0.179,0.371-0.303,0.432-0.436c0.08-0.173,0.061-0.633,0.109-0.762c0.281-0.752,0.744-1.599,1.079-2.504
			c1.308-3.523,2.468-7.041,2.593-10.229c0.297-0.747,0.232-1.553,0.323-2.83c0.547-1.281,2.921-1.206,3.888-0.327
			c1.503,0.082,2.389,0.786,3.457,1.307c0.105,0.776,0.713,1.337,1.295,1.306c0.331,0.669,0.992,0.999,1.621,1.415
			c0.828,0.549,1.506,1.363,2.375,1.959c0.463,1.272,1.144,2.543,1.404,3.701c0.629,0.984,1.115,1.631,1.944,2.503
			c0.276,0.292,0.337,0.656,0.647,1.196c0.312,0.541,0.719,1.063,0.863,1.852c0.221,1.19,0.158,2.518,0.541,3.809
			c0.216,0.729,0.584,1.367,0.648,2.068c0.062,0.69-0.007,1.446,0.324,2.176c1.371,1.913,0.92,5.397,1.836,7.293
			c-0.05,0.354-0.119,0.723-0.108,1.088c0.008,0.28,0.021,0.793,0.216,0.871c-0.018,0.127-0.197,0.092-0.324,0.108
			c-0.19,1.321-0.846,2.483-1.08,3.81c-0.056,0.314-0.066,0.68-0.107,0.979c-0.314,2.279-1.349,5.105-1.945,7.618
			c-0.34,1.44-0.887,2.576-1.402,3.918c-1.262,1.506-2.882,2.269-4.104,3.919c-0.274,0.37-0.458,1.344-0.757,1.85
			c-0.68,1.153-1.854,1.662-2.699,2.721c-0.438,0.067-0.746,0.265-1.08,0.436c-0.562,0.041-1.002-0.325-1.404-0.544
			c-0.365-0.198-0.879-0.344-1.08-0.762c-1.316-0.549-3.201-0.816-4.535-2.068c-0.383-0.358-0.574-0.869-0.973-1.197
			c-0.414-0.34-1.139-0.835-1.619-0.979c-1.182-0.354-2.864-0.035-4.104-0.436c-0.599-0.193-1.103-0.697-1.62-0.762
			c-0.748-0.095-1.232,0.015-1.729,0.544c-0.174,0.185-0.622,0.599-0.539,1.197c0.076,0.556,0.338,0.432,0.647,0.87
			c-0.077,0.891,0.181,2.797-0.323,3.592c0.222,0.248,0.208,0.2,0.647,0.326c-0.091,0.664,0.765,1.176,0.864,2.068
			c0.117,1.055-0.426,1.97-0.864,2.721c0.028,0.335,0.234,0.49,0.323,0.762c-0.16,0.981-0.476,1.217-0.539,2.178
			c-0.677,0.008-0.447,0.928-1.08,0.979c-0.037,0.754-0.402,1.116-0.756,1.742c-0.68,1.202-1.246,1.913-2.484,2.83
			c-0.683,0.504-1.422,1.217-2.052,1.523c-1.004,0.486-2.061,0.268-3.132,0.436c-1.08,0.168-2.084,0.804-3.349,0.652
			c-0.836-0.1-1.362-0.815-2.268-0.108c-0.917-0.128-1.718-0.235-2.592,0c-0.869,0.233-1.314,0.997-2.16,1.088
			c-1.125,0.12-2.542,0.26-3.672,0.108c-0.364-0.048-0.673-0.307-0.972-0.326c-0.334-0.021-0.688,0.133-1.08,0.109
			c-0.274-0.017-0.671-0.242-0.972-0.219c-0.228,0.02-0.516,0.5-0.756,0.219c0.176,0.708-0.229,1.129-0.216,1.959
			c-1.408,1.052-5.382,0.953-7.452,0.326c-0.431-0.107-0.326,0.325-0.756,0.217c-1.485-0.461-2.353-1.547-3.779-2.066
			c-0.503-0.51-0.975-1.051-1.729-1.307c-0.76-1.522-2.953-2.172-2.484-4.57c1.137,0.306,2.373,0.512,3.132,1.196
			c0.585-0.311,1.125-0.134,1.836-0.218c1.331-0.157,2.623-1.018,3.996-1.197c0.309-0.041,0.676,0.078,0.972,0
			c1.151-0.303,1.394-1.646,3.132-1.306c0.397-0.181,0.582-0.575,0.864-0.87c1.251,0.223,2.124-0.525,2.916-1.089
			c-0.125-0.306-0.125-0.565,0-0.87c1.402-0.979,3.251-1.178,5.076-1.524c0.624-0.118,1.272-0.246,1.728-0.653
			c0.84,0.048,1.238-0.349,1.944-0.436c0.219-0.287,0.62-0.391,0.864-0.652c1.453,0.194,1.981-0.543,2.7-1.088
			c0.286-0.314,0.686,0.313,0.972,0c-0.046-0.709-0.659-1.416-1.188-1.96c-0.157,0.204-0.355,0.368-0.54,0.544
			c-0.471-0.178-0.883,0.338-1.296,0.436c-0.806,0.191-1.789,0.076-2.7,0.218c-0.925,0.144-1.805,0.659-2.592,0.763
			c-0.247,0.031-0.621-0.111-0.864-0.109c-1.528,0.01-2.926,0.779-4.428,1.088c-0.69,0.143-1.336-0.091-1.836,0.436
			c-0.4-0.491-0.695-0.445-0.756-1.197c-2.145-1.635-4.358,1.357-6.588,0c-1.069,0.084-1.956,0.352-3.024,0.436
			c-2.003,1.436-6.477,2.719-9.396,1.197c-0.146,0.396-0.201,1.094-0.54,0.979c0.25,0.8,0.675,1.424,1.188,1.958
			c-0.541,0.916-1.994,0.814-2.808,0.654c-1.752-0.348-3.358-1.677-4.104-2.83c-0.007-0.287,0.252-0.366,0.108-0.652
			c-0.875-1.27-1.155-3.256-1.188-4.898c-0.015-0.709-0.08-1.656,0-2.177c0.022-0.147,0.173-0.022,0.215-0.108
			c0.072-0.146,0.207-1.257,0.324-1.742c0.671-1.195,1.293-2.946,1.62-4.135c-0.454-0.631-1.099-1.07-1.404-1.851
			c-0.303-0.13-0.416-0.452-0.755-0.544c-0.346-1.15-1.363-1.674-1.728-2.83c-0.188-0.596-0.101-1.268-0.217-1.959
			c-0.225-1.346-0.65-2.744-0.755-4.136c-0.052-0.68,0.093-1.312-0.216-1.851c0.247-0.021-0.04-0.424,0.432-0.652
			c0.488,0.197,0.648,0.725,0.757,1.306c1.197,1.878,3.129,3.013,4.428,4.788c0.843,0.242,1.338,0.51,2.052,0.871
			c0.668,0.338,1.174,0.17,2.376,0.326c0.546,0.071,1.086,0.375,1.62,0.436c0.396,0.045,0.763-0.129,1.188-0.108
			c0.133,0.007,0.378,0.19,0.54,0.218c0.297,0.049,0.604-0.03,0.864,0c0.533,0.061,0.849,0.229,1.512,0.108
			c1.604-0.292,3.637-0.456,5.076-0.979c1.61-0.585,3.297-1.395,4.968-2.068c0.035-0.014,0.18,0.102,0.323,0
			c0.312-0.22,0.937-0.238,1.513-0.435c0.823-0.282,1.547-0.874,2.375-1.089c0.807-1.082,1.728-2.234,2.592-3.592
			c0.256-0.402,0.475-0.93,0.756-1.306c0.102-0.136,0.394-0.166,0.54-0.326c0.234-0.258,0.331-0.756,0.54-0.979
			c0.226-0.241,0.693-0.248,0.757-0.653c0.661,0.065,0.771-0.229,1.295-0.435c0.113-0.045,0.067-0.09,0-0.109
			C-268.764,428.603-268.177,428.322-267.822,428.082L-267.822,428.082z M-227.43,452.898c0.168-0.13,0.423-0.209,0.432-0.218
			c0.436-0.438,0.496-1.39,0.864-1.306c-0.066-0.007-0.128-0.017-0.108-0.108c0.312-0.432,0.535-1.049,0.756-1.307
			c0.081-0.094,0.038-0.214,0.108-0.326c1.353-2.173,3.815-3.343,4.644-5.877c0.139-0.007,0.15-0.141,0.324-0.109
			c0.641-3.432,1.929-6.678,2.16-9.904c0.236,0.02,0.344-0.089,0.324-0.327c0.044-1.501,1.171-2.796,1.08-4.57
			c-0.025-0.482-0.147-1.103-0.217-1.633c-0.02-0.151-0.184-0.159-0.216-0.327c-0.057-0.299-0.063-0.746-0.107-1.088
			c-0.224-1.757-0.538-3.598-1.296-4.57c0.248-0.676-0.205-1.16-0.324-1.742c-0.051-0.243,0.036-0.516,0-0.762
			c-0.111-0.77-0.527-1.656-0.648-2.177c-0.103-0.447-0.025-0.856-0.107-1.306c-0.001-0.006-0.194-0.05-0.217-0.109
			c0.033,0.088,0-0.22,0-0.217c-0.217-1.094-0.124-2.004-0.432-2.83c-0.576-1.549-1.719-2.674-2.592-3.81
			c-0.098-0.587-0.363-0.819-0.756-1.306c-0.26-1.517-1.037-2.511-1.62-3.701c-0.688-0.469-1.11-0.962-1.728-1.414
			c-0.289-0.211-0.553-0.454-0.864-0.654c0.053,0.035-0.202,0.074-0.324,0c-0.427-0.256-1.365-0.988-1.62-1.306
			c-0.213-0.266-0.197-0.548-0.432-0.762c-0.453-0.413-1.229-0.541-1.62-1.089c-1.531,0.057-2.076-0.882-3.563-0.87
			c-0.921,0.642-0.476,1.979-0.648,3.048c-0.051,0.314-0.309,0.914-0.432,1.414c-0.666,2.696-1.514,5.801-2.16,7.837
			c-0.166,0.52-0.234,0.819-0.324,1.196c-0.209,0.877-0.565,1.408-0.864,2.068c-0.385,0.853-0.604,1.492-0.972,2.178
			c-0.566,1.056-1.39,1.628-1.836,2.611c-1.152,0.49-1.576,1.778-2.376,2.504c-1.174,1.063-2.842,1.98-4.32,2.611
			c0.073-0.031-0.712-0.109-0.432,0.218c1.924-0.182,3.904-1.785,5.616-2.177c-1.105,0.665-2.322,1.215-3.457,1.85
			c1.077-0.312,2.096-0.559,3.024-0.979c0.91-0.412,1.597-1.141,2.484-1.523c-0.735,1-2.04,1.426-3.132,2.067
			c1.367-0.433,2.538-0.821,3.672-1.306c0.811-0.347,1.523-0.828,2.16-0.98c-1.723,1.24-4.053,1.866-6.156,2.721
			c1.279-0.049,2.023-0.44,2.916-0.762c0.599-0.215,1.205-0.338,1.729-0.543c1.277-0.502,2.284-1.535,3.562-1.633
			c-1.783,0.995-3.703,1.854-5.723,2.611c1.111-0.258,2.322-0.416,3.131-0.979c1.516-0.184,3.489-1.414,4.861-1.742
			c-1.395,1.062-3.459,1.449-5.076,2.285c0.812-0.132,1.646-0.225,2.375-0.435c1.943-0.562,3.476-1.853,5.076-1.96
			c-2.213,1.144-4.389,2.012-7.02,2.722c-0.365,0.099-0.797-0.03-1.08,0.326c-0.896-0.007-1.871,0.2-2.809,0.436
			c0-0.109,0.088-0.13,0.108-0.218c-0.384-0.169-0.065,0.369-0.323,0.326c0.129-0.348-0.562-0.316-0.973-0.108
			c0.117,0.026,0.26,0.18,0.107,0.218c-0.291-0.253-0.42,0.122-0.432-0.218c-0.509,0.286-1.131,0.456-1.943,0.436
			c0.198-0.19,0.013-0.378-0.324-0.327c-0.344,0.225,0.305,0.218,0,0.327c-0.461-0.231-0.857,0.145-1.188-0.218
			c-2.812,0.383-6.336-0.322-9.828-0.436c-0.582-0.611-1.307-1.078-2.376-1.197c-0.282-0.731-1.186-0.836-1.512-1.523
			c-0.335-0.024-0.608-0.166-0.864-0.326c-0.256-0.162-0.411-0.484-0.647-0.653c-0.826-0.591-1.739-0.788-2.7-1.197
			c-0.491-0.208-0.839-0.635-1.296-0.87c-0.279-0.145-0.594-0.182-0.864-0.327c-0.821-0.442-1.648-0.793-2.375-1.306
			c-0.787,0.086-1.374-0.633-2.052-0.871c-0.689-0.242-1.525-0.219-2.268-0.436c-1.53-0.447-3.057-1.074-4.536-1.306
			c-0.833-0.132-1.16-0.289-1.728-0.435c-0.857-0.222-1.542-0.134-2.16-0.437c-0.469-0.229-0.883-0.335-1.404-0.544
			c-0.335-0.135-0.568-0.438-0.864-0.545c-0.746-0.269-1.605-0.31-2.16-0.543c-0.414-0.563-1.064-0.888-1.728-1.197
			c-0.024-0.342-0.542-0.455-0.864-0.653c-0.243-0.15-0.709-0.69-0.757-0.327c0.318,0.819,1.054,1.377,1.512,2.068
			c0.392,0.59,0.513,1.391,0.972,1.959c0.199,0.246,0.571,0.395,0.864,0.653c1.519,1.34,2.897,2.472,4.537,3.591
			c0.647,0.443,1.237,1.057,1.836,1.416c0.347,0.207,0.839,0.234,1.188,0.435c0.454,0.262,0.926,0.693,1.404,0.979
			c0.676,0.404,1.323,0.844,2.16,0.871c0.733,0.604,1.938,0.732,2.484,1.523c0.915,0.062,1.319-0.029,2.16,0.109
			c2.137,2.018,3.549,4.768,6.155,6.312c-0.66,0.967-2.038,1.211-2.916,1.959c-0.253,0.035-0.406,0.172-0.756,0.108
			c-0.124,0.287-0.326,0.431-0.54,0.653c-0.154,0.161-0.505,0.355-0.648,0.544c-0.07,0.093,0.057,0.333,0,0.436
			c-0.098,0.179-0.461,0.5-0.648,0.762c-0.306,0.431-0.612,0.901-0.864,1.197c-0.298,0.352-0.649,0.662-0.864,0.979
			c-0.189,0.279-0.195,0.504-0.324,0.653c-0.08,0.093-0.037,0.213-0.108,0.326c-0.99,1.59-2.956,1.975-4.86,2.612
			c-0.75,0.251-1.271,0.673-2.052,0.652c-1.964,1.123-4.323,1.857-6.48,2.504c-0.428-0.034,0.121-0.378-0.323-0.326
			c-0.98,0.209-1.987,0.392-3.024,0.544c-0.11-0.106-0.218-0.216-0.324-0.327c-1.164-0.074-2.407,0.173-3.672,0
			c-0.285-0.039-0.44-0.241-0.756-0.326c-0.61-0.164-1.446-0.065-1.944-0.218c-0.595-0.181-0.908-0.782-1.62-0.653
			c-2.284-1.182-3.731-3.205-5.4-5.006c-0.034,2.562,0.788,3.955,0.864,6.203c0.978,1.627,2.352,2.854,3.348,4.463
			c0.161,0.019,0.399-0.039,0.432,0.109c-0.011,0.518,0.496,0.516,0.54,0.979c-0.629,1.125-1.21,1.629-1.403,3.156
			c-0.276,0.146-0.418,0.564-0.54,0.871c-0.381,0.959-0.629,2.095-0.648,3.374c0.644-0.005,0.586-0.716,1.404-0.544
			c0.351,0.471,0.013,0.995,0.108,1.306c-0.345-0.015-0.357-0.365-0.648-0.435c0.34,0.015,0.372-0.28,0.432-0.545
			c-1.001-0.05-0.557,0.668-0.54,0.979c-0.254-0.034-0.064-0.517-0.432-0.435c-0.386,0.449-0.257,1.405-0.216,2.067
			c0.022,0.359,0.032,0.841,0.108,1.089c0.286,0.928,1.656,1.854,1.404,2.721c1.082,0.797,2.293,1.461,4.104,1.523
			c-0.318-0.535-0.279-1.486-0.432-2.178c0.191-0.097,0.138-0.441,0.54-0.326c-0.112-0.524-0.32-0.531-0.54-0.762
			c3.382,0.537,7.421,0.881,9.72-0.979c0.547-0.211,1.072-0.444,1.512-0.763c1.072-0.004,2.794,0.096,3.996,0.544
			c0.502-0.354,1.259-0.227,1.836-0.436c0.355-0.128,0.61-0.449,0.972-0.543c1-0.262,2.032,0.115,2.916-0.109
			c1.062-0.271,2.857-0.486,3.456-0.871c0.939-0.603,1.761-1.139,2.16-1.959c1.837-0.325,2.333-2.002,3.024-3.482
			c1.325,0.091,2.054-0.84,3.132-0.653c0.235-0.198,0.375-0.492,0.756-0.544c0.306-0.018,0.251,0.327,0.54,0.326
			c0.588-0.686,1.259-1.839,2.052-1.959c-0.209,0.694-2.613,2.113-1.188,2.504c0.194-0.602,0.313-1.281,0.756-1.633
			c0.112,0.316,0.419,0.268,0.54,0.326c0.006,0.901-0.042,1.857,0.432,2.285c0.01-0.171-0.014-0.377,0.216-0.326
			c-0.025,2.674,2.072,3.208,3.457,4.462c0.126,1.149,2.074,1.798,3.348,1.306c0.205,0.048,0.271,0.235,0.539,0.219
			c0.443-0.303,0.918-0.067,1.404-0.109c1.451-0.123,2.473-0.752,3.348-1.523c0.016-0.457,0.197-0.744,0.433-0.979
			c0.332-1.508-1.06-2.447-2.269-3.048c-0.658-2.107-3.495-1.435-3.996-3.482c-0.078-0.322,0.207-0.771,0.108-1.197
			c-0.103-0.443-0.447-0.531-0.54-1.088c-0.418-0.059-0.527,0.193-0.971,0.108c-0.242-0.665-1.209-1.177-0.973-1.959
			c0.468,0.218,0.311,1.065,0.973,1.089c0.096-0.416,0.524-0.938,0.971-0.654c-0.303,0.24-0.498,0.587-0.756,0.871
			c0.273,0.368,0.566,0.068,1.08,0.109c0.01,0.171-0.014,0.377,0.216,0.326c0.59-0.827,1.636-0.21,2.485-0.326
			c0.73,0.533,1.307,1.222,2.268,1.523c0.17-0.01,0.084-0.277,0.323-0.217c0.629,0.381,1.174,0.848,2.16,0.869
			c1.28,1.781,4.11,1.352,6.048,2.396c2.576-0.456,3.461,2.146,4.859,2.938c0.246,0.139,0.659,0.19,0.973,0.326
			c1.205,0.522,2.334,1.109,3.564,1.415c-0.102,0.267,0.56,0.557,0.972,0.653C-229.108,453.761-228.071,453.393-227.43,452.898
			L-227.43,452.898L-227.43,452.898z M-287.479,409.907c-0.138-0.007-0.149-0.14-0.323-0.109
			C-287.97,410.066-287.436,410.118-287.479,409.907L-287.479,409.907z M-277.974,420.246c0.259-0.261-0.355-0.281-0.324-0.108
			C-278.3,420.13-277.933,420.205-277.974,420.246L-277.974,420.246z M-277.434,420.356
			C-276.72,420.545-278.308,420.077-277.434,420.356L-277.434,420.356z M-246.222,422.531c-0.019-0.146,0.55-0.217,0.216-0.326
			C-245.987,422.353-246.631,422.347-246.222,422.531L-246.222,422.531z M-253.026,446.258c0.689-0.247,0.94-0.938,1.728-1.088
			c-0.62,0.681-1.592,1.008-1.944,1.959c0.709-0.339,1.324-1.349,1.944-1.414c-0.534,0.623-1.271,1.039-1.728,1.74
			c0.756-0.109,0.801-0.934,1.62-0.979c-0.245,0.604-1.388,0.827-1.296,1.414c0.703-0.271,1.256-1.271,2.051-1.088
			c-0.408,0.243-1.313,0.559-1.188,0.979c0.242-0.196,0.727-0.714,0.973-0.544c-0.238,0.522-1.024,0.492-1.188,1.088
			c0.493,0.013,0.897-0.936,1.188-0.436c-0.086,0.24-0.508,0.142-0.54,0.436c0.471,0.076,0.479-0.314,0.863-0.326
			c-0.005,0.15,0.052,0.238,0.108,0.326c-0.363-0.003-0.572,0.15-0.756,0.326c0.316-0.028,0.331,0.246,0.647,0.218
			c0.499-0.509,0.884-0.913,0.972-1.632c0.078-0.639-0.336-1.015,0-1.307c-0.946-0.368-1.808-1.881-3.023-0.979
			c-0.215-0.001-0.137-0.297-0.432-0.218c-0.258,0.299-0.215,0.657-0.108,1.089c0.681,0.008,0.851-0.995,1.403-0.763
			C-252.037,445.586-252.743,445.709-253.026,446.258L-253.026,446.258z M-249.247,446.803c-0.049,0.688-0.408,2.09-0.863,2.177
			c0.089,0.382,0.604,0.333,0.432,0.979c0.504,0.363,1.032,0.701,1.62,0.979c-0.075-1.58,1.116-2.78,2.268-3.483
			c-0.736-0.6-1.805-0.865-2.7-1.306c-0.029,0.614-0.741-0.262-0.863,0.108C-248.976,446.61-249.222,446.463-249.247,446.803
			L-249.247,446.803z M-222.138,446.584C-222.826,446.9-221.727,446.397-222.138,446.584L-222.138,446.584z M-261.234,449.85
			c0.127,0.018,0.307-0.018,0.324,0.109c0.075,0.076-0.213,0.137-0.216,0.109c0.034,0.41,1.266,2.462,1.62,2.176
			c-0.461-0.26-0.33-1.117-0.648-1.523c-0.024,0.085-0.09,0.127-0.215,0.109c-0.229-0.419-0.378-1.283-0.433-1.851
			c-0.014-0.142,0.281-0.533-0.108-0.436C-260.932,449.066-261.343,449.195-261.234,449.85L-261.234,449.85z M-265.122,454.965
			c0.308-0.571,1.037-0.42,1.512-0.108c0.288-0.29,0.607-0.55,0.972-0.762c0.045,0.208,0.039,0.468,0.324,0.436
			c-0.158-0.414,0.483-0.021,0.324-0.436c-0.416-0.125-0.709-0.373-1.188-0.436c-0.341,0.273-0.825,0.402-1.295,0.544
			c-0.736-0.478-0.364-1.54,0-2.067c-0.202-0.104-0.361,0.325-0.432,0c0.3-0.417,0.783-0.781,1.188-1.197
			c0.376-0.387,0.723-1.125,1.296-0.979c-0.531,0.263-0.884,0.705-1.188,1.197c0.669-0.16,0.759-0.904,1.404-1.088
			c-0.021,0.377-0.382,0.412-0.432,0.762c0.335-0.207,0.617-0.468,0.756-0.871c-0.426,0.029-0.33-0.466-0.756-0.436
			c-0.828,0.544-1.434,1.601-2.16,2.285c-0.206,0.195-0.582,0.48-0.864,0.436c0.795-1.049,1.927-1.758,2.7-2.83
			c-1.744,0.674-2.549,2.293-3.888,3.375c0.679-1.348,1.901-2.147,2.917-3.156c-1.612,0.589-2.273,2.135-3.672,2.938
			c0.733-1.074,1.867-1.746,2.7-2.721c-2.383,0.683-2.657,3.491-5.185,4.027c-0.989,2.178-3.458,2.272-5.94,2.83
			c0.471-0.039,0.452,0.414,0.648,0.652c0.507,0.039,0.328-0.613,0.864-0.544c0.125,0.019,0.117,0.172,0.108,0.327
			c0.429-0.352,0.82-0.937,1.512-0.436c0.257-0.4,0.834-0.533,1.404-0.326c0.001-0.326,0.194-0.458,0.432-0.545
			c0.841,0.97,0.752-0.551,1.836,0.109c0.061-0.375,0.327-0.541,0.648-0.653c0.254,0.034,0.201,0.378,0.54,0.326
			c0.344-0.233,0.546-0.61,0.972-0.762c0.108,0.145,0.102,0.405,0.324,0.436c0.27-0.2,0.347-0.595,0.756-0.653
			C-265.617,455.111-265.082,454.4-265.122,454.965L-265.122,454.965z M-267.174,451.266c0.319-0.368,0.746-0.627,0.972-1.089
			C-266.946,450.047-267.051,451.132-267.174,451.266L-267.174,451.266z M-262.098,450.83c0.351-0.01,0.664-0.057,0.864-0.219
			c-0.154-0.025-0.182-0.179-0.324-0.217C-261.585,450.695-261.96,450.643-262.098,450.83L-262.098,450.83z M-255.942,456.053
			c-0.628-0.451-0.898-1.176-1.621-1.414c0.007-0.14,0.139-0.15,0.109-0.326c-1.263-1.05-3.025-1.596-3.564-3.374
			c-1.744,0.276-3.702,1.115-3.456,2.721c0.365-0.141-0.014-0.175,0.54-0.218c-0.001,0.145-0.189,0.1-0.216,0.218
			c1.214-0.945,2.383,0.114,3.132,0.871c0.222,0.224,0.479,0.446,0.648,0.652c0.854,1.044,1.074,1.888,0.863,3.483
			c-0.153,1.158-0.1,1.527-0.54,2.068c-0.057,1.842-1.209,3.193-2.484,4.135c-0.254-0.516,0.467-0.878,0.864-1.088
			c0.794-0.938,1.343-2.342,1.297-3.81c-0.689-0.077-0.927,0.835-1.729,1.088c-0.247,0.079-0.604,0.073-0.972,0.109
			c-0.168,0.194-0.297,0.427-0.432,0.653c-1.506,1.076-3.979,2.155-6.264,1.741c-1.121,0.556-2.908,0.083-3.888,0.218
			c-0.414,0.744-1.425,0.885-2.376,1.088c0.083,0.024,0.213,0.004,0.216,0.109c-2.142,0.858-4.458,1.719-6.804,2.395
			c-0.516,0.148-1.075,0.055-1.512,0.435c-1.363,0.104-2.222,0.181-3.24,0.327c-0.592-0.456-1.276-0.818-2.16-0.979
			c0.17,0.79,0.674,0.858,1.188,1.415c0.543,0.588,0.601,1.024,1.081,0.979c0.469,0.978,1.746,1.144,2.375,1.958
			c-0.443,0.043-0.804-0.561-1.08-0.326c1.218,0.758,2.761,1.775,4.536,2.177c0.223,0.051,0.529-0.027,0.756,0
			c0.661,0.081,1.333,0.392,1.943,0.436c1.021,0.074,1.987-0.302,2.916-0.218c0.643-0.338,1.308-1.035,0.972-1.741
			c0.352-0.589,1.092-0.786,1.836-0.979c0.395-0.071,0.414,0.235,0.755,0.217c0.34,0.054,0.245-0.333,0.648-0.217
			c0.76,0.066,1.487,0.406,2.16,0.436c0.459,0.021,0.999-0.221,1.512-0.219c0.375,0.004,0.633,0.152,0.972,0.109
			c0.921-0.117,1.533-0.826,2.376-1.088c0.917-0.285,1.89-0.238,2.809-0.109c0.942-0.736,1.767,0.008,2.483,0.109
			c0.28,0.039,0.982-0.062,1.404-0.109c1.476-0.16,3.261-0.641,4.319-0.979c0.318-0.102,0.708-0.041,0.865-0.109
			c0.471-0.206,0.82-0.708,1.188-0.98c0.85-0.626,1.571-1.192,2.16-1.74c0.545-1.322,1.24-2.07,1.619-3.374
			c0.692-0.354,0.91-1.188,1.08-2.067c-0.793-1.34,0.913-2.49,0.648-3.701c-0.17-0.78-0.861-0.987-0.973-1.633
			c-0.412-0.188-0.926,0.403-0.971-0.108c-0.705,0.352-1.243,1.022-2.269,1.197c-1.296,0.221-2.741-0.227-3.563,0.218
			c0.381,0.56,0.672,1.209,1.403,1.414c0.479-0.383,2.364-0.297,1.944,0.763c-0.082-0.573-1.518-0.106-1.404-0.545
			c-0.478,0.368-0.973-0.177-1.512-0.108c-0.668-0.476-0.383-1.268-1.08-1.633c-0.211,0.149,0.42,0.367,0.432,0.653
			C-254.508,456.627-255.456,456.404-255.942,456.053L-255.942,456.053L-255.942,456.053z M-247.95,451.266
			c0.495-0.096,0.508,0.859,0.863,0.543c-0.217-0.253-0.264-0.677-0.648-0.762C-247.735,451.191-247.923,451.147-247.95,451.266
			L-247.95,451.266z M-264.043,451.591c0.223,0.096,0.485-0.282,0.216-0.325C-263.853,451.42-264.004,451.449-264.043,451.591
			L-264.043,451.591z M-263.718,455.51c0.382-0.123,0.979-0.029,1.08-0.436c-0.164-0.213-0.661,0.456-0.432-0.218
			C-263.397,454.963-263.612,455.18-263.718,455.51L-263.718,455.51z M-262.098,455.292c0.034-0.147,0.154-0.208,0.108-0.436h-0.432
			C-262.516,455.205-262.256,455.197-262.098,455.292L-262.098,455.292z M-264.906,455.618c-0.129-0.287-0.662-0.296-0.541,0.218
			c0.632,0.02,0.95-0.276,1.404-0.436c-0.038-0.488-0.323-0.315-0.54-0.436C-264.768,455.105-264.585,455.615-264.906,455.618
			L-264.906,455.618z M-266.202,455.836c0.125,0.092,0.289,0.144,0.54,0.109c-0.097-0.319-0.097-0.334,0-0.653
			c-0.294,0.079-0.217-0.216-0.432-0.218C-266.032,455.428-266.168,455.58-266.202,455.836L-266.202,455.836z M-267.822,456.272
			c0.431,0.06,0.325,0.06,0.756,0v-0.653h-0.54C-267.555,455.961-267.76,456.044-267.822,456.272L-267.822,456.272z
			 M-266.634,455.945h0.215v-0.218h-0.215V455.945L-266.634,455.945z M-264.474,456.053c0.403,0.01,0.747-0.045,0.972-0.217
			C-263.895,455.84-264.355,455.775-264.474,456.053L-264.474,456.053z M-268.578,456.381h0.432c0.031-0.285-0.04-0.469-0.323-0.436
			C-268.463,456.135-268.494,456.283-268.578,456.381L-268.578,456.381z M-269.766,456.598c0.45,0.051,1.226-0.137,0.864-0.545
			C-269.032,456.637-269.534,456.19-269.766,456.598L-269.766,456.598z M-270.198,456.816c0.016-0.128,0.192-0.247,0-0.326
			C-270.214,456.617-270.391,456.736-270.198,456.816L-270.198,456.816z M-270.846,456.924c0.202-0.014,0.361-0.07,0.432-0.217
			c-0.205,0.023-0.238-0.123-0.432-0.109V456.924L-270.846,456.924z M-273.438,457.251c0.224,0.061,0.229,0.169,0.108,0.327
			c0.355-0.005,0.538-0.185,0.972-0.109c0.009-0.189-0.024-0.339-0.107-0.436c0.131-0.013,0.255-0.033,0.215-0.218
			C-272.743,457.108-273.005,457.413-273.438,457.251L-273.438,457.251z M-272.142,457.143c0.468-0.125,0.715,0.094,0.864-0.219
			c-0.351,0.063-0.502-0.074-0.755-0.108C-272.03,456.965-272.085,457.055-272.142,457.143L-272.142,457.143z M-274.194,457.795
			c0.342,0.018,0.652,0.004,0.756-0.217c-0.549,0.02-0.024-0.368-0.432-0.436C-273.967,457.371-274.038,457.626-274.194,457.795
			L-274.194,457.795z M-285.534,457.469c0.326-0.034,0.839,0.121,0.864-0.218C-285.048,457.233-285.361,457.279-285.534,457.469
			L-285.534,457.469z M-274.95,457.903c0.277-0.011,0.515-0.062,0.648-0.217c-0.255-0.034-0.202-0.378-0.541-0.327
			C-274.933,457.486-274.984,457.651-274.95,457.903L-274.95,457.903z M-260.479,458.339c-0.435,0.325-1.645,0.444-1.295,1.198
			c-0.019-0.236,0.383-0.05,0.54-0.109c0.147-0.205-0.123-0.482,0.432-0.436c0.019,0.163-0.038,0.401,0.108,0.436
			c0.13-0.521,0.848-0.451,0.864-1.089c-0.161,0.019-0.398-0.038-0.432,0.109c0.166,0.042,0.016,0.13-0.107,0
			c-0.098,0.097-0.168,0.757-0.325,0.436C-260.47,458.856-260.665,458.405-260.479,458.339L-260.479,458.339z M-260.37,459.645
			c0.379,0.156,0.771-0.559,0.323-0.543C-259.844,459.596-260.475,459.249-260.37,459.645L-260.37,459.645z M-290.934,459.428
			c0.114-0.113,0.925-0.069,0.648-0.218C-290.548,459.174-291.16,459.33-290.934,459.428L-290.934,459.428z M-262.638,459.428
			c-0.997-0.098-1.423,0.381-1.944,0.762c-0.447,0.152-0.618-0.094-0.864,0.218c0.338,0.075,0.141,0.29,0.108,0.544
			c0.452,0.092,0.51-0.211,0.865-0.217c-0.058-0.279-0.144-0.381,0.107-0.545c0.091,0.127,0.143,0.292,0.108,0.545
			c0.955-0.016-0.042-0.813,0.864-0.98c-0.125,0.129-0.123,0.385-0.108,0.653c0.758-0.003,0.067-0.797,0.756-0.87
			c-0.077,0.633,0.091,0.276-0.108,0.87c0.673-0.218,0.413-0.729,0.756-1.197C-262.43,459.129-262.306,459.508-262.638,459.428
			L-262.638,459.428z M-262.422,460.625c0.514-0.172,1.069-0.303,1.188-0.871C-261.822,459.851-262.153,460.207-262.422,460.625
			L-262.422,460.625z M-266.31,460.951c0.432,0.141-0.03,0.225,0,0.544c0.609,0.034,0.56-0.596,0.756-0.979
			C-265.868,460.6-266.175,460.688-266.31,460.951L-266.31,460.951z M-268.795,461.387c-0.099,0.5,0.229,0.568,0.648,0.545
			c0.104-0.203-0.323-0.365,0-0.437c0.442,0.034,0.633,0.387,0.973,0c-0.327-0.132,0.057-0.435,0.215-0.435
			c-0.021,0.312-0.013,0.594,0.325,0.544c0.102-0.251,0.007-0.351,0.107-0.762C-267.325,460.838-267.861,461.264-268.795,461.387
			L-268.795,461.387z M-265.554,461.277c-0.019,0.381-0.249,0.549-0.54,0.654c-1.311-0.305-1.818,0.777-2.916,0.326
			c-0.474,0.283-0.964,0.553-1.512,0.762c-0.543-0.357-0.99,0.088-1.404,0.436c2.677-0.292,5.656,0.039,7.236-1.523
			c0.125-0.092,0.29-0.145,0.54-0.109c0.229-0.422,0.693-0.607,0.972-0.979C-264.054,460.906-264.725,461.5-265.554,461.277
			L-265.554,461.277z M-270.306,461.495c0.181,0.46,0.016,0.622,0.323,0.87c0.018-0.126,0.171-0.117,0.324-0.107
			c0.048-0.423-0.271-0.684,0.216-0.763v0.437c0.493,0.097,0.437-0.359,0.541-0.654
			C-269.639,461.047-269.859,461.781-270.306,461.495L-270.306,461.495z M-298.17,461.822c-0.404,0.116-0.308-0.271-0.648-0.218
			C-298.866,461.881-298.254,462.037-298.17,461.822L-298.17,461.822z M-271.17,462.365c-0.305,0.018-0.271-0.307-0.432-0.434
			c-0.334,0.17-0.708,0.301-0.864,0.652c0.395,0.072,0.414-0.236,0.755-0.219c0.024,0.207-0.121,0.241-0.108,0.437
			c0.528-0.167,0.775-0.392,1.404-0.218c0.096-0.416-0.176-0.695,0-0.871c-0.389,0.039-0.521,0.167-0.864,0
			C-271.356,461.984-270.803,462.16-271.17,462.365L-271.17,462.365z M-297.63,462.04c-0.247,0.149-0.406-0.28-0.432,0
			C-297.996,462.072-297.646,462.311-297.63,462.04L-297.63,462.04z M-297.09,462.149
			C-297.782,462.023-297.327,462.481-297.09,462.149L-297.09,462.149z M-296.118,462.258
			C-296.667,461.961-296.52,462.638-296.118,462.258L-296.118,462.258z M-272.466,463.346h0.324v-0.217h-0.324V463.346
			L-272.466,463.346z"/>
		<path id="Fill-61" sketch:type="MSShapeGroup" inkscape:connector-curvature="0" d="M-231.858,405.444
			c-0.244-0.343-0.213,0.503-0.541,0.437c0.069-0.546,0.356-0.826,0.324-1.198c0.261-0.091,0.404,0.049,0.541-0.327
			c0.367,0.091-0.084,0.545-0.108,0.763c-0.03,0.269,0.09,0.497,0.108,0.763c0.066,0.99-0.481,2.018-0.324,2.938
			c0.027,0.137,0.215,0.109,0.216,0c0.24,0.046,0.085,0.578,0,0.653c-0.269,0.017-0.335-0.171-0.54-0.218
			c-0.023-1.068,0.241-2.078,0.324-2.721c-0.58,0.504-0.631,1.54-1.297,1.959C-233.049,407.581-232.098,406.582-231.858,405.444"/>
		<path id="Fill-62" sketch:type="MSShapeGroup" inkscape:connector-curvature="0" d="M-226.782,416.219
			c-0.09,0.639-0.934,1.453-1.513,1.96c0.058,0.087,0.112,0.177,0.108,0.326c-0.711,0.788-0.963,1.366-1.188,2.612
			c-0.528,0.375-0.368,1.108-0.864,1.306c-0.176-0.71,0.67-1.167,0.756-1.959c-0.803,0.136-1.414,1.983-2.159,2.177
			c0.325-0.542,0.729-1.006,1.079-1.523c-0.07-0.326-0.23,0.104-0.432,0c0.061-0.557,0.656-0.572,0.864-0.979
			c0.04-0.185-0.085-0.206-0.216-0.218c0.703-0.561,1.326-1.203,1.836-1.959c-1.007,0.438-2.139,1.691-3.24,2.395
			c1.001-1.35,2.612-2.084,3.672-3.374C-227.457,417.483-227.255,416.498-226.782,416.219L-226.782,416.219L-226.782,416.219z
			 M-230.346,420.791c0.295-0.502,1.322-0.844,1.08-1.524C-229.474,419.858-230.313,420.386-230.346,420.791L-230.346,420.791z"/>
		<path id="Fill-63" sketch:type="MSShapeGroup" inkscape:connector-curvature="0" d="M-266.526,433.089
			c0.31,0.16,0.476,0.464,0.756,0.653c0.082,1.934,1.021,4.254-0.216,5.877c-0.492,0.646-2.034,1.555-3.564,1.307
			c-0.885-0.145-1.1-1.191-2.376-0.762c0.192-0.229,0.214-0.565-0.107-0.327c-0.113-0.216-0.074-0.415-0.108-0.653
			c-0.086-0.594-0.374-1.392-0.324-1.85c0.055-0.511,0.342-1.422,0.647-1.851c0.187-0.263,0.904-0.499,1.296-0.979
			c0.076-0.092,0.023-0.338,0.108-0.436c0.01-0.011,0.141,0.085,0.216,0c0.379-0.43,1.288-0.633,1.944-0.87
			c0.094-0.034,0.093-0.108,0.108-0.218c0.538-0.143,0.459,0.335,0.864,0.326C-266.828,433.438-266.809,433.131-266.526,433.089
			L-266.526,433.089z M-269.226,439.075c0.161-0.065,0.451-0.548,0.54-0.327c-0.006,0.464-0.589,0.477-0.864,0.654
			c-0.305,0.195-0.556,0.5-0.864,0.652c0.801,0.209,1.218-0.765,2.052-0.871c-0.215,0.635-1.542,0.672-1.404,1.307
			c0.396,0.173,0.488-0.781,1.188-0.653c-0.091,0.343-0.557,0.31-0.648,0.653c0.755,0.217,0.459-0.626,1.08-0.545
			c0.117,0.278-0.465,0.381-0.108,0.545c1.918-0.398,2.601-1.953,2.592-4.027c-0.063-0.227-0.227-0.352-0.324-0.544
			c0.192-0.206,0.079-0.719,0.108-1.089c-0.55-0.225-0.092-0.887-0.432-1.197c-0.716,0.134-1.263,0.131-1.728-0.218
			c-0.55,0.493-1.119,0.351-1.62,0.653c-0.162,0.098-0.027,0.257-0.216,0.436c-0.334,0.316-1.305,0.703-1.728,1.415
			c1.15-0.437,1.732-1.447,2.916-1.851c-0.293,0.432-0.7,0.637-0.972,0.871c-0.406,0.35-0.72,0.482-1.08,0.762
			c-0.419,0.324-1.022,0.649-1.188,1.197c1.172-0.451,2.091-1.738,3.024-2.068c-0.284,0.621-1.065,0.741-1.404,1.307
			c0.538,0.066,0.766-0.746,1.08-0.545c-0.772,1-2.3,1.238-2.808,2.504c1.113-0.438,1.597-1.51,2.7-1.959
			c-0.502,0.779-1.351,1.178-1.944,1.741c-0.249,0.237-0.676,0.573-0.648,0.979c0.901-0.01,1.762-1.555,2.592-1.633
			c-0.598,0.74-1.8,1.451-2.268,1.959c0.77-0.313,1.497-1.246,2.16-1.306c-0.65,0.615-1.428,1.101-2.16,1.633
			c0.96,0.099,1.478-1.098,2.484-1.306c-0.493,0.664-1.403,0.907-1.944,1.523c0.798-0.068,1.31-1.001,1.944-0.871
			C-269.236,438.883-269.378,439.037-269.226,439.075L-269.226,439.075z"/>
		<path id="Fill-64" sketch:type="MSShapeGroup" inkscape:connector-curvature="0" d="M-271.494,441.143
			c0.026-0.092,0.549-0.169,1.188-0.108c0.157,0.386,0.518,0.565,0.863,0.762c-0.139,0.508-1.034,0.075-0.972-0.326
			c-0.341-0.054-0.381,0.196-0.756,0.108C-271.152,441.306-271.337,441.237-271.494,441.143"/>
		<path id="Fill-65" sketch:type="MSShapeGroup" inkscape:connector-curvature="0" d="M-275.058,443.756h-0.324
			c-0.117,0.589,0.468,0.471,0.432,0.979c0.34,0.053,0.244-0.334,0.648-0.217c0.406,0.279,0.686,0.687,0.864,1.197
			c-0.434,0.94-0.759,1.992-1.512,2.611c0.083,0.41-0.132,0.521-0.108,0.871c-0.258,0.065-0.493,0.156-0.864,0.108
			c-1.52,1.806-2.577,4.079-4.428,5.551c-0.16-0.614,0.632-1.002,0.972-1.524c0.266-0.406,0.47-0.825,0.756-1.306
			c0.139-0.232,0.378-0.432,0.324-0.761c0.639-0.445,0.651-1.521,1.188-2.068c0.048-0.81,0.236-1.047,0.432-1.523
			c0.338-0.022,0.793,0.072,0.972-0.109c-0.368-0.878,0.46-1.567,0.648-2.504c-0.319-0.424-0.927-1.148-0.432-1.74
			c-0.468-0.152-0.001-0.574-0.647-0.545c0.204-0.121,0.378-0.271,0.647-0.326c0.186,0.646,0.469,1.195,0.648,1.85
			C-275.078,444.283-275.074,444.025-275.058,443.756L-275.058,443.756z M-275.382,446.693c0.082,0.771-0.075,1.303-0.432,1.633
			c-0.202-0.086-0.396-0.182-0.648-0.218c-0.04,0.94-0.911,1.62-0.756,2.395c0.574-0.583,0.677-1.64,1.836-1.633
			c0.395-1.497,1.895-2.356,1.188-3.81c-0.138-0.006-0.149-0.139-0.324-0.108C-274.87,445.469-275.019,446.189-275.382,446.693
			L-275.382,446.693z"/>
		<path id="Fill-66" sketch:type="MSShapeGroup" inkscape:connector-curvature="0" d="M-274.302,442.885
			c0.016-0.243,0.271,0.141,0.54,0c-0.035,0.393,0.573,1.011-0.107,1.088c-0.133-0.301-0.097-0.773-0.541-0.762
			c0.027-0.118,0.215-0.074,0.216-0.218C-274.174,442.9-274.236,442.891-274.302,442.885"/>
		<path id="Fill-67" sketch:type="MSShapeGroup" inkscape:connector-curvature="0" d="M-300.006,454.965
			c0.004,0.339-0.737,0.484-0.648,0c0.184-0.04,0.204,0.086,0.216,0.218C-300.269,455.137-300.346,454.84-300.006,454.965"/>
		<path id="Fill-68" sketch:type="MSShapeGroup" inkscape:connector-curvature="0" d="M-297.523,450.939
			c0.854-0.373,1.308-1.149,2.268-1.415c-0.606,0.514-1.305,0.934-1.836,1.523c0.508-0.215,1.421-0.961,2.052-1.414
			c0.02,0.4-0.75,0.746-1.188,1.088c-0.459,0.358-0.946,0.725-1.296,1.088c0.021,0.088,0.108,0.109,0.108,0.218
			c0.443-0.169,0.623-0.606,0.864-0.979c0.207,0.047,0.465,0.04,0.432,0.327c0.243-0.118,0.042-0.685,0.54-0.544
			c0.212,0.801-0.508,1.391,0,1.74c0.081,0.336-0.373,0.134-0.216,0.545c0.213,0.207,0.492-0.443,0.864-0.436
			c-0.888,0.775-1.623,1.703-2.7,2.285c0.336-0.749,1.322-0.844,1.512-1.74c-0.661,0.133-1.347,1.18-2.16,1.522
			c-0.018,0.889,0.896,0.839,1.513,1.089c0.292,1.084,1.15,1.598,2.7,1.415c-0.606,0.613-1.785,0.385-2.376-0.108
			c-0.34-0.285-0.44-0.819-0.648-1.09c-0.76,0.041-1.077-0.364-1.512-0.652v-0.762c-0.478,0.1-0.562,0.596-1.188,0.544
			c-0.622-1.538,1.111-2.479,1.836-3.374c-0.334-0.582-0.643-1.072-0.648-1.523c-0.013-1.172,1.368-1.711,1.404-3.266
			c0.047-0.387,0.391-0.476,0.54-0.762c-0.062-0.227-0.268-0.311-0.216-0.652c0.427-0.139,0.262,0.316,0.541,0.326
			c0.052-0.346,0.617-0.176,0.54-0.652c0.548-0.138,1.143-0.227,1.296-0.762c1.174-0.15,2.181-1.057,3.348-1.197
			c0.743-0.091,1.582,0.156,2.376,0.107c0.852-0.05,1.726-0.168,2.592-0.217c0.535-0.03,1.083,0.212,1.62,0.217
			c1.568,0.018,3.07-0.5,4.644-0.435c0.355,0.187,0.396,0.69,0.648,0.979c-0.069,0.402-0.293,0.648-0.216,1.197
			c-0.499,0.477-0.812,1.141-1.296,1.633c-0.303,1.283,0.178,3.236-1.188,3.7c-0.521,2.184-2.443,3.296-4.212,4.462
			c-0.681,0.449-1.266,1.064-2.052,1.088c-0.347,0.096-0.224-0.281-0.432-0.325c-1.011,0.142-1.405,0.905-2.484,0.979
			c0.561-0.67,1.608-0.847,2.268-1.415c0.407-0.048,0.492,0.229,0.648,0.436c2.636-1.079,5.105-2.788,5.939-5.333
			c0.229-0.278,0.669-0.342,0.757-0.762c-0.535,0.207-1.36,0.906-2.485,1.306c-0.678,0.241-1.068,0.812-1.943,0.544
			c-0.429-0.132-0.846-0.675-1.081-1.197c-1.35,1.396-4.333,0.646-5.724-0.326c-0.447-1.473-2.17-1.658-2.268-3.482
			c-0.386,0.083-0.658,0.279-0.864,0.543c0.047,0.162,0.138-0.042,0.324,0c-0.762,0.757-1.578,1.458-2.268,2.286
			c0.969-0.294,1.212-1.317,2.268-1.523c-0.919,0.634-1.541,1.567-2.592,2.067c0.021,0.341-0.073,0.799,0.108,0.98
			c1.137-0.379,1.766-1.27,2.808-1.742C-295.867,449.85-296.911,450.176-297.523,450.939L-297.523,450.939z M-297.63,451.918
			c-0.447,1.051-2.459,1.668-1.836,2.938c0.153-0.186,0.628-0.334,0.324-0.653c0.506-0.531,0.994-0.684,1.404-1.306
			c-0.034,0.05-0.166-0.213-0.108-0.327c0.13-0.259,0.676-0.126,0.432-0.435C-297.437,452.014-297.534,451.966-297.63,451.918
			L-297.63,451.918z M-284.778,444.082c-0.408-0.008-0.851-0.193-1.295-0.218c-1.111-0.06-2.138,0.099-2.7,0.218
			c-1.008,0.213-1.783-0.176-2.809,0c-0.281,0.048-0.521,0.301-0.864,0.436c-0.937,0.363-1.833,0.486-2.052,1.088
			c-0.452,1.236,0.646,1.432,1.188,2.068c0.353,0.414,0.477,0.793,0.648,1.306c0.498,0.44,1.394,0.481,1.728,1.089
			c0.478-0.027,0.787-0.224,1.296-0.219c0.288,0.372,0.592,0.543,0.972,0.545c1.092,0.005,1.369-1.782,2.375-1.959
			c0.398,0.31-0.138,0.834-0.216,1.305c0.354,0.406,0.707,0.812,1.296,0.98c0.912-0.299,1.653-0.883,2.376-1.307
			c1.074-0.629,1.052-0.791,1.188-1.959c0.012-0.1,0.193-0.23,0.216-0.436c0.01-0.09-0.121-0.28-0.108-0.326
			c0.118-0.416,0.646-0.805,0.54-1.306c0.494-0.228,0.854-0.591,1.08-1.089C-280.748,442.993-282.612,444.119-284.778,444.082
			L-284.778,444.082z M-296.983,447.455c0.477-0.136,0.7-0.527,1.081-0.762c0.228-0.173,0.994-0.37,0.647-0.762
			c-0.32,0.33-0.624,0.678-1.08,0.871c0.207-0.555,0.877-0.64,1.08-1.197C-295.932,446.098-296.908,446.697-296.983,447.455
			L-296.983,447.455z M-296.55,447.565c0.264-0.061,0.395-0.256,0.54-0.436C-296.327,447.137-296.411,447.377-296.55,447.565
			L-296.55,447.565z M-297.738,451.266c0.015-0.129,0.191-0.248,0-0.327C-297.754,451.066-297.931,451.186-297.738,451.266
			L-297.738,451.266z M-297.63,451.483c0.27,0.019,0.338-0.167,0.432-0.326C-297.404,451.202-297.663,451.195-297.63,451.483
			L-297.63,451.483z M-297.09,452.354c0.271,0.018,0.338-0.168,0.432-0.327C-296.865,452.072-297.123,452.066-297.09,452.354
			L-297.09,452.354z M-296.226,452.136v0.218c0.266,0.169,0.317-0.369,0.108-0.327
			C-296.124,452.093-296.134,452.156-296.226,452.136L-296.226,452.136z M-298.278,454.53c0.636-0.411,1.254-0.841,1.728-1.415
			c-0.402,0.115-0.171-0.408-0.54-0.326c-0.59,0.386-1.475,1.051-1.62,1.523c0.554-0.494,1.114-0.982,1.836-1.307
			C-297.155,453.67-298.421,453.787-298.278,454.53L-298.278,454.53z"/>
		<path id="Fill-69" sketch:type="MSShapeGroup" inkscape:connector-curvature="0" d="M-263.395,445.388
			c0.238,0.159-0.459,0.685-0.107,0.979c0.396-0.072,0.265-0.676,0.54-0.871c0.157,0.061,0.559-0.127,0.54,0.109
			c-0.366,0.392-0.714,0.804-0.864,1.414c-0.252,0.033-0.465,0.232-0.54-0.107c-0.293,0.139-0.543,0.322-0.54,0.762
			c0.174,0.34,0.134-0.434,0.54-0.219c-0.229,0.313-0.473,0.613-0.972,0.653c0.189-0.886,0.366-1.145,0.756-1.741
			c0.206,0.047,0.195,0.311,0.541,0.217C-263.847,446.25-263.7,445.657-263.395,445.388"/>
		<path id="Fill-70" sketch:type="MSShapeGroup" inkscape:connector-curvature="0" d="M-264.474,448.218
			c-0.109,0.058-0.478,0.563-0.432,0.108C-264.713,448.34-264.679,448.193-264.474,448.218"/>
		<path id="Fill-71" sketch:type="MSShapeGroup" inkscape:connector-curvature="0" d="M-294.498,453.115
			c-0.072,0.662-1.289,1.168-1.944,1.741c-0.202,0.177-0.351,0.495-0.54,0.653c-0.156-0.382,0.791-1.099,1.188-1.415
			C-295.354,453.744-294.826,453.641-294.498,453.115"/>
		<path id="Fill-72" sketch:type="MSShapeGroup" inkscape:connector-curvature="0" d="M-235.963,407.403
			c0.268,0.815-0.28,1.748-0.756,2.177c0.028,1.1-0.687,2.349-0.864,3.592c-0.113,0.791,0.09,1.58-0.539,2.068
			c-0.354-0.137,0.24-0.778,0.323-1.197c0.171-0.867-0.052-1.917,0.433-2.504c-0.549,0.393-1.229,1.592-1.944,2.178
			c0.361-1.014,1.218-1.529,1.728-2.395c-0.07-0.111-0.248-0.113-0.216-0.327C-237.149,409.836-236.141,409.038-235.963,407.403"/>
		<path id="Fill-73" sketch:type="MSShapeGroup" inkscape:connector-curvature="0" d="M-256.805,461.495
			c0.174-0.03,0.186,0.104,0.322,0.109c-0.139,0.747,0.963,2.067,0.109,2.395c0.078-0.333-0.188-0.32-0.109-0.653
			c-0.299,0.141-0.098,0.707-0.215,0.762c-0.487-0.146-0.09-0.764-0.324-0.979c-0.102,0.08-0.164,0.198-0.216,0.327
			C-257.43,462.624-256.749,462.106-256.805,461.495"/>
	</g>
</g>
<path id="path3064" inkscape:connector-curvature="0" fill="#CCCCCC" d="M-293.823,472.326c-1.16-0.574-1.396-0.839-1.253-1.407
	c0.097-0.385,0.036-0.922-0.136-1.192c-0.256-0.406-0.313-0.376-0.322,0.168c-0.007,0.479-0.086,0.541-0.284,0.229
	c-0.151-0.237-0.221-1.056-0.156-1.818c0.11-1.29,0.083-1.342-0.382-0.744c-0.483,0.62-0.5,0.613-0.5-0.212
	c0-0.47,0.223-0.94,0.496-1.044c0.273-0.105,0.496-0.029,0.496,0.167c0,0.208,0.408,0.298,0.979,0.214
	c0.618-0.091,1.041,0.018,1.146,0.293c0.092,0.24,0.37,0.437,0.616,0.437s0.798,0.372,1.225,0.827
	c0.791,0.841,2.418,1.128,2.81,0.495c0.119-0.192-0.211-0.331-0.788-0.331c-0.651,0-1.169-0.252-1.507-0.734
	c-0.492-0.701-0.453-0.787,0.882-1.938c1.329-1.144,1.36-1.213,0.661-1.436c-0.561-0.178-0.735-0.487-0.735-1.302
	c0-0.587,0.186-1.257,0.413-1.487c0.331-0.336,0.3-0.502-0.154-0.838c-0.443-0.326-0.479-0.506-0.168-0.817
	c0.307-0.308,0.309-0.454,0.006-0.642c-0.239-0.148-0.283-0.42-0.113-0.695c0.213-0.345,0.4-0.224,0.781,0.504
	c0.275,0.527,1.042,1.479,1.704,2.114c1.146,1.103,1.319,1.158,3.684,1.193c1.365,0.021,2.65,0.206,2.857,0.413
	c0.521,0.521,1.417,0.471,2.605-0.144c1.517-0.784,1.49-0.36-0.085,1.349c-1.455,1.579-3.673,2.954-4.366,2.707
	c-0.493-0.176-2.867,1-2.867,1.42c0,0.189,0.363,0.172,0.909-0.045c0.5-0.199,1.38-0.404,1.957-0.458
	c2.7-0.25,7.242-4.969,7.625-7.923c0.094-0.727,0.365-1.545,0.601-1.818c0.749-0.865,1.164-2.322,0.832-2.916
	c-0.273-0.488-0.97-0.537-6.193-0.435c-6.14,0.121-7.787,0.45-10.001,1.999c-0.469,0.328-1.06,0.524-1.312,0.436
	c-0.271-0.096-0.368-0.014-0.237,0.199c0.123,0.197,0.091,0.626-0.07,0.951c-0.161,0.326-0.632,1.271-1.046,2.104
	c-0.628,1.26-0.688,1.633-0.359,2.246c0.344,0.643,0.267,0.882-0.602,1.871c-0.562,0.64-1.087,0.987-1.205,0.797
	c-0.115-0.186-0.509-0.242-0.875-0.126c-0.605,0.192-0.645,0.11-0.433-0.896c0.266-1.26,0.898-2.857,1.847-4.662
	c0.631-1.201,0.514-2.274-0.286-2.613c-0.145-0.062-0.953-1.016-1.797-2.119c-1.228-1.607-1.609-2.432-1.911-4.132
	c-0.208-1.168-0.467-2.495-0.576-2.949c-0.17-0.712-0.128-0.769,0.306-0.411c0.306,0.252,0.442,0.739,0.347,1.239
	c-0.092,0.48-0.004,0.824,0.211,0.824c0.203,0,0.369-0.16,0.369-0.356c0-0.195,0.612,0.168,1.359,0.808
	c1.505,1.288,3.901,2.523,4.895,2.523c0.354,0,1.031,0.147,1.505,0.328c0.832,0.315,4.356,0.413,7.443,0.206
	c0.818-0.056,2.826-0.631,4.462-1.28s4.129-1.585,5.541-2.079c2.74-0.961,2.964-1.156,5.977-5.229
	c1.099-1.484,2.155-2.478,3.36-3.158c0.967-0.545,1.845-1.133,1.951-1.304c0.106-0.172,0.49-0.234,0.854-0.14
	c0.369,0.097,0.661,0.01,0.661-0.196c0-0.202-0.186-0.392-0.413-0.419c-0.228-0.027-0.569-0.068-0.759-0.089
	c-0.664-0.073-2.084-1.366-4.113-3.745c-1.583-1.855-2.242-2.396-2.919-2.396c-0.889,0-3.126-0.976-7.185-3.134
	c-1.676-0.891-6.272-4.363-7.789-5.885c-1.127-1.13-2.741-3.541-2.37-3.541c0.111,0,0.689,0.372,1.285,0.826
	c0.596,0.455,1.261,0.826,1.477,0.826c0.217,0,1.23,0.359,2.253,0.799c1.022,0.44,3.541,1.203,5.596,1.695
	c2.055,0.493,3.945,1.104,4.2,1.359c0.288,0.288,0.775,0.385,1.29,0.256c0.621-0.156,1.967,0.354,5.385,2.036
	c4.668,2.299,5.734,2.93,7.626,4.514c0.597,0.5,1.285,0.909,1.529,0.909c0.244,0,0.613,0.204,0.82,0.453
	c0.548,0.66,12.051,1.221,14.908,0.727c4.326-0.747,8.512-2.011,10.576-3.193c0.98-0.561,1.031-0.641,0.331-0.523
	c-0.454,0.076-1.111,0.258-1.459,0.402c-0.471,0.196-0.565,0.156-0.372-0.158c0.252-0.406-0.197-0.348-1.723,0.225
	c-0.227,0.086-0.412-0.005-0.412-0.201c0-0.248-0.262-0.259-0.854-0.033c-0.47,0.178-0.985,0.242-1.147,0.143
	c-0.16-0.1-0.736,0.049-1.277,0.328c-1.126,0.582-1.812,0.664-1.514,0.18c0.278-0.45-0.031-0.416-1.09,0.123
	c-0.492,0.249-1.156,0.357-1.477,0.241c-0.492-0.179-0.26-0.577,1.455-2.511c2.672-3.009,3.887-5.68,5.793-12.727
	c0.861-3.182,1.7-5.877,1.865-5.991c0.166-0.114,0.583-0.134,0.926-0.044c0.463,0.121,0.625-0.014,0.625-0.518
	c0-0.937-0.561-1.197-1.199-0.559c-0.621,0.621-0.889,0.496-0.592-0.277c0.115-0.299,0.453-0.543,0.752-0.543
	c1.166,0.004,3.738,1.215,5.082,2.395c0.775,0.681,2.08,1.723,2.897,2.314c1.133,0.82,1.842,1.76,2.975,3.946
	c0.817,1.578,1.921,3.481,2.45,4.229c0.76,1.071,1.188,2.419,2.021,6.384c0.582,2.764,1.211,5.398,1.396,5.856
	c0.402,0.993,1.178,5.438,1.152,6.599c-0.011,0.451-0.321,1.789-0.69,2.975c-0.369,1.185-1.069,3.938-1.556,6.119
	c-1.122,5.037-1.695,6.283-4.064,8.836c-1.057,1.139-2.326,2.822-2.819,3.74c-1.03,1.914-3.428,3.547-4.231,2.88
	c-0.243-0.202-1.333-0.699-2.422-1.104c-1.129-0.42-2.67-1.354-3.588-2.176c-0.887-0.793-2.002-1.523-2.479-1.623
	c-2.987-0.626-6.217-1.561-6.646-1.922c-0.513-0.433-2.492-1.296-3.217-1.402c-0.221-0.033-0.864-0.389-1.429-0.791
	c-0.871-0.621-1.283-0.697-2.712-0.508c-1.513,0.2-1.641,0.17-1.251-0.3c0.516-0.621,0.17-1.13-0.389-0.571
	c-0.295,0.295-0.529,0.258-0.986-0.156c-0.488-0.441-0.6-0.455-0.6-0.068c0,0.774,0.984,1.941,1.637,1.941
	c0.693,0,1.008,0.625,1.008,2.004c0,0.796,0.237,1.077,1.404,1.663c0.773,0.388,1.788,1.097,2.256,1.576
	c0.469,0.479,1.175,1.131,1.57,1.447c1.367,1.094,0.609,3.111-1.465,3.899c-0.459,0.175-1.828,0.314-3.043,0.31l-2.21-0.009
	l-2.231-2.098c-1.655-1.557-2.23-2.322-2.23-2.967c0-0.477-0.148-0.867-0.33-0.867c-0.182,0-0.331-0.447-0.331-0.992
	s-0.144-0.992-0.32-0.992c-0.176,0-0.234-0.223-0.13-0.495c0.275-0.716-0.212-0.609-1.121,0.243
	c-0.433,0.407-1.828,1.047-3.101,1.422c-2.048,0.604-2.397,0.83-3.035,1.956c-0.397,0.7-1.019,1.437-1.382,1.636
	c-0.364,0.199-1.21,0.838-1.882,1.418c-1.319,1.143-2.627,1.576-5.72,1.896c-1.091,0.113-2.567,0.407-3.28,0.653
	c-0.881,0.304-1.622,0.354-2.312,0.156c-1.781-0.511-3.131-0.317-5.074,0.728c-1.841,0.99-1.996,1.016-5.567,0.908l-3.673-0.11
	l0.084,1.57C-291.626,473.271-291.783,473.336-293.823,472.326L-293.823,472.326L-293.823,472.326z M-293.105,471.205
	c-0.103-0.267-0.319-0.484-0.481-0.484c-0.339,0-0.398,0.777-0.083,1.092C-293.317,472.166-292.906,471.724-293.105,471.205z
	 M-292.559,468.902c0-0.272-0.149-0.496-0.331-0.496c-0.182,0-0.331,0.224-0.331,0.496c0,0.273,0.148,0.496,0.331,0.496
	C-292.708,469.398-292.559,469.176-292.559,468.902z M-294.212,468.572c0-0.273-0.14-0.496-0.311-0.496
	c-0.417,0-0.715,0.516-0.451,0.78C-294.602,469.229-294.212,469.083-294.212,468.572z M-273.47,464.414
	c0.774-0.985,1.881-2.312,2.46-2.947c1.192-1.311,2.578-3.691,2.578-4.429c0-0.271-0.291-0.695-0.646-0.944
	c-0.355-0.248-0.797-0.852-0.983-1.341c-0.32-0.841-1.346-1.267-1.346-0.558c0,0.182,0.129,0.33,0.287,0.33
	c0.458,0,0.702,2.277,0.344,3.219c-0.18,0.473-0.521,1.02-0.758,1.217c-0.237,0.196-0.633,0.877-0.879,1.514
	c-0.437,1.127-1.668,3.359-2.849,5.16C-276.327,467.26-274.991,466.35-273.47,464.414L-273.47,464.414z M-223.146,463.938
	c0.23-0.277,0.334-0.59,0.23-0.693c-0.256-0.255-2.22,0.193-2.22,0.507C-225.136,464.555-223.766,464.684-223.146,463.938z
	 M-265.03,462.457c0.54,0,1.556-1.038,1.556-1.589c0-0.423-0.09-0.415-0.604,0.051c-0.333,0.301-0.729,0.548-0.883,0.548
	c-0.568,0-1.487,1.115-1.47,1.785c0.017,0.684,0.025,0.682,0.536-0.051C-265.61,462.793-265.221,462.457-265.03,462.457z
	 M-260.935,460.086c0.421-0.395,0.762-1.027,0.758-1.404c-0.007-0.684-0.009-0.684-0.579,0.028c-0.314,0.393-0.867,0.767-1.228,0.83
	s-0.707,0.374-0.768,0.69C-262.909,461.047-261.87,460.965-260.935,460.086L-260.935,460.086z M-230.5,459.875
	c0.074-0.219-0.172-0.393-0.557-0.393c-0.688,0-0.893,0.348-0.462,0.779C-231.213,460.567-230.66,460.358-230.5,459.875z
	 M-259.39,459.73c0.221-0.227,0.823-0.971,1.337-1.652l0.936-1.239h-0.836c-0.658,0-0.982,0.303-1.526,1.427
	C-260.389,460.145-260.354,460.723-259.39,459.73L-259.39,459.73z M-225.9,458.79c-0.271-1.034,0.078-1.62,0.965-1.62
	c1.224,0,0.938-0.508-0.565-1.004c-0.747-0.246-1.432-0.642-1.522-0.879c-0.165-0.429-1.418-0.623-1.418-0.22
	c0,0.116,0.242,0.389,0.539,0.604c0.296,0.217,0.568,0.68,0.606,1.028c0.114,1.061,0.882,2.782,1.239,2.782
	C-225.871,459.482-225.801,459.172-225.9,458.79L-225.9,458.79z M-219.826,458.48c0.597-0.319,0.912-1.311,0.418-1.311
	c-0.334,0-1.431,1.053-1.431,1.373C-220.839,458.91-220.602,458.895-219.826,458.48L-219.826,458.48z M-238.687,457.551
	c0-0.153-0.298-0.548-0.661-0.877c-0.645-0.584-0.66-0.577-0.66,0.279c0,0.657,0.166,0.877,0.66,0.877
	C-238.984,457.83-238.687,457.705-238.687,457.551z M-250.66,457.107c-0.205-0.613-0.916-0.715-0.916-0.131
	c0,0.288,0.235,0.523,0.523,0.523C-250.766,457.5-250.588,457.323-250.66,457.107z M-236.76,456.541
	c-0.485-0.777-1.266-0.93-1.266-0.248c0,0.398,1.33,1.262,1.593,1.033C-236.375,457.275-236.521,456.922-236.76,456.541
	L-236.76,456.541z M-293.151,456.327c0.937-1.124,1.728-1.802,2.103-1.802c0.217,0,0.473-0.297,0.568-0.661
	c0.207-0.79-0.185-0.854-0.891-0.149c-0.375,0.376-0.836,0.452-1.724,0.285c-0.868-0.162-1.146-0.121-0.979,0.149
	c0.128,0.206,0.456,0.376,0.728,0.376c0.273,0,0.408,0.143,0.3,0.316s-0.414,0.232-0.68,0.129c-0.362-0.139-0.485,0.074-0.485,0.842
	C-294.212,456.934-293.816,457.126-293.151,456.327z M-252.237,456.643c0-0.359-1.392-2.158-1.548-2.002
	c-0.234,0.235,0.859,2.198,1.227,2.198C-252.383,456.839-252.237,456.75-252.237,456.643z M-232.543,455.602
	c-0.361-0.361-0.608,0.213-0.35,0.811c0.246,0.566,0.264,0.565,0.4-0.012C-232.412,456.067-232.436,455.708-232.543,455.602
	L-232.543,455.602z M-217.609,455.909c0.072-0.216-0.105-0.392-0.393-0.392c-0.288,0-0.523,0.234-0.523,0.522
	C-218.525,456.624-217.814,456.522-217.609,455.909L-217.609,455.909z M-268.432,455.041c0-0.496-0.593-1.023-0.856-0.762
	c-0.23,0.23,0.226,1.238,0.561,1.238C-268.565,455.518-268.432,455.303-268.432,455.041z M-251.742,454.855
	c-0.328-0.363-0.729-0.66-0.889-0.66s-0.131,0.297,0.062,0.66c0.195,0.364,0.596,0.662,0.89,0.662
	C-251.206,455.518-251.213,455.439-251.742,454.855z M-296.224,453.811c-0.261-0.487-0.464-0.615-0.554-0.348
	c-0.145,0.436,0.562,1.523,0.822,1.264C-295.876,454.647-295.997,454.234-296.224,453.811z M-244.636,454.176
	c0-0.172-0.298-0.312-0.661-0.312c-0.729,0-0.9,0.521-0.248,0.755C-245.045,454.798-244.636,454.599-244.636,454.176z
	 M-264.585,453.038c-0.141-0.366,0.045-0.496,0.708-0.497c1.239-0.002,2.995-1.141,3.4-2.206c0.377-0.993,0.065-5.302-0.406-5.593
	c-0.163-0.1-0.755-0.24-1.315-0.312c-2.655-0.336-5.891,2.653-5.408,4.995c0.091,0.441,0.247,1.188,0.345,1.659
	c0.11,0.524,0.346,0.792,0.608,0.692c0.236-0.092,0.639-0.033,0.895,0.129c0.38,0.241,0.363,0.297-0.093,0.301
	c-0.902,0.008-1.037,0.645-0.206,0.979C-264.896,453.65-264.371,453.599-264.585,453.038L-264.585,453.038z M-249.15,452.543
	c-0.6-1.018-1.104-1.293-1.104-0.605c0,0.473,0.98,1.596,1.392,1.596C-248.698,453.533-248.828,453.088-249.15,452.543
	L-249.15,452.543z M-294.212,452.212c0-0.182-0.223-0.331-0.496-0.331c-0.273,0-0.496,0.149-0.496,0.331s0.223,0.331,0.496,0.331
	C-294.435,452.543-294.212,452.394-294.212,452.212z M-296.76,451.221c-0.095-0.363-0.23-0.661-0.299-0.661
	c-0.07,0-0.127,0.298-0.127,0.661s0.135,0.66,0.3,0.66C-296.722,451.881-296.665,451.584-296.76,451.221z M-245.627,451.631
	c0-0.383-1.357-1.146-1.602-0.902c-0.119,0.119,0.073,0.426,0.426,0.684C-246.096,451.93-245.627,452.017-245.627,451.631z
	 M-215.881,450.044c0-0.443-0.149-0.807-0.331-0.807s-0.331,0.455-0.331,1.011c0,0.59,0.139,0.926,0.331,0.807
	C-216.03,450.943-215.881,450.488-215.881,450.044L-215.881,450.044z M-251.576,447.293c0-0.16-0.297-0.37-0.661-0.465
	c-0.439-0.115-0.661-0.451-0.661-1.003c0-0.456-0.175-0.888-0.389-0.959c-0.571-0.19-0.006-0.917,0.713-0.917
	c0.688,0,1.545-2.027,1.137-2.688c-0.146-0.235-0.38,0.051-0.602,0.738c-0.2,0.617-0.447,1.049-0.548,0.957
	c-0.102-0.09-0.647,0.207-1.214,0.662c-0.566,0.454-1.636,1.264-2.377,1.798c-1.278,0.923-1.69,1.507-1.062,1.507
	c0.157,0,0.844-0.444,1.526-0.986c0.683-0.543,1.375-0.904,1.538-0.805c0.162,0.102,0.51,0.693,0.77,1.318
	c0.322,0.769,0.692,1.134,1.152,1.134C-251.881,447.585-251.576,447.453-251.576,447.293L-251.576,447.293L-251.576,447.293z
	 M-223.068,442.839c1.004-0.012,1.207-0.119,1.065-0.565c-0.138-0.434,0.125-0.603,1.238-0.796l1.413-0.245l-0.973-0.42
	l-0.973-0.418l1.052-0.231c1.173-0.258,1.759-0.845,0.83-0.834c-0.855,0.011-3.407,1.22-3.407,1.615
	c0,0.183-0.669,0.726-1.486,1.204c-1.605,0.94-1.939,1.372-0.744,0.961C-224.645,442.969-223.751,442.847-223.068,442.839
	L-223.068,442.839z M-214.37,441.715c-0.11-0.11-0.382-0.018-0.604,0.205c-0.32,0.318-0.301,0.469,0.088,0.713
	c0.352,0.219,0.525,0.16,0.604-0.205C-214.221,442.145-214.26,441.824-214.37,441.715L-214.37,441.715z M-223.648,441.305
	c0.112-0.182-0.027-0.33-0.311-0.33s-0.516,0.148-0.516,0.33s0.141,0.331,0.311,0.331
	C-223.992,441.636-223.761,441.486-223.648,441.305z M-258.13,439.105c0.86-0.777,0.75-1.105-0.368-1.105
	c-1.155,0-1.541,0.465-0.945,1.141C-258.895,439.762-258.854,439.761-258.13,439.105z M-260.169,438.02
	c0-0.171-0.149-0.402-0.331-0.516c-0.182-0.111-0.331,0.027-0.331,0.312c0,0.283,0.149,0.515,0.331,0.515
	S-260.169,438.19-260.169,438.02z M-261.161,437.67c0-0.182-0.148-0.331-0.331-0.331c-0.182,0-0.331,0.149-0.331,0.331
	s0.149,0.33,0.331,0.33C-261.31,438-261.161,437.852-261.161,437.67z M-263.175,434.492c-0.48-0.578-0.787-0.353-0.508,0.375
	c0.112,0.291,0.361,0.434,0.553,0.314C-262.891,435.034-262.905,434.818-263.175,434.492z M-254.221,434.529
	c0-0.556-0.061-0.578-0.799-0.295c-0.739,0.283-0.65,0.791,0.139,0.791C-254.514,435.025-254.221,434.805-254.221,434.529z
	 M-257.525,434.4c0-0.161-0.292-0.645-0.65-1.074c-0.523-0.627-0.652-0.671-0.661-0.225c-0.006,0.305,0.223,0.788,0.508,1.074
	C-257.738,434.766-257.525,434.825-257.525,434.4z M-225.863,433.637c0.309-0.309,0.396-0.299,0.396,0.041
	c0,0.879,0.855-0.267,1.635-2.189c0.427-1.055,1.052-2.223,1.389-2.599c0.337-0.375,0.613-0.867,0.613-1.093
	c0-0.428-3.326,1.992-4.431,3.223c-0.655,0.729-0.299,1.001,0.397,0.305c0.44-0.44,0.556,0.078,0.129,0.578
	c-0.146,0.172-0.441,0.723-0.653,1.223C-226.791,434.074-226.542,434.316-225.863,433.637z M-265.127,430.729
	c0-0.182-0.223-0.33-0.496-0.33c-0.272,0-0.496,0.148-0.496,0.33s0.223,0.331,0.496,0.331
	C-265.35,431.06-265.127,430.91-265.127,430.729z M-263.475,430.398c0-0.182-0.149-0.33-0.331-0.33s-0.331,0.148-0.331,0.33
	s0.149,0.33,0.331,0.33S-263.475,430.58-263.475,430.398z M-271.407,429.445c0-0.286-1.706-0.752-1.934-0.527
	c-0.063,0.062-0.018,0.273,0.102,0.467C-272.976,429.809-271.407,429.86-271.407,429.445z M-271.407,427.795
	c0-0.336-2-0.795-2.274-0.521c-0.284,0.284,0.696,0.8,1.531,0.806C-271.741,428.082-271.407,427.955-271.407,427.795z
	 M-277.356,426.432c0-0.182-0.372-0.33-0.826-0.33s-0.826,0.148-0.826,0.33s0.372,0.331,0.826,0.331
	S-277.356,426.613-277.356,426.432z M-232.607,426.02c0.645-3.357,1.025-4.818,1.426-5.474c0.258-0.419,0.412-1.015,0.342-1.321
	c-0.09-0.399-0.283-0.229-0.675,0.598c-0.597,1.255-1.449,2.758-2.321,4.09c-0.758,1.155-0.695,1.426,0.156,0.671l0.709-0.63
	l-0.217,1.404C-233.413,426.809-232.876,427.42-232.607,426.02z M-279.174,424.119c0.115-0.188-0.155-0.331-0.622-0.331
	c-0.454,0-0.918,0.149-1.03,0.331c-0.115,0.186,0.155,0.33,0.622,0.33C-279.75,424.449-279.286,424.301-279.174,424.119z
	 M-226.571,420.4c-0.102-0.409-0.068-1.599,0.074-2.645c0.143-1.045,0.187-1.973,0.097-2.062c-0.344-0.344-1.049,0.615-1.061,1.442
	c-0.006,0.478-0.225,1.24-0.484,1.694c-0.618,1.083-0.618,1.506,0,0.992c0.412-0.342,0.496-0.303,0.496,0.234
	c0,0.704,0.266,1.088,0.752,1.088C-226.525,421.145-226.469,420.81-226.571,420.4z M-223.813,413.377
	c0-0.272-0.207-0.496-0.46-0.496c-0.254,0-0.547,0.224-0.651,0.496c-0.13,0.338,0.019,0.496,0.46,0.496
	C-224.105,413.873-223.813,413.65-223.813,413.377z M-228.11,413.047c0-0.273-0.148-0.496-0.33-0.496
	c-0.183,0-0.331,0.223-0.331,0.496c0,0.272,0.148,0.496,0.331,0.496C-228.259,413.543-228.11,413.319-228.11,413.047z"/>
<path id="path3066" inkscape:connector-curvature="0" fill="#CCCCCC" d="M-275.277,484.271c-0.106-0.406-0.445-0.657-0.878-0.65
	c-0.691,0.01-0.692,0.02-0.063,0.495c0.57,0.432,0.579,0.485,0.072,0.485c-0.908,0-2.798-0.893-3.778-1.784
	c-0.496-0.452-1.611-1.446-2.479-2.211s-1.497-1.47-1.399-1.567s0.354-0.001,0.569,0.214c0.215,0.216,0.965,0.392,1.667,0.392
	c0.766,0,1.194,0.131,1.071,0.33c-0.112,0.182,0.102,0.33,0.476,0.33c0.747,0,0.923-0.508,0.268-0.772
	c-0.228-0.091-0.061-0.179,0.371-0.192c1.005-0.033,7.126-2.078,9.382-3.135c1.34-0.627,2.455-0.846,4.937-0.967
	c2.5-0.122,3.608-0.342,5.04-0.997c1.01-0.462,1.835-0.997,1.835-1.188c0-0.192,0.265-0.35,0.587-0.35
	c0.323,0,0.918-0.231,1.322-0.514c1.267-0.889,0.615,1.39-0.833,2.906c-0.475,0.498-0.751,1.019-0.613,1.156
	s0.745-0.289,1.349-0.949c1.417-1.547,2.428-5.555,1.846-7.319c-0.53-1.608-2.414-3.322-3.649-3.322
	c-0.551,0-1.001-0.101-1.001-0.224c0-0.37,1.115-1.264,1.97-1.58c0.676-0.25,0.984-0.111,1.994,0.892
	c2.442,2.429,4.591,4.327,4.896,4.327c0.173,0,0.741,0.427,1.263,0.947c1.064,1.064,3.758,1.682,3.758,0.861
	c0-0.516-1.154-0.959-1.67-0.641c-0.195,0.12-0.66-0.056-1.033-0.392c-0.668-0.603-0.649-0.614,1.426-0.809
	c1.157-0.108,2.585-0.4,3.173-0.648c0.972-0.411,1.114-0.394,1.574,0.197c0.321,0.412,0.439,1.011,0.323,1.64
	c-0.1,0.546-0.307,1.662-0.459,2.479c-0.41,2.208-2.406,5.595-4.16,7.056c-2.002,1.669-5.011,2.421-9.789,2.447
	c-2.644,0.016-3.781,0.16-4.609,0.588c-0.857,0.443-1.894,0.562-4.709,0.537c-3.769-0.034-4.854,0.238-4.854,1.216
	c0,1.032-0.727,1.376-2.906,1.376C-274.826,484.932-275.127,484.846-275.277,484.271z M-272.75,483.597
	c-0.238-0.147-0.476-0.688-0.528-1.201s-0.136-1.228-0.186-1.586c-0.068-0.487,0.347-0.89,1.645-1.591
	c0.954-0.516,1.735-1.078,1.735-1.248c0-0.415,0.025-0.422-1.854,0.485c-2.111,1.019-2.407,1.401-2.383,3.093
	c0.014,1.013,0.247,1.634,0.863,2.299c0.597,0.644,0.887,0.779,0.993,0.463C-272.385,484.065-272.513,483.744-272.75,483.597
	L-272.75,483.597z M-278.182,482.443c-1.031-0.846-1.818-1.055-1.818-0.486c0,0.183,0.205,0.331,0.455,0.331
	c0.25,0,0.641,0.224,0.867,0.495c0.226,0.273,0.653,0.491,0.949,0.484C-277.349,483.26-277.482,483.018-278.182,482.443z
	 M-276.695,481.335c0-0.16-0.297-0.37-0.661-0.465c-0.649-0.17-0.874,0.104-0.44,0.536
	C-277.476,481.728-276.695,481.677-276.695,481.335z M-274.96,481.408c-0.227-0.092-0.599-0.092-0.826,0
	c-0.227,0.092-0.041,0.167,0.413,0.167C-274.918,481.575-274.732,481.5-274.96,481.408z M-280.331,481.002
	c0-0.367-1.017-0.781-1.277-0.521c-0.105,0.105,0.027,0.33,0.295,0.498C-280.694,481.37-280.331,481.378-280.331,481.002z
	 M-275.704,480.167c0-0.076,0.09-0.374,0.201-0.661c0.144-0.375,0.003-0.523-0.496-0.523c-0.476,0-0.696,0.21-0.696,0.662
	c0,0.367,0.22,0.66,0.496,0.66C-275.926,480.305-275.704,480.242-275.704,480.167z M-251.084,475.354
	c0.252-0.408-0.15-2.65-0.477-2.65c-0.43,0-1.033,1.711-0.83,2.352C-252.18,475.719-251.418,475.893-251.084,475.354z"/>
<path id="path3070" inkscape:connector-curvature="0" fill="#CCCCCC" d="M-244.284,461.326c-0.402-0.484-0.222-2.307,0.315-3.174
	c0.24-0.391,0.479-0.371,1.508,0.12l1.223,0.583l-0.824,0.893c-0.453,0.49-0.915,1.152-1.027,1.471
	C-243.336,461.919-243.76,461.957-244.284,461.326z"/>
<path id="path3072" inkscape:connector-curvature="0" fill="#CCCCCC" d="M-266.004,467.18c-0.234-0.079-0.094-0.41,0.362-0.855
	c1.337-1.308,2.865-2.271,3.323-2.096c0.247,0.096,0.614-0.025,0.816-0.27c0.659-0.794,1.532-0.244,1.532,0.966
	c0,1.028-0.074,1.103-1.1,1.103c-0.605,0-1.322,0.185-1.594,0.41c-0.272,0.227-0.589,0.316-0.705,0.201s-0.372-0.083-0.57,0.07
	C-264.424,467.085-265.534,467.338-266.004,467.18L-266.004,467.18z"/>
</svg>
